<svg width="61" height="61" viewBox="0 0 61 61" fill="none" xmlns="http://www.w3.org/2000/svg">
<path d="M28.191 2.22563C29.738 1.33247 31.644 1.33247 33.191 2.22563L54.1718 14.3389C55.7188 15.232 56.6718 16.8827 56.6718 18.669V42.8955C56.6718 44.6818 55.7188 46.3325 54.1718 47.2256L33.191 59.3389C31.644 60.232 29.738 60.232 28.191 59.3389L7.21028 47.2256C5.66327 46.3325 4.71028 44.6818 4.71028 42.8955V18.669C4.71028 16.8827 5.66327 15.232 7.21028 14.3389L28.191 2.22563Z" fill="#998D1F"/>
<rect x="15.8941" y="15.8923" width="29.5938" height="21.3851" rx="2" fill="#BAD9F0"/>
<path d="M25.1022 24.0316C25.1022 23.2402 25.978 22.7624 26.6435 23.1908L29.8605 25.262V31.1586L25.662 29.1005C25.3194 28.9326 25.1022 28.5842 25.1022 28.2026V24.0316Z" fill="#FFF278"/>
<path d="M29.8605 25.2598L33.1834 23.1289C33.8601 22.6949 34.7464 23.1964 34.7228 24L34.5987 28.2361C34.5878 28.6066 34.3729 28.9407 34.0402 29.1042L29.8605 31.1586V25.2598Z" fill="#70B2E2"/>
<path d="M25.4604 22.8267L29.4151 20.8313C29.696 20.6895 30.0272 20.6883 30.3092 20.8278L34.5818 22.9424L29.8613 25.2626L25.4604 22.8267Z" fill="#E57373"/>
<path d="M30.6577 33.5159C30.6927 33.8889 30.4185 34.2226 30.0439 34.2273C28.5762 34.2455 27.1253 33.8762 25.8399 33.1511C24.357 32.3146 23.1654 31.0446 22.425 29.5114C21.6847 27.9782 21.431 26.2553 21.6979 24.5737C21.9649 22.8922 22.7398 21.3326 23.9186 20.1041C25.0974 18.8756 26.6238 18.0371 28.2929 17.701C29.962 17.3649 31.6939 17.5474 33.2563 18.2239C34.8187 18.9004 36.1368 20.0386 37.0338 21.4858C37.8113 22.7402 38.2401 24.1747 38.2823 25.6418C38.2931 26.0163 37.971 26.3041 37.5969 26.2844V26.2844C37.2227 26.2648 36.9388 25.945 36.9221 25.5707C36.869 24.3805 36.5122 23.2196 35.8806 22.2005C35.1294 20.9886 34.0256 20.0355 32.7172 19.469C31.4088 18.9024 29.9584 18.7496 28.5607 19.0311C27.163 19.3125 25.8847 20.0147 24.8976 21.0435C23.9104 22.0723 23.2615 23.3783 23.0379 24.7865C22.8143 26.1946 23.0268 27.6375 23.6468 28.9214C24.2668 30.2053 25.2646 31.2689 26.5065 31.9695C27.5507 32.5585 28.7254 32.8672 29.9168 32.8711C30.2914 32.8724 30.6226 33.1429 30.6577 33.5159V33.5159Z" fill="#E4F2FC"/>
<path d="M36.3578 24.9451C36.7444 24.6874 37.6114 24.905 37.9531 25.1198C39.6167 24.3466 39.5014 25.4073 39.067 25.8384L37.8661 26.9367L36.7092 26.0581C36.431 25.7945 35.9712 25.2029 36.3578 24.9451Z" fill="#E0EEF7"/>
<path d="M29.5244 37.2774H35.2734L37.1449 45.6723H27.6534L29.5244 37.2774Z" fill="#778F9B"/>
<path d="M21.9974 44.3119C21.9974 42.1027 23.7882 40.3119 25.9974 40.3119H38.8008C41.01 40.3119 42.8008 42.1027 42.8008 44.3119V44.6723C42.8008 45.2246 42.3531 45.6723 41.8008 45.6723H22.9974C22.4451 45.6723 21.9974 45.2246 21.9974 44.6723V44.3119Z" fill="#EDEFF0"/>
</svg>
