<svg width="61" height="61" viewBox="0 0 61 61" fill="none" xmlns="http://www.w3.org/2000/svg">
<path d="M28.191 2.22563C29.738 1.33247 31.644 1.33247 33.191 2.22563L54.1718 14.3389C55.7188 15.232 56.6718 16.8827 56.6718 18.669V42.8955C56.6718 44.6818 55.7188 46.3325 54.1718 47.2256L33.191 59.3389C31.644 60.232 29.738 60.232 28.191 59.3389L7.21028 47.2256C5.66327 46.3325 4.71028 44.6818 4.71028 42.8955V18.669C4.71028 16.8827 5.66327 15.232 7.21028 14.3389L28.191 2.22563Z" fill="white"/>
<rect x="14.5621" y="23.8503" width="32.3935" height="22.7601" fill="#EECE7B"/>
<path d="M12.4944 46.2637C12.4944 45.7115 12.9421 45.2637 13.4944 45.2637H47.8217C48.374 45.2637 48.8217 45.7115 48.8217 46.2637V46.6104H12.4944V46.2637Z" fill="#60BCAC"/>
<rect x="16.5615" y="29.0959" width="10.862" height="16.1678" fill="#91D8F0"/>
<path d="M16.5178 29.1306L17.2338 29.1306L17.1874 44.5921L16.5178 45.2718V29.1306Z" fill="#E5766D"/>
<path d="M16.5178 29.8466L16.5178 29.1306H27.2908L26.5334 29.8466H16.5178Z" fill="#E5766D"/>
<rect x="20.6577" y="30.5012" width="0.887642" height="3.73386" transform="rotate(45 20.6577 30.5012)" fill="#A7E0F3"/>
<rect x="25.8907" y="34.5396" width="0.887642" height="12.354" transform="rotate(45 25.8907 34.5396)" fill="#A7E0F3"/>
<rect x="26.5598" y="35.711" width="0.887642" height="12.5657" transform="rotate(45 26.5598 35.711)" fill="#A7E0F3"/>
<rect x="26.3006" y="39.1527" width="0.887642" height="7.75336" transform="rotate(45 26.3006 39.1527)" fill="#A7E0F3"/>
<rect x="26.6622" y="40.6795" width="0.887642" height="5.60873" transform="rotate(45 26.6622 40.6795)" fill="#A7E0F3"/>
<rect x="26.6206" y="37.2058" width="0.887642" height="10.4862" transform="rotate(45 26.6206 37.2058)" fill="#A7E0F3"/>
<rect x="22.6349" y="30.4803" width="0.887642" height="7.62246" transform="rotate(45 22.6349 30.4803)" fill="#A7E0F3"/>
<rect x="23.8966" y="30.4748" width="0.887642" height="8.51792" transform="rotate(45 23.8966 30.4748)" fill="#A7E0F3"/>
<rect x="25.6492" y="30.5291" width="0.887642" height="8.51792" transform="rotate(45 25.6492 30.5291)" fill="#A7E0F3"/>
<rect x="25.9777" y="32.53" width="0.887642" height="12.472" transform="rotate(45 25.9777 32.53)" fill="#91D8F0"/>
<path d="M17.8735 36.5261H25.9324C26.304 36.5261 26.6053 36.8274 26.6053 37.1991V37.1991C26.6053 37.5707 26.304 37.872 25.9324 37.872H17.8735V36.5261Z" fill="#E2574C"/>
<rect x="17.8735" y="37.872" width="8.05511" height="0.681087" fill="#6FB3CA"/>
<rect x="17.8735" y="30.4803" width="8.05511" height="0.681087" fill="#6FB3CA"/>
<path d="M17.1587 29.8466L17.8747 29.8466V45.2717H17.1587V29.8466Z" fill="#CB4E44"/>
<path d="M26.5345 29.8438L27.2841 29.138V45.2718H26.6054L26.5345 29.8438Z" fill="#CB4E44"/>
<path d="M25.8373 29.8466H26.5968V45.2483H25.9181L25.8373 29.8466Z" fill="#CB4E44"/>
<circle cx="25.7449" cy="37.1991" r="0.860431" fill="white"/>
<path d="M27.2908 44.5921L27.2908 45.2717H16.5178L17.1841 44.5921H27.2908Z" fill="#CB4E44"/>
<rect x="17.1801" y="43.9164" width="9.41675" height="0.681087" fill="#E2574C"/>
<rect x="29.306" y="29.138" width="15.4728" height="10.91" fill="#8FD4EB"/>
<rect x="33.6784" y="29.8876" width="0.887642" height="6.1501" transform="rotate(45 33.6784 29.8876)" fill="#91D8F0"/>
<rect x="36.8209" y="29.0808" width="0.887642" height="9.48789" transform="rotate(45 36.8209 29.0808)" fill="#A4DCEE"/>
<rect x="38.9847" y="29.1947" width="1.2087" height="13.1803" transform="rotate(45 38.9847 29.1947)" fill="#A4DCEE"/>
<rect x="40.8104" y="29.4304" width="1.16852" height="14.3453" transform="rotate(45 40.8104 29.4304)" fill="#A4DCEE"/>
<rect x="42.593" y="29.7378" width="0.887642" height="13.4478" transform="rotate(45 42.593 29.7378)" fill="#91D8F0"/>
<rect x="43.0782" y="31.4293" width="0.887642" height="12.4057" transform="rotate(45 43.0782 31.4293)" fill="#91D8F0"/>
<rect x="43.4214" y="33.2065" width="0.887642" height="7.59045" transform="rotate(45 43.4214 33.2065)" fill="#91D8F0"/>
<rect x="43.4203" y="36.234" width="0.887642" height="4.29009" transform="rotate(45 43.4203 36.234)" fill="#91D8F0"/>
<rect x="17.8735" y="43.9164" width="13.4362" height="0.681087" transform="rotate(-90 17.8735 43.9164)" fill="#6FB3CA"/>
<rect x="28.7074" y="39.8961" width="16.7469" height="1.33093" fill="#E0746B"/>
<rect x="29.965" y="29.854" width="0.679102" height="10.0421" fill="#E2574C"/>
<rect x="29.2939" y="29.854" width="0.679102" height="10.0206" fill="#E5766D"/>
<rect x="30.6442" y="39.2213" width="14.0941" height="0.674837" fill="#CB4E44"/>
<rect x="30.6442" y="29.854" width="12.7773" height="0.63608" fill="#C15047"/>
<rect x="44.0491" y="29.138" width="0.759592" height="10.7581" fill="#CB4E44"/>
<rect x="43.3261" y="29.138" width="0.759592" height="10.7581" fill="#E2574C"/>
<path d="M29.294 29.854L29.2939 29.138H44.8087L43.9987 29.854H29.294Z" fill="#E5766D"/>
<path d="M17.9042 17.0297L21.1902 17.0299L17.1717 23.8564H11.7945L17.9042 17.0297Z" fill="#E0746B"/>
<path d="M40.1205 17.0244H43.4944L49.5875 23.8369H44.305L40.1205 17.0244Z" fill="#E0746B"/>
<path d="M21.1871 17.0299H24.6275L22.5867 23.8742H17.1642L21.1871 17.0299Z" fill="#E6E8E9"/>
<path d="M24.5938 17.0299L28.8283 17.03L27.9831 23.8531L22.592 23.8746L24.5938 17.0299Z" fill="#E0746B"/>
<path d="M33.2329 17.0197H36.7014L38.7486 23.8511H33.3642L33.2329 17.0197Z" fill="#E0746B"/>
<path d="M28.784 17.0298H33.1737L33.3183 23.8511H27.9255L28.784 17.0298Z" fill="#E6E8E9"/>
<path d="M36.7245 17.0197H40.1199L44.3104 23.8477H38.7318L36.7245 17.0197Z" fill="#E6E8E9"/>
<path d="M11.7945 23.8564H17.1587V25.7402C17.1587 27.2214 15.9579 28.4222 14.4766 28.4222V28.4222C12.9953 28.4222 11.7945 27.2214 11.7945 25.7402V23.8564Z" fill="#E2574C"/>
<path d="M17.1552 23.8939H22.5194V25.7777C22.5194 27.259 21.3186 28.4598 19.8373 28.4598V28.4598C18.356 28.4598 17.1552 27.259 17.1552 25.7777V23.8939Z" fill="#E6E8E9"/>
<path d="M22.5137 23.8369H27.8779V25.7207C27.8779 27.202 26.677 28.4028 25.1958 28.4028V28.4028C23.7145 28.4028 22.5137 27.202 22.5137 25.7207V23.8369Z" fill="#E2574C"/>
<path d="M27.9398 23.8939H33.3039V25.7777C33.3039 27.259 32.1031 28.4598 30.6218 28.4598V28.4598C29.1406 28.4598 27.9398 27.259 27.9398 25.7777V23.8939Z" fill="#E6E8E9"/>
<path d="M33.304 23.8369H38.6681V25.7207C38.6681 27.202 37.4673 28.4028 35.986 28.4028V28.4028C34.5048 28.4028 33.304 27.202 33.304 25.7207V23.8369Z" fill="#E2574C"/>
<path d="M38.7486 23.8511H44.2325V25.675C44.2325 27.1893 43.0049 28.4169 41.4905 28.4169V28.4169C39.9762 28.4169 38.7486 27.1893 38.7486 25.675V23.8511Z" fill="#E6E8E9"/>
<path d="M44.3104 23.8369H49.5318V25.7921C49.5318 27.2339 48.363 28.4028 46.9211 28.4028V28.4028C45.4793 28.4028 44.3104 27.2339 44.3104 25.7921V23.8369Z" fill="#E2574C"/>
<path d="M21.8292 10.7917H39.4214C41.3544 10.7917 42.9214 12.3587 42.9214 14.2917V16.5197H18.3292V14.2917C18.3292 12.3587 19.8962 10.7917 21.8292 10.7917Z" fill="#EAC35D" stroke="#F7DDA4"/>
</svg>
