<svg width="61" height="61" viewBox="0 0 61 61" fill="none" xmlns="http://www.w3.org/2000/svg">
<path d="M27.733 2.22563C29.28 1.33247 31.186 1.33247 32.733 2.22563L53.7137 14.3389C55.2607 15.232 56.2137 16.8827 56.2137 18.669V42.8955C56.2137 44.6818 55.2607 46.3325 53.7137 47.2256L32.733 59.3389C31.186 60.232 29.28 60.232 27.733 59.3389L6.75221 47.2256C5.2052 46.3325 4.25221 44.6818 4.25221 42.8955V18.669C4.25221 16.8827 5.2052 15.232 6.75221 14.3389L27.733 2.22563Z" fill="#FF576B"/>
<rect x="23.7095" y="5.55861" width="20.0146" height="37.5882" rx="1.5" fill="#1C3B5C" stroke="#1C3B5C"/>
<ellipse cx="31.3538" cy="7.93817" rx="0.6" ry="0.587567" fill="#8E8E93"/>
<rect x="32.5443" y="7.5437" width="4.13549" height="0.822594" rx="0.411297" fill="#8E8E93"/>
<rect x="24.2092" y="10.5372" width="19.0298" height="27.7978" fill="#FAFAFA"/>
<path d="M34.437 22.127C34.437 21.5747 34.8847 21.127 35.437 21.127H41.293C41.8452 21.127 42.293 21.5747 42.293 22.127V27.8202C42.293 28.3725 41.8452 28.8202 41.293 28.8202H35.437C34.8847 28.8202 34.437 28.3725 34.437 27.8202V22.127Z" fill="#FEC32E"/>
<path d="M25.7924 13.0311C25.7924 12.4788 26.2401 12.0311 26.7924 12.0311H32.6484C33.2007 12.0311 33.6484 12.4788 33.6484 13.0311V18.7243C33.6484 19.2766 33.2007 19.7243 32.6484 19.7243H26.7924C26.2401 19.7243 25.7924 19.2766 25.7924 18.7243V13.0311Z" fill="#72CF7B"/>
<rect x="27.1869" y="13.6471" width="5.09011" height="0.846295" fill="white"/>
<rect x="27.1869" y="15.491" width="5.09011" height="0.846295" fill="white"/>
<rect x="27.1869" y="17.335" width="3.06995" height="0.846295" fill="white"/>
<ellipse cx="33.6614" cy="40.6503" rx="1.5" ry="1.46892" fill="#D9D9D9"/>
<path d="M34.437 13.0311C34.437 12.4788 34.8847 12.0311 35.437 12.0311H41.293C41.8452 12.0311 42.293 12.4788 42.293 13.0311V18.7243C42.293 19.2766 41.8452 19.7243 41.293 19.7243H35.437C34.8847 19.7243 34.437 19.2766 34.437 18.7243V13.0311Z" fill="#53B4ED"/>
<path d="M38.3666 16.6982C39.0765 16.6982 39.6873 16.0707 39.6873 15.2537C39.6873 14.4466 39.0731 13.8486 38.3666 13.8486C37.66 13.8486 37.046 14.4597 37.046 15.2604C37.046 16.0707 37.6602 16.6982 38.3666 16.6982ZM36.2932 19.7243H40.4401C40.9585 19.7243 41.1433 19.5773 41.1433 19.2897C41.1433 18.4465 40.0769 17.2832 38.3666 17.2832C36.6531 17.2832 35.5866 18.4465 35.5866 19.2897C35.5866 19.5773 35.7716 19.7243 36.2932 19.7243Z" fill="#FAFAFA"/>
<path d="M25.8054 22.127C25.8054 21.5747 26.2531 21.127 26.8054 21.127H32.6614C33.2137 21.127 33.6614 21.5747 33.6614 22.127V27.8202C33.6614 28.3725 33.2137 28.8202 32.6614 28.8202H26.8054C26.2531 28.8202 25.8054 28.3725 25.8054 27.8202V22.127Z" fill="#FF576B"/>
<path d="M27.9331 22.7299V27.2173L31.5335 24.9736L27.9331 22.7299Z" fill="white"/>
<g clip-path="url(#clip0_152_1073)">
<path d="M40.5867 26.3213C40.5742 26.3639 40.5472 26.3992 40.5116 26.4194C40.476 26.4395 40.4348 26.4429 40.397 26.4288C40.3592 26.4146 40.3279 26.3841 40.31 26.344C40.2922 26.3038 40.2892 26.2573 40.3017 26.2146C40.4091 25.8503 40.4649 25.4575 40.4649 25.0533C40.4649 23.4534 39.5733 22.3744 38.3649 22.3744C37.1565 22.3744 36.2649 23.4534 36.2649 25.0533C36.264 25.4477 36.3191 25.8398 36.4281 26.2146C36.4406 26.2573 36.4377 26.3038 36.4198 26.344C36.4019 26.3841 36.3707 26.4146 36.3329 26.4288C36.2951 26.4429 36.2539 26.4395 36.2183 26.4194C36.1827 26.3992 36.1556 26.3639 36.1431 26.3213C36.0241 25.9121 35.9639 25.484 35.9649 25.0533C35.9649 23.2716 36.9858 22.0358 38.3649 22.0358C39.744 22.0358 40.7649 23.2716 40.7649 25.0533C40.7659 25.484 40.7058 25.9121 40.5867 26.3213Z" fill="white"/>
<path d="M37.158 27.0401C36.9203 27.0349 36.694 26.9238 36.5286 26.7309C36.3632 26.538 36.2722 26.2791 36.2754 26.0108V26.0033C36.277 25.8705 36.3019 25.7392 36.3486 25.6172C36.3952 25.4952 36.4628 25.3849 36.5475 25.2924C36.6321 25.2 36.732 25.1274 36.8416 25.0787C36.9512 25.0301 37.0682 25.0064 37.1859 25.0089C37.2651 25.0107 37.3405 25.0477 37.3956 25.112C37.4506 25.1763 37.481 25.2625 37.4799 25.3519L37.4637 26.7062C37.4632 26.7509 37.4548 26.7949 37.4391 26.8359C37.4235 26.8768 37.4008 26.9139 37.3724 26.9449C37.3439 26.9759 37.3104 27.0003 37.2736 27.0166C37.2368 27.033 37.1975 27.0409 37.158 27.0401ZM39.5916 24.9971C39.8294 25.0022 40.0557 25.1134 40.221 25.3062C40.3864 25.4991 40.4774 25.758 40.4742 26.0264V26.0338C40.4726 26.1662 40.448 26.297 40.4016 26.4187C40.3553 26.5403 40.2882 26.6505 40.2041 26.7429C40.12 26.8352 40.0206 26.908 39.9116 26.957C39.8026 27.0061 39.6861 27.0304 39.5688 27.0286H39.564C39.4847 27.0269 39.4092 26.9898 39.3541 26.9255C39.2989 26.8611 39.2686 26.7748 39.2697 26.6852L39.2859 25.3309C39.2865 25.2863 39.2948 25.2422 39.3105 25.2013C39.3262 25.1603 39.3489 25.1233 39.3773 25.0923C39.4057 25.0612 39.4392 25.0369 39.476 25.0205C39.5128 25.0042 39.5521 24.9962 39.5916 24.9971Z" fill="white"/>
</g>
<path d="M28.8223 25.7767C24.8975 25.807 24.406 31.2112 24.6508 33.9096V49.1176C30.1369 46.583 29.5177 36.2177 29.2859 33.9096C29.1005 32.0631 28.8996 27.7183 28.8223 25.7767Z" fill="#FEC477"/>
<path d="M13.6014 47.6381L23.5097 51.2189L24.459 49.564C26.564 47.9354 28.2403 42.1217 28.8154 39.4184V39.2215C29.6252 35.7271 29.1528 30.4974 28.8154 28.3194L28.6283 25.923H27.8031C25.3363 25.923 24.7196 28.2683 24.7196 29.4409L24.459 33.6536C23.7988 34.3137 22.7362 34.1024 22.2875 33.9142L21.8966 25.4887L23.2866 24.0017V17.6264L18.5525 21.58C17.4059 21.9274 14.6293 27.197 13.3843 29.7883C11.9945 31.3518 12.95 38.0835 13.6014 41.2539V47.6381Z" fill="#FEC477"/>
<path d="M29.1808 39.9085C29.4185 37.5825 29.0818 29.5283 28.8837 25.7919L27.847 41.4536C28.1753 42.6897 25.7385 46.6589 24.4791 48.4891V49.5928C26.7588 48.5142 28.8837 42.8159 29.1808 39.9085Z" fill="#F7B360"/>
<path d="M26.1817 51.4613L11.8678 46.5167L11.1266 48.2405L25.4868 53.3212L26.1817 51.4613Z" fill="white"/>
<path d="M9.63904 49.2986L10.056 47.847L26.8249 53.4267L25.1573 57.8723L9.63904 49.2986Z" fill="#154E5E"/>
<defs>
<clipPath id="clip0_152_1073">
<rect width="6" height="5.87567" fill="white" transform="translate(35.3649 22.0358)"/>
</clipPath>
</defs>
</svg>
