<svg width="626" height="501" viewBox="0 0 626 501" fill="none" xmlns="http://www.w3.org/2000/svg">
<path opacity="0.1" d="M4.73921 224.866C-14.1175 150.741 40.3977 115.821 70.0125 107.627C94.1872 101.954 165.382 81.9097 256.765 47.1159C348.147 12.3222 429.014 4.88444 458.024 5.51476C650.943 -33.8173 638.734 180.744 608.515 292.941C547.593 530.446 322.038 516.705 216.876 480.146C68.9228 454.429 13.8044 299.244 4.73921 224.866Z" fill="url(#paint0_linear_1629_27763)"/>
<path d="M210.505 330.497H398.472V197.864C398.472 194.249 395.553 191.26 391.869 191.26H217.039C213.425 191.26 210.436 194.179 210.436 197.864V330.497H210.505Z" fill="#B4CAE3"/>
<path d="M217.111 305.194H391.523V198.072H217.111V305.194Z" fill="url(#paint1_linear_1629_27763)"/>
<path d="M198.825 198.559H154.475L154.544 198.142C155.239 194.457 158.506 191.816 162.191 191.816C162.747 191.816 163.233 191.885 163.79 191.955C166.084 187.575 170.602 184.864 175.538 184.864C179.778 184.864 183.81 186.88 186.312 190.356C187.216 190.078 188.189 189.939 189.162 189.939C193.959 189.939 198.06 193.415 198.755 198.142L198.825 198.559ZM155.309 197.933H198.06C197.226 193.762 193.472 190.634 189.162 190.634C188.189 190.634 187.216 190.773 186.312 191.121L186.104 191.19L185.965 190.982C183.601 187.645 179.708 185.629 175.607 185.629C170.811 185.629 166.431 188.27 164.276 192.58L164.137 192.789L163.859 192.719C163.303 192.58 162.747 192.511 162.191 192.511C158.924 192.58 156.073 194.805 155.309 197.933Z" fill="url(#paint2_linear_1629_27763)"/>
<path d="M361.701 143.99L361.562 143.921C345.852 135.857 347.937 120.355 347.937 120.147L348.007 119.868H348.285C358.295 119.868 361.423 116.671 361.493 116.601L361.771 116.323L361.979 116.601C361.979 116.601 365.177 119.868 375.187 119.868H375.465L375.535 120.147C375.535 120.286 377.69 135.857 361.91 143.921L361.701 143.99ZM348.563 120.564C348.355 122.649 347.729 135.996 361.701 143.295C375.674 136.065 375.048 122.719 374.84 120.564C366.15 120.494 362.605 118.061 361.701 117.296C360.798 118.061 357.252 120.494 348.563 120.564Z" fill="url(#paint3_linear_1629_27763)"/>
<path d="M447.829 350.795C445.465 339.951 450.609 337.24 455.545 334.668C459.577 332.513 463.4 330.497 463.192 324.101C462.914 315.621 468.683 312.562 473.758 309.851C477.512 307.835 481.126 305.889 481.613 302.065C482.864 292.82 491.414 281.28 491.554 281.211L492.11 281.628C492.04 281.767 483.559 293.098 482.308 302.204C481.752 306.375 477.998 308.391 474.105 310.477C468.961 313.257 463.609 316.107 463.887 324.101C464.095 330.914 459.924 333.138 455.893 335.224C450.957 337.865 446.3 340.298 448.524 350.656L447.829 350.795Z" fill="url(#paint4_linear_1629_27763)"/>
<path d="M450.401 348.084C450.262 348.084 450.192 348.084 450.053 348.084C447.899 347.945 445.813 346.277 443.45 342.94L443.311 342.731L443.45 342.523C443.519 342.453 447.273 337.865 445.883 329.176C445.535 327.16 445.118 325.631 444.77 324.38C444.284 322.572 443.936 321.39 444.492 320.417C445.187 319.236 447.134 318.54 452.556 317.289C458.326 315.899 460.272 309.364 462.01 303.595C463.609 298.173 465.138 293.029 469.657 293.237C473.827 293.376 480.084 286.911 485.645 281.211C490.789 275.928 495.655 270.923 498.783 270.992C499.548 270.992 500.173 271.34 500.66 271.896C503.441 275.163 500.869 280.238 498.366 285.034C496.211 289.136 494.195 293.098 495.516 295.67C497.115 298.937 497.393 301.857 496.142 304.151C494.751 306.862 491.415 308.6 486.34 309.364C481.683 310.06 481.196 315.134 480.64 320.487C480.014 326.743 479.319 333.903 471.464 334.598C465.625 335.085 461.732 339.186 458.256 342.801C455.545 345.582 453.182 348.084 450.401 348.084ZM444.145 342.731C446.3 345.721 448.246 347.25 450.123 347.389C452.695 347.597 455.128 345.095 457.839 342.245C461.384 338.561 465.416 334.39 471.464 333.834C478.763 333.208 479.389 326.674 480.014 320.348C480.57 314.717 481.126 309.364 486.271 308.6C491.137 307.905 494.265 306.236 495.585 303.734C496.698 301.648 496.42 298.937 494.89 295.879C493.431 293.029 495.516 288.927 497.74 284.687C500.173 280.029 502.606 275.233 500.104 272.244C499.756 271.827 499.27 271.549 498.714 271.549C495.933 271.479 491.137 276.345 486.062 281.559C480.223 287.606 474.175 293.793 469.726 293.793C469.657 293.793 469.587 293.793 469.587 293.793C465.555 293.654 464.234 298.312 462.636 303.734C460.898 309.643 458.882 316.385 452.695 317.845C447.759 319.027 445.605 319.653 445.048 320.695C444.631 321.39 444.909 322.433 445.396 324.171C445.744 325.422 446.161 327.021 446.508 329.037C447.899 337.17 444.909 341.758 444.145 342.731Z" fill="url(#paint5_linear_1629_27763)"/>
<path d="M450.68 345.791C450.61 345.791 450.541 345.791 450.471 345.791C446.926 345.443 444.285 337.796 441.643 330.358C440.392 326.813 439.21 323.476 438.098 321.391C437.194 319.723 436.082 317.985 435.039 316.316C432.119 311.867 429.13 307.279 430.104 303.178C430.59 301.023 432.119 299.285 434.761 297.756C440.531 294.419 439.627 292.542 437.681 288.441C436.29 285.452 434.274 281.281 434.205 274.816C434.205 272.036 434.135 269.603 434.066 267.517C433.857 260.705 433.788 257.229 435.248 255.978C435.873 255.491 436.707 255.352 437.889 255.561C439.975 255.978 440.878 257.646 441.782 259.384C442.964 261.608 444.354 264.18 448.525 265.084C452.418 265.918 456.172 267.031 457.145 269.603C457.84 271.41 457.214 273.773 455.059 276.902C454.573 277.666 454.364 278.292 454.503 278.848C454.851 280.099 456.797 281.003 459.022 282.046C462.219 283.505 466.182 285.382 467.294 289.206C468.198 292.264 467.155 296.157 464.096 301.023C456.867 312.493 457.145 320.209 457.423 327.091C457.631 332.166 457.77 336.962 454.712 342.315C453.391 344.678 452.07 345.791 450.68 345.791ZM436.846 256.117C436.36 256.117 435.943 256.256 435.665 256.464C434.413 257.507 434.552 261.052 434.692 267.448C434.761 269.603 434.831 271.966 434.831 274.816C434.9 281.142 436.846 285.243 438.237 288.163C440.183 292.264 441.295 294.697 435.039 298.312C432.606 299.702 431.146 301.371 430.66 303.317C429.756 307.071 432.676 311.589 435.456 315.899C436.568 317.568 437.681 319.305 438.584 321.043C439.766 323.198 440.948 326.605 442.199 330.15C444.632 337.032 447.343 344.887 450.471 345.165C451.653 345.304 452.904 344.192 454.156 341.967C457.145 336.754 456.936 332.305 456.728 327.091C456.45 320.14 456.172 312.285 463.54 300.676C466.46 296.018 467.502 292.334 466.668 289.414C465.625 285.869 461.941 284.131 458.744 282.671C456.38 281.559 454.295 280.586 453.878 279.057C453.669 278.292 453.878 277.458 454.503 276.554C456.519 273.634 457.145 271.479 456.519 269.881C455.615 267.587 451.862 266.544 448.316 265.779C443.867 264.876 442.338 262.025 441.156 259.732C440.253 258.063 439.488 256.534 437.681 256.256C437.472 256.186 437.125 256.117 436.846 256.117Z" fill="url(#paint6_linear_1629_27763)"/>
<path d="M450.749 349.892L450.123 349.683C453.668 338.492 447.273 313.397 445.327 307.28C444.353 304.29 445.257 299.772 446.091 295.393C447.204 289.762 448.316 283.923 445.466 281.698C440.113 277.597 440.391 268.073 440.391 267.656H441.086C441.086 267.726 440.808 277.249 445.883 281.142C449.08 283.575 447.899 289.623 446.786 295.462C445.952 299.772 445.118 304.221 446.022 307.071C448.316 314.648 454.294 338.77 450.749 349.892Z" fill="url(#paint7_linear_1629_27763)"/>
<path d="M423.986 277.249C422.526 273.495 416.756 274.052 417.312 279.335C417.869 284.618 421.553 290.248 415.922 299.285C410.292 308.253 423.152 310.06 427.74 315.691C432.328 321.321 433.926 329.107 437.819 334.043C441.712 338.978 444.354 350.796 447.482 346.416C450.679 342.037 447.69 336.267 448.038 328.342C448.386 320.418 455.476 315.413 448.386 310.269C441.295 305.125 434.205 303.595 436.568 292.056C437.472 286.912 428.574 288.858 423.986 277.249Z" fill="url(#paint8_linear_1629_27763)"/>
<path d="M452.556 347.389C452.487 347.181 448.594 323.893 439.835 317.567C430.868 311.102 429.269 305.055 426.141 290.943L426.766 290.804C429.825 304.777 431.424 310.685 440.183 317.081C449.15 323.615 453.043 346.416 453.182 347.32L452.556 347.389Z" fill="white"/>
<path d="M444.632 346.555C444.632 346.555 447.274 340.09 442.477 330.914C437.75 321.738 433.857 323.129 445.327 316.108C456.797 309.087 445.397 286.842 455.129 283.992C464.861 281.142 473.342 245.203 480.71 249.791C488.148 254.379 478.208 272.035 483.56 277.319C488.843 282.602 489.539 289.345 478.625 294.767C467.711 300.189 486.41 321.043 471.604 327.369C456.797 333.764 461.038 358.651 444.632 346.555Z" fill="url(#paint9_linear_1629_27763)"/>
<path d="M449.151 353.368C449.151 353.298 447.552 345.026 452.557 334.321C457.701 323.476 460.134 311.589 459.092 302.553C458.536 297.687 461.664 295.74 464.722 293.863C467.712 292.056 470.77 290.179 470.631 285.313C470.492 280.934 472.3 270.715 472.369 270.298L472.995 270.437C472.995 270.576 471.118 281.003 471.257 285.313C471.465 290.527 468.198 292.542 465.07 294.419C462.081 296.227 459.231 297.965 459.787 302.414C460.83 311.589 458.327 323.616 453.183 334.599C448.247 345.026 449.777 353.09 449.777 353.229L449.151 353.368Z" fill="white"/>
<path d="M461.108 307.766C464.445 304.707 468.824 304.221 467.92 308.809C467.017 313.397 463.888 314.717 465.418 317.567C467.017 320.418 469.589 323.337 465.14 326.882C460.691 330.428 458.188 330.845 456.867 337.518C455.547 344.192 455.825 348.78 450.055 349.058C444.285 349.336 446.51 340.924 448.387 337.171C448.387 337.171 451.167 332.861 449.29 327.16C447.483 321.46 443.938 318.402 451.376 316.455C458.883 314.509 458.883 309.851 461.108 307.766Z" fill="white"/>
<path d="M450.54 353.298C450.54 352.464 450.123 333.208 453.738 330.011C457.422 326.674 458.117 320.835 458.187 317.637C458.326 313.466 463.678 311.033 463.887 310.894L464.165 311.52C464.095 311.52 458.951 313.953 458.812 317.637C458.673 321.669 457.77 327.16 454.085 330.428C450.679 333.486 451.096 353.02 451.096 353.228L450.54 353.298Z" fill="url(#paint10_linear_1629_27763)"/>
<path d="M464.027 345.443L458.118 368.105H444.771L438.793 345.443H464.027Z" fill="url(#paint11_linear_1629_27763)"/>
<path d="M464.028 345.443C464.028 345.443 450.89 347.876 450.89 368.105H444.703L438.725 345.443H464.028Z" fill="url(#paint12_linear_1629_27763)"/>
<path d="M228.925 286.286H211.338V288.302H228.925V286.286Z" fill="#1487E3"/>
<path d="M207.653 231.439H179.639V195.569H180.264V230.744H207.653V231.439Z" fill="url(#paint13_linear_1629_27763)"/>
<path d="M326.317 207.804H325.691V170.822H361.352V139.68H362.048V171.448H326.317V207.804Z" fill="#78C2FF"/>
<path d="M441.64 248.956H404.52V248.331H440.945V226.781H441.64V248.956Z" fill="url(#paint14_linear_1629_27763)"/>
<path d="M164.069 278.917C164.069 278.917 163.304 290.04 165.459 291.43C166.85 292.264 172.272 295.114 172.133 295.601C171.994 296.157 169.074 300.328 169.074 300.328C169.074 300.328 158.647 293.446 158.299 291.291C157.952 289.205 158.786 274.955 160.246 274.329C161.288 273.843 161.914 274.26 163.235 275.233C165.112 276.623 164.069 278.917 164.069 278.917Z" fill="#FF7E55"/>
<path d="M162.819 360.11C162.819 360.11 162.471 362.335 162.471 362.682C162.401 363.03 158.856 362.474 158.856 362.474L158.578 359.763C158.578 359.832 162.401 359.763 162.819 360.11Z" fill="#424773"/>
<path d="M162.542 362.404C162.542 362.404 163.654 363.795 164.766 364.351C165.879 364.976 167.616 365.185 168.242 365.811C168.729 366.228 169.98 368.174 165.392 368.105C160.874 368.035 158.649 368.383 158.162 367.618C157.676 366.853 158.858 362.196 158.858 362.196C158.858 362.196 159.9 362.613 162.542 362.404Z" fill="#292C47"/>
<path d="M180.751 360.11C180.751 360.11 180.404 362.335 180.404 362.682C180.334 363.03 176.789 362.474 176.789 362.474L176.511 359.763C176.441 359.832 180.264 359.763 180.751 360.11Z" fill="#424773"/>
<path d="M180.401 362.404C180.401 362.404 181.513 363.795 182.626 364.351C183.738 364.976 187.77 365.463 188.395 366.019C188.882 366.436 189.647 368.244 183.251 368.105C178.733 367.966 176.508 368.383 176.022 367.618C175.535 366.853 176.717 362.196 176.717 362.196C176.717 362.196 177.76 362.682 180.401 362.404Z" fill="#292C47"/>
<path d="M164.137 302.135C164.137 302.135 160.801 307.488 161.009 312.284C161.287 317.081 160.731 322.294 160.175 327.3C159.619 332.93 158.09 344.609 158.02 347.598C157.951 350.587 158.159 361.918 158.159 361.918L163.998 361.848C163.998 361.848 166.084 338.978 167.057 336.614C168.03 334.251 172.201 317.081 172.34 315.204C172.479 313.327 164.137 302.135 164.137 302.135Z" fill="#292C47"/>
<path d="M181.795 302.831C181.795 302.831 183.116 315.969 183.463 318.888C183.811 321.808 183.602 334.668 183.741 336.476C183.88 338.353 182.629 357.817 182.282 361.57L175.886 361.501C175.886 361.501 175.469 345.721 175.469 338.005C175.469 330.358 173.523 321.391 171.229 316.316C169.004 311.242 163.791 311.103 162.4 301.718C162.4 301.857 179.918 299.841 181.795 302.831Z" fill="#292C47"/>
<path d="M167.682 257.09C167.682 257.09 171.714 254.448 174.494 257.298C177.275 260.148 178.665 266.891 176.649 268.212C174.633 269.533 171.227 269.88 169.559 268.073C167.96 266.266 166.222 263.485 165.805 261.469C165.388 259.453 166.639 257.924 167.682 257.09Z" fill="#EEA886"/>
<path d="M175.33 268.699C175.33 268.699 175.26 271.48 175.608 272.105C175.886 272.731 169.769 272.731 169.769 272.731C169.769 272.731 169.282 269.464 168.309 266.683C167.336 263.902 175.33 268.699 175.33 268.699Z" fill="#EEA886"/>
<path d="M168.45 266.614C168.45 266.614 169.006 267.17 170.674 266.544C172.273 265.849 173.802 263.138 174.497 262.721C175.123 262.304 175.053 261.887 175.053 261.887L175.679 262.443L176.444 262.304C176.444 262.304 175.262 260.427 176.096 259.384C176.93 258.341 173.524 253.128 168.519 256.325C168.519 256.325 164.626 258.48 165.321 260.774C165.947 263.138 167.198 265.71 168.45 266.614Z" fill="#754836"/>
<path d="M175.957 272.036C175.957 272.036 175.957 270.924 175.401 270.784C174.915 270.645 169.701 270.159 169.006 270.437V271.758C169.006 271.758 170.257 272.522 175.957 272.036Z" fill="#E2D2CA"/>
<path d="M174.634 261.122C174.425 260.775 173.174 259.871 173.104 261.122C173.035 262.443 174.355 263.833 174.842 263.555C175.398 263.277 175.12 262.026 174.634 261.122Z" fill="#EEA886"/>
<path d="M166.501 257.785C166.501 257.785 160.801 259.314 168.17 266.405L166.501 257.785Z" fill="#754836"/>
<path d="M217.664 288.232L211.824 288.163C212.311 287.885 213.145 287.328 212.937 287.12C212.659 286.772 211.06 287.537 210.365 287.607C209.739 287.676 208.696 287.607 207.932 287.885L206.055 288.649L207.723 290.179C207.723 290.179 210.782 290.596 211.685 290.665C213.145 290.735 217.594 289.066 217.664 288.788C217.872 288.371 217.664 288.232 217.664 288.232Z" fill="#EEA886"/>
<path d="M183.532 273.635C179.848 273.009 175.885 272.036 175.885 272.036L169.004 271.758C169.004 271.758 162.678 273.148 160.175 274.26C159.967 274.399 159.967 279.891 159.271 281.351L161.357 285.73C161.357 285.73 162.539 294.42 162.817 298.243C162.956 299.981 160.384 314.787 160.384 314.787C160.384 314.787 163.164 315.621 167.891 316.108C172.618 316.595 184.366 315.9 184.436 315.343C184.505 314.787 182.142 294.628 182.072 293.585C181.933 291.987 182.559 284.548 182.559 284.548C183.463 285.73 188.607 290.249 191.109 291.639C192.917 292.682 197.296 292.056 198.547 291.917C201.328 291.639 209.044 291.083 209.183 290.805C209.322 290.666 208.766 287.816 208.418 287.746C208.14 287.677 198.2 287.19 195.697 287.26C194.654 287.329 191.387 283.645 191.387 283.645C191.387 283.645 185.617 274.538 183.532 273.635Z" fill="#0160E7"/>
<path d="M141.059 245.689H159.341V258.897V261.678L156.491 258.897H141.059V245.689Z" fill="url(#paint15_linear_1629_27763)"/>
<path d="M435.246 203.564H417.52V185.837H435.246V203.564ZM418.076 202.938H434.62V186.394H418.076V202.938Z" fill="url(#paint16_linear_1629_27763)"/>
<path d="M479.456 192.302H438.859V187.992H479.456V192.302ZM439.415 191.676H478.83V188.548H439.415V191.676Z" fill="url(#paint17_linear_1629_27763)"/>
<path d="M479.457 212.461H417.52V208.151H479.457V212.461ZM418.076 211.905H478.831V208.777H418.076V211.905Z" fill="url(#paint18_linear_1629_27763)"/>
<path d="M456.934 220.803H417.52V216.493H456.934V220.803ZM418.076 220.177H456.309V217.049H418.076V220.177Z" fill="url(#paint19_linear_1629_27763)"/>
<path d="M466.319 200.575H438.791V196.265H466.319V200.575ZM439.417 199.949H465.763V196.821H439.417V199.949Z" fill="url(#paint20_linear_1629_27763)"/>
<path d="M486.479 230.258H410.43V176.384H486.479V230.258ZM411.055 229.632H485.923V176.94H411.055V229.632Z" fill="url(#paint21_linear_1629_27763)"/>
<path d="M383.667 152.192H377.967V151.567H382.972V146.492H383.667V152.192Z" fill="url(#paint22_linear_1629_27763)"/>
<path d="M345.364 152.192H339.664V146.492H340.359V151.567H345.364V152.192Z" fill="url(#paint23_linear_1629_27763)"/>
<path d="M340.36 113.959H339.734V108.259H345.365V108.954H340.36V113.959Z" fill="url(#paint24_linear_1629_27763)"/>
<path d="M383.667 113.959H382.972V108.954H377.967V108.259H383.667V113.959Z" fill="url(#paint25_linear_1629_27763)"/>
<path d="M383.666 122.44H382.971V138.011H383.666V122.44Z" fill="url(#paint26_linear_1629_27763)"/>
<path d="M340.359 122.44H339.664V138.011H340.359V122.44Z" fill="url(#paint27_linear_1629_27763)"/>
<path d="M179.988 195.917C178.667 195.917 177.555 194.805 177.555 193.484C177.555 192.164 178.667 191.051 179.988 191.051C181.308 191.051 182.421 192.164 182.421 193.484C182.421 194.805 181.308 195.917 179.988 195.917ZM179.988 191.677C179.014 191.677 178.25 192.442 178.25 193.415C178.25 194.388 179.014 195.153 179.988 195.153C180.961 195.153 181.726 194.388 181.726 193.415C181.726 192.442 180.961 191.677 179.988 191.677Z" fill="url(#paint28_linear_1629_27763)"/>
<path d="M361.701 140.027C360.38 140.027 359.268 138.915 359.268 137.594C359.268 136.273 360.38 135.161 361.701 135.161C363.021 135.161 364.134 136.273 364.134 137.594C364.134 138.984 363.021 140.027 361.701 140.027ZM361.701 135.856C360.727 135.856 359.963 136.621 359.963 137.594C359.963 138.567 360.727 139.332 361.701 139.332C362.674 139.332 363.438 138.567 363.438 137.594C363.438 136.621 362.674 135.856 361.701 135.856Z" fill="#78C2FF"/>
<path d="M441.294 227.199C439.974 227.199 438.861 226.087 438.861 224.766C438.861 223.445 439.974 222.333 441.294 222.333C442.615 222.333 443.727 223.445 443.727 224.766C443.727 226.087 442.615 227.199 441.294 227.199ZM441.294 222.959C440.321 222.959 439.556 223.723 439.556 224.696C439.556 225.67 440.321 226.434 441.294 226.434C442.268 226.434 443.032 225.67 443.032 224.696C443.032 223.793 442.268 222.959 441.294 222.959Z" fill="url(#paint29_linear_1629_27763)"/>
<path d="M196.115 128.279H179.432V111.596H196.115V128.279ZM180.057 127.584H195.42V112.221H180.057V127.584Z" fill="url(#paint30_linear_1629_27763)"/>
<path d="M188.121 116.114H187.426V123.9H188.121V116.114Z" fill="url(#paint31_linear_1629_27763)"/>
<path d="M191.665 119.66H183.879V120.355H191.665V119.66Z" fill="url(#paint32_linear_1629_27763)"/>
<path d="M450.819 148.439H426.906V131.408H450.819V148.439ZM427.601 147.744H450.194V132.033H427.601V147.744Z" fill="url(#paint33_linear_1629_27763)"/>
<path d="M438.862 141.696L427.045 131.964L427.462 131.477L438.862 140.862L450.263 131.477L450.68 131.964L438.862 141.696Z" fill="url(#paint34_linear_1629_27763)"/>
<path d="M442.192 138.807L441.688 139.286L450.251 148.313L450.755 147.835L442.192 138.807Z" fill="url(#paint35_linear_1629_27763)"/>
<path d="M435.559 138.837L427.002 147.871L427.507 148.349L436.064 139.315L435.559 138.837Z" fill="url(#paint36_linear_1629_27763)"/>
<path d="M237.824 165.539L237.546 164.914C237.338 164.914 237.129 164.844 236.921 164.774L236.434 165.261L234.974 164.218L235.252 163.593C235.113 163.384 234.974 163.245 234.905 163.037H234.21L233.932 161.229L234.557 160.951C234.557 160.743 234.627 160.534 234.696 160.326L234.21 159.839L235.252 158.379L235.878 158.657C236.087 158.518 236.226 158.379 236.434 158.31V157.614L238.242 157.336L238.52 157.962C238.728 157.962 238.937 158.032 239.145 158.101L239.632 157.614L241.092 158.657L240.814 159.283C240.953 159.491 241.092 159.63 241.161 159.839H241.856L242.134 161.646L241.509 161.924C241.509 162.133 241.439 162.341 241.37 162.55L241.856 163.037L240.814 164.496L240.188 164.218C239.979 164.357 239.84 164.496 239.632 164.566V165.261L237.824 165.539ZM236.782 164.218L236.921 164.288C237.199 164.357 237.477 164.427 237.755 164.496H237.894L238.103 165.053L239.076 164.914V164.288L239.215 164.218C239.493 164.079 239.701 163.94 239.91 163.801L240.049 163.732L240.605 163.94L241.161 163.106L240.744 162.689L240.814 162.55C240.883 162.272 240.953 161.994 241.022 161.716V161.577L241.578 161.368L241.439 160.395H240.814L240.744 160.256C240.605 159.978 240.466 159.769 240.327 159.561L240.257 159.422L240.466 158.866L239.632 158.31L239.215 158.727L239.076 158.657C238.798 158.588 238.52 158.518 238.242 158.449H238.103L237.894 157.893L236.921 158.032V158.657L236.782 158.727C236.504 158.866 236.295 159.005 236.087 159.144L235.948 159.213L235.391 159.005L234.835 159.839L235.252 160.256L235.183 160.395C235.113 160.673 235.044 160.951 234.974 161.229V161.368L234.418 161.577L234.557 162.55H235.183L235.252 162.689C235.391 162.967 235.53 163.176 235.67 163.384L235.739 163.523L235.53 164.079L236.365 164.635L236.782 164.218ZM238.033 163.384C237.616 163.384 237.268 163.245 236.921 163.037C236.017 162.411 235.809 161.16 236.434 160.326C237.06 159.422 238.311 159.213 239.145 159.839C239.562 160.117 239.84 160.604 239.91 161.09C239.979 161.577 239.91 162.133 239.562 162.55C239.284 162.967 238.798 163.245 238.311 163.315C238.242 163.384 238.103 163.384 238.033 163.384ZM238.033 159.908C237.546 159.908 237.129 160.117 236.851 160.534C236.643 160.882 236.504 161.229 236.573 161.646C236.643 162.063 236.851 162.341 237.199 162.62C237.546 162.828 237.894 162.967 238.311 162.898C238.728 162.828 239.006 162.62 239.284 162.272C239.493 161.924 239.632 161.577 239.562 161.16C239.493 160.743 239.284 160.465 238.937 160.187C238.589 160.047 238.311 159.908 238.033 159.908Z" fill="url(#paint37_linear_1629_27763)"/>
<path d="M223.991 167.625L223.435 166.165C222.809 166.095 222.253 165.956 221.697 165.748L220.585 166.791L217.526 164.636L218.152 163.245C217.804 162.759 217.456 162.272 217.178 161.716L215.649 161.646L215.023 157.893L216.483 157.337C216.553 156.711 216.692 156.155 216.9 155.599L215.858 154.486L218.013 151.428L219.403 152.053C219.889 151.706 220.376 151.358 220.932 151.08L221.002 149.551L224.686 148.925L225.242 150.385C225.868 150.455 226.424 150.594 226.98 150.802L228.092 149.759L231.151 151.914L230.525 153.305C230.873 153.791 231.22 154.278 231.498 154.834L233.028 154.904L233.653 158.657L232.194 159.213C232.124 159.839 231.985 160.395 231.776 160.951L232.819 162.064L230.664 165.122L229.274 164.497C228.787 164.844 228.301 165.192 227.745 165.47L227.675 166.999L223.991 167.625ZM221.558 165.053L221.766 165.122C222.392 165.331 223.087 165.539 223.713 165.539H223.921L224.408 166.86L227.049 166.443L227.119 165.053L227.328 164.983C227.953 164.705 228.509 164.358 229.065 163.94L229.204 163.801L230.525 164.358L232.055 162.203L231.081 161.16L231.151 160.951C231.359 160.326 231.568 159.631 231.568 159.005V158.796L232.889 158.31L232.472 155.668L231.081 155.599L231.012 155.39C230.734 154.765 230.386 154.208 229.969 153.652L229.83 153.513L230.386 152.192L228.231 150.663L227.188 151.636L226.98 151.567C226.354 151.358 225.659 151.15 225.034 151.15H224.825L224.338 149.829L221.697 150.246L221.627 151.636L221.419 151.706C220.793 151.984 220.237 152.332 219.681 152.749L219.542 152.888L218.221 152.332L216.692 154.486L217.665 155.529L217.595 155.738C217.387 156.363 217.178 157.058 217.178 157.684V157.893L215.858 158.379L216.275 161.021L217.665 161.09L217.735 161.299C218.013 161.925 218.36 162.481 218.777 163.037L218.916 163.176L218.36 164.497L220.515 166.026L221.558 165.053ZM224.338 162.62C223.504 162.62 222.601 162.342 221.836 161.855C219.889 160.465 219.472 157.823 220.863 155.877C222.253 153.93 224.895 153.513 226.841 154.904C228.787 156.294 229.204 158.935 227.884 160.882C226.98 161.994 225.659 162.62 224.338 162.62ZM224.338 154.695C223.226 154.695 222.114 155.251 221.349 156.224C220.793 156.989 220.585 157.962 220.724 158.935C220.863 159.909 221.419 160.743 222.183 161.299C223.782 162.481 226.076 162.064 227.258 160.465C227.814 159.7 228.023 158.727 227.884 157.754C227.745 156.78 227.188 155.946 226.424 155.39C225.798 154.904 225.103 154.695 224.338 154.695Z" fill="url(#paint38_linear_1629_27763)"/>
<path d="M137.237 171.101C130.424 171.101 124.863 165.54 124.863 158.727H125.558C125.558 165.192 130.842 170.406 137.237 170.406C143.702 170.406 148.915 165.122 148.915 158.727C148.915 152.262 143.632 147.049 137.237 147.049V146.354C144.049 146.354 149.61 151.915 149.61 158.727C149.61 165.609 144.049 171.101 137.237 171.101ZM137.237 169.432C131.398 169.432 126.601 164.636 126.601 158.797C126.601 152.957 131.398 148.161 137.237 148.161C143.076 148.161 147.873 152.957 147.873 158.797H147.177C147.177 153.305 142.729 148.787 137.167 148.787C131.676 148.787 127.157 153.235 127.157 158.797C127.157 164.288 131.606 168.807 137.167 168.807V169.432H137.237Z" fill="url(#paint39_linear_1629_27763)"/>
<path d="M135.776 162.828L131.258 158.379L131.744 157.962L135.776 161.924L142.797 154.903L143.214 155.39L135.776 162.828Z" fill="url(#paint40_linear_1629_27763)"/>
<path d="M398.472 310.407H304.489H210.574L189.998 387.29H305.114H419.048L398.472 310.407Z" fill="#B4CAE3"/>
<path d="M217.667 323.894H229.206C229.693 323.894 230.04 324.241 229.971 324.658L228.858 329.663C228.789 329.941 228.441 330.219 228.094 330.219H216.346C215.859 330.219 215.512 329.802 215.581 329.385L216.902 324.38C216.971 324.102 217.319 323.894 217.667 323.894Z" fill="white"/>
<path d="M234.489 323.894H243.248L242.066 330.219H233.168L234.489 323.894Z" fill="white"/>
<path d="M247.626 323.894H256.315L255.412 330.219H246.514L247.626 323.894Z" fill="white"/>
<path d="M260.696 323.894H269.385L268.759 330.219H259.861L260.696 323.894Z" fill="white"/>
<path d="M273.763 323.894H282.522L282.105 330.219H273.207L273.763 323.894Z" fill="white"/>
<path d="M286.902 323.894H295.592L295.453 330.219H286.555L286.902 323.894Z" fill="white"/>
<path d="M391.66 323.894H378.521L379.981 330.219H393.328L391.66 323.894Z" fill="white"/>
<path d="M374.212 323.894H365.453L366.635 330.219H375.533L374.212 323.894Z" fill="white"/>
<path d="M361.072 323.894H352.383L353.287 330.219H362.184L361.072 323.894Z" fill="white"/>
<path d="M348.007 323.894H339.248L339.943 330.219H348.841L348.007 323.894Z" fill="white"/>
<path d="M334.937 323.894H326.178L326.595 330.219H335.493L334.937 323.894Z" fill="white"/>
<path d="M321.799 323.894H313.109L313.248 330.219H322.146L321.799 323.894Z" fill="white"/>
<path d="M299.971 323.894H308.66L308.799 330.219H299.971V323.894Z" fill="white"/>
<path d="M213.841 334.946H232.054L231.012 341.481H212.451L213.841 334.946Z" fill="white"/>
<path d="M394.51 334.946H371.918L373.239 341.481H396.179L394.51 334.946Z" fill="white"/>
<path d="M367.399 334.946H358.432L359.405 341.481H368.65L367.399 334.946Z" fill="white"/>
<path d="M353.914 334.946H344.877L345.642 341.481H354.818L353.914 334.946Z" fill="white"/>
<path d="M340.36 334.946H331.393L331.879 341.481H341.055L340.36 334.946Z" fill="white"/>
<path d="M326.871 334.946H317.834L318.112 341.481H327.288L326.871 334.946Z" fill="white"/>
<path d="M211.132 346.625H229.762L228.372 353.089H209.395L211.132 346.625Z" fill="white"/>
<path d="M234.418 346.625H243.733L242.621 353.089H233.098L234.418 346.625Z" fill="white"/>
<path d="M248.39 346.625H257.705H318.322L318.531 353.089H247.348L248.39 346.625Z" fill="white"/>
<path d="M322.979 346.625H332.293L332.78 353.089H323.326L322.979 346.625Z" fill="white"/>
<path d="M336.953 346.625H346.268L347.033 353.089H337.579L336.953 346.625Z" fill="white"/>
<path d="M350.924 346.625H360.239L361.281 353.089H351.758L350.924 346.625Z" fill="white"/>
<path d="M364.896 346.625H374.281L375.532 353.089H366.009L364.896 346.625Z" fill="white"/>
<path d="M378.938 346.625H397.567L399.236 353.089H380.258L378.938 346.625Z" fill="white"/>
<path d="M313.316 334.946H304.418V341.481H313.524L313.316 334.946Z" fill="white"/>
<path d="M299.833 334.946H290.796L290.518 341.481H299.763L299.833 334.946Z" fill="white"/>
<path d="M286.275 334.946H277.239L276.752 341.481H285.928L286.275 334.946Z" fill="white"/>
<path d="M272.79 334.946H263.753L262.988 341.481H272.164L272.79 334.946Z" fill="white"/>
<path d="M259.235 334.946H250.198L249.225 341.481H258.401L259.235 334.946Z" fill="white"/>
<path d="M245.679 334.946H236.711L235.391 341.481H244.567L245.679 334.946Z" fill="white"/>
<path d="M218.082 319.931L219.542 314.231H223.782L222.392 319.931H218.082Z" fill="white"/>
<path d="M228.024 314.231H236.505L235.323 319.931H226.703L228.024 314.231Z" fill="white"/>
<path d="M240.743 314.231H249.224L248.251 319.931H239.631L240.743 314.231Z" fill="white"/>
<path d="M253.464 314.231H261.945L261.18 319.931H252.561L253.464 314.231Z" fill="white"/>
<path d="M266.187 314.231H274.668L274.112 319.931H265.492L266.187 314.231Z" fill="white"/>
<path d="M278.908 314.231H287.389L287.111 319.931H278.422L278.908 314.231Z" fill="white"/>
<path d="M291.628 314.231H300.109L300.04 319.931H291.42L291.628 314.231Z" fill="white"/>
<path d="M304.35 314.231H312.83L312.969 319.931H304.35V314.231Z" fill="white"/>
<path d="M317.072 314.231H325.484L325.901 319.931H317.281L317.072 314.231Z" fill="white"/>
<path d="M329.723 314.231H338.203L338.829 319.931H330.209L329.723 314.231Z" fill="white"/>
<path d="M342.443 314.231H350.924L351.758 319.931H343.139L342.443 314.231Z" fill="white"/>
<path d="M355.166 314.231H363.647L364.69 319.931H356.07L355.166 314.231Z" fill="white"/>
<path d="M367.887 314.231H376.367L377.619 319.931H368.999L367.887 314.231Z" fill="white"/>
<path d="M380.607 314.231H389.088L390.548 319.931H381.928L380.607 314.231Z" fill="white"/>
<path d="M413.07 393.269H195.976C192.64 393.269 189.998 390.558 189.998 387.291H419.048C419.048 390.558 416.337 393.269 413.07 393.269Z" fill="#72B5E8"/>
<path d="M331.114 362.474C330.906 361.153 329.724 360.11 328.334 360.11H304.49H280.647C279.256 360.11 278.075 361.084 277.866 362.474L274.877 380.548C274.599 382.286 275.92 383.815 277.658 383.815H304.49H331.323C333.061 383.815 334.381 382.286 334.103 380.548L331.114 362.474Z" fill="#4D78EB"/>
<path d="M248.32 207.178H228.926V209.194H248.32V207.178Z" fill="#E0E0E0"/>
<path d="M267.786 222.193H253.744V224.209H267.786V222.193Z" fill="#E0E0E0"/>
<path d="M279.254 222.193H269.939V224.209H279.254V222.193Z" fill="#1487E3"/>
<path d="M238.45 259.801H229.135V261.817H238.45V259.801Z" fill="#1487E3"/>
<path d="M303.582 222.193H281.129V224.209H303.582V222.193Z" fill="#E0E0E0"/>
<path d="M243.594 252.293H229.135V254.309H243.594V252.293Z" fill="#E0E0E0"/>
<path d="M258.051 267.308H249.223V269.324H258.051V267.308Z" fill="#E0E0E0"/>
<path d="M246.583 267.308H229.135V269.324H246.583V267.308Z" fill="#1487E3"/>
<path d="M238.797 274.816H229.135V276.832H238.797V274.816Z" fill="#E0E0E0"/>
<path d="M265.838 207.178H252.074V209.194H265.838V207.178Z" fill="#78C2FF"/>
<path d="M265.838 229.631H252.074V231.647H265.838V229.631Z" fill="#1487E3"/>
<path d="M251.1 237.139H245.191V239.155H251.1V237.139Z" fill="#E0E0E0"/>
<path d="M252.561 244.716H239.354V246.732H252.561V244.716Z" fill="#78C2FF"/>
<path d="M272.857 244.716H254.574V246.732H272.857V244.716Z" fill="#1487E3"/>
<path d="M242.899 237.208H229.135V239.224H242.899V237.208Z" fill="#1487E3"/>
<path d="M237.337 244.716H229.135V246.732H237.337V244.716Z" fill="#1487E3"/>
<path d="M261.599 237.208H253.883V239.224H261.599V237.208Z" fill="#FF8761"/>
<path d="M237.058 282.254H229.342V284.27H237.058V282.254Z" fill="#FF8761"/>
<path d="M242.828 222.193H229.064V224.209H242.828V222.193Z" fill="#78C2FF"/>
<path d="M254.994 259.801H241.23V261.817H254.994V259.801Z" fill="#78C2FF"/>
<path d="M255.201 274.816H241.438V276.832H255.201V274.816Z" fill="#78C2FF"/>
<path d="M279.67 274.816H265.906V276.832H279.67V274.816Z" fill="#78C2FF"/>
<path d="M248.737 229.631H229.064V231.647H248.737V229.631Z" fill="#78C2FF"/>
<path d="M334.934 207.178H321.17V209.194H334.934V207.178Z" fill="#78C2FF"/>
<path d="M285.787 282.254H272.023V284.27H285.787V282.254Z" fill="#78C2FF"/>
<path d="M348.492 207.178H339.246V209.194H348.492V207.178Z" fill="#78C2FF"/>
<path d="M379.702 214.686H370.457V216.701H379.702V214.686Z" fill="#78C2FF"/>
<path d="M287.181 207.178H269.594V209.194H287.181V207.178Z" fill="#1487E3"/>
<path d="M355.65 214.686H338.062V216.701H355.65V214.686Z" fill="#1487E3"/>
<path d="M334.101 222.193H316.514V224.209H334.101V222.193Z" fill="#1487E3"/>
<path d="M311.232 229.631H293.645V231.647H311.232V229.631Z" fill="#1487E3"/>
<path d="M348.839 222.193H336.326V224.209H348.839V222.193Z" fill="#78C2FF"/>
<path d="M317.765 207.178H300.178V209.194H317.765V207.178Z" fill="#FF8761"/>
<path d="M290.448 229.631H280.16V231.647H290.448V229.631Z" fill="#FF8761"/>
<path d="M282.312 259.939H272.023V261.955H282.312V259.939Z" fill="#FF8761"/>
<path d="M296.91 207.178H290.445V209.194H296.91V207.178Z" fill="#E0E0E0"/>
<path d="M275.989 229.631H269.594V231.647H275.989V229.631Z" fill="#E0E0E0"/>
<path d="M366.355 214.686H359.891V216.701H366.355V214.686Z" fill="#E0E0E0"/>
<path d="M239.005 214.686H228.926V216.701H239.005V214.686Z" fill="#1487E3"/>
<path d="M263.682 252.362H255.758V254.378H263.682V252.362Z" fill="#1487E3"/>
<path d="M244.705 214.686H241.438V216.701H244.705V214.686Z" fill="#1487E3"/>
<path d="M334.936 214.686H308.104V216.701H334.936V214.686Z" fill="#E0E0E0"/>
<path d="M309.215 274.816H282.383V276.832H309.215V274.816Z" fill="#E0E0E0"/>
<path d="M250.405 214.686H247.068V216.701H250.405V214.686Z" fill="#FF8761"/>
<path d="M305.599 214.686H296.84V216.701H305.599V214.686Z" fill="#1487E3"/>
<path d="M314.429 222.193H305.67V224.209H314.429V222.193Z" fill="#FF8761"/>
<path d="M269.243 282.254H260.484V284.27H269.243V282.254Z" fill="#FF8761"/>
<path d="M294.545 214.686H275.846V216.701H294.545V214.686Z" fill="#1487E3"/>
<path d="M269.383 259.939H258.469V261.955H269.383V259.939Z" fill="#1487E3"/>
<path d="M263.265 274.816H257.773V276.832H263.265V274.816Z" fill="#1487E3"/>
<path d="M273.205 214.686H266.74V216.701H273.205V214.686Z" fill="#78C2FF"/>
<path d="M251.518 222.193H245.123V224.209H251.518V222.193Z" fill="#FF8761"/>
<path d="M252.768 252.362H246.373V254.378H252.768V252.362Z" fill="#FF8761"/>
<path d="M264.309 214.686H253.117V216.701H264.309V214.686Z" fill="#1487E3"/>
<g opacity="0.76">
<path d="M417.172 294.072H335.909C334.38 294.072 333.129 292.82 333.129 291.291V234.984C333.129 233.455 334.38 232.204 335.909 232.204H417.172C418.701 232.204 419.953 233.455 419.953 234.984V291.291C419.953 292.82 418.701 294.072 417.172 294.072Z" fill="white"/>
</g>
<path d="M410.568 268.281H396.595C395.97 268.281 395.553 267.795 395.553 267.239V265.084C395.553 264.458 396.039 264.041 396.595 264.041H410.568C411.194 264.041 411.611 264.528 411.611 265.084V267.239C411.611 267.795 411.194 268.281 410.568 268.281Z" fill="#4AAFFF"/>
<path d="M410.568 276.345H396.595C395.97 276.345 395.553 275.859 395.553 275.303V273.148C395.553 272.522 396.039 272.105 396.595 272.105H410.568C411.194 272.105 411.611 272.592 411.611 273.148V275.303C411.611 275.859 411.194 276.345 410.568 276.345Z" fill="#4AAFFF"/>
<path d="M410.568 284.409H396.595C395.97 284.409 395.553 283.922 395.553 283.366V281.211C395.553 280.586 396.039 280.168 396.595 280.168H410.568C411.194 280.168 411.611 280.655 411.611 281.211V283.366C411.611 283.922 411.194 284.409 410.568 284.409Z" fill="#4AAFFF"/>
<path d="M387.696 254.379C384.081 244.369 374.488 238.182 364.409 238.46C361.976 238.53 359.473 239.016 357.04 239.85C349.672 242.492 344.389 248.331 342.234 255.283C340.704 260.079 340.704 265.362 342.512 270.506C342.72 270.993 342.859 271.48 343.068 271.966C344.041 274.191 345.292 276.207 346.752 277.944C353.008 285.313 363.435 288.441 373.098 284.965C385.68 280.586 392.145 266.892 387.696 254.379ZM371.221 279.404C363.992 281.976 356.206 279.682 351.479 274.121C350.367 272.8 349.394 271.271 348.698 269.672C348.559 269.325 348.42 268.908 348.281 268.56C346.891 264.737 346.891 260.774 348.073 257.16C349.672 251.946 353.634 247.567 359.195 245.62C361.002 244.995 362.879 244.647 364.687 244.577C372.264 244.369 379.424 248.957 382.135 256.464C385.402 265.779 380.536 276.068 371.221 279.404Z" fill="url(#paint41_linear_1629_27763)"/>
<path d="M348.005 257.09L342.305 255.282C344.46 248.331 349.743 242.492 357.111 239.85C359.544 239.016 362.047 238.529 364.48 238.46L364.688 244.438C362.881 244.508 361.004 244.855 359.197 245.481C353.566 247.497 349.604 251.946 348.005 257.09Z" fill="url(#paint42_linear_1629_27763)"/>
<path d="M348.698 269.673L343.206 272.036C342.998 271.549 342.789 271.063 342.65 270.576C340.843 265.502 340.843 260.149 342.372 255.353L348.072 257.16C346.96 260.775 346.96 264.737 348.281 268.56C348.35 268.908 348.49 269.255 348.698 269.673Z" fill="url(#paint43_linear_1629_27763)"/>
<path d="M346.891 278.014C345.362 276.276 344.111 274.26 343.207 272.036L348.699 269.672C349.394 271.341 350.367 272.801 351.479 274.121L346.891 278.014Z" fill="url(#paint44_linear_1629_27763)"/>
<path d="M373.17 276.693C373.17 276.693 371.988 274.677 373.865 269.186C375.672 263.903 381.79 264.389 383.736 267.795C385.682 271.202 385.057 273.287 382.137 277.041C379.287 280.864 374.352 278.431 373.17 276.693Z" fill="#EEA886"/>
<path d="M387.486 370.399C387.486 370.399 387.764 372.623 387.834 372.971C387.903 373.318 391.24 372.762 391.24 372.762L391.518 370.121C391.449 370.051 387.903 370.051 387.486 370.399Z" fill="#EEA886"/>
<path d="M387.766 372.623C387.766 372.623 386.724 373.944 385.681 374.57C384.638 375.126 383.039 375.404 382.414 376.03C381.997 376.447 380.815 378.324 385.055 378.324C389.296 378.254 391.381 378.602 391.868 377.837C392.354 377.142 391.172 372.484 391.172 372.484C391.172 372.484 390.199 372.832 387.766 372.623Z" fill="#414773"/>
<path d="M364.199 370.399C364.199 370.399 364.477 372.623 364.547 372.971C364.616 373.318 367.953 372.762 367.953 372.762L368.231 370.121C368.231 370.051 364.616 370.051 364.199 370.399Z" fill="#EEA886"/>
<path d="M364.547 372.623C364.547 372.623 363.505 373.944 362.462 374.57C361.419 375.126 357.665 375.612 357.04 376.238C356.623 376.655 355.858 378.462 361.906 378.254C366.146 378.115 368.232 378.532 368.718 377.767C369.205 377.072 368.023 372.415 368.023 372.415C368.023 372.415 366.633 372.762 364.547 372.623Z" fill="#414773"/>
<path d="M386.306 314.717C386.306 314.717 388.044 320.07 387.766 324.658C387.558 329.246 388.67 334.32 389.087 339.117C389.574 344.47 391.659 357.191 391.729 360.041C391.798 362.891 391.381 372.067 391.381 372.067L387.21 372.136C387.21 372.136 383.734 349.961 382.831 347.667C381.927 345.373 377.409 329.246 377.27 327.438C377.27 325.631 386.306 314.717 386.306 314.717Z" fill="#2D314F"/>
<path d="M369.066 314.162C369.066 314.162 366.564 328.273 366.216 331.123C365.938 333.974 365.73 344.748 365.591 346.556C365.452 348.294 364.617 369.635 363.783 372.207H368.441C368.441 372.207 373.237 356.705 373.237 349.406C373.237 342.107 376.365 333.487 378.451 328.621C380.467 323.755 385.124 323.685 386.445 314.718C386.306 314.718 370.735 311.312 369.066 314.162Z" fill="#2D314F"/>
<path d="M374.837 278.153C374.837 278.153 375.393 279.682 374.837 280.795C374.281 281.907 381.511 281.212 381.511 281.212C381.511 281.212 381.163 278.987 382.136 277.11C383.109 275.233 374.837 278.153 374.837 278.153Z" fill="#EEA886"/>
<path d="M386.652 315.83C386.652 315.83 384.08 318.471 368.787 315.413L368.996 314.092L386.305 314.717L386.652 315.83Z" fill="#2B3B57"/>
<path d="M373.725 281.073C373.725 281.073 371.083 281.351 370.319 281.49C369.554 281.629 364.41 280.586 363.367 280.447C362.324 280.308 357.806 277.249 357.667 276.902C357.528 276.554 354.956 270.02 354.817 268.56C354.678 267.17 352.314 267.865 352.523 268.838C352.87 270.645 353.357 275.094 353.635 276.346C353.913 277.736 354.678 280.864 355.164 281.281C355.581 281.698 359.613 284.757 363.576 286.078C367.538 287.398 370.527 289.275 370.527 289.275H389.991C389.991 289.275 397.568 278.431 397.707 276.832C397.846 275.233 392.424 264.32 391.312 262.999C390.2 261.609 388.67 263.416 388.67 263.416C388.67 263.416 391.938 273.009 392.355 274.33C392.772 275.72 388.531 281.698 387.419 281.698C386.237 281.698 383.248 281.351 381.927 281.281C380.607 281.212 379.216 280.655 379.216 280.655L373.725 281.073Z" fill="#EEA886"/>
<path d="M365.314 288.302C365.314 288.302 367.677 289.901 367.886 292.612C368.095 295.323 368.998 299.633 369.415 301.092C369.832 302.552 369.068 313.257 368.929 314.022C368.79 314.787 384.013 316.594 386.307 314.787C386.307 314.787 386.933 304.846 387.211 301.996C387.489 299.146 388.81 292.334 389.227 291.36C389.644 290.457 394.927 283.019 395.136 282.045C395.136 282.045 392.425 277.666 390.478 277.666C390.478 277.666 387.35 281.281 386.377 281.489C385.334 281.628 379.147 280.516 379.147 280.516C379.147 280.516 378.452 281.42 374.837 280.377C374.837 280.377 370.528 280.864 369.832 280.933C368.998 281.072 363.09 280.169 363.09 280.169C363.09 280.169 360.726 284.131 361.143 286.147L365.314 288.302Z" fill="#013681"/>
<path d="M354.955 269.464C354.955 269.464 354.399 266.961 355.094 266.196C355.442 265.779 356.345 264.667 356.415 264.528C356.484 264.389 357.458 263.833 357.458 263.555C357.458 263.277 356.554 262.999 355.72 263.694C354.886 264.459 354.399 264.598 354.121 264.528C353.773 264.459 353.356 261.747 353.287 261.122C353.217 260.427 353.009 258.689 352.592 258.828C352.174 258.967 352.174 259.732 352.174 259.732C352.174 259.732 351.688 258.411 351.34 258.689C350.993 258.967 351.062 259.593 351.062 259.593C351.062 259.593 350.437 258.828 350.298 259.384C350.159 259.94 350.298 260.427 350.298 260.427C350.298 260.427 349.672 260.079 349.602 260.913C349.533 261.748 349.811 264.25 350.228 265.084C350.645 265.988 352.314 268.282 352.522 269.186C352.731 270.089 354.955 269.464 354.955 269.464Z" fill="#EEA886"/>
<path d="M389.227 265.015C389.227 265.015 387.42 261.956 386.794 261.678C386.169 261.4 385.335 261.261 384.57 260.705C383.805 260.149 382.832 259.732 382.832 259.523C382.902 259.314 383.805 259.384 384.778 259.801C385.752 260.218 386.169 260.01 386.238 259.801C386.308 259.593 385.752 258.063 385.404 257.716C385.126 257.368 383.041 255.283 383.388 254.935C383.736 254.657 385.056 255.769 385.265 255.978C385.265 255.978 384.222 253.753 384.639 253.614C385.057 253.475 385.821 254.309 385.821 254.309C385.821 254.309 385.752 252.363 387.768 255.491C387.768 255.491 387.35 254.448 387.976 254.796C388.602 255.144 389.227 257.09 389.436 258.063C389.644 259.036 390.548 262.165 391.313 262.929C392.077 263.763 389.227 265.015 389.227 265.015Z" fill="#EEA886"/>
<path d="M382.135 277.041C382.135 277.041 381.161 277.11 379.146 276.415C377.13 275.72 376.991 272.175 376.504 272.592C375.6 273.426 374.766 272.87 374.419 272.383C374.419 272.383 375.392 271.062 374.975 270.437C374.488 269.811 373.793 269.324 373.793 269.324C373.793 269.324 375.253 262.443 381.718 265.571C389.295 269.255 382.135 277.041 382.135 277.041Z" fill="#353A3D"/>
<path d="M374.838 280.725L375.046 279.752C375.046 279.752 379.217 279.682 381.442 280.03L381.65 281.212C381.72 281.212 378.8 282.463 374.838 280.725Z" fill="#D4D8E8"/>
<path d="M375.882 271.758C376.229 271.132 377.619 270.715 377.828 272.453C377.967 273.843 375.325 275.303 375.325 274.052C375.256 272.8 375.603 272.175 375.882 271.758Z" fill="#EEA886"/>
<path d="M354.816 268.907C354.816 268.907 353.286 268.977 352.591 269.602C352.591 269.602 352.522 270.019 352.73 270.367C352.73 270.367 354.051 269.741 355.024 269.672C355.024 269.602 355.024 269.046 354.816 268.907Z" fill="#E55353"/>
<path d="M353.079 269.256C352.94 269.603 353.079 269.951 353.426 270.09C353.774 270.229 354.121 270.09 354.26 269.742C354.399 269.395 354.26 269.047 353.913 268.908C353.565 268.769 353.218 268.978 353.079 269.256Z" fill="#353A3D"/>
<path d="M316.309 216.076C316.309 216.076 318.464 219.691 319.367 220.316C320.619 221.151 319.854 221.915 319.228 221.915C318.672 221.915 315.683 222.124 314.988 221.359C314.293 220.594 314.015 218.37 313.389 217.814C312.763 217.258 312.138 214.894 313.667 214.338C315.057 213.852 316.309 216.076 316.309 216.076Z" fill="#6069A8"/>
<path d="M315.401 214.478C315.401 214.478 317.834 218.718 318.251 219.344C318.668 219.969 317.486 219.969 316.721 219.691C315.957 219.413 314.08 216.355 313.802 215.798C313.454 215.103 313.732 214.408 313.732 214.408L315.401 214.478Z" fill="#202338"/>
<path d="M312.902 216.771L313.458 221.081H313.737L313.667 217.953L312.902 216.771Z" fill="#6069A8"/>
<path d="M295.104 216.076C295.104 216.076 297.259 219.691 298.162 220.316C299.413 221.151 298.649 221.915 298.023 221.915C297.467 221.915 294.478 222.124 293.783 221.359C293.157 220.595 292.81 218.37 292.184 217.814C291.558 217.258 290.933 214.825 292.462 214.338C293.852 213.921 295.104 216.076 295.104 216.076Z" fill="#6069A8"/>
<path d="M294.271 214.478C294.271 214.478 296.565 218.718 297.051 219.344C297.469 219.969 296.287 219.969 295.522 219.691C294.758 219.413 292.881 216.355 292.603 215.798C292.255 215.103 292.533 214.408 292.533 214.408L294.271 214.478Z" fill="#202338"/>
<path d="M291.631 216.771L292.256 221.081H292.535L292.465 217.953L291.631 216.771Z" fill="#6069A8"/>
<path d="M285.582 183.057L304.977 191.885C304.977 191.885 307.132 192.58 307.41 195.013C308.174 202.521 313.805 214.408 313.805 214.408C315.612 215.312 315.473 214.547 315.473 214.547C314.361 210.932 312.971 195.917 312.484 189.869C312.345 188.618 312.345 187.714 312.276 187.436C312.276 187.228 312.067 187.019 311.719 186.741C309.078 184.586 298.095 180.137 298.095 180.137C289.822 179.79 285.582 183.057 285.582 183.057Z" fill="#202338"/>
<path d="M281.897 186.81C282.523 192.024 289.961 191.468 289.961 191.468H298.998C298.998 191.468 296.634 196.751 295.73 201.2C294.757 205.927 292.463 214.338 292.463 214.338C292.463 214.338 292.602 214.616 294.271 214.477C294.271 214.477 301.361 200.296 304.072 196.751C304.628 195.986 306.366 191.815 306.644 189.313C306.714 188.479 306.714 187.853 306.366 187.575C306.019 187.297 305.324 186.81 304.35 186.185C301.5 184.377 296.565 181.666 293.854 181.041C290.169 180.207 284.33 178.677 284.33 178.677C284.33 178.677 281.341 181.597 281.897 186.81Z" fill="#202338"/>
<path d="M288.083 146.492C288.083 146.492 286.693 143.92 287.388 141.209C288.083 138.498 290.586 135.718 294.339 136.969C298.093 138.22 301.082 141.14 298.858 144.476C296.633 147.813 300.874 149.342 299.762 150.941C298.649 152.54 299.066 154.208 299.553 154.556C300.04 154.904 301.499 156.224 301.36 157.823C301.221 159.353 294.131 153.235 294.131 153.235C294.131 153.235 290.238 145.519 288.083 146.492Z" fill="#464240"/>
<path d="M299.414 179.372C299.414 179.372 298.857 182.084 284.398 178.677C284.398 178.677 289.264 177.079 299.414 179.372Z" fill="#EB4747"/>
<path d="M284.261 179.442C284.052 179.859 283.844 180.276 283.565 180.693C288.849 180.832 294.132 180.971 299.415 181.18C298.581 178.399 298.859 174.576 298.998 171.726C299.206 168.181 301.153 165.748 300.944 162.203C301.987 162.342 302.195 162.411 303.238 162.55C301.639 157.962 301.083 155.738 296.078 154C294.479 153.444 293.367 153.305 291.629 153.444C285.859 153.93 284.122 154 281.271 159.213C285.72 159.909 284.956 161.507 286.346 165.887C286.972 168.042 287.667 170.405 287.319 172.699C286.972 174.924 284.261 177.426 284.261 179.442Z" fill="#325BB3"/>
<path d="M293.434 155.043C291.07 154.626 291.557 153.305 291.557 153.305C291.557 153.305 291.696 152.54 291.696 151.636C291.696 151.428 291.696 151.15 291.696 150.872C291.696 150.455 291.696 150.107 291.627 149.69C291.418 148.091 295.936 149.064 295.936 149.064C295.936 149.064 295.658 152.262 296.284 153.235C296.979 154.208 295.797 155.529 293.434 155.043Z" fill="#EEA886"/>
<path d="M288.92 153.305C288.92 153.305 293.647 158.797 295.454 160.048C295.454 160.048 297.47 158.241 296.219 153.375C296.219 153.444 293.925 152.262 288.92 153.305Z" fill="#EEA886"/>
<path d="M289.056 140.097C289.056 140.097 286.553 144.894 289.056 149.343C291.489 153.861 296.355 147.396 296.633 146.632C296.911 145.867 298.579 141.557 295.312 140.236C292.045 138.985 289.751 138.776 289.056 140.097Z" fill="#EEA886"/>
<path d="M289.888 141.765C289.888 141.765 288.22 143.99 288.011 145.658C288.011 145.658 287.316 142.53 289.263 139.541C291.209 136.551 296.075 139.402 296.701 140.583C297.326 141.765 299.273 142.808 296.075 148.021C296.005 148.021 290.236 143.99 289.888 141.765Z" fill="#464240"/>
<path d="M293.855 149.829C293.855 149.829 293.438 150.733 291.77 151.636C291.77 151.428 291.77 151.15 291.77 150.872C291.77 150.872 292.882 150.733 293.855 149.829Z" fill="#A77860"/>
<path d="M268.898 175.132C268.898 175.132 267.717 175.688 267.16 175.41C266.604 175.202 265.77 175.132 265.492 175.132C265.144 175.132 263.963 174.715 264.032 175.202C264.032 175.619 265.909 175.966 266.257 176.105C266.604 176.244 265.144 177.079 265.005 177.426C264.866 177.774 266.535 180.207 267.508 179.512C268.481 178.816 268.968 177.496 269.176 177.357C269.385 177.287 269.871 176.87 269.871 176.87L268.898 175.132Z" fill="#EEA886"/>
<path d="M265.142 177.218C265.142 177.218 262.361 179.512 262.361 179.79C262.292 180.068 262.431 180.276 262.709 180.068C262.987 179.859 265.42 177.913 265.42 177.913C265.42 177.913 262.64 181.18 262.57 181.389C262.501 181.528 262.779 181.806 262.918 181.736C263.057 181.667 265.976 178.539 265.976 178.539C265.976 178.539 263.404 181.597 263.404 181.806C263.404 182.014 263.682 182.223 263.891 182.014C264.099 181.806 266.671 179.095 266.671 179.095C266.671 179.095 264.934 181.458 265.073 181.667C265.142 181.806 265.351 182.084 265.768 181.458C266.185 180.833 267.367 179.512 267.367 179.512L265.142 177.218Z" fill="#EEA886"/>
<path d="M298.092 191.468H289.959C289.959 191.468 282.451 192.094 281.895 186.81C281.269 181.597 284.328 178.677 284.328 178.677C284.328 178.677 288.29 179.72 291.696 180.554C293.434 180.207 295.52 179.929 297.953 179.998C297.953 179.998 312.551 184.795 312.134 187.367C312.203 187.367 306.086 184.099 298.092 191.468Z" fill="#0160E7"/>
<path d="M292.812 182.362L308.314 182.153L300.459 186.116L292.812 182.362Z" fill="#5E5853"/>
<path d="M297.606 180.415C297.606 180.415 294.131 181.736 289.89 180.554L289.682 178.956L298.44 179.442L297.606 180.415Z" fill="#325BB3"/>
<path d="M300.459 186.116L292.812 183.126V182.362L301.085 185.351L300.459 186.116Z" fill="#91887F"/>
<path d="M297.608 181.18C297.538 181.736 298.164 182.153 298.651 181.945L299.554 181.528C299.832 181.389 299.971 181.11 299.902 180.832C299.554 178.469 298.72 169.363 299.902 167.833C300.319 167.277 300.597 166.721 300.736 166.304C301.501 168.32 302.474 170.892 302.891 172.282L310.19 182.014L312.623 182.64C309.564 175.271 307.131 171.378 307.131 171.378C306.645 170.127 305.254 166.234 304.073 162.759C303.308 160.604 302.613 158.588 302.196 157.476C301.987 156.919 301.64 156.433 301.153 156.155C300.041 155.46 298.164 154.417 296.426 153.583C296.357 153.583 296.287 153.513 296.287 153.513C299.485 158.379 298.234 172.213 297.608 181.18C297.608 181.11 297.608 181.11 297.608 181.18Z" fill="#EDDAD3"/>
<path d="M285.512 153.861C284.469 154 281.897 156.502 280.507 159.074C278.908 161.994 277.379 165.261 276.127 166.304C273.903 168.32 267.786 175.341 267.508 175.132C267.369 175.063 269.176 177.218 269.454 177.357C269.593 177.426 279.534 168.737 280.507 167.416C281.411 166.165 283.844 160.951 284.608 161.021C284.678 161.16 285.581 163.037 286.416 165.887C286.416 165.956 286.416 165.956 286.485 166.026C287.041 167.972 287.041 170.127 286.694 172.491C286.485 174.298 285.095 177.218 284.33 178.677C284.261 178.816 284.261 179.164 284.33 179.442C284.4 179.581 284.469 179.72 284.608 179.72L287.528 180.832L288.223 181.11C288.71 181.319 289.266 181.18 289.613 180.902C289.961 180.693 290.169 180.346 290.239 179.859C290.864 174.854 291.699 169.71 292.394 167.764C295.313 159.283 291.282 152.957 291.282 152.957C291.282 152.957 286.416 153.513 285.512 153.861Z" fill="#EDDAD3"/>
<path d="M300.455 186.115L305.113 173.533L319.919 173.811L315.54 185.351L300.455 186.115Z" fill="#6E6760"/>
<path d="M309.841 179.095C309.355 179.999 309.494 180.972 310.119 181.319C310.745 181.597 311.579 181.18 312.066 180.277C312.552 179.373 312.413 178.4 311.788 178.052C311.162 177.705 310.259 178.191 309.841 179.095Z" fill="#807066"/>
<path d="M294.201 144.824C294.201 144.824 295.174 146.284 294.27 147.604C293.367 148.856 294.479 150.107 294.687 151.497C294.896 152.818 291.003 156.433 295.313 158.24C299.623 160.047 300.944 157.058 299.901 155.39C298.789 153.722 298.024 152.401 297.955 150.107C297.815 147.743 297.051 144.059 294.201 144.824Z" fill="#464240"/>
<path d="M263.127 127.098H281.409V140.305V143.086L278.629 140.305H263.127V127.098Z" fill="url(#paint45_linear_1629_27763)"/>
<defs>
<linearGradient id="paint0_linear_1629_27763" x1="313.363" y1="0.76416" x2="313.363" y2="500.764" gradientUnits="userSpaceOnUse">
<stop stop-color="#0160E7"/>
<stop offset="1" stop-color="#013681"/>
</linearGradient>
<linearGradient id="paint1_linear_1629_27763" x1="217.134" y1="251.653" x2="391.497" y2="251.653" gradientUnits="userSpaceOnUse">
<stop stop-color="#404B61"/>
<stop offset="0.486" stop-color="#3C4860"/>
<stop offset="1" stop-color="#2F3E5C"/>
</linearGradient>
<linearGradient id="paint2_linear_1629_27763" x1="176.65" y1="184.864" x2="176.65" y2="198.559" gradientUnits="userSpaceOnUse">
<stop stop-color="#0160E7"/>
<stop offset="1" stop-color="#013681"/>
</linearGradient>
<linearGradient id="paint3_linear_1629_27763" x1="361.74" y1="116.323" x2="361.74" y2="143.99" gradientUnits="userSpaceOnUse">
<stop stop-color="#0160E7"/>
<stop offset="1" stop-color="#013681"/>
</linearGradient>
<linearGradient id="paint4_linear_1629_27763" x1="469.673" y1="281.211" x2="469.673" y2="350.795" gradientUnits="userSpaceOnUse">
<stop stop-color="#0160E7"/>
<stop offset="1" stop-color="#013681"/>
</linearGradient>
<linearGradient id="paint5_linear_1629_27763" x1="472.587" y1="270.992" x2="472.587" y2="348.084" gradientUnits="userSpaceOnUse">
<stop stop-color="#0160E7"/>
<stop offset="1" stop-color="#013681"/>
</linearGradient>
<linearGradient id="paint6_linear_1629_27763" x1="448.762" y1="255.467" x2="448.762" y2="345.791" gradientUnits="userSpaceOnUse">
<stop stop-color="#0160E7"/>
<stop offset="1" stop-color="#013681"/>
</linearGradient>
<linearGradient id="paint7_linear_1629_27763" x1="446.118" y1="267.656" x2="446.118" y2="349.892" gradientUnits="userSpaceOnUse">
<stop stop-color="#0160E7"/>
<stop offset="1" stop-color="#013681"/>
</linearGradient>
<linearGradient id="paint8_linear_1629_27763" x1="433.023" y1="274.831" x2="433.023" y2="347.372" gradientUnits="userSpaceOnUse">
<stop stop-color="#015EE4"/>
<stop offset="1" stop-color="#01347E"/>
</linearGradient>
<linearGradient id="paint9_linear_1629_27763" x1="462.547" y1="249.387" x2="462.547" y2="349.825" gradientUnits="userSpaceOnUse">
<stop stop-color="#0160E7"/>
<stop offset="1" stop-color="#013681"/>
</linearGradient>
<linearGradient id="paint10_linear_1629_27763" x1="457.345" y1="310.894" x2="457.345" y2="353.298" gradientUnits="userSpaceOnUse">
<stop stop-color="#0160E7"/>
<stop offset="1" stop-color="#013681"/>
</linearGradient>
<linearGradient id="paint11_linear_1629_27763" x1="451.41" y1="345.443" x2="451.41" y2="368.105" gradientUnits="userSpaceOnUse">
<stop stop-color="#0160E7"/>
<stop offset="1" stop-color="#013681"/>
</linearGradient>
<linearGradient id="paint12_linear_1629_27763" x1="451.376" y1="345.443" x2="451.376" y2="368.105" gradientUnits="userSpaceOnUse">
<stop stop-color="#053480"/>
<stop offset="1" stop-color="#013681"/>
</linearGradient>
<linearGradient id="paint13_linear_1629_27763" x1="193.646" y1="195.569" x2="193.646" y2="231.439" gradientUnits="userSpaceOnUse">
<stop stop-color="#0160E7"/>
<stop offset="1" stop-color="#013681"/>
</linearGradient>
<linearGradient id="paint14_linear_1629_27763" x1="423.08" y1="226.781" x2="423.08" y2="248.956" gradientUnits="userSpaceOnUse">
<stop stop-color="#0160E7"/>
<stop offset="1" stop-color="#013681"/>
</linearGradient>
<linearGradient id="paint15_linear_1629_27763" x1="150.2" y1="245.689" x2="150.2" y2="261.678" gradientUnits="userSpaceOnUse">
<stop stop-color="#0160E7"/>
<stop offset="1" stop-color="#013681"/>
</linearGradient>
<linearGradient id="paint16_linear_1629_27763" x1="426.383" y1="185.837" x2="426.383" y2="203.564" gradientUnits="userSpaceOnUse">
<stop stop-color="#0160E7"/>
<stop offset="1" stop-color="#013681"/>
</linearGradient>
<linearGradient id="paint17_linear_1629_27763" x1="459.158" y1="187.992" x2="459.158" y2="192.302" gradientUnits="userSpaceOnUse">
<stop stop-color="#0160E7"/>
<stop offset="1" stop-color="#013681"/>
</linearGradient>
<linearGradient id="paint18_linear_1629_27763" x1="448.488" y1="208.151" x2="448.488" y2="212.461" gradientUnits="userSpaceOnUse">
<stop stop-color="#0160E7"/>
<stop offset="1" stop-color="#013681"/>
</linearGradient>
<linearGradient id="paint19_linear_1629_27763" x1="437.227" y1="216.493" x2="437.227" y2="220.803" gradientUnits="userSpaceOnUse">
<stop stop-color="#0160E7"/>
<stop offset="1" stop-color="#013681"/>
</linearGradient>
<linearGradient id="paint20_linear_1629_27763" x1="452.555" y1="196.265" x2="452.555" y2="200.575" gradientUnits="userSpaceOnUse">
<stop stop-color="#0160E7"/>
<stop offset="1" stop-color="#013681"/>
</linearGradient>
<linearGradient id="paint21_linear_1629_27763" x1="448.454" y1="176.384" x2="448.454" y2="230.258" gradientUnits="userSpaceOnUse">
<stop stop-color="#0160E7"/>
<stop offset="1" stop-color="#013681"/>
</linearGradient>
<linearGradient id="paint22_linear_1629_27763" x1="380.817" y1="146.492" x2="380.817" y2="152.192" gradientUnits="userSpaceOnUse">
<stop stop-color="#0160E7"/>
<stop offset="1" stop-color="#013681"/>
</linearGradient>
<linearGradient id="paint23_linear_1629_27763" x1="342.514" y1="146.492" x2="342.514" y2="152.192" gradientUnits="userSpaceOnUse">
<stop stop-color="#0160E7"/>
<stop offset="1" stop-color="#013681"/>
</linearGradient>
<linearGradient id="paint24_linear_1629_27763" x1="342.55" y1="108.259" x2="342.55" y2="113.959" gradientUnits="userSpaceOnUse">
<stop stop-color="#0160E7"/>
<stop offset="1" stop-color="#013681"/>
</linearGradient>
<linearGradient id="paint25_linear_1629_27763" x1="380.817" y1="108.259" x2="380.817" y2="113.959" gradientUnits="userSpaceOnUse">
<stop stop-color="#015FE4"/>
<stop offset="1" stop-color="#01357E"/>
</linearGradient>
<linearGradient id="paint26_linear_1629_27763" x1="383.318" y1="122.44" x2="383.318" y2="138.011" gradientUnits="userSpaceOnUse">
<stop stop-color="#015FE4"/>
<stop offset="1" stop-color="#01357E"/>
</linearGradient>
<linearGradient id="paint27_linear_1629_27763" x1="340.012" y1="122.44" x2="340.012" y2="138.011" gradientUnits="userSpaceOnUse">
<stop stop-color="#0160E7"/>
<stop offset="1" stop-color="#013681"/>
</linearGradient>
<linearGradient id="paint28_linear_1629_27763" x1="179.988" y1="191.051" x2="179.988" y2="195.917" gradientUnits="userSpaceOnUse">
<stop stop-color="#0160E7"/>
<stop offset="1" stop-color="#013681"/>
</linearGradient>
<linearGradient id="paint29_linear_1629_27763" x1="441.294" y1="222.333" x2="441.294" y2="227.199" gradientUnits="userSpaceOnUse">
<stop stop-color="#0160E7"/>
<stop offset="1" stop-color="#013681"/>
</linearGradient>
<linearGradient id="paint30_linear_1629_27763" x1="187.773" y1="111.596" x2="187.773" y2="128.279" gradientUnits="userSpaceOnUse">
<stop stop-color="#0160E7"/>
<stop offset="1" stop-color="#013681"/>
</linearGradient>
<linearGradient id="paint31_linear_1629_27763" x1="187.773" y1="116.114" x2="187.773" y2="123.9" gradientUnits="userSpaceOnUse">
<stop stop-color="#0160E7"/>
<stop offset="1" stop-color="#013681"/>
</linearGradient>
<linearGradient id="paint32_linear_1629_27763" x1="187.772" y1="119.66" x2="187.772" y2="120.355" gradientUnits="userSpaceOnUse">
<stop stop-color="#0160E7"/>
<stop offset="1" stop-color="#013681"/>
</linearGradient>
<linearGradient id="paint33_linear_1629_27763" x1="438.863" y1="131.408" x2="438.863" y2="148.439" gradientUnits="userSpaceOnUse">
<stop stop-color="#0160E7"/>
<stop offset="1" stop-color="#013681"/>
</linearGradient>
<linearGradient id="paint34_linear_1629_27763" x1="438.862" y1="131.477" x2="438.862" y2="141.696" gradientUnits="userSpaceOnUse">
<stop stop-color="#0160E7"/>
<stop offset="1" stop-color="#013681"/>
</linearGradient>
<linearGradient id="paint35_linear_1629_27763" x1="441.94" y1="139.046" x2="450.503" y2="148.074" gradientUnits="userSpaceOnUse">
<stop stop-color="#0160E7"/>
<stop offset="1" stop-color="#013681"/>
</linearGradient>
<linearGradient id="paint36_linear_1629_27763" x1="431.281" y1="143.354" x2="431.785" y2="143.832" gradientUnits="userSpaceOnUse">
<stop stop-color="#0160E7"/>
<stop offset="1" stop-color="#013681"/>
</linearGradient>
<linearGradient id="paint37_linear_1629_27763" x1="238.033" y1="157.336" x2="238.033" y2="165.539" gradientUnits="userSpaceOnUse">
<stop stop-color="#0160E7"/>
<stop offset="1" stop-color="#013681"/>
</linearGradient>
<linearGradient id="paint38_linear_1629_27763" x1="224.338" y1="148.925" x2="224.338" y2="167.625" gradientUnits="userSpaceOnUse">
<stop stop-color="#0160E7"/>
<stop offset="1" stop-color="#013681"/>
</linearGradient>
<linearGradient id="paint39_linear_1629_27763" x1="137.237" y1="146.354" x2="137.237" y2="171.101" gradientUnits="userSpaceOnUse">
<stop stop-color="#0160E7"/>
<stop offset="1" stop-color="#013681"/>
</linearGradient>
<linearGradient id="paint40_linear_1629_27763" x1="137.236" y1="154.903" x2="137.236" y2="162.828" gradientUnits="userSpaceOnUse">
<stop stop-color="#0160E7"/>
<stop offset="1" stop-color="#013681"/>
</linearGradient>
<linearGradient id="paint41_linear_1629_27763" x1="365.11" y1="238.451" x2="365.11" y2="286.384" gradientUnits="userSpaceOnUse">
<stop stop-color="#4AAFFF"/>
<stop offset="1" stop-color="#2C6999"/>
</linearGradient>
<linearGradient id="paint42_linear_1629_27763" x1="353.497" y1="238.46" x2="353.497" y2="257.09" gradientUnits="userSpaceOnUse">
<stop stop-color="#0160E7"/>
<stop offset="1" stop-color="#013681"/>
</linearGradient>
<linearGradient id="paint43_linear_1629_27763" x1="344.978" y1="255.353" x2="344.978" y2="272.036" gradientUnits="userSpaceOnUse">
<stop stop-color="#2273B5"/>
<stop offset="1" stop-color="#0F324F"/>
</linearGradient>
<linearGradient id="paint44_linear_1629_27763" x1="347.343" y1="269.672" x2="347.343" y2="278.014" gradientUnits="userSpaceOnUse">
<stop stop-color="#3788CC"/>
<stop offset="1" stop-color="#1C4466"/>
</linearGradient>
<linearGradient id="paint45_linear_1629_27763" x1="272.268" y1="127.098" x2="272.268" y2="143.086" gradientUnits="userSpaceOnUse">
<stop stop-color="#0160E7"/>
<stop offset="1" stop-color="#013681"/>
</linearGradient>
</defs>
</svg>
