<svg width="626" height="501" viewBox="0 0 626 501" fill="none" xmlns="http://www.w3.org/2000/svg">
<path opacity="0.1" d="M4.73921 224.866C-14.1175 150.741 40.3977 115.821 70.0125 107.627C94.1872 101.954 165.382 81.9097 256.765 47.1159C348.147 12.3222 429.014 4.88444 458.024 5.51476C650.943 -33.8173 638.734 180.744 608.515 292.941C547.593 530.446 322.038 516.705 216.876 480.146C68.9228 454.429 13.8044 299.244 4.73921 224.866Z" fill="url(#paint0_linear_1629_27763)"/>
<path d="M173.362 359.289H429.205V178.761C429.205 173.841 425.231 169.772 420.217 169.772H182.256C177.336 169.772 173.268 173.746 173.268 178.761V359.289H173.362Z" fill="#B4CAE3"/>
<path d="M182.355 324.848H419.748V179.044H182.355V324.848Z" fill="url(#paint1_linear_1629_27763)"/>
<path d="M157.463 179.706H97.0977L97.1923 179.139C98.1384 174.124 102.585 170.529 107.6 170.529C108.357 170.529 109.019 170.623 109.776 170.718C112.899 164.757 119.049 161.067 125.766 161.067C131.538 161.067 137.026 163.811 140.432 168.542C141.662 168.163 142.987 167.974 144.311 167.974C150.84 167.974 156.422 172.705 157.368 179.139L157.463 179.706ZM98.2331 178.855H156.422C155.287 173.178 150.178 168.92 144.311 168.92C142.987 168.92 141.662 169.109 140.432 169.582L140.148 169.677L139.959 169.393C136.742 164.852 131.443 162.108 125.861 162.108C119.333 162.108 113.372 165.703 110.439 171.569L110.249 171.853L109.871 171.759C109.114 171.569 108.357 171.475 107.6 171.475C103.153 171.569 99.2738 174.597 98.2331 178.855Z" fill="url(#paint2_linear_1629_27763)"/>
<path d="M379.156 105.433L378.967 105.338C357.583 94.3626 360.422 73.2632 360.422 72.9793L360.516 72.6008H360.895C374.52 72.6008 378.777 68.2485 378.872 68.1539L379.25 67.7754L379.534 68.1539C379.534 68.1539 383.887 72.6008 397.511 72.6008H397.89L397.985 72.9793C397.985 73.1685 400.918 94.3626 379.44 105.338L379.156 105.433ZM361.273 73.547C360.989 76.3855 360.138 94.5519 379.156 104.487C398.174 94.6465 397.322 76.4801 397.038 73.547C385.211 73.4524 380.386 70.1408 379.156 69.1C377.926 70.1408 373.1 73.4524 361.273 73.547Z" fill="url(#paint3_linear_1629_27763)"/>
<path d="M496.385 386.917C493.168 372.157 500.169 368.467 506.887 364.966C512.375 362.033 517.579 359.289 517.295 350.584C516.916 339.041 524.77 334.878 531.677 331.188C536.786 328.444 541.706 325.794 542.368 320.591C544.071 308.007 555.709 292.3 555.898 292.206L556.655 292.773C556.561 292.963 545.018 308.385 543.314 320.78C542.558 326.457 537.448 329.201 532.15 332.039C525.148 335.824 517.863 339.703 518.241 350.584C518.525 359.856 512.848 362.884 507.36 365.723C500.642 369.318 494.303 372.63 497.331 386.728L496.385 386.917Z" fill="url(#paint4_linear_1629_27763)"/>
<path d="M499.885 383.227C499.696 383.227 499.601 383.227 499.412 383.227C496.479 383.037 493.641 380.767 490.424 376.225L490.234 375.941L490.424 375.657C490.518 375.563 495.628 369.318 493.735 357.491C493.262 354.747 492.694 352.665 492.221 350.962C491.559 348.502 491.086 346.894 491.843 345.569C492.789 343.961 495.438 343.015 502.818 341.312C510.672 339.419 513.321 330.525 515.686 322.672C517.862 315.292 519.944 308.29 526.094 308.574C531.771 308.763 540.287 299.964 547.856 292.205C554.857 285.015 561.481 278.202 565.738 278.297C566.779 278.297 567.631 278.77 568.293 279.527C572.078 283.974 568.577 290.881 565.171 297.409C562.238 302.992 559.494 308.385 561.291 311.886C563.468 316.333 563.846 320.307 562.143 323.429C560.251 327.119 555.709 329.484 548.802 330.525C542.463 331.471 541.8 338.378 541.043 345.664C540.192 354.179 539.246 363.925 528.554 364.871C520.606 365.533 515.308 371.116 510.577 376.036C506.887 379.82 503.67 383.227 499.885 383.227ZM491.37 375.941C494.303 380.01 496.952 382.091 499.507 382.28C503.008 382.564 506.319 379.158 510.009 375.279C514.835 370.264 520.322 364.587 528.554 363.83C538.489 362.979 539.34 354.085 540.192 345.475C540.949 337.811 541.706 330.525 548.707 329.484C555.331 328.538 559.588 326.267 561.386 322.861C562.9 320.023 562.521 316.333 560.44 312.17C558.453 308.29 561.291 302.708 564.319 296.936C567.631 290.597 570.942 284.068 567.536 280C567.063 279.432 566.401 279.054 565.644 279.054C561.859 278.959 555.331 285.582 548.424 292.679C540.476 300.91 532.244 309.331 526.189 309.331C526.094 309.331 525.999 309.331 525.999 309.331C520.512 309.142 518.714 315.481 516.538 322.861C514.172 330.904 511.428 340.081 503.008 342.068C496.29 343.677 493.357 344.528 492.6 345.948C492.032 346.894 492.411 348.313 493.073 350.679C493.546 352.382 494.114 354.558 494.587 357.302C496.479 368.372 492.411 374.617 491.37 375.941Z" fill="url(#paint5_linear_1629_27763)"/>
<path d="M500.266 380.105C500.171 380.105 500.076 380.105 499.982 380.105C495.156 379.632 491.561 369.224 487.966 359.1C486.262 354.275 484.654 349.733 483.14 346.895C481.91 344.624 480.396 342.258 478.977 339.988C475.003 333.932 470.935 327.687 472.259 322.105C472.921 319.172 475.003 316.807 478.598 314.725C486.452 310.183 485.222 307.629 482.572 302.046C480.68 297.978 477.936 292.301 477.842 283.502C477.842 279.717 477.747 276.405 477.652 273.567C477.368 264.294 477.274 259.564 479.261 257.86C480.112 257.198 481.248 257.009 482.856 257.293C485.695 257.86 486.925 260.131 488.155 262.497C489.763 265.524 491.656 269.025 497.333 270.255C502.631 271.391 507.74 272.905 509.065 276.405C510.011 278.865 509.16 282.082 506.226 286.34C505.564 287.381 505.28 288.232 505.47 288.989C505.943 290.692 508.592 291.922 511.62 293.342C515.972 295.329 521.365 297.883 522.879 303.087C524.109 307.25 522.69 312.549 518.527 319.172C508.687 334.784 509.065 345.286 509.443 354.653C509.727 361.56 509.917 368.089 505.753 375.374C503.956 378.591 502.158 380.105 500.266 380.105ZM481.437 258.05C480.775 258.05 480.207 258.239 479.828 258.523C478.125 259.942 478.315 264.767 478.504 273.472C478.598 276.405 478.693 279.622 478.693 283.502C478.788 292.112 481.437 297.694 483.329 301.668C485.979 307.25 487.492 310.562 478.977 315.482C475.665 317.374 473.678 319.645 473.016 322.294C471.786 327.404 475.76 333.554 479.545 339.42C481.058 341.691 482.572 344.056 483.802 346.422C485.411 349.355 487.019 353.991 488.722 358.816C492.034 368.183 495.724 378.875 499.982 379.253C501.59 379.443 503.293 377.929 504.996 374.901C509.065 367.805 508.781 361.749 508.497 354.653C508.119 345.192 507.74 334.5 517.77 318.699C521.744 312.36 523.163 307.345 522.027 303.371C520.608 298.546 515.594 296.18 511.241 294.193C508.024 292.679 505.186 291.355 504.618 289.273C504.334 288.232 504.618 287.097 505.47 285.867C508.213 281.893 509.065 278.96 508.213 276.784C506.983 273.661 501.874 272.242 497.049 271.201C490.993 269.971 488.912 266.092 487.303 262.97C486.073 260.699 485.032 258.617 482.572 258.239C482.289 258.144 481.815 258.05 481.437 258.05Z" fill="url(#paint6_linear_1629_27763)"/>
<path d="M500.361 385.687L499.509 385.403C504.335 370.17 495.63 336.014 492.981 327.687C491.656 323.619 492.886 317.469 494.022 311.508C495.535 303.844 497.049 295.896 493.17 292.868C485.885 287.286 486.263 274.324 486.263 273.756H487.209C487.209 273.85 486.831 286.813 493.738 292.111C498.09 295.423 496.482 303.655 494.968 311.602C493.832 317.469 492.697 323.524 493.927 327.403C497.049 337.717 505.186 370.549 500.361 385.687Z" fill="url(#paint7_linear_1629_27763)"/>
<path d="M463.933 286.813C461.946 281.704 454.093 282.461 454.85 289.652C455.607 296.842 460.621 304.506 452.957 316.806C445.293 329.012 462.797 331.472 469.042 339.136C475.287 346.8 477.463 357.397 482.762 364.115C488.06 370.833 491.655 386.917 495.913 380.957C500.266 374.996 496.197 367.143 496.67 356.356C497.143 345.57 506.794 338.758 497.143 331.756C487.492 324.754 477.841 322.673 481.058 306.966C482.288 299.965 470.177 302.614 463.933 286.813Z" fill="url(#paint8_linear_1629_27763)"/>
<path d="M502.82 382.281C502.725 381.997 497.426 350.3 485.505 341.69C473.299 332.891 471.123 324.659 466.865 305.452L467.717 305.263C471.88 324.281 474.056 332.323 485.978 341.028C498.183 349.922 503.482 380.956 503.671 382.186L502.82 382.281Z" fill="white"/>
<path d="M492.035 381.145C492.035 381.145 495.63 372.346 489.102 359.857C482.668 347.367 477.369 349.26 492.981 339.703C508.593 330.147 493.075 299.87 506.322 295.99C519.568 292.111 531.111 243.194 541.141 249.439C551.265 255.684 537.734 279.716 545.02 286.907C552.211 294.098 553.157 303.276 538.302 310.656C523.447 318.036 548.899 346.421 528.746 355.031C508.593 363.736 514.364 397.609 492.035 381.145Z" fill="url(#paint9_linear_1629_27763)"/>
<path d="M498.186 390.418C498.186 390.323 496.01 379.064 502.822 364.493C509.824 349.733 513.136 333.553 511.716 321.253C510.959 314.63 515.217 311.981 519.38 309.426C523.449 306.966 527.612 304.411 527.423 297.788C527.233 291.827 529.693 277.919 529.788 277.351L530.64 277.54C530.64 277.73 528.085 291.922 528.274 297.788C528.558 304.884 524.111 307.628 519.853 310.183C515.785 312.643 511.906 315.008 512.662 321.064C514.082 333.553 510.676 349.922 503.674 364.871C496.956 379.064 499.038 390.039 499.038 390.229L498.186 390.418Z" fill="white"/>
<path d="M514.461 328.349C519.002 324.186 524.963 323.524 523.733 329.769C522.503 336.013 518.245 337.811 520.327 341.69C522.503 345.57 526.004 349.543 519.948 354.369C513.893 359.194 510.487 359.762 508.689 368.845C506.891 377.928 507.27 384.173 499.416 384.552C491.563 384.93 494.591 373.481 497.146 368.372C497.146 368.372 500.93 362.506 498.376 354.747C495.916 346.989 491.09 342.826 501.214 340.176C511.433 337.527 511.433 331.188 514.461 328.349Z" fill="white"/>
<path d="M500.077 390.323C500.077 389.188 499.509 362.979 504.429 358.626C509.444 354.085 510.39 346.137 510.484 341.785C510.674 336.108 517.959 332.796 518.243 332.607L518.621 333.458C518.527 333.458 511.525 336.77 511.336 341.785C511.147 347.273 509.917 354.747 504.902 359.194C500.266 363.357 500.834 389.945 500.834 390.228L500.077 390.323Z" fill="url(#paint10_linear_1629_27763)"/>
<path d="M518.432 379.631L510.389 410.476H492.223L484.086 379.631H518.432Z" fill="url(#paint11_linear_1629_27763)"/>
<path d="M518.435 379.631C518.435 379.631 500.552 382.943 500.552 410.476H492.131L483.994 379.631H518.435Z" fill="url(#paint12_linear_1629_27763)"/>
<path d="M198.434 299.113H174.496V301.857H198.434V299.113Z" fill="#1487E3"/>
<path d="M169.482 224.46H131.352V175.638H132.203V223.514H169.482V224.46Z" fill="url(#paint13_linear_1629_27763)"/>
<path d="M330.994 192.291H330.143V141.955H378.681V99.5664H379.627V142.806H330.994V192.291Z" fill="#78C2FF"/>
<path d="M487.961 248.303H437.436V247.451H487.015V218.12H487.961V248.303Z" fill="url(#paint14_linear_1629_27763)"/>
<path d="M110.157 289.083C110.157 289.083 109.117 304.222 112.05 306.114C113.942 307.25 121.322 311.129 121.133 311.791C120.944 312.548 116.97 318.225 116.97 318.225C116.97 318.225 102.777 308.858 102.304 305.925C101.831 303.086 102.966 283.69 104.953 282.839C106.373 282.176 107.224 282.744 109.022 284.069C111.577 285.961 110.157 289.083 110.157 289.083Z" fill="#FF7E55"/>
<path d="M108.459 399.595C108.459 399.595 107.986 402.622 107.986 403.095C107.891 403.569 103.066 402.812 103.066 402.812L102.688 399.122C102.688 399.216 107.891 399.122 108.459 399.595Z" fill="#424773"/>
<path d="M108.078 402.718C108.078 402.718 109.592 404.611 111.106 405.368C112.619 406.219 114.985 406.503 115.836 407.355C116.499 407.922 118.202 410.572 111.957 410.477C105.807 410.382 102.779 410.855 102.117 409.815C101.455 408.774 103.063 402.435 103.063 402.435C103.063 402.435 104.482 403.002 108.078 402.718Z" fill="#292C47"/>
<path d="M132.865 399.595C132.865 399.595 132.392 402.623 132.392 403.096C132.297 403.569 127.472 402.812 127.472 402.812L127.093 399.122C126.998 399.217 132.202 399.122 132.865 399.595Z" fill="#424773"/>
<path d="M132.386 402.718C132.386 402.718 133.9 404.611 135.414 405.368C136.928 406.219 142.416 406.882 143.267 407.638C143.93 408.206 144.97 410.666 136.266 410.477C130.116 410.288 127.088 410.855 126.426 409.815C125.763 408.774 127.372 402.435 127.372 402.435C127.372 402.435 128.791 403.097 132.386 402.718Z" fill="#292C47"/>
<path d="M110.248 320.686C110.248 320.686 105.706 327.971 105.99 334.5C106.369 341.028 105.612 348.124 104.855 354.937C104.098 362.601 102.016 378.496 101.922 382.565C101.827 386.633 102.111 402.056 102.111 402.056L110.059 401.961C110.059 401.961 112.897 370.832 114.222 367.615C115.546 364.398 121.223 341.028 121.413 338.473C121.602 335.919 110.248 320.686 110.248 320.686Z" fill="#292C47"/>
<path d="M134.287 321.632C134.287 321.632 136.084 339.514 136.557 343.488C137.031 347.462 136.747 364.966 136.936 367.426C137.125 369.981 135.422 396.473 134.949 401.583L126.244 401.488C126.244 401.488 125.677 380.01 125.677 369.508C125.677 359.1 123.027 346.894 119.905 339.987C116.877 333.08 109.781 332.891 107.889 320.118C107.889 320.307 131.732 317.563 134.287 321.632Z" fill="#292C47"/>
<path d="M115.071 259.374C115.071 259.374 120.559 255.778 124.343 259.657C128.128 263.537 130.02 272.714 127.277 274.512C124.533 276.31 119.896 276.783 117.626 274.323C115.449 271.863 113.084 268.078 112.516 265.334C111.949 262.59 113.652 260.509 115.071 259.374Z" fill="#EEA886"/>
<path d="M125.488 275.175C125.488 275.175 125.394 278.96 125.867 279.811C126.245 280.663 117.919 280.663 117.919 280.663C117.919 280.663 117.257 276.216 115.932 272.431C114.608 268.646 125.488 275.175 125.488 275.175Z" fill="#EEA886"/>
<path d="M116.117 272.337C116.117 272.337 116.874 273.094 119.145 272.243C121.321 271.297 123.402 267.606 124.349 267.039C125.2 266.471 125.106 265.903 125.106 265.903L125.957 266.66L126.998 266.471C126.998 266.471 125.389 263.916 126.525 262.497C127.66 261.078 123.024 253.982 116.212 258.334C116.212 258.334 110.913 261.267 111.859 264.39C112.711 267.606 114.414 271.107 116.117 272.337Z" fill="#754836"/>
<path d="M126.343 279.717C126.343 279.717 126.343 278.203 125.586 278.014C124.923 277.825 117.827 277.163 116.881 277.541V279.339C116.881 279.339 118.584 280.38 126.343 279.717Z" fill="#E2D2CA"/>
<path d="M124.538 264.862C124.254 264.389 122.551 263.159 122.457 264.862C122.362 266.659 124.16 268.552 124.822 268.173C125.579 267.795 125.201 266.092 124.538 264.862Z" fill="#EEA886"/>
<path d="M113.474 260.32C113.474 260.32 105.715 262.402 115.745 272.053L113.474 260.32Z" fill="#754836"/>
<path d="M183.108 301.762L175.16 301.667C175.822 301.288 176.958 300.532 176.674 300.248C176.295 299.775 174.119 300.815 173.173 300.91C172.321 301.005 170.902 300.91 169.861 301.288L167.307 302.329L169.577 304.411C169.577 304.411 173.741 304.979 174.971 305.073C176.958 305.168 183.013 302.897 183.108 302.519C183.391 301.951 183.108 301.762 183.108 301.762Z" fill="#EEA886"/>
<path d="M136.648 281.893C131.633 281.041 126.24 279.717 126.24 279.717L116.873 279.338C116.873 279.338 108.263 281.231 104.857 282.745C104.573 282.934 104.573 290.409 103.627 292.395L106.465 298.356C106.465 298.356 108.074 310.183 108.452 315.387C108.642 317.753 105.141 337.906 105.141 337.906C105.141 337.906 108.925 339.041 115.359 339.704C121.793 340.366 137.784 339.42 137.878 338.663C137.973 337.906 134.756 310.467 134.661 309.048C134.472 306.872 135.323 296.748 135.323 296.748C136.554 298.356 143.555 304.506 146.961 306.399C149.421 307.818 155.382 306.966 157.085 306.777C160.87 306.399 171.372 305.642 171.562 305.263C171.751 305.074 170.994 301.195 170.521 301.1C170.142 301.006 156.612 300.343 153.206 300.438C151.787 300.532 147.34 295.518 147.34 295.518C147.34 295.518 139.487 283.123 136.648 281.893Z" fill="#0160E7"/>
<path d="M78.8418 243.857H103.726V261.834V265.619L99.8467 261.834H78.8418V243.857Z" fill="url(#paint15_linear_1629_27763)"/>
<path d="M479.258 186.519H455.131V162.392H479.258V186.519ZM455.888 185.667H478.407V163.149H455.888V185.667Z" fill="url(#paint16_linear_1629_27763)"/>
<path d="M539.432 171.191H484.176V165.325H539.432V171.191ZM484.933 170.339H538.58V166.082H484.933V170.339Z" fill="url(#paint17_linear_1629_27763)"/>
<path d="M539.434 198.63H455.131V192.764H539.434V198.63ZM455.888 197.873H538.583V193.615H455.888V197.873Z" fill="url(#paint18_linear_1629_27763)"/>
<path d="M508.778 209.983H455.131V204.117H508.778V209.983ZM455.888 209.132H507.927V204.874H455.888V209.132Z" fill="url(#paint19_linear_1629_27763)"/>
<path d="M521.55 182.45H484.082V176.583H521.55V182.45ZM484.934 181.598H520.793V177.34H484.934V181.598Z" fill="url(#paint20_linear_1629_27763)"/>
<path d="M548.993 222.852H445.482V149.524H548.993V222.852ZM446.334 222H548.236V150.281H446.334V222Z" fill="url(#paint21_linear_1629_27763)"/>
<path d="M409.053 116.597H401.295V115.746H408.107V108.839H409.053V116.597Z" fill="url(#paint22_linear_1629_27763)"/>
<path d="M356.919 116.597H349.16V108.839H350.106V115.746H356.919V116.597Z" fill="url(#paint23_linear_1629_27763)"/>
<path d="M350.109 64.5584H349.258V56.7998H356.922V57.746H350.109V64.5584Z" fill="url(#paint24_linear_1629_27763)"/>
<path d="M409.053 64.5584H408.107V57.746H401.295V56.7998H409.053V64.5584Z" fill="url(#paint25_linear_1629_27763)"/>
<path d="M409.052 76.1011H408.105V97.2952H409.052V76.1011Z" fill="url(#paint26_linear_1629_27763)"/>
<path d="M350.106 76.1006H349.16V97.2947H350.106V76.1006Z" fill="url(#paint27_linear_1629_27763)"/>
<path d="M131.825 176.111C130.028 176.111 128.514 174.598 128.514 172.8C128.514 171.002 130.028 169.488 131.825 169.488C133.623 169.488 135.137 171.002 135.137 172.8C135.137 174.598 133.623 176.111 131.825 176.111ZM131.825 170.34C130.501 170.34 129.46 171.381 129.46 172.705C129.46 174.03 130.501 175.071 131.825 175.071C133.15 175.071 134.191 174.03 134.191 172.705C134.191 171.381 133.15 170.34 131.825 170.34Z" fill="url(#paint28_linear_1629_27763)"/>
<path d="M379.155 100.039C377.358 100.039 375.844 98.5253 375.844 96.7276C375.844 94.9299 377.358 93.416 379.155 93.416C380.953 93.416 382.467 94.9299 382.467 96.7276C382.467 98.6199 380.953 100.039 379.155 100.039ZM379.155 94.3622C377.831 94.3622 376.79 95.403 376.79 96.7276C376.79 98.0522 377.831 99.093 379.155 99.093C380.48 99.093 381.521 98.0522 381.521 96.7276C381.521 95.403 380.48 94.3622 379.155 94.3622Z" fill="#78C2FF"/>
<path d="M487.491 218.689C485.694 218.689 484.18 217.175 484.18 215.377C484.18 213.58 485.694 212.066 487.491 212.066C489.289 212.066 490.803 213.58 490.803 215.377C490.803 217.175 489.289 218.689 487.491 218.689ZM487.491 212.917C486.167 212.917 485.126 213.958 485.126 215.283C485.126 216.608 486.167 217.648 487.491 217.648C488.816 217.648 489.857 216.608 489.857 215.283C489.857 214.053 488.816 212.917 487.491 212.917Z" fill="url(#paint29_linear_1629_27763)"/>
<path d="M153.774 84.0493H131.066V61.3413H153.774V84.0493ZM131.918 83.1031H152.828V62.1929H131.918V83.1031Z" fill="url(#paint30_linear_1629_27763)"/>
<path d="M142.895 67.4912H141.949V78.0883H142.895V67.4912Z" fill="url(#paint31_linear_1629_27763)"/>
<path d="M147.716 72.3169H137.119V73.2631H147.716V72.3169Z" fill="url(#paint32_linear_1629_27763)"/>
<path d="M500.456 111.489H467.908V88.3076H500.456V111.489ZM468.854 110.543H499.605V89.1592H468.854V110.543Z" fill="url(#paint33_linear_1629_27763)"/>
<path d="M484.182 102.31L468.098 89.0632L468.665 88.4009L484.182 101.174L499.7 88.4009L500.267 89.0632L484.182 102.31Z" fill="url(#paint34_linear_1629_27763)"/>
<path d="M488.712 98.3781L488.025 99.0293L499.681 111.317L500.367 110.665L488.712 98.3781Z" fill="url(#paint35_linear_1629_27763)"/>
<path d="M479.684 98.4195L468.037 110.715L468.724 111.366L480.371 99.0702L479.684 98.4195Z" fill="url(#paint36_linear_1629_27763)"/>
<path d="M210.547 134.764L210.168 133.912C209.884 133.912 209.6 133.818 209.317 133.723L208.654 134.385L206.667 132.966L207.046 132.115C206.857 131.831 206.667 131.642 206.573 131.358H205.627L205.248 128.898L206.1 128.519C206.1 128.235 206.194 127.951 206.289 127.668L205.627 127.005L207.046 125.018L207.897 125.397C208.181 125.208 208.37 125.018 208.654 124.924V123.978L211.114 123.599L211.493 124.451C211.777 124.451 212.06 124.545 212.344 124.64L213.007 123.978L214.994 125.397L214.615 126.248C214.804 126.532 214.994 126.721 215.088 127.005H216.034L216.413 129.465L215.561 129.844C215.561 130.128 215.467 130.412 215.372 130.695L216.034 131.358L214.615 133.345L213.764 132.966C213.48 133.155 213.29 133.345 213.007 133.439V134.385L210.547 134.764ZM209.127 132.966L209.317 133.061C209.695 133.155 210.073 133.25 210.452 133.345H210.641L210.925 134.102L212.25 133.912V133.061L212.439 132.966C212.817 132.777 213.101 132.588 213.385 132.398L213.574 132.304L214.331 132.588L215.088 131.452L214.52 130.885L214.615 130.695C214.71 130.317 214.804 129.938 214.899 129.56V129.371L215.656 129.087L215.467 127.762H214.615L214.52 127.573C214.331 127.195 214.142 126.911 213.953 126.627L213.858 126.438L214.142 125.681L213.007 124.924L212.439 125.491L212.25 125.397C211.871 125.302 211.493 125.208 211.114 125.113H210.925L210.641 124.356L209.317 124.545V125.397L209.127 125.491C208.749 125.681 208.465 125.87 208.181 126.059L207.992 126.154L207.235 125.87L206.478 127.005L207.046 127.573L206.951 127.762C206.857 128.141 206.762 128.519 206.667 128.898V129.087L205.91 129.371L206.1 130.695H206.951L207.046 130.885C207.235 131.263 207.424 131.547 207.613 131.831L207.708 132.02L207.424 132.777L208.56 133.534L209.127 132.966ZM210.83 131.831C210.263 131.831 209.79 131.642 209.317 131.358C208.087 130.506 207.803 128.803 208.654 127.668C209.506 126.438 211.209 126.154 212.344 127.005C212.912 127.384 213.29 128.046 213.385 128.708C213.48 129.371 213.385 130.128 212.912 130.695C212.534 131.263 211.871 131.642 211.209 131.736C211.114 131.831 210.925 131.831 210.83 131.831ZM210.83 127.1C210.168 127.1 209.6 127.384 209.222 127.951C208.938 128.425 208.749 128.898 208.843 129.465C208.938 130.033 209.222 130.412 209.695 130.79C210.168 131.074 210.641 131.263 211.209 131.168C211.777 131.074 212.155 130.79 212.534 130.317C212.817 129.844 213.007 129.371 212.912 128.803C212.817 128.235 212.534 127.857 212.06 127.478C211.587 127.289 211.209 127.1 210.83 127.1Z" fill="url(#paint37_linear_1629_27763)"/>
<path d="M191.719 137.602L190.962 135.615C190.111 135.521 189.354 135.331 188.597 135.048L187.083 136.467L182.92 133.534L183.771 131.641C183.298 130.979 182.825 130.317 182.447 129.56L180.365 129.465L179.514 124.356L181.501 123.599C181.595 122.747 181.784 121.991 182.068 121.234L180.649 119.72L183.582 115.557L185.475 116.408C186.137 115.935 186.799 115.462 187.556 115.084L187.651 113.002L192.665 112.15L193.422 114.137C194.274 114.232 195.031 114.421 195.788 114.705L197.302 113.286L201.465 116.219L200.613 118.111C201.086 118.774 201.559 119.436 201.938 120.193L204.019 120.287L204.871 125.397L202.884 126.154C202.789 127.005 202.6 127.762 202.316 128.519L203.736 130.033L200.802 134.196L198.91 133.344C198.248 133.818 197.585 134.291 196.829 134.669L196.734 136.751L191.719 137.602ZM188.408 134.101L188.691 134.196C189.543 134.48 190.489 134.764 191.341 134.764H191.625L192.287 136.561L195.882 135.994L195.977 134.101L196.261 134.007C197.112 133.628 197.869 133.155 198.626 132.588L198.815 132.398L200.613 133.155L202.695 130.222L201.37 128.803L201.465 128.519C201.749 127.668 202.032 126.721 202.032 125.87V125.586L203.83 124.924L203.262 121.328L201.37 121.234L201.275 120.95C200.897 120.098 200.424 119.341 199.856 118.584L199.667 118.395L200.424 116.597L197.491 114.516L196.072 115.84L195.788 115.746C194.936 115.462 193.99 115.178 193.138 115.178H192.855L192.192 113.38L188.597 113.948L188.502 115.84L188.218 115.935C187.367 116.314 186.61 116.787 185.853 117.354L185.664 117.544L183.866 116.787L181.784 119.72L183.109 121.139L183.014 121.423C182.731 122.274 182.447 123.221 182.447 124.072V124.356L180.649 125.018L181.217 128.614L183.109 128.708L183.204 128.992C183.582 129.844 184.055 130.601 184.623 131.358L184.812 131.547L184.055 133.344L186.988 135.426L188.408 134.101ZM192.192 130.79C191.057 130.79 189.827 130.411 188.786 129.749C186.137 127.857 185.569 124.261 187.461 121.612C189.354 118.963 192.949 118.395 195.598 120.287C198.248 122.18 198.815 125.775 197.018 128.424C195.788 129.938 193.99 130.79 192.192 130.79ZM192.192 120.004C190.678 120.004 189.165 120.76 188.124 122.085C187.367 123.126 187.083 124.451 187.272 125.775C187.461 127.1 188.218 128.235 189.259 128.992C191.435 130.601 194.558 130.033 196.166 127.857C196.923 126.816 197.207 125.491 197.018 124.167C196.828 122.842 196.072 121.707 195.031 120.95C194.179 120.287 193.233 120.004 192.192 120.004Z" fill="url(#paint38_linear_1629_27763)"/>
<path d="M73.6367 142.333C64.3642 142.333 56.7949 134.764 56.7949 125.492H57.7411C57.7411 134.291 64.9319 141.387 73.6367 141.387C82.436 141.387 89.5322 134.196 89.5322 125.492C89.5322 116.692 82.3414 109.596 73.6367 109.596V108.65C82.9091 108.65 90.4784 116.219 90.4784 125.492C90.4784 134.859 82.9091 142.333 73.6367 142.333ZM73.6367 140.063C65.6889 140.063 59.1603 133.534 59.1603 125.586C59.1603 117.638 65.6889 111.11 73.6367 111.11C81.5845 111.11 88.113 117.638 88.113 125.586H87.1668C87.1668 118.112 81.1114 111.961 73.542 111.961C66.0673 111.961 59.9173 118.017 59.9173 125.586C59.9173 133.061 65.9727 139.211 73.542 139.211V140.063H73.6367Z" fill="url(#paint39_linear_1629_27763)"/>
<path d="M71.6501 131.073L65.5 125.018L66.1623 124.45L71.6501 129.843L81.2064 120.287L81.774 120.949L71.6501 131.073Z" fill="url(#paint40_linear_1629_27763)"/>
<path d="M429.206 331.945H301.285H173.458L145.451 436.591H302.136H457.213L429.206 331.945Z" fill="#B4CAE3"/>
<path d="M183.11 350.301H198.817C199.479 350.301 199.952 350.774 199.857 351.342L198.344 358.154C198.249 358.532 197.776 358.911 197.303 358.911H181.313C180.65 358.911 180.177 358.343 180.272 357.775L182.07 350.963C182.164 350.585 182.637 350.301 183.11 350.301Z" fill="white"/>
<path d="M206.007 350.301H217.928L216.32 358.911H204.209L206.007 350.301Z" fill="white"/>
<path d="M223.889 350.301H235.716L234.486 358.911H222.375L223.889 350.301Z" fill="white"/>
<path d="M241.676 350.301H253.503L252.652 358.911H240.541L241.676 350.301Z" fill="white"/>
<path d="M259.464 350.301H271.386L270.818 358.911H258.707L259.464 350.301Z" fill="white"/>
<path d="M277.348 350.301H289.175L288.986 358.911H276.875L277.348 350.301Z" fill="white"/>
<path d="M419.933 350.301H402.051L404.038 358.911H422.204L419.933 350.301Z" fill="white"/>
<path d="M396.185 350.301H384.264L385.872 358.911H397.983L396.185 350.301Z" fill="white"/>
<path d="M378.3 350.301H366.473L367.703 358.911H379.814L378.3 350.301Z" fill="white"/>
<path d="M360.517 350.301H348.596L349.542 358.911H361.653L360.517 350.301Z" fill="white"/>
<path d="M342.726 350.301H330.805L331.372 358.911H343.483L342.726 350.301Z" fill="white"/>
<path d="M324.845 350.301H313.018L313.207 358.911H325.318L324.845 350.301Z" fill="white"/>
<path d="M295.135 350.301H306.962L307.151 358.911H295.135V350.301Z" fill="white"/>
<path d="M177.904 365.345H202.694L201.274 374.239H176.012L177.904 365.345Z" fill="white"/>
<path d="M423.813 365.345H393.062L394.86 374.239H426.084L423.813 365.345Z" fill="white"/>
<path d="M386.911 365.345H374.705L376.03 374.239H388.614L386.911 365.345Z" fill="white"/>
<path d="M368.556 365.345H356.256L357.297 374.239H369.786L368.556 365.345Z" fill="white"/>
<path d="M350.108 365.345H337.902L338.565 374.239H351.054L350.108 365.345Z" fill="white"/>
<path d="M331.747 365.345H319.447L319.826 374.239H332.315L331.747 365.345Z" fill="white"/>
<path d="M174.215 381.24H199.572L197.68 390.039H171.85L174.215 381.24Z" fill="white"/>
<path d="M205.911 381.24H218.59L217.076 390.039H204.113L205.911 381.24Z" fill="white"/>
<path d="M224.927 381.24H237.606H320.111L320.395 390.039H223.508L224.927 381.24Z" fill="white"/>
<path d="M326.449 381.24H339.128L339.79 390.039H326.922L326.449 381.24Z" fill="white"/>
<path d="M345.473 381.24H358.151L359.192 390.039H346.324L345.473 381.24Z" fill="white"/>
<path d="M364.488 381.24H377.167L378.586 390.039H365.624L364.488 381.24Z" fill="white"/>
<path d="M383.506 381.24H396.279L397.982 390.039H385.02L383.506 381.24Z" fill="white"/>
<path d="M402.617 381.24H427.974L430.245 390.039H404.415L402.617 381.24Z" fill="white"/>
<path d="M313.298 365.345H301.188V374.239H313.582L313.298 365.345Z" fill="white"/>
<path d="M294.946 365.345H282.646L282.268 374.239H294.852L294.946 365.345Z" fill="white"/>
<path d="M276.494 365.345H264.194L263.531 374.239H276.021L276.494 365.345Z" fill="white"/>
<path d="M258.138 365.345H245.838L244.797 374.239H257.286L258.138 365.345Z" fill="white"/>
<path d="M239.689 365.345H227.389L226.064 374.239H238.554L239.689 365.345Z" fill="white"/>
<path d="M221.238 365.345H209.032L207.234 374.239H219.724L221.238 365.345Z" fill="white"/>
<path d="M183.676 344.907L185.663 337.149H191.434L189.542 344.907H183.676Z" fill="white"/>
<path d="M197.208 337.149H208.751L207.143 344.907H195.41L197.208 337.149Z" fill="white"/>
<path d="M214.52 337.149H226.063L224.738 344.907H213.006L214.52 337.149Z" fill="white"/>
<path d="M231.834 337.149H243.377L242.336 344.907H230.604L231.834 337.149Z" fill="white"/>
<path d="M249.153 337.149H260.696L259.94 344.907H248.207L249.153 337.149Z" fill="white"/>
<path d="M266.467 337.149H278.01L277.632 344.907H265.805L266.467 337.149Z" fill="white"/>
<path d="M283.78 337.149H295.323L295.229 344.907H283.496L283.78 337.149Z" fill="white"/>
<path d="M301.094 337.149H312.637L312.826 344.907H301.094V337.149Z" fill="white"/>
<path d="M318.41 337.149H329.859L330.426 344.907H318.694L318.41 337.149Z" fill="white"/>
<path d="M335.629 337.149H347.172L348.024 344.907H336.291L335.629 337.149Z" fill="white"/>
<path d="M352.943 337.149H364.487L365.622 344.907H353.89L352.943 337.149Z" fill="white"/>
<path d="M370.262 337.149H381.805L383.224 344.907H371.492L370.262 337.149Z" fill="white"/>
<path d="M387.576 337.149H399.119L400.822 344.907H389.09L387.576 337.149Z" fill="white"/>
<path d="M404.891 337.149H416.434L418.421 344.907H406.688L404.891 337.149Z" fill="white"/>
<path d="M449.076 444.728H153.588C149.047 444.728 145.451 441.038 145.451 436.591H457.213C457.213 441.038 453.523 444.728 449.076 444.728Z" fill="#72B5E8"/>
<path d="M337.525 402.813C337.241 401.015 335.633 399.596 333.74 399.596H301.287H268.833C266.941 399.596 265.333 400.92 265.049 402.813L260.98 427.413C260.602 429.778 262.399 431.86 264.765 431.86H301.287H337.809C340.174 431.86 341.972 429.778 341.593 427.413L337.525 402.813Z" fill="#4D78EB"/>
<path d="M224.837 191.438H198.439V194.182H224.837V191.438Z" fill="#E0E0E0"/>
<path d="M251.331 211.875H232.219V214.619H251.331V211.875Z" fill="#E0E0E0"/>
<path d="M266.938 211.875H254.26V214.619H266.938V211.875Z" fill="#1487E3"/>
<path d="M211.397 263.063H198.719V265.807H211.397V263.063Z" fill="#1487E3"/>
<path d="M300.053 211.875H269.492V214.619H300.053V211.875Z" fill="#E0E0E0"/>
<path d="M218.399 252.844H198.719V255.588H218.399V252.844Z" fill="#E0E0E0"/>
<path d="M238.083 273.281H226.066V276.025H238.083V273.281Z" fill="#E0E0E0"/>
<path d="M222.468 273.281H198.719V276.025H222.468V273.281Z" fill="#1487E3"/>
<path d="M211.87 283.5H198.719V286.244H211.87V283.5Z" fill="#E0E0E0"/>
<path d="M248.681 191.438H229.947V194.182H248.681V191.438Z" fill="#78C2FF"/>
<path d="M248.681 222H229.947V224.743H248.681V222Z" fill="#1487E3"/>
<path d="M228.621 232.218H220.578V234.962H228.621V232.218Z" fill="#E0E0E0"/>
<path d="M230.61 242.531H212.633V245.275H230.61V242.531Z" fill="#78C2FF"/>
<path d="M258.23 242.531H233.346V245.275H258.23V242.531Z" fill="#1487E3"/>
<path d="M217.453 232.312H198.719V235.056H217.453V232.312Z" fill="#1487E3"/>
<path d="M209.884 242.531H198.719V245.275H209.884V242.531Z" fill="#1487E3"/>
<path d="M242.909 232.312H232.406V235.056H242.909V232.312Z" fill="#FF8761"/>
<path d="M209.506 293.624H199.004V296.368H209.506V293.624Z" fill="#FF8761"/>
<path d="M217.359 211.875H198.625V214.619H217.359V211.875Z" fill="#78C2FF"/>
<path d="M233.918 263.063H215.184V265.807H233.918V263.063Z" fill="#78C2FF"/>
<path d="M234.203 283.5H215.469V286.244H234.203V283.5Z" fill="#78C2FF"/>
<path d="M267.506 283.501H248.771V286.245H267.506V283.501Z" fill="#78C2FF"/>
<path d="M225.401 222H198.625V224.743H225.401V222Z" fill="#78C2FF"/>
<path d="M342.726 191.438H323.992V194.182H342.726V191.438Z" fill="#78C2FF"/>
<path d="M275.832 293.624H257.098V296.368H275.832V293.624Z" fill="#78C2FF"/>
<path d="M361.18 191.438H348.596V194.182H361.18V191.438Z" fill="#78C2FF"/>
<path d="M403.66 201.657H391.076V204.401H403.66V201.657Z" fill="#78C2FF"/>
<path d="M277.727 191.438H253.789V194.182H277.727V191.438Z" fill="#1487E3"/>
<path d="M370.92 201.657H346.982V204.401H370.92V201.657Z" fill="#1487E3"/>
<path d="M341.592 211.875H317.654V214.619H341.592V211.875Z" fill="#1487E3"/>
<path d="M310.461 222H286.523V224.743H310.461V222Z" fill="#1487E3"/>
<path d="M361.654 211.875H344.623V214.619H361.654V211.875Z" fill="#78C2FF"/>
<path d="M319.358 191.438H295.42V194.182H319.358V191.438Z" fill="#FF8761"/>
<path d="M282.173 222H268.17V224.743H282.173V222Z" fill="#FF8761"/>
<path d="M271.101 263.251H257.098V265.995H271.101V263.251Z" fill="#FF8761"/>
<path d="M290.971 191.438H282.172V194.182H290.971V191.438Z" fill="#E0E0E0"/>
<path d="M262.494 222H253.789V224.743H262.494V222Z" fill="#E0E0E0"/>
<path d="M385.491 201.657H376.691V204.401H385.491V201.657Z" fill="#E0E0E0"/>
<path d="M212.159 201.657H198.439V204.401H212.159V201.657Z" fill="#1487E3"/>
<path d="M245.745 252.938H234.959V255.682H245.745V252.938Z" fill="#1487E3"/>
<path d="M219.916 201.657H215.469V204.401H219.916V201.657Z" fill="#1487E3"/>
<path d="M342.729 201.657H306.207V204.401H342.729V201.657Z" fill="#E0E0E0"/>
<path d="M307.721 283.5H271.199V286.244H307.721V283.5Z" fill="#E0E0E0"/>
<path d="M227.672 201.657H223.131V204.401H227.672V201.657Z" fill="#FF8761"/>
<path d="M302.797 201.657H290.875V204.401H302.797V201.657Z" fill="#1487E3"/>
<path d="M314.816 211.875H302.895V214.619H314.816V211.875Z" fill="#FF8761"/>
<path d="M253.312 293.624H241.391V296.368H253.312V293.624Z" fill="#FF8761"/>
<path d="M287.753 201.657H262.301V204.401H287.753V201.657Z" fill="#1487E3"/>
<path d="M253.503 263.251H238.648V265.995H253.503V263.251Z" fill="#1487E3"/>
<path d="M245.178 283.5H237.703V286.244H245.178V283.5Z" fill="#1487E3"/>
<path d="M258.708 201.657H249.908V204.401H258.708V201.657Z" fill="#78C2FF"/>
<path d="M229.189 211.875H220.484V214.619H229.189V211.875Z" fill="#FF8761"/>
<path d="M230.892 252.938H222.188V255.682H230.892V252.938Z" fill="#FF8761"/>
<path d="M246.599 201.657H231.365V204.401H246.599V201.657Z" fill="#1487E3"/>
<g opacity="0.76">
<path d="M454.657 309.71H344.05C341.969 309.71 340.266 308.007 340.266 305.925V229.286C340.266 227.204 341.969 225.501 344.05 225.501H454.657C456.739 225.501 458.442 227.204 458.442 229.286V305.925C458.442 308.007 456.739 309.71 454.657 309.71Z" fill="white"/>
</g>
<path d="M445.672 274.606H426.654C425.802 274.606 425.234 273.944 425.234 273.187V270.254C425.234 269.402 425.897 268.834 426.654 268.834H445.672C446.523 268.834 447.091 269.497 447.091 270.254V273.187C447.091 273.944 446.523 274.606 445.672 274.606Z" fill="#4AAFFF"/>
<path d="M445.672 285.582H426.654C425.802 285.582 425.234 284.919 425.234 284.162V281.229C425.234 280.378 425.897 279.81 426.654 279.81H445.672C446.523 279.81 447.091 280.472 447.091 281.229V284.162C447.091 284.919 446.523 285.582 445.672 285.582Z" fill="#4AAFFF"/>
<path d="M445.672 296.558H426.654C425.802 296.558 425.234 295.896 425.234 295.139V292.206C425.234 291.354 425.897 290.787 426.654 290.787H445.672C446.523 290.787 447.091 291.449 447.091 292.206V295.139C447.091 295.896 446.523 296.558 445.672 296.558Z" fill="#4AAFFF"/>
<path d="M414.533 255.684C409.613 242.06 396.556 233.639 382.836 234.017C379.525 234.112 376.118 234.774 372.807 235.909C362.778 239.505 355.587 247.453 352.654 256.914C350.572 263.443 350.572 270.634 353.032 277.635C353.316 278.298 353.505 278.96 353.789 279.622C355.114 282.65 356.817 285.394 358.804 287.759C367.319 297.789 381.512 302.046 394.663 297.316C411.789 291.355 420.588 272.715 414.533 255.684ZM392.109 289.746C382.269 293.247 371.671 290.125 365.238 282.555C363.724 280.758 362.399 278.676 361.453 276.5C361.264 276.027 361.074 275.459 360.885 274.986C358.993 269.782 358.993 264.389 360.601 259.469C362.778 252.373 368.171 246.412 375.74 243.763C378.2 242.911 380.755 242.438 383.215 242.343C393.528 242.06 403.273 248.304 406.963 258.523C411.41 271.201 404.787 285.205 392.109 289.746Z" fill="url(#paint41_linear_1629_27763)"/>
<path d="M360.514 259.375L352.756 256.915C355.689 247.453 362.88 239.505 372.909 235.91C376.221 234.775 379.627 234.112 382.939 234.018L383.222 242.155C380.762 242.249 378.208 242.722 375.748 243.574C368.084 246.318 362.691 252.373 360.514 259.375Z" fill="url(#paint42_linear_1629_27763)"/>
<path d="M361.455 276.5L353.98 279.717C353.697 279.055 353.413 278.393 353.223 277.73C350.763 270.823 350.763 263.538 352.845 257.009L360.604 259.469C359.09 264.389 359.09 269.783 360.887 274.986C360.982 275.46 361.171 275.933 361.455 276.5Z" fill="url(#paint43_linear_1629_27763)"/>
<path d="M358.991 287.854C356.91 285.489 355.207 282.745 353.977 279.717L361.451 276.5C362.397 278.771 363.722 280.758 365.236 282.556L358.991 287.854Z" fill="url(#paint44_linear_1629_27763)"/>
<path d="M394.765 286.056C394.765 286.056 393.157 283.312 395.711 275.837C398.172 268.646 406.498 269.309 409.147 273.945C411.796 278.581 410.945 281.42 406.971 286.529C403.092 291.733 396.374 288.421 394.765 286.056Z" fill="#EEA886"/>
<path d="M414.256 413.598C414.256 413.598 414.634 416.626 414.729 417.099C414.824 417.572 419.365 416.815 419.365 416.815L419.744 413.22C419.649 413.125 414.824 413.125 414.256 413.598Z" fill="#EEA886"/>
<path d="M414.633 416.628C414.633 416.628 413.214 418.425 411.795 419.277C410.376 420.034 408.199 420.412 407.348 421.264C406.78 421.832 405.172 424.386 410.943 424.386C416.715 424.292 419.553 424.765 420.216 423.724C420.878 422.778 419.27 416.438 419.27 416.438C419.27 416.438 417.945 416.912 414.633 416.628Z" fill="#414773"/>
<path d="M382.557 413.599C382.557 413.599 382.935 416.627 383.03 417.1C383.124 417.573 387.666 416.816 387.666 416.816L388.044 413.221C388.044 413.126 383.124 413.126 382.557 413.599Z" fill="#EEA886"/>
<path d="M383.03 416.627C383.03 416.627 381.611 418.424 380.191 419.276C378.772 420.033 373.663 420.695 372.811 421.547C372.244 422.114 371.203 424.574 379.434 424.291C385.206 424.101 388.045 424.669 388.707 423.628C389.369 422.682 387.761 416.343 387.761 416.343C387.761 416.343 385.868 416.816 383.03 416.627Z" fill="#414773"/>
<path d="M412.648 337.811C412.648 337.811 415.013 345.096 414.635 351.341C414.351 357.585 415.865 364.492 416.432 371.021C417.095 378.306 419.933 395.621 420.028 399.501C420.123 403.38 419.555 415.869 419.555 415.869L413.878 415.964C413.878 415.964 409.147 385.781 407.917 382.659C406.687 379.536 400.537 357.585 400.348 355.125C400.348 352.665 412.648 337.811 412.648 337.811Z" fill="#2D314F"/>
<path d="M389.179 337.054C389.179 337.054 385.773 356.262 385.3 360.141C384.921 364.02 384.638 378.686 384.448 381.146C384.259 383.511 383.124 412.558 381.988 416.059H388.328C388.328 416.059 394.856 394.96 394.856 385.025C394.856 375.09 399.114 363.358 401.952 356.735C404.696 350.112 411.036 350.017 412.833 337.811C412.644 337.811 391.45 333.175 389.179 337.054Z" fill="#2D314F"/>
<path d="M397.036 288.043C397.036 288.043 397.793 290.125 397.036 291.639C396.279 293.153 406.119 292.206 406.119 292.206C406.119 292.206 405.646 289.179 406.97 286.624C408.295 284.069 397.036 288.043 397.036 288.043Z" fill="#EEA886"/>
<path d="M413.117 339.324C413.117 339.324 409.616 342.919 388.801 338.756L389.085 336.958L412.644 337.81L413.117 339.324Z" fill="#2B3B57"/>
<path d="M395.52 292.016C395.52 292.016 391.925 292.395 390.884 292.584C389.843 292.773 382.842 291.354 381.422 291.165C380.003 290.976 373.853 286.813 373.664 286.339C373.475 285.866 369.974 276.972 369.785 274.985C369.595 273.093 366.378 274.039 366.662 275.364C367.135 277.824 367.798 283.879 368.176 285.583C368.555 287.475 369.595 291.733 370.258 292.3C370.825 292.868 376.313 297.031 381.706 298.829C387.099 300.627 391.168 303.181 391.168 303.181H417.661C417.661 303.181 427.974 288.421 428.163 286.245C428.352 284.069 420.972 269.214 419.458 267.416C417.944 265.524 415.863 267.984 415.863 267.984C415.863 267.984 420.31 281.041 420.878 282.839C421.445 284.731 415.674 292.868 414.16 292.868C412.551 292.868 408.483 292.395 406.685 292.3C404.887 292.206 402.995 291.449 402.995 291.449L395.52 292.016Z" fill="#EEA886"/>
<path d="M384.07 301.856C384.07 301.856 387.287 304.032 387.571 307.722C387.855 311.412 389.085 317.279 389.653 319.266C390.22 321.253 389.18 335.824 388.99 336.864C388.801 337.905 409.522 340.365 412.645 337.905C412.645 337.905 413.496 324.375 413.875 320.496C414.253 316.616 416.051 307.344 416.618 306.019C417.186 304.789 424.377 294.665 424.661 293.341C424.661 293.341 420.971 287.38 418.322 287.38C418.322 287.38 414.064 292.3 412.739 292.584C411.32 292.773 402.899 291.259 402.899 291.259C402.899 291.259 401.953 292.489 397.033 291.07C397.033 291.07 391.167 291.732 390.22 291.827C389.085 292.016 381.043 290.786 381.043 290.786C381.043 290.786 377.826 296.179 378.393 298.923L384.07 301.856Z" fill="#013681"/>
<path d="M369.976 276.215C369.976 276.215 369.219 272.809 370.165 271.769C370.638 271.201 371.868 269.687 371.963 269.498C372.057 269.308 373.382 268.552 373.382 268.173C373.382 267.795 372.152 267.416 371.017 268.362C369.881 269.403 369.219 269.592 368.84 269.498C368.367 269.403 367.8 265.713 367.705 264.861C367.61 263.915 367.326 261.55 366.759 261.739C366.191 261.928 366.191 262.969 366.191 262.969C366.191 262.969 365.529 261.171 365.056 261.55C364.583 261.928 364.677 262.78 364.677 262.78C364.677 262.78 363.826 261.739 363.636 262.496C363.447 263.253 363.636 263.915 363.636 263.915C363.636 263.915 362.785 263.442 362.69 264.578C362.596 265.713 362.974 269.119 363.542 270.255C364.11 271.485 366.38 274.607 366.664 275.837C366.948 277.067 369.976 276.215 369.976 276.215Z" fill="#EEA886"/>
<path d="M416.627 270.16C416.627 270.16 414.167 265.997 413.315 265.619C412.463 265.24 411.328 265.051 410.287 264.294C409.247 263.537 407.922 262.97 407.922 262.686C408.016 262.402 409.246 262.497 410.571 263.064C411.896 263.632 412.463 263.348 412.558 263.064C412.653 262.78 411.896 260.699 411.423 260.226C411.044 259.753 408.206 256.914 408.679 256.441C409.152 256.063 410.95 257.576 411.233 257.86C411.233 257.86 409.814 254.833 410.382 254.643C410.95 254.454 411.99 255.59 411.99 255.59C411.99 255.59 411.896 252.94 414.64 257.198C414.64 257.198 414.072 255.779 414.923 256.252C415.775 256.725 416.627 259.374 416.91 260.699C417.194 262.023 418.424 266.281 419.465 267.322C420.506 268.457 416.627 270.16 416.627 270.16Z" fill="#EEA886"/>
<path d="M406.967 286.529C406.967 286.529 405.643 286.623 402.899 285.677C400.155 284.731 399.966 279.905 399.303 280.473C398.073 281.609 396.938 280.852 396.465 280.189C396.465 280.189 397.789 278.392 397.222 277.54C396.559 276.688 395.613 276.026 395.613 276.026C395.613 276.026 397.6 266.659 406.4 270.917C416.713 275.932 406.967 286.529 406.967 286.529Z" fill="#353A3D"/>
<path d="M397.035 291.545L397.319 290.22C397.319 290.22 402.996 290.126 406.024 290.599L406.308 292.207C406.402 292.207 402.428 293.91 397.035 291.545Z" fill="#D4D8E8"/>
<path d="M398.457 279.339C398.93 278.487 400.822 277.919 401.106 280.285C401.295 282.177 397.7 284.164 397.7 282.461C397.605 280.758 398.078 279.906 398.457 279.339Z" fill="#EEA886"/>
<path d="M369.785 275.458C369.785 275.458 367.703 275.553 366.757 276.404C366.757 276.404 366.663 276.972 366.947 277.445C366.947 277.445 368.744 276.593 370.069 276.499C370.069 276.404 370.069 275.647 369.785 275.458Z" fill="#E55353"/>
<path d="M367.42 275.932C367.231 276.405 367.42 276.878 367.893 277.067C368.366 277.256 368.839 277.067 369.029 276.594C369.218 276.121 369.029 275.648 368.556 275.459C368.082 275.269 367.609 275.553 367.42 275.932Z" fill="#353A3D"/>
<path d="M317.372 203.55C317.372 203.55 320.305 208.47 321.535 209.322C323.238 210.457 322.197 211.498 321.346 211.498C320.589 211.498 316.52 211.782 315.574 210.741C314.628 209.7 314.25 206.672 313.398 205.915C312.547 205.158 311.695 201.942 313.777 201.185C315.669 200.522 317.372 203.55 317.372 203.55Z" fill="#6069A8"/>
<path d="M316.137 201.374C316.137 201.374 319.448 207.146 320.016 207.998C320.584 208.849 318.975 208.849 317.934 208.471C316.894 208.092 314.339 203.929 313.961 203.172C313.488 202.226 313.866 201.28 313.866 201.28L316.137 201.374Z" fill="#202338"/>
<path d="M312.732 204.497L313.489 210.363H313.868L313.773 206.105L312.732 204.497Z" fill="#6069A8"/>
<path d="M288.513 203.55C288.513 203.55 291.446 208.47 292.676 209.321C294.379 210.457 293.338 211.497 292.487 211.497C291.73 211.497 287.661 211.781 286.715 210.741C285.863 209.7 285.39 206.672 284.539 205.915C283.687 205.158 282.836 201.847 284.917 201.184C286.81 200.617 288.513 203.55 288.513 203.55Z" fill="#6069A8"/>
<path d="M287.376 201.375C287.376 201.375 290.498 207.147 291.161 207.998C291.728 208.85 290.12 208.85 289.079 208.471C288.038 208.093 285.484 203.93 285.105 203.173C284.632 202.226 285.011 201.28 285.011 201.28L287.376 201.375Z" fill="#202338"/>
<path d="M283.783 204.497L284.635 210.363H285.013L284.919 206.106L283.783 204.497Z" fill="#6069A8"/>
<path d="M275.545 158.607L301.943 170.624C301.943 170.624 304.876 171.57 305.255 174.881C306.295 185.1 313.959 201.279 313.959 201.279C316.419 202.509 316.23 201.469 316.23 201.469C314.716 196.549 312.824 176.111 312.162 167.88C311.972 166.177 311.972 164.947 311.878 164.568C311.878 164.284 311.594 164 311.121 163.622C307.525 160.689 292.576 154.633 292.576 154.633C281.317 154.16 275.545 158.607 275.545 158.607Z" fill="#202338"/>
<path d="M270.533 163.716C271.385 170.812 281.509 170.055 281.509 170.055H293.809C293.809 170.055 290.592 177.246 289.362 183.302C288.037 189.736 284.915 201.184 284.915 201.184C284.915 201.184 285.104 201.563 287.375 201.374C287.375 201.374 297.026 182.072 300.716 177.246C301.473 176.206 303.838 170.529 304.217 167.122C304.311 165.987 304.311 165.135 303.838 164.757C303.365 164.378 302.419 163.716 301.095 162.865C297.215 160.405 290.497 156.715 286.807 155.863C281.793 154.728 273.845 152.646 273.845 152.646C273.845 152.646 269.776 156.62 270.533 163.716Z" fill="#202338"/>
<path d="M278.955 108.839C278.955 108.839 277.063 105.338 278.009 101.648C278.955 97.9583 282.361 94.1737 287.471 95.8768C292.58 97.5799 296.649 101.554 293.621 106.095C290.593 110.637 296.365 112.719 294.851 114.895C293.337 117.071 293.905 119.342 294.567 119.815C295.229 120.288 297.216 122.086 297.027 124.262C296.838 126.343 287.187 118.017 287.187 118.017C287.187 118.017 281.888 107.515 278.955 108.839Z" fill="#464240"/>
<path d="M294.377 153.593C294.377 153.593 293.62 157.283 273.939 152.647C273.939 152.647 280.563 150.47 294.377 153.593Z" fill="#EB4747"/>
<path d="M273.75 153.687C273.466 154.254 273.182 154.822 272.804 155.39C279.995 155.579 287.186 155.768 294.377 156.052C293.241 152.268 293.62 147.064 293.809 143.184C294.093 138.359 296.742 135.047 296.458 130.222C297.877 130.411 298.161 130.506 299.58 130.695C297.404 124.45 296.647 121.423 289.835 119.057C287.659 118.3 286.145 118.111 283.779 118.3C275.926 118.963 273.561 119.057 269.682 126.153C275.737 127.1 274.696 129.276 276.589 135.237C277.44 138.17 278.386 141.387 277.913 144.509C277.44 147.537 273.75 150.943 273.75 153.687Z" fill="#325BB3"/>
<path d="M286.236 120.477C283.019 119.91 283.681 118.112 283.681 118.112C283.681 118.112 283.871 117.071 283.871 115.841C283.871 115.557 283.871 115.179 283.871 114.8C283.871 114.233 283.871 113.759 283.776 113.192C283.492 111.016 289.642 112.34 289.642 112.34C289.642 112.34 289.264 116.693 290.115 118.017C291.061 119.342 289.453 121.14 286.236 120.477Z" fill="#EEA886"/>
<path d="M280.094 118.111C280.094 118.111 286.528 125.586 288.988 127.289C288.988 127.289 291.732 124.829 290.028 118.206C290.028 118.301 286.906 116.692 280.094 118.111Z" fill="#EEA886"/>
<path d="M280.278 100.134C280.278 100.134 276.871 106.663 280.278 112.718C283.589 118.868 290.212 110.069 290.591 109.028C290.969 107.987 293.24 102.121 288.793 100.324C284.346 98.6204 281.224 98.3366 280.278 100.134Z" fill="#EEA886"/>
<path d="M281.408 102.405C281.408 102.405 279.138 105.432 278.854 107.703C278.854 107.703 277.908 103.445 280.557 99.3768C283.206 95.3083 289.829 99.1876 290.681 100.796C291.532 102.405 294.182 103.824 289.829 110.92C289.735 110.92 281.881 105.432 281.408 102.405Z" fill="#464240"/>
<path d="M286.811 113.381C286.811 113.381 286.243 114.611 283.973 115.841C283.973 115.558 283.973 115.179 283.973 114.801C283.973 114.801 285.487 114.611 286.811 113.381Z" fill="#A77860"/>
<path d="M252.84 147.821C252.84 147.821 251.232 148.578 250.475 148.199C249.718 147.915 248.582 147.821 248.204 147.821C247.731 147.821 246.122 147.253 246.217 147.915C246.217 148.483 248.772 148.956 249.245 149.145C249.718 149.335 247.731 150.47 247.542 150.943C247.352 151.416 249.623 154.728 250.948 153.782C252.272 152.835 252.935 151.038 253.219 150.848C253.502 150.754 254.165 150.186 254.165 150.186L252.84 147.821Z" fill="#EEA886"/>
<path d="M247.727 150.66C247.727 150.66 243.942 153.782 243.942 154.16C243.847 154.539 244.037 154.823 244.415 154.539C244.794 154.255 248.105 151.606 248.105 151.606C248.105 151.606 244.321 156.053 244.226 156.337C244.131 156.526 244.51 156.904 244.699 156.81C244.888 156.715 248.862 152.457 248.862 152.457C248.862 152.457 245.361 156.621 245.361 156.904C245.361 157.188 245.74 157.472 246.024 157.188C246.308 156.904 249.808 153.214 249.808 153.214C249.808 153.214 247.443 156.431 247.632 156.715C247.727 156.904 248.011 157.283 248.578 156.431C249.146 155.58 250.754 153.782 250.754 153.782L247.727 150.66Z" fill="#EEA886"/>
<path d="M292.577 170.056H281.506C281.506 170.056 271.288 170.907 270.531 163.717C269.679 156.62 273.842 152.646 273.842 152.646C273.842 152.646 279.236 154.066 283.872 155.201C286.237 154.728 289.076 154.35 292.387 154.444C292.387 154.444 312.257 160.973 311.689 164.474C311.784 164.474 303.457 160.027 292.577 170.056Z" fill="#0160E7"/>
<path d="M285.393 157.661L306.492 157.377L295.8 162.77L285.393 157.661Z" fill="#5E5853"/>
<path d="M291.915 155.011C291.915 155.011 287.184 156.809 281.413 155.201L281.129 153.024L293.051 153.687L291.915 155.011Z" fill="#325BB3"/>
<path d="M295.8 162.77L285.393 158.702V157.661L296.652 161.73L295.8 162.77Z" fill="#91887F"/>
<path d="M291.917 156.053C291.822 156.81 292.674 157.378 293.336 157.094L294.566 156.526C294.945 156.337 295.134 155.958 295.039 155.58C294.566 152.363 293.431 139.968 295.039 137.887C295.607 137.13 295.985 136.373 296.175 135.805C297.215 138.549 298.54 142.05 299.108 143.942L309.042 157.188L312.354 158.04C308.191 148.01 304.879 142.712 304.879 142.712C304.217 141.009 302.325 135.71 300.716 130.98C299.675 128.046 298.729 125.303 298.162 123.789C297.878 123.032 297.405 122.369 296.742 121.991C295.228 121.045 292.674 119.626 290.308 118.49C290.214 118.49 290.119 118.396 290.119 118.396C294.472 125.019 292.768 143.847 291.917 156.053C291.917 155.958 291.917 155.958 291.917 156.053Z" fill="#EDDAD3"/>
<path d="M275.45 118.868C274.03 119.057 270.53 122.464 268.637 125.964C266.461 129.938 264.38 134.385 262.676 135.805C259.649 138.548 251.322 148.105 250.944 147.821C250.755 147.726 253.215 150.659 253.593 150.849C253.782 150.943 267.313 139.116 268.637 137.318C269.867 135.615 273.179 128.519 274.22 128.614C274.314 128.803 275.544 131.358 276.68 135.237C276.68 135.331 276.68 135.331 276.774 135.426C277.531 138.075 277.531 141.008 277.058 144.225C276.774 146.685 274.882 150.659 273.841 152.646C273.747 152.836 273.747 153.309 273.841 153.687C273.936 153.876 274.03 154.066 274.22 154.066L278.194 155.579L279.14 155.958C279.802 156.242 280.559 156.053 281.032 155.674C281.505 155.39 281.789 154.917 281.884 154.255C282.735 147.442 283.871 140.441 284.817 137.792C288.791 126.248 283.303 117.638 283.303 117.638C283.303 117.638 276.68 118.395 275.45 118.868Z" fill="#EDDAD3"/>
<path d="M295.795 162.771L302.134 145.645L322.288 146.023L316.327 161.73L295.795 162.771Z" fill="#6E6760"/>
<path d="M308.57 153.215C307.908 154.445 308.097 155.769 308.949 156.242C309.8 156.621 310.936 156.053 311.598 154.823C312.26 153.593 312.071 152.269 311.219 151.796C310.368 151.322 309.138 151.985 308.57 153.215Z" fill="#807066"/>
<path d="M287.282 106.568C287.282 106.568 288.606 108.555 287.376 110.353C286.146 112.056 287.66 113.759 287.944 115.652C288.228 117.449 282.929 122.369 288.796 124.829C294.662 127.289 296.459 123.221 295.04 120.95C293.526 118.679 292.486 116.882 292.391 113.759C292.202 110.542 291.161 105.528 287.282 106.568Z" fill="#464240"/>
<path d="M244.988 82.4404H269.872V100.418V104.202L266.088 100.418H244.988V82.4404Z" fill="url(#paint45_linear_1629_27763)"/>
<defs>
<linearGradient id="paint0_linear_1629_27763" x1="313.363" y1="0.76416" x2="313.363" y2="500.764" gradientUnits="userSpaceOnUse">
<stop stop-color="#0160E7"/>
<stop offset="1" stop-color="#013681"/>
</linearGradient>
<linearGradient id="paint1_linear_1629_27763" x1="182.386" y1="251.974" x2="419.712" y2="251.974" gradientUnits="userSpaceOnUse">
<stop stop-color="#404B61"/>
<stop offset="0.486" stop-color="#3C4860"/>
<stop offset="1" stop-color="#2F3E5C"/>
</linearGradient>
<linearGradient id="paint2_linear_1629_27763" x1="127.28" y1="161.067" x2="127.28" y2="179.706" gradientUnits="userSpaceOnUse">
<stop stop-color="#0160E7"/>
<stop offset="1" stop-color="#013681"/>
</linearGradient>
<linearGradient id="paint3_linear_1629_27763" x1="379.208" y1="67.7754" x2="379.208" y2="105.433" gradientUnits="userSpaceOnUse">
<stop stop-color="#0160E7"/>
<stop offset="1" stop-color="#013681"/>
</linearGradient>
<linearGradient id="paint4_linear_1629_27763" x1="526.117" y1="292.206" x2="526.117" y2="386.917" gradientUnits="userSpaceOnUse">
<stop stop-color="#0160E7"/>
<stop offset="1" stop-color="#013681"/>
</linearGradient>
<linearGradient id="paint5_linear_1629_27763" x1="530.083" y1="278.296" x2="530.083" y2="383.227" gradientUnits="userSpaceOnUse">
<stop stop-color="#0160E7"/>
<stop offset="1" stop-color="#013681"/>
</linearGradient>
<linearGradient id="paint6_linear_1629_27763" x1="497.655" y1="257.165" x2="497.655" y2="380.105" gradientUnits="userSpaceOnUse">
<stop stop-color="#0160E7"/>
<stop offset="1" stop-color="#013681"/>
</linearGradient>
<linearGradient id="paint7_linear_1629_27763" x1="494.057" y1="273.756" x2="494.057" y2="385.687" gradientUnits="userSpaceOnUse">
<stop stop-color="#0160E7"/>
<stop offset="1" stop-color="#013681"/>
</linearGradient>
<linearGradient id="paint8_linear_1629_27763" x1="476.233" y1="283.521" x2="476.233" y2="382.257" gradientUnits="userSpaceOnUse">
<stop stop-color="#015EE4"/>
<stop offset="1" stop-color="#01347E"/>
</linearGradient>
<linearGradient id="paint9_linear_1629_27763" x1="516.419" y1="248.889" x2="516.419" y2="385.596" gradientUnits="userSpaceOnUse">
<stop stop-color="#0160E7"/>
<stop offset="1" stop-color="#013681"/>
</linearGradient>
<linearGradient id="paint10_linear_1629_27763" x1="509.339" y1="332.607" x2="509.339" y2="390.323" gradientUnits="userSpaceOnUse">
<stop stop-color="#0160E7"/>
<stop offset="1" stop-color="#013681"/>
</linearGradient>
<linearGradient id="paint11_linear_1629_27763" x1="501.259" y1="379.631" x2="501.259" y2="410.476" gradientUnits="userSpaceOnUse">
<stop stop-color="#0160E7"/>
<stop offset="1" stop-color="#013681"/>
</linearGradient>
<linearGradient id="paint12_linear_1629_27763" x1="501.214" y1="379.631" x2="501.214" y2="410.476" gradientUnits="userSpaceOnUse">
<stop stop-color="#053480"/>
<stop offset="1" stop-color="#013681"/>
</linearGradient>
<linearGradient id="paint13_linear_1629_27763" x1="150.417" y1="175.638" x2="150.417" y2="224.46" gradientUnits="userSpaceOnUse">
<stop stop-color="#0160E7"/>
<stop offset="1" stop-color="#013681"/>
</linearGradient>
<linearGradient id="paint14_linear_1629_27763" x1="462.698" y1="218.12" x2="462.698" y2="248.303" gradientUnits="userSpaceOnUse">
<stop stop-color="#0160E7"/>
<stop offset="1" stop-color="#013681"/>
</linearGradient>
<linearGradient id="paint15_linear_1629_27763" x1="91.2839" y1="243.857" x2="91.2839" y2="265.619" gradientUnits="userSpaceOnUse">
<stop stop-color="#0160E7"/>
<stop offset="1" stop-color="#013681"/>
</linearGradient>
<linearGradient id="paint16_linear_1629_27763" x1="467.194" y1="162.392" x2="467.194" y2="186.519" gradientUnits="userSpaceOnUse">
<stop stop-color="#0160E7"/>
<stop offset="1" stop-color="#013681"/>
</linearGradient>
<linearGradient id="paint17_linear_1629_27763" x1="511.804" y1="165.325" x2="511.804" y2="171.191" gradientUnits="userSpaceOnUse">
<stop stop-color="#0160E7"/>
<stop offset="1" stop-color="#013681"/>
</linearGradient>
<linearGradient id="paint18_linear_1629_27763" x1="497.283" y1="192.764" x2="497.283" y2="198.63" gradientUnits="userSpaceOnUse">
<stop stop-color="#0160E7"/>
<stop offset="1" stop-color="#013681"/>
</linearGradient>
<linearGradient id="paint19_linear_1629_27763" x1="481.955" y1="204.117" x2="481.955" y2="209.983" gradientUnits="userSpaceOnUse">
<stop stop-color="#0160E7"/>
<stop offset="1" stop-color="#013681"/>
</linearGradient>
<linearGradient id="paint20_linear_1629_27763" x1="502.816" y1="176.583" x2="502.816" y2="182.45" gradientUnits="userSpaceOnUse">
<stop stop-color="#0160E7"/>
<stop offset="1" stop-color="#013681"/>
</linearGradient>
<linearGradient id="paint21_linear_1629_27763" x1="497.238" y1="149.524" x2="497.238" y2="222.852" gradientUnits="userSpaceOnUse">
<stop stop-color="#0160E7"/>
<stop offset="1" stop-color="#013681"/>
</linearGradient>
<linearGradient id="paint22_linear_1629_27763" x1="405.174" y1="108.839" x2="405.174" y2="116.597" gradientUnits="userSpaceOnUse">
<stop stop-color="#0160E7"/>
<stop offset="1" stop-color="#013681"/>
</linearGradient>
<linearGradient id="paint23_linear_1629_27763" x1="353.039" y1="108.839" x2="353.039" y2="116.597" gradientUnits="userSpaceOnUse">
<stop stop-color="#0160E7"/>
<stop offset="1" stop-color="#013681"/>
</linearGradient>
<linearGradient id="paint24_linear_1629_27763" x1="353.09" y1="56.7998" x2="353.09" y2="64.5584" gradientUnits="userSpaceOnUse">
<stop stop-color="#0160E7"/>
<stop offset="1" stop-color="#013681"/>
</linearGradient>
<linearGradient id="paint25_linear_1629_27763" x1="405.174" y1="56.7998" x2="405.174" y2="64.5584" gradientUnits="userSpaceOnUse">
<stop stop-color="#015FE4"/>
<stop offset="1" stop-color="#01357E"/>
</linearGradient>
<linearGradient id="paint26_linear_1629_27763" x1="408.579" y1="76.1011" x2="408.579" y2="97.2952" gradientUnits="userSpaceOnUse">
<stop stop-color="#015FE4"/>
<stop offset="1" stop-color="#01357E"/>
</linearGradient>
<linearGradient id="paint27_linear_1629_27763" x1="349.633" y1="76.1006" x2="349.633" y2="97.2947" gradientUnits="userSpaceOnUse">
<stop stop-color="#0160E7"/>
<stop offset="1" stop-color="#013681"/>
</linearGradient>
<linearGradient id="paint28_linear_1629_27763" x1="131.825" y1="169.488" x2="131.825" y2="176.111" gradientUnits="userSpaceOnUse">
<stop stop-color="#0160E7"/>
<stop offset="1" stop-color="#013681"/>
</linearGradient>
<linearGradient id="paint29_linear_1629_27763" x1="487.491" y1="212.066" x2="487.491" y2="218.689" gradientUnits="userSpaceOnUse">
<stop stop-color="#0160E7"/>
<stop offset="1" stop-color="#013681"/>
</linearGradient>
<linearGradient id="paint30_linear_1629_27763" x1="142.42" y1="61.3413" x2="142.42" y2="84.0493" gradientUnits="userSpaceOnUse">
<stop stop-color="#0160E7"/>
<stop offset="1" stop-color="#013681"/>
</linearGradient>
<linearGradient id="paint31_linear_1629_27763" x1="142.422" y1="67.4912" x2="142.422" y2="78.0883" gradientUnits="userSpaceOnUse">
<stop stop-color="#0160E7"/>
<stop offset="1" stop-color="#013681"/>
</linearGradient>
<linearGradient id="paint32_linear_1629_27763" x1="142.418" y1="72.3169" x2="142.418" y2="73.2631" gradientUnits="userSpaceOnUse">
<stop stop-color="#0160E7"/>
<stop offset="1" stop-color="#013681"/>
</linearGradient>
<linearGradient id="paint33_linear_1629_27763" x1="484.182" y1="88.3076" x2="484.182" y2="111.489" gradientUnits="userSpaceOnUse">
<stop stop-color="#0160E7"/>
<stop offset="1" stop-color="#013681"/>
</linearGradient>
<linearGradient id="paint34_linear_1629_27763" x1="484.182" y1="88.4009" x2="484.182" y2="102.31" gradientUnits="userSpaceOnUse">
<stop stop-color="#0160E7"/>
<stop offset="1" stop-color="#013681"/>
</linearGradient>
<linearGradient id="paint35_linear_1629_27763" x1="488.369" y1="98.7037" x2="500.024" y2="110.991" gradientUnits="userSpaceOnUse">
<stop stop-color="#0160E7"/>
<stop offset="1" stop-color="#013681"/>
</linearGradient>
<linearGradient id="paint36_linear_1629_27763" x1="473.861" y1="104.567" x2="474.548" y2="105.218" gradientUnits="userSpaceOnUse">
<stop stop-color="#0160E7"/>
<stop offset="1" stop-color="#013681"/>
</linearGradient>
<linearGradient id="paint37_linear_1629_27763" x1="210.83" y1="123.599" x2="210.83" y2="134.764" gradientUnits="userSpaceOnUse">
<stop stop-color="#0160E7"/>
<stop offset="1" stop-color="#013681"/>
</linearGradient>
<linearGradient id="paint38_linear_1629_27763" x1="192.192" y1="112.15" x2="192.192" y2="137.602" gradientUnits="userSpaceOnUse">
<stop stop-color="#0160E7"/>
<stop offset="1" stop-color="#013681"/>
</linearGradient>
<linearGradient id="paint39_linear_1629_27763" x1="73.6367" y1="108.65" x2="73.6367" y2="142.333" gradientUnits="userSpaceOnUse">
<stop stop-color="#0160E7"/>
<stop offset="1" stop-color="#013681"/>
</linearGradient>
<linearGradient id="paint40_linear_1629_27763" x1="73.637" y1="120.287" x2="73.637" y2="131.073" gradientUnits="userSpaceOnUse">
<stop stop-color="#0160E7"/>
<stop offset="1" stop-color="#013681"/>
</linearGradient>
<linearGradient id="paint41_linear_1629_27763" x1="383.79" y1="234.005" x2="383.79" y2="299.246" gradientUnits="userSpaceOnUse">
<stop stop-color="#4AAFFF"/>
<stop offset="1" stop-color="#2C6999"/>
</linearGradient>
<linearGradient id="paint42_linear_1629_27763" x1="367.989" y1="234.018" x2="367.989" y2="259.375" gradientUnits="userSpaceOnUse">
<stop stop-color="#0160E7"/>
<stop offset="1" stop-color="#013681"/>
</linearGradient>
<linearGradient id="paint43_linear_1629_27763" x1="356.392" y1="257.009" x2="356.392" y2="279.717" gradientUnits="userSpaceOnUse">
<stop stop-color="#2273B5"/>
<stop offset="1" stop-color="#0F324F"/>
</linearGradient>
<linearGradient id="paint44_linear_1629_27763" x1="359.606" y1="276.5" x2="359.606" y2="287.854" gradientUnits="userSpaceOnUse">
<stop stop-color="#3788CC"/>
<stop offset="1" stop-color="#1C4466"/>
</linearGradient>
<linearGradient id="paint45_linear_1629_27763" x1="257.43" y1="82.4404" x2="257.43" y2="104.202" gradientUnits="userSpaceOnUse">
<stop stop-color="#0160E7"/>
<stop offset="1" stop-color="#013681"/>
</linearGradient>
</defs>
</svg>
