<svg width="625" height="500" viewBox="0 0 625 500" fill="none" xmlns="http://www.w3.org/2000/svg">
<path opacity="0.1" d="M3.87593 224.102C-14.9808 149.977 39.5345 115.057 69.1492 106.863C93.3239 101.19 164.519 81.1455 255.901 46.3518C347.284 11.5581 428.15 4.12028 457.161 4.7506C650.079 -34.5814 637.871 179.98 607.652 292.177C546.73 529.682 321.175 515.941 216.012 479.382C68.0596 453.665 12.9411 298.48 3.87593 224.102Z" fill="url(#paint0_linear_675_192)"/>
<g clip-path="url(#clip0_675_192)">
<path fill-rule="evenodd" clip-rule="evenodd" d="M123.586 73.5857C221.081 73.5857 318.576 73.5857 416.072 73.5857C407.897 80.8919 408.449 87.5204 417.729 93.4714C442.526 94.4309 467.383 94.569 492.3 93.8857C499.009 91.5935 501.219 87.0363 498.929 80.2143C496.865 77.0364 494.102 74.8269 490.643 73.5857C493.957 73.5857 497.272 73.5857 500.586 73.5857C500.586 191.243 500.586 308.9 500.586 426.557C409.167 426.557 317.748 426.557 226.329 426.557C227.366 425.033 227.366 423.515 226.329 422C213.758 421.86 201.329 421.446 189.043 420.757C212.811 401.68 236.563 382.623 260.3 363.586C254.431 380.226 248.631 396.936 242.9 413.714C243.179 414.568 243.731 414.982 244.557 414.957C244.557 416.062 244.557 417.167 244.557 418.271C243.585 419.112 243.033 420.216 242.9 421.586C240.759 422.04 239.931 423.421 240.415 425.729C320.786 425.729 401.157 425.729 481.529 425.729C481.999 422.902 480.894 421.245 478.215 420.757C479.681 419.421 480.647 417.763 481.115 415.786C481.667 325.747 481.667 235.71 481.115 145.671C479.463 142.428 476.839 140.495 473.243 139.871C430.573 138.906 387.764 138.768 344.815 139.457C343.444 139.961 342.063 140.375 340.672 140.7C335.7 140.7 330.729 140.7 325.757 140.7C326.029 131.989 325.752 123.427 324.929 115.014C324.929 114.462 324.653 114.186 324.1 114.186C323.638 113.117 322.809 112.426 321.615 112.114C309.186 111.562 296.757 111.562 284.329 112.114C283.51 121.576 283.234 131.104 283.5 140.7C246.766 140.562 210.032 140.7 173.3 141.114C165.806 143.537 162.629 148.646 163.772 156.443C164.936 160.646 167.56 163.546 171.643 165.143C178.16 165.068 184.512 165.759 190.7 167.214C192.88 166.2 195.228 165.647 197.743 165.557C206.329 164.938 211.439 168.805 213.072 177.157C212.477 182.916 209.439 186.644 203.957 188.343C198.986 188.619 194.015 188.895 189.043 189.171C182.323 192.539 179.976 197.924 182 205.329C182.732 207.484 183.975 209.28 185.729 210.714C188.072 211.747 190.282 212.99 192.357 214.443C199.77 213.637 207.227 213.361 214.729 213.614C213.918 220.046 216.127 225.018 221.357 228.529C221.173 235.397 217.858 239.955 211.415 242.2C199.815 242.476 188.215 242.753 176.615 243.029C157.01 249.212 148.31 262.608 150.515 283.214C152.065 290.468 155.517 296.544 160.872 301.443C160.734 306.974 160.872 312.498 161.286 318.014C161.7 318.429 162.115 318.843 162.529 319.257C175.783 319.671 189.04 319.81 202.3 319.671C182.175 336.199 162.013 352.77 141.815 369.386C139.987 374.186 141.091 378.053 145.129 380.986C147.615 384.3 150.1 387.614 152.586 390.929C161.061 400.963 169.347 411.182 177.443 421.586C171.085 421.448 164.732 421.586 158.386 422C157.527 423.472 157.527 424.99 158.386 426.557C146.786 426.557 135.186 426.557 123.586 426.557C123.586 308.9 123.586 191.243 123.586 73.5857Z" fill="#FDFEFE"/>
<path fill-rule="evenodd" clip-rule="evenodd" d="M416.071 73.5857C440.928 73.5857 465.786 73.5857 490.643 73.5857C494.102 74.8269 496.864 77.0364 498.928 80.2143C498.451 83.3063 497.484 86.3444 496.028 89.3286C494.72 90.6055 493.201 91.5722 491.471 92.2286C466.75 92.3674 442.169 92.7817 417.728 93.4714C408.448 87.5204 407.897 80.8919 416.071 73.5857Z" fill="#0A65FE"/>
<path fill-rule="evenodd" clip-rule="evenodd" d="M435.957 79.3857C437.91 79.2504 439.843 79.3885 441.757 79.8C442.19 80.265 442.465 80.8174 442.586 81.4571C442.209 83.4642 442.071 85.5356 442.171 87.6714C440.198 88.4461 438.127 88.7223 435.957 88.5C435.957 85.4618 435.957 82.4238 435.957 79.3857Z" fill="#F0F5FF"/>
<path fill-rule="evenodd" clip-rule="evenodd" d="M463.3 78.5571C464.822 78.6727 465.098 79.2251 464.129 80.2143C463.468 79.8357 463.192 79.2833 463.3 78.5571Z" fill="#C1D6FF"/>
<path fill-rule="evenodd" clip-rule="evenodd" d="M498.929 80.2142C501.219 87.0363 499.009 91.5934 492.3 93.8857C467.383 94.569 442.526 94.4309 417.729 93.4714C442.169 92.7817 466.75 92.3674 491.471 92.2285C493.201 91.5721 494.72 90.6055 496.029 89.3285C497.484 86.3443 498.451 83.3063 498.929 80.2142Z" fill="#073ACF"/>
<path fill-rule="evenodd" clip-rule="evenodd" d="M437.615 80.2142C438.72 80.2142 439.825 80.2142 440.93 80.2142C440.93 81.0428 440.93 81.8714 440.93 82.6999C439.825 82.6999 438.72 82.6999 437.615 82.6999C437.615 81.8714 437.615 81.0428 437.615 80.2142Z" fill="#3475FF"/>
<path fill-rule="evenodd" clip-rule="evenodd" d="M467.443 79.3857C468.751 79.8544 469.856 80.683 470.758 81.8715C468.548 83.8048 468.548 85.7382 470.758 87.6715C469.804 88.6914 468.838 88.6914 467.858 87.6715C467.052 84.8433 466.915 82.0814 467.443 79.3857Z" fill="#DCE8FF"/>
<path fill-rule="evenodd" clip-rule="evenodd" d="M444.242 81.0428C445.77 82.5168 446.322 84.4501 445.899 86.8428C447.004 86.8428 448.109 86.8428 449.213 86.8428C448.958 84.8344 449.235 82.9011 450.042 81.0428C451.146 83.5286 451.146 86.0143 450.042 88.5C448.3 88.5171 446.506 88.241 444.656 87.6714C444.244 85.479 444.106 83.2695 444.242 81.0428Z" fill="#E5EEFF"/>
<path fill-rule="evenodd" clip-rule="evenodd" d="M463.299 81.0428C464.347 81.8834 464.899 83.1263 464.956 84.7714C464.68 86.0143 464.404 87.2571 464.128 88.5C463.312 86.0738 463.037 83.5881 463.299 81.0428Z" fill="#ECF3FF"/>
<path fill-rule="evenodd" clip-rule="evenodd" d="M437.615 84.3572C438.72 84.3572 439.825 84.3572 440.93 84.3572C440.93 85.1857 440.93 86.0143 440.93 86.8429C439.825 86.8429 438.72 86.8429 437.615 86.8429C437.615 86.0143 437.615 85.1857 437.615 84.3572Z" fill="#0E68FF"/>
<path fill-rule="evenodd" clip-rule="evenodd" d="M452.529 81.0428C454.2 81.8597 455.304 83.2407 455.844 85.1857C456.52 83.7048 457.348 82.3239 458.329 81.0428C458.585 84.9921 457.342 88.5825 454.601 91.8143C454.108 90.6552 454.246 89.5505 455.015 88.5C453.685 86.1686 452.857 83.6828 452.529 81.0428Z" fill="#D8E5FF"/>
<path fill-rule="evenodd" clip-rule="evenodd" d="M324.1 114.186C323.542 126.395 322.989 138.686 322.443 151.057C310.018 151.471 297.589 151.609 285.157 151.471C284.646 151.38 284.232 151.104 283.915 150.643C283.501 147.34 283.363 144.026 283.5 140.7C283.234 131.104 283.51 121.576 284.329 112.114C296.757 111.562 309.186 111.562 321.615 112.114C322.809 112.426 323.638 113.117 324.1 114.186Z" fill="#0A65FE"/>
<path fill-rule="evenodd" clip-rule="evenodd" d="M324.099 114.186C324.652 114.186 324.928 114.462 324.928 115.014C325.196 127.922 324.92 140.765 324.099 153.543C311.671 154.095 299.242 154.095 286.813 153.543C286.083 152.956 285.532 152.265 285.156 151.471C297.588 151.609 310.017 151.471 322.442 151.057C322.988 138.686 323.541 126.395 324.099 114.186Z" fill="#1540D0"/>
<path fill-rule="evenodd" clip-rule="evenodd" d="M290.129 119.157C293.806 118.267 295.463 119.647 295.1 123.3C302.005 123.3 308.91 123.3 315.814 123.3C315.353 127.401 314.524 131.406 313.329 135.314C308.263 135.739 303.291 136.568 298.414 137.8C302.436 138.313 306.441 138.175 310.429 137.386C311.396 137.662 312.362 137.938 313.329 138.214C313.19 138.49 313.053 138.767 312.914 139.043C307.39 140.148 301.867 140.148 296.343 139.043C295.932 137.771 296.069 136.528 296.757 135.314C295.325 131.101 294.219 126.82 293.443 122.471C290.178 123.08 289.074 121.975 290.129 119.157Z" fill="#E5EDFF"/>
<path fill-rule="evenodd" clip-rule="evenodd" d="M296.758 125.786C298.415 125.786 300.072 125.786 301.729 125.786C301.729 126.891 301.729 127.995 301.729 129.1C298.63 129.847 296.972 128.742 296.758 125.786Z" fill="#1A6BFF"/>
<path fill-rule="evenodd" clip-rule="evenodd" d="M303.385 125.786C304.489 125.786 305.595 125.786 306.699 125.786C306.699 126.891 306.699 127.995 306.699 129.1C305.595 129.1 304.489 129.1 303.385 129.1C303.385 127.995 303.385 126.891 303.385 125.786Z" fill="#0063FF"/>
<path fill-rule="evenodd" clip-rule="evenodd" d="M308.357 125.786C309.739 125.786 311.119 125.786 312.5 125.786C312.5 126.891 312.5 127.995 312.5 129.1C311.119 129.1 309.739 129.1 308.357 129.1C308.357 127.995 308.357 126.891 308.357 125.786Z" fill="#196BFF"/>
<path fill-rule="evenodd" clip-rule="evenodd" d="M300.9 130.757C301.214 133.298 300.385 134.127 298.414 133.243C298.414 132.414 298.414 131.586 298.414 130.757C299.243 130.757 300.071 130.757 300.9 130.757Z" fill="#0164FF"/>
<path fill-rule="evenodd" clip-rule="evenodd" d="M302.557 130.757C303.938 130.757 305.318 130.757 306.699 130.757C306.699 131.862 306.699 132.967 306.699 134.071C305.318 134.071 303.938 134.071 302.557 134.071C302.557 132.967 302.557 131.862 302.557 130.757Z" fill="#1D6DFF"/>
<path fill-rule="evenodd" clip-rule="evenodd" d="M308.357 130.757C309.462 130.757 310.567 130.757 311.672 130.757C311.672 131.586 311.672 132.414 311.672 133.243C310.567 133.243 309.462 133.243 308.357 133.243C308.357 132.414 308.357 131.586 308.357 130.757Z" fill="#1C6CFF"/>
<path fill-rule="evenodd" clip-rule="evenodd" d="M300.9 130.757C301.688 131.933 301.964 133.314 301.728 134.9C300.085 135.184 298.98 134.632 298.414 133.243C300.385 134.127 301.214 133.298 300.9 130.757Z" fill="#6FA3FF"/>
<path fill-rule="evenodd" clip-rule="evenodd" d="M473.243 139.871C471.563 139.737 469.906 139.875 468.272 140.286C470.896 141.805 472.967 143.876 474.486 146.5C475.038 235.986 475.038 325.471 474.486 414.957C473.681 418.53 471.61 421.153 468.272 422.829C469.343 423.235 470.448 423.373 471.586 423.243C450.873 423.796 430.021 424.072 409.029 424.072C386.763 424.192 364.529 423.777 342.329 422.829C339.654 421.534 337.859 419.462 336.943 416.614C336.529 393.416 336.39 370.216 336.529 347.014C372.157 347.014 407.786 347.014 443.414 347.014C451.424 347.014 459.433 347.014 467.443 347.014C467.414 334.522 466.585 322.231 464.957 310.143C466.606 280.36 467.158 250.393 466.614 220.243C448.383 220.381 430.155 220.243 411.929 219.829C411.55 219.486 411.273 219.071 411.1 218.586C400.522 216.414 389.75 215.586 378.786 216.1C378.786 216.929 378.786 217.757 378.786 218.586C367.502 219.783 356.178 220.335 344.814 220.243C344.114 229.061 343.838 237.9 343.986 246.757C340.478 246.725 337.164 246.173 334.043 245.1C334.872 245.1 335.7 245.1 336.529 245.1C336.529 234.053 336.529 223.005 336.529 211.957C342.209 212.662 346.075 210.453 348.129 205.329C350.5 211.859 354.919 213.654 361.386 210.714C363.313 209.219 364.693 207.423 365.529 205.329C366.562 209.674 369.324 211.883 373.814 211.957C377.677 211.965 380.439 210.308 382.1 206.986C383.908 207.649 385.289 208.891 386.243 210.714C392.311 213.406 396.869 211.886 399.914 206.157C400.232 206.618 400.646 206.894 401.157 206.986C402.445 209.842 404.655 211.499 407.786 211.957C408.132 212.555 408.684 212.97 409.443 213.2C428.498 213.614 447.556 213.753 466.614 213.614C466.614 210.024 466.614 206.433 466.614 202.843C466.614 202.567 466.614 202.29 466.614 202.014C467.44 189.179 467.716 176.198 467.443 163.071C461.367 163.071 455.29 163.071 449.214 163.071C443.414 163.071 437.614 163.071 431.814 163.071C426.014 163.071 420.214 163.071 414.414 163.071C408.338 163.071 402.262 163.071 396.186 163.071C378.783 162.933 361.383 163.071 343.986 163.486C341.612 166.545 339.126 169.445 336.529 172.186C336.39 163.343 336.529 154.505 336.943 145.671C338.047 143.882 339.289 142.225 340.672 140.7C342.063 140.375 343.444 139.961 344.814 139.457C387.763 138.768 430.573 138.906 473.243 139.871Z" fill="#BABABA"/>
<path fill-rule="evenodd" clip-rule="evenodd" d="M473.243 139.871C476.839 140.495 479.463 142.428 481.114 145.671C481.667 235.71 481.667 325.747 481.114 415.786C480.647 417.764 479.681 419.421 478.214 420.757C476.285 422.23 474.075 423.059 471.586 423.243C470.448 423.373 469.343 423.235 468.271 422.829C471.61 421.153 473.681 418.53 474.486 414.957C475.038 325.471 475.038 235.986 474.486 146.5C472.967 143.876 470.896 141.805 468.271 140.286C469.906 139.875 471.563 139.737 473.243 139.871Z" fill="#8F8F8F"/>
<path fill-rule="evenodd" clip-rule="evenodd" d="M324.929 115.014C325.752 123.427 326.029 131.989 325.757 140.7C330.729 140.7 335.7 140.7 340.672 140.7C339.289 142.225 338.047 143.882 336.943 145.671C336.529 154.505 336.39 163.343 336.529 172.186C335.49 174.334 334.109 176.268 332.386 177.986C298.137 177.847 263.889 177.986 229.643 178.4C228.953 179.09 228.262 179.781 227.572 180.471C227.158 185.159 227.02 189.854 227.157 194.557C227.157 197.871 227.157 201.186 227.157 204.5C221.342 205.329 217.199 208.367 214.729 213.614C207.227 213.361 199.769 213.637 192.357 214.443C190.282 212.99 188.072 211.748 185.729 210.714C183.975 209.28 182.732 207.485 182 205.329C179.976 197.924 182.323 192.539 189.043 189.171C194.014 188.896 198.986 188.619 203.957 188.343C209.439 186.644 212.477 182.916 213.072 177.157C211.438 168.805 206.329 164.938 197.743 165.557C195.228 165.647 192.88 166.2 190.7 167.214C184.512 165.759 178.16 165.068 171.643 165.143C167.56 163.546 164.936 160.646 163.772 156.443C162.629 148.646 165.805 143.537 173.3 141.114C210.032 140.7 246.765 140.562 283.5 140.7C283.363 144.026 283.501 147.34 283.914 150.643C284.232 151.104 284.646 151.38 285.157 151.471C285.533 152.266 286.084 152.956 286.814 153.543C299.243 154.095 311.672 154.095 324.1 153.543C324.921 140.765 325.197 127.922 324.929 115.014Z" fill="#EFEFF1"/>
<path fill-rule="evenodd" clip-rule="evenodd" d="M296.757 140.7C299.947 140.866 300.776 142.385 299.243 145.257C295.959 145.355 295.131 143.836 296.757 140.7Z" fill="#EBF2FF"/>
<path fill-rule="evenodd" clip-rule="evenodd" d="M309.185 140.7C312.948 140.961 313.776 142.48 311.671 145.257C308.387 145.355 307.559 143.836 309.185 140.7Z" fill="#E1EBFF"/>
<path fill-rule="evenodd" clip-rule="evenodd" d="M368.843 148.986C393.149 148.848 417.455 148.986 441.758 149.4C443.967 151.057 443.967 152.714 441.758 154.371C417.729 154.924 393.7 154.924 369.672 154.371C367.862 152.799 367.586 151.004 368.843 148.986Z" fill="#E7E7E8"/>
<path fill-rule="evenodd" clip-rule="evenodd" d="M396.186 163.9C396.186 163.624 396.186 163.347 396.186 163.071C402.261 163.071 408.338 163.071 414.414 163.071C414.557 163.893 414.28 164.445 413.586 164.729C407.94 163.907 402.14 163.631 396.186 163.9Z" fill="#6295E2"/>
<path fill-rule="evenodd" clip-rule="evenodd" d="M431.814 163.9C431.814 163.624 431.814 163.347 431.814 163.071C437.614 163.071 443.414 163.071 449.214 163.071C449.357 163.893 449.08 164.445 448.386 164.729C443.018 163.907 437.493 163.632 431.814 163.9Z" fill="#5F92E2"/>
<path fill-rule="evenodd" clip-rule="evenodd" d="M396.185 163.071C396.185 163.347 396.185 163.624 396.185 163.9C386.242 176.329 376.3 188.757 366.357 201.186C365.804 201.186 365.528 201.462 365.528 202.014C360.004 202.014 354.481 202.014 348.957 202.014C358.387 189.122 368.33 176.555 378.785 164.314C372.985 163.762 367.185 163.762 361.385 164.314C350.99 176.777 340.771 189.343 330.728 202.014C324.928 202.014 319.128 202.014 313.328 202.014C315.007 199.514 316.664 197.028 318.3 194.557C323.38 189.374 328.075 183.85 332.385 177.986C334.109 176.268 335.489 174.334 336.528 172.186C339.126 169.445 341.611 166.545 343.985 163.486C361.383 163.071 378.783 162.933 396.185 163.071Z" fill="#B5D3FE"/>
<path fill-rule="evenodd" clip-rule="evenodd" d="M348.957 202.014C348.681 202.014 348.404 202.014 348.129 202.014C342.329 202.014 336.529 202.014 330.729 202.014C340.772 189.343 350.99 176.777 361.386 164.314C367.186 163.762 372.986 163.762 378.786 164.314C368.33 176.555 358.387 189.122 348.957 202.014Z" fill="#0565FE"/>
<path fill-rule="evenodd" clip-rule="evenodd" d="M396.186 163.9C402.141 163.631 407.941 163.908 413.586 164.729C403.444 177.006 393.501 189.434 383.757 202.014C383.482 202.014 383.205 202.014 382.929 202.014C377.25 202.283 371.726 202.007 366.357 201.186C376.3 188.757 386.243 176.329 396.186 163.9Z" fill="#0665FE"/>
<path fill-rule="evenodd" clip-rule="evenodd" d="M414.415 163.071C420.215 163.071 426.015 163.071 431.815 163.071C431.815 163.347 431.815 163.624 431.815 163.9C420.972 176.121 410.753 188.826 401.158 202.014C400.882 202.014 400.605 202.014 400.329 202.014C394.805 202.014 389.282 202.014 383.758 202.014C393.502 189.434 403.445 177.005 413.586 164.729C414.281 164.445 414.557 163.893 414.415 163.071Z" fill="#B5D4FE"/>
<path fill-rule="evenodd" clip-rule="evenodd" d="M431.813 163.9C437.492 163.632 443.017 163.908 448.385 164.729C438.442 177.157 428.499 189.586 418.556 202.014C418.28 202.014 418.004 202.014 417.728 202.014C412.204 202.014 406.68 202.014 401.156 202.014C410.752 188.826 420.971 176.121 431.813 163.9Z" fill="#0565FE"/>
<path fill-rule="evenodd" clip-rule="evenodd" d="M449.214 163.071C455.29 163.071 461.366 163.071 467.442 163.071C467.716 176.198 467.439 189.179 466.614 202.014C466.752 189.306 466.614 176.602 466.199 163.9C456.103 176.387 446.022 188.815 435.957 201.186C435.404 201.186 435.128 201.462 435.128 202.014C429.604 202.014 424.081 202.014 418.557 202.014C428.499 189.586 438.442 177.157 448.385 164.729C449.08 164.445 449.356 163.893 449.214 163.071Z" fill="#B3D2FC"/>
<path fill-rule="evenodd" clip-rule="evenodd" d="M466.614 202.014C456.248 202.287 446.028 202.01 435.957 201.186C446.023 188.815 456.103 176.387 466.2 163.9C466.614 176.602 466.753 189.307 466.614 202.014Z" fill="#0364FE"/>
<path fill-rule="evenodd" clip-rule="evenodd" d="M332.385 177.986C328.075 183.85 323.38 189.374 318.3 194.557C311.947 194.557 305.595 194.557 299.243 194.557C299.647 191.192 298.267 189.258 295.1 188.757C293.287 188.597 291.906 189.288 290.957 190.829C285.65 190.97 280.954 192.49 276.871 195.386C260.363 194.568 243.791 194.291 227.157 194.557C227.019 189.854 227.158 185.159 227.571 180.471C228.261 179.781 228.952 179.09 229.643 178.4C263.889 177.986 298.136 177.847 332.385 177.986Z" fill="#B9BBBE"/>
<path fill-rule="evenodd" clip-rule="evenodd" d="M299.242 194.557C298.115 196.237 296.734 197.618 295.099 198.7C290.944 199.824 288.458 202.585 287.642 206.986C286.528 206.284 285.699 205.318 285.157 204.086C284.37 203.575 283.68 203.712 283.085 204.5C282.943 207.256 283.081 210.017 283.499 212.786C282.671 212.786 281.842 212.786 281.014 212.786C276.254 209.339 274.183 204.643 274.799 198.7C275.766 197.733 276.732 196.767 277.699 195.8C277.51 195.469 277.234 195.332 276.871 195.386C280.954 192.49 285.65 190.97 290.957 190.829C291.905 189.288 293.286 188.597 295.099 188.757C298.266 189.258 299.647 191.192 299.242 194.557Z" fill="#0A0808"/>
<path fill-rule="evenodd" clip-rule="evenodd" d="M227.157 194.557C243.791 194.291 260.363 194.568 276.871 195.386C277.234 195.332 277.511 195.469 277.7 195.8C276.733 196.767 275.767 197.733 274.8 198.7C274.183 204.643 276.255 209.339 281.014 212.786C280.738 215.547 280.462 218.31 280.186 221.071C279.633 221.347 279.081 221.624 278.528 221.9C274.562 222.226 271.248 223.883 268.586 226.871C259.706 236.576 250.867 246.243 242.071 255.871C238.081 255.187 233.938 254.773 229.643 254.629C228.953 253.938 228.262 253.247 227.571 252.557C227.157 245.105 227.019 237.648 227.157 230.186C238.95 227.59 242.403 220.685 237.514 209.471C234.867 206.149 231.414 204.492 227.157 204.5C227.157 201.186 227.157 197.871 227.157 194.557Z" fill="#D3D5D7"/>
<path fill-rule="evenodd" clip-rule="evenodd" d="M299.243 194.557C305.595 194.557 311.947 194.557 318.3 194.557C316.664 197.028 315.007 199.514 313.328 202.014C313.114 209.648 316.98 212.824 324.928 211.543C327.297 210.139 329.23 208.344 330.728 206.157C331.833 208.919 333.767 210.853 336.528 211.957C336.528 223.004 336.528 234.053 336.528 245.1C335.7 245.1 334.871 245.1 334.043 245.1C332.635 245.233 331.254 245.095 329.9 244.686C322.28 239.91 314.546 235.353 306.7 231.014C304.305 226.137 300.439 223.1 295.1 221.9C294.101 220.917 292.996 220.917 291.786 221.9C291.936 220.167 291.66 218.51 290.957 216.929C292.338 216.376 293.719 215.824 295.1 215.271C295.519 212.876 296.348 210.666 297.586 208.643C296.279 205.477 295.45 202.163 295.1 198.7C296.735 197.618 298.115 196.237 299.243 194.557Z" fill="#D3D4D7"/>
<path fill-rule="evenodd" clip-rule="evenodd" d="M295.1 198.7C295.45 202.163 296.279 205.477 297.586 208.643C296.348 210.666 295.519 212.876 295.1 215.271C293.719 215.824 292.338 216.376 290.957 216.929C291.66 218.51 291.936 220.167 291.786 221.9C287.756 222.164 283.889 221.888 280.186 221.071C280.461 218.31 280.738 215.547 281.014 212.786C281.843 212.786 282.671 212.786 283.5 212.786C283.081 210.017 282.943 207.256 283.086 204.5C283.68 203.712 284.371 203.574 285.157 204.086C285.7 205.318 286.528 206.284 287.643 206.986C288.459 202.585 290.945 199.823 295.1 198.7Z" fill="#F88D76"/>
<path fill-rule="evenodd" clip-rule="evenodd" d="M382.928 202.014C383.204 202.014 383.481 202.014 383.757 202.014C389.281 202.014 394.804 202.014 400.328 202.014C400.342 203.725 400.618 205.382 401.157 206.986C400.646 206.894 400.231 206.618 399.914 206.157C396.868 211.886 392.311 213.405 386.242 210.714C385.289 208.891 383.908 207.649 382.1 206.986C382.638 205.382 382.914 203.725 382.928 202.014Z" fill="#9BB0D0"/>
<path fill-rule="evenodd" clip-rule="evenodd" d="M435.957 201.186C446.029 202.01 456.248 202.287 466.615 202.014C466.615 202.29 466.615 202.567 466.615 202.843C456.119 202.843 445.624 202.843 435.129 202.843C435.129 202.567 435.129 202.29 435.129 202.014C435.129 201.462 435.405 201.186 435.957 201.186Z" fill="#4F82D1"/>
<path fill-rule="evenodd" clip-rule="evenodd" d="M313.329 202.014C319.129 202.014 324.929 202.014 330.729 202.014C330.729 203.396 330.729 204.776 330.729 206.157C329.23 208.344 327.297 210.139 324.929 211.543C316.98 212.824 313.114 209.648 313.329 202.014Z" fill="#9CB1D1"/>
<path fill-rule="evenodd" clip-rule="evenodd" d="M330.729 202.014C336.529 202.014 342.329 202.014 348.129 202.014C348.129 203.119 348.129 204.224 348.129 205.329C346.075 210.453 342.209 212.662 336.529 211.957C333.767 210.853 331.833 208.919 330.729 206.157C330.729 204.776 330.729 203.396 330.729 202.014Z" fill="#0645B1"/>
<path fill-rule="evenodd" clip-rule="evenodd" d="M348.129 202.014C348.405 202.014 348.682 202.014 348.957 202.014C354.482 202.014 360.005 202.014 365.529 202.014C365.529 203.119 365.529 204.224 365.529 205.329C364.694 207.423 363.313 209.219 361.386 210.714C354.919 213.654 350.5 211.859 348.129 205.329C348.129 204.224 348.129 203.119 348.129 202.014Z" fill="#9BB0D0"/>
<path fill-rule="evenodd" clip-rule="evenodd" d="M366.358 201.186C371.726 202.007 377.25 202.283 382.929 202.014C382.915 203.725 382.639 205.382 382.101 206.986C380.439 210.308 377.678 211.965 373.815 211.957C369.324 211.883 366.563 209.674 365.529 205.329C365.529 204.224 365.529 203.119 365.529 202.014C365.529 201.462 365.805 201.186 366.358 201.186Z" fill="#0945B1"/>
<path fill-rule="evenodd" clip-rule="evenodd" d="M400.328 202.014C400.604 202.014 400.881 202.014 401.157 202.014C406.681 202.014 412.204 202.014 417.728 202.014C417.728 203.119 417.728 204.224 417.728 205.329C416.136 209.999 412.821 212.208 407.785 211.957C404.654 211.499 402.444 209.842 401.157 206.986C400.618 205.382 400.342 203.725 400.328 202.014Z" fill="#0644B0"/>
<path fill-rule="evenodd" clip-rule="evenodd" d="M417.729 202.014C418.004 202.014 418.281 202.014 418.557 202.014C424.081 202.014 429.604 202.014 435.129 202.014C435.129 202.29 435.129 202.567 435.129 202.843C434.554 210.601 430.411 213.501 422.7 211.543C420.527 209.795 418.87 207.724 417.729 205.329C417.729 204.224 417.729 203.119 417.729 202.014Z" fill="#9BB0D0"/>
<path fill-rule="evenodd" clip-rule="evenodd" d="M227.156 204.5C231.414 204.492 234.866 206.149 237.514 209.471C242.402 220.685 238.949 227.59 227.156 230.186C225.02 230.274 223.086 229.721 221.356 228.529C216.126 225.018 213.917 220.047 214.728 213.614C217.199 208.367 221.342 205.329 227.156 204.5Z" fill="#0D66FE"/>
<path fill-rule="evenodd" clip-rule="evenodd" d="M435.128 202.843C445.624 202.843 456.118 202.843 466.614 202.843C466.614 206.433 466.614 210.024 466.614 213.614C447.555 213.753 428.498 213.614 409.442 213.2C408.683 212.97 408.131 212.555 407.785 211.957C412.821 212.208 416.135 209.999 417.728 205.329C418.87 207.724 420.527 209.795 422.699 211.543C430.411 213.501 434.554 210.601 435.128 202.843Z" fill="#A1A2A6"/>
<path fill-rule="evenodd" clip-rule="evenodd" d="M232.957 211.129C234.426 211.803 234.84 212.908 234.2 214.443C231.576 217.067 228.952 219.69 226.328 222.314C223.725 222.241 221.654 220.998 220.114 218.586C219.616 217.372 220.03 216.543 221.357 216.1C222.723 217.051 223.966 218.156 225.085 219.414C227.879 216.76 230.503 213.999 232.957 211.129Z" fill="#E3EDFF"/>
<path fill-rule="evenodd" clip-rule="evenodd" d="M280.186 221.071C283.89 221.888 287.757 222.164 291.786 221.9C292.997 220.917 294.102 220.917 295.101 221.9C292.609 223.92 289.709 224.749 286.401 224.386C284.605 224.247 282.811 224.11 281.015 223.971C279.82 223.659 278.992 222.969 278.529 221.9C279.082 221.624 279.634 221.347 280.186 221.071Z" fill="#93A2DA"/>
<path fill-rule="evenodd" clip-rule="evenodd" d="M278.528 221.9C278.99 222.969 279.819 223.659 281.013 223.971C282.809 224.11 284.604 224.247 286.399 224.386C289.708 224.749 292.608 223.92 295.099 221.9C300.438 223.1 304.305 226.137 306.699 231.014C308.24 237.501 308.793 244.13 308.356 250.9C307.252 252.833 307.252 254.767 308.356 256.7C309.516 269.677 310.621 282.658 311.671 295.643C304.191 298.294 296.457 299.675 288.471 299.786C279.776 299.151 271.214 297.77 262.785 295.643C263.653 288.4 264.896 281.219 266.513 274.1C267.18 271.452 267.042 268.966 266.099 266.643C265.777 263.788 265.087 261.026 264.028 258.357C260.551 261.122 257.375 264.16 254.499 267.471C253.705 267.847 253.014 268.399 252.428 269.129C247.042 279.9 241.656 290.671 236.271 301.443C235.892 302.104 235.339 302.38 234.613 302.271C232.404 301.443 230.195 300.614 227.985 299.786C227.585 299.027 227.31 298.198 227.156 297.3C229.347 291.296 231.281 285.219 232.956 279.071C234.662 275.335 236.044 271.468 237.099 267.471C238.3 263.412 239.957 259.546 242.071 255.871C250.867 246.243 259.705 236.577 268.585 226.871C271.247 223.883 274.561 222.226 278.528 221.9Z" fill="#0435CA"/>
<path fill-rule="evenodd" clip-rule="evenodd" d="M221.357 228.529C223.087 229.721 225.02 230.274 227.157 230.186C227.019 237.648 227.157 245.105 227.571 252.557C228.261 253.247 228.952 253.938 229.643 254.629C233.938 254.773 238.081 255.187 242.071 255.871C239.957 259.546 238.3 263.412 237.1 267.471C212.241 267.333 187.384 267.471 162.528 267.886C162.114 268.3 161.7 268.714 161.285 269.129C160.872 272.431 160.734 275.746 160.871 279.071C160.871 286.529 160.871 293.986 160.871 301.443C155.517 296.544 152.064 290.468 150.514 283.214C148.309 262.608 157.009 249.212 176.614 243.029C188.214 242.753 199.814 242.476 211.414 242.2C217.858 239.955 221.172 235.397 221.357 228.529Z" fill="#F0F0F2"/>
<path fill-rule="evenodd" clip-rule="evenodd" d="M306.699 231.014C314.546 235.353 322.28 239.91 329.899 244.686C331.253 245.095 332.634 245.233 334.042 245.1C337.163 246.173 340.478 246.725 343.985 246.757C351.644 247.918 359.24 249.299 366.771 250.9C367.424 253.875 367.286 256.775 366.356 259.6C360.563 260.014 354.763 260.152 348.956 260.014C342.052 260.014 335.147 260.014 328.242 260.014C321.798 257.483 315.446 254.721 309.185 251.729C309.185 251.176 308.909 250.9 308.356 250.9C308.793 244.13 308.24 237.501 306.699 231.014Z" fill="#0527AD"/>
<path fill-rule="evenodd" clip-rule="evenodd" d="M308.358 250.9C308.91 250.9 309.186 251.176 309.186 251.729C308.39 253.191 308.113 254.848 308.358 256.7C307.253 254.767 307.253 252.833 308.358 250.9Z" fill="#748BD6"/>
<path fill-rule="evenodd" clip-rule="evenodd" d="M309.186 251.729C315.447 254.721 321.8 257.483 328.244 260.014C330.553 260.824 333.039 261.1 335.701 260.843C335.701 285.7 335.701 310.557 335.701 335.414C331.834 335.414 327.968 335.414 324.101 335.414C324.101 339.281 324.101 343.147 324.101 347.014C363.865 346.245 403.636 345.969 443.415 346.186C443.415 346.462 443.415 346.738 443.415 347.014C407.786 347.014 372.158 347.014 336.529 347.014C336.391 370.216 336.529 393.416 336.944 416.614C337.859 419.462 339.655 421.533 342.329 422.829C364.53 423.777 386.764 424.192 409.029 424.071C430.022 424.071 450.874 423.795 471.587 423.243C474.076 423.059 476.285 422.23 478.215 420.757C480.895 421.245 481.999 422.902 481.529 425.729C401.158 425.729 320.786 425.729 240.415 425.729C239.931 423.421 240.76 422.04 242.901 421.586C242.993 422.097 243.269 422.511 243.729 422.829C246.768 422.967 249.805 423.104 252.844 423.243C256.212 423.234 259.25 422.681 261.958 421.586C279.104 422.128 295.952 421.576 312.501 419.929C312.777 419.929 313.053 419.929 313.329 419.929C313.188 421.024 313.464 421.991 314.158 422.829C319.427 423.517 324.675 423.379 329.901 422.414C327.35 420.727 324.588 419.347 321.615 418.271C321.615 417.167 321.615 416.062 321.615 414.957C323.227 410.9 323.78 406.482 323.272 401.7C327.415 401.7 331.558 401.7 335.701 401.7C335.701 390.376 335.701 379.053 335.701 367.729C331.558 367.729 327.415 367.729 323.272 367.729C320.569 343.502 316.702 319.473 311.672 295.643C310.622 282.657 309.518 269.677 308.358 256.7C308.113 254.848 308.39 253.191 309.186 251.729Z" fill="#EEEEEF"/>
<path fill-rule="evenodd" clip-rule="evenodd" d="M266.1 266.643C262.396 267.46 258.529 267.736 254.5 267.471C257.376 264.16 260.552 261.122 264.029 258.357C265.087 261.026 265.778 263.788 266.1 266.643Z" fill="#EAEBF0"/>
<path fill-rule="evenodd" clip-rule="evenodd" d="M328.242 260.014C335.147 260.014 342.052 260.014 348.956 260.014C347.494 260.811 345.837 261.087 343.985 260.843C343.985 285.424 343.985 310.004 343.985 334.586C341.499 334.586 339.014 334.586 336.528 334.586C336.802 309.863 336.526 285.282 335.699 260.843C333.037 261.1 330.551 260.824 328.242 260.014Z" fill="#B9BABB"/>
<path fill-rule="evenodd" clip-rule="evenodd" d="M443.414 347.014C443.414 346.738 443.414 346.462 443.414 346.186C443.414 342.595 443.414 339.004 443.414 335.414C436.509 335.414 429.604 335.414 422.699 335.414C429.452 334.591 436.357 334.316 443.414 334.586C443.408 327.914 442.855 321.285 441.756 314.7C441.816 312.993 442.092 311.336 442.585 309.729C441.326 308.025 440.635 306.091 440.514 303.929C440.053 298.68 439.639 293.432 439.271 288.186C436.785 288.186 434.299 288.186 431.814 288.186C433.749 279.22 430.712 272.729 422.699 268.714C419.862 268.095 417.101 268.234 414.414 269.129C410.505 252.982 406.086 236.963 401.156 221.071C393.975 219.967 386.795 219.967 379.614 221.071C382.996 232.257 386.31 243.443 389.556 254.629C387.623 254.904 385.689 255.181 383.756 255.457C386.474 255.504 388.96 256.194 391.214 257.529C389.536 259.343 388.018 261.276 386.656 263.329C386.244 266.077 386.105 268.839 386.242 271.614C390.271 271.35 394.138 271.626 397.842 272.443C390.385 272.443 382.928 272.443 375.471 272.443C374.918 279.071 374.366 279.071 373.814 272.443C370.775 272.443 367.738 272.443 364.699 272.443C362.927 293.482 360.717 314.472 358.071 335.414C350.614 335.414 343.156 335.414 335.699 335.414C335.699 310.557 335.699 285.7 335.699 260.843C336.526 285.282 336.802 309.863 336.528 334.586C339.014 334.586 341.499 334.586 343.985 334.586C343.985 310.004 343.985 285.424 343.985 260.843C345.837 261.087 347.494 260.811 348.956 260.014C354.763 260.152 360.563 260.014 366.356 259.6C367.286 256.775 367.424 253.875 366.771 250.9C359.24 249.299 351.644 247.918 343.985 246.757C343.837 237.9 344.113 229.061 344.814 220.243C356.177 220.335 367.501 219.783 378.785 218.586C378.785 217.757 378.785 216.929 378.785 216.1C389.749 215.585 400.521 216.414 411.099 218.586C411.272 219.071 411.549 219.486 411.928 219.829C430.154 220.243 448.382 220.381 466.614 220.243C467.157 250.393 466.605 280.36 464.956 310.143C466.585 322.231 467.413 334.522 467.442 347.014C459.432 347.014 451.423 347.014 443.414 347.014Z" fill="#CFD0D2"/>
<path fill-rule="evenodd" clip-rule="evenodd" d="M371.328 250.9C377.641 250.779 382.06 253.541 384.585 259.186C384.171 259.462 383.757 259.738 383.343 260.014C381.086 258.727 378.738 257.622 376.3 256.7C376.024 256.838 375.747 256.976 375.471 257.114C376.514 257.879 377.619 258.57 378.785 259.186C375.458 260.238 372.144 260.238 368.843 259.186C368.027 256.76 367.751 254.274 368.014 251.729C369.339 251.951 370.443 251.674 371.328 250.9Z" fill="#FD937C"/>
<path fill-rule="evenodd" clip-rule="evenodd" d="M414.415 269.129C412.604 269.138 411.914 269.966 412.344 271.614C420.116 267.343 425.916 269.277 429.744 277.414C430.157 280.995 430.296 284.585 430.158 288.186C426.015 288.186 421.872 288.186 417.73 288.186C416.937 283.532 416.384 278.837 416.072 274.1C413.587 274.1 411.101 274.1 408.615 274.1C405.855 272.61 402.817 272.058 399.501 272.443C398.948 279.071 398.396 279.071 397.844 272.443C394.14 271.626 390.273 271.35 386.244 271.614C386.107 268.839 386.245 266.077 386.658 263.329C388.019 261.276 389.538 259.343 391.215 257.529C388.962 256.194 386.476 255.504 383.758 255.457C385.691 255.181 387.625 254.904 389.558 254.629C386.312 243.443 382.997 232.257 379.615 221.071C386.796 219.967 393.977 219.967 401.158 221.071C406.088 236.963 410.507 252.982 414.415 269.129Z" fill="#DCDDDF"/>
<path fill-rule="evenodd" clip-rule="evenodd" d="M237.1 267.471C236.045 271.468 234.663 275.335 232.957 279.071C208.929 279.071 184.9 279.071 160.872 279.071C160.734 275.746 160.873 272.431 161.286 269.129C161.7 268.714 162.114 268.3 162.529 267.886C187.384 267.471 212.241 267.333 237.1 267.471Z" fill="#BABCBF"/>
<path fill-rule="evenodd" clip-rule="evenodd" d="M397.844 272.443C398.396 279.071 398.948 279.071 399.501 272.443C402.817 272.058 405.855 272.61 408.615 274.1C410.647 294.591 412.856 315.03 415.244 335.414C396.187 335.414 377.129 335.414 358.072 335.414C360.719 314.472 362.929 293.482 364.701 272.443C367.739 272.443 370.777 272.443 373.815 272.443C374.368 279.071 374.92 279.071 375.472 272.443C382.929 272.443 390.387 272.443 397.844 272.443Z" fill="#0164FE"/>
<path fill-rule="evenodd" clip-rule="evenodd" d="M408.615 274.1C411.101 274.1 413.587 274.1 416.072 274.1C416.384 278.837 416.937 283.532 417.73 288.186C419.384 303.901 420.765 319.644 421.872 335.414C419.663 335.414 417.454 335.414 415.244 335.414C412.856 315.03 410.647 294.591 408.615 274.1Z" fill="#0A4CFE"/>
<path fill-rule="evenodd" clip-rule="evenodd" d="M160.872 279.071C184.9 279.071 208.929 279.071 232.958 279.071C231.282 285.219 229.348 291.296 227.158 297.3C227.311 298.198 227.587 299.027 227.986 299.786C227.148 300.922 226.319 302.027 225.5 303.1C224.002 303.093 222.621 303.507 221.358 304.343C215.109 309.629 208.757 314.739 202.3 319.671C189.04 319.81 175.783 319.671 162.529 319.257C162.115 318.843 161.7 318.429 161.286 318.014C160.872 312.498 160.734 306.974 160.872 301.443C160.872 293.986 160.872 286.529 160.872 279.071Z" fill="#D4D6D8"/>
<path fill-rule="evenodd" clip-rule="evenodd" d="M266.099 266.643C267.042 268.966 267.181 271.452 266.514 274.1C264.896 281.219 263.653 288.399 262.785 295.643C261.58 298.309 261.028 301.209 261.128 304.343C261.474 309.528 262.303 314.638 263.614 319.671C263.597 320.687 263.321 321.516 262.785 322.157C262.785 321.329 262.785 320.5 262.785 319.671C256.157 319.671 249.528 319.671 242.899 319.671C242.624 319.671 242.347 319.671 242.071 319.671C239.572 316.074 236.81 312.759 233.785 309.729C234.984 309.203 235.536 308.236 235.442 306.829C235.075 305.316 234.798 303.798 234.614 302.271C235.34 302.38 235.892 302.104 236.271 301.443C241.657 290.671 247.042 279.9 252.428 269.129C253.015 268.399 253.706 267.847 254.499 267.471C258.529 267.736 262.396 267.46 266.099 266.643Z" fill="#D0D1D4"/>
<path fill-rule="evenodd" clip-rule="evenodd" d="M422.7 335.414C422.424 335.414 422.147 335.414 421.871 335.414C420.763 319.644 419.383 303.901 417.728 288.186C421.871 288.186 426.014 288.186 430.157 288.186C430.294 284.585 430.156 280.995 429.743 277.414C425.915 269.277 420.115 267.343 412.343 271.614C411.913 269.966 412.603 269.138 414.414 269.129C417.101 268.234 419.863 268.095 422.7 268.714C430.712 272.729 433.75 279.22 431.814 288.186C434.3 288.186 436.785 288.186 439.271 288.186C439.639 293.432 440.053 298.68 440.514 303.929C440.636 306.091 441.327 308.025 442.585 309.729C442.092 311.336 441.816 312.993 441.757 314.7C442.856 321.285 443.408 327.914 443.414 334.586C436.357 334.316 429.453 334.592 422.7 335.414Z" fill="#C2C3C6"/>
<path fill-rule="evenodd" clip-rule="evenodd" d="M262.786 295.643C271.215 297.77 279.778 299.151 288.472 299.786C296.458 299.675 304.192 298.294 311.672 295.643C316.702 319.473 320.569 343.502 323.272 367.729C323.272 379.053 323.272 390.376 323.272 401.7C323.78 406.482 323.227 410.9 321.615 414.957C318.576 414.957 315.539 414.957 312.5 414.957C311.672 414.957 310.843 414.957 310.015 414.957C308.401 399.175 306.467 383.432 304.215 367.729C300.305 351.818 295.748 336.075 290.543 320.5C286.84 336.082 283.664 351.825 281.015 367.729C272.956 383.016 265.085 398.482 257.4 414.129C256.563 414.822 255.596 415.098 254.5 414.957C251.186 414.957 247.872 414.957 244.558 414.957C243.731 414.982 243.179 414.568 242.9 413.714C248.631 396.936 254.431 380.226 260.3 363.586C262.508 361.294 264.855 359.084 267.343 356.957C267.896 354.747 267.896 352.538 267.343 350.329C265.685 347.983 263.891 345.774 261.958 343.7C262.155 336.515 262.431 329.334 262.786 322.157C263.322 321.516 263.598 320.687 263.615 319.671C262.304 314.638 261.475 309.528 261.129 304.343C261.029 301.209 261.581 298.309 262.786 295.643Z" fill="#040404"/>
<path fill-rule="evenodd" clip-rule="evenodd" d="M227.985 299.786C230.195 300.614 232.404 301.443 234.614 302.271C234.798 303.798 235.075 305.316 235.442 306.829C235.536 308.236 234.984 309.203 233.785 309.729C233.785 309.176 233.509 308.9 232.956 308.9C232.293 307 231.74 307.276 231.299 309.729C230.748 311.277 230.197 312.934 229.642 314.7C228.618 315.318 227.513 315.594 226.328 315.529C224.465 311.528 224.189 307.385 225.499 303.1C226.318 302.027 227.147 300.923 227.985 299.786Z" fill="#FC907A"/>
<path fill-rule="evenodd" clip-rule="evenodd" d="M225.499 303.1C224.188 307.385 224.465 311.528 226.328 315.529C225.456 315.405 224.628 315.543 223.842 315.943C199.225 336.418 174.368 356.581 149.271 376.429C147.718 377.84 146.337 379.359 145.128 380.986C141.09 378.053 139.986 374.186 141.813 369.386C162.012 352.77 182.174 336.199 202.299 319.671C208.755 314.739 215.108 309.629 221.356 304.343C222.62 303.507 224.001 303.092 225.499 303.1Z" fill="#99C0FE"/>
<path fill-rule="evenodd" clip-rule="evenodd" d="M232.958 308.9C232.405 309.176 231.853 309.453 231.301 309.729C231.742 307.276 232.294 307 232.958 308.9Z" fill="#AABCEC"/>
<path fill-rule="evenodd" clip-rule="evenodd" d="M232.957 308.9C233.51 308.9 233.786 309.176 233.786 309.729C236.811 312.76 239.573 316.074 242.072 319.671C213.097 343.279 184.097 366.893 155.072 390.514C154.286 390.915 153.458 391.052 152.586 390.929C150.1 387.614 147.615 384.3 145.129 380.986C146.339 379.359 147.72 377.84 149.272 376.429C174.369 356.581 199.226 336.419 223.843 315.943C224.629 315.543 225.457 315.405 226.329 315.529C227.514 315.594 228.619 315.318 229.643 314.7C230.198 312.934 230.749 311.277 231.3 309.729C231.853 309.453 232.405 309.176 232.957 308.9Z" fill="#0537CB"/>
<path fill-rule="evenodd" clip-rule="evenodd" d="M242.9 319.671C249.529 319.671 256.158 319.671 262.786 319.671C262.786 320.5 262.786 321.329 262.786 322.157C262.431 329.334 262.155 336.515 261.958 343.7C255.315 335.95 248.963 327.94 242.9 319.671Z" fill="#EBECED"/>
<path fill-rule="evenodd" clip-rule="evenodd" d="M242.072 319.671C242.348 319.671 242.624 319.671 242.9 319.671C248.963 327.94 255.315 335.95 261.957 343.7C263.89 345.774 265.685 347.983 267.343 350.329C267.896 352.538 267.896 354.747 267.343 356.957C264.855 359.084 262.508 361.294 260.3 363.586C236.563 382.623 212.811 401.68 189.043 420.757C185.411 424.745 181.544 425.022 177.443 421.586C169.347 411.182 161.061 400.963 152.586 390.929C153.458 391.052 154.286 390.914 155.072 390.514C184.097 366.893 213.097 343.279 242.072 319.671Z" fill="#9AC1FE"/>
<path fill-rule="evenodd" clip-rule="evenodd" d="M304.214 367.729C296.481 367.729 288.747 367.729 281.014 367.729C283.663 351.825 286.839 336.082 290.542 320.5C295.747 336.075 300.304 351.818 304.214 367.729Z" fill="#E9E9E9"/>
<path fill-rule="evenodd" clip-rule="evenodd" d="M239.585 327.129C241.329 326.881 242.986 327.157 244.557 327.957C245.369 329.184 246.336 330.29 247.457 331.271C248.01 332.653 248.01 334.033 247.457 335.414C239.357 341.608 231.485 348.098 223.843 354.886C222.461 355.438 221.081 355.438 219.7 354.886C218.77 353.126 217.527 351.607 215.971 350.329C215.418 349.224 215.418 348.119 215.971 347.014C224.244 340.809 232.115 334.181 239.585 327.129Z" fill="#D3EDFF"/>
<path fill-rule="evenodd" clip-rule="evenodd" d="M335.7 335.414C343.157 335.414 350.614 335.414 358.071 335.414C377.128 335.414 396.185 335.414 415.242 335.414C417.452 335.414 419.661 335.414 421.871 335.414C422.147 335.414 422.424 335.414 422.7 335.414C429.604 335.414 436.509 335.414 443.414 335.414C443.414 339.005 443.414 342.596 443.414 346.186C403.635 345.969 363.864 346.245 324.1 347.014C324.1 343.147 324.1 339.281 324.1 335.414C327.967 335.414 331.833 335.414 335.7 335.414Z" fill="#FEFEFE"/>
<path fill-rule="evenodd" clip-rule="evenodd" d="M224.671 347.014C224.494 345.652 224.771 344.409 225.5 343.286C226.286 342.774 226.976 342.912 227.571 343.7C228.416 342.547 229.106 341.305 229.643 339.971C230.74 340.094 231.707 339.957 232.543 339.557C232.42 340.655 232.557 341.622 232.957 342.457C231.913 343.379 230.946 343.518 230.057 342.871C228.6 343.674 228.186 344.641 228.814 345.771C227.439 346.819 226.057 347.233 224.671 347.014Z" fill="#7CBCFF"/>
<path fill-rule="evenodd" clip-rule="evenodd" d="M224.672 347.014C224.116 348.13 224.116 349.097 224.672 349.914C223.407 351.048 222.164 351.462 220.944 351.157C220.391 350.053 220.391 348.947 220.944 347.843C222.24 347.501 223.483 347.226 224.672 347.014Z" fill="#7BBCFF"/>
<path fill-rule="evenodd" clip-rule="evenodd" d="M208.929 351.986C210.067 351.856 211.172 351.994 212.244 352.4C213.173 354.16 214.416 355.679 215.972 356.957C216.525 358.338 216.525 359.719 215.972 361.1C201.749 372.562 187.525 384.024 173.301 395.486C169.948 395.754 167.601 394.235 166.258 390.929C165.706 389.824 165.706 388.719 166.258 387.614C180.77 376.018 194.994 364.143 208.929 351.986Z" fill="#D2ECFF"/>
<path fill-rule="evenodd" clip-rule="evenodd" d="M466.614 358.614C425.684 357.985 384.808 358.261 343.986 359.443C343.867 357.983 344.144 356.602 344.814 355.3C372.725 354.832 400.62 354.003 428.5 352.814C441.189 353.734 453.895 354.286 466.614 354.471C466.614 355.853 466.614 357.233 466.614 358.614Z" fill="#C8C8CA"/>
<path fill-rule="evenodd" clip-rule="evenodd" d="M466.614 358.614C466.614 375.186 466.614 391.757 466.614 408.329C426.013 408.467 385.413 408.329 344.814 407.914C343.991 391.82 343.715 375.663 343.985 359.443C384.807 358.261 425.683 357.985 466.614 358.614Z" fill="#D6D6D6"/>
<path fill-rule="evenodd" clip-rule="evenodd" d="M323.271 367.729C327.414 367.729 331.557 367.729 335.7 367.729C335.7 379.053 335.7 390.376 335.7 401.7C331.557 401.7 327.414 401.7 323.271 401.7C323.271 390.376 323.271 379.053 323.271 367.729Z" fill="#FEFEFE"/>
<path fill-rule="evenodd" clip-rule="evenodd" d="M201.471 362.757C202.587 363.313 203.553 363.313 204.371 362.757C204.248 363.855 204.386 364.822 204.785 365.657C203.741 366.579 202.774 366.718 201.885 366.071C200.428 366.874 200.014 367.841 200.642 368.971C199.598 369.894 198.631 370.032 197.742 369.386C196.285 370.189 195.871 371.155 196.499 372.286C195.455 373.208 194.488 373.346 193.599 372.7C192.142 373.503 191.728 374.47 192.356 375.6C191.312 376.522 190.345 376.661 189.456 376.014C187.999 376.817 187.585 377.784 188.213 378.914C187.169 379.836 186.202 379.975 185.313 379.329C183.857 380.131 183.442 381.098 184.071 382.229C182.805 383.362 181.562 383.776 180.342 383.471C179.745 382.136 179.883 380.893 180.756 379.743C181.543 379.232 182.233 379.369 182.828 380.157C183.673 379.005 184.363 377.762 184.899 376.429C185.686 375.917 186.376 376.055 186.971 376.843C187.716 375.27 188.683 373.89 189.871 372.7C190.356 372.873 190.77 373.15 191.113 373.529C191.959 372.376 192.649 371.133 193.185 369.8C194.283 369.923 195.249 369.785 196.085 369.386C196.176 366.779 197.28 365.95 199.399 366.9C200.327 365.632 201.018 364.251 201.471 362.757Z" fill="#78BAFF"/>
<path fill-rule="evenodd" clip-rule="evenodd" d="M175.786 383.471C176.902 384.027 177.869 384.027 178.686 383.471C178.563 384.569 178.701 385.536 179.1 386.371C178.056 387.294 177.089 387.432 176.2 386.786C174.743 387.589 174.329 388.556 174.957 389.686C173.692 390.819 172.449 391.233 171.229 390.929C170.676 389.824 170.676 388.719 171.229 387.614C172.057 386.51 172.886 386.51 173.714 387.614C174.643 386.347 175.333 384.965 175.786 383.471Z" fill="#7CBCFF"/>
<path fill-rule="evenodd" clip-rule="evenodd" d="M281.015 367.729C288.748 367.729 296.482 367.729 304.215 367.729C306.467 383.432 308.401 399.175 310.015 414.957C310.844 414.957 311.672 414.957 312.501 414.957C312.501 416.614 312.501 418.271 312.501 419.929C295.952 421.576 279.104 422.128 261.958 421.586C258.864 420.606 255.827 419.501 252.844 418.271C253.396 417.167 253.948 416.062 254.501 414.957C255.596 415.098 256.563 414.822 257.401 414.129C265.085 398.482 272.956 383.016 281.015 367.729Z" fill="#FCFCFC"/>
<path fill-rule="evenodd" clip-rule="evenodd" d="M244.557 414.957C247.871 414.957 251.185 414.957 254.499 414.957C253.947 416.062 253.395 417.167 252.842 418.271C250.053 419.305 247.29 419.305 244.557 418.271C244.557 417.167 244.557 416.062 244.557 414.957Z" fill="#DF826D"/>
<path fill-rule="evenodd" clip-rule="evenodd" d="M312.5 414.957C315.538 414.957 318.576 414.957 321.614 414.957C321.614 416.062 321.614 417.167 321.614 418.271C319.017 419.533 316.255 420.086 313.329 419.929C313.053 419.929 312.776 419.929 312.5 419.929C312.5 418.271 312.5 416.614 312.5 414.957Z" fill="#EA8670"/>
<path fill-rule="evenodd" clip-rule="evenodd" d="M244.558 418.271C247.291 419.305 250.053 419.305 252.843 418.271C255.826 419.501 258.864 420.606 261.958 421.586C259.25 422.681 256.211 423.234 252.843 423.243C249.805 423.105 246.767 422.967 243.729 422.829C243.268 422.511 242.992 422.097 242.9 421.586C243.033 420.216 243.585 419.112 244.558 418.271Z" fill="#4C4B4B"/>
<path fill-rule="evenodd" clip-rule="evenodd" d="M321.614 418.271C324.587 419.347 327.349 420.727 329.9 422.414C324.674 423.379 319.426 423.517 314.157 422.829C313.464 421.991 313.188 421.024 313.329 419.929C316.255 420.086 319.017 419.533 321.614 418.271Z" fill="#4F4D4C"/>
<path fill-rule="evenodd" clip-rule="evenodd" d="M189.043 420.757C201.329 421.446 213.758 421.86 226.329 422C227.366 423.515 227.366 425.033 226.329 426.557C203.681 426.557 181.034 426.557 158.386 426.557C157.528 424.99 157.528 423.471 158.386 422C164.732 421.586 171.085 421.448 177.443 421.586C181.544 425.022 185.411 424.745 189.043 420.757Z" fill="#E4E5E6"/>
</g>
<defs>
<linearGradient id="paint0_linear_675_192" x1="312.5" y1="0" x2="312.5" y2="500" gradientUnits="userSpaceOnUse">
<stop stop-color="#0160E7"/>
<stop offset="1" stop-color="#013681"/>
</linearGradient>
<clipPath id="clip0_675_192">
<rect width="377" height="352.971" fill="white" transform="translate(124 74)"/>
</clipPath>
</defs>
</svg>
