<svg width="625" height="500" viewBox="0 0 625 500" fill="none" xmlns="http://www.w3.org/2000/svg">
<path opacity="0.1" d="M3.87593 224.102C-14.9808 149.977 39.5345 115.057 69.1492 106.863C93.3239 101.19 164.519 81.1455 255.901 46.3518C347.284 11.5581 428.15 4.12028 457.161 4.7506C650.079 -34.5814 637.871 179.98 607.652 292.177C546.73 529.682 321.175 515.941 216.012 479.382C68.0596 453.665 12.9411 298.48 3.87593 224.102Z" fill="url(#paint0_linear_619_2811)"/>
<g clip-path="url(#clip0_619_2811)">
<path d="M230.555 133.219L229.089 134.49C227.037 136.251 224.692 137.424 222.151 138.011C216.287 139.478 209.837 137.62 205.635 132.73L189.217 113.755C183.256 106.811 184.037 96.2478 190.878 90.2815L192.344 89.0101C199.283 83.0438 209.837 83.8263 215.799 90.6728L232.217 109.647C238.276 116.689 237.494 127.252 230.555 133.219Z" fill="#232B54"/>
<path opacity="0.3" d="M222.249 138.011C216.385 139.478 209.935 137.62 205.733 132.73L189.315 113.755C183.353 106.811 184.135 96.2478 190.976 90.2816L192.442 89.0101C192.442 89.0101 188.728 105.539 215.701 129.111C219.121 132.241 221.271 135.175 222.249 138.011Z" fill="black"/>
<path d="M241.598 145.249L240.523 146.129C235.441 150.531 234.855 158.355 239.252 163.441L251.371 177.427C255.768 182.513 263.586 183.1 268.668 178.699L269.743 177.819C274.825 173.417 275.411 165.593 271.014 160.507L258.896 146.52C254.4 141.434 246.68 140.848 241.598 145.249Z" fill="#FEC442"/>
<path d="M300.918 126.568L260.655 161.485L253.423 167.744L235.539 183.296L213.16 202.661L202.507 146.325C200.651 136.446 204.169 126.274 211.791 119.624L216.287 115.711L219.023 113.364C226.646 106.713 237.2 104.757 246.778 107.985L300.918 126.568Z" fill="#3D5BB2"/>
<path opacity="0.3" d="M234.66 181.829L212.574 200.901L202.117 145.347C200.26 135.566 203.779 125.59 211.304 119.037L215.701 115.222C215.701 115.222 208.176 126.568 212.574 139.283C215.897 148.574 228.308 170.777 234.66 181.829Z" fill="black"/>
<path d="M189.999 118.352L196.351 126.274L81.5219 217.528L145.044 376.758L135.663 380.474L69.3061 214.203L189.999 118.352ZM190.585 112.973L187.556 115.32L66.9606 211.269L64.7129 213.029L65.7879 215.67L132.144 381.844L133.513 385.365L137.031 383.995L146.413 380.279L149.931 378.909L148.562 375.388L86.1151 218.702L198.599 129.209L201.628 126.861L199.283 123.829L192.93 115.907L190.585 112.973Z" fill="#7A90F5"/>
<path d="M97.3544 216.746C97.3544 226.82 89.2431 234.938 79.1772 234.938C69.1113 234.938 61 226.722 61 216.746C61 206.672 69.1113 198.554 79.1772 198.554C89.2431 198.554 97.3544 206.672 97.3544 216.746Z" fill="#3D5BB2"/>
<path d="M87.778 216.746C87.778 221.44 83.9667 225.353 79.1781 225.353C74.4872 225.353 70.5781 221.538 70.5781 216.746C70.5781 212.051 74.3895 208.139 79.1781 208.139C83.869 208.139 87.778 211.953 87.778 216.746Z" fill="#7A90F5"/>
<path d="M203.095 129.111C203.095 139.185 194.983 147.303 184.917 147.303C174.852 147.303 166.74 139.185 166.74 129.111C166.74 119.037 174.852 110.919 184.917 110.919C194.886 110.919 203.095 119.135 203.095 129.111Z" fill="#3D5BB2"/>
<path d="M193.421 129.111C193.421 133.806 189.609 137.718 184.821 137.718C180.13 137.718 176.221 133.903 176.221 129.111C176.221 124.416 180.032 120.504 184.821 120.504C189.609 120.602 193.421 124.416 193.421 129.111Z" fill="#7A90F5"/>
<path d="M151.593 357.098H114.066C105.271 357.098 98.1367 364.238 98.1367 373.041V380.474H167.523V373.041C167.523 364.238 160.389 357.098 151.593 357.098Z" fill="#3D5BB2"/>
<path d="M151.007 359.544C151.007 369.618 142.895 377.736 132.83 377.736C122.764 377.736 114.652 369.618 114.652 359.544C114.652 349.47 122.764 341.352 132.83 341.352C142.895 341.352 151.007 349.567 151.007 359.544Z" fill="#3D5BB2"/>
<path d="M141.43 359.544C141.43 364.238 137.619 368.151 132.83 368.151C128.14 368.151 124.23 364.336 124.23 359.544C124.23 354.849 128.042 350.937 132.83 350.937C137.521 351.034 141.43 354.849 141.43 359.544Z" fill="#7A90F5"/>
<path d="M195.569 372.552H69.9902V385.462H195.569V372.552Z" fill="#3D5BB2"/>
<path d="M444.97 213.322H186.678C183.843 213.322 181.596 215.572 181.596 218.408V380.572H449.954V218.311C449.954 215.572 447.706 213.322 444.97 213.322Z" fill="#232B54"/>
<path d="M358.383 375.29H273.263C272.286 375.29 271.504 374.508 271.504 373.53C271.504 372.552 272.286 371.769 273.263 371.769H358.383C359.36 371.769 360.142 372.552 360.142 373.53C360.142 374.508 359.36 375.29 358.383 375.29Z" fill="white"/>
<path d="M442.429 216.746H189.121C187.46 216.746 186.189 218.115 186.189 219.68V364.238C186.189 365.901 187.558 367.172 189.121 367.172H442.429C444.091 367.172 445.361 365.803 445.361 364.238V219.68C445.361 218.115 444.091 216.746 442.429 216.746Z" fill="white"/>
<path d="M440.279 219.191H191.369C189.903 219.191 188.828 220.365 188.828 221.734V362.38C188.828 363.847 190.001 364.923 191.369 364.923H440.279C441.745 364.923 442.82 363.749 442.82 362.38V221.832C442.82 220.365 441.647 219.191 440.279 219.191Z" fill="#7A90F5"/>
<path d="M394.152 245.403V336.363C394.152 340.765 390.634 344.286 386.236 344.286H245.51C241.112 344.286 237.594 340.765 237.594 336.363V245.403C237.594 241.002 241.112 237.481 245.51 237.481H386.236C390.536 237.481 394.152 241.002 394.152 245.403Z" fill="#F9E2B9"/>
<path d="M394.152 245.403V252.445H237.496V245.403C237.496 241.002 241.014 237.481 245.412 237.481H386.139C390.536 237.481 394.152 241.002 394.152 245.403Z" fill="#FC7C61"/>
<path d="M249.32 245.012C249.32 246.479 248.148 247.75 246.584 247.75C245.118 247.75 243.848 246.577 243.848 245.012C243.848 243.447 245.02 242.273 246.584 242.273C248.05 242.273 249.32 243.447 249.32 245.012Z" fill="white"/>
<path d="M259.68 245.012C259.68 246.479 258.507 247.75 256.943 247.75C255.477 247.75 254.207 246.577 254.207 245.012C254.207 243.447 255.38 242.273 256.943 242.273C258.507 242.273 259.68 243.447 259.68 245.012Z" fill="white"/>
<path d="M270.039 245.012C270.039 246.479 268.866 247.75 267.303 247.75C265.739 247.75 264.566 246.577 264.566 245.012C264.566 243.447 265.739 242.273 267.303 242.273C268.866 242.273 270.039 243.447 270.039 245.012Z" fill="white"/>
<path d="M348.612 278.56C346.462 275.43 341.967 275.332 339.621 278.364L308.251 318.66L280.888 294.893C278.444 292.742 274.633 293.133 272.776 295.774L244.533 333.918H387.214L348.612 278.56Z" fill="#3D5BB2"/>
<path d="M310.108 300.566C316.585 300.566 321.835 295.311 321.835 288.829C321.835 282.347 316.585 277.092 310.108 277.092C303.631 277.092 298.381 282.347 298.381 288.829C298.381 295.311 303.631 300.566 310.108 300.566Z" fill="#FEC442"/>
<g opacity="0.1">
<path d="M366.202 365.021H317.045L221.762 219.191H270.918L366.202 365.021Z" fill="white"/>
<path d="M408.323 365.021H383.696L288.412 219.191H312.942L408.323 365.021Z" fill="white"/>
</g>
<path d="M460.019 395.439H173.386C169.086 395.439 165.666 391.918 165.666 387.712V380.572H467.74V387.712C467.74 391.918 464.221 395.439 460.019 395.439Z" fill="#232B54"/>
<path opacity="0.5" d="M460.019 395.439H173.386C169.086 395.439 165.666 391.918 165.666 387.712V380.572H467.74V387.712C467.74 391.918 464.221 395.439 460.019 395.439Z" fill="white"/>
<path d="M155.013 395.439H66.375L68.9159 280.614H152.472L155.013 395.439Z" fill="#FC7C61"/>
<path d="M118.268 389.766H150.42V357.587L118.268 389.766Z" fill="#B7C3F3"/>
<path d="M147.88 286.286L150.323 357.979C150.323 358.566 150.225 359.055 150.225 359.544C147.88 383.408 121.102 389.766 121.102 389.766H71.1641L73.705 286.286H147.88Z" fill="white"/>
<path opacity="0.3" d="M150.42 357.979C150.42 357.979 150.322 359.055 150.322 359.544C147.976 383.408 121.199 389.766 121.199 389.766C126.476 384.68 124.913 374.117 124.913 374.117C150.517 378.225 149.931 360.228 150.224 352.012C150.224 350.741 150.126 349.763 150.126 349.372C150.322 352.404 150.42 357.979 150.42 357.979Z" fill="#B7C3F3"/>
<path d="M86.9945 290.492C86.9945 292.155 85.724 293.426 84.0627 293.426C82.4013 293.426 81.1309 292.155 81.1309 290.492C81.1309 288.829 82.4013 287.558 84.0627 287.558C85.6263 287.558 86.9945 288.927 86.9945 290.492Z" fill="#B7C3F3"/>
<path d="M83.9643 274.745C82.8893 274.745 82.0098 275.723 82.0098 276.897V289.612C82.0098 290.785 82.8893 291.763 83.9643 291.763C85.0393 291.763 85.9188 290.785 85.9188 289.612V276.897C85.9188 275.723 85.0393 274.745 83.9643 274.745Z" fill="#232B54"/>
<path d="M100.383 290.492C100.383 292.155 99.1127 293.426 97.4513 293.426C95.79 293.426 94.5195 292.155 94.5195 290.492C94.5195 288.829 95.79 287.558 97.4513 287.558C99.015 287.558 100.383 288.927 100.383 290.492Z" fill="#B7C3F3"/>
<path d="M97.353 274.745C96.278 274.745 95.3984 275.723 95.3984 276.897V289.612C95.3984 290.785 96.278 291.763 97.353 291.763C98.428 291.763 99.3075 290.785 99.3075 289.612V276.897C99.3075 275.723 98.428 274.745 97.353 274.745Z" fill="#232B54"/>
<path d="M113.772 290.492C113.772 292.155 112.501 293.426 110.84 293.426C109.179 293.426 107.908 292.155 107.908 290.492C107.908 288.829 109.179 287.558 110.84 287.558C112.404 287.558 113.772 288.927 113.772 290.492Z" fill="#B7C3F3"/>
<path d="M110.839 274.745C109.764 274.745 108.885 275.723 108.885 276.897V289.612C108.885 290.785 109.764 291.763 110.839 291.763C111.914 291.763 112.794 290.785 112.794 289.612V276.897C112.696 275.723 111.817 274.745 110.839 274.745Z" fill="#232B54"/>
<path d="M127.16 290.492C127.16 292.155 125.89 293.426 124.229 293.426C122.567 293.426 121.297 292.155 121.297 290.492C121.297 288.829 122.567 287.558 124.229 287.558C125.792 287.558 127.16 288.927 127.16 290.492Z" fill="#B7C3F3"/>
<path d="M124.228 274.745C123.153 274.745 122.273 275.723 122.273 276.897V289.612C122.273 290.785 123.153 291.763 124.228 291.763C125.303 291.763 126.183 290.785 126.183 289.612V276.897C126.085 275.723 125.205 274.745 124.228 274.745Z" fill="#232B54"/>
<path d="M140.549 290.492C140.549 292.155 139.279 293.426 137.617 293.426C135.956 293.426 134.686 292.155 134.686 290.492C134.686 288.829 135.956 287.558 137.617 287.558C139.279 287.558 140.549 288.927 140.549 290.492Z" fill="#B7C3F3"/>
<path d="M137.617 274.745C136.542 274.745 135.662 275.723 135.662 276.897V289.612C135.662 290.785 136.542 291.763 137.617 291.763C138.692 291.763 139.571 290.785 139.571 289.612V276.897C139.473 275.723 138.692 274.745 137.617 274.745Z" fill="#232B54"/>
<path d="M106.931 299.197C104 301.153 101.068 303.207 98.3314 305.359C95.5951 307.51 92.8587 309.76 90.5133 312.205C89.3406 313.477 88.2656 314.748 87.6792 316.117C87.2883 316.802 87.1906 317.487 87.0929 317.976C87.0929 318.367 87.0929 318.269 87.0929 318.269C87.0929 318.269 87.1906 318.367 87.386 318.465C87.8747 318.66 88.6565 318.758 89.4383 318.758C90.2201 318.758 91.0997 318.758 91.8815 318.758C93.5428 318.66 95.3019 318.465 97.061 318.269C104 317.389 111.036 316.215 118.17 315.335C119.929 315.139 121.688 314.944 123.545 314.846C124.425 314.846 125.402 314.846 126.281 314.944C127.161 315.139 128.236 315.237 129.115 316.117C129.311 316.313 129.506 316.606 129.604 316.998C129.604 317.193 129.604 317.291 129.604 317.487L129.506 317.976C129.311 318.563 129.115 318.954 128.822 319.345C128.236 320.127 127.552 320.812 126.965 321.399C125.597 322.67 124.229 323.746 122.763 324.822C117.095 329.223 111.036 333.038 105.075 336.852C99.211 340.765 93.2496 344.579 87.8747 348.883C86.5065 349.958 85.236 351.034 84.0633 352.306C82.9883 353.48 81.9133 354.751 81.4247 355.925C81.2292 356.414 81.1315 357.196 81.2292 357.392V357.49C81.2292 357.49 81.2292 357.49 81.2292 357.587C81.2292 357.685 81.327 357.685 81.327 357.783C81.4247 357.881 81.5224 357.881 81.5224 357.979L81.9133 358.174C83.0861 358.663 84.9429 358.761 86.6042 358.761C90.0247 358.859 93.6406 358.663 97.2564 358.957C99.0155 359.152 100.872 359.446 102.631 359.935C104.391 360.424 106.052 361.206 107.518 362.38C107.615 362.478 107.615 362.576 107.518 362.673C107.42 362.771 107.322 362.771 107.322 362.673C104.195 361.011 100.677 360.815 97.2564 360.815C93.7383 360.913 90.3178 361.402 86.7019 361.598C85.8224 361.695 84.8451 361.695 83.8679 361.598C82.8906 361.598 81.9133 361.5 80.8383 361.108C80.5452 361.011 80.252 360.913 79.9588 360.717C79.6656 360.522 79.3724 360.424 79.0793 360.13C78.4929 359.641 78.0043 358.957 77.8088 358.272C77.5156 357.587 77.5156 356.903 77.5156 356.316C77.5156 355.729 77.6134 355.142 77.8088 354.555C78.4929 352.306 79.7633 350.839 81.0338 349.372C82.3042 348.002 83.6724 346.731 85.0406 345.557C90.7087 340.96 96.8655 337.244 102.925 333.527C105.954 331.669 109.081 329.908 112.111 328.148C115.14 326.387 118.268 324.724 121.297 322.768C122.763 321.79 124.229 320.91 125.597 319.834C126.281 319.247 126.868 318.758 127.454 318.074C127.649 317.78 127.943 317.487 128.04 317.193C128.138 316.9 128.138 316.802 127.943 316.606C127.552 316.117 126.672 315.922 125.89 315.726C125.109 315.628 124.229 315.531 123.35 315.628C121.59 315.628 119.831 315.922 118.17 316.215C111.231 317.389 104.488 319.638 97.3542 321.106C95.5951 321.399 93.836 321.79 91.9792 321.888C91.0019 321.986 90.1224 321.986 89.1451 321.986C88.1679 321.888 87.0929 321.79 85.9201 321.301C85.3338 321.008 84.6497 320.616 84.1611 319.834C83.6724 319.149 83.5747 318.074 83.6724 317.584C83.7701 316.411 84.1611 315.335 84.6497 314.455C85.627 312.596 86.9951 311.227 88.2656 309.956C91.0019 307.413 93.9337 305.359 97.061 303.5C100.188 301.642 103.316 299.979 106.638 298.708C106.736 298.708 106.834 298.708 106.931 298.806C107.029 299.001 107.029 299.099 106.931 299.197Z" fill="#232B54"/>
<path d="M126.965 332.745L133.122 339.102L118.658 356.218L110.743 360.815L107.615 362.576L107.518 362.673L108.886 358.859L112.111 350.252L126.965 332.745Z" fill="#FFC0C4"/>
<path d="M110.84 360.717C109.961 360.228 109.277 359.641 108.886 358.859L107.42 362.673L107.518 362.576L110.84 360.717Z" fill="#232B54"/>
<path opacity="0.2" d="M110.254 360.326L116.606 354.262C119.343 352.795 120.32 353.186 118.658 356.316L110.645 360.913L107.518 362.673L110.254 360.326Z" fill="black"/>
<path d="M167.913 298.219L160.095 307.413L135.468 336.461L118.659 356.218C118.659 356.218 118.659 356.12 118.757 356.12C119.538 354.555 117.877 353.48 116.216 354.555L116.313 354.458C116.411 354.36 116.509 354.262 116.509 354.164C116.997 352.697 115.825 351.426 114.457 352.11H114.359L114.261 352.208C114.261 352.208 114.261 352.11 114.359 352.11C114.359 352.012 114.359 352.012 114.457 351.915C114.457 351.915 114.457 351.915 114.457 351.817V351.719V351.621V351.523V351.426C114.457 351.328 114.457 351.328 114.457 351.23C114.457 351.132 114.457 351.034 114.457 350.937C114.457 350.839 114.457 350.839 114.457 350.741C114.457 350.643 114.457 350.643 114.359 350.545V350.448C114.359 350.448 114.359 350.448 114.359 350.35C114.261 350.252 114.163 350.154 114.066 350.056C113.968 349.959 113.968 349.959 113.87 349.959C113.772 349.959 113.675 349.861 113.479 349.861C113.382 349.861 113.284 349.861 113.186 349.861C113.088 349.861 112.991 349.861 112.991 349.861C112.893 349.861 112.795 349.959 112.697 349.959C112.6 349.959 112.502 350.056 112.404 350.154L123.252 337.439L127.357 332.647L161.463 292.35L167.913 298.219Z" fill="#232B54"/>
<path opacity="0.2" d="M167.912 298.219L164.785 301.935L160.094 307.413L135.369 336.461L133.415 338.809L124.522 349.274L120.222 354.36L118.658 356.218C118.658 356.218 118.658 356.12 118.756 356.12C119.538 354.555 117.876 353.48 116.215 354.555L116.313 354.458L116.41 354.36C116.41 354.36 116.41 354.36 116.508 354.262C116.508 354.262 116.508 354.262 116.606 354.164C116.606 354.164 116.606 354.164 116.703 354.066C117.388 353.284 119.342 351.034 122.665 347.024C124.228 345.166 127.258 341.547 131.167 336.95C131.363 336.755 131.558 336.461 131.753 336.266L138.203 328.734C138.79 328.148 139.278 327.463 139.865 326.778C140.451 326.094 140.94 325.507 141.526 324.822L142.406 323.844C142.601 323.648 142.797 323.355 142.992 323.062L147.39 317.878C147.878 317.291 148.367 316.704 148.856 316.117C150.517 314.161 152.276 312.107 153.937 310.053L154.817 309.075C155.403 308.391 155.99 307.706 156.576 307.021C157.162 306.337 157.651 305.75 158.237 305.065C159.801 303.207 161.365 301.349 162.928 299.588L165.86 296.165L167.912 298.219Z" fill="black"/>
<path d="M172.603 292.742L168.987 296.947L162.244 291.177L165.86 286.971C167.424 285.113 170.258 284.917 172.115 286.482C173.092 287.264 173.58 288.34 173.678 289.514C173.678 289.71 173.678 289.807 173.678 290.003C173.58 290.981 173.19 291.861 172.603 292.742Z" fill="#FC7C61"/>
<path opacity="0.5" d="M172.603 292.742L168.987 296.947L162.244 291.177L165.274 287.558C169.378 292.448 172.212 291.274 173.58 289.905C173.58 290.981 173.19 291.861 172.603 292.742Z" fill="black"/>
<path d="M171.051 294.524L164.27 288.766L158.011 296.15L164.793 301.908L171.051 294.524Z" fill="#3D5BB2"/>
<path opacity="0.2" d="M171.086 294.504L168.775 292.542L162.517 299.926L164.827 301.888L171.086 294.504Z" fill="#158EBF"/>
<path d="M426.889 154.345H301.799V188.284H426.889V154.345Z" fill="#B7C3F3"/>
<path d="M331.898 157.964H305.219V184.665H331.898V157.964Z" fill="#3D5BB2"/>
<path d="M362.388 157.964H335.709V184.665H362.388V157.964Z" fill="#7A90F5"/>
<path d="M392.978 157.964H366.299V184.665H392.978V157.964Z" fill="#FC7C61"/>
<path d="M423.566 157.964H396.887V184.665H423.566V157.964Z" fill="#FEC442"/>
<path d="M436.466 179.188L410.178 170.287L415.748 197.478L420.928 191.903L433.144 209.801L439.887 203.835L446.532 197.967L430.309 183.687L436.466 179.188Z" fill="#232B54"/>
<path d="M259.482 356.218H201.335C199.771 356.218 198.305 355.338 197.719 353.871L195.08 348.198C194.396 346.731 193.028 345.851 191.464 345.851H166.251C164.003 345.851 162.244 347.611 162.244 349.861V356.316V365.021V411.088C162.244 413.337 164.003 415.098 166.251 415.098H259.58C261.828 415.098 263.587 413.337 263.587 411.088V360.326C263.587 357.979 261.73 356.218 259.482 356.218Z" fill="#FEC442"/>
<path opacity="0.5" d="M259.482 356.218H201.335C199.771 356.218 198.305 355.338 197.719 353.871L195.08 348.198C194.396 346.731 193.028 345.851 191.464 345.851H166.251C164.003 345.851 162.244 347.611 162.244 349.861V356.316V365.021V411.088C162.244 413.337 164.003 415.098 166.251 415.098H259.58C261.828 415.098 263.587 413.337 263.587 411.088V360.326C263.587 357.979 261.73 356.218 259.482 356.218Z" fill="black"/>
<path d="M259.482 362.38H166.251C164.003 362.38 162.146 364.238 162.146 366.488V411.088C162.146 413.337 164.003 415.196 166.251 415.196H259.482C261.73 415.196 263.587 413.337 263.587 411.088V366.488C263.587 364.14 261.73 362.38 259.482 362.38Z" fill="#FEC442"/>
<g opacity="0.5">
<path d="M258.798 369.52H234.17C233.78 369.52 233.486 369.226 233.486 368.835C233.486 368.444 233.78 368.151 234.17 368.151H258.798C259.188 368.151 259.482 368.444 259.482 368.835C259.579 369.129 259.188 369.52 258.798 369.52Z" fill="white"/>
</g>
<g opacity="0.5">
<path d="M258.798 373.237H234.17C233.78 373.237 233.486 372.943 233.486 372.552C233.486 372.161 233.78 371.867 234.17 371.867H258.798C259.188 371.867 259.482 372.161 259.482 372.552C259.579 372.943 259.188 373.237 258.798 373.237Z" fill="white"/>
</g>
<g opacity="0.5">
<path d="M258.797 377.051H245.213C244.822 377.051 244.529 376.757 244.529 376.366C244.529 375.975 244.822 375.682 245.213 375.682H258.797C259.188 375.682 259.482 375.975 259.482 376.366C259.482 376.757 259.188 377.051 258.797 377.051Z" fill="white"/>
</g>
<path d="M554.716 296.556V400.427H407.833V296.556M389.655 287.362C385.844 287.362 382.814 290.101 382.814 293.426V403.557C382.814 406.882 385.844 409.621 389.655 409.621H557.159C560.97 409.621 564 406.882 564 403.557V293.426C564 290.101 560.97 287.362 557.159 287.362H389.655Z" fill="#3D5BB2"/>
<path d="M406.953 297.241V399.742C406.953 400.427 407.833 401.111 409.005 401.111H553.739C554.912 401.111 555.791 400.427 555.791 399.742V297.241C555.791 296.556 554.912 295.871 553.739 295.871H409.005C407.833 295.871 406.953 296.556 406.953 297.241Z" fill="#232B54"/>
<path d="M497.936 348.687L490.216 367.368H472.429L464.611 348.687C464.611 348.687 475.459 339.787 480.639 320.323V348.883C479.759 349.176 479.075 350.056 479.075 351.034C479.075 352.306 480.052 353.284 481.323 353.284C482.593 353.284 483.57 352.306 483.57 351.034C483.57 350.056 482.886 349.176 482.007 348.883V320.421C487.186 339.884 497.936 348.687 497.936 348.687Z" fill="#FC7C61"/>
<path d="M490.606 368.835H472.136C471.159 368.835 470.279 369.618 470.279 370.694C470.279 371.769 471.061 372.552 472.136 372.552H490.606C491.584 372.552 492.463 371.769 492.463 370.694C492.463 369.618 491.584 368.835 490.606 368.835Z" fill="#FC7C61"/>
<path d="M488.75 373.921H473.895C473.407 373.921 473.016 374.312 473.016 374.801V379.594C473.016 380.083 473.407 380.474 473.895 380.474H488.75C489.238 380.474 489.629 380.083 489.629 379.594V374.801C489.531 374.312 489.238 373.921 488.75 373.921Z" fill="#FC7C61"/>
<path d="M512.792 338.222C507.026 326.094 494.712 318.269 481.324 318.269C467.935 318.269 455.622 326.094 449.856 338.222L449.465 338.026C455.231 325.8 467.74 317.878 481.324 317.878C494.908 317.878 507.319 325.8 513.183 338.026L512.792 338.222Z" fill="#FC7C61"/>
<path d="M512.987 317.878H449.66V318.269H512.987V317.878Z" fill="#FC7C61"/>
<path d="M482.887 318.073C482.887 318.954 482.203 319.638 481.323 319.638C480.444 319.638 479.76 318.954 479.76 318.073C479.76 317.193 480.444 316.509 481.323 316.509C482.203 316.509 482.887 317.193 482.887 318.073Z" fill="#FC7C61"/>
<path d="M514.549 318.073C514.549 318.954 513.865 319.638 512.986 319.638C512.106 319.638 511.422 318.954 511.422 318.073C511.422 317.193 512.106 316.509 512.986 316.509C513.865 316.509 514.549 317.193 514.549 318.073Z" fill="#FC7C61"/>
<path d="M514.549 338.124C514.549 339.004 513.865 339.689 512.986 339.689C512.106 339.689 511.422 339.004 511.422 338.124C511.422 337.244 512.106 336.559 512.986 336.559C513.865 336.559 514.549 337.244 514.549 338.124Z" fill="#FC7C61"/>
<path d="M451.223 318.073C451.223 318.954 450.539 319.638 449.659 319.638C448.78 319.638 448.096 318.954 448.096 318.073C448.096 317.193 448.78 316.509 449.659 316.509C450.539 316.509 451.223 317.193 451.223 318.073Z" fill="#FC7C61"/>
<path d="M451.223 338.124C451.223 339.004 450.539 339.689 449.659 339.689C448.78 339.689 448.096 339.004 448.096 338.124C448.096 337.244 448.78 336.559 449.659 336.559C450.539 336.559 451.223 337.244 451.223 338.124Z" fill="#FC7C61"/>
<path d="M552.174 347.318L554.617 344.873C555.301 344.188 556.279 344.188 556.963 344.873L559.406 347.318C560.09 348.002 560.09 348.98 559.406 349.665L556.963 352.11C556.279 352.795 555.301 352.795 554.617 352.11L552.174 349.665C551.588 348.98 551.588 347.905 552.174 347.318Z" fill="#3D5BB2"/>
<g opacity="0.2">
<path d="M515.137 400.427H480.151L412.23 296.556H447.217L515.137 400.427Z" fill="white"/>
<path d="M545.14 400.427H527.647L459.727 296.556H477.22L545.14 400.427Z" fill="white"/>
</g>
<path d="M395.225 357.001C399.921 357.001 403.727 353.191 403.727 348.491C403.727 343.792 399.921 339.982 395.225 339.982C390.529 339.982 386.723 343.792 386.723 348.491C386.723 353.191 390.529 357.001 395.225 357.001Z" fill="#7A90F5"/>
<path d="M395.226 355.24C398.95 355.24 401.969 352.219 401.969 348.491C401.969 344.764 398.95 341.743 395.226 341.743C391.501 341.743 388.482 344.764 388.482 348.491C388.482 352.219 391.501 355.24 395.226 355.24Z" fill="#232B54"/>
<path d="M400.6 363.26H389.948C388.189 363.26 386.82 364.63 386.82 366.39C386.82 368.151 388.189 369.52 389.948 369.52H400.6C402.359 369.52 403.727 368.151 403.727 366.39C403.727 364.63 402.359 363.26 400.6 363.26Z" fill="#232B54"/>
<path d="M400.6 374.41H389.948C388.189 374.41 386.82 375.78 386.82 377.54C386.82 379.301 388.189 380.67 389.948 380.67H400.6C402.359 380.67 403.727 379.301 403.727 377.54C403.727 375.78 402.359 374.41 400.6 374.41Z" fill="#232B54"/>
<path d="M400.6 385.365H389.948C388.189 385.365 386.82 386.734 386.82 388.494C386.82 390.255 388.189 391.624 389.948 391.624H400.6C402.359 391.624 403.727 390.255 403.727 388.494C403.727 386.832 402.359 385.365 400.6 385.365Z" fill="#232B54"/>
<path d="M400.6 316.802H389.948C388.189 316.802 386.82 318.171 386.82 319.932C386.82 321.692 388.189 323.062 389.948 323.062H400.6C402.359 323.062 403.727 321.692 403.727 319.932C403.727 318.269 402.359 316.802 400.6 316.802Z" fill="#232B54"/>
<path d="M400.6 328.05H389.948C388.189 328.05 386.82 329.419 386.82 331.18C386.82 332.94 388.189 334.309 389.948 334.309H400.6C402.359 334.309 403.727 332.94 403.727 331.18C403.727 329.419 402.359 328.05 400.6 328.05Z" fill="#232B54"/>
<path d="M546.799 296.067L509.272 333.723L490.607 352.306C490.118 352.795 489.532 352.893 488.945 352.795C488.554 352.697 488.261 352.501 487.968 352.208L484.938 349.078L484.352 348.491C484.254 348.394 484.059 348.198 484.059 348.002C483.668 347.318 483.863 346.437 484.45 345.851L503.702 327.756L542.597 291.47C543.086 290.981 543.868 290.981 544.356 291.47L546.897 294.111C546.897 294.111 546.897 294.111 546.897 294.209C547.288 294.795 547.288 295.578 546.799 296.067Z" fill="white"/>
<path d="M489.434 352.501V352.599L488.946 352.893L482.789 356.022L482.007 356.414L479.955 357.49C479.759 357.587 479.564 357.587 479.368 357.392C479.173 357.196 479.075 357.001 479.271 356.707L480.346 354.751L480.737 354.066L483.961 348.296L484.352 347.611C484.352 347.611 484.45 347.513 484.45 347.611L487.968 351.23L489.434 352.501Z" fill="white"/>
<path opacity="0.1" d="M546.801 296.067L509.274 333.723L490.608 352.306C490.119 352.795 489.533 352.893 488.946 352.795L482.79 355.925L482.008 356.316L479.956 357.392C479.76 357.49 479.565 357.49 479.369 357.294L486.503 352.404L484.842 349.078H484.94L488.067 350.937L546.898 294.209C547.289 294.795 547.289 295.578 546.801 296.067Z" fill="black"/>
<path d="M480.737 353.871L482.789 355.925L482.007 356.316L480.346 354.653L480.737 353.871Z" fill="#232B54"/>
<path d="M503.701 332.451L509.76 326.583C510.054 326.289 510.542 326.289 510.835 326.583C511.129 326.876 511.129 327.365 510.835 327.658L504.776 333.527C504.483 333.82 503.995 333.82 503.701 333.527C503.31 333.233 503.31 332.744 503.701 332.451Z" fill="#232B54"/>
</g>
<defs>
<linearGradient id="paint0_linear_619_2811" x1="312.5" y1="0" x2="312.5" y2="500" gradientUnits="userSpaceOnUse">
<stop stop-color="#0160E7"/>
<stop offset="1" stop-color="#013681"/>
</linearGradient>
<clipPath id="clip0_619_2811">
<rect width="503" height="330" fill="white" transform="translate(61 85)"/>
</clipPath>
</defs>
</svg>
