<svg width="625" height="500" viewBox="0 0 625 500" fill="none" xmlns="http://www.w3.org/2000/svg">
<path opacity="0.1" d="M3.87593 224.102C-14.9808 149.977 39.5345 115.057 69.1492 106.863C93.3239 101.19 164.519 81.1455 255.901 46.3518C347.284 11.5581 428.15 4.12028 457.161 4.7506C650.079 -34.5814 637.871 179.98 607.652 292.177C546.73 529.682 321.175 515.941 216.012 479.382C68.0596 453.665 12.9411 298.48 3.87593 224.102Z" fill="url(#paint0_linear_619_2811)"/>
<g clip-path="url(#clip0_619_2811)">
<path d="M242.937 150.913L241.693 151.992C239.951 153.485 237.96 154.481 235.803 154.979C230.825 156.224 225.35 154.647 221.782 150.498L207.845 134.398C202.784 128.506 203.448 119.544 209.255 114.481L210.5 113.403C216.39 108.34 225.35 109.004 230.41 114.813L244.348 130.913C249.491 136.888 248.828 145.851 242.937 150.913Z" fill="#232B54"/>
<path opacity="0.3" d="M235.885 154.979C230.907 156.224 225.432 154.647 221.864 150.498L207.927 134.398C202.866 128.506 203.53 119.544 209.337 114.481L210.582 113.403C210.582 113.403 207.429 127.427 230.326 147.427C233.23 150.083 235.055 152.573 235.885 154.979Z" fill="black"/>
<path d="M252.313 161.12L251.4 161.867C247.086 165.602 246.589 172.241 250.322 176.556L260.609 188.423C264.342 192.739 270.979 193.237 275.293 189.502L276.206 188.755C280.52 185.021 281.017 178.382 277.284 174.066L266.997 162.199C263.181 157.884 256.627 157.386 252.313 161.12Z" fill="#FEC442"/>
<path d="M302.669 145.27L268.489 174.896L262.35 180.207L247.168 193.402L228.17 209.834L219.127 162.033C217.551 153.651 220.537 145.021 227.008 139.378L230.825 136.058L233.147 134.066C239.618 128.423 248.578 126.763 256.708 129.502L302.669 145.27Z" fill="#3D5BB2"/>
<path opacity="0.3" d="M246.421 192.158L227.672 208.34L218.795 161.203C217.219 152.905 220.206 144.44 226.594 138.88L230.327 135.643C230.327 135.643 223.939 145.27 227.672 156.058C230.493 163.942 241.029 182.78 246.421 192.158Z" fill="black"/>
<path d="M208.508 138.299L213.901 145.021L116.422 222.448L170.346 357.552L162.382 360.705L106.052 219.627L208.508 138.299ZM209.006 133.734L206.434 135.726L104.06 217.137L102.152 218.631L103.065 220.871L159.395 361.867L160.557 364.855L163.543 363.693L171.508 360.539L174.494 359.378L173.333 356.39L120.321 223.444L215.809 147.51L218.381 145.519L216.39 142.946L210.997 136.224L209.006 133.734Z" fill="#7A90F5"/>
<path d="M129.861 221.784C129.861 230.332 122.976 237.22 114.431 237.22C105.886 237.22 99 230.249 99 221.784C99 213.237 105.886 206.349 114.431 206.349C122.976 206.349 129.861 213.237 129.861 221.784Z" fill="#3D5BB2"/>
<path d="M121.732 221.784C121.732 225.768 118.497 229.087 114.431 229.087C110.449 229.087 107.131 225.851 107.131 221.784C107.131 217.801 110.366 214.481 114.431 214.481C118.414 214.481 121.732 217.718 121.732 221.784Z" fill="#7A90F5"/>
<path d="M219.625 147.427C219.625 155.975 212.739 162.863 204.194 162.863C195.649 162.863 188.764 155.975 188.764 147.427C188.764 138.88 195.649 131.992 204.194 131.992C212.656 131.992 219.625 138.963 219.625 147.427Z" fill="#3D5BB2"/>
<path d="M211.412 147.427C211.412 151.411 208.176 154.73 204.111 154.73C200.129 154.73 196.811 151.494 196.811 147.427C196.811 143.444 200.046 140.124 204.111 140.124C208.176 140.207 211.412 143.444 211.412 147.427Z" fill="#7A90F5"/>
<path d="M175.905 340.871H144.048C136.582 340.871 130.525 346.929 130.525 354.398V360.705H189.428V354.398C189.428 346.929 183.372 340.871 175.905 340.871Z" fill="#3D5BB2"/>
<path d="M175.406 342.946C175.406 351.494 168.521 358.382 159.976 358.382C151.431 358.382 144.545 351.494 144.545 342.946C144.545 334.398 151.431 327.51 159.976 327.51C168.521 327.51 175.406 334.481 175.406 342.946Z" fill="#3D5BB2"/>
<path d="M167.277 342.946C167.277 346.93 164.041 350.249 159.976 350.249C155.994 350.249 152.676 347.012 152.676 342.946C152.676 338.963 155.911 335.643 159.976 335.643C163.958 335.726 167.277 338.963 167.277 342.946Z" fill="#7A90F5"/>
<path d="M213.238 353.983H106.633V364.938H213.238V353.983Z" fill="#3D5BB2"/>
<path d="M424.955 218.88H205.689C203.283 218.88 201.375 220.788 201.375 223.195V360.788H429.186V223.112C429.186 220.788 427.278 218.88 424.955 218.88Z" fill="#232B54"/>
<path d="M351.451 356.307H279.193C278.363 356.307 277.699 355.643 277.699 354.813C277.699 353.983 278.363 353.32 279.193 353.32H351.451C352.281 353.32 352.945 353.983 352.945 354.813C352.945 355.643 352.281 356.307 351.451 356.307Z" fill="white"/>
<path d="M422.797 221.784H207.762C206.352 221.784 205.273 222.946 205.273 224.274V346.929C205.273 348.34 206.435 349.419 207.762 349.419H422.797C424.207 349.419 425.286 348.257 425.286 346.929V224.274C425.286 222.946 424.207 221.784 422.797 221.784Z" fill="white"/>
<path d="M420.972 223.859H209.671C208.426 223.859 207.514 224.855 207.514 226.017V345.353C207.514 346.598 208.509 347.51 209.671 347.51H420.972C422.217 347.51 423.129 346.515 423.129 345.353V226.1C423.129 224.855 422.134 223.859 420.972 223.859Z" fill="#7A90F5"/>
<path d="M381.814 246.1V323.278C381.814 327.012 378.827 330 375.094 330H255.63C251.897 330 248.91 327.012 248.91 323.278V246.1C248.91 242.365 251.897 239.378 255.63 239.378H375.094C378.744 239.378 381.814 242.365 381.814 246.1Z" fill="#F9E2B9"/>
<path d="M381.815 246.1V252.075H248.828V246.1C248.828 242.365 251.815 239.378 255.548 239.378H375.012C378.745 239.378 381.815 242.365 381.815 246.1Z" fill="#FC7C61"/>
<path d="M258.867 245.768C258.867 247.012 257.871 248.091 256.544 248.091C255.299 248.091 254.221 247.095 254.221 245.768C254.221 244.44 255.216 243.444 256.544 243.444C257.788 243.444 258.867 244.44 258.867 245.768Z" fill="white"/>
<path d="M267.659 245.768C267.659 247.012 266.664 248.091 265.337 248.091C264.092 248.091 263.014 247.095 263.014 245.768C263.014 244.44 264.009 243.444 265.337 243.444C266.664 243.444 267.659 244.44 267.659 245.768Z" fill="white"/>
<path d="M276.454 245.768C276.454 247.012 275.459 248.091 274.132 248.091C272.804 248.091 271.809 247.095 271.809 245.768C271.809 244.44 272.804 243.444 274.132 243.444C275.459 243.444 276.454 244.44 276.454 245.768Z" fill="white"/>
<path d="M343.154 274.232C341.329 271.577 337.513 271.494 335.522 274.066L308.891 308.257L285.662 288.091C283.588 286.266 280.353 286.598 278.776 288.838L254.801 321.203H375.924L343.154 274.232Z" fill="#3D5BB2"/>
<path d="M310.467 292.905C315.965 292.905 320.422 288.446 320.422 282.946C320.422 277.446 315.965 272.988 310.467 272.988C304.969 272.988 300.512 277.446 300.512 282.946C300.512 288.446 304.969 292.905 310.467 292.905Z" fill="#FEC442"/>
<g opacity="0.1">
<path d="M358.087 347.593H316.358L235.471 223.859H277.2L358.087 347.593Z" fill="white"/>
<path d="M393.844 347.593H372.938L292.051 223.859H312.874L393.844 347.593Z" fill="white"/>
</g>
<path d="M437.73 373.403H194.405C190.755 373.403 187.852 370.415 187.852 366.847V360.788H444.284V366.847C444.284 370.415 441.297 373.403 437.73 373.403Z" fill="#232B54"/>
<path opacity="0.5" d="M437.73 373.403H194.405C190.755 373.403 187.852 370.415 187.852 366.847V360.788H444.284V366.847C444.284 370.415 441.297 373.403 437.73 373.403Z" fill="white"/>
<path d="M178.808 373.402H103.562L105.719 275.975H176.651L178.808 373.402Z" fill="#FC7C61"/>
<path d="M147.613 368.589H174.907V341.286L147.613 368.589Z" fill="#B7C3F3"/>
<path d="M172.751 280.788L174.825 341.618C174.825 342.116 174.742 342.531 174.742 342.946C172.751 363.195 150.02 368.589 150.02 368.589H107.627L109.784 280.788H172.751Z" fill="white"/>
<path opacity="0.3" d="M174.909 341.618C174.909 341.618 174.826 342.531 174.826 342.946C172.835 363.195 150.104 368.589 150.104 368.589C154.583 364.274 153.256 355.311 153.256 355.311C174.992 358.797 174.494 343.527 174.743 336.556C174.743 335.477 174.66 334.647 174.66 334.315C174.826 336.888 174.909 341.618 174.909 341.618Z" fill="#B7C3F3"/>
<path d="M121.068 284.357C121.068 285.768 119.989 286.847 118.579 286.847C117.168 286.847 116.09 285.768 116.09 284.357C116.09 282.946 117.168 281.867 118.579 281.867C119.906 281.867 121.068 283.029 121.068 284.357Z" fill="#B7C3F3"/>
<path d="M118.495 270.996C117.583 270.996 116.836 271.826 116.836 272.822V283.61C116.836 284.606 117.583 285.436 118.495 285.436C119.408 285.436 120.154 284.606 120.154 283.61V272.822C120.154 271.826 119.408 270.996 118.495 270.996Z" fill="#232B54"/>
<path d="M132.433 284.357C132.433 285.768 131.354 286.847 129.944 286.847C128.534 286.847 127.455 285.768 127.455 284.357C127.455 282.946 128.534 281.867 129.944 281.867C131.271 281.867 132.433 283.029 132.433 284.357Z" fill="#B7C3F3"/>
<path d="M129.86 270.996C128.948 270.996 128.201 271.826 128.201 272.822V283.61C128.201 284.606 128.948 285.436 129.86 285.436C130.773 285.436 131.52 284.606 131.52 283.61V272.822C131.52 271.826 130.773 270.996 129.86 270.996Z" fill="#232B54"/>
<path d="M143.798 284.357C143.798 285.768 142.719 286.847 141.309 286.847C139.899 286.847 138.82 285.768 138.82 284.357C138.82 282.946 139.899 281.867 141.309 281.867C142.637 281.867 143.798 283.029 143.798 284.357Z" fill="#B7C3F3"/>
<path d="M141.31 270.996C140.397 270.996 139.65 271.826 139.65 272.822V283.61C139.65 284.606 140.397 285.436 141.31 285.436C142.222 285.436 142.969 284.606 142.969 283.61V272.822C142.886 271.826 142.139 270.996 141.31 270.996Z" fill="#232B54"/>
<path d="M155.165 284.357C155.165 285.768 154.087 286.847 152.676 286.847C151.266 286.847 150.188 285.768 150.188 284.357C150.188 282.946 151.266 281.867 152.676 281.867C154.004 281.867 155.165 283.029 155.165 284.357Z" fill="#B7C3F3"/>
<path d="M152.677 270.996C151.764 270.996 151.018 271.826 151.018 272.822V283.61C151.018 284.606 151.764 285.436 152.677 285.436C153.589 285.436 154.336 284.606 154.336 283.61V272.822C154.253 271.826 153.506 270.996 152.677 270.996Z" fill="#232B54"/>
<path d="M166.53 284.357C166.53 285.768 165.452 286.847 164.042 286.847C162.631 286.847 161.553 285.768 161.553 284.357C161.553 282.946 162.631 281.867 164.042 281.867C165.452 281.867 166.53 283.029 166.53 284.357Z" fill="#B7C3F3"/>
<path d="M164.042 270.996C163.129 270.996 162.383 271.826 162.383 272.822V283.61C162.383 284.606 163.129 285.436 164.042 285.436C164.955 285.436 165.701 284.606 165.701 283.61V272.822C165.618 271.826 164.955 270.996 164.042 270.996Z" fill="#232B54"/>
<path d="M137.991 291.743C135.502 293.403 133.013 295.145 130.69 296.971C128.367 298.797 126.044 300.705 124.053 302.78C123.058 303.859 122.145 304.938 121.647 306.1C121.316 306.681 121.233 307.261 121.15 307.676C121.15 308.008 121.15 307.925 121.15 307.925C121.15 307.925 121.233 308.008 121.399 308.091C121.813 308.257 122.477 308.34 123.141 308.34C123.804 308.34 124.551 308.34 125.215 308.34C126.625 308.257 128.118 308.091 129.612 307.925C135.502 307.178 141.475 306.183 147.531 305.436C149.025 305.27 150.518 305.104 152.094 305.021C152.841 305.021 153.67 305.021 154.417 305.104C155.164 305.27 156.076 305.353 156.823 306.1C156.989 306.266 157.155 306.515 157.238 306.846C157.238 307.012 157.238 307.095 157.238 307.261L157.155 307.676C156.989 308.174 156.823 308.506 156.574 308.838C156.076 309.502 155.496 310.083 154.998 310.581C153.836 311.66 152.675 312.573 151.43 313.485C146.619 317.22 141.475 320.456 136.415 323.693C131.437 327.012 126.376 330.249 121.813 333.9C120.652 334.813 119.573 335.726 118.578 336.805C117.665 337.801 116.753 338.88 116.338 339.876C116.172 340.29 116.089 340.954 116.172 341.12V341.203C116.172 341.203 116.172 341.203 116.172 341.286C116.172 341.369 116.255 341.369 116.255 341.452C116.338 341.535 116.421 341.535 116.421 341.618L116.753 341.784C117.748 342.199 119.325 342.282 120.735 342.282C123.639 342.365 126.708 342.199 129.778 342.448C131.271 342.614 132.847 342.863 134.34 343.278C135.834 343.693 137.244 344.357 138.489 345.353C138.572 345.436 138.572 345.519 138.489 345.602C138.406 345.685 138.323 345.685 138.323 345.602C135.668 344.191 132.681 344.025 129.778 344.025C126.791 344.108 123.887 344.523 120.818 344.689C120.071 344.772 119.242 344.772 118.412 344.689C117.582 344.689 116.753 344.606 115.84 344.274C115.591 344.191 115.342 344.108 115.094 343.942C114.845 343.776 114.596 343.693 114.347 343.444C113.849 343.029 113.434 342.448 113.268 341.867C113.02 341.286 113.02 340.705 113.02 340.207C113.02 339.71 113.102 339.212 113.268 338.714C113.849 336.805 114.928 335.56 116.006 334.315C117.085 333.154 118.246 332.075 119.408 331.079C124.219 327.178 129.446 324.025 134.589 320.871C137.161 319.295 139.816 317.801 142.388 316.307C144.959 314.813 147.614 313.403 150.186 311.743C151.43 310.913 152.675 310.166 153.836 309.253C154.417 308.755 154.915 308.34 155.413 307.759C155.578 307.51 155.827 307.261 155.91 307.012C155.993 306.763 155.993 306.681 155.827 306.515C155.496 306.1 154.749 305.934 154.085 305.768C153.422 305.685 152.675 305.602 151.928 305.685C150.435 305.685 148.942 305.934 147.531 306.183C141.641 307.178 135.917 309.087 129.861 310.332C128.367 310.581 126.874 310.913 125.298 310.996C124.468 311.079 123.721 311.079 122.892 311.079C122.062 310.996 121.15 310.913 120.154 310.498C119.656 310.249 119.076 309.917 118.661 309.253C118.246 308.672 118.163 307.759 118.246 307.344C118.329 306.349 118.661 305.436 119.076 304.689C119.905 303.112 121.067 301.95 122.145 300.871C124.468 298.714 126.957 296.971 129.612 295.394C132.266 293.817 134.921 292.407 137.742 291.328C137.825 291.328 137.908 291.328 137.991 291.411C138.074 291.577 138.074 291.66 137.991 291.743Z" fill="#232B54"/>
<path d="M154.998 320.208L160.224 325.602L147.946 340.125L141.226 344.025L138.571 345.519L138.488 345.602L139.65 342.365L142.387 335.062L154.998 320.208Z" fill="#FFC0C4"/>
<path d="M141.31 343.942C140.563 343.527 139.983 343.029 139.651 342.365L138.406 345.602L138.489 345.519L141.31 343.942Z" fill="#232B54"/>
<path opacity="0.2" d="M140.811 343.61L146.204 338.465C148.527 337.22 149.356 337.552 147.946 340.208L141.143 344.108L138.488 345.602L140.811 343.61Z" fill="black"/>
<path d="M189.759 290.913L183.122 298.714L162.215 323.361L147.946 340.125C147.946 340.125 147.946 340.042 148.029 340.042C148.693 338.714 147.283 337.801 145.872 338.714L145.955 338.631C146.038 338.548 146.121 338.465 146.121 338.382C146.536 337.137 145.54 336.058 144.379 336.639H144.296L144.213 336.722C144.213 336.722 144.213 336.639 144.296 336.639C144.296 336.556 144.296 336.556 144.379 336.473C144.379 336.473 144.379 336.473 144.379 336.39V336.307V336.224V336.141V336.058C144.379 335.975 144.379 335.975 144.379 335.892C144.379 335.809 144.379 335.726 144.379 335.643C144.379 335.56 144.379 335.56 144.379 335.477C144.379 335.394 144.379 335.394 144.296 335.311V335.228C144.296 335.228 144.296 335.228 144.296 335.145C144.213 335.062 144.13 334.979 144.047 334.896C143.964 334.813 143.964 334.813 143.881 334.813C143.798 334.813 143.715 334.73 143.549 334.73C143.466 334.73 143.383 334.73 143.3 334.73C143.217 334.73 143.134 334.73 143.134 334.73C143.052 334.73 142.969 334.813 142.886 334.813C142.803 334.813 142.72 334.896 142.637 334.979L151.845 324.191L155.33 320.125L184.283 285.934L189.759 290.913Z" fill="#232B54"/>
<path opacity="0.2" d="M189.759 290.913L187.105 294.066L183.123 298.714L162.133 323.361L160.474 325.353L152.925 334.232L149.274 338.548L147.947 340.125C147.947 340.125 147.947 340.042 148.03 340.042C148.694 338.714 147.283 337.801 145.873 338.714L145.956 338.631L146.039 338.548C146.039 338.548 146.039 338.548 146.122 338.465C146.122 338.465 146.122 338.465 146.205 338.382C146.205 338.382 146.205 338.382 146.288 338.299C146.869 337.635 148.528 335.726 151.348 332.324C152.676 330.747 155.248 327.676 158.566 323.776C158.732 323.61 158.898 323.361 159.064 323.195L164.539 316.805C165.037 316.307 165.452 315.726 165.95 315.145C166.447 314.564 166.862 314.066 167.36 313.486L168.107 312.656C168.273 312.49 168.438 312.241 168.604 311.992L172.338 307.593C172.752 307.095 173.167 306.598 173.582 306.1C174.992 304.44 176.486 302.697 177.896 300.954L178.643 300.125C179.14 299.544 179.638 298.963 180.136 298.382C180.634 297.801 181.048 297.303 181.546 296.722C182.874 295.145 184.201 293.569 185.528 292.075L188.017 289.17L189.759 290.913Z" fill="black"/>
<path d="M193.741 286.266L190.672 289.834L184.947 284.938L188.017 281.369C189.344 279.793 191.75 279.627 193.326 280.954C194.156 281.618 194.571 282.531 194.654 283.527C194.654 283.693 194.654 283.776 194.654 283.942C194.571 284.772 194.239 285.519 193.741 286.266Z" fill="#FC7C61"/>
<path opacity="0.5" d="M193.741 286.266L190.672 289.834L184.947 284.938L187.519 281.867C191.003 286.017 193.409 285.021 194.571 283.859C194.571 284.772 194.239 285.519 193.741 286.266Z" fill="black"/>
<path d="M192.423 287.778L186.666 282.893L181.353 289.158L187.11 294.043L192.423 287.778Z" fill="#3D5BB2"/>
<path opacity="0.2" d="M192.451 287.761L190.49 286.096L185.177 292.362L187.138 294.026L192.451 287.761Z" fill="#158EBF"/>
<path d="M409.606 168.838H303.416V197.635H409.606V168.838Z" fill="#B7C3F3"/>
<path d="M328.969 171.909H306.32V194.564H328.969V171.909Z" fill="#3D5BB2"/>
<path d="M354.853 171.909H332.205V194.564H354.853V171.909Z" fill="#7A90F5"/>
<path d="M380.82 171.909H358.172V194.564H380.82V171.909Z" fill="#FC7C61"/>
<path d="M406.785 171.909H384.137V194.564H406.785V171.909Z" fill="#FEC442"/>
<path d="M417.736 189.917L395.42 182.365L400.149 205.436L404.546 200.705L414.916 215.892L420.64 210.83L426.281 205.851L412.51 193.734L417.736 189.917Z" fill="#232B54"/>
<path d="M267.493 340.125H218.132C216.804 340.125 215.56 339.378 215.062 338.133L212.822 333.32C212.241 332.075 211.08 331.328 209.753 331.328H188.349C186.441 331.328 184.947 332.822 184.947 334.73V340.208V347.593V386.681C184.947 388.589 186.441 390.083 188.349 390.083H267.576C269.484 390.083 270.978 388.589 270.978 386.681V343.61C270.978 341.618 269.402 340.125 267.493 340.125Z" fill="#FEC442"/>
<path opacity="0.5" d="M267.493 340.125H218.132C216.804 340.125 215.56 339.378 215.062 338.133L212.822 333.32C212.241 332.075 211.08 331.328 209.753 331.328H188.349C186.441 331.328 184.947 332.822 184.947 334.73V340.208V347.593V386.681C184.947 388.589 186.441 390.083 188.349 390.083H267.576C269.484 390.083 270.978 388.589 270.978 386.681V343.61C270.978 341.618 269.402 340.125 267.493 340.125Z" fill="black"/>
<path d="M267.494 345.353H188.35C186.441 345.353 184.865 346.93 184.865 348.838V386.681C184.865 388.589 186.441 390.166 188.35 390.166H267.494C269.402 390.166 270.979 388.589 270.979 386.681V348.838C270.979 346.847 269.402 345.353 267.494 345.353Z" fill="#FEC442"/>
<g opacity="0.5">
<path d="M266.913 351.411H246.007C245.675 351.411 245.426 351.162 245.426 350.83C245.426 350.498 245.675 350.249 246.007 350.249H266.913C267.245 350.249 267.493 350.498 267.493 350.83C267.576 351.079 267.245 351.411 266.913 351.411Z" fill="white"/>
</g>
<g opacity="0.5">
<path d="M266.913 354.564H246.007C245.675 354.564 245.426 354.315 245.426 353.984C245.426 353.652 245.675 353.403 246.007 353.403H266.913C267.245 353.403 267.493 353.652 267.493 353.984C267.576 354.315 267.245 354.564 266.913 354.564Z" fill="white"/>
</g>
<g opacity="0.5">
<path d="M266.913 357.801H255.382C255.05 357.801 254.801 357.552 254.801 357.22C254.801 356.888 255.05 356.639 255.382 356.639H266.913C267.245 356.639 267.494 356.888 267.494 357.22C267.494 357.552 267.245 357.801 266.913 357.801Z" fill="white"/>
</g>
<path d="M518.118 289.502V377.635H393.427V289.502M377.997 281.701C374.761 281.701 372.189 284.025 372.189 286.847V380.291C372.189 383.112 374.761 385.436 377.997 385.436H520.192C523.427 385.436 525.999 383.112 525.999 380.291V286.847C525.999 284.025 523.427 281.701 520.192 281.701H377.997Z" fill="#3D5BB2"/>
<path d="M392.682 290.083V377.054C392.682 377.635 393.428 378.216 394.424 378.216H517.289C518.285 378.216 519.031 377.635 519.031 377.054V290.083C519.031 289.502 518.285 288.921 517.289 288.921H394.424C393.428 288.921 392.682 289.502 392.682 290.083Z" fill="#232B54"/>
<path d="M469.917 333.735L463.363 349.585H448.264L441.627 333.735C441.627 333.735 450.836 326.183 455.233 309.668V333.901C454.486 334.15 453.905 334.896 453.905 335.726C453.905 336.805 454.735 337.635 455.813 337.635C456.892 337.635 457.721 336.805 457.721 335.726C457.721 334.896 457.141 334.15 456.394 333.901V309.751C460.791 326.266 469.917 333.735 469.917 333.735Z" fill="#FC7C61"/>
<path d="M463.695 350.83H448.016C447.186 350.83 446.439 351.494 446.439 352.407C446.439 353.32 447.103 353.984 448.016 353.984H463.695C464.525 353.984 465.272 353.32 465.272 352.407C465.272 351.494 464.525 350.83 463.695 350.83Z" fill="#FC7C61"/>
<path d="M462.118 355.145H449.508C449.094 355.145 448.762 355.477 448.762 355.892V359.959C448.762 360.374 449.094 360.706 449.508 360.706H462.118C462.533 360.706 462.865 360.374 462.865 359.959V355.892C462.782 355.477 462.533 355.145 462.118 355.145Z" fill="#FC7C61"/>
<path d="M482.528 324.855C477.634 314.564 467.18 307.925 455.815 307.925C444.449 307.925 433.996 314.564 429.101 324.855L428.77 324.689C433.664 314.316 444.283 307.594 455.815 307.594C467.346 307.594 477.882 314.316 482.86 324.689L482.528 324.855Z" fill="#FC7C61"/>
<path d="M482.694 307.594H428.936V307.925H482.694V307.594Z" fill="#FC7C61"/>
<path d="M457.141 307.759C457.141 308.506 456.56 309.087 455.814 309.087C455.067 309.087 454.486 308.506 454.486 307.759C454.486 307.013 455.067 306.432 455.814 306.432C456.56 306.432 457.141 307.013 457.141 307.759Z" fill="#FC7C61"/>
<path d="M484.02 307.759C484.02 308.506 483.439 309.087 482.693 309.087C481.946 309.087 481.365 308.506 481.365 307.759C481.365 307.013 481.946 306.432 482.693 306.432C483.439 306.432 484.02 307.013 484.02 307.759Z" fill="#FC7C61"/>
<path d="M484.02 324.772C484.02 325.519 483.439 326.1 482.693 326.1C481.946 326.1 481.365 325.519 481.365 324.772C481.365 324.025 481.946 323.444 482.693 323.444C483.439 323.444 484.02 324.025 484.02 324.772Z" fill="#FC7C61"/>
<path d="M430.262 307.759C430.262 308.506 429.681 309.087 428.935 309.087C428.188 309.087 427.607 308.506 427.607 307.759C427.607 307.013 428.188 306.432 428.935 306.432C429.681 306.432 430.262 307.013 430.262 307.759Z" fill="#FC7C61"/>
<path d="M430.262 324.772C430.262 325.519 429.681 326.1 428.935 326.1C428.188 326.1 427.607 325.519 427.607 324.772C427.607 324.025 428.188 323.444 428.935 323.444C429.681 323.444 430.262 324.025 430.262 324.772Z" fill="#FC7C61"/>
<path d="M515.961 332.573L518.035 330.498C518.616 329.917 519.446 329.917 520.026 330.498L522.1 332.573C522.681 333.154 522.681 333.983 522.1 334.564L520.026 336.639C519.446 337.22 518.616 337.22 518.035 336.639L515.961 334.564C515.463 333.983 515.463 333.071 515.961 332.573Z" fill="#3D5BB2"/>
<g opacity="0.2">
<path d="M484.518 377.635H454.818L397.16 289.502H426.86L484.518 377.635Z" fill="white"/>
<path d="M509.986 377.635H495.136L437.479 289.502H452.329L509.986 377.635Z" fill="white"/>
</g>
<path d="M382.725 340.788C386.712 340.788 389.943 337.556 389.943 333.569C389.943 329.581 386.712 326.349 382.725 326.349C378.739 326.349 375.508 329.581 375.508 333.569C375.508 337.556 378.739 340.788 382.725 340.788Z" fill="#7A90F5"/>
<path d="M382.726 339.295C385.888 339.295 388.451 336.731 388.451 333.569C388.451 330.406 385.888 327.842 382.726 327.842C379.565 327.842 377.002 330.406 377.002 333.569C377.002 336.731 379.565 339.295 382.726 339.295Z" fill="#232B54"/>
<path d="M387.287 346.1H378.245C376.751 346.1 375.59 347.261 375.59 348.755C375.59 350.249 376.751 351.411 378.245 351.411H387.287C388.781 351.411 389.942 350.249 389.942 348.755C389.942 347.261 388.781 346.1 387.287 346.1Z" fill="#232B54"/>
<path d="M387.287 355.56H378.245C376.751 355.56 375.59 356.722 375.59 358.216C375.59 359.71 376.751 360.871 378.245 360.871H387.287C388.781 360.871 389.942 359.71 389.942 358.216C389.942 356.722 388.781 355.56 387.287 355.56Z" fill="#232B54"/>
<path d="M387.287 364.855H378.245C376.751 364.855 375.59 366.017 375.59 367.51C375.59 369.004 376.751 370.166 378.245 370.166H387.287C388.781 370.166 389.942 369.004 389.942 367.51C389.942 366.1 388.781 364.855 387.287 364.855Z" fill="#232B54"/>
<path d="M387.287 306.681H378.245C376.751 306.681 375.59 307.842 375.59 309.336C375.59 310.83 376.751 311.992 378.245 311.992H387.287C388.781 311.992 389.942 310.83 389.942 309.336C389.942 307.925 388.781 306.681 387.287 306.681Z" fill="#232B54"/>
<path d="M387.287 316.224H378.245C376.751 316.224 375.59 317.386 375.59 318.88C375.59 320.373 376.751 321.535 378.245 321.535H387.287C388.781 321.535 389.942 320.373 389.942 318.88C389.942 317.386 388.781 316.224 387.287 316.224Z" fill="#232B54"/>
<path d="M511.398 289.087L479.541 321.037L463.696 336.805C463.281 337.22 462.783 337.303 462.286 337.22C461.954 337.137 461.705 336.971 461.456 336.722L458.884 334.066L458.386 333.568C458.303 333.486 458.137 333.32 458.137 333.154C457.806 332.573 457.972 331.826 458.469 331.328L474.813 315.975L507.831 285.187C508.246 284.772 508.91 284.772 509.324 285.187L511.481 287.427C511.481 287.427 511.481 287.427 511.481 287.51C511.813 288.008 511.813 288.672 511.398 289.087Z" fill="white"/>
<path d="M462.701 336.971V337.054L462.286 337.303L457.059 339.958L456.396 340.29L454.654 341.203C454.488 341.286 454.322 341.286 454.156 341.12C453.99 340.954 453.907 340.788 454.073 340.539L454.985 338.88L455.317 338.299L458.055 333.402L458.387 332.822C458.387 332.822 458.47 332.739 458.47 332.822L461.456 335.892L462.701 336.971Z" fill="white"/>
<path opacity="0.1" d="M511.399 289.087L479.542 321.037L463.697 336.805C463.282 337.22 462.784 337.303 462.286 337.22L457.06 339.876L456.396 340.207L454.654 341.12C454.488 341.203 454.322 341.203 454.156 341.037L460.212 336.888L458.802 334.066H458.885L461.54 335.643L511.482 287.51C511.814 288.008 511.814 288.672 511.399 289.087Z" fill="black"/>
<path d="M455.318 338.133L457.06 339.876L456.397 340.208L454.986 338.797L455.318 338.133Z" fill="#232B54"/>
<path d="M474.813 319.959L479.957 314.979C480.206 314.73 480.621 314.73 480.869 314.979C481.118 315.228 481.118 315.643 480.869 315.892L475.726 320.871C475.477 321.12 475.062 321.12 474.813 320.871C474.481 320.622 474.481 320.208 474.813 319.959Z" fill="#232B54"/>
</g>
<defs>
<linearGradient id="paint0_linear_619_2811" x1="312.5" y1="0" x2="312.5" y2="500" gradientUnits="userSpaceOnUse">
<stop stop-color="#0160E7"/>
<stop offset="1" stop-color="#013681"/>
</linearGradient>
<clipPath id="clip0_619_2811">
<rect width="427" height="280" fill="white" transform="translate(99 110)"/>
</clipPath>
</defs>
</svg>
