<svg width="626" height="501" viewBox="0 0 626 501" fill="none" xmlns="http://www.w3.org/2000/svg">
<path opacity="0.1" d="M4.74897 224.748C-14.1077 150.623 40.4075 115.703 70.0222 107.509C94.1969 101.836 165.392 81.7915 256.775 46.9978C348.157 12.2041 429.023 4.76628 458.034 5.39659C650.953 -33.9354 638.744 180.626 608.525 292.823C547.603 530.328 322.048 516.587 216.885 480.028C68.9326 454.311 13.8141 299.126 4.74897 224.748Z" fill="url(#paint0_linear_1629_27762)"/>
<path d="M313.064 420.897C402.7 420.897 475.365 348.232 475.365 258.596C475.365 168.96 402.7 96.2959 313.064 96.2959C223.428 96.2959 150.764 168.96 150.764 258.596C150.764 348.232 223.428 420.897 313.064 420.897Z" fill="#B1CEE6"/>
<path d="M207.977 375.452H147.801V426.195H207.977V375.452Z" fill="url(#paint1_linear_1629_27762)"/>
<path d="M211.645 358.143H142.78C138.731 358.143 135.449 361.424 135.449 365.473V373.593C135.449 377.642 138.731 380.923 142.78 380.923H211.645C215.693 380.923 218.975 377.642 218.975 373.593V365.473C218.975 361.424 215.693 358.143 211.645 358.143Z" fill="white"/>
<path d="M211.645 388.23H142.78C138.731 388.23 135.449 391.512 135.449 395.561V403.681C135.449 407.729 138.731 411.011 142.78 411.011H211.645C215.693 411.011 218.975 407.729 218.975 403.681V395.561C218.975 391.512 215.693 388.23 211.645 388.23Z" fill="white"/>
<path d="M211.645 418.318H142.78C138.731 418.318 135.449 421.6 135.449 425.649V433.769C135.449 437.817 138.731 441.099 142.78 441.099H211.645C215.693 441.099 218.975 437.817 218.975 433.769V425.649C218.975 421.6 215.693 418.318 211.645 418.318Z" fill="white"/>
<path d="M204.514 369.237C204.514 369.894 204.709 370.536 205.074 371.083C205.439 371.629 205.958 372.055 206.565 372.307C207.172 372.558 207.84 372.624 208.484 372.496C209.129 372.367 209.721 372.051 210.185 371.586C210.65 371.122 210.967 370.53 211.095 369.885C211.223 369.241 211.157 368.573 210.906 367.966C210.654 367.358 210.228 366.84 209.682 366.474C209.136 366.109 208.493 365.915 207.836 365.915C206.955 365.915 206.11 366.265 205.487 366.888C204.864 367.511 204.514 368.356 204.514 369.237Z" fill="url(#paint2_linear_1629_27762)"/>
<path d="M204.514 399.325C204.514 399.982 204.709 400.624 205.074 401.171C205.439 401.717 205.958 402.143 206.565 402.394C207.172 402.646 207.84 402.712 208.484 402.583C209.129 402.455 209.721 402.139 210.185 401.674C210.65 401.21 210.967 400.618 211.095 399.973C211.223 399.329 211.157 398.661 210.906 398.053C210.654 397.446 210.228 396.927 209.682 396.562C209.136 396.197 208.493 396.002 207.836 396.002C207.4 396.002 206.968 396.088 206.565 396.255C206.162 396.422 205.795 396.667 205.487 396.976C205.178 397.284 204.934 397.65 204.767 398.053C204.6 398.457 204.514 398.889 204.514 399.325Z" fill="url(#paint3_linear_1629_27762)"/>
<path d="M204.514 429.401C204.514 430.058 204.709 430.701 205.074 431.247C205.439 431.793 205.958 432.219 206.565 432.471C207.172 432.722 207.84 432.788 208.484 432.66C209.129 432.531 209.721 432.215 210.185 431.75C210.65 431.286 210.967 430.694 211.095 430.049C211.223 429.405 211.157 428.737 210.906 428.13C210.654 427.522 210.228 427.004 209.682 426.639C209.136 426.273 208.493 426.079 207.836 426.079C206.955 426.079 206.11 426.429 205.487 427.052C204.864 427.675 204.514 428.52 204.514 429.401Z" fill="url(#paint4_linear_1629_27762)"/>
<path d="M253.593 111.282C255.066 105.473 255.066 99.3874 253.593 93.578H247.436C246.583 90.3105 245.269 87.1813 243.533 84.2844L247.599 80.2185C244.541 75.0657 240.234 70.7667 235.076 67.7186L230.963 71.831C228.061 70.1226 224.933 68.832 221.67 67.9974L221.368 67.9393V62.5142C215.56 61.0272 209.471 61.0272 203.664 62.5142V68.0904C200.289 68.9752 197.064 70.3531 194.091 72.1795L190.362 68.4505C185.208 71.5138 180.902 75.8191 177.839 80.9736L181.8 84.935C180.069 87.9637 178.796 91.2327 178.025 94.6351H172.635C171.163 100.449 171.163 106.537 172.635 112.351H178.501C179.44 115.632 180.844 118.762 182.672 121.645L178.617 125.734C181.689 130.882 185.993 135.185 191.14 138.257L195.543 133.854C198.456 135.478 201.585 136.679 204.837 137.42V143.461C210.645 144.948 216.733 144.948 222.541 143.461V137.014C225.697 136.131 228.716 134.813 231.509 133.099L235.889 137.478C241.043 134.415 245.349 130.11 248.412 124.955L243.858 120.402C245.506 117.547 246.749 114.478 247.552 111.282H253.593ZM212.864 125.931C208.25 125.934 203.738 124.567 199.9 122.005C196.062 119.442 193.071 115.799 191.304 111.537C189.537 107.274 189.074 102.582 189.973 98.0564C190.873 93.5303 193.095 89.3728 196.358 86.1098C199.621 82.8468 203.779 80.6249 208.305 79.7251C212.831 78.8254 217.522 79.2884 221.785 81.0554C226.048 82.8224 229.691 85.814 232.253 89.6519C234.815 93.4898 236.182 98.0014 236.179 102.616C236.181 105.678 235.579 108.711 234.408 111.54C233.237 114.37 231.519 116.94 229.354 119.106C227.189 121.271 224.618 122.988 221.788 124.16C218.959 125.331 215.926 125.933 212.864 125.931Z" fill="white"/>
<path d="M236.859 126.578C250.079 113.358 250.079 91.9242 236.859 78.7043C223.639 65.4843 202.206 65.4843 188.986 78.7043C175.766 91.9242 175.766 113.358 188.986 126.578C202.206 139.798 223.639 139.798 236.859 126.578Z" stroke="url(#paint5_linear_1629_27762)" stroke-width="4" stroke-miterlimit="10"/>
<path d="M162.788 163.954C163.655 160.499 163.655 156.884 162.788 153.429H159.128C158.621 151.496 157.838 149.645 156.805 147.934L159.245 145.506C157.429 142.436 154.868 139.875 151.798 138.06L149.335 140.523C147.629 139.489 145.782 138.706 143.852 138.199H143.678V134.981C140.225 134.099 136.606 134.099 133.153 134.981V138.292C131.14 138.819 129.214 139.637 127.437 140.72L125.184 138.525C123.66 139.432 122.256 140.524 121.002 141.777C119.744 143.032 118.651 144.441 117.749 145.971L120.072 148.294C119.042 150.109 118.287 152.067 117.83 154.103H114.728C113.846 157.556 113.846 161.175 114.728 164.628H118.214C118.764 166.575 119.598 168.43 120.688 170.134L118.214 172.539C120.029 175.605 122.585 178.166 125.648 179.985L128.274 177.372C130 178.323 131.849 179.03 133.769 179.474V183.076C137.221 183.958 140.841 183.958 144.294 183.076V179.23C146.164 178.699 147.953 177.918 149.614 176.907L152.228 179.521C153.754 178.617 155.159 177.524 156.41 176.268C157.668 175.011 158.764 173.602 159.674 172.074L156.956 169.368C157.928 167.671 158.663 165.85 159.14 163.954H162.788ZM138.578 172.667C135.837 172.667 133.157 171.854 130.878 170.331C128.599 168.808 126.823 166.644 125.774 164.111C124.725 161.579 124.451 158.792 124.985 156.104C125.52 153.416 126.84 150.946 128.778 149.008C130.716 147.07 133.186 145.75 135.874 145.215C138.563 144.68 141.349 144.955 143.882 146.004C146.414 147.053 148.579 148.829 150.101 151.108C151.624 153.387 152.437 156.067 152.437 158.808C152.437 162.483 150.977 166.008 148.378 168.608C145.779 171.207 142.254 172.667 138.578 172.667Z" fill="white"/>
<path d="M149.328 169.631C155.185 163.774 155.185 154.278 149.328 148.422C143.471 142.565 133.975 142.565 128.119 148.422C122.262 154.278 122.262 163.774 128.118 169.631C133.975 175.488 143.471 175.488 149.328 169.631Z" stroke="url(#paint6_linear_1629_27762)" stroke-width="4" stroke-miterlimit="10"/>
<path d="M539.303 235.038H464.223V284.445H539.303V235.038Z" fill="white"/>
<path d="M477.835 259.736V258.088L491.099 251.332V253.969L480.924 258.871L481.007 258.706V259.118L480.924 258.953L491.099 263.855V266.491L477.835 259.736ZM503.707 245.071L496.91 270.322H494.685L501.482 245.071H503.707ZM520.552 259.736L507.288 266.491V263.855L517.463 258.953L517.38 259.118V258.706L517.463 258.871L507.288 253.969V251.332L520.552 258.088V259.736Z" fill="url(#paint7_linear_1629_27762)"/>
<path d="M353.222 76.792H292.5V117.951H353.222V76.792Z" fill="white"/>
<path d="M331.255 96.4008C331.366 96.4666 331.457 96.5602 331.521 96.6722C331.585 96.7842 331.618 96.9108 331.618 97.0397C331.618 97.1685 331.585 97.2952 331.521 97.4072C331.457 97.5192 331.366 97.6127 331.255 97.6786L324.052 101.837L316.861 105.996C316.749 106.059 316.623 106.091 316.494 106.089C316.366 106.088 316.24 106.054 316.129 105.989C316.018 105.925 315.925 105.833 315.86 105.722C315.795 105.612 315.76 105.486 315.758 105.357V88.7336C315.756 88.6038 315.789 88.476 315.854 88.3632C315.918 88.2504 316.011 88.1567 316.123 88.0917C316.235 88.0266 316.363 87.9926 316.493 87.9932C316.622 87.9937 316.75 88.0287 316.861 88.0946L324.052 92.2535L331.255 96.4008Z" fill="url(#paint8_linear_1629_27762)"/>
<path d="M130.991 232.645C130.993 233.59 130.715 234.514 130.192 235.301C129.668 236.087 128.923 236.701 128.051 237.064C127.179 237.427 126.219 237.524 125.292 237.341C124.365 237.158 123.513 236.704 122.844 236.037C122.175 235.369 121.719 234.519 121.534 233.592C121.349 232.666 121.443 231.705 121.804 230.832C122.165 229.959 122.777 229.212 123.562 228.687C124.348 228.162 125.271 227.882 126.216 227.882C127.48 227.882 128.693 228.383 129.588 229.276C130.483 230.169 130.987 231.381 130.991 232.645Z" stroke="url(#paint9_linear_1629_27762)" stroke-width="2" stroke-miterlimit="10"/>
<path d="M250.528 438.509C250.528 439.451 250.249 440.371 249.725 441.155C249.202 441.938 248.458 442.548 247.588 442.909C246.717 443.269 245.76 443.364 244.836 443.18C243.912 442.996 243.063 442.543 242.397 441.876C241.731 441.21 241.277 440.362 241.093 439.438C240.91 438.514 241.004 437.556 241.365 436.686C241.725 435.816 242.335 435.072 243.119 434.548C243.902 434.025 244.823 433.746 245.765 433.746C247.028 433.746 248.24 434.247 249.133 435.141C250.026 436.034 250.528 437.245 250.528 438.509Z" stroke="url(#paint10_linear_1629_27762)" stroke-width="2" stroke-miterlimit="10"/>
<path d="M491.406 358.039H402.188V423.291H491.406V358.039Z" fill="white"/>
<path d="M438.337 385.129L450.744 398.825L463.151 412.522H438.337H413.535L425.942 398.825L438.337 385.129Z" fill="url(#paint11_linear_1629_27762)"/>
<path d="M460.317 390.194L470.424 401.358L480.53 412.522H460.317H440.092L450.21 401.358L460.317 390.194Z" fill="url(#paint12_linear_1629_27762)"/>
<path d="M465.314 376.997C465.314 378.022 465.618 379.024 466.188 379.876C466.757 380.728 467.566 381.392 468.513 381.784C469.46 382.176 470.501 382.279 471.506 382.079C472.511 381.879 473.435 381.385 474.159 380.661C474.884 379.936 475.377 379.013 475.577 378.008C475.777 377.003 475.675 375.961 475.282 375.014C474.89 374.068 474.226 373.258 473.374 372.689C472.522 372.12 471.52 371.816 470.496 371.816C469.121 371.816 467.804 372.362 466.832 373.333C465.86 374.305 465.314 375.623 465.314 376.997Z" fill="#BFDBF2"/>
<path d="M330.174 393.632L334.728 398.662L339.293 403.704H330.174H321.055L325.609 398.662L330.174 393.632Z" fill="url(#paint13_linear_1629_27762)"/>
<path d="M353.769 403.797H306.964C300.747 403.797 295.707 408.837 295.707 415.054V435.268C295.707 441.485 300.747 446.525 306.964 446.525H353.769C359.986 446.525 365.025 441.485 365.025 435.268V415.054C365.025 408.837 359.986 403.797 353.769 403.797Z" fill="white"/>
<path d="M319.241 424.615C319.244 425.287 319.047 425.944 318.675 426.503C318.304 427.062 317.775 427.499 317.155 427.758C316.536 428.016 315.853 428.085 315.195 427.955C314.536 427.826 313.93 427.504 313.455 427.03C312.979 426.556 312.655 425.951 312.523 425.293C312.391 424.635 312.458 423.952 312.714 423.332C312.971 422.711 313.405 422.181 313.963 421.807C314.521 421.434 315.178 421.235 315.849 421.235C316.747 421.235 317.608 421.591 318.244 422.224C318.879 422.858 319.238 423.718 319.241 424.615Z" fill="url(#paint14_linear_1629_27762)"/>
<path d="M333.798 424.615C333.8 425.287 333.603 425.945 333.231 426.504C332.859 427.064 332.33 427.501 331.709 427.759C331.089 428.017 330.406 428.085 329.747 427.955C329.088 427.824 328.482 427.501 328.007 427.026C327.532 426.551 327.209 425.945 327.078 425.286C326.948 424.627 327.016 423.944 327.274 423.324C327.532 422.703 327.969 422.174 328.528 421.802C329.088 421.43 329.746 421.233 330.417 421.235C331.314 421.235 332.174 421.591 332.808 422.225C333.442 422.859 333.798 423.719 333.798 424.615Z" fill="url(#paint15_linear_1629_27762)"/>
<path d="M348.366 424.615C348.369 425.287 348.172 425.944 347.8 426.503C347.429 427.062 346.9 427.499 346.28 427.758C345.661 428.016 344.978 428.085 344.32 427.955C343.661 427.826 343.055 427.504 342.58 427.03C342.104 426.556 341.78 425.951 341.648 425.293C341.516 424.635 341.583 423.952 341.839 423.332C342.096 422.711 342.53 422.181 343.088 421.807C343.646 421.434 344.303 421.235 344.974 421.235C345.872 421.235 346.733 421.591 347.369 422.224C348.005 422.858 348.363 423.718 348.366 424.615Z" fill="url(#paint16_linear_1629_27762)"/>
<path d="M481.902 163.64V176.871" stroke="url(#paint17_linear_1629_27762)" stroke-width="2" stroke-miterlimit="10"/>
<path d="M488.513 170.25H475.281" stroke="url(#paint18_linear_1629_27762)" stroke-width="2" stroke-miterlimit="10"/>
<path d="M133.94 286.861L105.13 315.671L101.076 319.725C100.334 320.467 99.454 321.055 98.4852 321.456C97.5165 321.857 96.4783 322.064 95.4297 322.064C94.3812 322.064 93.3429 321.857 92.3742 321.456C91.4055 321.055 90.5253 320.467 89.7839 319.725C89.0425 318.984 88.4543 318.104 88.0531 317.135C87.6518 316.166 87.4453 315.128 87.4453 314.08C87.4453 313.031 87.6518 311.993 88.0531 311.024C88.4543 310.055 89.0425 309.175 89.7839 308.434L122.648 275.569L133.94 286.861Z" fill="#EDF7FF"/>
<path d="M148.485 287.744C146.198 290.029 143.353 291.675 140.233 292.52C137.113 293.364 133.826 293.378 130.699 292.56C127.572 291.741 124.713 290.119 122.407 287.854C120.101 285.589 118.427 282.76 117.553 279.648C116.678 276.536 116.633 273.25 117.421 270.115C118.209 266.98 119.804 264.106 122.047 261.779C124.29 259.451 127.102 257.75 130.206 256.846C133.309 255.941 136.595 255.864 139.737 256.623L125.68 270.679L139.354 284.352L153.41 270.296C154.154 273.382 154.092 276.608 153.229 279.664C152.366 282.72 150.733 285.502 148.485 287.744Z" fill="white"/>
<path d="M112.537 285.691L93.8496 304.379L105.144 315.674L123.832 296.986L112.537 285.691Z" fill="url(#paint19_linear_1629_27762)"/>
<path d="M364.896 331.599H256.08V365.369H364.896V331.599Z" fill="#EDF7FF"/>
<path d="M249.203 358.596H371.774C374.072 358.596 376.277 359.509 377.902 361.134C379.527 362.759 380.44 364.964 380.44 367.262V371.781H240.525V367.25C240.527 366.112 240.753 364.986 241.19 363.935C241.626 362.884 242.266 361.929 243.072 361.126C243.878 360.322 244.834 359.685 245.886 359.251C246.938 358.817 248.065 358.594 249.203 358.596Z" fill="white"/>
<path d="M444.416 323.791V177.197C444.416 167.656 436.682 159.922 427.142 159.922L193.827 159.922C184.286 159.922 176.552 167.656 176.552 177.197V323.791C176.552 333.332 184.286 341.066 193.827 341.066H427.142C436.682 341.066 444.416 333.332 444.416 323.791Z" fill="white"/>
<path d="M427.154 171.528H193.839C190.715 171.528 188.182 174.061 188.182 177.186V323.78C188.182 326.905 190.715 329.438 193.839 329.438H427.154C430.279 329.438 432.812 326.905 432.812 323.78V177.186C432.812 174.061 430.279 171.528 427.154 171.528Z" fill="#B8DFFF"/>
<path d="M432.812 177.186V198.41H188.182V177.186C188.182 175.685 188.778 174.246 189.839 173.185C190.9 172.124 192.339 171.528 193.839 171.528H427.154C428.655 171.528 430.093 172.124 431.154 173.185C432.215 174.246 432.812 175.685 432.812 177.186Z" fill="url(#paint20_linear_1629_27762)"/>
<path d="M415.977 184.051C415.977 184.795 416.197 185.523 416.611 186.142C417.024 186.761 417.612 187.244 418.3 187.528C418.988 187.813 419.745 187.888 420.475 187.743C421.205 187.597 421.876 187.239 422.402 186.712C422.928 186.186 423.287 185.515 423.432 184.785C423.577 184.055 423.503 183.298 423.218 182.611C422.933 181.923 422.451 181.335 421.832 180.921C421.213 180.508 420.485 180.287 419.74 180.287C418.742 180.287 417.785 180.684 417.079 181.39C416.373 182.095 415.977 183.053 415.977 184.051Z" fill="white"/>
<path d="M400.605 184.051C400.605 184.796 400.827 185.524 401.241 186.143C401.655 186.763 402.243 187.245 402.932 187.53C403.62 187.814 404.378 187.888 405.108 187.742C405.838 187.596 406.509 187.236 407.035 186.708C407.561 186.181 407.918 185.509 408.062 184.778C408.206 184.047 408.13 183.29 407.843 182.603C407.557 181.915 407.073 181.328 406.452 180.916C405.832 180.504 405.103 180.285 404.358 180.287C403.864 180.287 403.375 180.385 402.919 180.574C402.463 180.763 402.049 181.041 401.7 181.39C401.352 181.74 401.076 182.155 400.888 182.612C400.7 183.068 400.604 183.557 400.605 184.051Z" fill="white"/>
<path d="M384.492 184.051C384.492 184.795 384.713 185.523 385.127 186.142C385.54 186.761 386.128 187.244 386.816 187.528C387.503 187.813 388.26 187.888 388.99 187.743C389.721 187.597 390.391 187.239 390.918 186.712C391.444 186.186 391.802 185.515 391.948 184.785C392.093 184.055 392.018 183.298 391.733 182.611C391.449 181.923 390.966 181.335 390.347 180.921C389.728 180.508 389 180.287 388.256 180.287C387.258 180.287 386.3 180.684 385.595 181.39C384.889 182.095 384.492 183.053 384.492 184.051Z" fill="white"/>
<path d="M218.979 253.402V227.221H222.15V250.59H234.32V253.402H218.979ZM241.955 253.402H238.631L248.245 227.221H251.518L261.131 253.402H257.808L249.984 231.363H249.779L241.955 253.402ZM243.183 243.175H256.58V245.988H243.183V243.175ZM265.21 253.402V227.221H274.056C276.102 227.221 277.781 227.57 279.093 228.269C280.406 228.959 281.377 229.909 282.008 231.12C282.638 232.33 282.954 233.706 282.954 235.249C282.954 236.792 282.638 238.159 282.008 239.353C281.377 240.546 280.41 241.483 279.106 242.165C277.802 242.838 276.136 243.175 274.107 243.175H266.948V240.311H274.005C275.403 240.311 276.528 240.107 277.38 239.698C278.241 239.289 278.863 238.709 279.246 237.959C279.638 237.201 279.835 236.297 279.835 235.249C279.835 234.201 279.638 233.284 279.246 232.5C278.854 231.716 278.228 231.111 277.367 230.685C276.506 230.25 275.369 230.033 273.954 230.033H268.38V253.402H265.21ZM277.533 241.641L283.977 253.402H280.295L273.954 241.641H277.533ZM289.311 253.402H285.987L295.6 227.221H298.873L308.487 253.402H305.163L297.339 231.363H297.135L289.311 253.402ZM290.538 243.175H303.936V245.988H290.538V243.175ZM311.178 227.221L318.951 249.26H319.257L327.03 227.221H330.354L320.74 253.402H317.468L307.854 227.221H311.178ZM334.432 253.402V227.221H350.233V230.033H337.603V238.88H349.415V241.692H337.603V250.59H350.438V253.402H334.432ZM355.948 253.402V227.221H359.118V250.59H371.289V253.402H355.948Z" fill="url(#paint21_linear_1629_27762)"/>
<path d="M411.434 284.863H207.778C207.372 284.863 206.97 284.783 206.595 284.628C206.22 284.473 205.88 284.245 205.593 283.958C205.306 283.671 205.078 283.331 204.923 282.956C204.767 282.581 204.687 282.179 204.688 281.773C204.687 281.367 204.767 280.966 204.923 280.591C205.078 280.216 205.306 279.875 205.593 279.588C205.88 279.301 206.22 279.074 206.595 278.918C206.97 278.763 207.372 278.683 207.778 278.683H411.434C411.84 278.683 412.242 278.763 412.617 278.918C412.992 279.074 413.333 279.301 413.62 279.588C413.906 279.875 414.134 280.216 414.289 280.591C414.445 280.966 414.525 281.367 414.525 281.773C414.525 282.179 414.445 282.581 414.289 282.956C414.134 283.331 413.906 283.671 413.62 283.958C413.333 284.245 412.992 284.473 412.617 284.628C412.242 284.783 411.84 284.863 411.434 284.863Z" fill="white"/>
<path d="M411.434 300.325H207.778C206.96 300.325 206.176 300.001 205.597 299.424C205.017 298.847 204.691 298.064 204.688 297.247C204.688 296.427 205.013 295.641 205.593 295.062C206.172 294.482 206.958 294.157 207.778 294.157H411.434C411.84 294.157 412.242 294.237 412.617 294.392C412.992 294.547 413.333 294.775 413.62 295.062C413.906 295.349 414.134 295.689 414.289 296.064C414.445 296.439 414.525 296.841 414.525 297.247C414.522 298.064 414.195 298.847 413.615 299.424C413.036 300.001 412.252 300.325 411.434 300.325Z" fill="white"/>
<path d="M251.632 315.799H207.778C206.958 315.799 206.172 315.474 205.593 314.894C205.013 314.315 204.688 313.529 204.688 312.709C204.688 311.89 205.013 311.104 205.593 310.524C206.172 309.945 206.958 309.619 207.778 309.619H251.632C252.451 309.619 253.237 309.945 253.817 310.524C254.396 311.104 254.722 311.89 254.722 312.709C254.722 313.529 254.396 314.315 253.817 314.894C253.237 315.474 252.451 315.799 251.632 315.799Z" fill="white"/>
<path d="M331.044 315.799H287.19C286.371 315.796 285.587 315.47 285.008 314.891C284.429 314.312 284.103 313.528 284.1 312.709C284.103 311.891 284.429 311.106 285.008 310.528C285.587 309.949 286.371 309.622 287.19 309.619H331.044C331.863 309.619 332.649 309.945 333.229 310.524C333.808 311.104 334.134 311.89 334.134 312.709C334.134 313.115 334.054 313.517 333.899 313.892C333.743 314.267 333.516 314.607 333.229 314.894C332.942 315.181 332.601 315.409 332.226 315.564C331.851 315.719 331.45 315.799 331.044 315.799Z" fill="white"/>
<path d="M410.458 315.799H366.615C366.21 315.799 365.808 315.719 365.433 315.564C365.058 315.409 364.717 315.181 364.43 314.894C364.144 314.607 363.916 314.267 363.761 313.892C363.605 313.517 363.525 313.115 363.525 312.709C363.525 312.303 363.605 311.902 363.761 311.527C363.916 311.152 364.144 310.811 364.43 310.524C364.717 310.237 365.058 310.01 365.433 309.854C365.808 309.699 366.21 309.619 366.615 309.619H410.458C410.864 309.619 411.266 309.699 411.64 309.854C412.015 310.01 412.356 310.237 412.643 310.524C412.93 310.811 413.157 311.152 413.313 311.527C413.468 311.902 413.548 312.303 413.548 312.709C413.548 313.115 413.468 313.517 413.313 313.892C413.157 314.267 412.93 314.607 412.643 314.894C412.356 315.181 412.015 315.409 411.64 315.564C411.266 315.719 410.864 315.799 410.458 315.799Z" fill="white"/>
<path d="M479.138 115.743C479.138 112.605 477.893 109.596 475.675 107.377C473.458 105.157 470.45 103.908 467.312 103.905C466.917 103.905 466.546 103.905 466.151 103.905C466.5 102.094 466.679 100.255 466.685 98.4105C466.696 91.2119 464.038 84.2649 459.225 78.9118C454.412 73.5586 447.786 70.1792 440.627 69.4266C433.468 68.674 426.284 70.6016 420.463 74.8369C414.642 79.0722 410.598 85.3147 409.111 92.3581C406.651 91.4777 404.03 91.1405 401.427 91.3694C398.824 91.5984 396.302 92.3882 394.034 93.6845C391.765 94.9807 389.804 96.7528 388.285 98.8789C386.767 101.005 385.726 103.435 385.236 106.001C384.745 108.567 384.816 111.21 385.444 113.746C386.071 116.282 387.241 118.653 388.871 120.694C390.502 122.736 392.555 124.4 394.89 125.573C397.224 126.745 399.786 127.399 402.397 127.488H467.452C470.55 127.451 473.51 126.2 475.696 124.004C477.881 121.808 479.117 118.841 479.138 115.743Z" fill="white"/>
<path d="M423.736 96.2736C423.787 96.1624 423.868 96.0682 423.971 96.0021C424.074 95.936 424.194 95.9009 424.316 95.9009C424.439 95.9009 424.559 95.936 424.662 96.0021C424.764 96.0682 424.846 96.1624 424.897 96.2736L428.475 102.465L432.053 108.657C432.108 108.755 432.136 108.865 432.136 108.976C432.135 109.088 432.104 109.197 432.048 109.294C431.992 109.39 431.911 109.47 431.814 109.525C431.717 109.581 431.607 109.61 431.496 109.61H417.16C417.048 109.612 416.938 109.583 416.84 109.528C416.743 109.472 416.662 109.392 416.606 109.295C416.551 109.197 416.522 109.087 416.523 108.975C416.525 108.863 416.556 108.753 416.614 108.657L420.192 102.465L423.736 96.2736Z" fill="url(#paint22_linear_1629_27762)"/>
<path d="M427.243 107.414H421.771V136.491H427.243V107.414Z" fill="url(#paint23_linear_1629_27762)"/>
<path d="M448.561 95.9595H443.09V125.037H448.561V95.9595Z" fill="url(#paint24_linear_1629_27762)"/>
<path d="M445.078 136.166C445.135 136.262 445.215 136.342 445.312 136.398C445.409 136.453 445.518 136.483 445.63 136.483C445.742 136.483 445.851 136.453 445.948 136.398C446.045 136.342 446.126 136.262 446.182 136.166L449.76 129.974L453.326 123.782C453.381 123.686 453.409 123.577 453.409 123.466C453.408 123.355 453.379 123.247 453.324 123.151C453.269 123.055 453.19 122.975 453.095 122.918C452.999 122.862 452.891 122.831 452.78 122.83H438.48C438.369 122.831 438.261 122.862 438.166 122.918C438.07 122.975 437.991 123.055 437.936 123.151C437.881 123.247 437.852 123.355 437.852 123.466C437.851 123.577 437.88 123.686 437.934 123.782L441.5 129.974L445.078 136.166Z" fill="url(#paint25_linear_1629_27762)"/>
<defs>
<linearGradient id="paint0_linear_1629_27762" x1="313.373" y1="0.645996" x2="313.373" y2="500.646" gradientUnits="userSpaceOnUse">
<stop stop-color="#0160E7"/>
<stop offset="1" stop-color="#013681"/>
</linearGradient>
<linearGradient id="paint1_linear_1629_27762" x1="177.889" y1="375.452" x2="177.889" y2="426.195" gradientUnits="userSpaceOnUse">
<stop stop-color="#0160E7"/>
<stop offset="1" stop-color="#013681"/>
</linearGradient>
<linearGradient id="paint2_linear_1629_27762" x1="207.836" y1="365.915" x2="207.836" y2="372.559" gradientUnits="userSpaceOnUse">
<stop stop-color="#0160E7"/>
<stop offset="1" stop-color="#013681"/>
</linearGradient>
<linearGradient id="paint3_linear_1629_27762" x1="207.836" y1="396.002" x2="207.836" y2="402.647" gradientUnits="userSpaceOnUse">
<stop stop-color="#0160E7"/>
<stop offset="1" stop-color="#013681"/>
</linearGradient>
<linearGradient id="paint4_linear_1629_27762" x1="207.836" y1="426.079" x2="207.836" y2="432.724" gradientUnits="userSpaceOnUse">
<stop stop-color="#0160E7"/>
<stop offset="1" stop-color="#013681"/>
</linearGradient>
<linearGradient id="paint5_linear_1629_27762" x1="188.986" y1="78.7043" x2="236.859" y2="126.578" gradientUnits="userSpaceOnUse">
<stop stop-color="#0160E7"/>
<stop offset="1" stop-color="#013681"/>
</linearGradient>
<linearGradient id="paint6_linear_1629_27762" x1="128.118" y1="148.422" x2="149.328" y2="169.631" gradientUnits="userSpaceOnUse">
<stop stop-color="#0160E7"/>
<stop offset="1" stop-color="#013681"/>
</linearGradient>
<linearGradient id="paint7_linear_1629_27762" x1="503.372" y1="239.15" x2="503.372" y2="279.81" gradientUnits="userSpaceOnUse">
<stop stop-color="#0160E7"/>
<stop offset="1" stop-color="#013681"/>
</linearGradient>
<linearGradient id="paint8_linear_1629_27762" x1="323.688" y1="87.9932" x2="323.688" y2="106.089" gradientUnits="userSpaceOnUse">
<stop stop-color="#0160E7"/>
<stop offset="1" stop-color="#013681"/>
</linearGradient>
<linearGradient id="paint9_linear_1629_27762" x1="126.216" y1="227.882" x2="126.216" y2="237.431" gradientUnits="userSpaceOnUse">
<stop stop-color="#0160E7"/>
<stop offset="1" stop-color="#013681"/>
</linearGradient>
<linearGradient id="paint10_linear_1629_27762" x1="245.765" y1="433.746" x2="245.765" y2="443.272" gradientUnits="userSpaceOnUse">
<stop stop-color="#0160E7"/>
<stop offset="1" stop-color="#013681"/>
</linearGradient>
<linearGradient id="paint11_linear_1629_27762" x1="438.343" y1="385.129" x2="438.343" y2="412.522" gradientUnits="userSpaceOnUse">
<stop stop-color="#0160E7"/>
<stop offset="1" stop-color="#013681"/>
</linearGradient>
<linearGradient id="paint12_linear_1629_27762" x1="460.311" y1="390.194" x2="460.311" y2="412.522" gradientUnits="userSpaceOnUse">
<stop stop-color="#0160E7"/>
<stop offset="1" stop-color="#013681"/>
</linearGradient>
<linearGradient id="paint13_linear_1629_27762" x1="330.174" y1="393.632" x2="330.174" y2="403.704" gradientUnits="userSpaceOnUse">
<stop stop-color="#0160E7"/>
<stop offset="1" stop-color="#013681"/>
</linearGradient>
<linearGradient id="paint14_linear_1629_27762" x1="315.849" y1="421.235" x2="315.849" y2="428.019" gradientUnits="userSpaceOnUse">
<stop stop-color="#0160E7"/>
<stop offset="1" stop-color="#013681"/>
</linearGradient>
<linearGradient id="paint15_linear_1629_27762" x1="330.406" y1="421.235" x2="330.406" y2="428.019" gradientUnits="userSpaceOnUse">
<stop stop-color="#0160E7"/>
<stop offset="1" stop-color="#013681"/>
</linearGradient>
<linearGradient id="paint16_linear_1629_27762" x1="344.974" y1="421.235" x2="344.974" y2="428.019" gradientUnits="userSpaceOnUse">
<stop stop-color="#0160E7"/>
<stop offset="1" stop-color="#013681"/>
</linearGradient>
<linearGradient id="paint17_linear_1629_27762" x1="482.402" y1="163.64" x2="482.402" y2="176.871" gradientUnits="userSpaceOnUse">
<stop stop-color="#0160E7"/>
<stop offset="1" stop-color="#013681"/>
</linearGradient>
<linearGradient id="paint18_linear_1629_27762" x1="481.897" y1="170.25" x2="481.897" y2="171.25" gradientUnits="userSpaceOnUse">
<stop stop-color="#0160E7"/>
<stop offset="1" stop-color="#013681"/>
</linearGradient>
<linearGradient id="paint19_linear_1629_27762" x1="103.194" y1="295.035" x2="114.488" y2="306.33" gradientUnits="userSpaceOnUse">
<stop stop-color="#0160E7"/>
<stop offset="1" stop-color="#013681"/>
</linearGradient>
<linearGradient id="paint20_linear_1629_27762" x1="310.497" y1="171.528" x2="310.497" y2="198.41" gradientUnits="userSpaceOnUse">
<stop stop-color="#0160E7"/>
<stop offset="1" stop-color="#013681"/>
</linearGradient>
<linearGradient id="paint21_linear_1629_27762" x1="318.102" y1="218.402" x2="318.102" y2="275.376" gradientUnits="userSpaceOnUse">
<stop stop-color="#0160E7"/>
<stop offset="1" stop-color="#013681"/>
</linearGradient>
<linearGradient id="paint22_linear_1629_27762" x1="424.33" y1="95.9009" x2="424.33" y2="109.61" gradientUnits="userSpaceOnUse">
<stop stop-color="#0160E7"/>
<stop offset="1" stop-color="#013681"/>
</linearGradient>
<linearGradient id="paint23_linear_1629_27762" x1="424.507" y1="107.414" x2="424.507" y2="136.491" gradientUnits="userSpaceOnUse">
<stop stop-color="#0160E7"/>
<stop offset="1" stop-color="#013681"/>
</linearGradient>
<linearGradient id="paint24_linear_1629_27762" x1="445.826" y1="95.9595" x2="445.826" y2="125.037" gradientUnits="userSpaceOnUse">
<stop stop-color="#0160E7"/>
<stop offset="1" stop-color="#013681"/>
</linearGradient>
<linearGradient id="paint25_linear_1629_27762" x1="445.63" y1="122.83" x2="445.63" y2="136.483" gradientUnits="userSpaceOnUse">
<stop stop-color="#0160E7"/>
<stop offset="1" stop-color="#013681"/>
</linearGradient>
</defs>
</svg>
