<svg width="626" height="501" viewBox="0 0 626 501" fill="none" xmlns="http://www.w3.org/2000/svg">
<path opacity="0.1" d="M3.94355 224.901C-14.9132 150.776 39.602 115.856 69.2168 107.662C93.3915 101.989 164.586 81.9443 255.969 47.1506C347.352 12.3569 428.218 4.91911 457.228 5.54943C650.147 -33.7826 637.939 180.779 607.719 292.976C546.798 530.481 321.242 516.74 216.08 480.181C68.1271 454.464 13.0087 299.279 3.94355 224.901Z" fill="url(#paint0_linear_222_257)"/>
<path opacity="0.3" d="M477.697 407.213C468.778 416.6 460.358 422.65 453.684 427.421C375.362 483.617 282.693 467.229 263 463.238C233.919 457.328 177.707 445.914 137.056 398.122C75.5893 325.802 85.1633 211.881 132.846 136.677C141.578 122.924 187.655 46.5659 281.321 34.3256C338.001 26.919 404.084 41.8569 451.938 81.9461C552.387 166.101 545.23 336.109 477.697 407.213Z" fill="url(#paint1_linear_222_257)"/>
<path opacity="0.74" d="M528.514 139.718C528.28 137.613 524.663 136.989 523.649 138.876C513.857 157.072 486.273 204.022 451.564 225.977C395.04 261.7 351.068 326.816 377.435 367.825C377.435 367.81 554.741 368.34 528.514 139.718Z" fill="url(#paint2_linear_222_257)"/>
<path opacity="0.43" d="M519.315 166.381C519.143 167.021 518.941 167.535 518.754 168.097L518.146 169.734C517.725 170.825 517.319 171.917 516.898 172.993C516.041 175.16 515.167 177.312 514.263 179.479C512.47 183.783 510.599 188.055 508.696 192.312C504.845 200.795 500.744 209.184 496.471 217.463C487.942 234.054 478.431 250.13 468.139 265.692C462.978 273.473 457.521 281.035 451.86 288.458L447.541 293.962C446.824 294.882 446.091 295.786 445.343 296.691L443.113 299.388L440.883 302.086C440.135 302.975 439.355 303.848 438.591 304.737C437.047 306.499 435.55 308.276 433.975 310.007C427.707 316.915 421.111 323.542 414.266 329.888C410.758 332.96 407.296 336.094 403.616 338.978C400.045 341.988 396.225 344.685 392.498 347.461C392.389 347.554 392.218 347.523 392.124 347.414C392.031 347.305 392.062 347.133 392.171 347.04C399.578 341.411 406.719 335.439 413.502 329.093C420.238 322.699 426.725 316.026 432.9 309.071C439.028 302.086 444.968 294.929 450.597 287.522C456.211 280.115 461.575 272.522 466.767 264.803C471.913 257.069 476.871 249.195 481.612 241.196L485.136 235.177L488.566 229.096C490.827 225.026 493.072 220.956 495.24 216.84C499.606 208.622 503.738 200.296 507.714 191.876C509.679 187.666 511.628 183.44 513.483 179.167C514.419 177.031 515.323 174.895 516.212 172.743C516.664 171.667 517.101 170.591 517.537 169.515L518.177 167.894C518.379 167.364 518.598 166.787 518.754 166.303L518.769 166.225C518.816 166.085 518.956 166.007 519.097 166.054C519.268 166.101 519.346 166.241 519.315 166.381Z" fill="white"/>
<path d="M494.195 50.1214C493.758 47.7201 490.39 47.5018 489.657 49.8251C482.547 72.2944 462.058 130.612 432.494 160.94C384.359 210.322 350.71 291.997 379.058 335.798C379.073 335.798 541.566 311.395 494.195 50.1214Z" fill="url(#paint3_linear_222_257)"/>
<path opacity="0.43" d="M488.519 82.3205C488.441 83.0221 488.301 83.6458 488.191 84.2851L487.817 86.2031L487.037 90.0233C486.492 92.5649 485.93 95.1066 485.353 97.6482C484.2 102.731 482.968 107.784 481.705 112.836C479.148 122.94 476.341 132.966 473.363 142.945C470.4 152.94 467.172 162.842 463.757 172.681L462.479 176.376L461.153 180.056C460.265 182.504 459.407 184.968 458.471 187.401L455.711 194.714L452.842 201.98C445.093 221.331 436.33 240.291 426.241 258.551C425.633 259.705 424.978 260.827 424.323 261.95L422.358 265.334L420.394 268.717C419.723 269.84 419.022 270.931 418.351 272.054C416.963 274.268 415.638 276.514 414.219 278.697L409.9 285.214C403.99 293.806 397.706 302.133 390.861 310.007C390.767 310.116 390.596 310.132 390.487 310.038C390.378 309.945 390.362 309.789 390.455 309.664C397.082 301.649 403.242 293.276 408.995 284.606L413.221 278.057C414.624 275.874 415.919 273.613 417.275 271.399C417.946 270.292 418.632 269.185 419.287 268.062L421.205 264.679L423.122 261.295C423.762 260.172 424.401 259.034 425.009 257.88L428.689 251.004C429.905 248.712 431.044 246.373 432.229 244.065C432.806 242.911 433.414 241.757 433.991 240.588L435.675 237.079L437.359 233.571C437.92 232.401 438.481 231.232 439.012 230.047C443.409 220.629 447.432 211.039 451.361 201.419C459.142 182.13 465.925 162.452 472.1 142.587C475.171 132.654 478.04 122.644 480.722 112.602C482.063 107.581 483.373 102.544 484.605 97.4923C485.213 94.9662 485.821 92.4402 486.398 89.8986L487.24 86.0939L487.646 84.1916C487.77 83.5679 487.911 82.8974 487.989 82.3205L488.004 82.2581C488.02 82.1177 488.16 82.0086 488.3 82.0398C488.425 82.0398 488.534 82.1801 488.519 82.3205Z" fill="white"/>
<path d="M113.87 33.6553H444.36C453.372 33.6553 460.623 43.9933 460.467 56.5767L455.82 414.978C455.602 431.849 445.67 445.306 425.368 445.088L105.262 439.474C104.685 439.318 97.5906 429.277 97.6062 416.943L97.7622 56.1557C97.7622 43.7282 104.982 33.6553 113.87 33.6553Z" fill="url(#paint4_linear_222_257)"/>
<path opacity="0.6" d="M121.151 43.3542H438.512C447.166 43.3542 454.136 53.1777 453.98 65.1374L449.521 405.669C449.318 421.699 439.775 434.485 428.19 434.282L120.824 428.949C112.357 428.809 105.543 419.266 105.543 407.54L105.683 64.7476C105.699 52.9282 112.622 43.3542 121.151 43.3542Z" fill="white"/>
<path d="M453.497 94.374H105.543V46.3325C105.543 44.1027 107.352 42.2939 109.582 42.2939H449.677C451.782 42.2939 453.481 43.9936 453.481 46.0986V94.374H453.497Z" fill="url(#paint5_linear_222_257)"/>
<path opacity="0.61" d="M414.733 72.1696L234.215 70.4544C229.958 70.4076 226.543 67.6009 226.528 64.1549V58.1361C226.528 55.4697 229.194 53.3179 232.469 53.3179H416.012C419.255 53.3179 421.797 55.5476 421.563 58.1672L420.69 67.7257C420.487 70.2361 417.868 72.2008 414.733 72.1696Z" fill="white"/>
<path opacity="0.6" d="M437.515 125.497H121.511C119.421 125.497 117.722 123.798 117.722 121.708V111.589C117.722 109.484 119.437 107.784 121.558 107.815L437.546 110.591C439.636 110.606 441.304 112.29 441.304 114.364V121.693C441.304 123.798 439.605 125.497 437.515 125.497Z" fill="white"/>
<path d="M197.027 70.6105C191.928 70.6105 187.78 66.4628 187.78 61.364C187.78 56.2651 191.928 52.1174 197.027 52.1174C202.126 52.1174 206.273 56.2651 206.273 61.364C206.289 66.4628 202.126 70.6105 197.027 70.6105ZM197.027 53.1622C192.505 53.1622 188.825 56.8421 188.825 61.364C188.825 65.8859 192.505 69.5658 197.027 69.5658C201.549 69.5658 205.229 65.8859 205.229 61.364C205.229 56.8421 201.549 53.1622 197.027 53.1622Z" fill="white"/>
<path d="M166.839 71.3278C161.74 71.3278 157.592 67.1801 157.592 62.0813C157.592 56.9824 161.74 52.8347 166.839 52.8347C171.938 52.8347 176.085 56.9824 176.085 62.0813C176.085 67.1645 171.938 71.3278 166.839 71.3278ZM166.839 53.8794C162.317 53.8794 158.637 57.5593 158.637 62.0813C158.637 66.6032 162.317 70.2831 166.839 70.2831C171.361 70.2831 175.041 66.6032 175.041 62.0813C175.041 57.5438 171.361 53.8794 166.839 53.8794Z" fill="white"/>
<path d="M137.836 71.3278C132.737 71.3278 128.589 67.1801 128.589 62.0813C128.589 56.9824 132.737 52.8347 137.836 52.8347C142.935 52.8347 147.082 56.9824 147.082 62.0813C147.082 67.1645 142.935 71.3278 137.836 71.3278ZM137.836 53.8794C133.314 53.8794 129.634 57.5593 129.634 62.0813C129.634 66.6032 133.314 70.2831 137.836 70.2831C142.358 70.2831 146.038 66.6032 146.038 62.0813C146.022 57.5438 142.342 53.8794 137.836 53.8794Z" fill="white"/>
<path opacity="0.6" d="M312.6 155.997L253.503 155.498C251.647 155.482 250.166 153.97 250.182 152.114L250.197 150.461C250.213 148.652 251.663 147.187 253.472 147.14L312.584 145.674C314.471 145.627 316.03 147.155 316.015 149.058L315.984 152.66C315.952 154.515 314.44 156.012 312.6 155.997Z" fill="white"/>
<path opacity="0.6" d="M325.34 263.384L238.332 262.667C235.385 262.636 233.03 260.235 233.046 257.303L233.763 170.155C233.794 167.27 236.102 164.931 238.987 164.869L324.903 166.506C328.536 166.569 331.452 169.562 331.421 173.195L330.688 258.114C330.673 261.045 328.271 263.4 325.34 263.384Z" fill="white"/>
<path opacity="0.6" d="M202.656 155.997L143.559 155.498C141.703 155.482 140.222 153.97 140.237 152.114L140.253 150.461C140.269 148.652 141.719 147.187 143.528 147.14L202.64 145.674C204.527 145.627 206.086 147.155 206.07 149.058L206.039 152.66C206.008 154.515 204.496 156.012 202.656 155.997Z" fill="white"/>
<path opacity="0.6" d="M215.395 263.384L128.387 262.667C125.44 262.636 123.085 260.235 123.101 257.303L123.818 170.155C123.849 167.27 126.157 164.931 129.042 164.869L214.958 166.506C218.591 166.569 221.507 169.562 221.476 173.195L220.743 258.114C220.727 261.045 218.326 263.4 215.395 263.384Z" fill="white"/>
<path opacity="0.6" d="M422.873 158.055L363.776 157.556C361.92 157.54 360.439 156.028 360.455 154.172L360.47 152.519C360.486 150.711 361.936 149.245 363.745 149.198L422.857 147.732C424.744 147.686 426.303 149.214 426.288 151.116L426.256 154.718C426.225 156.574 424.713 158.071 422.873 158.055Z" fill="white"/>
<path opacity="0.6" d="M435.596 265.443L348.588 264.726C345.641 264.694 343.287 262.293 343.302 259.362L344.02 172.213C344.051 169.329 346.359 166.99 349.243 166.927L435.16 168.564C438.793 168.627 441.709 171.621 441.677 175.254L440.945 260.172C440.945 263.104 438.543 265.458 435.596 265.443Z" fill="white"/>
<path opacity="0.6" d="M438.793 294.118H128.246C127.466 294.118 126.843 293.494 126.843 292.715V280.131C126.843 279.352 127.466 278.728 128.246 278.728H438.793C439.573 278.728 440.196 279.352 440.196 280.131V292.715C440.196 293.494 439.573 294.118 438.793 294.118Z" fill="white"/>
<path opacity="0.6" d="M439.48 318.412H128.933C128.153 318.412 127.529 317.788 127.529 317.008V304.425C127.529 303.645 128.153 303.022 128.933 303.022H439.48C440.259 303.022 440.883 303.645 440.883 304.425V317.008C440.883 317.773 440.259 318.412 439.48 318.412Z" fill="white"/>
<path opacity="0.6" d="M437.171 345.73H126.625C125.845 345.73 125.221 345.107 125.221 344.327V331.744C125.221 330.964 125.845 330.34 126.625 330.34H437.171C437.951 330.34 438.575 330.964 438.575 331.744V344.327C438.575 345.107 437.951 345.73 437.171 345.73Z" fill="white"/>
<path opacity="0.6" d="M437.857 370.009H127.295C126.515 370.009 125.892 369.385 125.892 368.605V356.022C125.892 355.242 126.515 354.618 127.295 354.618H437.842C438.622 354.618 439.245 355.242 439.245 356.022V368.605C439.261 369.385 438.622 370.009 437.857 370.009Z" fill="white"/>
<path opacity="0.6" d="M437.171 395.643H126.625C125.845 395.643 125.221 395.019 125.221 394.24V381.656C125.221 380.877 125.845 380.253 126.625 380.253H437.171C437.951 380.253 438.575 380.877 438.575 381.656V394.24C438.575 395.004 437.951 395.643 437.171 395.643Z" fill="white"/>
<path d="M391.235 255.058C391.064 255.401 385.669 259.19 385.669 259.19C385.669 259.19 381.926 279.819 388.787 289.97C395.648 300.121 419.053 282.049 419.053 282.049C419.053 282.049 432.213 279.991 438.825 254.107C440.337 248.166 430.857 252.688 420.285 253.779C406.672 255.183 391.235 255.058 391.235 255.058Z" fill="url(#paint6_linear_222_257)"/>
<path d="M367.861 319.706C372.352 316.618 377.295 314.295 382.565 312.876C384.546 312.346 395.196 315.433 401.791 315.293C410.835 315.09 420.035 310.974 427.504 312.829C434.911 314.669 440.976 317.086 444.469 319.581C454.947 327.034 461.091 340.928 464.849 354.681C457.754 361.962 448.819 365.206 448.819 365.206L447.167 432.099L407.607 452.338L362.451 429.651L364.072 364.286C364.072 364.286 349.742 357.612 348.682 355.179C347.637 352.747 355.216 328.407 367.861 319.706Z" fill="url(#paint7_linear_222_257)"/>
<path d="M349.352 354.883C349.352 354.883 330.142 408.148 373.942 430.025C383.033 428.809 379.54 413.715 379.54 413.715C379.54 413.715 360.501 409.505 366.224 365.081C360.969 360.746 349.352 354.883 349.352 354.883Z" fill="url(#paint8_linear_222_257)"/>
<path d="M463.914 354.883C463.914 354.883 477.136 410.472 439.324 430.025C430.233 428.809 433.726 413.715 433.726 413.715C433.726 413.715 449.069 406.152 447.042 365.081C452.297 360.746 463.914 354.883 463.914 354.883Z" fill="url(#paint9_linear_222_257)"/>
<path d="M447.884 433.768H362.731C362.295 433.768 361.936 433.409 361.936 432.972V375.981C361.936 375.544 362.295 375.185 362.731 375.185H447.884C448.32 375.185 448.679 375.544 448.679 375.981V432.972C448.663 433.425 448.32 433.768 447.884 433.768Z" fill="url(#paint10_linear_222_257)"/>
<path d="M410.414 391.059C410.866 394.162 409.213 396.984 406.095 397.452C402.992 397.904 400.092 395.768 399.639 392.665C399.187 389.562 400.606 386.474 403.709 386.007C406.828 385.539 409.962 387.956 410.414 391.059Z" fill="url(#paint11_linear_222_257)"/>
<path d="M486.71 451.138C476.777 448.861 453.84 450.078 453.84 450.078L452.905 452.604L451.361 465.172C451.361 465.172 473.206 469.117 483.981 469.101C485.073 469.101 486.086 468.929 487.006 468.649C487.334 468.353 487.661 468.056 487.957 467.713C492.526 462.724 491.201 455.395 486.71 451.138Z" fill="url(#paint12_linear_222_257)"/>
<path d="M487.693 451.387C487.381 451.294 487.053 451.216 486.71 451.138C491.201 455.395 492.527 462.723 487.958 467.713C487.662 468.041 487.334 468.352 487.007 468.649C495.084 466.138 496.035 453.742 487.693 451.387Z" fill="url(#paint13_linear_222_257)"/>
<path d="M447.244 449.376L451.127 449.548C453.217 449.641 455.181 450.655 456.585 452.37C457.988 454.085 458.705 456.362 458.58 458.669C458.487 460.509 457.723 462.24 456.475 463.456C455.228 464.673 453.591 465.296 451.922 465.187L445.981 464.766L447.244 449.376Z" fill="url(#paint14_linear_222_257)"/>
<path d="M316.624 449.937C326.603 447.957 349.509 449.89 349.509 449.89L350.382 452.448L351.614 465.047C351.614 465.047 329.675 468.305 318.916 467.978C317.824 467.947 316.811 467.744 315.906 467.432C315.579 467.12 315.267 466.809 314.971 466.466C310.527 461.335 312.024 454.054 316.624 449.937Z" fill="url(#paint15_linear_222_257)"/>
<path d="M315.641 450.155C315.953 450.077 316.281 449.999 316.624 449.937C312.024 454.054 310.527 461.351 314.971 466.465C315.267 466.808 315.579 467.12 315.906 467.432C307.892 464.657 307.237 452.245 315.641 450.155Z" fill="url(#paint16_linear_222_257)"/>
<path d="M356.12 449.376L352.238 449.423C350.148 449.454 348.152 450.405 346.718 452.073C345.268 453.742 344.488 455.987 344.566 458.31C344.613 460.15 345.33 461.897 346.546 463.16C347.762 464.423 349.384 465.093 351.052 465.031L357.009 464.797L356.12 449.376Z" fill="url(#paint17_linear_222_257)"/>
<path d="M489.486 411.766C484.98 401.412 473.971 399.728 464.6 404.562C464.444 404.78 405.098 435.186 352.752 448.518C354.249 453.321 355.013 458.435 355.185 463.456C355.216 464.579 355.201 465.686 355.138 466.762C395.274 464.704 438.825 451.309 476.263 439.552C487.864 435.826 494.476 423.242 489.486 411.766Z" fill="url(#paint18_linear_222_257)"/>
<path d="M447.541 464.251C447.385 458.466 448.508 453.071 450.925 448.082C450.987 447.848 451.081 447.629 451.143 447.411C448.149 446.491 444.298 445.228 439.215 443.513C402.057 430.789 373.694 417.956 346.64 403.174C336.13 397.436 324.171 401.288 320.818 413.715C317.809 424.817 324.639 433.689 334.415 437.634C368.08 451.153 417.509 463.503 447.588 465.53C447.572 465.093 447.557 464.672 447.541 464.251Z" fill="url(#paint19_linear_222_257)"/>
<path d="M382.565 312.876C382.565 312.876 386.557 330.2 405.97 329.841C425.742 329.483 427.504 312.83 427.504 312.83L414.593 310.07L413.517 295.677L394.104 297.112L393.745 310.771L382.565 312.876Z" fill="url(#paint20_linear_222_257)"/>
<path d="M395.944 253.265C395.944 253.265 375.268 293.323 399.796 303.037C417.104 309.898 427.941 276.436 424.713 267.376C419.708 253.358 416.418 255.027 416.418 255.027L395.944 253.265Z" fill="url(#paint21_linear_222_257)"/>
<path d="M424.713 267.376C424.651 267.205 424.604 267.064 424.557 266.939C424.635 267.672 424.682 268.452 424.682 269.247C424.713 268.686 424.744 268.125 424.76 267.548C424.744 267.485 424.729 267.438 424.713 267.376Z" fill="white"/>
<path d="M424.557 266.94C424.526 266.659 424.495 266.394 424.463 266.129C425.524 267.891 423.481 263.774 424.557 266.94Z" fill="white"/>
<path d="M434.287 242.506C445.373 239.98 437.67 274.253 421.173 268.639C404.676 263.026 396.989 259.564 394.416 264.102C391.843 268.624 387.555 287.164 386.136 277.558C384.811 268.577 383.517 252.126 392.186 248.54C397.113 246.497 401.433 250.926 404.832 249.819C410.056 248.119 415.092 248.057 418.179 249.85C424.073 253.218 427.239 244.112 434.287 242.506Z" fill="url(#paint22_linear_222_257)"/>
<path d="M392.576 270.776C392.576 270.776 389.005 265.38 387.368 270.9C385.731 276.42 386.775 284.061 390.05 280.521C393.34 276.966 392.576 270.776 392.576 270.776Z" fill="url(#paint23_linear_222_257)"/>
<path d="M393.699 227.006H238.691C231.845 227.006 226.294 221.455 226.294 214.61V147.124C226.294 140.123 232.095 134.51 239.096 134.728L394.12 139.686C400.809 139.905 406.127 145.378 406.127 152.083V214.61C406.111 221.455 400.56 227.006 393.699 227.006Z" fill="url(#paint24_linear_222_257)"/>
<path d="M340.465 226.508L361.063 251.394L369.015 226.508H340.465Z" fill="url(#paint25_linear_222_257)"/>
<path d="M297.18 201.356L262.517 183.393V177.702L297.18 159.63V168.939L273.51 180.477L297.18 192.094V201.356Z" fill="white"/>
<path d="M331.109 154.422L313.334 209.371L304.103 209.293L322.143 153.938L331.109 154.422Z" fill="white"/>
<path d="M337.518 192.998L358.896 183.128L337.518 170.576V161.579L368.314 181.195V186.418L337.518 201.964V192.998Z" fill="white"/>
<path d="M167.306 315.215C164.609 309.586 162.675 303.708 162.223 297.299C161.085 281.161 170.472 266.285 177.364 252.392C183.695 239.621 188.404 220.582 167.026 222.266C149.998 223.623 129.962 240.588 127.685 258.301C124.988 279.258 135.185 305.672 123.085 324.711C106.183 351.328 93.9734 345.216 93.9734 390.154C93.9734 409.349 104.608 419.937 116.786 425.768C136.012 434.968 158.933 431.257 174.245 416.428C187.78 403.33 195.826 384.51 193.097 365.611C190.368 346.526 175.384 332.04 167.306 315.215Z" fill="url(#paint26_linear_222_257)"/>
<path d="M153.007 459.854C152.649 459.854 152.337 459.62 152.243 459.262C141.64 416.943 135.871 378.584 135.091 345.247C134.468 318.536 137.025 294.976 142.701 275.188C152.399 241.367 167.618 230.499 168.257 230.047C168.616 229.798 169.115 229.891 169.364 230.25C169.614 230.608 169.52 231.107 169.162 231.357C169.006 231.466 153.678 242.475 144.151 275.843C135.356 306.701 129.883 363.506 153.772 458.888C153.881 459.309 153.616 459.745 153.195 459.854C153.148 459.854 153.085 459.854 153.007 459.854Z" fill="url(#paint27_linear_222_257)"/>
<path d="M184.287 267.844C183.461 267.626 182.556 267.548 181.589 267.657C176.257 268.265 174.074 273.894 172.499 278.291C171.158 282.049 169.583 286.618 170.363 290.703C171.22 295.116 175.898 298.702 179.297 294.227C183.164 289.144 188.949 281.332 188.98 274.596C189.012 271.243 187.141 268.624 184.287 267.844Z" fill="url(#paint28_linear_222_257)"/>
<path d="M243.119 387.067C245.536 371.178 239.751 352.934 236.866 336.125C235.338 327.237 234.636 318.427 236.071 309.462C237.49 300.558 241.669 290.937 237.817 282.065C230.052 264.196 211.575 272.335 200.987 285.776C188.716 301.384 185.347 326.894 180.685 346.541C177.878 358.376 173.637 370.523 172.156 382.592C169.692 402.582 174.214 416.46 183.773 425.831C192.941 434.812 206.912 436.683 218.124 430.431C228.275 424.771 239.221 412.702 243.119 387.067Z" fill="url(#paint29_linear_222_257)"/>
<path d="M200.862 460.993C200.488 460.993 200.145 460.712 200.083 460.338C200.036 460.104 196.029 435.842 195.919 402.379C195.826 371.49 199.132 326.177 215.473 285.792C215.644 285.386 216.097 285.184 216.502 285.355C216.907 285.527 217.11 285.979 216.939 286.384C200.706 326.52 197.416 371.599 197.51 402.348C197.619 435.686 201.611 459.839 201.658 460.073C201.736 460.51 201.439 460.915 201.003 460.977C200.94 460.993 200.909 460.993 200.862 460.993Z" fill="url(#paint30_linear_222_257)"/>
<defs>
<linearGradient id="paint0_linear_222_257" x1="312.568" y1="0.79883" x2="312.568" y2="500.799" gradientUnits="userSpaceOnUse">
<stop stop-color="#0160E7"/>
<stop offset="1" stop-color="#013681"/>
</linearGradient>
<linearGradient id="paint1_linear_222_257" x1="584.441" y1="597.243" x2="196.443" y2="115.374" gradientUnits="userSpaceOnUse">
<stop stop-color="#B37CFF"/>
<stop offset="1" stop-color="#F895E7"/>
</linearGradient>
<linearGradient id="paint2_linear_222_257" x1="506.439" y1="156.356" x2="408.781" y2="453.194" gradientUnits="userSpaceOnUse">
<stop stop-color="#B37CFF"/>
<stop offset="1" stop-color="#F895E7"/>
</linearGradient>
<linearGradient id="paint3_linear_222_257" x1="328.776" y1="305.644" x2="523.45" y2="122.048" gradientUnits="userSpaceOnUse">
<stop stop-color="#A737D5"/>
<stop offset="1" stop-color="#EF497A"/>
</linearGradient>
<linearGradient id="paint4_linear_222_257" x1="102.672" y1="436.229" x2="736.982" y2="-291.113" gradientUnits="userSpaceOnUse">
<stop stop-color="#53D8FF"/>
<stop offset="1" stop-color="#3840F7"/>
</linearGradient>
<linearGradient id="paint5_linear_222_257" x1="343.991" y1="-127.485" x2="242.557" y2="183.257" gradientUnits="userSpaceOnUse">
<stop stop-color="#53D8FF"/>
<stop offset="1" stop-color="#3840F7"/>
</linearGradient>
<linearGradient id="paint6_linear_222_257" x1="420.797" y1="245.751" x2="386.526" y2="301.185" gradientUnits="userSpaceOnUse">
<stop stop-color="#2B3582"/>
<stop offset="1" stop-color="#150E42"/>
</linearGradient>
<linearGradient id="paint7_linear_222_257" x1="405.188" y1="308.577" x2="416.532" y2="651.733" gradientUnits="userSpaceOnUse">
<stop stop-color="#FDF53F"/>
<stop offset="1" stop-color="#D93C65"/>
</linearGradient>
<linearGradient id="paint8_linear_222_257" x1="339.538" y1="340.565" x2="414.698" y2="522.122" gradientUnits="userSpaceOnUse">
<stop stop-color="#F9B776"/>
<stop offset="1" stop-color="#F47960"/>
</linearGradient>
<linearGradient id="paint9_linear_222_257" x1="472.78" y1="340.175" x2="397.62" y2="521.731" gradientUnits="userSpaceOnUse">
<stop stop-color="#F9B776"/>
<stop offset="1" stop-color="#F47960"/>
</linearGradient>
<linearGradient id="paint10_linear_222_257" x1="406.302" y1="363.974" x2="402.39" y2="522.426" gradientUnits="userSpaceOnUse">
<stop stop-color="#2B3582"/>
<stop offset="1" stop-color="#150E42"/>
</linearGradient>
<linearGradient id="paint11_linear_222_257" x1="414.143" y1="331.094" x2="386.914" y2="512.308" gradientUnits="userSpaceOnUse">
<stop stop-color="#53D8FF"/>
<stop offset="1" stop-color="#3840F7"/>
</linearGradient>
<linearGradient id="paint12_linear_222_257" x1="451.411" y1="459.239" x2="492.484" y2="459.556" gradientUnits="userSpaceOnUse">
<stop stop-color="#2B3582"/>
<stop offset="1" stop-color="#150E42"/>
</linearGradient>
<linearGradient id="paint13_linear_222_257" x1="551.516" y1="405.27" x2="455.531" y2="487.066" gradientUnits="userSpaceOnUse">
<stop stop-color="#53D8FF"/>
<stop offset="1" stop-color="#3840F7"/>
</linearGradient>
<linearGradient id="paint14_linear_222_257" x1="478.521" y1="385.184" x2="435.166" y2="502.615" gradientUnits="userSpaceOnUse">
<stop stop-color="#F9B776"/>
<stop offset="1" stop-color="#F47960"/>
</linearGradient>
<linearGradient id="paint15_linear_222_257" x1="351.731" y1="459.036" x2="310.649" y2="458.215" gradientUnits="userSpaceOnUse">
<stop stop-color="#2B3582"/>
<stop offset="1" stop-color="#150E42"/>
</linearGradient>
<linearGradient id="paint16_linear_222_257" x1="257.184" y1="319.419" x2="335.641" y2="509.721" gradientUnits="userSpaceOnUse">
<stop stop-color="#53D8FF"/>
<stop offset="1" stop-color="#3840F7"/>
</linearGradient>
<linearGradient id="paint17_linear_222_257" x1="391.659" y1="349.796" x2="348.281" y2="467.289" gradientUnits="userSpaceOnUse">
<stop stop-color="#F9B776"/>
<stop offset="1" stop-color="#F47960"/>
</linearGradient>
<linearGradient id="paint18_linear_222_257" x1="496.898" y1="382.917" x2="384.191" y2="467.582" gradientUnits="userSpaceOnUse">
<stop stop-color="#7C27DD"/>
<stop offset="1" stop-color="#2B41D9"/>
</linearGradient>
<linearGradient id="paint19_linear_222_257" x1="395.031" y1="458.832" x2="365.492" y2="383.507" gradientUnits="userSpaceOnUse">
<stop stop-color="#7C27DD"/>
<stop offset="1" stop-color="#2B41D9"/>
</linearGradient>
<linearGradient id="paint20_linear_222_257" x1="405.518" y1="355.556" x2="404.518" y2="268.545" gradientUnits="userSpaceOnUse">
<stop stop-color="#F9B776"/>
<stop offset="1" stop-color="#F47960"/>
</linearGradient>
<linearGradient id="paint21_linear_222_257" x1="401.346" y1="301.905" x2="415.515" y2="232.935" gradientUnits="userSpaceOnUse">
<stop stop-color="#F9B776"/>
<stop offset="1" stop-color="#F47960"/>
</linearGradient>
<linearGradient id="paint22_linear_222_257" x1="419.398" y1="244.842" x2="385.429" y2="299.789" gradientUnits="userSpaceOnUse">
<stop stop-color="#2B3582"/>
<stop offset="1" stop-color="#150E42"/>
</linearGradient>
<linearGradient id="paint23_linear_222_257" x1="387.101" y1="309.611" x2="395.008" y2="199.558" gradientUnits="userSpaceOnUse">
<stop stop-color="#F9B776"/>
<stop offset="1" stop-color="#F47960"/>
</linearGradient>
<linearGradient id="paint24_linear_222_257" x1="291.652" y1="99.4639" x2="363.655" y2="345.539" gradientUnits="userSpaceOnUse">
<stop stop-color="#2B3582"/>
<stop offset="1" stop-color="#150E42"/>
</linearGradient>
<linearGradient id="paint25_linear_222_257" x1="315.525" y1="92.479" x2="387.528" y2="338.555" gradientUnits="userSpaceOnUse">
<stop stop-color="#2B3582"/>
<stop offset="1" stop-color="#150E42"/>
</linearGradient>
<linearGradient id="paint26_linear_222_257" x1="86.7397" y1="599.407" x2="167.167" y2="285.18" gradientUnits="userSpaceOnUse">
<stop stop-color="#7A2DDB"/>
<stop offset="1" stop-color="#7077FF"/>
</linearGradient>
<linearGradient id="paint27_linear_222_257" x1="135.003" y1="344.885" x2="169.504" y2="344.885" gradientUnits="userSpaceOnUse">
<stop stop-color="#2B3582"/>
<stop offset="1" stop-color="#150E42"/>
</linearGradient>
<linearGradient id="paint28_linear_222_257" x1="486.74" y1="-11.5192" x2="254.812" y2="209.187" gradientUnits="userSpaceOnUse">
<stop stop-color="#7A2DDB"/>
<stop offset="1" stop-color="#7077FF"/>
</linearGradient>
<linearGradient id="paint29_linear_222_257" x1="173.223" y1="465.161" x2="222.692" y2="334" gradientUnits="userSpaceOnUse">
<stop stop-color="#A737D5"/>
<stop offset="1" stop-color="#EF497A"/>
</linearGradient>
<linearGradient id="paint30_linear_222_257" x1="193.06" y1="369.507" x2="221.431" y2="376.179" gradientUnits="userSpaceOnUse">
<stop stop-color="#2B3582"/>
<stop offset="1" stop-color="#150E42"/>
</linearGradient>
</defs>
</svg>
