<svg width="660" height="526" viewBox="0 0 660 526" fill="none" xmlns="http://www.w3.org/2000/svg">
<path opacity="0.1" d="M4.09298 235.756C-15.8197 157.775 41.7484 121.04 73.0215 112.419C98.55 106.452 173.732 85.3651 270.232 48.7621C366.732 12.1591 452.127 4.33453 482.762 4.99763C686.484 -36.3797 673.592 189.339 641.68 307.37C577.347 557.225 339.161 542.77 228.109 504.31C71.8709 477.256 13.6658 314.001 4.09298 235.756Z" fill="url(#paint0_linear_617_262)"/>
<path d="M580 404.446H80V404.696H580V404.446Z" fill="#EBEBEB"/>
<path d="M529.901 420.542H496.779V420.792H529.901V420.542Z" fill="#EBEBEB"/>
<path d="M411.22 423.256H402.527V423.506H411.22V423.256Z" fill="#EBEBEB"/>
<path d="M495.778 411.256H476.586V411.506H495.778V411.256Z" fill="#EBEBEB"/>
<path d="M175.652 412.936H132.459V413.186H175.652V412.936Z" fill="#EBEBEB"/>
<path d="M190.89 412.936H184.557V413.186H190.89V412.936Z" fill="#EBEBEB"/>
<path d="M305.147 417.159H211.471V417.409H305.147V417.159Z" fill="#EBEBEB"/>
<path d="M317.014 359.848H123.915C120.768 359.848 118.207 357.287 118.207 354.14V82.708C118.207 79.561 120.768 77 123.915 77H317.014C320.16 77 322.721 79.561 322.721 82.708V354.14C322.721 357.287 320.16 359.848 317.014 359.848ZM123.915 77.251C120.905 77.251 118.457 79.699 118.457 82.709V354.141C118.457 357.151 120.905 359.599 123.915 359.599H317.014C320.023 359.599 322.471 357.151 322.471 354.141V82.708C322.471 79.699 320.023 77.25 317.014 77.25L123.915 77.251Z" fill="#EBEBEB"/>
<path d="M533.311 359.848H340.213C337.066 359.848 334.506 357.287 334.506 354.14V82.708C334.506 79.561 337.067 77 340.213 77H533.311C536.459 77 539.019 79.561 539.019 82.708V354.14C539.02 357.287 536.459 359.848 533.311 359.848ZM340.213 77.251C337.204 77.251 334.756 79.699 334.756 82.709V354.141C334.756 357.151 337.204 359.599 340.213 359.599H533.311C536.321 359.599 538.769 357.151 538.769 354.141V82.708C538.769 79.699 536.321 77.25 533.311 77.25L340.213 77.251Z" fill="#EBEBEB"/>
<path d="M240.662 124.441H169.408V366.152H240.662V124.441Z" fill="#FAFAFA"/>
<path d="M230.051 124.441H225.888L201.035 366.152H205.199L230.051 124.441Z" fill="#F5F5F5"/>
<path d="M239.4 125.376H168.953V127.506H239.4V125.376Z" fill="#E0E0E0"/>
<path d="M239.4 364.037H168.953V368.595H239.4V364.037Z" fill="#EBEBEB"/>
<path d="M238.229 368.393H171.662V368.595H238.229V368.393Z" fill="#EBEBEB"/>
<path d="M171.662 125.376H238.229V368.393H242.216V122.389H167.674V368.393H171.662V125.376Z" fill="#EBEBEB"/>
<path d="M319.949 124.441H248.695V366.152H319.949V124.441Z" fill="#FAFAFA"/>
<path d="M300.184 124.441H277.467L252.615 366.152H275.331L300.184 124.441Z" fill="#F5F5F5"/>
<path d="M320.685 125.376H248.238V127.506H320.685V125.376Z" fill="#E0E0E0"/>
<path d="M320.685 364.037H248.238V368.595H320.685V364.037Z" fill="#EBEBEB"/>
<path d="M317.514 368.393H250.947V368.595H317.514V368.393Z" fill="#EBEBEB"/>
<path d="M250.948 125.376H317.515V368.393H321.502V122.389H246.961V368.393H250.948V125.376Z" fill="#EBEBEB"/>
<path d="M397.236 124.441H327.982V366.152H397.236V124.441Z" fill="#FAFAFA"/>
<path d="M367.22 124.441H363.057L338.205 366.152H342.368L367.22 124.441Z" fill="#F5F5F5"/>
<path d="M397.974 125.376H327.527V127.506H397.974V125.376Z" fill="#E0E0E0"/>
<path d="M397.974 364.037H327.527V368.595H397.974V364.037Z" fill="#EBEBEB"/>
<path d="M396.803 368.393H330.236V368.595H396.803V368.393Z" fill="#EBEBEB"/>
<path d="M330.236 125.376H396.802V368.393H400.79V122.389H326.248V368.393H330.236V125.376Z" fill="#EBEBEB"/>
<path d="M478.525 124.441H407.271V366.152H478.525V124.441Z" fill="#FAFAFA"/>
<path d="M471.553 124.441H448.836L423.984 366.152H446.701L471.553 124.441Z" fill="#F5F5F5"/>
<path d="M477.261 125.376H406.814V127.506H477.261V125.376Z" fill="#E0E0E0"/>
<path d="M477.261 364.037H406.814V368.595H477.261V364.037Z" fill="#EBEBEB"/>
<path d="M409.524 125.376H476.091V368.393H480.078V122.389H405.537V368.393H409.524V125.376Z" fill="#EBEBEB"/>
<path d="M476.09 368.393H409.523V368.595H476.09V368.393Z" fill="#EBEBEB"/>
<path d="M218.617 310.535H187.684V364.023H218.617V310.535Z" fill="#EBEBEB"/>
<path d="M212.676 303.061V316.476H210.236H196.062H193.623V303.061H212.676Z" fill="#EBEBEB"/>
<path d="M212.677 316.476H216.637V312.516H212.677V316.476Z" fill="#FAFAFA"/>
<path d="M205.005 316.476H208.965V312.516H205.005V316.476Z" fill="#FAFAFA"/>
<path d="M197.335 316.476H201.295V312.516H197.335V316.476Z" fill="#FAFAFA"/>
<path d="M189.663 316.476H193.623V312.516H189.663V316.476Z" fill="#F0F0F0"/>
<path d="M212.677 323.672H216.637V319.712H212.677V323.672Z" fill="#F0F0F0"/>
<path d="M205.005 323.672H208.965V319.712H205.005V323.672Z" fill="#F0F0F0"/>
<path d="M197.335 323.672H201.295V319.712H197.335V323.672Z" fill="#FAFAFA"/>
<path d="M189.663 323.672H193.623V319.712H189.663V323.672Z" fill="#FAFAFA"/>
<path d="M212.677 330.868H216.637V326.908H212.677V330.868Z" fill="#F0F0F0"/>
<path d="M205.005 330.868H208.965V326.908H205.005V330.868Z" fill="#FAFAFA"/>
<path d="M197.335 330.868H201.295V326.908H197.335V330.868Z" fill="#FAFAFA"/>
<path d="M205.005 310.257H208.965V306.297H205.005V310.257Z" fill="#FAFAFA"/>
<path d="M197.335 310.257H201.295V306.297H197.335V310.257Z" fill="#F0F0F0"/>
<path d="M189.663 330.868H193.623V326.908H189.663V330.868Z" fill="#F0F0F0"/>
<path d="M212.677 338.063H216.637V334.103H212.677V338.063Z" fill="#FAFAFA"/>
<path d="M205.005 338.063H208.965V334.103H205.005V338.063Z" fill="#F0F0F0"/>
<path d="M197.335 338.063H201.295V334.103H197.335V338.063Z" fill="#F0F0F0"/>
<path d="M189.663 338.063H193.623V334.103H189.663V338.063Z" fill="#FAFAFA"/>
<path d="M212.677 345.259H216.637V341.299H212.677V345.259Z" fill="#F0F0F0"/>
<path d="M205.005 345.259H208.965V341.299H205.005V345.259Z" fill="#FAFAFA"/>
<path d="M197.335 345.259H201.295V341.299H197.335V345.259Z" fill="#FAFAFA"/>
<path d="M189.663 345.259H193.623V341.299H189.663V345.259Z" fill="#F0F0F0"/>
<path d="M212.677 352.455H216.637V348.495H212.677V352.455Z" fill="#F0F0F0"/>
<path d="M205.005 352.455H208.965V348.495H205.005V352.455Z" fill="#FAFAFA"/>
<path d="M197.335 352.455H201.295V348.495H197.335V352.455Z" fill="#F0F0F0"/>
<path d="M189.663 352.455H193.623V348.495H189.663V352.455Z" fill="#FAFAFA"/>
<path d="M212.677 359.651H216.637V355.691H212.677V359.651Z" fill="#FAFAFA"/>
<path d="M205.005 359.651H208.965V355.691H205.005V359.651Z" fill="#FAFAFA"/>
<path d="M197.335 359.651H201.295V355.691H197.335V359.651Z" fill="#F0F0F0"/>
<path d="M189.663 359.651H193.623V355.691H189.663V359.651Z" fill="#F0F0F0"/>
<path d="M393.007 310.535H362.074V364.023H393.007V310.535Z" fill="#EBEBEB"/>
<path d="M387.068 303.061V316.476H384.629H370.455H368.016V303.061H387.068Z" fill="#EBEBEB"/>
<path d="M387.067 316.476H391.027V312.516H387.067V316.476Z" fill="#FAFAFA"/>
<path d="M379.397 316.476H383.357V312.516H379.397V316.476Z" fill="#FAFAFA"/>
<path d="M371.726 316.476H375.686V312.516H371.726V316.476Z" fill="#FAFAFA"/>
<path d="M364.054 316.476H368.014V312.516H364.054V316.476Z" fill="#F0F0F0"/>
<path d="M387.067 323.672H391.027V319.712H387.067V323.672Z" fill="#F0F0F0"/>
<path d="M379.397 323.672H383.357V319.712H379.397V323.672Z" fill="#F0F0F0"/>
<path d="M371.726 323.672H375.686V319.712H371.726V323.672Z" fill="#FAFAFA"/>
<path d="M364.054 323.672H368.014V319.712H364.054V323.672Z" fill="#FAFAFA"/>
<path d="M387.067 330.868H391.027V326.908H387.067V330.868Z" fill="#F0F0F0"/>
<path d="M379.397 330.868H383.357V326.908H379.397V330.868Z" fill="#FAFAFA"/>
<path d="M371.726 330.868H375.686V326.908H371.726V330.868Z" fill="#FAFAFA"/>
<path d="M379.397 310.257H383.357V306.297H379.397V310.257Z" fill="#FAFAFA"/>
<path d="M371.726 310.257H375.686V306.297H371.726V310.257Z" fill="#F0F0F0"/>
<path d="M364.054 330.868H368.014V326.908H364.054V330.868Z" fill="#F0F0F0"/>
<path d="M387.067 338.063H391.027V334.103H387.067V338.063Z" fill="#FAFAFA"/>
<path d="M379.397 338.063H383.357V334.103H379.397V338.063Z" fill="#F0F0F0"/>
<path d="M371.726 338.063H375.686V334.103H371.726V338.063Z" fill="#F0F0F0"/>
<path d="M364.054 338.063H368.014V334.103H364.054V338.063Z" fill="#FAFAFA"/>
<path d="M387.067 345.259H391.027V341.299H387.067V345.259Z" fill="#F0F0F0"/>
<path d="M379.397 345.259H383.357V341.299H379.397V345.259Z" fill="#FAFAFA"/>
<path d="M371.726 345.259H375.686V341.299H371.726V345.259Z" fill="#FAFAFA"/>
<path d="M364.054 345.259H368.014V341.299H364.054V345.259Z" fill="#F0F0F0"/>
<path d="M387.067 352.455H391.027V348.495H387.067V352.455Z" fill="#F0F0F0"/>
<path d="M379.397 352.455H383.357V348.495H379.397V352.455Z" fill="#FAFAFA"/>
<path d="M371.726 352.455H375.686V348.495H371.726V352.455Z" fill="#F0F0F0"/>
<path d="M364.054 352.455H368.014V348.495H364.054V352.455Z" fill="#FAFAFA"/>
<path d="M387.067 359.651H391.027V355.691H387.067V359.651Z" fill="#FAFAFA"/>
<path d="M379.397 359.651H383.357V355.691H379.397V359.651Z" fill="#FAFAFA"/>
<path d="M371.726 359.651H375.686V355.691H371.726V359.651Z" fill="#F0F0F0"/>
<path d="M364.054 359.651H368.014V355.691H364.054V359.651Z" fill="#F0F0F0"/>
<path d="M442.138 330.021H414.428V364.024H442.138V330.021Z" fill="#F0F0F0"/>
<path d="M416.84 333.792H423.286H425.06H426.833V337.339H425.06H423.286H416.84V333.792Z" fill="#E6E6E6"/>
<path d="M416.84 340.663H423.286H425.06H426.833V344.211H425.06H423.286H416.84V340.663Z" fill="#FAFAFA"/>
<path d="M416.84 347.535H423.286H425.06H426.833V351.082H425.06H423.286H416.84V347.535Z" fill="#E6E6E6"/>
<path d="M416.84 354.406H423.286H426.027H426.833V357.954H426.027H423.286H416.84V354.406Z" fill="#FAFAFA"/>
<path d="M429.732 333.792H436.178H437.951H439.725V337.339H437.951H436.178H429.732V333.792Z" fill="#FAFAFA"/>
<path d="M429.732 340.663H436.178H438.679H439.725V344.211H438.679H436.178H429.732V340.663Z" fill="#FAFAFA"/>
<path d="M429.732 347.535H436.178H437.951H439.725V351.082H437.951H436.178H429.732V347.535Z" fill="#E6E6E6"/>
<path d="M429.732 354.406H436.178H437.951H439.725V357.954H437.951H436.178H429.732V354.406Z" fill="#FAFAFA"/>
<path d="M309.984 342.896H284.807V364.024H309.984V342.896Z" fill="#F0F0F0"/>
<path d="M305.15 348.753H308.373V345.53H305.15V348.753Z" fill="#FAFAFA"/>
<path d="M298.906 348.753H302.129V345.53H298.906V348.753Z" fill="#FAFAFA"/>
<path d="M292.662 348.753H295.885V345.53H292.662V348.753Z" fill="#FAFAFA"/>
<path d="M286.42 348.753H289.643V345.53H286.42V348.753Z" fill="#FAFAFA"/>
<path d="M305.15 354.61H308.373V351.387H305.15V354.61Z" fill="#FAFAFA"/>
<path d="M298.906 354.61H302.129V351.387H298.906V354.61Z" fill="#FAFAFA"/>
<path d="M292.662 354.61H295.885V351.387H292.662V354.61Z" fill="#FAFAFA"/>
<path d="M286.42 354.61H289.643V351.387H286.42V354.61Z" fill="#E6E6E6"/>
<path d="M305.15 360.466H308.373V357.243H305.15V360.466Z" fill="#E6E6E6"/>
<path d="M298.906 360.466H302.129V357.243H298.906V360.466Z" fill="#E6E6E6"/>
<path d="M292.662 360.466H295.885V357.243H292.662V360.466Z" fill="#FAFAFA"/>
<path d="M286.42 360.466H289.643V357.243H286.42V360.466Z" fill="#E6E6E6"/>
<path d="M359.427 342.896H334.25V364.024H359.427V342.896Z" fill="#F0F0F0"/>
<path d="M354.591 348.753H357.814V345.53H354.591V348.753Z" fill="#FAFAFA"/>
<path d="M348.349 348.753H351.572V345.53H348.349V348.753Z" fill="#FAFAFA"/>
<path d="M342.105 348.753H345.328V345.53H342.105V348.753Z" fill="#FAFAFA"/>
<path d="M335.863 348.753H339.086V345.53H335.863V348.753Z" fill="#FAFAFA"/>
<path d="M354.591 354.61H357.814V351.387H354.591V354.61Z" fill="#FAFAFA"/>
<path d="M348.349 354.61H351.572V351.387H348.349V354.61Z" fill="#FAFAFA"/>
<path d="M342.105 354.61H345.328V351.387H342.105V354.61Z" fill="#FAFAFA"/>
<path d="M335.863 354.61H339.086V351.387H335.863V354.61Z" fill="#E6E6E6"/>
<path d="M354.591 360.466H357.814V357.243H354.591V360.466Z" fill="#E6E6E6"/>
<path d="M348.349 360.466H351.572V357.243H348.349V360.466Z" fill="#E6E6E6"/>
<path d="M342.105 360.466H345.328V357.243H342.105V360.466Z" fill="#FAFAFA"/>
<path d="M335.863 360.466H339.086V357.243H335.863V360.466Z" fill="#E6E6E6"/>
<path d="M281.396 327.272H256.219V364.024H281.396V327.272Z" fill="#F0F0F0"/>
<path d="M279.783 328.884H270.316V337.964H279.783V328.884Z" fill="#FAFAFA"/>
<path d="M267.297 328.884H257.83V337.964H267.297V328.884Z" fill="#FAFAFA"/>
<path d="M279.783 340.597H270.316V349.677H279.783V340.597Z" fill="#FAFAFA"/>
<path d="M267.297 340.597H257.83V349.677H267.297V340.597Z" fill="#FAFAFA"/>
<path d="M279.783 352.31H270.316V361.39H279.783V352.31Z" fill="#FAFAFA"/>
<path d="M267.297 352.31H257.83V361.39H267.297V352.31Z" fill="#FAFAFA"/>
<path d="M471.527 327.272H446.35V364.024H471.527V327.272Z" fill="#F0F0F0"/>
<path d="M469.914 328.884H460.447V337.964H469.914V328.884Z" fill="#FAFAFA"/>
<path d="M457.428 328.884H447.961V337.964H457.428V328.884Z" fill="#FAFAFA"/>
<path d="M469.914 340.597H460.447V349.677H469.914V340.597Z" fill="#FAFAFA"/>
<path d="M457.428 340.597H447.961V349.677H457.428V340.597Z" fill="#FAFAFA"/>
<path d="M469.914 352.31H460.447V361.39H469.914V352.31Z" fill="#FAFAFA"/>
<path d="M457.428 352.31H447.961V361.39H457.428V352.31Z" fill="#FAFAFA"/>
<path d="M156.251 377.152C156.251 377.152 151.187 366.104 156.973 355.212C162.759 344.32 164.436 341.755 160.748 339.523C157.06 337.292 155.368 348.236 155.368 348.236C155.368 348.236 152.259 340.707 154.826 332.827C157.393 324.947 159.003 312.113 155.497 310.736C151.991 309.359 154.828 326.747 151.786 332.673C151.786 332.673 149.231 326.075 148.81 319.746C148.39 313.417 149.046 303.311 146.278 300.719C143.51 298.127 141.736 299.92 144.457 313.887C147.178 327.854 147.158 339.208 147.158 339.208C147.158 339.208 141.149 320.886 137.116 320.352C133.083 319.818 133.088 325.751 136.54 330.897C139.992 336.043 146.65 345.263 147.741 350.007C147.741 350.007 141.145 336.219 135.212 340.445C129.279 344.671 140.376 352.999 145.322 356.008C150.268 359.017 153.703 377.881 153.703 377.881L156.251 377.152Z" fill="#E0E0E0"/>
<path d="M152.254 381.683C152.254 381.683 157.185 370.56 151.269 359.755C145.353 348.951 143.645 346.41 147.307 344.124C150.968 341.838 152.791 352.756 152.791 352.756C152.791 352.756 155.81 345.181 153.148 337.34C150.487 329.499 148.723 316.69 152.212 315.261C155.701 313.832 153.073 331.26 156.186 337.141C156.186 337.141 158.662 330.506 159.006 324.171C159.35 317.836 158.573 307.741 161.31 305.107C164.047 302.474 165.842 304.241 163.289 318.247C160.736 332.253 160.892 343.606 160.892 343.606C160.892 343.606 166.681 325.197 170.707 324.602C174.733 324.008 174.799 329.94 171.409 335.138C168.019 340.335 161.473 349.653 160.438 354.413C160.438 354.413 166.868 340.528 172.851 344.665C178.834 348.802 167.838 357.295 162.928 360.377C158.018 363.46 154.81 382.373 154.81 382.373L152.254 381.683Z" fill="#EBEBEB"/>
<path d="M174.996 373.754H134.262L137.559 402.903H171.7L174.996 373.754Z" fill="#EBEBEB"/>
<path d="M480.338 371.678C480.485 370.69 483.862 347.385 477.096 339.339C475.598 337.558 473.708 336.627 471.478 336.572C457.82 336.252 455.951 347.222 455.934 347.335L457.545 347.583C457.608 347.19 459.227 337.906 471.438 338.202C473.205 338.245 474.648 338.96 475.848 340.388C482.147 347.878 478.76 371.203 478.725 371.437L480.338 371.678Z" fill="#EBEBEB"/>
<path d="M481.164 370.616L482.793 370.565C482.786 370.351 482.251 349.092 492.726 344.7C502.992 340.4 507.609 349.241 507.801 349.621L509.257 348.889C509.204 348.783 503.785 338.296 492.096 343.198C480.59 348.021 481.136 369.696 481.164 370.616Z" fill="#EBEBEB"/>
<path d="M481.118 372.286C481.118 371.947 481.216 338.325 487.771 328.491C494.065 319.05 504.218 323.495 504.647 323.689L505.321 322.205C505.203 322.152 493.486 316.979 486.415 327.587C479.587 337.829 479.489 370.882 479.488 372.284L481.118 372.286Z" fill="#EBEBEB"/>
<path d="M469.524 337.38C469.524 337.38 475.488 339.579 473.715 344.769C471.942 349.959 453.084 358.502 453.084 358.502C453.084 358.502 445.186 351.263 452.439 339.49C459.692 327.717 469.362 333.666 469.524 337.38Z" fill="#E0E0E0"/>
<path d="M488.065 326.721C488.065 326.721 483.831 326.267 484.172 323.688C484.513 321.109 500.631 314.472 510.14 325.205C510.14 325.205 504.051 335.664 495.249 335.801C486.447 335.937 488.065 326.721 488.065 326.721Z" fill="#E0E0E0"/>
<path d="M492.411 343.949C492.411 343.949 489.489 341.59 492.642 340.438C495.795 339.286 511.269 339.613 511.43 354.941C511.43 354.941 493.409 357.936 491.178 352.097C488.948 346.259 492.411 343.949 492.411 343.949Z" fill="#E0E0E0"/>
<path d="M466.32 402.903H494.285L497.302 372.285H463.303L466.32 402.903Z" fill="#EBEBEB"/>
<path d="M461.809 375.663H498.795V368.907H461.809V375.663Z" fill="#E0E0E0"/>
<path d="M330 449.609C437.082 449.609 523.889 444.539 523.889 438.286C523.889 432.032 437.082 426.963 330 426.963C222.918 426.963 136.111 432.032 136.111 438.286C136.111 444.539 222.918 449.609 330 449.609Z" fill="#F5F5F5"/>
<path d="M435.095 183.212H203.287V353.576H435.095V183.212Z" fill="#407BFF"/>
<path opacity="0.7" d="M435.095 183.212H203.287V353.576H435.095V183.212Z" fill="white"/>
<path d="M435.095 183.212H203.287V193.644H435.095V183.212Z" fill="#407BFF"/>
<path opacity="0.7" d="M428.693 191.234C430.242 191.234 431.499 189.978 431.499 188.428C431.499 186.878 430.242 185.622 428.693 185.622C427.143 185.622 425.887 186.878 425.887 188.428C425.887 189.978 427.143 191.234 428.693 191.234Z" fill="white"/>
<path opacity="0.7" d="M420.49 191.234C422.039 191.234 423.296 189.978 423.296 188.428C423.296 186.878 422.039 185.622 420.49 185.622C418.94 185.622 417.684 186.878 417.684 188.428C417.684 189.978 418.94 191.234 420.49 191.234Z" fill="white"/>
<path opacity="0.7" d="M412.285 191.234C413.834 191.234 415.091 189.978 415.091 188.428C415.091 186.878 413.834 185.622 412.285 185.622C410.735 185.622 409.479 186.878 409.479 188.428C409.479 189.978 410.735 191.234 412.285 191.234Z" fill="white"/>
<path opacity="0.1" d="M276.483 196.769H205.238V349.123H276.483V196.769Z" fill="black"/>
<path opacity="0.1" d="M278.486 349.122H433.643V196.768L278.486 196.768V349.122Z" fill="black"/>
<path opacity="0.2" d="M403.155 208.252H309.691V274.858H403.155V208.252Z" fill="black"/>
<path d="M399.214 203.318H305.75V269.924H399.214V203.318Z" fill="#407BFF"/>
<path opacity="0.5" d="M399.218 203.318H305.748V269.928H399.218V203.318Z" fill="white"/>
<path opacity="0.7" d="M397.834 215.547H307.131V268.542H397.834V215.547Z" fill="white"/>
<path d="M399.214 203.318H305.75V213.75H399.214V203.318Z" fill="#407BFF"/>
<path opacity="0.7" d="M392.812 211.341C394.362 211.341 395.618 210.085 395.618 208.535C395.618 206.985 394.362 205.729 392.812 205.729C391.262 205.729 390.006 206.985 390.006 208.535C390.006 210.085 391.262 211.341 392.812 211.341Z" fill="white"/>
<path opacity="0.7" d="M384.607 211.341C386.156 211.341 387.413 210.085 387.413 208.535C387.413 206.985 386.156 205.729 384.607 205.729C383.057 205.729 381.801 206.985 381.801 208.535C381.801 210.085 383.057 211.341 384.607 211.341Z" fill="white"/>
<path opacity="0.7" d="M379.21 208.535C379.21 210.085 377.954 211.341 376.404 211.341C374.854 211.341 373.598 210.085 373.598 208.535C373.598 206.985 374.854 205.729 376.404 205.729C377.953 205.728 379.21 206.985 379.21 208.535Z" fill="white"/>
<path opacity="0.2" d="M307.131 255.342L332.892 239.867L351.683 250.125L380.464 231.955L397.834 244.909V268.541H307.131V255.342Z" fill="#407BFF"/>
<path d="M333.403 229.64C333.403 233.496 330.277 236.622 326.421 236.622C322.565 236.622 319.439 233.496 319.439 229.64C319.439 225.784 322.565 222.658 326.421 222.658C330.277 222.658 333.403 225.784 333.403 229.64Z" fill="white"/>
<path opacity="0.2" d="M315.668 261.528H305.748V269.928H315.668V261.528Z" fill="black"/>
<path opacity="0.2" d="M416.448 306.278H322.984V353.312H416.448V306.278Z" fill="black"/>
<path d="M421.269 308.617H327.805V375.223H421.269V308.617Z" fill="#407BFF"/>
<path opacity="0.5" d="M421.269 308.617H327.805V375.223H421.269V308.617Z" fill="white"/>
<path opacity="0.7" d="M419.889 320.845H329.186V373.84H419.889V320.845Z" fill="white"/>
<path d="M369.716 328.277L362.531 349.955H358.258L352.9 333.913L347.45 349.955H343.146L335.961 328.277H340.142L345.53 344.752L351.135 328.277H354.851L360.332 344.846L365.875 328.277H369.716Z" fill="#263238"/>
<path d="M421.269 308.617H327.805V319.049H421.269V308.617Z" fill="#407BFF"/>
<path opacity="0.7" d="M417.673 313.833C417.673 315.383 416.417 316.639 414.867 316.639C413.317 316.639 412.061 315.383 412.061 313.833C412.061 312.283 413.317 311.027 414.867 311.027C416.417 311.027 417.673 312.283 417.673 313.833Z" fill="white"/>
<path opacity="0.7" d="M409.469 313.833C409.469 315.383 408.213 316.639 406.663 316.639C405.113 316.639 403.857 315.383 403.857 313.833C403.857 312.283 405.113 311.027 406.663 311.027C408.212 311.027 409.469 312.283 409.469 313.833Z" fill="white"/>
<path opacity="0.7" d="M401.266 313.833C401.266 315.383 400.01 316.639 398.46 316.639C396.91 316.639 395.654 315.383 395.654 313.833C395.654 312.283 396.91 311.027 398.46 311.027C400.009 311.027 401.266 312.283 401.266 313.833Z" fill="white"/>
<path d="M373.984 329.278H413.113" stroke="#263238" stroke-miterlimit="10"/>
<path d="M373.984 334.43H413.113" stroke="#263238" stroke-miterlimit="10"/>
<path d="M373.984 339.581H413.113" stroke="#263238" stroke-miterlimit="10"/>
<path d="M373.984 344.733H413.113" stroke="#263238" stroke-miterlimit="10"/>
<path d="M373.984 349.884H413.113" stroke="#263238" stroke-miterlimit="10"/>
<path d="M335.961 355.035H413.114" stroke="#263238" stroke-miterlimit="10"/>
<path d="M335.961 360.187H413.114" stroke="#263238" stroke-miterlimit="10"/>
<path d="M335.961 365.338H413.114" stroke="#263238" stroke-miterlimit="10"/>
<path opacity="0.2" d="M310.286 270.926H216.822V337.532H310.286V270.926Z" fill="black"/>
<path d="M314.29 263.921H220.826V330.527H314.29V263.921Z" fill="#407BFF"/>
<path opacity="0.5" d="M314.29 263.921H220.826V330.527H314.29V263.921Z" fill="white"/>
<path opacity="0.7" d="M312.908 276.15H222.205V329.145H312.908V276.15Z" fill="white"/>
<path d="M257.135 296.809L242.722 302.199L257.135 307.588V311.934L237.875 304.456V299.943L257.135 292.465V296.809Z" fill="#263238"/>
<path d="M272.342 281.643H277.021L263.234 320.998H258.555L272.342 281.643Z" fill="#263238"/>
<path d="M297.283 299.942V304.455L278.023 311.933V307.587L292.437 302.198L278.023 296.808V292.463L297.283 299.942Z" fill="#263238"/>
<path d="M314.29 263.921H220.826V274.353H314.29V263.921Z" fill="#407BFF"/>
<path opacity="0.7" d="M310.694 269.137C310.694 270.687 309.438 271.943 307.888 271.943C306.338 271.943 305.082 270.687 305.082 269.137C305.082 267.587 306.338 266.331 307.888 266.331C309.437 266.331 310.694 267.588 310.694 269.137Z" fill="white"/>
<path opacity="0.7" d="M302.489 269.137C302.489 270.687 301.233 271.943 299.683 271.943C298.133 271.943 296.877 270.687 296.877 269.137C296.877 267.587 298.133 266.331 299.683 266.331C301.233 266.331 302.489 267.588 302.489 269.137Z" fill="white"/>
<path opacity="0.7" d="M294.284 269.137C294.284 270.687 293.028 271.943 291.478 271.943C289.928 271.943 288.672 270.687 288.672 269.137C288.672 267.587 289.928 266.331 291.478 266.331C293.028 266.331 294.284 267.588 294.284 269.137Z" fill="white"/>
<path d="M191.015 343.063L193.917 343.286C194.916 343.354 195.921 343.399 196.926 343.431C198.935 343.505 200.942 343.513 202.935 343.483C204.93 343.442 206.898 343.307 208.843 343.121C210.782 342.904 212.67 342.594 214.502 342.18L213.653 342.532C214.007 342.315 214.312 342.202 214.727 341.92C215.133 341.641 215.525 341.424 215.955 341.107C216.799 340.527 217.653 339.882 218.509 339.228C220.215 337.888 221.948 336.51 223.657 335.087L228.816 330.793L234.013 326.49C235.033 325.646 236.544 325.788 237.388 326.808C238.107 327.677 238.108 328.905 237.463 329.77C236.081 331.625 234.633 333.379 233.177 335.153C231.705 336.908 230.189 338.627 228.638 340.329C227.066 342.013 225.473 343.695 223.769 345.32C222.905 346.131 222.031 346.941 221.087 347.743C220.646 348.147 220.09 348.547 219.589 348.942C219.098 349.336 218.401 349.756 217.806 350.15C217.653 350.252 217.491 350.329 217.324 350.384L216.957 350.502C214.694 351.232 212.419 351.812 210.148 352.198C207.881 352.582 205.614 352.859 203.36 352.992C201.106 353.139 198.859 353.172 196.619 353.113C195.499 353.075 194.381 353.021 193.259 352.942C192.118 352.872 191.061 352.763 189.81 352.597C187.181 352.247 185.333 349.832 185.683 347.202C186.021 344.666 188.279 342.857 190.798 343.046L191.015 343.063Z" fill="#CE7A63"/>
<path d="M204.075 357.544L200.817 358.356L196.574 359.402C196.574 359.402 195.667 358.581 194.31 357.311C190.879 354.114 184.537 348.065 182.48 345.205C188.313 341.412 191.017 342.907 202.216 343.01C205.051 346.268 204.075 357.544 204.075 357.544Z" fill="#407BFF"/>
<path opacity="0.2" d="M200.817 358.356L196.574 359.402C196.574 359.402 195.667 358.581 194.31 357.311C194.172 355.851 194.128 354.261 194.215 352.567C194.215 352.567 198.285 354.209 200.817 358.356Z" fill="black"/>
<path d="M159.499 311.853C159.499 311.853 163.881 303.754 175.675 304.524C187.469 305.293 191.742 324.988 187.896 333.429C187.896 333.429 175.162 335.749 162.514 342.144C162.514 342.144 153.797 329.228 154.395 320.252C154.993 311.275 159.499 311.853 159.499 311.853Z" fill="#263238"/>
<path d="M200.741 392.459L205.522 400.837C218.334 397.853 259.405 391.588 264.449 405.679C270.717 423.191 225.418 437.15 200.346 438.005C175.275 438.86 153.411 432.886 169.261 396.338L200.741 392.459Z" fill="#263238"/>
<path opacity="0.2" d="M200.741 392.459L205.522 400.837C218.334 397.853 259.405 391.588 264.449 405.679C270.717 423.191 225.418 437.15 200.346 438.005C175.275 438.86 153.411 432.886 169.261 396.338L200.741 392.459Z" fill="black"/>
<path d="M257.187 430.434C257.13 430.47 257.056 430.466 257.003 430.425C256.953 430.39 256.936 430.325 256.959 430.27C257.041 429.991 257.871 427.581 258.711 427.327C258.892 427.283 259.083 427.339 259.211 427.473C259.449 427.67 259.563 427.978 259.509 428.282C259.373 428.733 259.098 429.129 258.723 429.414C258.247 429.805 257.732 430.147 257.187 430.434ZM257.402 429.972C258.183 429.628 258.816 429.018 259.188 428.25C259.232 428.041 259.148 427.825 258.976 427.698C258.929 427.64 258.85 427.617 258.779 427.641C258.708 427.666 258.642 427.704 258.586 427.753C258.06 428.415 257.659 429.166 257.402 429.972Z" fill="#263238"/>
<path d="M257.142 430.465C257.085 430.486 257.022 430.468 256.986 430.419C256.908 430.351 255.751 428.891 255.941 427.904C255.987 427.658 256.131 427.439 256.34 427.3C256.521 427.126 256.798 427.1 257.008 427.237C257.614 427.664 257.54 429.619 257.242 430.36L257.221 430.434C257.199 430.453 257.171 430.463 257.142 430.465ZM256.484 427.601C256.379 427.692 256.309 427.815 256.283 427.952C256.163 428.576 256.744 429.512 257.058 429.96C257.249 429.125 257.187 427.753 256.832 427.507C256.793 427.487 256.721 427.429 256.542 427.555L256.484 427.601Z" fill="#263238"/>
<path d="M213.115 434.543C213.148 434.484 213.214 434.452 213.281 434.462C213.341 434.469 213.388 434.517 213.394 434.577C213.458 434.861 213.898 437.372 213.286 438C213.149 438.127 212.955 438.171 212.777 438.115C212.475 438.059 212.225 437.843 212.125 437.551C212.025 437.091 212.074 436.611 212.264 436.18C212.492 435.606 212.777 435.058 213.115 434.543ZM213.15 435.052C212.633 435.73 212.374 436.571 212.42 437.423C212.484 437.627 212.661 437.776 212.873 437.803C212.943 437.832 213.023 437.814 213.074 437.758C213.125 437.702 213.164 437.637 213.188 437.566C213.329 436.733 213.315 435.881 213.15 435.052Z" fill="#263238"/>
<path d="M229.525 421.856L219.211 425.53L214.258 427.294L215.528 432.715L220.325 431.693L232.042 429.196L229.525 421.856Z" fill="#EBB376"/>
<path d="M216.879 432.971L216.011 426.575C215.963 426.219 215.629 425.973 215.274 426.032L212.119 426.558C212.119 426.558 207.825 426.961 206.972 428.063C204.478 431.281 206.037 445.476 207.698 445.976C208.306 446.159 208.949 445.325 209.214 444.748C210.054 442.92 211.534 438.135 212.254 436.618C213.094 434.845 215.401 433.977 216.438 433.666C216.736 433.576 216.921 433.281 216.879 432.971Z" fill="#407BFF"/>
<path d="M213.138 434.494C213.177 434.448 213.242 434.434 213.297 434.459C213.398 434.48 215.118 435.198 215.429 436.153C215.508 436.391 215.487 436.652 215.372 436.875C215.299 437.115 215.068 437.272 214.818 437.253C214.082 437.173 213.2 435.426 213.101 434.634L213.084 434.559C213.095 434.533 213.114 434.51 213.138 434.494ZM215.1 436.682C215.147 436.551 215.149 436.409 215.106 436.278C214.909 435.674 213.947 435.135 213.456 434.896C213.693 435.719 214.411 436.889 214.841 436.933C214.885 436.932 214.976 436.947 215.071 436.75L215.1 436.682Z" fill="#263238"/>
<path opacity="0.2" d="M229.525 421.856L219.211 425.53L220.325 431.693L232.042 429.196L229.525 421.856Z" fill="black"/>
<path d="M222.152 432.62L225.119 432.833L223.133 422.627L219.768 424.489L222.152 432.62Z" fill="#407BFF"/>
<path opacity="0.6" d="M222.152 432.62L225.119 432.833L223.133 422.627L219.768 424.489L222.152 432.62Z" fill="white"/>
<path opacity="0.2" d="M179.123 392.963L194.572 410.093C194.572 410.093 211.653 409.713 232.394 419.851C232.394 419.851 254.65 410.658 256.695 403.021C259.372 393.017 205.521 400.837 205.521 400.837L179.123 392.963Z" fill="black"/>
<path d="M206.14 396.783L204.223 395.395C203.502 394.873 202.573 394.732 201.73 395.016L197.789 396.344C196.213 396.875 194.992 398.136 194.512 399.728L194.215 400.714C197.237 403.232 202.359 403.727 202.359 403.727L203.803 404.03C205.089 404.299 206.295 403.552 206.572 402.312L207.209 399.458C207.429 398.472 207.004 397.408 206.14 396.783Z" fill="#CE7A63"/>
<path d="M246.856 402.95V405.488C246.856 406.139 246.089 406.406 245.446 406.406H194.717C194.066 406.406 193.281 406.139 193.281 405.488V402.95H246.856Z" fill="#263238"/>
<path opacity="0.4" d="M246.856 402.95V405.488C246.856 406.139 246.089 406.406 245.446 406.406H194.717C194.066 406.406 193.281 406.139 193.281 405.488V402.95H246.856Z" fill="white"/>
<path opacity="0.2" d="M246.855 402.95V405.488C246.855 406.139 246.089 406.406 245.446 406.406H211.987C211.336 406.406 210.562 406.139 210.562 405.488V402.95H246.855Z" fill="black"/>
<path d="M255.343 376.594L249.304 403.986C249.107 404.888 248.229 405.543 247.343 405.543H214.355C213.477 405.543 212.912 404.724 213.116 403.822L219.147 376.64C219.351 375.745 220.221 375.3 221.107 375.3H254.096C254.983 375.299 255.54 375.699 255.343 376.594Z" fill="#263238"/>
<path opacity="0.4" d="M255.344 376.594L249.305 403.986C249.108 404.888 248.23 405.543 247.344 405.543H215.478C214.592 405.543 214.035 404.724 214.231 403.822L220.27 376.64C220.466 375.745 221.344 375.3 222.231 375.3H254.098C254.984 375.299 255.541 375.699 255.344 376.594Z" fill="white"/>
<path opacity="0.2" d="M239.08 390.516V390.524C239.08 392.869 236.565 394.775 234.722 394.775C232.879 394.775 231.786 392.87 232.312 390.524C232.838 388.225 234.672 386.351 236.476 386.28C235.951 388.625 237.076 390.524 238.912 390.524C238.95 390.524 239.08 390.524 239.08 390.516Z" fill="black"/>
<path d="M236.688 433.592L247.49 435.37L252.678 436.225L254.191 430.865L249.499 429.438L238.037 425.951L236.688 433.592Z" fill="#EBB376"/>
<path d="M253.133 429.988L250.797 436.005C250.667 436.341 250.84 436.717 251.179 436.838L254.194 437.905C254.194 437.905 258.147 439.631 259.427 439.08C263.166 437.472 268.675 424.296 267.463 423.054C267.02 422.6 266.053 423.019 265.543 423.395C263.923 424.588 260.311 428.059 258.947 429.037C257.353 430.181 254.915 429.825 253.857 429.595C253.551 429.528 253.246 429.696 253.133 429.988Z" fill="#407BFF"/>
<path opacity="0.2" d="M236.688 433.592L247.49 435.37L249.499 429.438L238.037 425.951L236.688 433.592Z" fill="black"/>
<path d="M247.64 428.319C247.64 428.319 203.593 403.558 188.395 404.262C173.197 404.967 171.004 418.366 177.274 426.752C183.545 435.138 195.124 437.18 195.124 437.18C195.124 437.18 187.24 426.039 188.38 422.904C189.519 419.77 193.98 424.143 193.98 424.143C193.98 424.143 221.69 433.092 245.93 435.146L247.64 428.319Z" fill="#263238"/>
<path d="M248.348 427.637L245.856 425.962L242.652 435.802H246.499L248.348 427.637Z" fill="#407BFF"/>
<path opacity="0.6" d="M248.348 427.637L245.856 425.962L242.652 435.802H246.499L248.348 427.637Z" fill="white"/>
<path d="M200.74 392.463L169.261 396.334C169.105 393.292 168.734 390.121 168 386.501C167.205 382.621 165.987 378.231 164.146 372.917C162.668 368.657 160.793 363.809 158.408 358.158C156.533 353.691 158.909 348.886 163.515 347.841C164.751 347.564 166.056 347.297 167.404 347.063C172.649 346.156 176.961 345.456 181.705 345.3C183.269 345.248 184.902 345.248 186.475 345.265C192.126 345.36 197.034 351.245 197.89 356.775C198.365 359.86 199.048 362.167 199.523 369.607C200.049 375.889 200.377 382.093 200.74 392.463Z" fill="#407BFF"/>
<path d="M166.424 330.841C168.235 335.287 170.801 343.526 168.19 346.963C168.19 346.963 172.466 345.772 182.42 350.352C184.625 346.181 182.484 345.202 182.484 345.202C177.113 344.621 176.493 340.834 176.68 337.183L166.424 330.841Z" fill="#CE7A63"/>
<path d="M180.335 349.44C177.342 350.249 176.955 354.968 176.955 354.968C176.955 354.968 169 350.694 166.232 347.33C167.248 346.627 168.695 345.304 168.695 345.304C168.695 345.304 178.34 347.901 180.335 349.44Z" fill="white"/>
<path d="M183.17 348.593C183.17 348.593 185.889 348.978 187.298 352.563C187.169 345.769 183.895 345.014 183.895 345.014C183.895 345.014 182.856 344.45 181.092 344.955C183.665 345.932 183.17 348.593 183.17 348.593Z" fill="white"/>
<path opacity="0.2" d="M170.606 333.429L176.676 337.179C176.629 338.043 176.632 338.914 176.737 339.747C174.722 339.708 171.605 337.908 170.991 335.902C170.685 334.901 170.533 333.921 170.606 333.429Z" fill="black"/>
<path d="M161.359 322.093C163.67 329.347 164.493 332.458 169.169 335.498C176.204 340.071 184.612 336.157 184.516 328.482C184.43 321.574 180.666 310.871 172.711 309.362C164.874 307.877 159.048 314.839 161.359 322.093Z" fill="#CE7A63"/>
<path d="M170.997 322.162C171.164 322.779 171.624 323.215 172.022 323.136C172.421 323.057 172.608 322.492 172.44 321.875C172.272 321.258 171.813 320.822 171.415 320.901C171.017 320.98 170.829 321.545 170.997 322.162Z" fill="#263238"/>
<path d="M178.712 320.381C178.88 320.998 179.339 321.434 179.737 321.355C180.136 321.276 180.323 320.711 180.156 320.094C179.988 319.477 179.529 319.041 179.131 319.12C178.732 319.199 178.544 319.763 178.712 320.381Z" fill="#263238"/>
<path d="M178.963 319.189L180.312 318.47C180.312 318.47 179.875 319.778 178.963 319.189Z" fill="#263238"/>
<path d="M176.711 322.208C176.711 322.208 178.467 324.66 179.955 325.715C179.356 326.636 177.893 326.56 177.893 326.56L176.711 322.208Z" fill="#BA4D3C"/>
<path d="M175.004 329.539C175.336 329.533 175.685 329.497 176.051 329.425C176.15 329.405 176.208 329.308 176.181 329.208C176.154 329.109 176.054 329.043 175.952 329.062C173.278 329.595 171.512 327.95 171.494 327.934C171.417 327.86 171.3 327.859 171.232 327.93C171.164 328.001 171.171 328.118 171.247 328.191C171.316 328.255 172.737 329.581 175.004 329.539Z" fill="#263238"/>
<path d="M168.801 318.521C168.898 318.511 168.987 318.462 169.046 318.379C169.954 317.071 171.32 317.159 171.336 317.16C171.538 317.174 171.707 317.023 171.708 316.819C171.708 316.616 171.543 316.438 171.337 316.423C171.265 316.418 169.551 316.306 168.424 317.93C168.312 318.092 168.36 318.324 168.531 318.448C168.614 318.507 168.71 318.531 168.801 318.521Z" fill="#263238"/>
<path d="M180.792 315.685C180.884 315.687 180.975 315.655 181.043 315.589C181.184 315.451 181.177 315.217 181.028 315.067C179.533 313.559 177.862 313.816 177.79 313.828C177.591 313.861 177.468 314.051 177.516 314.252C177.564 314.453 177.764 314.589 177.963 314.557C178.028 314.546 179.329 314.366 180.517 315.565C180.595 315.643 180.695 315.683 180.792 315.685Z" fill="#263238"/>
<path d="M171.248 320.97L172.597 320.252C172.597 320.252 172.159 321.559 171.248 320.97Z" fill="#263238"/>
<path d="M163.965 326.145C163.965 326.145 168.58 320.296 165.589 313.606C165.589 313.606 174.8 307.121 181.304 316.419C181.304 316.419 180.033 307.429 170.033 308.027C160.033 308.625 151.849 324.362 165.085 331.578L163.965 326.145Z" fill="#263238"/>
<path d="M160.449 328.622C161.658 329.948 163.29 330.588 164.665 330.627C166.733 330.686 167.138 328.567 166.036 326.751C165.044 325.116 162.773 323.116 160.951 323.922C159.155 324.716 159.067 327.106 160.449 328.622Z" fill="#CE7A63"/>
<path d="M164.82 313.804C164.82 313.804 176.462 307.949 183.417 320.252" stroke="#263238" stroke-width="0.4321" stroke-miterlimit="10" stroke-linecap="round" stroke-linejoin="round"/>
<path d="M242.646 324.819L242.251 326.849C242.103 327.612 241.594 328.257 240.887 328.579L237.58 330.086C236.258 330.688 234.726 330.613 233.469 329.884L232.691 329.432C233.115 326.021 236.087 322.646 236.087 322.646L236.827 321.59C237.487 320.65 238.702 320.407 239.619 321.033L241.73 322.473C242.459 322.971 242.824 323.904 242.646 324.819Z" fill="#CE7A63"/>
<path opacity="0.2" d="M167.999 386.5C167.204 382.62 165.986 378.23 164.145 372.916C166.876 367.463 169.597 362.84 169.597 362.84C169.597 362.84 179.345 376.831 167.999 386.5Z" fill="black"/>
<path d="M167.156 361.887L167.873 364.707C168.128 365.675 168.407 366.642 168.698 367.604C169.271 369.531 169.905 371.435 170.572 373.314C171.249 375.191 172.007 377.012 172.805 378.796C173.631 380.563 174.528 382.253 175.507 383.856L174.902 383.164C175.221 383.43 175.425 383.683 175.826 383.985C176.22 384.28 176.552 384.583 176.989 384.888C177.809 385.502 178.693 386.105 179.587 386.707C181.402 387.894 183.262 389.095 185.157 390.259L190.876 393.773L196.616 397.319C197.742 398.015 198.091 399.492 197.395 400.618C196.802 401.577 195.639 401.971 194.612 401.637C192.412 400.921 190.287 400.111 188.14 399.299C186.007 398.466 183.893 397.579 181.784 396.655C179.686 395.705 177.583 394.733 175.497 393.639C174.452 393.08 173.405 392.512 172.343 391.874C171.819 391.585 171.262 391.186 170.728 390.838C170.198 390.498 169.577 389.973 169.013 389.535C168.868 389.422 168.742 389.293 168.637 389.153L168.408 388.843C166.992 386.933 165.714 384.963 164.623 382.935C163.533 380.91 162.546 378.851 161.699 376.758C160.838 374.67 160.089 372.551 159.427 370.411C159.105 369.338 158.798 368.261 158.514 367.173C158.215 366.069 157.98 365.033 157.737 363.795C157.227 361.192 158.924 358.668 161.528 358.158C164.039 357.666 166.475 359.227 167.103 361.674L167.156 361.887Z" fill="#CE7A63"/>
<path d="M161.056 348.875C155.583 352.468 155.136 358.107 157.648 369.023C161.44 371.089 170.904 368.965 170.904 368.965C170.904 368.965 168.526 352.074 161.056 348.875Z" fill="#407BFF"/>
<path d="M415.023 202.833C415.282 203.388 415.198 203.976 414.835 204.145C414.472 204.314 413.968 204.002 413.709 203.446C413.45 202.891 413.534 202.304 413.897 202.134C414.26 201.965 414.764 202.277 415.023 202.833Z" fill="#263238"/>
<path d="M415.249 203.951C415.249 203.951 415.481 207.743 414.811 209.936C416.221 210.394 417.695 209.197 417.695 209.197L415.249 203.951Z" fill="#DE5753"/>
<path d="M415.618 198.801C415.688 198.749 415.74 198.671 415.757 198.579C415.794 198.384 415.666 198.195 415.471 198.159C413.515 197.787 412.352 198.971 412.302 199.022C412.164 199.165 412.169 199.393 412.312 199.531C412.455 199.668 412.684 199.662 412.82 199.522C412.858 199.483 413.777 198.569 415.337 198.866C415.44 198.885 415.54 198.859 415.618 198.801Z" fill="#263238"/>
<path d="M432.452 197.544C435.143 202.526 440.775 211.076 446.133 211.468C446.133 211.468 448.543 216.785 440.573 223.347C431.809 230.563 432.801 222.445 432.801 222.445C436.644 217.364 433.598 213.917 430.021 211.27L432.452 197.544Z" fill="#E4897B"/>
<path d="M432.991 193.018C435.753 200.032 437.726 203.997 435.915 209.103C433.19 216.784 423.318 217.587 418.516 211.54C414.194 206.097 410.404 195.542 415.812 189.715C421.14 183.974 430.229 186.004 432.991 193.018Z" fill="#E4897B"/>
<path d="M437.365 204.55C435.93 207.816 423.335 209.769 419.861 201.176C419.861 201.176 413.329 199.577 410.326 194.701C407.323 189.826 409.178 185.748 413.255 184.254C416.849 182.937 417.96 184.618 417.96 184.618C417.96 184.618 433.128 175.937 434.346 183.813C444.607 185.802 439.156 200.476 437.365 204.55Z" fill="#263238"/>
<path d="M423.214 200.631C423.952 202.462 423.92 204.53 423.445 206.097C422.731 208.455 420.683 208.169 419.466 206.288C418.37 204.594 417.421 201.327 418.819 199.55C420.196 197.8 422.369 198.538 423.214 200.631Z" fill="#E4897B"/>
<path d="M448.461 211.96C447.487 208.992 446.277 205.525 442.673 206.723C439.503 207.777 430.253 213.487 429.543 215.465C431.178 216.786 431.92 219.222 431.92 219.222L448.461 211.96Z" fill="#407BFF"/>
<path opacity="0.5" d="M448.461 211.96C447.487 208.992 446.277 205.525 442.673 206.723C439.503 207.777 430.253 213.487 429.543 215.465C431.178 216.786 431.92 219.222 431.92 219.222L448.461 211.96Z" fill="#FAFAFA"/>
<path d="M462.369 211.265C467.093 213.317 471.484 215.566 475.87 218.107C480.247 220.655 484.462 223.398 488.594 226.747C489.806 227.764 490.768 228.726 491.666 229.709C492.567 230.686 493.396 231.665 494.219 232.643C495.836 234.604 497.343 236.605 498.817 238.612C501.744 242.646 504.448 246.767 506.985 251.056L502.789 254.221L492.707 243.722C491.042 241.984 489.353 240.288 487.682 238.634C486.842 237.822 486.003 237.016 485.164 236.276C484.328 235.54 483.499 234.835 482.789 234.342C480.978 233.11 478.952 231.872 476.953 230.699C474.923 229.536 472.867 228.396 470.774 227.292C466.607 225.108 462.267 222.946 458.086 220.973L462.369 211.265Z" fill="#DC897C"/>
<path d="M506.761 263.297L504.227 258.787L511.971 256.45C511.971 256.45 513.532 260.089 511.826 263.019L506.761 263.297Z" fill="#E4897B"/>
<path d="M501.383 252.181L506.34 250.572L511.969 256.45L504.225 258.787L501.383 252.181Z" fill="#E4897B"/>
<path d="M457.186 208.484C463.448 206.013 477.383 216.766 477.383 216.766L472.198 232.501C472.198 232.501 465.631 231.476 459.117 225.785C452.291 219.821 450.783 211.011 457.186 208.484Z" fill="#263238"/>
<path opacity="0.2" d="M466.264 220.308C470.22 223.677 472.428 226.404 472.428 231.802L472.202 232.5C472.202 232.5 465.628 231.474 459.114 225.785C458.708 225.428 458.317 225.061 457.947 224.69L466.264 220.308Z" fill="black"/>
<path d="M482.3 268.287C470.34 270.427 448.43 274.347 442.61 275.397C441.01 272.047 437.56 260.027 431 245.557C429.23 241.627 427.22 237.527 424.96 233.357C422.5 228.827 419.74 224.227 416.65 219.717C416.65 219.717 422.95 217.307 429.32 215.877C434.3 214.757 449.99 208.757 454.59 208.307C460.67 207.727 461.34 210.377 461.34 210.377C461.34 210.377 469.53 218.947 482.3 268.287Z" fill="#263238"/>
<path opacity="0.2" d="M431.001 245.557C429.231 241.627 427.221 237.527 424.961 233.357L427.541 231.747C427.541 231.747 433.581 240.817 431.001 245.557Z" fill="black"/>
<path d="M381.795 239.814L376.676 239.062L377.265 247.129C377.265 247.129 381.221 247.285 383.347 244.643L381.795 239.814Z" fill="#E4897B"/>
<path d="M369.475 238.474L371.365 245.407L377.265 247.129L376.676 239.061L369.475 238.474Z" fill="#E4897B"/>
<path d="M423.027 228.261C422.897 229.044 422.784 229.63 422.649 230.297C422.522 230.944 422.368 231.58 422.215 232.215C421.904 233.484 421.566 234.742 421.192 235.996C420.459 238.507 419.539 240.979 418.461 243.437C417.353 245.881 416.072 248.314 414.425 250.656C412.77 252.978 410.76 255.281 408.031 257.12C406.67 258.029 405.121 258.8 403.449 259.306C403.242 259.373 403.028 259.424 402.817 259.481L402.5 259.563L402.005 259.664C401.353 259.778 400.73 259.818 400.17 259.801C399.03 259.773 398.083 259.578 397.232 259.328C395.538 258.822 394.199 258.142 392.951 257.432C391.707 256.724 390.598 255.929 389.53 255.132C385.303 251.89 381.856 248.293 378.652 244.286L382.344 240.545C386.173 243.271 390.171 246.028 394.075 248.164C395.048 248.695 396.032 249.155 396.958 249.553C397.88 249.943 398.794 250.232 399.466 250.319C399.796 250.361 400.06 250.366 400.14 250.329C400.189 250.318 400.174 250.294 400.12 250.293C400.103 250.291 400.087 250.292 400.071 250.296L400.192 250.25C400.272 250.218 400.354 250.197 400.434 250.16C401.076 249.9 401.708 249.529 402.335 249.033C403.592 248.05 404.823 246.602 405.884 244.894C406.955 243.19 407.915 241.272 408.734 239.244C409.582 237.226 410.283 235.096 410.943 232.939C411.267 231.859 411.564 230.765 411.835 229.668L412.226 228.027C412.35 227.503 412.482 226.897 412.565 226.48L423.027 228.261Z" fill="#DC897C"/>
<path d="M428.727 227.759C433.278 236.268 419.188 249.472 419.188 249.472L405.236 239.775C405.236 239.775 408.16 231.139 412.678 223.752C418.259 214.629 425.263 221.282 428.727 227.759Z" fill="#263238"/>
<path d="M425.28 431.549L417.17 432.399L416.76 427.699L415.65 414.909L423.76 414.049L424.99 428.179L425.28 431.549Z" fill="#E4897B"/>
<path d="M495.76 430.519H487.901L487.511 428.747L487.462 428.528L485.015 417.178L484.964 416.949L484.02 412.598H491.889L495.76 430.519Z" fill="#E4897B"/>
<path opacity="0.2" d="M423.76 414.049L424.99 428.179L416.76 427.699L415.65 414.909L423.76 414.049Z" fill="black"/>
<path opacity="0.2" d="M495.53 429.523H495.52L487.471 428.528H487.461L485.076 417.576H485.086L493.079 418.203L495.458 429.18L495.53 429.523Z" fill="black"/>
<path d="M486.81 430.046H496.36C496.682 430.048 496.96 430.272 497.03 430.586L498.58 437.586C498.713 438.213 498.312 438.828 497.685 438.961C497.601 438.979 497.516 438.987 497.43 438.986C494.34 438.936 492.09 438.746 488.21 438.746C485.82 438.746 478.61 438.996 475.31 438.996C472.01 438.996 471.58 435.736 472.93 435.436C478.99 434.116 483.55 432.286 485.49 430.546C485.849 430.216 486.322 430.037 486.81 430.046Z" fill="#263238"/>
<path d="M416.31 429.796H425.86C426.182 429.798 426.46 430.022 426.53 430.336L428.08 437.336C428.213 437.963 427.812 438.578 427.185 438.711C427.101 438.729 427.016 438.737 426.93 438.736C423.84 438.686 421.59 438.496 417.71 438.496C415.32 438.496 408.11 438.746 404.81 438.746C401.51 438.746 401.08 435.486 402.43 435.186C408.49 433.866 413.05 432.036 414.99 430.296C415.349 429.966 415.822 429.787 416.31 429.796Z" fill="#263238"/>
<path d="M414.909 424.519L426.509 424.894C422.289 347.334 420.319 343.378 457.965 306.744C458.845 317.824 459.835 329.321 460.805 338.902C461.415 344.832 461.595 350.011 462.585 353.806C469.284 379.494 485.409 424.962 485.409 424.962L496.729 425.467C496.729 425.467 482.56 363.159 481.103 342.852C479.191 316.209 485.409 287.371 481.875 266.52L442.334 273.225C406.465 325.708 399.903 337.048 414.909 424.519Z" fill="#407BFF"/>
<path opacity="0.3" d="M414.909 424.519L426.509 424.894C422.289 347.334 420.319 343.378 457.965 306.744C458.845 317.824 459.835 329.321 460.805 338.902C461.415 344.832 461.595 350.011 462.585 353.806C469.284 379.494 485.409 424.962 485.409 424.962L496.729 425.467C496.729 425.467 482.56 363.159 481.103 342.852C479.191 316.209 485.409 287.371 481.875 266.52L442.334 273.225C406.465 325.708 399.903 337.048 414.909 424.519Z" fill="white"/>
<path opacity="0.2" d="M457.965 306.699C458.845 317.779 459.835 329.299 460.805 338.879C462.225 325.049 463.965 315.189 463.965 315.189C463.965 315.189 465.595 313.849 470.075 306.699C474.555 299.539 470.075 286.199 470.075 286.199C470.215 298.599 457.965 306.699 457.965 306.699Z" fill="black"/>
<path d="M413.611 423.269L414.174 426.519H427.799V423.519L413.611 423.269Z" fill="#407BFF"/>
<path d="M484.066 424.519L485.374 427.519H497.783L497.549 424.519H484.066Z" fill="#407BFF"/>
<path opacity="0.7" d="M413.611 423.269L414.174 426.519H427.799V423.519L413.611 423.269Z" fill="white"/>
<path opacity="0.7" d="M484.066 424.519L485.374 427.519H497.783L497.549 424.519H484.066Z" fill="white"/>
<defs>
<linearGradient id="paint0_linear_617_262" x1="330" y1="0" x2="330" y2="526" gradientUnits="userSpaceOnUse">
<stop stop-color="#0160E7"/>
<stop offset="1" stop-color="#013681"/>
</linearGradient>
</defs>
</svg>
