<svg width="626" height="501" viewBox="0 0 626 501" fill="none" xmlns="http://www.w3.org/2000/svg">
<path opacity="0.1" d="M4.69429 224.307C-14.1624 150.182 40.3528 115.262 69.9675 107.068C94.1422 101.395 165.337 81.3506 256.72 46.5569C348.102 11.7631 428.969 4.32536 457.979 4.95568C650.898 -34.3763 638.689 180.185 608.47 292.382C547.549 529.887 321.993 516.146 216.831 479.587C68.8779 453.87 13.7594 298.685 4.69429 224.307Z" fill="url(#paint0_linear_1629_28235)"/>
<g clip-path="url(#clip0_1629_28235)">
<path d="M155.73 118.248H34.666V199.404H155.73V118.248Z" fill="url(#paint1_linear_1629_28235)"/>
<path d="M155.73 199.324C155.73 199.324 155.73 198.846 155.73 197.812C155.73 196.857 155.73 195.425 155.73 193.516C155.73 189.776 155.73 184.286 155.65 177.205C155.65 163.122 155.571 142.833 155.571 118.168L155.73 118.328C122.344 118.328 80.2936 118.328 34.6662 118.407L34.9047 118.168C34.9047 147.05 34.9047 174.579 34.9047 199.324L34.7457 199.165C70.3573 199.244 100.643 199.244 121.946 199.244C132.598 199.244 141.104 199.324 146.827 199.324C149.689 199.324 151.914 199.324 153.425 199.324C154.14 199.324 154.776 199.324 155.173 199.324C155.491 199.324 155.73 199.324 155.73 199.324C155.73 199.324 155.571 199.324 155.173 199.324C154.776 199.324 154.22 199.324 153.504 199.324C151.994 199.324 149.768 199.324 146.906 199.324C141.104 199.324 132.678 199.324 122.026 199.403C100.643 199.403 70.3573 199.483 34.6662 199.483L34.4277 199.563V199.324C34.4277 174.579 34.4277 147.13 34.4277 118.168V117.93H34.6662C80.2936 117.93 122.344 117.93 155.73 118.009H155.889V118.168C155.889 142.913 155.809 163.202 155.809 177.364C155.809 184.366 155.809 189.935 155.73 193.675C155.73 195.505 155.73 196.937 155.73 197.892C155.73 198.846 155.73 199.324 155.73 199.324Z" fill="white"/>
<path d="M34.666 125.488C34.666 125.329 61.7722 125.25 95.1581 125.25C128.544 125.25 155.65 125.329 155.65 125.488C155.65 125.647 128.544 125.727 95.1581 125.727C61.6927 125.647 34.666 125.568 34.666 125.488Z" fill="white"/>
<g opacity="0.3">
<path d="M39.4351 121.828C39.4351 122.385 39.0377 122.783 38.4812 122.783C37.9248 122.783 37.5273 122.385 37.5273 121.828C37.5273 121.271 37.9248 120.874 38.4812 120.874C39.0377 120.874 39.4351 121.271 39.4351 121.828Z" fill="white"/>
</g>
<g opacity="0.3">
<path d="M42.7744 121.828C42.7744 122.385 42.3769 122.783 41.8205 122.783C41.2641 122.783 40.7871 122.306 40.7871 121.828C40.7871 121.271 41.2641 120.794 41.741 120.794C42.2179 120.794 42.7744 121.271 42.7744 121.828Z" fill="white"/>
</g>
<g opacity="0.3">
<path d="M46.0328 121.828C46.0328 122.385 45.6353 122.783 45.0789 122.783C44.5225 122.783 44.125 122.385 44.125 121.828C44.125 121.271 44.5225 120.873 45.0789 120.873C45.5558 120.794 46.0328 121.271 46.0328 121.828Z" fill="white"/>
</g>
<path d="M77.3531 133.922H45.0801V166.225H77.3531V133.922Z" fill="white"/>
<path d="M139.117 143.072C139.117 143.231 126.558 143.311 110.977 143.311C95.4768 143.311 82.8379 143.231 82.8379 143.072C82.8379 142.913 95.3973 142.833 110.977 142.833C126.478 142.833 139.117 142.913 139.117 143.072Z" fill="white"/>
<path d="M139.117 149.039C139.117 149.199 126.558 149.278 110.977 149.278C95.4768 149.278 82.8379 149.199 82.8379 149.039C82.8379 148.88 95.3973 148.801 110.977 148.801C126.478 148.88 139.117 148.96 139.117 149.039Z" fill="white"/>
<path d="M139.117 155.086C139.117 155.245 126.558 155.325 110.977 155.325C95.4768 155.325 82.8379 155.245 82.8379 155.086C82.8379 154.927 95.3973 154.848 110.977 154.848C126.478 154.848 139.117 154.927 139.117 155.086Z" fill="white"/>
<path d="M116.065 161.054C116.065 161.054 115.588 161.133 114.793 161.133C113.839 161.133 112.647 161.213 111.216 161.213C108.195 161.213 104.062 161.292 99.4514 161.292C94.8409 161.292 90.7074 161.292 87.6868 161.213C86.256 161.213 85.0636 161.133 84.1097 161.133C83.2353 161.133 82.8379 161.054 82.8379 161.054C82.8379 161.054 83.3148 160.974 84.1097 160.974C85.0636 160.974 86.256 160.895 87.6868 160.895C90.7074 160.895 94.8409 160.815 99.4514 160.815C104.062 160.815 108.195 160.815 111.216 160.895C112.647 160.895 113.839 160.974 114.793 160.974C115.667 161.054 116.065 161.054 116.065 161.054Z" fill="white"/>
<path d="M62.249 177.125H47.0664V192.322H62.249V177.125Z" fill="white"/>
<path d="M89.7529 177.125H74.5703V192.322H89.7529V177.125Z" fill="white"/>
<path d="M117.337 177.125H102.154V192.322H117.337V177.125Z" fill="white"/>
<path d="M144.839 177.125H129.656V192.322H144.839V177.125Z" fill="white"/>
<path d="M277.826 78.7842H173.535V121.192H277.826V78.7842Z" fill="url(#paint2_linear_1629_28235)"/>
<path d="M277.827 121.192C277.827 121.192 277.827 120.953 277.827 120.396C277.827 119.919 277.827 119.123 277.827 118.168C277.827 116.259 277.827 113.395 277.827 109.735C277.827 102.415 277.827 91.8327 277.748 78.7046L277.827 78.7841C251.277 78.7841 214.394 78.7841 173.536 78.8637L173.695 78.7046C173.695 93.5831 173.695 107.905 173.695 121.112L173.536 120.953C203.742 120.953 229.815 121.033 248.336 121.033C257.557 121.033 264.95 121.033 270.037 121.112C272.581 121.112 274.489 121.112 275.84 121.112C276.476 121.112 277.032 121.112 277.35 121.112C277.668 121.192 277.827 121.192 277.827 121.192C277.827 121.192 277.668 121.192 277.35 121.192C277.032 121.192 276.476 121.192 275.84 121.192C274.489 121.192 272.581 121.192 270.037 121.192C264.95 121.192 257.637 121.192 248.416 121.271C229.895 121.271 203.822 121.351 173.536 121.351H173.377V121.192C173.377 107.984 173.377 93.6626 173.377 78.7841V78.625H173.536C214.394 78.625 251.277 78.625 277.827 78.7046H277.907V78.7841C277.907 91.9122 277.827 102.494 277.827 109.894C277.827 113.554 277.827 116.338 277.827 118.328C277.827 119.282 277.827 119.998 277.827 120.476C277.827 120.953 277.827 121.192 277.827 121.192Z" fill="white"/>
<path d="M173.695 84.5126C173.695 84.4331 196.986 84.3535 225.761 84.3535C254.537 84.3535 277.828 84.4331 277.828 84.5126C277.828 84.5922 254.537 84.6718 225.761 84.6718C196.986 84.6718 173.695 84.5922 173.695 84.5126Z" fill="white"/>
<g opacity="0.3">
<path d="M178.066 81.9665C178.066 82.3644 177.748 82.7622 177.271 82.7622C176.874 82.7622 176.477 82.4439 176.477 81.9665C176.477 81.5687 176.795 81.1709 177.271 81.1709C177.669 81.1709 178.066 81.5687 178.066 81.9665Z" fill="white"/>
</g>
<g opacity="0.3">
<path d="M180.609 81.9665C180.609 82.3644 180.291 82.7622 179.814 82.7622C179.417 82.7622 179.02 82.4439 179.02 81.9665C179.02 81.5687 179.337 81.1709 179.814 81.1709C180.291 81.1709 180.609 81.5687 180.609 81.9665Z" fill="white"/>
</g>
<g opacity="0.3">
<path d="M182.437 82.7622C182.876 82.7622 183.232 82.406 183.232 81.9665C183.232 81.5271 182.876 81.1709 182.437 81.1709C181.998 81.1709 181.643 81.5271 181.643 81.9665C181.643 82.406 181.998 82.7622 182.437 82.7622Z" fill="white"/>
</g>
<path d="M207.638 91.4351H182.439V116.657H207.638V91.4351Z" fill="white"/>
<path d="M270.672 98.1181C270.672 98.1977 257.715 98.2772 241.737 98.2772C225.76 98.2772 212.803 98.1977 212.803 98.1181C212.803 98.0385 225.76 97.959 241.737 97.959C257.635 97.959 270.672 98.0385 270.672 98.1181Z" fill="white"/>
<path d="M270.672 103.29C270.672 103.37 257.715 103.449 241.737 103.449C225.76 103.449 212.803 103.37 212.803 103.29C212.803 103.21 225.76 103.131 241.737 103.131C257.635 103.131 270.672 103.21 270.672 103.29Z" fill="white"/>
<path d="M250.005 108.461C250.005 108.461 249.846 108.461 249.608 108.461C249.29 108.461 248.972 108.461 248.495 108.461C247.541 108.461 246.189 108.461 244.52 108.541C241.102 108.541 236.492 108.541 231.325 108.621C226.158 108.621 221.547 108.621 218.129 108.541C216.46 108.541 215.109 108.541 214.155 108.461C215.109 108.461 216.46 108.461 218.129 108.382C221.547 108.382 226.158 108.382 231.325 108.302C236.412 108.302 241.102 108.302 244.52 108.382C246.189 108.382 247.541 108.382 248.495 108.461C248.972 108.461 249.29 108.461 249.608 108.461C249.846 108.382 250.005 108.382 250.005 108.461Z" fill="white"/>
<path d="M559.222 135.354C559.222 135.354 559.381 135.116 559.779 134.718C560.256 134.24 560.812 133.684 561.527 132.967C562.958 131.535 565.025 129.546 567.251 127.398L567.33 127.318V127.637C565.025 125.488 563.038 123.579 561.527 122.147C560.812 121.51 560.256 120.953 559.779 120.476C559.381 120.078 559.143 119.839 559.222 119.839C559.222 119.839 559.461 119.998 559.938 120.396C560.415 120.794 561.051 121.351 561.766 121.988C563.276 123.34 565.343 125.25 567.648 127.398L567.807 127.557L567.648 127.716L567.569 127.796C565.343 129.944 563.276 131.933 561.766 133.286C561.051 133.922 560.415 134.479 559.938 134.957C559.461 135.195 559.222 135.354 559.222 135.354Z" fill="url(#paint3_linear_1629_28235)"/>
<path d="M541.577 119.839C541.577 119.839 541.418 120.078 541.021 120.476C540.544 120.953 539.987 121.51 539.272 122.226C537.841 123.658 535.774 125.648 533.549 127.796L533.469 127.875V127.557C535.774 129.705 537.762 131.615 539.272 133.047C539.987 133.684 540.544 134.24 541.021 134.718C541.418 135.116 541.657 135.354 541.577 135.354C541.577 135.354 541.339 135.195 540.862 134.797C540.385 134.4 539.749 133.843 539.033 133.206C537.523 131.854 535.456 129.944 533.151 127.796L532.992 127.637L533.151 127.478L533.231 127.398C535.456 125.25 537.523 123.261 539.033 121.908C539.749 121.272 540.385 120.715 540.862 120.237C541.339 119.998 541.577 119.839 541.577 119.839Z" fill="url(#paint4_linear_1629_28235)"/>
<path d="M546.108 139.014C546.028 139.014 547.857 133.763 550.241 127.398C552.626 121.033 554.613 115.861 554.772 115.941C554.852 115.941 553.024 121.192 550.639 127.557C548.254 133.922 546.267 139.094 546.108 139.014Z" fill="url(#paint5_linear_1629_28235)"/>
<path d="M579.255 150.153C579.255 150.153 579.255 149.835 579.255 149.278C579.255 148.721 579.255 147.846 579.255 146.812C579.255 144.584 579.255 141.401 579.175 137.344C579.175 129.148 579.096 117.532 579.096 103.449L579.255 103.608C562.88 103.608 543.166 103.608 522.022 103.608L522.26 103.37C522.26 120.237 522.26 136.23 522.26 150.074L522.101 149.915C539.112 149.915 553.42 149.994 563.436 149.994C568.444 149.994 572.419 149.994 575.121 150.074C576.473 150.074 577.506 150.074 578.221 150.074C578.539 150.074 578.857 150.074 579.016 150.074C579.096 150.153 579.255 150.153 579.255 150.153C579.255 150.153 579.175 150.153 579.016 150.153C578.857 150.153 578.539 150.153 578.221 150.153C577.506 150.153 576.473 150.153 575.121 150.153C572.419 150.153 568.444 150.153 563.436 150.233C553.341 150.233 539.033 150.312 521.942 150.312H521.783V150.153C521.783 136.309 521.783 120.317 521.783 103.449V103.29H522.022C543.166 103.29 562.88 103.29 579.255 103.29H579.414V103.449C579.414 117.532 579.334 129.228 579.334 137.423C579.334 141.481 579.334 144.663 579.255 146.891C579.255 147.926 579.255 148.801 579.255 149.358C579.255 149.915 579.255 150.153 579.255 150.153Z" fill="url(#paint6_linear_1629_28235)"/>
<path d="M579.651 110.371C579.651 110.451 566.694 110.61 550.796 110.61C534.819 110.61 521.941 110.53 521.941 110.371C521.941 110.291 534.898 110.132 550.796 110.132C566.774 110.212 579.651 110.291 579.651 110.371Z" fill="url(#paint7_linear_1629_28235)"/>
<path d="M526.633 106.95C526.633 107.348 526.315 107.746 525.838 107.746C525.44 107.746 525.043 107.427 525.043 106.95C525.043 106.552 525.361 106.154 525.838 106.154C526.315 106.234 526.633 106.552 526.633 106.95Z" fill="url(#paint8_linear_1629_28235)"/>
<path d="M529.414 106.95C529.414 107.348 529.096 107.746 528.619 107.746C528.222 107.746 527.824 107.427 527.824 106.95C527.824 106.552 528.142 106.154 528.619 106.154C529.096 106.234 529.414 106.552 529.414 106.95Z" fill="url(#paint9_linear_1629_28235)"/>
<path d="M532.277 106.95C532.277 107.348 531.959 107.746 531.482 107.746C531.085 107.746 530.688 107.427 530.688 106.95C530.688 106.552 531.005 106.154 531.482 106.154C531.88 106.234 532.277 106.552 532.277 106.95Z" fill="url(#paint10_linear_1629_28235)"/>
<path d="M566.06 355.588C569.398 353.917 573.293 353.678 576.95 354.235C578.937 354.554 581.004 355.19 582.355 356.622C583.707 358.134 583.945 360.68 582.435 362.033C581.481 362.828 580.209 362.908 579.017 362.908C576.155 362.908 572.975 362.351 570.67 364.101C569.398 365.056 568.524 366.727 566.934 367.204C565.424 367.682 563.675 366.807 562.88 365.374C562.085 364.022 562.006 362.271 562.403 360.68C562.324 360.68 562.721 357.259 566.06 355.588Z" fill="url(#paint11_linear_1629_28235)"/>
<path d="M558.427 340.948C560.415 343.812 564.389 342.858 566.217 341.107C568.046 339.357 568.841 336.811 569.476 334.344C571.066 328.775 572.736 322.887 571.543 317.238C571.225 315.567 570.589 313.817 569.397 312.623C568.205 311.35 566.376 310.634 564.707 311.032C562.72 311.589 561.527 313.498 560.574 315.328C557.95 320.739 556.599 326.786 556.52 332.832C556.52 335.617 556.838 338.561 558.427 340.948Z" fill="url(#paint12_linear_1629_28235)"/>
<path d="M552.864 345.085C555.089 342.46 555.487 338.641 554.533 335.379C553.579 332.116 551.353 329.332 548.81 327.024C545.789 324.399 542.291 322.251 538.555 320.977C537.045 320.421 535.535 320.023 533.945 320.182C532.355 320.341 530.765 321.137 530.05 322.489C528.937 324.558 529.971 327.024 531.163 329.093C533.15 332.673 535.376 336.095 537.92 339.357C539.907 341.982 542.291 344.528 545.312 345.722C548.412 346.915 551.592 346.756 553.261 344.608" fill="url(#paint13_linear_1629_28235)"/>
<path d="M558.348 384.549C558.348 384.549 558.428 384.072 558.507 383.197C558.587 382.242 558.746 381.048 558.825 379.616C558.984 378.105 559.223 376.275 559.62 374.365C560.018 372.376 560.654 370.307 561.528 368.159C562.402 366.011 563.436 364.101 564.708 362.51C565.9 360.919 567.331 359.805 568.682 359.168C570.033 358.532 571.226 358.213 572.021 358.134C572.895 358.054 573.293 357.975 573.293 357.975C573.293 357.975 572.816 357.895 571.941 357.975C571.067 358.054 569.874 358.213 568.444 358.93C567.013 359.566 565.503 360.68 564.231 362.271C562.959 363.863 561.846 365.852 560.972 368C560.097 370.148 559.461 372.296 559.064 374.285C558.666 376.275 558.507 378.105 558.348 379.616C558.269 381.128 558.189 382.401 558.189 383.197C558.269 384.072 558.269 384.549 558.348 384.549Z" fill="white"/>
<path d="M558.588 381.765C558.588 381.765 558.588 381.526 558.588 381.128C558.588 380.651 558.588 380.094 558.588 379.378C558.588 377.866 558.587 375.638 558.667 372.933C558.826 367.523 559.303 361.714 560.177 353.519C561.052 345.802 562.165 336.811 563.357 331.003C563.595 329.65 563.913 328.457 564.152 327.422C564.39 326.388 564.549 325.433 564.788 324.717C564.947 324.001 565.106 323.444 565.185 323.046C565.265 322.648 565.344 322.489 565.265 322.41C565.265 322.41 565.185 322.569 565.026 322.967C564.867 323.444 564.708 323.921 564.549 324.637C564.311 325.354 564.072 326.229 563.834 327.343C563.595 328.377 563.277 329.57 562.959 330.923C561.767 336.254 560.495 343.574 559.621 351.848C558.746 360.044 558.349 367.602 558.27 373.013C558.27 375.718 558.27 377.945 558.349 379.457C558.428 380.173 558.429 380.73 558.429 381.208C558.508 381.605 558.508 381.765 558.588 381.765Z" fill="white"/>
<path d="M558.586 367.363C558.586 367.363 558.586 366.727 558.586 365.533C558.507 364.34 558.348 362.669 558.03 360.6C557.712 358.532 557.156 356.065 556.44 353.44C556.122 352.246 555.327 349.302 553.42 344.926C550.955 339.038 547.537 334.185 544.596 331.162C543.881 330.366 543.165 329.809 542.529 329.252C542.211 329.013 541.893 328.695 541.655 328.536C541.337 328.377 541.098 328.138 540.86 327.979C539.906 327.342 539.35 326.945 539.35 327.024C539.27 327.104 541.496 328.456 544.358 331.48C547.219 334.503 550.478 339.277 552.943 345.165C554.294 348.347 555.248 351.212 555.963 353.599C556.758 356.224 557.235 358.691 557.632 360.68C558.03 362.749 558.189 364.419 558.348 365.533C558.507 366.727 558.586 367.363 558.586 367.363Z" fill="white"/>
<path d="M544.676 392.824L546.107 412.635H571.543L572.974 392.824H544.676Z" fill="url(#paint14_linear_1629_28235)"/>
<path d="M576.076 385.026H542.213V392.824H576.076V385.026Z" fill="url(#paint15_linear_1629_28235)"/>
<path d="M542.213 411.919V414.068H543.803H575.44V411.919H542.213Z" fill="url(#paint16_linear_1629_28235)"/>
<path d="M545.313 417.886L543.803 414.067H574.247L572.419 417.886H545.313Z" fill="white"/>
<path d="M572.498 399.269C572.498 399.269 572.498 399.348 572.419 399.428C572.339 399.587 572.18 399.746 572.021 399.905C571.624 400.383 571.147 401.019 570.511 401.815L570.432 401.894L570.352 401.815C569.398 400.542 568.206 398.791 566.696 396.802H566.934C565.821 398.314 564.629 400.064 563.357 401.894L563.277 402.053L563.118 401.894C561.767 400.303 560.336 398.632 558.826 396.802H559.064C558.985 396.882 558.906 396.961 558.826 397.12C557.475 398.791 556.203 400.383 555.01 401.894L554.852 402.053L554.772 401.894C553.5 400.064 552.308 398.393 551.195 396.802H551.433C549.685 398.791 548.174 400.542 546.982 401.815L546.902 401.894L546.823 401.815C546.267 400.86 545.79 400.064 545.472 399.507C545.313 399.269 545.233 399.03 545.154 398.871C545.074 398.712 545.074 398.632 545.074 398.632C545.074 398.632 545.154 398.712 545.233 398.791C545.313 398.95 545.472 399.109 545.631 399.348C545.949 399.905 546.505 400.701 547.061 401.656H546.902C548.015 400.303 549.526 398.632 551.274 396.563L551.354 396.404L551.433 396.563C552.546 398.075 553.739 399.826 555.09 401.656H554.852C556.044 400.144 557.316 398.553 558.667 396.882C558.747 396.802 558.826 396.643 558.905 396.563L559.064 396.404L559.223 396.563C560.734 398.314 562.165 400.064 563.436 401.656H563.198C564.47 399.826 565.742 398.155 566.855 396.563L566.934 396.404L567.014 396.563C568.444 398.632 569.637 400.383 570.591 401.656H570.432C571.067 400.86 571.624 400.223 571.942 399.826C572.101 399.666 572.26 399.507 572.339 399.348C572.498 399.348 572.498 399.269 572.498 399.269Z" fill="#F5F5F5"/>
<path d="M573.372 392.665C573.372 392.744 567.012 392.824 559.143 392.824C551.273 392.824 544.914 392.744 544.914 392.665C544.914 392.585 551.273 392.505 559.143 392.505C566.933 392.505 573.372 392.585 573.372 392.665Z" fill="#F5F5F5"/>
<path d="M574.644 414.306C574.644 414.386 567.728 414.465 559.143 414.465C550.558 414.465 543.643 414.386 543.643 414.306C543.643 414.227 550.558 414.147 559.143 414.147C567.728 414.147 574.644 414.227 574.644 414.306Z" fill="#F5F5F5"/>
<path d="M502.149 414.147H107.639C101.28 414.147 96.0332 408.976 96.0332 402.531V143.868C96.0332 140.446 98.8154 137.662 102.233 137.662H508.349C511.29 137.662 513.675 140.049 513.675 142.992V402.451C513.675 408.976 508.508 414.147 502.149 414.147Z" fill="url(#paint17_linear_1629_28235)"/>
<path d="M520.193 417.887H89.5152C83.4739 417.887 78.625 413.033 78.625 406.986V393.699H531.083V406.986C531.083 412.954 526.235 417.887 520.193 417.887Z" fill="url(#paint18_linear_1629_28235)"/>
<path d="M501.353 148.721H107.32V382.163H501.353V148.721Z" fill="#E0E0E0"/>
<path d="M263.758 393.699L269.322 402.61H348.335L353.582 393.699H263.758Z" fill="white"/>
<path d="M490.623 162.247H119.006V382.163H490.623V162.247Z" fill="url(#paint19_linear_1629_28235)"/>
<path d="M147.462 375.638C147.304 375.638 147.145 328.775 147.145 271.011C147.145 213.248 147.304 166.384 147.462 166.384C147.621 166.384 147.78 213.248 147.78 271.011C147.86 328.854 147.701 375.638 147.462 375.638Z" fill="#E0E0E0"/>
<path d="M139.991 185.4C139.991 185.559 137.288 185.719 133.949 185.719C130.611 185.719 127.908 185.559 127.908 185.4C127.908 185.241 130.611 185.082 133.949 185.082C137.288 185.082 139.991 185.241 139.991 185.4Z" fill="#E0E0E0"/>
<path d="M140.467 173.545C140.467 173.704 137.765 173.864 134.426 173.864C131.087 173.864 128.385 173.704 128.385 173.545C128.385 173.386 131.087 173.227 134.426 173.227C137.765 173.227 140.467 173.386 140.467 173.545Z" fill="#E0E0E0"/>
<path d="M139.991 198.21C139.991 198.369 137.288 198.528 133.949 198.528C130.611 198.528 127.908 198.369 127.908 198.21C127.908 198.051 130.611 197.892 133.949 197.892C137.288 197.892 139.991 198.051 139.991 198.21Z" fill="#E0E0E0"/>
<path d="M139.991 211.02C139.991 211.179 137.288 211.338 133.949 211.338C130.611 211.338 127.908 211.179 127.908 211.02C127.908 210.861 130.611 210.702 133.949 210.702C137.288 210.702 139.991 210.861 139.991 211.02Z" fill="#E0E0E0"/>
<path d="M139.991 223.83C139.991 223.989 137.288 224.148 133.949 224.148C130.611 224.148 127.908 223.989 127.908 223.83C127.908 223.671 130.611 223.511 133.949 223.511C137.288 223.432 139.991 223.591 139.991 223.83Z" fill="#E0E0E0"/>
<path d="M139.991 236.64C139.991 236.799 137.288 236.958 133.949 236.958C130.611 236.958 127.908 236.799 127.908 236.64C127.908 236.481 130.611 236.321 133.949 236.321C137.288 236.242 139.991 236.401 139.991 236.64Z" fill="#E0E0E0"/>
<path d="M139.991 249.37C139.991 249.529 137.288 249.688 133.949 249.688C130.611 249.688 127.908 249.529 127.908 249.37C127.908 249.211 130.611 249.052 133.949 249.052C137.288 249.052 139.991 249.211 139.991 249.37Z" fill="#E0E0E0"/>
<path d="M139.991 262.18C139.991 262.339 137.288 262.498 133.949 262.498C130.611 262.498 127.908 262.339 127.908 262.18C127.908 262.02 130.611 261.861 133.949 261.861C137.288 261.861 139.991 262.02 139.991 262.18Z" fill="#E0E0E0"/>
<path d="M139.991 274.99C139.991 275.149 137.288 275.308 133.949 275.308C130.611 275.308 127.908 275.149 127.908 274.99C127.908 274.831 130.611 274.671 133.949 274.671C137.288 274.671 139.991 274.831 139.991 274.99Z" fill="#E0E0E0"/>
<path d="M139.991 287.799C139.991 287.958 137.288 288.117 133.949 288.117C130.611 288.117 127.908 287.958 127.908 287.799C127.908 287.64 130.611 287.481 133.949 287.481C137.288 287.481 139.991 287.64 139.991 287.799Z" fill="#E0E0E0"/>
<path d="M139.991 300.609C139.991 300.769 137.288 300.928 133.949 300.928C130.611 300.928 127.908 300.769 127.908 300.609C127.908 300.45 130.611 300.291 133.949 300.291C137.288 300.212 139.991 300.371 139.991 300.609Z" fill="#E0E0E0"/>
<path d="M139.991 313.419C139.991 313.578 137.288 313.737 133.949 313.737C130.611 313.737 127.908 313.578 127.908 313.419C127.908 313.26 130.611 313.101 133.949 313.101C137.288 313.021 139.991 313.18 139.991 313.419Z" fill="#E0E0E0"/>
<path d="M139.991 326.149C139.991 326.308 137.288 326.468 133.949 326.468C130.611 326.468 127.908 326.308 127.908 326.149C127.908 325.99 130.611 325.831 133.949 325.831C137.288 325.831 139.991 325.99 139.991 326.149Z" fill="#E0E0E0"/>
<path d="M139.991 338.959C139.991 339.119 137.288 339.278 133.949 339.278C130.611 339.278 127.908 339.119 127.908 338.959C127.908 338.8 130.611 338.641 133.949 338.641C137.288 338.641 139.991 338.8 139.991 338.959Z" fill="#E0E0E0"/>
<path d="M139.991 351.769C139.991 351.928 137.288 352.087 133.949 352.087C130.611 352.087 127.908 351.928 127.908 351.769C127.908 351.61 130.611 351.451 133.949 351.451C137.288 351.451 139.991 351.61 139.991 351.769Z" fill="#E0E0E0"/>
<path d="M139.991 364.579C139.991 364.738 137.288 364.897 133.949 364.897C130.611 364.897 127.908 364.738 127.908 364.579C127.908 364.42 130.611 364.26 133.949 364.26C137.288 364.181 139.991 364.34 139.991 364.579Z" fill="#E0E0E0"/>
<path d="M188.401 184.684C188.401 184.843 181.406 185.002 172.742 185.002C164.077 185.002 157.082 184.843 157.082 184.684C157.082 184.525 164.077 184.366 172.742 184.366C181.406 184.286 188.401 184.445 188.401 184.684Z" fill="white"/>
<path d="M188.401 364.579C188.401 364.738 181.406 364.897 172.742 364.897C164.077 364.897 157.082 364.738 157.082 364.579C157.082 364.42 164.077 364.26 172.742 364.26C181.406 364.181 188.401 364.34 188.401 364.579Z" fill="white"/>
<path d="M232.041 211.02C232.041 211.179 218.925 211.338 202.709 211.338C186.493 211.338 173.377 211.179 173.377 211.02C173.377 210.861 186.493 210.702 202.709 210.702C218.925 210.702 232.041 210.861 232.041 211.02Z" fill="white"/>
<path d="M299.845 211.02C299.845 211.179 286.73 211.338 270.514 211.338C254.298 211.338 241.182 211.179 241.182 211.02C241.182 210.861 254.298 210.702 270.514 210.702C286.65 210.702 299.845 210.861 299.845 211.02Z" fill="#E0E0E0"/>
<path d="M273.932 223.83C273.932 223.989 254.616 224.148 230.769 224.148C206.922 224.148 187.605 223.989 187.605 223.83C187.605 223.671 206.922 223.511 230.769 223.511C254.536 223.432 273.932 223.591 273.932 223.83Z" fill="#E0E0E0"/>
<path d="M273.932 236.64C273.932 236.799 254.616 236.958 230.769 236.958C206.922 236.958 187.605 236.799 187.605 236.64C187.605 236.481 206.922 236.321 230.769 236.321C254.536 236.242 273.932 236.401 273.932 236.64Z" fill="#E0E0E0"/>
<path d="M333.391 274.99C333.391 275.149 314.075 275.308 290.228 275.308C266.381 275.308 247.064 275.149 247.064 274.99C247.064 274.831 266.381 274.671 290.228 274.671C313.995 274.671 333.391 274.831 333.391 274.99Z" fill="#E0E0E0"/>
<path d="M307.715 249.37C307.715 249.529 288.399 249.688 264.552 249.688C240.705 249.688 221.389 249.529 221.389 249.37C221.389 249.211 240.705 249.052 264.552 249.052C288.399 249.052 307.715 249.211 307.715 249.37Z" fill="#E0E0E0"/>
<path d="M413.28 249.37C413.28 249.529 393.963 249.688 370.116 249.688C346.269 249.688 326.953 249.529 326.953 249.37C326.953 249.211 346.269 249.052 370.116 249.052C393.963 249.052 413.28 249.211 413.28 249.37Z" fill="#E0E0E0"/>
<path d="M376.555 223.83C376.555 223.989 357.239 224.148 333.392 224.148C309.545 224.148 290.229 223.989 290.229 223.83C290.229 223.671 309.545 223.511 333.392 223.511C357.239 223.432 376.555 223.591 376.555 223.83Z" fill="#FAFAFA"/>
<path d="M436.252 274.99C436.252 275.149 416.936 275.308 393.089 275.308C369.242 275.308 349.926 275.149 349.926 274.99C349.926 274.831 369.242 274.671 393.089 274.671C416.936 274.671 436.252 274.831 436.252 274.99Z" fill="#FAFAFA"/>
<path d="M424.328 236.64C424.328 236.799 394.281 236.958 357.238 236.958C320.196 236.958 290.148 236.799 290.148 236.64C290.148 236.481 320.196 236.321 357.238 236.321C394.281 236.242 424.328 236.401 424.328 236.64Z" fill="#455A64"/>
<path d="M188.401 198.21C188.401 198.369 181.406 198.528 172.742 198.528C164.077 198.528 157.082 198.369 157.082 198.21C157.082 198.051 164.077 197.892 172.742 197.892C181.406 197.892 188.401 198.051 188.401 198.21Z" fill="#FAFAFA"/>
<path d="M188.401 351.769C188.401 351.928 181.406 352.087 172.742 352.087C164.077 352.087 157.082 351.928 157.082 351.769C157.082 351.61 164.077 351.451 172.742 351.451C181.406 351.451 188.401 351.61 188.401 351.769Z" fill="#FAFAFA"/>
<path d="M203.901 249.37C203.901 249.529 196.906 249.688 188.242 249.688C179.577 249.688 172.582 249.529 172.582 249.37C172.582 249.211 179.577 249.052 188.242 249.052C196.906 249.052 203.901 249.211 203.901 249.37Z" fill="#FAFAFA"/>
<path d="M455.011 249.37C455.011 249.529 448.015 249.688 439.351 249.688C430.687 249.688 423.691 249.529 423.691 249.37C423.691 249.211 430.687 249.052 439.351 249.052C448.015 249.052 455.011 249.211 455.011 249.37Z" fill="white"/>
<path d="M232.041 300.53C232.041 300.689 218.925 300.848 202.709 300.848C186.493 300.848 173.377 300.689 173.377 300.53C173.377 300.371 186.493 300.212 202.709 300.212C218.925 300.132 232.041 300.291 232.041 300.53Z" fill="white"/>
<path d="M299.845 300.53C299.845 300.689 286.73 300.848 270.514 300.848C254.298 300.848 241.182 300.689 241.182 300.53C241.182 300.371 254.298 300.212 270.514 300.212C286.65 300.132 299.845 300.291 299.845 300.53Z" fill="#E0E0E0"/>
<path d="M273.932 313.339C273.932 313.499 254.616 313.658 230.769 313.658C206.922 313.658 187.605 313.499 187.605 313.339C187.605 313.18 206.922 313.021 230.769 313.021C254.536 312.942 273.932 313.101 273.932 313.339Z" fill="#E0E0E0"/>
<path d="M273.932 326.07C273.932 326.229 254.616 326.388 230.769 326.388C206.922 326.388 187.605 326.229 187.605 326.07C187.605 325.911 206.922 325.751 230.769 325.751C254.536 325.751 273.932 325.911 273.932 326.07Z" fill="#E0E0E0"/>
<path d="M307.715 338.88C307.715 339.039 288.399 339.198 264.552 339.198C240.705 339.198 221.389 339.039 221.389 338.88C221.389 338.721 240.705 338.562 264.552 338.562C288.399 338.562 307.715 338.721 307.715 338.88Z" fill="#E0E0E0"/>
<path d="M413.28 338.88C413.28 339.039 393.963 339.198 370.116 339.198C346.269 339.198 326.953 339.039 326.953 338.88C326.953 338.721 346.269 338.562 370.116 338.562C393.963 338.562 413.28 338.721 413.28 338.88Z" fill="#E0E0E0"/>
<path d="M376.555 313.339C376.555 313.499 357.239 313.658 333.392 313.658C309.545 313.658 290.229 313.499 290.229 313.339C290.229 313.18 309.545 313.021 333.392 313.021C357.239 312.942 376.555 313.101 376.555 313.339Z" fill="#FAFAFA"/>
<path d="M424.328 326.07C424.328 326.229 394.281 326.388 357.238 326.388C320.196 326.388 290.148 326.229 290.148 326.07C290.148 325.911 320.196 325.751 357.238 325.751C394.281 325.751 424.328 325.911 424.328 326.07Z" fill="#455A64"/>
<path d="M203.901 338.88C203.901 339.039 196.906 339.198 188.242 339.198C179.577 339.198 172.582 339.039 172.582 338.88C172.582 338.721 179.577 338.562 188.242 338.562C196.906 338.562 203.901 338.721 203.901 338.88Z" fill="#FAFAFA"/>
<path d="M455.011 338.88C455.011 339.039 448.015 339.198 439.351 339.198C430.687 339.198 423.691 339.039 423.691 338.88C423.691 338.721 430.687 338.562 439.351 338.562C448.015 338.562 455.011 338.721 455.011 338.88Z" fill="white"/>
<path d="M463.357 401.735C463.357 401.815 383.39 401.974 284.663 401.974C185.936 401.974 105.969 401.894 105.969 401.735C105.969 401.656 185.936 401.497 284.663 401.497C383.39 401.576 463.357 401.656 463.357 401.735Z" fill="#263238"/>
<path d="M92.6151 331.639C81.6455 320.42 64.4756 315.726 49.293 319.784C62.4883 328.615 77.2735 333.31 93.0921 333.469" fill="url(#paint20_linear_1629_28235)"/>
<path d="M77.9878 279.604C79.8161 266.874 74.8082 252.473 65.2694 243.164C64.9514 255.814 70.2773 270.056 77.9878 279.604Z" fill="url(#paint21_linear_1629_28235)"/>
<path d="M85.6186 303.712C78.7824 290.664 67.6538 280.002 54.3789 273.796C58.3534 288.515 70.9129 300.529 85.7776 303.871" fill="url(#paint22_linear_1629_28235)"/>
<path d="M87.2089 308.327C79.4984 308.565 71.7083 308.247 64.2362 306.338C56.7642 304.348 49.6895 300.609 44.6816 294.642C59.7053 294.642 74.6495 299.256 87.0499 307.611" fill="url(#paint23_linear_1629_28235)"/>
<path d="M83.3145 293.05C87.2095 278.411 93.6482 268.226 105.174 260.031C106.049 267.192 104.3 274.591 100.325 280.559C96.3509 286.526 90.1506 291.061 83.3145 293.05Z" fill="url(#paint24_linear_1629_28235)"/>
<path d="M112.328 318.352C112.567 309.839 107.002 301.484 99.1328 298.222C99.8482 305.781 105.731 314.533 112.328 318.352Z" fill="url(#paint25_linear_1629_28235)"/>
<path d="M116.064 305.94C116.939 293.687 125.603 282.389 137.209 278.331C134.586 290.664 127.511 300.848 116.064 305.94Z" fill="url(#paint26_linear_1629_28235)"/>
<path d="M110.5 327.899C113.203 324.001 117.654 321.614 122.265 320.42C126.875 319.227 131.644 319.147 136.414 318.988C130.055 326.069 120.436 330.048 110.897 329.65" fill="url(#paint27_linear_1629_28235)"/>
<path d="M105.016 359.168C113.601 356.542 123.06 357.179 131.168 361.078C139.276 364.897 145.794 371.819 149.212 380.173C133.076 377.07 117.257 369.909 105.016 359.168Z" fill="url(#paint28_linear_1629_28235)"/>
<path d="M87.3688 348.348C90.0715 356.225 89.5151 365.772 83.6328 372.535C81.1686 364.42 82.5994 355.27 87.3688 348.348Z" fill="url(#paint29_linear_1629_28235)"/>
<path d="M76.9543 343.971C76.2388 354.076 69.7206 363.624 60.5793 368.079C60.1023 368.318 59.6254 368.477 59.1484 368.318C58.433 368 58.3535 367.045 58.433 366.249C59.6254 356.065 67.0975 346.279 76.9543 343.971Z" fill="url(#paint30_linear_1629_28235)"/>
<path d="M70.1982 342.937C65.6672 347.791 59.149 350.735 52.4718 350.735C45.8741 350.735 39.197 347.95 34.666 343.096C45.9536 341.823 58.99 341.028 70.1982 342.937Z" fill="url(#paint31_linear_1629_28235)"/>
<path d="M68.4492 252.632C68.4492 252.632 68.4492 252.711 68.5287 252.95C68.6082 253.189 68.6877 253.507 68.8467 253.905C69.1646 254.78 69.6416 255.974 70.198 257.565C70.8339 259.156 71.4698 261.066 72.3442 263.373C72.7417 264.487 73.2186 265.68 73.6161 267.033C74.093 268.306 74.57 269.659 75.0469 271.091C77.0342 276.819 79.2599 283.662 81.6446 291.3C84.0293 298.938 86.4935 307.452 88.8782 316.363C91.2629 325.274 93.4092 333.867 95.2374 341.664C96.9862 349.461 98.4965 356.543 99.6094 362.51C99.9274 364.022 100.166 365.454 100.404 366.727C100.643 368.079 100.881 369.353 101.04 370.546C101.438 372.933 101.835 375.002 102.074 376.672C102.312 378.343 102.551 379.616 102.63 380.491C102.71 380.889 102.789 381.287 102.789 381.526C102.789 381.765 102.868 381.844 102.868 381.844C102.868 381.844 102.868 381.765 102.868 381.526C102.868 381.287 102.789 380.969 102.71 380.491C102.551 379.616 102.392 378.264 102.233 376.593C101.994 374.922 101.676 372.853 101.279 370.466C101.12 369.273 100.881 368 100.643 366.647C100.404 365.295 100.166 363.863 99.8479 362.43C98.8145 356.463 97.3042 349.382 95.5554 341.585C93.7271 333.787 91.6604 325.194 89.2757 316.283C86.8115 307.372 84.3473 298.938 81.9626 291.22C79.5779 283.582 77.2726 276.74 75.2854 271.011C74.8084 269.579 74.3315 268.226 73.8546 266.953C73.3776 265.68 72.9007 264.487 72.5032 263.373C71.7083 261.145 70.9134 259.156 70.2775 257.565C69.6416 255.974 69.1646 254.78 68.8467 253.905C68.6877 253.507 68.5287 253.189 68.4492 252.95C68.5287 252.711 68.4492 252.632 68.4492 252.632Z" fill="white"/>
<path d="M130.452 284.935C130.452 284.935 130.372 285.015 130.293 285.094C130.134 285.253 129.975 285.412 129.736 285.651C129.259 286.129 128.544 286.924 127.749 287.879C126.08 289.868 123.616 292.812 121.072 296.711C118.528 300.609 115.905 305.622 114.156 311.589C112.328 317.477 111.136 324.24 110.023 331.321C107.718 345.404 104.935 358.055 102.869 367.125C101.835 371.66 101.04 375.32 100.404 377.946C100.166 379.219 99.9275 380.173 99.7685 380.889C99.689 381.208 99.689 381.446 99.6095 381.685C99.6095 381.844 99.5301 381.924 99.6095 381.924C99.6095 381.924 99.6095 381.844 99.689 381.685C99.7685 381.526 99.7685 381.208 99.9275 380.889C100.086 380.173 100.325 379.219 100.643 377.946C101.279 375.4 102.153 371.74 103.187 367.204C105.333 358.134 108.194 345.483 110.5 331.401C111.613 324.399 112.805 317.636 114.633 311.748C116.382 305.86 118.926 300.848 121.469 296.949C123.934 292.971 126.318 290.027 127.988 288.038C128.782 287.004 129.498 286.288 129.895 285.731C130.134 285.492 130.293 285.253 130.372 285.174C130.452 285.015 130.452 284.935 130.452 284.935Z" fill="white"/>
<path d="M66.7793 342.46C66.7793 342.46 66.9383 342.54 67.1767 342.54C67.4947 342.54 67.8922 342.619 68.3691 342.699C68.6076 342.699 68.9255 342.778 69.2435 342.778C69.5615 342.858 69.8794 342.858 70.2769 342.937C70.9923 343.017 71.7872 343.176 72.6616 343.335C73.1385 343.415 73.6155 343.494 74.0924 343.653C74.5693 343.813 75.0463 343.892 75.6027 344.051C76.6361 344.29 77.749 344.688 78.8618 345.006C81.167 345.802 83.5517 346.836 86.0159 348.189C88.4801 349.541 90.6264 351.132 92.4546 352.644C93.329 353.44 94.2034 354.235 94.9188 355.031C95.7137 355.747 96.2702 356.543 96.8266 357.259C97.4625 357.975 97.86 358.691 98.2574 359.248C98.6549 359.805 98.9728 360.362 99.2113 360.839C99.4498 361.237 99.6088 361.555 99.8472 361.874C100.006 362.112 100.086 362.192 100.086 362.192C100.086 362.192 100.006 362.033 99.9267 361.794C99.7677 361.476 99.6088 361.158 99.3703 360.76C99.1318 360.282 98.8139 359.725 98.4164 359.168C98.019 358.532 97.6215 357.816 96.9856 357.1C96.4292 356.384 95.7932 355.588 95.0778 354.792C94.3624 353.997 93.488 353.201 92.6136 352.406C90.7853 350.814 88.6391 349.223 86.1749 347.87C83.7107 346.518 81.2465 345.483 78.9413 344.688C77.7489 344.37 76.7156 343.972 75.6027 343.733C75.0463 343.574 74.5693 343.494 74.0924 343.335C73.6155 343.256 73.1385 343.176 72.6616 343.096C71.7872 342.937 70.9128 342.858 70.1974 342.778C69.8794 342.699 69.482 342.699 69.164 342.699C68.846 342.699 68.6076 342.699 68.2896 342.619C67.8127 342.619 67.4152 342.619 67.0973 342.54C66.9383 342.38 66.7793 342.38 66.7793 342.46Z" fill="white"/>
<path d="M63.5996 285.173C63.5996 285.173 63.8381 285.492 64.3945 285.969C65.0304 286.526 65.8253 287.162 66.6997 287.958C68.687 289.629 71.3897 291.936 74.4898 294.482C77.5104 297.028 80.2926 299.256 82.3593 300.927C83.3132 301.723 84.1081 302.359 84.744 302.837C85.3004 303.314 85.6184 303.553 85.6979 303.473C85.6979 303.473 85.4594 303.155 84.903 302.677C84.2671 302.121 83.4722 301.484 82.5978 300.688C80.6105 299.018 77.9079 296.71 74.8077 294.164C71.7871 291.618 69.0049 289.39 66.9382 287.719C65.9843 286.924 65.1894 286.287 64.5535 285.81C63.9176 285.412 63.5996 285.173 63.5996 285.173Z" fill="white"/>
<path d="M60.8184 300.132C60.8184 300.211 66.7006 302.121 74.0932 304.269C81.4063 306.417 87.4476 308.088 87.4476 308.009C87.4476 307.929 81.5653 306.02 74.1727 303.871C66.8596 301.643 60.8184 300.052 60.8184 300.132Z" fill="white"/>
<path d="M82.6777 294.164C82.6777 294.164 82.9162 293.846 83.3137 293.289C83.7111 292.652 84.2675 291.857 84.9035 290.902C86.2548 288.913 88.0831 286.128 90.3088 283.264C92.5345 280.32 94.6808 277.774 96.2706 276.023C96.986 275.148 97.6219 274.432 98.1783 273.875C98.6553 273.398 98.8937 273.08 98.8143 273.08C98.8143 273.08 98.4963 273.318 98.0193 273.796C97.5424 274.273 96.827 274.989 96.0321 275.864C94.3628 277.615 92.2166 280.161 89.9908 283.105C87.7651 286.049 85.9368 288.833 84.665 290.822C84.0291 291.857 83.5521 292.652 83.2342 293.289C82.8367 293.846 82.6777 294.164 82.6777 294.164Z" fill="white"/>
<path d="M103.265 302.439C103.186 302.439 103.742 303.314 104.617 304.746C105.491 306.179 106.683 308.088 107.955 310.236C109.227 312.464 110.26 314.453 110.976 315.885C111.691 317.397 112.168 318.272 112.248 318.272C112.327 318.272 111.93 317.317 111.294 315.806C110.658 314.294 109.625 312.225 108.353 310.077C107.081 307.849 105.889 305.94 104.935 304.587C103.981 303.235 103.345 302.439 103.265 302.439Z" fill="white"/>
<path d="M110.34 328.297C110.34 328.377 111.532 327.82 113.36 326.945C115.189 326.149 117.812 325.035 120.753 324.001C123.694 322.967 126.397 322.251 128.305 321.694C130.292 321.216 131.484 320.898 131.484 320.818C131.484 320.818 131.166 320.818 130.61 320.898C130.053 320.977 129.259 321.137 128.225 321.375C126.238 321.773 123.535 322.489 120.594 323.524C117.653 324.558 115.109 325.672 113.281 326.627C112.407 327.104 111.612 327.502 111.135 327.74C110.578 328.138 110.34 328.297 110.34 328.297Z" fill="white"/>
<path d="M104.777 359.248C104.777 359.248 104.936 359.327 105.175 359.407C105.493 359.486 105.811 359.566 106.208 359.646C107.242 359.884 108.513 360.203 110.183 360.521C113.521 361.316 118.132 362.271 123.06 363.942C127.988 365.613 132.201 367.761 135.063 369.591C136.494 370.546 137.607 371.342 138.402 371.898C139.197 372.455 139.594 372.774 139.594 372.774C139.594 372.774 139.515 372.694 139.356 372.455C139.197 372.296 138.879 372.058 138.561 371.739C137.845 371.103 136.732 370.228 135.302 369.273C132.44 367.363 128.227 365.136 123.299 363.465C118.37 361.794 113.68 360.839 110.342 360.203C108.752 359.884 107.401 359.646 106.367 359.407C105.334 359.327 104.777 359.168 104.777 359.248Z" fill="white"/>
<path d="M84.7441 366.886C84.8236 366.886 85.539 362.749 86.3339 357.577C87.0493 352.405 87.6058 348.268 87.4468 348.188C87.3673 348.188 86.6519 352.326 85.857 357.497C85.1416 362.669 84.5851 366.806 84.7441 366.886Z" fill="white"/>
<path d="M63.8398 359.248C63.9193 359.248 64.5553 358.452 65.7476 357.02C66.8605 355.588 68.4503 353.678 70.1991 351.609C71.9478 349.541 73.6171 347.631 74.8095 346.279C76.0018 344.926 76.7173 344.051 76.7173 344.051C76.7173 344.051 76.4788 344.21 76.0813 344.528C75.6839 344.846 75.2069 345.403 74.571 346.04C73.2992 347.313 71.6299 349.222 69.8811 351.291C68.1323 353.439 66.5425 355.349 65.5091 356.861C64.9527 357.577 64.5553 358.213 64.2373 358.611C63.9988 359.009 63.8398 359.248 63.8398 359.248Z" fill="white"/>
<path d="M119.084 378.662V388.925H116.54L107.32 417.887H87.0495L78.1466 389.244L74.7285 388.925V378.662H119.084Z" fill="url(#paint32_linear_1629_28235)"/>
<g opacity="0.3">
<path d="M119.084 378.662V388.925H116.54L107.32 417.887H87.0495L78.1466 389.244L74.7285 388.925V378.662H119.084Z" fill="black"/>
</g>
<path d="M76.3984 389.244C76.3984 389.323 85.3808 389.482 96.43 389.482C107.479 389.482 116.462 389.403 116.462 389.244C116.462 389.084 107.479 389.005 96.43 389.005C85.3808 389.005 76.3984 389.164 76.3984 389.244Z" fill="white"/>
<path d="M61.7715 322.887C61.7715 322.887 62.2484 323.046 63.0433 323.205C63.9972 323.444 65.1896 323.682 66.6204 324.08C69.641 324.796 73.7745 325.99 78.226 327.501C82.6774 329.013 86.6519 330.605 89.5136 331.798C90.8649 332.434 91.9778 332.912 92.8522 333.31C93.6471 333.628 94.124 333.867 94.124 333.787C94.124 333.787 93.7266 333.548 92.9317 333.151C92.1368 332.753 91.0239 332.196 89.5931 331.559C86.8109 330.286 82.8364 328.615 78.3055 327.104C73.7745 325.592 69.641 324.478 66.6204 323.842C65.1101 323.523 63.8382 323.285 63.0433 323.125C62.2484 322.887 61.7715 322.807 61.7715 322.887Z" fill="white"/>
<path d="M83.1543 405.315C83.1543 405.395 89.434 405.554 97.2241 405.554C105.014 405.554 111.294 405.474 111.294 405.315C111.294 405.156 105.014 405.077 97.2241 405.077C89.434 405.077 83.1543 405.236 83.1543 405.315Z" fill="#FAFAFA"/>
<path d="M82.3594 402.929C82.3594 403.008 89.0366 403.167 97.3035 403.167C105.571 403.167 112.248 403.088 112.248 402.929C112.248 402.77 105.571 402.69 97.3035 402.69C89.0366 402.69 82.3594 402.849 82.3594 402.929Z" fill="#FAFAFA"/>
<path d="M579.413 418.046C579.413 418.125 458.27 418.285 308.828 418.285C159.307 418.285 38.1641 418.205 38.1641 418.046C38.1641 417.966 159.307 417.807 308.828 417.807C458.27 417.887 579.413 417.966 579.413 418.046Z" fill="#263238"/>
<path d="M505.169 115.463H292.135V247.54H471.465L482.593 273.08L492.45 247.54H505.169V115.463Z" fill="url(#paint33_linear_1629_28235)"/>
<path d="M505.169 115.463C505.169 116.736 505.249 166.384 505.328 247.54V247.699H505.169C501.274 247.699 496.902 247.699 492.451 247.699L492.61 247.619C489.51 255.655 486.171 264.248 482.753 273.16L482.594 273.557L482.435 273.16C478.938 265.124 475.202 256.451 471.307 247.619L471.466 247.699C423.294 247.699 367.89 247.699 309.305 247.699C303.582 247.699 297.859 247.699 292.136 247.699H291.977V247.46C291.977 200.438 291.977 155.723 291.977 115.384V115.225H292.136C417.889 115.384 503.5 115.463 505.169 115.463C503.5 115.463 417.889 115.543 292.136 115.622L292.295 115.463C292.295 155.802 292.295 200.438 292.295 247.54L292.056 247.301C297.7 247.301 303.423 247.301 309.226 247.301C367.81 247.301 423.215 247.301 471.386 247.301H471.545L471.625 247.381C475.52 256.292 479.256 264.964 482.753 272.921H482.435C485.853 264.01 489.192 255.337 492.292 247.381L492.371 247.301H492.451C496.902 247.301 501.274 247.301 505.169 247.301L505.01 247.46C505.09 166.305 505.169 116.736 505.169 115.463Z" fill="white"/>
<path d="M505.09 128.352C505.09 128.512 457.475 128.671 398.812 128.671C340.068 128.671 292.533 128.512 292.533 128.352C292.533 128.193 340.148 128.034 398.812 128.034C457.475 128.034 505.09 128.193 505.09 128.352Z" fill="white"/>
<path d="M303.503 122.544C303.503 123.499 302.709 124.295 301.755 124.295C300.801 124.295 300.006 123.499 300.006 122.544C300.006 121.59 300.801 120.794 301.755 120.794C302.709 120.794 303.503 121.51 303.503 122.544Z" fill="white"/>
<path d="M309.783 122.544C309.783 123.499 308.988 124.295 308.034 124.295C307.08 124.295 306.285 123.499 306.285 122.544C306.285 121.59 307.08 120.794 308.034 120.794C308.988 120.794 309.783 121.51 309.783 122.544Z" fill="white"/>
<path d="M316.142 122.544C316.142 123.499 315.347 124.295 314.393 124.295C313.439 124.295 312.645 123.499 312.645 122.544C312.645 121.59 313.439 120.794 314.393 120.794C315.347 120.794 316.142 121.51 316.142 122.544Z" fill="white"/>
<path d="M315.426 151.983L310.338 153.972L315.426 155.961V157.155L309.066 154.609V153.415L315.426 150.869V151.983Z" fill="white"/>
<path d="M320.672 146.891H321.944L317.254 160.337H315.982L320.672 146.891Z" fill="white"/>
<path d="M328.701 153.336V154.529L322.342 157.075V155.882L327.429 153.893L322.342 151.903V150.71L328.701 153.336Z" fill="white"/>
<path d="M330.291 158.03C330.291 157.473 330.768 157.075 331.245 157.075C331.722 157.075 332.199 157.473 332.199 158.03C332.199 158.587 331.801 158.985 331.245 158.985C330.768 158.985 330.291 158.587 330.291 158.03Z" fill="white"/>
<path d="M333.549 158.03C333.549 157.473 334.026 157.075 334.503 157.075C334.98 157.075 335.457 157.473 335.457 158.03C335.457 158.587 335.059 158.985 334.503 158.985C334.026 158.985 333.549 158.587 333.549 158.03Z" fill="white"/>
<path d="M336.809 158.03C336.809 157.473 337.286 157.075 337.762 157.075C338.239 157.075 338.716 157.473 338.716 158.03C338.716 158.587 338.319 158.985 337.762 158.985C337.206 158.985 336.809 158.587 336.809 158.03Z" fill="white"/>
<path d="M449.924 170.84C449.924 170.999 418.446 171.158 379.575 171.158C340.705 171.158 309.227 170.999 309.227 170.84C309.227 170.681 340.705 170.521 379.575 170.521C418.446 170.521 449.924 170.681 449.924 170.84Z" fill="white"/>
<path d="M472.896 171.238C472.896 171.397 469.876 171.556 466.139 171.556C462.403 171.556 459.383 171.397 459.383 171.238C459.383 171.079 462.403 170.919 466.139 170.919C469.876 170.919 472.896 171.079 472.896 171.238Z" fill="white"/>
<path d="M492.609 171.238C492.609 171.397 489.271 171.556 485.217 171.556C481.163 171.556 477.824 171.397 477.824 171.238C477.824 171.079 481.163 170.919 485.217 170.919C489.35 170.919 492.609 171.079 492.609 171.238Z" fill="white"/>
<path d="M398.812 182.695C398.812 182.854 378.78 183.013 354.138 183.013C329.417 183.013 309.465 182.854 309.465 182.695C309.465 182.536 329.496 182.376 354.138 182.376C378.78 182.376 398.812 182.536 398.812 182.695Z" fill="white"/>
<path d="M398.175 226.933C398.175 227.092 378.144 227.251 353.502 227.251C328.78 227.251 308.828 227.092 308.828 226.933C308.828 226.773 328.86 226.614 353.502 226.614C378.144 226.614 398.175 226.773 398.175 226.933Z" fill="white"/>
<path d="M431.324 182.695C431.324 182.854 425.839 183.013 419.162 183.013C412.405 183.013 407 182.854 407 182.695C407 182.536 412.405 182.376 419.162 182.376C425.839 182.376 431.324 182.536 431.324 182.695Z" fill="white"/>
<path d="M431.006 226.933C431.006 227.092 425.521 227.251 418.844 227.251C412.087 227.251 406.682 227.092 406.682 226.933C406.682 226.773 412.087 226.614 418.844 226.614C425.6 226.614 431.006 226.773 431.006 226.933Z" fill="white"/>
<path d="M315.268 188.742C315.268 188.901 313.916 189.06 312.247 189.06C310.578 189.06 309.227 188.901 309.227 188.742C309.227 188.582 310.578 188.423 312.247 188.423C313.916 188.423 315.268 188.582 315.268 188.742Z" fill="white"/>
<path d="M336.093 188.821C336.093 188.98 333.152 189.139 329.575 189.139C325.918 189.139 323.057 188.98 323.057 188.821C323.057 188.662 325.998 188.503 329.575 188.503C333.152 188.582 336.093 188.662 336.093 188.821Z" fill="white"/>
<path d="M349.37 188.821C349.37 188.98 346.826 189.139 343.726 189.139C340.626 189.139 338.082 188.98 338.082 188.821C338.082 188.662 340.626 188.503 343.726 188.503C346.826 188.582 349.37 188.662 349.37 188.821Z" fill="white"/>
<path d="M366.22 188.821C366.22 188.98 363.676 189.139 360.497 189.139C357.317 189.139 354.773 188.98 354.773 188.821C354.773 188.662 357.317 188.503 360.497 188.503C363.676 188.582 366.22 188.662 366.22 188.821Z" fill="white"/>
<path d="M381.006 188.821C381.006 188.98 378.7 189.139 375.839 189.139C372.977 189.139 370.672 188.98 370.672 188.821C370.672 188.662 372.977 188.503 375.839 188.503C378.621 188.582 381.006 188.662 381.006 188.821Z" fill="white"/>
<path d="M429.814 188.821C429.814 188.98 419.559 189.139 406.921 189.139C394.282 189.139 384.027 188.98 384.027 188.821C384.027 188.662 394.282 188.503 406.921 188.503C419.639 188.582 429.814 188.662 429.814 188.821Z" fill="white"/>
<path d="M314.473 196.38C314.473 196.539 313.281 196.698 311.85 196.698C310.419 196.698 309.227 196.539 309.227 196.38C309.227 196.221 310.419 196.062 311.85 196.062C313.281 196.141 314.473 196.221 314.473 196.38Z" fill="white"/>
<path d="M314.632 204.336C314.632 204.495 313.44 204.655 311.929 204.655C310.419 204.655 309.227 204.495 309.227 204.336C309.227 204.177 310.419 204.018 311.929 204.018C313.44 204.018 314.632 204.177 314.632 204.336Z" fill="white"/>
<path d="M314.632 213.247C314.632 213.407 313.44 213.566 311.929 213.566C310.419 213.566 309.227 213.407 309.227 213.247C309.227 213.088 310.419 212.929 311.929 212.929C313.44 213.009 314.632 213.088 314.632 213.247Z" fill="white"/>
<path d="M363.916 212.85C363.916 213.009 354.854 213.168 343.726 213.168C332.597 213.168 323.535 213.009 323.535 212.85C323.535 212.69 332.597 212.531 343.726 212.531C354.934 212.531 363.916 212.69 363.916 212.85Z" fill="white"/>
<path d="M360.419 204.336C360.419 204.495 351.834 204.655 341.182 204.655C330.53 204.655 321.945 204.495 321.945 204.336C321.945 204.177 330.53 204.018 341.182 204.018C351.754 204.018 360.419 204.177 360.419 204.336Z" fill="white"/>
<path d="M453.342 195.982C453.342 196.141 424.01 196.301 387.842 196.301C351.674 196.301 322.342 196.141 322.342 195.982C322.342 195.823 351.674 195.664 387.842 195.664C424.01 195.744 453.342 195.823 453.342 195.982Z" fill="white"/>
<path d="M518.285 169.487V281.673L500.877 296.233H518.285H519.955H591.973V169.487H518.285Z" fill="url(#paint34_linear_1629_28235)"/>
<path d="M518.285 169.487C518.285 169.487 518.683 169.487 519.557 169.487C520.431 169.487 521.703 169.487 523.372 169.487C526.711 169.487 531.719 169.487 538.078 169.487C550.876 169.487 569.318 169.408 592.052 169.408H592.211V169.567C592.211 203.461 592.211 247.699 592.291 296.313V296.551H592.052C587.998 296.551 583.626 296.551 579.254 296.551C551.512 296.551 524.962 296.551 500.877 296.551H500.32L500.718 296.233C506.759 291.221 512.562 286.367 518.126 281.673L518.047 281.832C518.047 248.256 518.126 220.17 518.126 200.517C518.126 190.731 518.126 182.934 518.206 177.682C518.206 175.057 518.206 173.068 518.206 171.636C518.206 170.999 518.206 170.442 518.206 170.124C518.285 169.646 518.285 169.487 518.285 169.487C518.285 169.487 518.285 169.646 518.285 170.044C518.285 170.362 518.285 170.919 518.285 171.636C518.285 172.988 518.285 175.057 518.285 177.682C518.285 183.013 518.285 190.731 518.365 200.597C518.365 220.249 518.444 248.256 518.444 281.832V281.911L518.365 281.991C512.8 286.685 506.998 291.539 500.956 296.551L500.797 296.233C524.883 296.233 551.433 296.233 579.175 296.233C583.547 296.233 587.919 296.233 591.973 296.233L591.734 296.472C591.734 247.778 591.734 203.541 591.814 169.726L591.973 169.885C569.318 169.885 550.876 169.806 538.078 169.806C531.719 169.806 526.711 169.806 523.372 169.806C521.703 169.806 520.431 169.806 519.557 169.806C518.762 169.487 518.285 169.487 518.285 169.487Z" fill="#F9F8F7"/>
<path d="M524.962 175.057C524.962 175.852 524.326 176.568 523.452 176.568C522.657 176.568 521.941 175.932 521.941 175.057C521.941 174.261 522.577 173.545 523.452 173.545C524.326 173.545 524.962 174.181 524.962 175.057Z" fill="#F9F8F7"/>
<path d="M530.368 175.057C530.368 175.852 529.732 176.568 528.858 176.568C528.063 176.568 527.348 175.932 527.348 175.057C527.348 174.261 527.984 173.545 528.858 173.545C529.732 173.545 530.368 174.181 530.368 175.057Z" fill="#F9F8F7"/>
<path d="M535.773 175.057C535.773 175.852 535.137 176.568 534.262 176.568C533.467 176.568 532.752 175.932 532.752 175.057C532.752 174.261 533.388 173.545 534.262 173.545C535.137 173.545 535.773 174.181 535.773 175.057Z" fill="#F9F8F7"/>
<path d="M571.703 209.587C571.703 209.746 562.323 209.826 550.797 209.826C539.27 209.826 529.891 209.746 529.891 209.587C529.891 209.428 539.27 209.349 550.797 209.349C562.402 209.349 571.703 209.508 571.703 209.587Z" fill="#F9F8F7"/>
<path d="M580.446 219.771C580.446 219.931 569.079 220.01 555.009 220.01C540.939 220.01 529.572 219.931 529.572 219.771C529.572 219.612 540.939 219.533 555.009 219.533C569.079 219.533 580.446 219.612 580.446 219.771Z" fill="#F9F8F7"/>
<path d="M582.513 257.644C582.513 257.803 570.351 257.883 555.407 257.883C540.463 257.883 528.301 257.803 528.301 257.644C528.301 257.485 540.463 257.405 555.407 257.405C570.351 257.405 582.513 257.485 582.513 257.644Z" fill="#F9F8F7"/>
<path d="M533.865 224.943C533.865 225.102 532.672 225.182 531.321 225.182C529.89 225.182 528.777 225.102 528.777 224.943C528.777 224.784 529.97 224.705 531.321 224.705C532.752 224.705 533.865 224.784 533.865 224.943Z" fill="#F9F8F7"/>
<path d="M551.671 225.023C551.671 225.182 549.127 225.262 546.107 225.262C543.007 225.262 540.463 225.182 540.463 225.023C540.463 224.864 543.007 224.784 546.107 224.784C549.207 224.784 551.671 224.943 551.671 225.023Z" fill="#F9F8F7"/>
<path d="M563.037 225.023C563.037 225.182 560.891 225.262 558.267 225.262C555.644 225.262 553.498 225.182 553.498 225.023C553.498 224.864 555.644 224.784 558.267 224.784C560.891 224.784 563.037 224.943 563.037 225.023Z" fill="#F9F8F7"/>
<path d="M533.149 231.547C533.149 231.706 532.115 231.786 530.923 231.786C529.731 231.786 528.697 231.706 528.697 231.547C528.697 231.388 529.731 231.309 530.923 231.309C532.195 231.309 533.149 231.388 533.149 231.547Z" fill="#F9F8F7"/>
<path d="M533.388 238.31C533.388 238.469 532.354 238.549 531.083 238.549C529.811 238.549 528.777 238.469 528.777 238.31C528.777 238.151 529.811 238.071 531.083 238.071C532.354 238.071 533.388 238.151 533.388 238.31Z" fill="#F9F8F7"/>
<path d="M533.388 245.948C533.388 246.107 532.354 246.187 531.083 246.187C529.811 246.187 528.777 246.107 528.777 245.948C528.777 245.789 529.811 245.709 531.083 245.709C532.354 245.709 533.388 245.789 533.388 245.948Z" fill="#F9F8F7"/>
<path d="M575.518 245.55C575.518 245.709 567.808 245.789 558.269 245.789C548.73 245.789 541.02 245.709 541.02 245.55C541.02 245.391 548.73 245.312 558.269 245.312C567.808 245.312 575.518 245.471 575.518 245.55Z" fill="#F9F8F7"/>
<path d="M572.497 238.31C572.497 238.469 565.104 238.549 556.042 238.549C546.98 238.549 539.588 238.469 539.588 238.31C539.588 238.151 546.98 238.071 556.042 238.071C565.104 238.071 572.497 238.151 572.497 238.31Z" fill="#F9F8F7"/>
<path d="M536.726 267.749C536.726 267.908 535.692 267.988 534.42 267.988C533.149 267.988 532.115 267.908 532.115 267.749C532.115 267.59 533.149 267.51 534.42 267.51C535.692 267.51 536.726 267.59 536.726 267.749Z" fill="#F9F8F7"/>
<path d="M536.726 275.387C536.726 275.546 535.692 275.626 534.42 275.626C533.149 275.626 532.115 275.546 532.115 275.387C532.115 275.228 533.149 275.148 534.42 275.148C535.692 275.148 536.726 275.308 536.726 275.387Z" fill="#F9F8F7"/>
<path d="M578.936 275.069C578.936 275.228 571.226 275.307 561.687 275.307C552.148 275.307 544.438 275.228 544.438 275.069C544.438 274.91 552.148 274.83 561.687 274.83C571.146 274.83 578.936 274.91 578.936 275.069Z" fill="#F9F8F7"/>
<path d="M575.835 267.749C575.835 267.908 568.442 267.988 559.38 267.988C550.318 267.988 542.926 267.908 542.926 267.749C542.926 267.59 550.318 267.51 559.38 267.51C568.522 267.51 575.835 267.59 575.835 267.749Z" fill="#F9F8F7"/>
<path d="M584.739 231.149C584.739 231.308 574.723 231.388 562.322 231.388C549.922 231.388 539.906 231.308 539.906 231.149C539.906 230.99 549.922 230.911 562.322 230.911C574.723 230.911 584.739 231.07 584.739 231.149Z" fill="#F9F8F7"/>
<path d="M591.336 180.865C591.336 181.024 575.12 181.103 555.168 181.103C535.216 181.103 519 181.024 519 180.865C519 180.706 535.216 180.626 555.168 180.626C575.12 180.626 591.336 180.785 591.336 180.865Z" fill="#F9F8F7"/>
<path d="M545.231 203.461C545.231 203.62 541.813 203.7 537.6 203.7C533.387 203.7 529.969 203.62 529.969 203.461C529.969 203.302 533.387 203.222 537.6 203.222C541.813 203.222 545.231 203.381 545.231 203.461Z" fill="#F9F8F7"/>
<path d="M536.568 189.617C536.568 189.776 534.978 189.855 532.991 189.855C531.004 189.855 529.414 189.776 529.414 189.617C529.414 189.457 531.004 189.378 532.991 189.378C534.978 189.378 536.568 189.537 536.568 189.617Z" fill="#F9F8F7"/>
<path d="M472.737 353.042L488.714 337.209L460.177 288.277C457.236 284.855 453.421 282.23 449.208 280.638L439.192 276.819L414.232 272.205L396.506 279.206C392.054 280.957 389.272 285.571 389.828 290.345L394.439 329.491L397.141 380.412L461.608 369.193L455.09 350.337L455.328 320.977L472.737 353.042Z" fill="#0160E7"/>
<path d="M455.805 349.143C455.964 349.143 455.964 338.959 455.884 326.388C455.805 313.817 455.566 303.632 455.407 303.632C455.248 303.632 455.248 313.817 455.328 326.388C455.407 338.959 455.646 349.143 455.805 349.143Z" fill="#263238"/>
<path d="M453.421 356.622L414.47 340.948C411.291 339.675 409.145 336.731 408.906 333.389L406.044 295.994C406.044 295.994 406.362 280.081 396.426 279.286L390.782 281.513C383.469 285.412 381.641 295.994 382.674 304.269C384.105 315.965 384.662 332.435 386.251 342.539C387.523 350.814 392.531 357.338 400.401 360.202L448.413 370.625L453.421 356.622Z" fill="#0160E7"/>
<path d="M406.602 301.644C406.602 301.644 406.681 301.962 406.761 302.519C406.84 303.155 406.92 303.951 406.999 304.985C407.237 307.213 407.476 310.236 407.794 314.056C408.112 317.875 408.509 322.489 408.986 327.502C409.066 328.775 409.225 330.048 409.304 331.401C409.384 332.753 409.463 334.106 409.781 335.379C410.099 336.731 410.735 337.925 411.689 338.88C412.722 339.834 413.994 340.55 415.266 341.107C425.997 345.722 435.933 349.621 443.088 352.326C446.665 353.679 449.526 354.713 451.593 355.509C452.547 355.906 453.342 356.145 453.898 356.384C454.455 356.622 454.693 356.702 454.693 356.702C454.693 356.702 454.375 356.622 453.898 356.463C453.342 356.304 452.547 355.986 451.514 355.668C449.447 354.952 446.506 353.997 442.929 352.644C435.695 350.019 425.759 346.279 415.028 341.585C413.676 340.948 412.404 340.232 411.291 339.277C410.179 338.243 409.543 336.89 409.225 335.538C408.907 334.185 408.827 332.753 408.748 331.48C408.668 330.128 408.509 328.855 408.43 327.581C408.032 322.489 407.714 317.954 407.396 314.135C407.158 310.316 406.92 307.213 406.761 305.065C406.681 304.03 406.681 303.235 406.602 302.598C406.602 301.882 406.602 301.644 406.602 301.644Z" fill="#263238"/>
<path d="M384.265 321.932C384.265 321.932 384.345 322.091 384.345 322.41C384.345 322.807 384.424 323.285 384.504 323.842C384.583 325.194 384.742 326.945 384.98 329.172C385.219 331.4 385.457 334.105 385.855 337.049C386.252 339.993 386.729 343.255 387.604 346.517C388.001 348.188 388.637 349.7 389.511 351.053C390.386 352.405 391.419 353.599 392.453 354.633C394.519 356.781 396.745 358.293 398.653 359.327C402.627 361.396 405.568 361.396 405.489 361.555C405.489 361.555 405.33 361.555 405.012 361.555C404.694 361.555 404.217 361.476 403.581 361.396C402.309 361.157 400.561 360.68 398.494 359.646C396.427 358.611 394.201 357.1 392.055 354.951C391.022 353.917 389.988 352.644 389.034 351.291C388.081 349.939 387.445 348.268 387.047 346.597C386.173 343.255 385.696 339.993 385.298 337.049C384.901 334.105 384.662 331.4 384.504 329.172C384.345 326.945 384.265 325.115 384.186 323.842C384.186 323.285 384.186 322.807 384.186 322.41C384.265 322.091 384.265 321.932 384.265 321.932Z" fill="#263238"/>
<path d="M400.956 348.109C400.877 348.109 401.036 347.234 401.672 346.04C402.228 344.847 403.341 343.255 404.931 341.823C406.521 340.471 408.269 339.595 409.541 339.277C410.813 338.879 411.688 338.879 411.688 338.879C411.688 338.959 410.893 339.118 409.621 339.595C408.349 340.073 406.759 340.948 405.169 342.221C403.659 343.574 402.546 345.006 401.91 346.199C401.354 347.393 401.036 348.109 400.956 348.109Z" fill="#263238"/>
<g opacity="0.3">
<path d="M442.213 352.167C438.079 349.78 433.946 348.029 429.574 346.04C425.202 344.051 420.989 341.505 418.127 337.686C412.722 330.445 413.358 319.943 407.873 312.782C408.27 317.636 408.588 322.41 408.986 327.263C409.304 331.639 408.668 336.015 411.45 339.038C413.835 341.584 418.525 343.494 421.784 344.608C428.461 346.677 435.615 349.939 442.213 352.167Z" fill="black"/>
</g>
<path opacity="0.3" d="M455.408 306.417L458.826 327.263L455.647 321.375L455.408 306.417Z" fill="black"/>
<path d="M405.409 293.607C405.409 293.607 405.091 293.687 404.535 293.687C403.899 293.687 403.025 293.687 402.071 293.767C400.004 293.846 397.142 293.926 393.963 294.164C390.783 294.403 387.922 294.721 385.934 294.96C384.98 295.04 384.186 295.199 383.47 295.278C382.914 295.358 382.596 295.358 382.596 295.358C382.596 295.358 382.914 295.278 383.47 295.119C384.027 295.04 384.901 294.88 385.934 294.721C388.001 294.403 390.863 294.085 394.042 293.846C397.222 293.607 400.084 293.528 402.15 293.607C403.184 293.607 404.058 293.607 404.615 293.687C405.091 293.528 405.409 293.607 405.409 293.607Z" fill="#455A64"/>
<path d="M406.522 313.499C406.522 313.578 401.435 314.135 395.076 314.612C388.796 315.169 383.629 315.488 383.629 315.328C383.629 315.249 388.716 314.692 395.076 314.215C401.435 313.737 406.522 313.419 406.522 313.499Z" fill="#455A64"/>
<path d="M408.429 334.424C408.429 334.424 408.19 334.583 407.634 334.901C407.078 335.14 406.283 335.538 405.329 335.936C403.342 336.811 400.559 337.766 397.38 338.482C394.2 339.198 391.259 339.516 389.113 339.596C388.079 339.675 387.205 339.675 386.569 339.596C385.933 339.596 385.615 339.516 385.615 339.516C385.615 339.516 385.933 339.436 386.569 339.436C387.126 339.436 388 339.357 389.113 339.277C391.259 339.118 394.121 338.8 397.3 338.084C400.48 337.368 403.262 336.413 405.249 335.697C406.283 335.299 407.078 334.981 407.555 334.742C408.111 334.503 408.429 334.424 408.429 334.424Z" fill="#455A64"/>
<path d="M422.261 345.165C422.34 345.245 420.194 346.199 418.365 348.268C416.537 350.337 415.822 352.485 415.663 352.405C415.583 352.405 415.742 351.848 416.06 350.973C416.458 350.098 417.094 348.984 418.048 347.95C419.001 346.915 420.035 346.12 420.83 345.722C421.704 345.324 422.261 345.165 422.261 345.165Z" fill="#455A64"/>
<path d="M436.41 359.009C436.331 359.009 436.728 357.02 437.92 354.872C439.113 352.723 440.464 351.291 440.544 351.371C440.623 351.45 439.431 352.962 438.238 355.11C437.126 357.179 436.49 359.009 436.41 359.009Z" fill="#455A64"/>
<path d="M414.153 281.911C414.153 281.991 411.688 282.548 408.668 283.105C405.568 283.662 403.104 283.98 403.104 283.9C403.104 283.821 405.568 283.264 408.588 282.707C411.688 282.15 414.153 281.752 414.153 281.911Z" fill="#455A64"/>
<path d="M451.512 283.582C451.512 283.662 448.094 283.344 443.881 282.866C439.668 282.389 436.25 281.832 436.25 281.752C436.25 281.673 439.668 281.991 443.881 282.469C448.094 282.946 451.512 283.503 451.512 283.582Z" fill="#455A64"/>
<path d="M454.692 300.927C454.692 300.927 454.533 300.927 454.215 300.927C453.817 300.927 453.42 300.927 452.784 300.927C451.512 300.927 449.763 300.927 447.617 300.927C443.245 300.927 437.283 300.927 430.686 301.166C424.088 301.325 418.047 301.643 413.754 301.802C411.608 301.882 409.859 302.041 408.587 302.041C408.031 302.041 407.554 302.121 407.157 302.121C406.839 302.121 406.68 302.121 406.68 302.121C406.68 302.121 406.839 302.041 407.157 302.041C407.554 302.041 407.952 301.961 408.587 301.882C409.78 301.802 411.529 301.643 413.754 301.484C418.126 301.166 424.088 300.848 430.686 300.688C437.283 300.529 443.325 300.529 447.617 300.609C449.763 300.609 451.512 300.688 452.784 300.768C453.34 300.768 453.817 300.848 454.215 300.848C454.533 300.927 454.692 300.927 454.692 300.927Z" fill="#455A64"/>
<path d="M455.09 322.966C455.09 323.046 444.835 323.842 432.276 324.717C419.637 325.512 409.462 326.149 409.383 325.99C409.383 325.91 419.558 325.115 432.196 324.239C444.835 323.444 455.09 322.807 455.09 322.966Z" fill="#455A64"/>
<path d="M454.057 342.301C454.057 342.301 453.739 342.46 453.183 342.699C452.627 342.937 451.832 343.176 450.798 343.494C448.732 344.131 445.87 345.006 442.69 345.802C439.511 346.597 436.57 347.154 434.423 347.472C433.39 347.632 432.516 347.791 431.88 347.791C431.244 347.87 430.926 347.87 430.926 347.87C430.926 347.87 431.244 347.791 431.8 347.632C432.436 347.472 433.31 347.313 434.264 347.154C436.331 346.756 439.272 346.12 442.452 345.404C445.631 344.608 448.493 343.813 450.56 343.256C451.514 342.937 452.309 342.778 453.024 342.539C453.739 342.38 454.057 342.301 454.057 342.301Z" fill="#455A64"/>
<path d="M470.352 307.213C470.352 307.292 467.093 308.247 462.96 309.361C458.826 310.395 455.488 311.191 455.408 311.111C455.408 311.032 458.667 310.077 462.801 308.963C467.014 307.849 470.352 307.054 470.352 307.213Z" fill="#455A64"/>
<path d="M462.563 292.334C462.563 292.414 461.132 292.812 459.303 293.13C457.475 293.448 455.965 293.607 455.965 293.528C455.965 293.448 457.396 293.05 459.224 292.732C461.052 292.414 462.563 292.255 462.563 292.334Z" fill="#455A64"/>
<path d="M406.76 296.949C406.68 296.949 406.521 295.597 405.806 293.607C405.09 291.618 403.659 288.993 401.275 286.765C398.89 284.617 396.108 283.423 394.041 282.946C391.974 282.468 390.623 282.468 390.623 282.389C390.623 282.389 390.941 282.309 391.577 282.389C392.213 282.389 393.087 282.468 394.121 282.707C396.187 283.105 399.128 284.298 401.593 286.526C404.057 288.754 405.488 291.459 406.124 293.528C406.442 294.562 406.601 295.437 406.68 295.994C406.76 296.631 406.76 296.949 406.76 296.949Z" fill="#263238"/>
<path d="M453.181 286.367C453.261 286.367 453.897 289.629 454.533 293.608C455.168 297.665 455.645 300.927 455.486 300.927C455.407 300.927 454.771 297.665 454.135 293.687C453.499 289.629 453.022 286.367 453.181 286.367Z" fill="#263238"/>
<path d="M496.584 403.645C496.584 403.645 526.552 411.919 527.744 412.397C529.573 413.033 529.255 419.637 526.473 419.557C525.121 419.478 503.5 420.353 500.718 420.194C498.015 420.035 489.748 416.773 489.748 416.773L496.584 403.645Z" fill="#0160E7"/>
<path d="M509.064 415.023C509.223 415.023 509.382 413.431 510.416 411.84C511.37 410.169 512.642 409.214 512.562 409.055C512.483 408.976 511.052 409.771 510.018 411.601C508.906 413.352 508.985 415.023 509.064 415.023Z" fill="white"/>
<path d="M505.965 413.59C506.124 413.59 506.442 412.238 507.237 410.646C508.032 409.055 508.986 408.021 508.906 407.862C508.827 407.782 507.634 408.737 506.839 410.408C505.885 412.078 505.806 413.59 505.965 413.59Z" fill="white"/>
<path d="M503.023 412.874C503.182 412.874 503.023 411.362 503.738 409.692C504.374 408.021 505.487 406.986 505.408 406.907C505.328 406.827 503.977 407.702 503.341 409.532C502.546 411.283 502.864 412.874 503.023 412.874Z" fill="white"/>
<path d="M503.58 408.976C503.66 408.976 503.898 408.18 503.898 406.748C503.898 406.032 503.819 405.236 503.58 404.281C503.501 403.804 503.342 403.327 503.103 402.929C503.024 402.69 502.865 402.451 502.626 402.213C502.308 401.974 501.831 401.974 501.593 402.292C501.354 402.531 501.195 402.849 501.195 403.167C501.195 403.406 501.116 403.724 501.195 403.963C501.195 404.44 501.275 404.997 501.354 405.395C501.593 406.35 501.911 407.066 502.308 407.703C503.024 408.896 503.58 409.533 503.66 409.533C503.739 409.453 503.262 408.816 502.626 407.543C502.308 406.907 501.99 406.191 501.831 405.316C501.752 404.918 501.672 404.44 501.672 403.963C501.672 403.486 501.672 402.929 501.911 402.69C502.07 402.61 502.149 402.531 502.308 402.69C502.467 402.77 502.547 403.008 502.626 403.247C502.785 403.724 502.944 404.122 503.103 404.6C503.342 405.475 503.421 406.27 503.501 406.907C503.58 408.1 503.501 408.976 503.58 408.976Z" fill="white"/>
<path d="M503.499 408.657C503.499 408.578 502.784 408.339 501.591 408.339C500.955 408.339 500.24 408.418 499.445 408.578C499.048 408.657 498.65 408.816 498.253 409.055C497.855 409.294 497.378 409.851 497.537 410.408C497.696 410.964 498.173 411.362 498.65 411.442C499.127 411.601 499.604 411.521 500.001 411.442C500.796 411.283 501.432 410.885 501.909 410.487C502.863 409.771 503.34 409.135 503.34 409.135C503.261 409.055 502.704 409.532 501.75 410.248C501.273 410.567 500.637 410.885 499.922 411.044C499.524 411.124 499.127 411.124 498.809 411.044C498.491 410.964 498.173 410.646 498.094 410.328C498.014 410.01 498.173 409.691 498.571 409.453C498.889 409.214 499.286 409.135 499.683 409.055C500.399 408.816 501.114 408.737 501.671 408.737C502.784 408.657 503.499 408.737 503.499 408.657Z" fill="white"/>
<path d="M513.674 415.341C513.833 415.341 513.674 414.068 514.23 412.636C514.787 411.204 515.82 410.408 515.661 410.328C515.582 410.169 514.389 410.885 513.754 412.477C513.118 414.068 513.595 415.42 513.674 415.341Z" fill="white"/>
<path d="M492.77 416.773C492.77 416.773 493.167 417.011 493.962 417.33C494.757 417.648 495.87 418.046 497.3 418.364C500.162 419.08 504.216 419.478 508.747 419.478C513.199 419.398 517.253 419.239 520.194 419.08C521.545 419 522.737 418.921 523.691 418.921C524.486 418.841 524.963 418.841 524.963 418.762C524.963 418.762 524.486 418.682 523.691 418.682C522.737 418.682 521.624 418.682 520.194 418.682C517.173 418.762 513.199 418.841 508.747 418.921C504.296 419.001 500.242 418.603 497.38 417.966C494.518 417.409 492.849 416.693 492.77 416.773Z" fill="white"/>
<path d="M491.895 417.409C491.974 417.489 492.769 417.011 494.12 416.375C495.472 415.818 497.538 415.102 499.764 415.42C501.99 415.738 503.659 417.25 504.692 418.364C505.726 419.478 506.362 420.194 506.441 420.114C506.521 420.114 505.964 419.319 505.01 418.125C504.533 417.568 503.898 416.852 503.023 416.295C502.228 415.659 501.115 415.181 499.923 414.943C497.538 414.545 495.392 415.341 494.041 416.057C492.61 416.773 491.895 417.409 491.895 417.409Z" fill="white"/>
<path d="M461.131 396.643C461.131 396.643 432.753 415.182 431.799 415.977C430.289 417.171 432.038 422.661 434.661 421.706C435.933 421.228 459.7 414.625 462.244 413.67C464.788 412.635 471.703 407.066 471.703 407.066L461.131 396.643Z" fill="#0160E7"/>
<path d="M452.706 411.363C452.865 411.363 452.308 409.692 450.798 408.339C449.288 406.987 447.618 406.589 447.618 406.748C447.539 406.907 449.049 407.464 450.48 408.737C451.911 409.93 452.626 411.442 452.706 411.363Z" fill="white"/>
<path d="M455.249 409.055C455.408 408.976 454.852 407.543 453.501 406.27C452.229 404.918 450.798 404.361 450.718 404.52C450.639 404.679 451.911 405.395 453.103 406.668C454.454 407.862 455.17 409.135 455.249 409.055Z" fill="white"/>
<path d="M457.792 407.384C457.951 407.384 457.792 405.793 456.52 404.281C455.328 402.77 453.738 402.292 453.738 402.451C453.658 402.611 455.01 403.247 456.122 404.6C457.315 405.952 457.712 407.464 457.792 407.384Z" fill="white"/>
<path d="M456.124 403.883C456.203 403.883 455.806 403.088 455.488 401.735C455.329 401.099 455.17 400.303 455.17 399.348C455.17 398.871 455.17 398.393 455.17 397.916C455.17 397.677 455.249 397.439 455.329 397.28C455.408 397.12 455.567 397.12 455.726 397.2C456.044 397.359 456.203 397.916 456.362 398.314C456.521 398.791 456.601 399.189 456.601 399.667C456.68 400.542 456.601 401.337 456.521 402.053C456.362 403.406 456.044 404.202 456.124 404.281C456.203 404.281 456.601 403.486 456.839 402.133C456.998 401.417 457.077 400.621 456.998 399.667C456.998 399.189 456.839 398.712 456.76 398.234C456.68 397.996 456.601 397.757 456.521 397.518C456.442 397.28 456.203 396.961 455.885 396.802C455.567 396.643 455.09 396.723 454.852 397.041C454.693 397.359 454.613 397.598 454.613 397.916C454.613 398.393 454.613 398.95 454.613 399.348C454.693 400.303 454.852 401.099 455.09 401.735C455.567 403.167 456.124 403.883 456.124 403.883Z" fill="white"/>
<path d="M456.124 403.565C456.124 403.645 456.839 403.326 457.952 403.008C458.508 402.849 459.224 402.769 460.019 402.769C460.416 402.769 460.814 402.769 461.211 402.849C461.609 402.928 461.847 403.167 461.927 403.485C461.927 403.804 461.768 404.201 461.45 404.361C461.132 404.599 460.734 404.679 460.416 404.679C459.701 404.758 458.985 404.599 458.429 404.44C457.316 404.122 456.601 403.804 456.601 403.883C456.601 403.963 457.237 404.361 458.35 404.758C458.906 404.997 459.621 405.156 460.496 405.077C460.893 405.077 461.37 404.918 461.768 404.679C462.165 404.44 462.483 403.883 462.483 403.326C462.483 402.69 461.847 402.292 461.45 402.212C460.973 402.133 460.575 402.133 460.178 402.133C459.383 402.212 458.667 402.372 458.111 402.531C456.68 403.088 456.044 403.485 456.124 403.565Z" fill="white"/>
<path d="M438.237 420.672C438.237 420.751 438.714 420.353 438.953 419.558C439.191 418.762 439.032 417.569 438.396 416.455C438.078 415.898 437.76 415.42 437.442 415.022C437.124 414.625 436.806 414.227 436.488 413.988C436.17 413.749 435.853 413.59 435.614 413.59C435.376 413.59 435.217 413.67 435.296 413.67C435.296 413.749 435.773 413.749 436.329 414.227C436.568 414.466 436.886 414.863 437.124 415.261C437.442 415.659 437.76 416.136 437.999 416.614C438.555 417.648 438.714 418.682 438.635 419.399C438.476 420.194 438.237 420.592 438.237 420.672Z" fill="white"/>
<path d="M448.413 413.033C448.572 413.033 448.493 411.601 447.38 410.328C446.267 409.055 444.916 408.737 444.916 408.896C444.836 409.055 446.029 409.532 447.062 410.646C448.016 411.84 448.334 413.033 448.413 413.033Z" fill="white"/>
<path d="M468.762 408.021C468.762 408.021 468.285 408.339 467.49 408.896C466.695 409.453 465.503 410.248 463.993 411.044C462.483 411.84 460.575 412.715 458.429 413.51C456.282 414.306 453.898 415.102 451.354 415.818C446.266 417.25 441.656 418.603 438.317 419.637C436.728 420.114 435.376 420.512 434.343 420.83C433.389 421.149 432.912 421.308 432.912 421.308C432.912 421.308 433.469 421.228 434.422 420.989C435.456 420.751 436.807 420.353 438.397 419.955C441.736 419 446.346 417.727 451.513 416.295C454.057 415.579 456.441 414.783 458.667 413.988C460.813 413.192 462.721 412.237 464.231 411.362C465.742 410.487 466.934 409.691 467.649 409.055C468.444 408.418 468.762 408.021 468.762 408.021Z" fill="white"/>
<path d="M469.795 408.419C469.795 408.339 468.921 408.021 467.411 407.782C465.9 407.543 463.675 407.384 461.449 408.498C460.336 409.055 459.541 409.851 458.905 410.726C458.269 411.522 457.872 412.397 457.554 413.113C456.918 414.545 456.679 415.42 456.759 415.5C456.838 415.5 457.236 414.625 457.872 413.272C458.508 411.919 459.621 410.01 461.687 408.976C463.754 407.941 465.9 408.021 467.411 408.18C468.921 408.259 469.795 408.498 469.795 408.419Z" fill="white"/>
<path d="M520.034 350.177C520.034 350.177 528.54 353.201 528.54 362.749C528.619 381.048 491.656 401.178 491.656 401.178L442.452 368.557L439.352 367.284C439.431 367.363 505.805 342.38 520.034 350.177Z" fill="#263238"/>
<path d="M467.412 385.026C467.412 385.026 467.889 384.708 468.684 384.151C469.479 383.594 470.671 382.719 472.023 381.605C474.805 379.457 478.7 376.354 482.833 372.774C486.967 369.193 490.623 365.931 493.167 363.465C494.439 362.271 495.472 361.237 496.188 360.521C496.903 359.805 497.3 359.407 497.221 359.407C497.221 359.407 496.744 359.725 496.029 360.362C495.234 361.078 494.2 362.032 492.928 363.226C490.305 365.613 486.649 368.875 482.515 372.455C478.382 375.956 474.646 379.139 471.864 381.366C470.512 382.48 469.399 383.356 468.604 384.072C467.81 384.629 467.412 385.026 467.412 385.026Z" fill="#455A64"/>
<path d="M506.204 357.02C506.204 356.861 504.058 356.702 501.434 357.418C498.891 358.134 497.142 359.566 497.221 359.646C497.301 359.805 499.129 358.611 501.593 357.895C504.058 357.179 506.204 357.179 506.204 357.02Z" fill="#455A64"/>
<path d="M501.91 354.156C501.831 354.076 500.321 354.712 498.969 356.383C497.697 357.975 497.3 359.645 497.459 359.725C497.618 359.805 498.174 358.213 499.367 356.702C500.639 355.11 501.99 354.315 501.91 354.156Z" fill="#455A64"/>
<path d="M522.737 411.999C522.737 411.919 522.18 411.84 521.465 412.396C520.829 412.953 520.193 413.988 520.034 415.261C519.875 416.534 520.114 417.648 520.511 418.443C520.829 419.159 521.227 419.557 521.306 419.478C521.385 419.398 521.068 419 520.829 418.284C520.591 417.568 520.352 416.454 520.511 415.34C520.67 414.226 521.147 413.192 521.703 412.715C522.26 412.158 522.816 412.078 522.737 411.999Z" fill="#263238"/>
<path d="M516.535 324.24L502.544 361.953C501.75 364.101 499.683 365.534 497.378 365.534L420.352 364.499V358.612L448.968 359.646L461.13 322.012C461.527 320.739 462.72 319.864 464.071 319.864L513.753 320.023C515.899 320.023 517.33 322.251 516.535 324.24Z" fill="#E0E0E0"/>
<path d="M516.536 324.24V324.16C516.536 324.081 516.615 324.001 516.615 323.842C516.694 323.524 516.774 323.046 516.615 322.41C516.456 321.773 516.059 321.057 515.264 320.58C514.866 320.341 514.389 320.182 513.833 320.102C513.276 320.102 512.72 320.102 512.084 320.102C507.235 320.102 500.161 320.102 491.337 320.102C486.886 320.102 482.037 320.102 476.79 320.102C474.167 320.102 471.465 320.102 468.603 320.102C467.172 320.102 465.741 320.102 464.31 320.102C463.595 320.102 462.88 320.182 462.244 320.58C461.608 320.978 461.21 321.535 460.972 322.251C457.315 333.628 453.261 346.279 448.889 359.884V359.964H448.81C439.668 359.646 430.13 359.248 420.193 358.93L420.352 358.771C420.352 359.089 420.352 359.487 420.352 359.805C420.352 361.476 420.352 363.067 420.352 364.579L420.193 364.42C437.443 364.658 453.818 364.897 468.603 365.056C475.996 365.136 483.07 365.215 489.668 365.374C491.337 365.374 492.927 365.454 494.517 365.454C495.312 365.454 496.107 365.454 496.901 365.454C497.696 365.454 498.412 365.374 499.127 365.136C500.558 364.579 501.671 363.465 502.227 362.192C502.704 360.839 503.261 359.487 503.738 358.134C507.633 347.632 510.812 339.198 512.958 333.31C514.071 330.366 514.866 328.138 515.502 326.627C516.218 325.035 516.536 324.24 516.536 324.24C516.536 324.24 516.218 325.035 515.661 326.627C515.105 328.138 514.23 330.446 513.197 333.39C511.051 339.277 507.871 347.711 504.056 358.214C503.579 359.487 503.102 360.839 502.545 362.271C501.989 363.624 500.796 364.817 499.366 365.374C498.65 365.613 497.855 365.772 497.06 365.693C496.266 365.693 495.471 365.693 494.676 365.693C493.086 365.693 491.496 365.613 489.827 365.613C483.229 365.534 476.155 365.454 468.762 365.374C453.897 365.215 437.522 364.977 420.352 364.738H420.193V364.579C420.193 363.067 420.193 361.396 420.193 359.805C420.193 359.407 420.193 359.089 420.193 358.771V358.611H420.352C430.209 359.009 439.827 359.328 448.969 359.646L448.81 359.725C453.182 346.199 457.236 333.549 460.972 322.171C461.21 321.455 461.687 320.818 462.323 320.421C462.959 320.023 463.754 319.864 464.469 319.943C465.9 319.943 467.331 319.943 468.762 319.943C471.544 319.943 474.326 319.943 476.949 319.943C482.196 319.943 487.045 319.943 491.496 320.023C500.32 320.102 507.394 320.102 512.243 320.102C512.879 320.102 513.435 320.102 513.992 320.102C514.548 320.102 515.025 320.341 515.423 320.58C516.218 321.057 516.615 321.853 516.774 322.41C516.933 323.046 516.853 323.524 516.774 323.842C516.615 324.081 516.536 324.24 516.536 324.24Z" fill="#263238"/>
<path d="M482.355 338.482C483.389 337.766 485.217 338.084 486.091 338.88C486.966 339.675 487.284 341.108 486.807 342.221C486.33 343.335 485.217 344.131 484.024 344.211C482.753 344.29 481.401 343.494 481.083 342.221C480.686 341.028 481.083 339.118 482.355 338.482Z" fill="white"/>
<path d="M500.003 403.247C500.003 403.247 430.608 358.771 427.508 357.02C424.884 355.509 417.889 351.212 411.053 353.122C404.138 355.031 398.017 361.158 394.917 370.228C393.168 375.4 392.293 384.152 391.896 390.756C391.419 398.632 393.883 406.509 399.05 412.477C401.355 415.182 404.296 417.569 407.715 418.603C408.43 418.842 409.225 419.001 409.94 419.16C423.056 422.024 436.57 416.137 443.962 404.838L445.552 402.372C445.552 402.372 491.02 419.08 491.736 418.842L500.003 403.247Z" fill="#263238"/>
<path d="M431.084 359.487C431.084 359.487 431.005 359.487 430.925 359.407C430.766 359.328 430.607 359.248 430.448 359.089C430.051 358.771 429.415 358.373 428.54 357.816C426.871 356.782 424.486 355.27 421.148 354.076C419.479 353.519 417.65 353.042 415.584 352.883C413.517 352.803 411.371 353.122 409.224 353.917C407.078 354.713 405.011 355.986 403.104 357.657C402.15 358.452 401.196 359.407 400.401 360.362C399.527 361.317 398.811 362.431 398.175 363.545C396.824 365.852 395.87 368.318 395.155 370.705C394.519 373.092 393.962 375.559 393.485 377.786C392.531 382.322 391.975 386.459 391.895 389.96C391.816 393.461 392.213 396.325 392.531 398.235C392.69 399.189 392.849 399.985 392.929 400.462C393.008 400.701 393.008 400.86 393.008 401.019C393.008 401.178 393.008 401.178 393.008 401.258C393.008 401.258 393.008 401.178 392.929 401.099C392.849 400.94 392.849 400.781 392.77 400.542C392.611 400.064 392.452 399.269 392.293 398.314C391.895 396.405 391.498 393.54 391.498 390.039C391.498 386.539 392.054 382.322 393.008 377.786C393.485 375.479 394.042 373.172 394.678 370.705C395.393 368.239 396.347 365.772 397.698 363.465C398.334 362.271 399.129 361.158 400.003 360.203C400.878 359.248 401.832 358.293 402.786 357.498C404.693 355.827 406.84 354.554 409.065 353.758C411.291 352.962 413.517 352.644 415.584 352.724C417.65 352.883 419.558 353.36 421.227 353.997C424.566 355.27 426.951 356.782 428.62 357.895C429.415 358.452 430.051 358.93 430.448 359.248C430.607 359.407 430.766 359.487 430.925 359.646C431.084 359.407 431.084 359.487 431.084 359.487Z" fill="#455A64"/>
<path d="M413.994 390.676C413.994 390.676 414.153 390.756 414.392 390.835C414.63 390.915 415.028 391.074 415.504 391.313C416.538 391.711 418.048 392.267 419.876 392.984C423.771 394.416 429.336 396.564 436.251 399.19C443.247 401.815 451.514 404.839 460.893 408.26C470.273 411.681 480.607 415.421 491.656 419.16L491.895 419.24L491.974 419.081C493.723 415.739 495.551 412.238 497.379 408.737C498.333 406.907 499.287 405.157 500.162 403.406L500.241 403.168L500.082 403.009C479.176 389.721 460.575 377.866 447.062 369.353C440.305 365.136 434.9 361.715 431.164 359.328C429.336 358.134 427.825 357.259 426.872 356.623C427.905 357.259 429.336 358.214 431.164 359.407C434.9 361.794 440.305 365.295 446.983 369.592C460.416 378.185 479.097 390.119 499.923 403.406L499.844 403.088C498.969 404.759 498.015 406.589 497.061 408.419C495.233 411.999 493.405 415.5 491.656 418.762L491.974 418.603C480.925 414.864 470.512 411.124 461.211 407.783C451.832 404.361 443.485 401.338 436.569 398.792C429.654 396.246 424.01 394.177 420.115 392.745C418.207 392.029 416.697 391.472 415.663 391.154C415.186 390.994 414.789 390.835 414.471 390.756C414.153 390.756 413.994 390.676 413.994 390.676Z" fill="#455A64"/>
<path d="M417.57 243.005C416.378 240.618 415.106 238.231 414.47 235.605C413.834 232.98 413.755 230.195 414.868 227.728C415.504 226.296 416.537 225.023 417.014 223.591C417.729 221.522 417.411 219.135 418.683 217.385C420.671 214.68 424.884 215.316 427.904 213.884C430.289 212.77 431.958 210.383 434.422 209.588C436.569 208.872 438.953 209.588 441.1 210.463C443.166 211.338 445.233 212.532 447.538 212.77C449.128 213.009 450.797 212.77 452.387 212.77C454.056 212.77 455.726 213.168 456.918 214.362C458.031 215.555 458.269 217.624 457.077 218.738C459.939 218.26 462.641 221.124 462.562 223.989C462.562 226.853 460.336 229.399 457.713 230.672C455.09 231.866 452.069 231.945 449.208 231.707C441.02 231.07 432.833 227.967 427.268 221.92" fill="#0160E7"/>
<path d="M419.398 232.821L413.833 273.239C412.88 280.082 417.887 286.367 424.803 287.004C431.242 287.561 437.045 282.946 437.919 276.501C438.316 273.478 438.714 270.932 438.714 270.614C438.714 270.614 449.127 271.091 451.273 260.986C452.307 256.133 453.658 245.869 454.691 236.64C455.884 226.694 449.207 217.544 439.35 215.555L438.396 215.396C427.744 213.884 420.59 222.159 419.398 232.821Z" fill="#FFBE9D"/>
<path d="M438.713 270.534C438.713 270.534 432.195 269.738 426.312 264.169C426.312 264.169 427.982 272.046 438.236 273.16L438.713 270.534Z" fill="#EB996E"/>
<path d="M450.16 245.232C450.001 246.028 449.286 246.505 448.491 246.426C447.696 246.346 447.14 245.63 447.299 244.834C447.458 244.039 448.173 243.561 448.968 243.641C449.763 243.8 450.319 244.516 450.16 245.232Z" fill="#263238"/>
<path d="M451.512 241.174C451.274 241.334 450.399 240.299 448.81 239.981C447.299 239.663 445.948 240.22 445.868 239.981C445.789 239.901 446.027 239.583 446.584 239.344C447.14 239.106 448.015 238.867 449.048 239.106C450.002 239.265 450.797 239.822 451.115 240.299C451.512 240.777 451.671 241.095 451.512 241.174Z" fill="#263238"/>
<path d="M435.694 242.766C435.535 243.562 434.819 244.039 434.024 243.959C433.229 243.88 432.673 243.164 432.832 242.368C432.991 241.572 433.706 241.095 434.501 241.175C435.217 241.254 435.773 241.97 435.694 242.766Z" fill="#263238"/>
<path d="M436.17 238.469C435.932 238.628 435.058 237.594 433.468 237.276C431.957 236.958 430.606 237.515 430.527 237.276C430.447 237.196 430.686 236.878 431.242 236.639C431.798 236.401 432.673 236.162 433.706 236.401C434.66 236.639 435.376 237.117 435.773 237.594C436.25 237.992 436.329 238.39 436.17 238.469Z" fill="#263238"/>
<path d="M439.51 251.12C439.51 251.04 440.543 251.04 442.133 251.199C442.53 251.199 442.928 251.199 443.087 250.961C443.246 250.722 443.166 250.245 443.087 249.767C442.928 248.733 442.689 247.619 442.53 246.505C441.736 241.89 441.259 238.071 441.497 238.071C441.656 238.071 442.451 241.731 443.246 246.426C443.405 247.539 443.564 248.653 443.723 249.688C443.802 250.165 443.961 250.722 443.643 251.279C443.484 251.518 443.166 251.677 442.848 251.756C442.61 251.756 442.371 251.756 442.133 251.677C440.543 251.359 439.51 251.199 439.51 251.12Z" fill="#263238"/>
<path d="M434.74 251.279C434.978 251.279 434.66 253.03 435.852 254.462C437.045 255.973 438.873 256.133 438.873 256.371C438.873 256.451 438.396 256.61 437.681 256.451C436.965 256.292 435.932 255.894 435.137 254.939C434.422 254.064 434.183 252.95 434.263 252.234C434.342 251.597 434.66 251.2 434.74 251.279Z" fill="#263238"/>
<path d="M437.84 232.422C437.601 232.82 436.091 232.343 434.263 232.184C432.435 232.025 430.845 232.263 430.686 231.786C430.606 231.547 430.924 231.229 431.64 230.911C432.276 230.593 433.309 230.433 434.422 230.513C435.535 230.593 436.489 230.99 437.124 231.388C437.681 231.866 437.919 232.263 437.84 232.422Z" fill="#0160E7"/>
<path d="M451.83 236.56C451.512 236.878 450.478 236.241 449.206 236.003C447.935 235.684 446.822 235.764 446.583 235.366C446.504 235.127 446.742 234.809 447.299 234.571C447.855 234.332 448.65 234.252 449.524 234.411C450.399 234.65 451.114 235.127 451.512 235.525C451.909 236.003 451.989 236.401 451.83 236.56Z" fill="#0160E7"/>
<path d="M418.683 240.459C418.524 240.379 412.165 237.037 410.973 243.959C409.78 250.881 417.014 250.643 417.093 250.484C417.173 250.245 418.683 240.459 418.683 240.459Z" fill="#FFBE9D"/>
<path d="M415.424 247.46C415.424 247.46 415.265 247.54 415.106 247.619C414.868 247.699 414.55 247.699 414.232 247.46C413.516 247.062 413.119 245.789 413.278 244.516C413.357 243.88 413.596 243.323 413.914 242.845C414.232 242.368 414.629 242.05 414.947 242.05C415.345 242.05 415.583 242.288 415.583 242.527C415.663 242.766 415.583 242.845 415.583 242.925C415.583 242.925 415.742 242.845 415.742 242.527C415.742 242.368 415.663 242.209 415.504 242.05C415.345 241.891 415.106 241.811 414.868 241.731C414.311 241.652 413.755 242.129 413.437 242.607C413.039 243.084 412.801 243.8 412.722 244.516C412.563 245.948 413.039 247.38 413.993 247.778C414.47 248.017 414.868 247.937 415.106 247.778C415.345 247.619 415.424 247.46 415.424 247.46Z" fill="#EB996E"/>
<path d="M456.679 227.251C455.487 229.797 449.366 230.831 444.835 229.479C440.702 228.206 439.191 225.58 436.568 223.273C434.899 221.841 434.899 221.841 432.196 221.522C429.97 221.284 428.222 223.511 426.552 224.944C427.506 230.513 425.042 235.923 422.657 241.016C422.419 241.573 422.101 242.209 421.544 242.448C420.59 242.925 419.478 242.209 418.921 241.254C418.047 239.822 417.888 238.072 417.967 236.401C418.047 232.582 418.683 228.683 420.273 225.182C421.862 221.681 424.327 218.499 427.506 216.43C431.56 213.884 436.648 213.089 441.337 214.123C446.027 215.157 450.24 217.783 453.499 221.443C454.93 223.193 456.202 225.103 456.679 227.251Z" fill="#0160E7"/>
<path d="M442.529 244.119C442.609 244.119 442.529 243.482 442.847 242.527C443.086 241.493 443.801 240.061 445.311 238.947C446.742 237.833 449.127 237.197 451.432 238.072C452.545 238.47 453.658 239.265 454.453 240.3C455.248 241.334 455.725 242.687 455.725 244.119C455.725 245.551 455.248 246.903 454.453 247.938C453.658 248.972 452.625 249.768 451.432 250.166C449.127 251.041 446.742 250.404 445.311 249.29C443.801 248.176 443.086 246.744 442.847 245.71C442.609 244.676 442.609 244.119 442.529 244.119C442.529 244.119 442.529 244.278 442.529 244.517C442.529 244.835 442.529 245.233 442.688 245.79C442.927 246.824 443.563 248.415 445.152 249.609C446.663 250.802 449.206 251.598 451.75 250.643C453.022 250.245 454.135 249.37 455.009 248.256C455.884 247.142 456.361 245.63 456.361 244.119C456.361 242.607 455.884 241.095 455.009 239.981C454.135 238.788 453.022 237.992 451.75 237.594C449.206 236.719 446.663 237.435 445.152 238.629C443.563 239.822 442.927 241.413 442.688 242.448C442.609 243.005 442.529 243.403 442.529 243.721C442.529 243.96 442.529 244.119 442.529 244.119Z" fill="#263238"/>
<path d="M426.075 241.175C426.155 241.175 426.075 240.538 426.393 239.584C426.632 238.549 427.347 237.117 428.857 236.003C430.288 234.889 432.673 234.253 434.978 235.128C436.091 235.526 437.204 236.321 437.999 237.356C438.794 238.39 439.271 239.743 439.271 241.175C439.271 242.607 438.794 243.96 437.999 244.994C437.204 246.028 436.17 246.824 434.978 247.222C432.673 248.097 430.288 247.46 428.857 246.347C427.347 245.233 426.632 243.8 426.393 242.766C426.075 241.811 426.075 241.175 426.075 241.175C426.075 241.175 426.075 241.334 426.075 241.573C426.075 241.891 426.075 242.289 426.234 242.846C426.473 243.88 427.109 245.471 428.698 246.665C430.209 247.858 432.752 248.654 435.296 247.699C436.568 247.301 437.681 246.426 438.555 245.312C439.43 244.198 439.907 242.687 439.907 241.175C439.907 239.663 439.43 238.151 438.555 237.038C437.681 235.844 436.568 235.048 435.296 234.651C432.752 233.775 430.209 234.491 428.698 235.685C427.109 236.878 426.473 238.47 426.234 239.504C426.155 240.061 426.075 240.459 426.075 240.777C425.996 241.095 425.996 241.175 426.075 241.175Z" fill="#263238"/>
<path d="M439.668 241.414C439.748 241.573 440.622 241.175 441.656 241.493C442.689 241.812 443.166 242.607 443.325 242.528C443.404 242.528 443.325 242.209 443.086 241.891C442.848 241.573 442.371 241.095 441.735 240.936C441.099 240.777 440.463 240.857 440.145 241.016C439.748 241.175 439.589 241.414 439.668 241.414Z" fill="#263238"/>
<path d="M416.695 239.424C416.695 239.583 418.921 239.663 421.624 239.663C424.326 239.663 426.552 239.504 426.552 239.345C426.552 239.186 424.326 239.106 421.624 239.106C418.921 239.106 416.695 239.265 416.695 239.424Z" fill="#263238"/>
<path d="M459.938 220.647C459.938 220.647 459.938 220.886 459.859 221.283C459.7 221.681 459.382 222.238 458.826 222.795C458.269 223.273 457.315 223.67 456.361 223.83C455.328 223.989 454.215 223.83 453.023 223.67C450.718 223.352 448.651 222.875 447.141 222.477C446.425 222.318 445.789 222.079 445.392 222C445.233 221.92 445.074 221.92 444.915 221.84C444.835 221.84 444.756 221.761 444.756 221.761C444.756 221.761 444.835 221.761 444.915 221.761C445.074 221.761 445.233 221.84 445.392 221.92C445.869 222.079 446.505 222.159 447.141 222.397C448.651 222.795 450.718 223.193 453.023 223.511C454.215 223.67 455.328 223.83 456.282 223.67C457.315 223.591 458.11 223.193 458.746 222.716C459.303 222.238 459.7 221.681 459.779 221.283C459.938 220.886 459.938 220.647 459.938 220.647Z" fill="white"/>
<path d="M461.449 222.238C461.449 222.238 461.369 223.034 460.893 224.148C460.416 225.262 459.303 226.694 457.713 227.728C456.044 228.683 454.295 228.922 453.102 228.842C451.831 228.763 451.115 228.444 451.115 228.444C451.115 228.444 451.274 228.444 451.672 228.524C451.99 228.603 452.467 228.683 453.102 228.683C454.295 228.763 456.044 228.444 457.633 227.49C459.223 226.535 460.257 225.103 460.813 223.989C461.052 223.432 461.29 222.954 461.369 222.636C461.449 222.397 461.449 222.238 461.449 222.238Z" fill="white"/>
</g>
<defs>
<linearGradient id="paint0_linear_1629_28235" x1="313.318" y1="0.205078" x2="313.318" y2="500.205" gradientUnits="userSpaceOnUse">
<stop stop-color="#0160E7"/>
<stop offset="1" stop-color="#013681"/>
</linearGradient>
<linearGradient id="paint1_linear_1629_28235" x1="95.1978" y1="118.248" x2="95.1978" y2="199.404" gradientUnits="userSpaceOnUse">
<stop stop-color="#0160E7"/>
<stop offset="1" stop-color="#013681"/>
</linearGradient>
<linearGradient id="paint2_linear_1629_28235" x1="225.681" y1="78.7842" x2="225.681" y2="121.192" gradientUnits="userSpaceOnUse">
<stop stop-color="#0160E7"/>
<stop offset="1" stop-color="#013681"/>
</linearGradient>
<linearGradient id="paint3_linear_1629_28235" x1="563.507" y1="119.839" x2="563.507" y2="135.354" gradientUnits="userSpaceOnUse">
<stop stop-color="#0160E7"/>
<stop offset="1" stop-color="#013681"/>
</linearGradient>
<linearGradient id="paint4_linear_1629_28235" x1="537.292" y1="119.839" x2="537.292" y2="135.354" gradientUnits="userSpaceOnUse">
<stop stop-color="#0160E7"/>
<stop offset="1" stop-color="#013681"/>
</linearGradient>
<linearGradient id="paint5_linear_1629_28235" x1="550.44" y1="115.94" x2="550.44" y2="139.015" gradientUnits="userSpaceOnUse">
<stop stop-color="#0160E7"/>
<stop offset="1" stop-color="#013681"/>
</linearGradient>
<linearGradient id="paint6_linear_1629_28235" x1="550.598" y1="103.29" x2="550.598" y2="150.312" gradientUnits="userSpaceOnUse">
<stop stop-color="#0160E7"/>
<stop offset="1" stop-color="#013681"/>
</linearGradient>
<linearGradient id="paint7_linear_1629_28235" x1="550.796" y1="110.132" x2="550.796" y2="110.61" gradientUnits="userSpaceOnUse">
<stop stop-color="#0160E7"/>
<stop offset="1" stop-color="#013681"/>
</linearGradient>
<linearGradient id="paint8_linear_1629_28235" x1="525.838" y1="106.154" x2="525.838" y2="107.746" gradientUnits="userSpaceOnUse">
<stop stop-color="#0160E7"/>
<stop offset="1" stop-color="#013681"/>
</linearGradient>
<linearGradient id="paint9_linear_1629_28235" x1="528.619" y1="106.154" x2="528.619" y2="107.746" gradientUnits="userSpaceOnUse">
<stop stop-color="#0160E7"/>
<stop offset="1" stop-color="#013681"/>
</linearGradient>
<linearGradient id="paint10_linear_1629_28235" x1="531.482" y1="106.154" x2="531.482" y2="107.746" gradientUnits="userSpaceOnUse">
<stop stop-color="#0160E7"/>
<stop offset="1" stop-color="#013681"/>
</linearGradient>
<linearGradient id="paint11_linear_1629_28235" x1="572.821" y1="353.966" x2="572.821" y2="367.336" gradientUnits="userSpaceOnUse">
<stop stop-color="#0160E7"/>
<stop offset="1" stop-color="#013681"/>
</linearGradient>
<linearGradient id="paint12_linear_1629_28235" x1="564.234" y1="310.922" x2="564.234" y2="342.771" gradientUnits="userSpaceOnUse">
<stop stop-color="#0160E7"/>
<stop offset="1" stop-color="#013681"/>
</linearGradient>
<linearGradient id="paint13_linear_1629_28235" x1="542.296" y1="320.146" x2="542.296" y2="346.464" gradientUnits="userSpaceOnUse">
<stop stop-color="#0160E7"/>
<stop offset="1" stop-color="#013681"/>
</linearGradient>
<linearGradient id="paint14_linear_1629_28235" x1="558.825" y1="392.824" x2="558.825" y2="412.635" gradientUnits="userSpaceOnUse">
<stop stop-color="#0160E7"/>
<stop offset="1" stop-color="#013681"/>
</linearGradient>
<linearGradient id="paint15_linear_1629_28235" x1="542.213" y1="388.925" x2="576.076" y2="388.925" gradientUnits="userSpaceOnUse">
<stop stop-color="#0160E7"/>
<stop offset="1" stop-color="#013681"/>
</linearGradient>
<linearGradient id="paint16_linear_1629_28235" x1="558.826" y1="411.919" x2="558.826" y2="414.068" gradientUnits="userSpaceOnUse">
<stop stop-color="#0160E7"/>
<stop offset="1" stop-color="#013681"/>
</linearGradient>
<linearGradient id="paint17_linear_1629_28235" x1="304.854" y1="137.662" x2="304.854" y2="414.147" gradientUnits="userSpaceOnUse">
<stop stop-color="#0160E7"/>
<stop offset="1" stop-color="#013681"/>
</linearGradient>
<linearGradient id="paint18_linear_1629_28235" x1="78.625" y1="405.793" x2="531.083" y2="405.793" gradientUnits="userSpaceOnUse">
<stop stop-color="#0160E7"/>
<stop offset="1" stop-color="#013681"/>
</linearGradient>
<linearGradient id="paint19_linear_1629_28235" x1="304.814" y1="162.247" x2="304.814" y2="382.163" gradientUnits="userSpaceOnUse">
<stop stop-color="#1D8FFB"/>
<stop offset="1" stop-color="#115595"/>
</linearGradient>
<linearGradient id="paint20_linear_1629_28235" x1="71.1925" y1="318.344" x2="71.1925" y2="333.469" gradientUnits="userSpaceOnUse">
<stop stop-color="#0160E7"/>
<stop offset="1" stop-color="#013681"/>
</linearGradient>
<linearGradient id="paint21_linear_1629_28235" x1="71.808" y1="243.164" x2="71.808" y2="279.604" gradientUnits="userSpaceOnUse">
<stop stop-color="#0160E7"/>
<stop offset="1" stop-color="#013681"/>
</linearGradient>
<linearGradient id="paint22_linear_1629_28235" x1="70.0782" y1="273.796" x2="70.0782" y2="303.871" gradientUnits="userSpaceOnUse">
<stop stop-color="#0160E7"/>
<stop offset="1" stop-color="#013681"/>
</linearGradient>
<linearGradient id="paint23_linear_1629_28235" x1="65.9453" y1="294.642" x2="65.9453" y2="308.395" gradientUnits="userSpaceOnUse">
<stop stop-color="#0160E7"/>
<stop offset="1" stop-color="#013681"/>
</linearGradient>
<linearGradient id="paint24_linear_1629_28235" x1="94.3546" y1="260.031" x2="94.3546" y2="293.05" gradientUnits="userSpaceOnUse">
<stop stop-color="#0160E7"/>
<stop offset="1" stop-color="#013681"/>
</linearGradient>
<linearGradient id="paint25_linear_1629_28235" x1="105.734" y1="298.222" x2="105.734" y2="318.352" gradientUnits="userSpaceOnUse">
<stop stop-color="#0160E7"/>
<stop offset="1" stop-color="#013681"/>
</linearGradient>
<linearGradient id="paint26_linear_1629_28235" x1="126.637" y1="278.331" x2="126.637" y2="305.94" gradientUnits="userSpaceOnUse">
<stop stop-color="#0160E7"/>
<stop offset="1" stop-color="#013681"/>
</linearGradient>
<linearGradient id="paint27_linear_1629_28235" x1="123.457" y1="318.988" x2="123.457" y2="329.677" gradientUnits="userSpaceOnUse">
<stop stop-color="#0160E7"/>
<stop offset="1" stop-color="#013681"/>
</linearGradient>
<linearGradient id="paint28_linear_1629_28235" x1="127.114" y1="357.583" x2="127.114" y2="380.173" gradientUnits="userSpaceOnUse">
<stop stop-color="#0160E7"/>
<stop offset="1" stop-color="#013681"/>
</linearGradient>
<linearGradient id="paint29_linear_1629_28235" x1="85.6855" y1="348.348" x2="85.6855" y2="372.535" gradientUnits="userSpaceOnUse">
<stop stop-color="#0160E7"/>
<stop offset="1" stop-color="#013681"/>
</linearGradient>
<linearGradient id="paint30_linear_1629_28235" x1="67.6812" y1="343.971" x2="67.6812" y2="368.382" gradientUnits="userSpaceOnUse">
<stop stop-color="#0160E7"/>
<stop offset="1" stop-color="#013681"/>
</linearGradient>
<linearGradient id="paint31_linear_1629_28235" x1="52.4321" y1="341.797" x2="52.4321" y2="350.735" gradientUnits="userSpaceOnUse">
<stop stop-color="#0160E7"/>
<stop offset="1" stop-color="#013681"/>
</linearGradient>
<linearGradient id="paint32_linear_1629_28235" x1="96.9063" y1="378.662" x2="96.9063" y2="417.887" gradientUnits="userSpaceOnUse">
<stop stop-color="#0160E7"/>
<stop offset="1" stop-color="#013681"/>
</linearGradient>
<linearGradient id="paint33_linear_1629_28235" x1="398.652" y1="115.463" x2="398.652" y2="273.08" gradientUnits="userSpaceOnUse">
<stop stop-color="#0160E7"/>
<stop offset="1" stop-color="#013681"/>
</linearGradient>
<linearGradient id="paint34_linear_1629_28235" x1="546.425" y1="169.487" x2="546.425" y2="296.233" gradientUnits="userSpaceOnUse">
<stop stop-color="#0160E7"/>
<stop offset="1" stop-color="#013681"/>
</linearGradient>
<clipPath id="clip0_1629_28235">
<rect width="557.783" height="343.16" fill="white" transform="translate(34.4277 78.625)"/>
</clipPath>
</defs>
</svg>
