<svg width="626" height="501" viewBox="0 0 626 501" fill="none" xmlns="http://www.w3.org/2000/svg">
<path opacity="0.1" d="M4.38179 224.776C-14.4749 150.65 40.0403 115.731 69.655 107.536C93.8297 101.864 165.025 81.8193 256.407 47.0256C347.79 12.2319 428.656 4.79411 457.667 5.42443C650.585 -33.9076 638.377 180.654 608.158 292.851C547.236 530.356 321.681 516.615 216.518 480.056C68.5654 454.339 13.4469 299.154 4.38179 224.776Z" fill="url(#paint0_linear_1631_42570)"/>
<mask id="mask0_1631_42570" style="mask-type:luminance" maskUnits="userSpaceOnUse" x="23" y="72" width="580" height="357">
<path d="M602.982 72.4409H23.0312V428.907H602.982V72.4409Z" fill="white"/>
</mask>
<g mask="url(#mask0_1631_42570)">
<path d="M149.156 113.6H23.2812V197.902H149.156V113.6Z" fill="white"/>
<path d="M149.154 197.82C149.154 197.82 149.154 197.324 149.154 196.25C149.154 195.258 149.154 193.77 149.154 191.786C149.154 187.902 149.154 182.199 149.072 174.843C149.072 160.214 148.989 139.139 148.989 113.518L149.154 113.683C114.441 113.683 70.7199 113.683 23.2792 113.765L23.5271 113.518C23.5271 143.519 23.5271 172.116 23.5271 197.82L23.3618 197.654C60.3888 197.737 91.8781 197.737 114.028 197.737C125.103 197.737 133.947 197.82 139.897 197.82C142.873 197.82 145.187 197.82 146.757 197.82C147.501 197.82 148.162 197.82 148.576 197.82C148.906 197.82 149.154 197.82 149.154 197.82C149.154 197.82 148.989 197.82 148.576 197.82C148.162 197.82 147.584 197.82 146.84 197.82C145.27 197.82 142.955 197.82 139.98 197.82C133.947 197.82 125.186 197.82 114.111 197.902C91.8781 197.902 60.3888 197.985 23.2792 197.985L23.0312 198.068V197.82C23.0312 172.116 23.0312 143.602 23.0312 113.518V113.27H23.2792C70.7199 113.27 114.441 113.27 149.154 113.352H149.319V113.518C149.319 139.221 149.237 160.297 149.237 175.009C149.237 182.282 149.237 188.067 149.154 191.952C149.154 193.853 149.154 195.34 149.154 196.332C149.154 197.324 149.154 197.82 149.154 197.82Z" fill="#E0E0E0"/>
<path d="M23.2812 121.122C23.2812 120.956 51.4647 120.874 86.1774 120.874C120.89 120.874 149.074 120.956 149.074 121.122C149.074 121.287 120.89 121.369 86.1774 121.369C51.3821 121.287 23.2812 121.204 23.2812 121.122Z" fill="#E0E0E0"/>
<g opacity="0.3">
<path d="M28.2394 117.319C28.2394 117.898 27.8262 118.311 27.2477 118.311C26.6691 118.311 26.2559 117.898 26.2559 117.319C26.2559 116.741 26.6691 116.328 27.2477 116.328C27.8262 116.328 28.2394 116.741 28.2394 117.319Z" fill="#E0E0E0"/>
</g>
<g opacity="0.3">
<path d="M31.7088 117.319C31.7088 117.898 31.2956 118.311 30.717 118.311C30.1385 118.311 29.6426 117.815 29.6426 117.319C29.6426 116.741 30.1385 116.245 30.6344 116.245C31.1303 116.245 31.7088 116.741 31.7088 117.319Z" fill="#E0E0E0"/>
</g>
<g opacity="0.3">
<path d="M35.0988 117.32C35.0988 117.898 34.6856 118.312 34.107 118.312C33.5285 118.312 33.1152 117.898 33.1152 117.32C33.1152 116.741 33.5285 116.328 34.107 116.328C34.6029 116.245 35.0988 116.741 35.0988 117.32Z" fill="#E0E0E0"/>
</g>
<path d="M67.6611 129.883H34.1055V163.438H67.6611V129.883Z" fill="#E0E0E0"/>
<path d="M131.879 139.387C131.879 139.553 118.82 139.635 102.621 139.635C86.5046 139.635 73.3633 139.553 73.3633 139.387C73.3633 139.222 86.422 139.139 102.621 139.139C118.738 139.139 131.879 139.222 131.879 139.387Z" fill="#E0E0E0"/>
<path d="M131.879 145.586C131.879 145.751 118.82 145.834 102.621 145.834C86.5046 145.834 73.3633 145.751 73.3633 145.586C73.3633 145.42 86.422 145.338 102.621 145.338C118.738 145.42 131.879 145.503 131.879 145.586Z" fill="#E0E0E0"/>
<path d="M131.879 151.867C131.879 152.032 118.82 152.115 102.621 152.115C86.5046 152.115 73.3633 152.032 73.3633 151.867C73.3633 151.702 86.422 151.619 102.621 151.619C118.738 151.619 131.879 151.702 131.879 151.867Z" fill="#E0E0E0"/>
<path d="M107.911 158.066C107.911 158.066 107.415 158.149 106.588 158.149C105.597 158.149 104.357 158.232 102.869 158.232C99.7284 158.232 95.4308 158.314 90.637 158.314C85.8434 158.314 81.5457 158.314 78.405 158.232C76.9173 158.232 75.6775 158.149 74.6858 158.149C73.7766 158.149 73.3633 158.066 73.3633 158.066C73.3633 158.066 73.8592 157.984 74.6858 157.984C75.6775 157.984 76.9173 157.901 78.405 157.901C81.5457 157.901 85.8434 157.818 90.637 157.818C95.4308 157.818 99.7284 157.818 102.869 157.901C104.357 157.901 105.597 157.984 106.588 157.984C107.498 158.066 107.911 158.066 107.911 158.066Z" fill="#E0E0E0"/>
<path d="M51.9598 174.761H36.1738V190.547H51.9598V174.761Z" fill="#E0E0E0"/>
<path d="M80.5556 174.761H64.7695V190.547H80.5556V174.761Z" fill="#E0E0E0"/>
<path d="M109.235 174.761H93.4492V190.547H109.235V174.761Z" fill="#E0E0E0"/>
<path d="M137.833 174.761H122.047V190.547H137.833V174.761Z" fill="#E0E0E0"/>
<path d="M276.104 72.606H167.668V116.658H276.104V72.606Z" fill="white"/>
<path d="M276.103 116.658C276.103 116.658 276.103 116.41 276.103 115.832C276.103 115.336 276.103 114.509 276.103 113.518C276.103 111.534 276.103 108.559 276.103 104.757C276.103 97.1531 276.103 86.1607 276.02 72.5236L276.103 72.6062C248.498 72.6062 210.149 72.6062 167.667 72.6889L167.833 72.5236C167.833 87.979 167.833 102.856 167.833 116.576L167.667 116.41C199.074 116.41 226.183 116.493 245.44 116.493C255.028 116.493 262.714 116.493 268.004 116.576C270.648 116.576 272.633 116.576 274.037 116.576C274.699 116.576 275.277 116.576 275.608 116.576C275.939 116.658 276.103 116.658 276.103 116.658C276.103 116.658 275.939 116.658 275.608 116.658C275.277 116.658 274.699 116.658 274.037 116.658C272.633 116.658 270.648 116.658 268.004 116.658C262.714 116.658 255.11 116.658 245.523 116.741C226.266 116.741 199.156 116.824 167.667 116.824H167.502V116.658C167.502 102.938 167.502 88.0616 167.502 72.6062V72.4409H167.667C210.149 72.4409 248.498 72.4409 276.103 72.5236H276.186V72.6062C276.186 86.2434 276.103 97.2357 276.103 104.922C276.103 108.724 276.103 111.617 276.103 113.683C276.103 114.675 276.103 115.419 276.103 115.914C276.103 116.41 276.103 116.658 276.103 116.658Z" fill="#E0E0E0"/>
<path d="M167.832 78.5574C167.832 78.4747 192.048 78.3921 221.967 78.3921C251.886 78.3921 276.103 78.4747 276.103 78.5574C276.103 78.64 251.886 78.7227 221.967 78.7227C192.048 78.7227 167.832 78.64 167.832 78.5574Z" fill="#E0E0E0"/>
<g opacity="0.3">
<path d="M172.38 75.9124C172.38 76.3257 172.049 76.7389 171.553 76.7389C171.14 76.7389 170.727 76.4083 170.727 75.9124C170.727 75.4992 171.057 75.0859 171.553 75.0859C171.966 75.0859 172.38 75.4992 172.38 75.9124Z" fill="#EBEBEB"/>
</g>
<g opacity="0.3">
<path d="M175.022 75.9119C175.022 76.3252 174.691 76.7384 174.196 76.7384C173.782 76.7384 173.369 76.4078 173.369 75.9119C173.369 75.4987 173.7 75.0854 174.196 75.0854C174.691 75.0854 175.022 75.4987 175.022 75.9119Z" fill="#EBEBEB"/>
</g>
<g opacity="0.3">
<path d="M176.924 76.7384C177.381 76.7384 177.75 76.3684 177.75 75.9119C177.75 75.4555 177.381 75.0854 176.924 75.0854C176.468 75.0854 176.098 75.4555 176.098 75.9119C176.098 76.3684 176.468 76.7384 176.924 76.7384Z" fill="#EBEBEB"/>
</g>
<path d="M203.123 85.7476H176.924V111.947H203.123V85.7476Z" fill="#E0E0E0"/>
<path d="M268.665 92.6901C268.665 92.7727 255.192 92.8555 238.58 92.8555C221.967 92.8555 208.496 92.7727 208.496 92.6901C208.496 92.6075 221.967 92.5249 238.58 92.5249C255.109 92.5249 268.665 92.6075 268.665 92.6901Z" fill="#E0E0E0"/>
<path d="M268.665 98.0622C268.665 98.1448 255.192 98.2276 238.58 98.2276C221.967 98.2276 208.496 98.1448 208.496 98.0622C208.496 97.9796 221.967 97.897 238.58 97.897C255.109 97.897 268.665 97.9796 268.665 98.0622Z" fill="#E0E0E0"/>
<path d="M247.178 103.434C247.178 103.434 247.011 103.434 246.764 103.434C246.433 103.434 246.102 103.434 245.607 103.434C244.615 103.434 243.21 103.434 241.475 103.517C237.92 103.517 233.127 103.517 227.755 103.6C222.383 103.6 217.589 103.6 214.034 103.517C212.299 103.517 210.895 103.517 209.902 103.434C210.895 103.434 212.299 103.434 214.034 103.352C217.589 103.352 222.383 103.352 227.755 103.269C233.043 103.269 237.92 103.269 241.475 103.352C243.21 103.352 244.615 103.352 245.607 103.434C246.102 103.434 246.433 103.434 246.764 103.434C247.011 103.352 247.178 103.352 247.178 103.434Z" fill="#E0E0E0"/>
<path d="M568.681 131.37C568.681 131.37 568.848 131.122 569.261 130.708C569.757 130.212 570.335 129.634 571.08 128.89C572.567 127.402 574.716 125.336 577.03 123.105L577.113 123.022V123.353C574.716 121.121 572.649 119.138 571.08 117.65C570.335 116.989 569.757 116.41 569.261 115.914C568.848 115.501 568.6 115.253 568.681 115.253C568.681 115.253 568.931 115.418 569.426 115.831C569.921 116.245 570.583 116.823 571.327 117.484C572.898 118.89 575.046 120.873 577.442 123.105L577.608 123.27L577.442 123.435L577.361 123.518C575.046 125.749 572.898 127.816 571.327 129.221C570.583 129.882 569.921 130.46 569.426 130.956C568.931 131.204 568.681 131.37 568.681 131.37Z" fill="#E0E0E0"/>
<path d="M550.336 115.253C550.336 115.253 550.171 115.501 549.757 115.914C549.262 116.41 548.683 116.989 547.939 117.732C546.451 119.22 544.302 121.286 541.989 123.518L541.905 123.601V123.27C544.302 125.501 546.368 127.485 547.939 128.973C548.683 129.634 549.262 130.212 549.757 130.708C550.171 131.122 550.419 131.37 550.336 131.37C550.336 131.37 550.088 131.204 549.593 130.791C549.096 130.378 548.434 129.799 547.691 129.138C546.121 127.733 543.971 125.749 541.575 123.518L541.41 123.353L541.575 123.187L541.658 123.105C543.971 120.873 546.121 118.807 547.691 117.402C548.434 116.741 549.096 116.162 549.593 115.666C550.088 115.418 550.336 115.253 550.336 115.253Z" fill="#E0E0E0"/>
<path d="M555.048 135.172C554.964 135.172 556.866 129.717 559.344 123.105C561.824 116.493 563.89 111.121 564.056 111.204C564.139 111.204 562.238 116.658 559.758 123.27C557.278 129.882 555.212 135.254 555.048 135.172Z" fill="#E0E0E0"/>
<path d="M589.51 146.742C589.51 146.742 589.51 146.412 589.51 145.833C589.51 145.255 589.51 144.346 589.51 143.271C589.51 140.957 589.51 137.651 589.427 133.436C589.427 124.923 589.344 112.856 589.344 98.2272L589.51 98.3926C572.484 98.3926 551.987 98.3926 530.002 98.3926L530.251 98.1446C530.251 115.666 530.251 132.279 530.251 146.66L530.085 146.494C547.772 146.494 562.648 146.577 573.062 146.577C578.27 146.577 582.402 146.577 585.212 146.66C586.617 146.66 587.692 146.66 588.435 146.66C588.766 146.66 589.096 146.66 589.261 146.66C589.344 146.742 589.51 146.742 589.51 146.742C589.51 146.742 589.427 146.742 589.261 146.742C589.096 146.742 588.766 146.742 588.435 146.742C587.692 146.742 586.617 146.742 585.212 146.742C582.402 146.742 578.27 146.742 573.062 146.825C562.566 146.825 547.689 146.908 529.92 146.908H529.754V146.742C529.754 132.361 529.754 115.749 529.754 98.2272V98.062H530.002C551.987 98.062 572.484 98.062 589.51 98.062H589.675V98.2272C589.675 112.856 589.592 125.006 589.592 133.519C589.592 137.734 589.592 141.04 589.51 143.354C589.51 144.428 589.51 145.337 589.51 145.916C589.51 146.494 589.51 146.742 589.51 146.742Z" fill="#E0E0E0"/>
<path d="M589.922 105.418C589.922 105.501 576.451 105.666 559.92 105.666C543.308 105.666 529.92 105.584 529.92 105.418C529.92 105.336 543.391 105.17 559.92 105.17C576.534 105.253 589.922 105.336 589.922 105.418Z" fill="#E0E0E0"/>
<path d="M534.798 101.864C534.798 102.277 534.467 102.691 533.971 102.691C533.558 102.691 533.145 102.36 533.145 101.864C533.145 101.451 533.475 101.038 533.971 101.038C534.467 101.12 534.798 101.451 534.798 101.864Z" fill="#E0E0E0"/>
<path d="M537.689 101.864C537.689 102.277 537.358 102.691 536.863 102.691C536.449 102.691 536.035 102.36 536.035 101.864C536.035 101.451 536.366 101.038 536.863 101.038C537.358 101.12 537.689 101.451 537.689 101.864Z" fill="#E0E0E0"/>
<path d="M540.664 101.864C540.664 102.277 540.333 102.691 539.838 102.691C539.424 102.691 539.012 102.36 539.012 101.864C539.012 101.451 539.341 101.038 539.838 101.038C540.25 101.12 540.664 101.451 540.664 101.864Z" fill="#E0E0E0"/>
<path d="M575.79 360.142C579.261 358.407 583.311 358.159 587.112 358.738C589.18 359.068 591.329 359.73 592.733 361.217C594.138 362.788 594.386 365.432 592.817 366.837C591.824 367.665 590.501 367.746 589.261 367.746C586.286 367.746 582.98 367.168 580.584 368.986C579.261 369.978 578.352 371.713 576.699 372.21C575.129 372.706 573.311 371.796 572.484 370.309C571.658 368.903 571.575 367.085 571.989 365.432C571.906 365.432 572.318 361.879 575.79 360.142Z" fill="#EBEBEB"/>
<path d="M567.856 344.936C569.922 347.911 574.055 346.919 575.955 345.101C577.857 343.282 578.683 340.638 579.344 338.075C580.998 332.291 582.733 326.175 581.493 320.306C581.162 318.571 580.501 316.752 579.261 315.512C578.023 314.189 576.121 313.446 574.386 313.86C572.319 314.439 571.08 316.421 570.088 318.323C567.361 323.942 565.955 330.223 565.873 336.506C565.873 339.398 566.204 342.456 567.856 344.936Z" fill="#EBEBEB"/>
<path d="M562.07 349.234C564.385 346.507 564.797 342.539 563.806 339.151C562.814 335.762 560.499 332.869 557.855 330.473C554.715 327.745 551.078 325.513 547.194 324.19C545.623 323.612 544.053 323.2 542.399 323.364C540.747 323.53 539.093 324.356 538.35 325.761C537.193 327.91 538.267 330.473 539.507 332.622C541.573 336.34 543.887 339.895 546.532 343.282C548.598 346.01 551.078 348.656 554.218 349.894C557.442 351.134 560.748 350.969 562.483 348.737" fill="#EBEBEB"/>
<path d="M567.774 390.227C567.774 390.227 567.857 389.732 567.94 388.823C568.023 387.831 568.188 386.591 568.271 385.103C568.435 383.533 568.683 381.631 569.097 379.648C569.511 377.582 570.172 375.433 571.08 373.201C571.989 370.971 573.064 368.986 574.387 367.334C575.626 365.68 577.115 364.524 578.519 363.862C579.924 363.201 581.164 362.87 581.99 362.788C582.899 362.705 583.313 362.622 583.313 362.622C583.313 362.622 582.817 362.541 581.908 362.622C580.999 362.705 579.759 362.87 578.272 363.614C576.784 364.276 575.213 365.433 573.89 367.085C572.569 368.739 571.411 370.805 570.501 373.037C569.592 375.267 568.932 377.499 568.519 379.565C568.105 381.631 567.94 383.533 567.774 385.103C567.692 386.674 567.609 387.995 567.609 388.823C567.692 389.732 567.692 390.227 567.774 390.227Z" fill="#E0E0E0"/>
<path d="M568.02 387.336C568.02 387.336 568.02 387.086 568.02 386.674C568.02 386.177 568.02 385.599 568.02 384.856C568.02 383.285 568.02 380.971 568.102 378.161C568.268 372.54 568.763 366.507 569.672 357.995C570.582 349.977 571.738 340.638 572.978 334.605C573.226 333.2 573.557 331.96 573.806 330.885C574.054 329.811 574.218 328.819 574.466 328.074C574.632 327.331 574.797 326.753 574.88 326.339C574.963 325.927 575.044 325.761 574.963 325.678C574.963 325.678 574.88 325.844 574.713 326.258C574.549 326.753 574.384 327.248 574.218 327.993C573.97 328.736 573.723 329.645 573.475 330.802C573.226 331.877 572.897 333.117 572.566 334.522C571.326 340.06 570.003 347.664 569.094 356.258C568.185 364.771 567.771 372.623 567.689 378.244C567.689 381.053 567.689 383.368 567.771 384.937C567.854 385.682 567.854 386.26 567.854 386.756C567.937 387.169 567.937 387.336 568.02 387.336Z" fill="#E0E0E0"/>
<path d="M568.023 372.375C568.023 372.375 568.023 371.714 568.023 370.474C567.94 369.234 567.774 367.499 567.445 365.35C567.114 363.2 566.535 360.639 565.791 357.912C565.46 356.672 564.634 353.614 562.65 349.068C560.088 342.951 556.535 337.91 553.477 334.769C552.732 333.943 551.989 333.365 551.328 332.786C550.997 332.538 550.666 332.208 550.418 332.042C550.088 331.877 549.84 331.629 549.592 331.463C548.6 330.802 548.022 330.389 548.022 330.473C547.939 330.554 550.252 331.96 553.229 335.1C556.204 338.241 559.593 343.199 562.154 349.316C563.559 352.621 564.551 355.597 565.296 358.076C566.122 360.804 566.617 363.367 567.031 365.433C567.445 367.582 567.609 369.317 567.774 370.474C567.94 371.714 568.023 372.375 568.023 372.375Z" fill="#E0E0E0"/>
<path d="M553.557 398.824L555.046 419.402H581.493L582.98 398.824H553.557Z" fill="#E0E0E0"/>
<path d="M586.203 390.723H550.994V398.824H586.203V390.723Z" fill="#E0E0E0"/>
<path d="M550.994 418.659V420.891H552.646H585.542V418.659H550.994Z" fill="#EBEBEB"/>
<path d="M554.217 424.859L552.646 420.892H584.302L582.401 424.859H554.217Z" fill="#E0E0E0"/>
<path d="M582.485 405.517C582.485 405.517 582.485 405.6 582.402 405.683C582.319 405.848 582.154 406.014 581.988 406.179C581.576 406.675 581.079 407.335 580.419 408.163L580.336 408.245L580.253 408.163C579.261 406.84 578.022 405.022 576.452 402.956H576.7C575.543 404.526 574.303 406.345 572.98 408.245L572.897 408.411L572.732 408.245C571.328 406.592 569.84 404.857 568.269 402.956H568.517C568.434 403.039 568.353 403.12 568.269 403.287C566.863 405.022 565.542 406.675 564.302 408.245L564.136 408.411L564.054 408.245C562.731 406.345 561.492 404.608 560.335 402.956H560.582C558.764 405.022 557.193 406.84 555.954 408.163L555.872 408.245L555.789 408.163C555.211 407.171 554.715 406.345 554.384 405.766C554.218 405.517 554.137 405.269 554.054 405.105C553.971 404.939 553.971 404.857 553.971 404.857C553.971 404.857 554.054 404.939 554.137 405.022C554.218 405.186 554.384 405.353 554.549 405.6C554.88 406.179 555.458 407.005 556.037 407.997H555.872C557.029 406.592 558.6 404.857 560.418 402.708L560.499 402.542L560.582 402.708C561.739 404.277 562.979 406.096 564.385 407.997H564.136C565.376 406.426 566.699 404.774 568.103 403.039C568.186 402.956 568.269 402.79 568.351 402.708L568.517 402.542L568.682 402.708C570.252 404.526 571.74 406.345 573.063 407.997H572.815C574.137 406.096 575.46 404.36 576.616 402.708L576.7 402.542L576.783 402.708C578.27 404.857 579.51 406.675 580.501 407.997H580.336C580.998 407.171 581.576 406.509 581.907 406.096C582.071 405.931 582.237 405.766 582.319 405.6C582.485 405.6 582.485 405.517 582.485 405.517Z" fill="#F5F5F5"/>
<path d="M583.395 398.658C583.395 398.741 576.783 398.824 568.601 398.824C560.418 398.824 553.807 398.741 553.807 398.658C553.807 398.575 560.418 398.493 568.601 398.493C576.7 398.493 583.395 398.575 583.395 398.658Z" fill="#F5F5F5"/>
<path d="M584.717 421.139C584.717 421.222 577.527 421.303 568.601 421.303C559.675 421.303 552.484 421.222 552.484 421.139C552.484 421.056 559.675 420.973 568.601 420.973C577.527 420.973 584.717 421.056 584.717 421.139Z" fill="#F5F5F5"/>
<path d="M509.342 420.972H99.1528C92.5409 420.972 87.0859 415.601 87.0859 408.906V140.213C87.0859 136.659 89.9788 133.767 93.5326 133.767H515.788C518.846 133.767 521.326 136.246 521.326 139.304V408.824C521.326 415.601 515.954 420.972 509.342 420.972Z" fill="#455A64"/>
<path d="M528.1 424.856H80.3055C74.024 424.856 68.9824 419.815 68.9824 413.534V399.732H539.422V413.534C539.422 419.732 534.381 424.856 528.1 424.856Z" fill="#455A64"/>
<path d="M508.512 145.255H98.8203V387.748H508.512V145.255Z" fill="#E0E0E0"/>
<path d="M261.475 399.732L267.26 408.989H349.415L354.87 399.732H261.475Z" fill="#263238"/>
<path d="M497.356 159.306H110.971V387.748H497.356V159.306Z" fill="#263238"/>
<path d="M140.557 380.972C140.392 380.972 140.227 332.291 140.227 272.287C140.227 212.284 140.392 163.604 140.557 163.604C140.722 163.604 140.888 212.284 140.888 272.287C140.97 332.373 140.805 380.972 140.557 380.972Z" fill="#E0E0E0"/>
<path d="M132.787 183.356C132.787 183.522 129.977 183.687 126.506 183.687C123.035 183.687 120.225 183.522 120.225 183.356C120.225 183.191 123.035 183.026 126.506 183.026C129.977 183.026 132.787 183.191 132.787 183.356Z" fill="#E0E0E0"/>
<path d="M133.287 171.042C133.287 171.207 130.477 171.372 127.006 171.372C123.535 171.372 120.725 171.207 120.725 171.042C120.725 170.876 123.535 170.711 127.006 170.711C130.477 170.711 133.287 170.876 133.287 171.042Z" fill="#E0E0E0"/>
<path d="M132.787 196.664C132.787 196.829 129.977 196.994 126.506 196.994C123.035 196.994 120.225 196.829 120.225 196.664C120.225 196.498 123.035 196.333 126.506 196.333C129.977 196.333 132.787 196.498 132.787 196.664Z" fill="#E0E0E0"/>
<path d="M132.787 209.97C132.787 210.135 129.977 210.3 126.506 210.3C123.035 210.3 120.225 210.135 120.225 209.97C120.225 209.804 123.035 209.639 126.506 209.639C129.977 209.639 132.787 209.804 132.787 209.97Z" fill="#E0E0E0"/>
<path d="M132.787 223.276C132.787 223.441 129.977 223.606 126.506 223.606C123.035 223.606 120.225 223.441 120.225 223.276C120.225 223.111 123.035 222.945 126.506 222.945C129.977 222.863 132.787 223.028 132.787 223.276Z" fill="#E0E0E0"/>
<path d="M132.787 236.582C132.787 236.748 129.977 236.913 126.506 236.913C123.035 236.913 120.225 236.748 120.225 236.582C120.225 236.418 123.035 236.252 126.506 236.252C129.977 236.17 132.787 236.335 132.787 236.582Z" fill="#E0E0E0"/>
<path d="M132.787 249.806C132.787 249.972 129.977 250.137 126.506 250.137C123.035 250.137 120.225 249.972 120.225 249.806C120.225 249.641 123.035 249.477 126.506 249.477C129.977 249.477 132.787 249.641 132.787 249.806Z" fill="#E0E0E0"/>
<path d="M132.787 263.114C132.787 263.279 129.977 263.443 126.506 263.443C123.035 263.443 120.225 263.279 120.225 263.114C120.225 262.948 123.035 262.783 126.506 262.783C129.977 262.783 132.787 262.948 132.787 263.114Z" fill="#E0E0E0"/>
<path d="M132.787 276.419C132.787 276.585 129.977 276.749 126.506 276.749C123.035 276.749 120.225 276.585 120.225 276.419C120.225 276.254 123.035 276.089 126.506 276.089C129.977 276.089 132.787 276.254 132.787 276.419Z" fill="#E0E0E0"/>
<path d="M132.787 289.726C132.787 289.892 129.977 290.057 126.506 290.057C123.035 290.057 120.225 289.892 120.225 289.726C120.225 289.561 123.035 289.395 126.506 289.395C129.977 289.395 132.787 289.561 132.787 289.726Z" fill="#E0E0E0"/>
<path d="M132.787 303.034C132.787 303.198 129.977 303.363 126.506 303.363C123.035 303.363 120.225 303.198 120.225 303.034C120.225 302.867 123.035 302.703 126.506 302.703C129.977 302.62 132.787 302.784 132.787 303.034Z" fill="#E0E0E0"/>
<path d="M132.787 316.338C132.787 316.504 129.977 316.669 126.506 316.669C123.035 316.669 120.225 316.504 120.225 316.338C120.225 316.174 123.035 316.009 126.506 316.009C129.977 315.926 132.787 316.091 132.787 316.338Z" fill="#E0E0E0"/>
<path d="M132.787 329.564C132.787 329.728 129.977 329.894 126.506 329.894C123.035 329.894 120.225 329.728 120.225 329.564C120.225 329.398 123.035 329.233 126.506 329.233C129.977 329.233 132.787 329.398 132.787 329.564Z" fill="#E0E0E0"/>
<path d="M132.787 342.87C132.787 343.035 129.977 343.201 126.506 343.201C123.035 343.201 120.225 343.035 120.225 342.87C120.225 342.704 123.035 342.54 126.506 342.54C129.977 342.54 132.787 342.704 132.787 342.87Z" fill="#E0E0E0"/>
<path d="M132.787 356.176C132.787 356.341 129.977 356.507 126.506 356.507C123.035 356.507 120.225 356.341 120.225 356.176C120.225 356.01 123.035 355.846 126.506 355.846C129.977 355.846 132.787 356.01 132.787 356.176Z" fill="#E0E0E0"/>
<path d="M132.787 369.483C132.787 369.647 129.977 369.814 126.506 369.814C123.035 369.814 120.225 369.647 120.225 369.483C120.225 369.317 123.035 369.152 126.506 369.152C129.977 369.069 132.787 369.234 132.787 369.483Z" fill="#E0E0E0"/>
<path d="M183.123 182.613C183.123 182.779 175.849 182.944 166.841 182.944C157.832 182.944 150.559 182.779 150.559 182.613C150.559 182.448 157.832 182.283 166.841 182.283C175.849 182.2 183.123 182.365 183.123 182.613Z" fill="#FF725E"/>
<path d="M183.123 369.483C183.123 369.647 175.849 369.814 166.841 369.814C157.832 369.814 150.559 369.647 150.559 369.483C150.559 369.317 157.832 369.152 166.841 369.152C175.849 369.069 183.123 369.234 183.123 369.483Z" fill="#FF725E"/>
<path d="M228.496 209.97C228.496 210.135 214.861 210.3 197.999 210.3C181.139 210.3 167.502 210.135 167.502 209.97C167.502 209.804 181.139 209.639 197.999 209.639C214.861 209.639 228.496 209.804 228.496 209.97Z" fill="#FF725E"/>
<path d="M298.995 209.97C298.995 210.135 285.357 210.3 268.497 210.3C251.637 210.3 238 210.135 238 209.97C238 209.804 251.637 209.639 268.497 209.639C285.276 209.639 298.995 209.804 298.995 209.97Z" fill="#E0E0E0"/>
<path d="M272.054 223.276C272.054 223.441 251.971 223.606 227.176 223.606C202.381 223.606 182.297 223.441 182.297 223.276C182.297 223.111 202.381 222.945 227.176 222.945C251.888 222.863 272.054 223.028 272.054 223.276Z" fill="#E0E0E0"/>
<path d="M272.054 236.582C272.054 236.748 251.971 236.913 227.176 236.913C202.381 236.913 182.297 236.748 182.297 236.582C182.297 236.418 202.381 236.252 227.176 236.252C251.888 236.17 272.054 236.335 272.054 236.582Z" fill="#E0E0E0"/>
<path d="M333.874 276.419C333.874 276.585 313.79 276.749 288.995 276.749C264.2 276.749 244.117 276.585 244.117 276.419C244.117 276.254 264.2 276.089 288.995 276.089C313.708 276.089 333.874 276.254 333.874 276.419Z" fill="#E0E0E0"/>
<path d="M307.179 249.806C307.179 249.972 287.096 250.137 262.301 250.137C237.506 250.137 217.422 249.972 217.422 249.806C217.422 249.641 237.506 249.477 262.301 249.477C287.096 249.477 307.179 249.641 307.179 249.806Z" fill="#E0E0E0"/>
<path d="M416.939 249.806C416.939 249.972 396.856 250.137 372.061 250.137C347.266 250.137 327.182 249.972 327.182 249.806C327.182 249.641 347.266 249.477 372.061 249.477C396.856 249.477 416.939 249.641 416.939 249.806Z" fill="#E0E0E0"/>
<path d="M378.755 223.276C378.755 223.441 358.67 223.606 333.875 223.606C309.081 223.606 288.996 223.441 288.996 223.276C288.996 223.111 309.081 222.945 333.875 222.945C358.67 222.863 378.755 223.028 378.755 223.276Z" fill="#FAFAFA"/>
<path d="M440.821 276.419C440.821 276.585 420.738 276.749 395.944 276.749C371.149 276.749 351.064 276.585 351.064 276.419C351.064 276.254 371.149 276.089 395.944 276.089C420.738 276.089 440.821 276.254 440.821 276.419Z" fill="#FAFAFA"/>
<path d="M428.427 236.582C428.427 236.748 397.187 236.913 358.672 236.913C320.156 236.913 288.916 236.748 288.916 236.582C288.916 236.418 320.156 236.252 358.672 236.252C397.187 236.17 428.427 236.335 428.427 236.582Z" fill="#455A64"/>
<path d="M183.123 196.664C183.123 196.829 175.849 196.994 166.841 196.994C157.832 196.994 150.559 196.829 150.559 196.664C150.559 196.498 157.832 196.333 166.841 196.333C175.849 196.333 183.123 196.498 183.123 196.664Z" fill="#FAFAFA"/>
<path d="M183.123 356.176C183.123 356.341 175.849 356.507 166.841 356.507C157.832 356.507 150.559 356.341 150.559 356.176C150.559 356.01 157.832 355.846 166.841 355.846C175.849 355.846 183.123 356.01 183.123 356.176Z" fill="#FAFAFA"/>
<path d="M199.239 249.806C199.239 249.972 191.966 250.137 182.957 250.137C173.949 250.137 166.676 249.972 166.676 249.806C166.676 249.641 173.949 249.477 182.957 249.477C191.966 249.477 199.239 249.641 199.239 249.806Z" fill="#FAFAFA"/>
<path d="M460.331 249.806C460.331 249.972 453.057 250.137 444.049 250.137C435.039 250.137 427.766 249.972 427.766 249.806C427.766 249.641 435.039 249.477 444.049 249.477C453.057 249.477 460.331 249.641 460.331 249.806Z" fill="#FF725E"/>
<path d="M228.496 302.95C228.496 303.115 214.861 303.281 197.999 303.281C181.139 303.281 167.502 303.115 167.502 302.95C167.502 302.784 181.139 302.619 197.999 302.619C214.861 302.536 228.496 302.701 228.496 302.95Z" fill="#FF725E"/>
<path d="M298.995 302.95C298.995 303.115 285.357 303.281 268.497 303.281C251.637 303.281 238 303.115 238 302.95C238 302.784 251.637 302.619 268.497 302.619C285.276 302.536 298.995 302.701 298.995 302.95Z" fill="#E0E0E0"/>
<path d="M272.054 316.257C272.054 316.422 251.971 316.588 227.176 316.588C202.381 316.588 182.297 316.422 182.297 316.257C182.297 316.091 202.381 315.926 227.176 315.926C251.888 315.843 272.054 316.009 272.054 316.257Z" fill="#E0E0E0"/>
<path d="M272.054 329.481C272.054 329.645 251.971 329.811 227.176 329.811C202.381 329.811 182.297 329.645 182.297 329.481C182.297 329.314 202.381 329.15 227.176 329.15C251.888 329.15 272.054 329.314 272.054 329.481Z" fill="#E0E0E0"/>
<path d="M307.179 342.787C307.179 342.953 287.096 343.118 262.301 343.118C237.506 343.118 217.422 342.953 217.422 342.787C217.422 342.622 237.506 342.456 262.301 342.456C287.096 342.456 307.179 342.622 307.179 342.787Z" fill="#E0E0E0"/>
<path d="M416.939 342.787C416.939 342.953 396.856 343.118 372.061 343.118C347.266 343.118 327.182 342.953 327.182 342.787C327.182 342.622 347.266 342.456 372.061 342.456C396.856 342.456 416.939 342.622 416.939 342.787Z" fill="#E0E0E0"/>
<path d="M378.755 316.257C378.755 316.422 358.67 316.588 333.875 316.588C309.081 316.588 288.996 316.422 288.996 316.257C288.996 316.091 309.081 315.926 333.875 315.926C358.67 315.843 378.755 316.009 378.755 316.257Z" fill="#FAFAFA"/>
<path d="M428.427 329.481C428.427 329.645 397.187 329.811 358.672 329.811C320.156 329.811 288.916 329.645 288.916 329.481C288.916 329.314 320.156 329.15 358.672 329.15C397.187 329.15 428.427 329.314 428.427 329.481Z" fill="#455A64"/>
<path d="M199.239 342.787C199.239 342.953 191.966 343.118 182.957 343.118C173.949 343.118 166.676 342.953 166.676 342.787C166.676 342.622 173.949 342.456 182.957 342.456C191.966 342.456 199.239 342.622 199.239 342.787Z" fill="#FAFAFA"/>
<path d="M460.331 342.787C460.331 342.953 453.057 343.118 444.049 343.118C435.039 343.118 427.766 342.953 427.766 342.787C427.766 342.622 435.039 342.456 444.049 342.456C453.057 342.456 460.331 342.622 460.331 342.787Z" fill="#FF725E"/>
<path d="M469.005 408.08C469.005 408.163 385.86 408.327 283.21 408.327C180.559 408.327 97.4141 408.246 97.4141 408.08C97.4141 407.997 180.559 407.832 283.21 407.832C385.86 407.915 469.005 407.997 469.005 408.08Z" fill="#263238"/>
<path d="M83.5302 335.266C72.1247 323.611 54.2724 318.735 38.4863 322.95C52.2061 332.125 67.5789 337.001 84.0261 337.166" fill="#FF725E"/>
<path d="M68.3218 281.214C70.2227 267.989 65.016 253.03 55.098 243.36C54.7673 256.5 60.3048 271.294 68.3218 281.214Z" fill="#FF725E"/>
<path d="M76.2586 306.256C69.1507 292.702 57.5799 281.626 43.7773 275.181C47.9098 290.47 60.9685 302.951 76.4238 306.421" fill="#FF725E"/>
<path d="M77.9127 311.05C69.8957 311.298 61.796 310.967 54.027 308.984C46.258 306.918 38.9022 303.032 33.6953 296.834C49.316 296.834 64.8541 301.628 77.7475 310.306" fill="#FF725E"/>
<path d="M73.8594 295.18C77.9092 279.974 84.6038 269.395 96.5879 260.882C97.497 268.32 95.6787 276.007 91.5463 282.205C87.4139 288.404 80.9672 293.114 73.8594 295.18Z" fill="#FF725E"/>
<path d="M104.028 321.463C104.276 312.62 98.491 303.941 90.3086 300.554C91.0525 308.405 97.1685 317.497 104.028 321.463Z" fill="#FF725E"/>
<path d="M107.912 308.57C108.821 295.842 117.83 284.106 129.897 279.891C127.169 292.7 119.814 303.279 107.912 308.57Z" fill="#FF725E"/>
<path d="M102.127 331.381C104.937 327.332 109.565 324.852 114.359 323.612C119.153 322.372 124.112 322.291 129.071 322.125C122.459 329.481 112.458 333.613 102.54 333.199" fill="#FF725E"/>
<path d="M96.4238 363.862C105.35 361.135 115.185 361.796 123.615 365.847C132.046 369.812 138.823 377.004 142.377 385.682C125.599 382.459 109.152 375.02 96.4238 363.862Z" fill="#FF725E"/>
<path d="M78.0763 352.621C80.8863 360.803 80.3078 370.721 74.1917 377.747C71.6296 369.317 73.1173 359.813 78.0763 352.621Z" fill="#FF725E"/>
<path d="M67.2499 348.076C66.506 358.574 59.7287 368.491 50.2242 373.12C49.7282 373.368 49.2324 373.532 48.7364 373.368C47.9927 373.037 47.9099 372.045 47.9927 371.219C49.2324 360.64 57.0014 350.474 67.2499 348.076Z" fill="#FF725E"/>
<path d="M60.2255 347.002C55.5145 352.043 48.7372 355.101 41.7948 355.101C34.9348 355.101 27.9923 352.209 23.2812 347.166C35.0175 345.845 48.572 345.017 60.2255 347.002Z" fill="#FF725E"/>
<path d="M58.4043 253.195C58.4043 253.195 58.4043 253.278 58.4871 253.526C58.5697 253.773 58.6523 254.104 58.8176 254.518C59.1482 255.427 59.644 256.667 60.2226 258.319C60.8838 259.973 61.5449 261.956 62.4541 264.352C62.8675 265.511 63.3633 266.749 63.7766 268.155C64.2724 269.477 64.7684 270.883 65.2642 272.37C67.3305 278.32 69.6447 285.429 72.1242 293.362C74.6037 301.297 77.1658 310.141 79.6452 319.397C82.1247 328.655 84.3562 337.58 86.2571 345.679C88.0754 353.78 89.6458 361.135 90.8029 367.334C91.1335 368.905 91.3815 370.393 91.6293 371.714C91.8773 373.12 92.1253 374.441 92.2906 375.681C92.7038 378.161 93.117 380.31 93.365 382.045C93.613 383.781 93.861 385.104 93.9436 386.013C94.0262 386.427 94.1088 386.839 94.1088 387.086C94.1088 387.336 94.1915 387.417 94.1915 387.417C94.1915 387.417 94.1915 387.336 94.1915 387.086C94.1915 386.839 94.1088 386.508 94.0262 386.013C93.861 385.104 93.6956 383.699 93.5304 381.962C93.2824 380.227 92.9518 378.078 92.5385 375.598C92.3732 374.36 92.1253 373.037 91.8773 371.632C91.6293 370.226 91.3815 368.739 91.0509 367.251C89.9764 361.053 88.406 353.697 86.5877 345.598C84.6868 337.497 82.5379 328.571 80.0584 319.315C77.4964 310.058 74.9343 301.297 72.4548 293.281C69.9753 285.346 67.5784 278.237 65.5121 272.287C65.0163 270.799 64.5204 269.395 64.0244 268.072C63.5286 266.749 63.0327 265.511 62.6195 264.352C61.7929 262.039 60.9665 259.973 60.3052 258.319C59.644 256.667 59.1482 255.427 58.8176 254.518C58.6523 254.104 58.4871 253.773 58.4043 253.526C58.4871 253.278 58.4043 253.195 58.4043 253.195Z" fill="#263238"/>
<path d="M122.87 286.75C122.87 286.75 122.788 286.834 122.705 286.917C122.54 287.081 122.374 287.247 122.126 287.495C121.631 287.99 120.887 288.816 120.06 289.809C118.325 291.875 115.762 294.933 113.118 298.983C110.473 303.032 107.745 308.239 105.927 314.439C104.026 320.554 102.786 327.579 101.629 334.936C99.2326 349.565 96.3398 362.706 94.191 372.128C93.1165 376.838 92.29 380.641 91.6288 383.368C91.3808 384.69 91.133 385.682 90.9676 386.427C90.885 386.756 90.885 387.005 90.8024 387.253C90.8024 387.417 90.7196 387.5 90.8024 387.5C90.8024 387.5 90.8024 387.417 90.885 387.253C90.9676 387.087 90.9676 386.756 91.133 386.427C91.2982 385.682 91.5462 384.69 91.8768 383.368C92.5379 380.722 93.4471 376.921 94.5216 372.211C96.7531 362.789 99.7284 349.647 102.125 335.019C103.282 327.745 104.522 320.72 106.423 314.603C108.241 308.487 110.886 303.281 113.531 299.231C116.093 295.099 118.572 292.041 120.308 289.975C121.135 288.9 121.879 288.157 122.292 287.577C122.54 287.329 122.705 287.081 122.788 286.998C122.87 286.834 122.87 286.75 122.87 286.75Z" fill="#263238"/>
<path d="M56.6699 346.507C56.6699 346.507 56.8351 346.588 57.0831 346.588C57.4137 346.588 57.8269 346.671 58.3229 346.754C58.5708 346.754 58.9014 346.838 59.232 346.838C59.5626 346.919 59.8932 346.919 60.3064 347.002C61.0503 347.085 61.8767 347.25 62.7859 347.416C63.2818 347.497 63.7778 347.581 64.2736 347.747C64.7695 347.911 65.2653 347.994 65.8439 348.159C66.9184 348.407 68.0754 348.82 69.2325 349.151C71.6294 349.977 74.1089 351.053 76.671 352.457C79.2331 353.862 81.4647 355.515 83.3656 357.086C84.2748 357.912 85.1839 358.738 85.9277 359.564C86.7543 360.309 87.3328 361.135 87.9113 361.879C88.5726 362.622 88.9858 363.367 89.399 363.945C89.8123 364.524 90.1429 365.102 90.3907 365.597C90.6387 366.011 90.8041 366.342 91.0521 366.673C91.2173 366.92 91.2999 367.004 91.2999 367.004C91.2999 367.004 91.2173 366.837 91.1347 366.59C90.9693 366.259 90.8041 365.928 90.5561 365.516C90.3081 365.019 89.9775 364.441 89.5643 363.862C89.151 363.201 88.7378 362.458 88.0766 361.713C87.4981 360.97 86.8369 360.144 86.0931 359.316C85.3492 358.49 84.44 357.664 83.5309 356.837C81.6299 355.185 79.3984 353.531 76.8364 352.126C74.2741 350.722 71.712 349.647 69.3151 348.82C68.0754 348.49 67.001 348.076 65.8439 347.828C65.2653 347.664 64.7695 347.581 64.2736 347.416C63.7778 347.333 63.2818 347.25 62.7859 347.167C61.8767 347.002 60.9676 346.919 60.2238 346.838C59.8932 346.754 59.48 346.754 59.1494 346.754C58.8188 346.754 58.5708 346.754 58.2402 346.671C57.7443 346.671 57.3311 346.671 57.0005 346.588C56.8351 346.424 56.6699 346.424 56.6699 346.507Z" fill="#263238"/>
<path d="M53.3613 286.998C53.3613 286.998 53.6093 287.329 54.1879 287.826C54.849 288.404 55.6756 289.066 56.5847 289.892C58.6509 291.627 61.4609 294.024 64.6844 296.668C67.825 299.314 70.7177 301.628 72.8666 303.363C73.8583 304.19 74.6849 304.85 75.3461 305.347C75.9246 305.843 76.2552 306.09 76.3378 306.007C76.3378 306.007 76.0899 305.678 75.5114 305.181C74.8501 304.603 74.0237 303.941 73.1146 303.115C71.0483 301.38 68.2382 298.983 65.0149 296.337C61.8743 293.693 58.9815 291.379 56.8326 289.644C55.8408 288.816 55.0143 288.156 54.3531 287.66C53.6919 287.247 53.3613 286.998 53.3613 286.998Z" fill="#263238"/>
<path d="M50.4727 302.537C50.4727 302.62 56.5888 304.603 64.275 306.835C71.8788 309.065 78.1601 310.802 78.1601 310.719C78.1601 310.636 72.044 308.653 64.3578 306.421C56.754 304.107 50.4727 302.454 50.4727 302.537Z" fill="#263238"/>
<path d="M73.1973 296.337C73.1973 296.337 73.4452 296.008 73.8584 295.428C74.2716 294.768 74.8502 293.941 75.5114 292.95C76.9165 290.882 78.8174 287.99 81.1317 285.015C83.4458 281.957 85.6773 279.313 87.3304 277.494C88.0741 276.585 88.7353 275.841 89.3139 275.262C89.8097 274.767 90.0577 274.436 89.9751 274.436C89.9751 274.436 89.6445 274.684 89.1485 275.179C88.6527 275.676 87.9088 276.419 87.0824 277.328C85.3467 279.146 83.1152 281.792 80.8009 284.849C78.4868 287.907 76.5859 290.801 75.2636 292.867C74.6022 293.941 74.1064 294.768 73.7758 295.428C73.3625 296.008 73.1973 296.337 73.1973 296.337Z" fill="#263238"/>
<path d="M94.6035 304.933C94.5209 304.933 95.0995 305.842 96.0086 307.33C96.9178 308.817 98.1575 310.802 99.4799 313.032C100.802 315.348 101.877 317.414 102.621 318.901C103.364 320.472 103.86 321.381 103.943 321.381C104.025 321.381 103.612 320.389 102.951 318.818C102.29 317.247 101.215 315.098 99.8931 312.868C98.5707 310.553 97.331 308.57 96.3392 307.165C95.3473 305.759 94.6861 304.933 94.6035 304.933Z" fill="#263238"/>
<path d="M101.961 331.794C101.961 331.877 103.201 331.299 105.102 330.389C107.003 329.563 109.73 328.405 112.788 327.331C115.846 326.257 118.656 325.513 120.64 324.935C122.706 324.439 123.946 324.108 123.946 324.025C123.946 324.025 123.615 324.025 123.037 324.108C122.458 324.19 121.631 324.356 120.557 324.604C118.491 325.018 115.681 325.761 112.623 326.836C109.565 327.91 106.92 329.066 105.019 330.059C104.11 330.554 103.283 330.968 102.787 331.216C102.209 331.629 101.961 331.794 101.961 331.794Z" fill="#263238"/>
<path d="M96.1777 363.946C96.1777 363.946 96.343 364.029 96.5909 364.11C96.9215 364.193 97.2521 364.276 97.6655 364.359C98.7398 364.607 100.062 364.938 101.798 365.268C105.269 366.095 110.063 367.087 115.187 368.822C120.311 370.557 124.692 372.789 127.667 374.689C129.155 375.681 130.312 376.507 131.138 377.086C131.965 377.666 132.378 377.995 132.378 377.995C132.378 377.995 132.295 377.914 132.13 377.666C131.965 377.5 131.634 377.252 131.304 376.921C130.56 376.26 129.403 375.351 127.915 374.358C124.94 372.376 120.559 370.062 115.435 368.325C110.311 366.59 105.434 365.598 101.963 364.938C100.31 364.607 98.9052 364.359 97.8307 364.11C96.7563 364.029 96.1777 363.862 96.1777 363.946Z" fill="#263238"/>
<path d="M75.3487 371.88C75.4313 371.88 76.1753 367.582 77.0017 362.21C77.7456 356.837 78.3242 352.54 78.1588 352.457C78.0762 352.457 77.3323 356.755 76.5059 362.127C75.7619 367.499 75.1834 371.797 75.3487 371.88Z" fill="#263238"/>
<path d="M53.6113 363.945C53.6939 363.945 54.3551 363.119 55.5949 361.631C56.752 360.144 58.4049 358.159 60.2232 356.01C62.0415 353.861 63.7772 351.878 65.017 350.474C66.2567 349.068 67.0005 348.159 67.0005 348.159C67.0005 348.159 66.7525 348.325 66.3393 348.656C65.926 348.985 65.4302 349.565 64.769 350.225C63.4465 351.548 61.7109 353.531 59.8926 355.68C58.0743 357.912 56.4214 359.895 55.3469 361.465C54.7683 362.21 54.3551 362.871 54.0245 363.284C53.7765 363.697 53.6113 363.945 53.6113 363.945Z" fill="#263238"/>
<path d="M111.054 384.111V394.773H108.409L98.8219 424.859H77.7463L68.4895 395.104L64.9355 394.773V384.111H111.054Z" fill="#FF725E"/>
<g opacity="0.3">
<path d="M111.054 384.111V394.773H108.409L98.8219 424.858H77.7463L68.4895 395.104L64.9355 394.773V384.111H111.054Z" fill="black"/>
</g>
<path d="M66.6699 395.104C66.6699 395.187 76.0093 395.352 87.4975 395.352C98.9858 395.352 108.325 395.269 108.325 395.104C108.325 394.938 98.9858 394.856 87.4975 394.856C76.0093 394.856 66.6699 395.021 66.6699 395.104Z" fill="#263238"/>
<path d="M51.4629 326.175C51.4629 326.175 51.9588 326.339 52.7852 326.505C53.777 326.753 55.0167 327.001 56.5045 327.415C59.6451 328.158 63.9429 329.398 68.5713 330.968C73.1996 332.539 77.3321 334.191 80.3075 335.431C81.7126 336.092 82.8696 336.588 83.7787 337.002C84.6053 337.332 85.1011 337.58 85.1011 337.497C85.1011 337.497 84.6879 337.249 83.8614 336.837C83.035 336.423 81.8778 335.845 80.3901 335.183C77.4974 333.86 73.365 332.125 68.6539 330.554C63.9429 328.985 59.6451 327.827 56.5045 327.167C54.9341 326.836 53.6118 326.587 52.7852 326.422C51.9588 326.175 51.4629 326.092 51.4629 326.175Z" fill="#263238"/>
<path d="M73.6934 411.8C73.6934 411.881 80.2228 412.047 88.3224 412.047C96.422 412.047 102.951 411.964 102.951 411.8C102.951 411.633 96.422 411.55 88.3224 411.55C80.2228 411.55 73.6934 411.716 73.6934 411.8Z" fill="#FAFAFA"/>
<path d="M72.8672 409.32C72.8672 409.403 79.8097 409.568 88.4052 409.568C97.0008 409.568 103.943 409.485 103.943 409.32C103.943 409.154 97.0008 409.072 88.4052 409.072C79.8097 409.072 72.8672 409.237 72.8672 409.32Z" fill="#FAFAFA"/>
<path d="M589.675 425.023C589.675 425.106 463.718 425.271 308.336 425.271C152.874 425.271 26.916 425.188 26.916 425.023C26.916 424.94 152.874 424.775 308.336 424.775C463.718 424.857 589.675 424.94 589.675 425.023Z" fill="#263238"/>
<path d="M512.48 110.708H290.98V247.906H477.437L489.008 274.436L499.256 247.906H512.48V110.708Z" fill="#FAFAFA"/>
<path d="M512.48 110.708C512.48 112.03 512.563 163.603 512.646 247.906V248.071H512.48C508.431 248.071 503.885 248.071 499.257 248.071L499.423 247.989C496.198 256.336 492.728 265.261 489.173 274.519L489.008 274.931L488.842 274.519C485.206 266.171 481.321 257.162 477.272 247.989L477.437 248.071C427.352 248.071 369.745 248.071 308.833 248.071C302.881 248.071 296.931 248.071 290.981 248.071H290.814V247.823C290.814 198.977 290.814 152.528 290.814 110.625V110.46H290.981C421.731 110.625 510.745 110.708 512.48 110.708C510.745 110.708 421.731 110.791 290.981 110.873L291.145 110.708C291.145 152.611 291.145 198.977 291.145 247.906L290.898 247.658C296.766 247.658 302.717 247.658 308.75 247.658C369.663 247.658 427.269 247.658 477.354 247.658H477.52L477.603 247.74C481.652 256.998 485.536 266.006 489.173 274.271H488.842C492.397 265.014 495.868 256.005 499.092 247.74L499.174 247.658H499.257C503.885 247.658 508.431 247.658 512.48 247.658L512.316 247.823C512.399 163.521 512.48 112.03 512.48 110.708Z" fill="#263238"/>
<path d="M512.399 124.097C512.399 124.262 462.891 124.427 401.896 124.427C340.818 124.427 291.395 124.262 291.395 124.097C291.395 123.931 340.901 123.766 401.896 123.766C462.891 123.766 512.399 123.931 512.399 124.097Z" fill="#263238"/>
<path d="M302.801 118.063C302.801 119.055 301.973 119.882 300.982 119.882C299.99 119.882 299.164 119.055 299.164 118.063C299.164 117.072 299.99 116.245 300.982 116.245C301.973 116.245 302.801 116.989 302.801 118.063Z" fill="#263238"/>
<path d="M309.326 118.063C309.326 119.055 308.5 119.882 307.508 119.882C306.516 119.882 305.689 119.055 305.689 118.063C305.689 117.072 306.516 116.245 307.508 116.245C308.5 116.245 309.326 116.989 309.326 118.063Z" fill="#263238"/>
<path d="M315.939 118.063C315.939 119.055 315.113 119.882 314.121 119.882C313.13 119.882 312.303 119.055 312.303 118.063C312.303 117.072 313.13 116.245 314.121 116.245C315.113 116.245 315.939 116.989 315.939 118.063Z" fill="#263238"/>
<path d="M315.198 148.643L309.907 150.71L315.198 152.776V154.016L308.586 151.371V150.131L315.198 147.486V148.643Z" fill="#263238"/>
<path d="M320.654 143.354H321.975L317.099 157.322H315.777L320.654 143.354Z" fill="#263238"/>
<path d="M328.998 150.049V151.288L322.387 153.933V152.693L327.675 150.627L322.387 148.561V147.321L328.998 150.049Z" fill="#263238"/>
<path d="M330.652 154.925C330.652 154.347 331.148 153.934 331.643 153.934C332.14 153.934 332.635 154.347 332.635 154.925C332.635 155.504 332.221 155.917 331.643 155.917C331.148 155.917 330.652 155.504 330.652 154.925Z" fill="#263238"/>
<path d="M334.041 154.925C334.041 154.347 334.538 153.934 335.033 153.934C335.529 153.934 336.025 154.347 336.025 154.925C336.025 155.504 335.612 155.917 335.033 155.917C334.538 155.917 334.041 155.504 334.041 154.925Z" fill="#263238"/>
<path d="M337.43 154.925C337.43 154.347 337.927 153.934 338.422 153.934C338.917 153.934 339.414 154.347 339.414 154.925C339.414 155.504 339 155.917 338.422 155.917C337.843 155.917 337.43 155.504 337.43 154.925Z" fill="#263238"/>
<path d="M455.037 168.232C455.037 168.397 422.309 168.562 381.893 168.562C341.478 168.562 308.748 168.397 308.748 168.232C308.748 168.066 341.478 167.901 381.893 167.901C422.309 167.901 455.037 168.066 455.037 168.232Z" fill="#455A64"/>
<path d="M478.925 168.645C478.925 168.81 475.785 168.976 471.901 168.976C468.015 168.976 464.875 168.81 464.875 168.645C464.875 168.48 468.015 168.314 471.901 168.314C475.785 168.314 478.925 168.48 478.925 168.645Z" fill="#263238"/>
<path d="M499.421 168.645C499.421 168.81 495.951 168.976 491.736 168.976C487.521 168.976 484.049 168.81 484.049 168.645C484.049 168.48 487.521 168.314 491.736 168.314C496.034 168.314 499.421 168.48 499.421 168.645Z" fill="#263238"/>
<path d="M401.896 180.546C401.896 180.712 381.069 180.877 355.448 180.877C329.744 180.877 308.998 180.712 308.998 180.546C308.998 180.381 329.826 180.216 355.448 180.216C381.069 180.216 401.896 180.381 401.896 180.546Z" fill="#455A64"/>
<path d="M401.236 226.5C401.236 226.665 380.409 226.831 354.788 226.831C329.084 226.831 308.338 226.665 308.338 226.5C308.338 226.334 329.167 226.169 354.788 226.169C380.409 226.169 401.236 226.334 401.236 226.5Z" fill="#455A64"/>
<path d="M435.698 180.546C435.698 180.712 429.996 180.877 423.053 180.877C416.028 180.877 410.408 180.712 410.408 180.546C410.408 180.381 416.028 180.216 423.053 180.216C429.996 180.216 435.698 180.381 435.698 180.546Z" fill="#263238"/>
<path d="M435.368 226.5C435.368 226.665 429.666 226.831 422.723 226.831C415.698 226.831 410.078 226.665 410.078 226.5C410.078 226.334 415.698 226.169 422.723 226.169C429.749 226.169 435.368 226.334 435.368 226.5Z" fill="#263238"/>
<path d="M315.029 186.828C315.029 186.993 313.625 187.159 311.889 187.159C310.153 187.159 308.748 186.993 308.748 186.828C308.748 186.663 310.153 186.498 311.889 186.498C313.625 186.498 315.029 186.663 315.029 186.828Z" fill="#FF725E"/>
<path d="M336.685 186.911C336.685 187.076 333.627 187.241 329.907 187.241C326.106 187.241 323.131 187.076 323.131 186.911C323.131 186.745 326.188 186.58 329.907 186.58C333.627 186.663 336.685 186.745 336.685 186.911Z" fill="#263238"/>
<path d="M350.488 186.911C350.488 187.076 347.843 187.241 344.619 187.241C341.396 187.241 338.752 187.076 338.752 186.911C338.752 186.745 341.396 186.58 344.619 186.58C347.843 186.663 350.488 186.745 350.488 186.911Z" fill="#263238"/>
<path d="M368.009 186.911C368.009 187.076 365.365 187.241 362.059 187.241C358.753 187.241 356.107 187.076 356.107 186.911C356.107 186.745 358.753 186.58 362.059 186.58C365.365 186.663 368.009 186.745 368.009 186.911Z" fill="#263238"/>
<path d="M383.382 186.911C383.382 187.076 380.986 187.241 378.011 187.241C375.035 187.241 372.639 187.076 372.639 186.911C372.639 186.745 375.035 186.58 378.011 186.58C380.903 186.663 383.382 186.745 383.382 186.911Z" fill="#263238"/>
<path d="M434.127 186.911C434.127 187.076 423.466 187.241 410.324 187.241C397.184 187.241 386.521 187.076 386.521 186.911C386.521 186.745 397.184 186.58 410.324 186.58C423.548 186.663 434.127 186.745 434.127 186.911Z" fill="#263238"/>
<path d="M314.203 194.762C314.203 194.927 312.963 195.093 311.475 195.093C309.988 195.093 308.748 194.927 308.748 194.762C308.748 194.597 309.988 194.432 311.475 194.432C312.963 194.514 314.203 194.597 314.203 194.762Z" fill="#FF725E"/>
<path d="M314.369 203.027C314.369 203.192 313.129 203.357 311.559 203.357C309.988 203.357 308.748 203.192 308.748 203.027C308.748 202.862 309.988 202.696 311.559 202.696C313.129 202.696 314.369 202.862 314.369 203.027Z" fill="#FF725E"/>
<path d="M314.369 212.284C314.369 212.45 313.129 212.615 311.559 212.615C309.988 212.615 308.748 212.45 308.748 212.284C308.748 212.119 309.988 211.954 311.559 211.954C313.129 212.036 314.369 212.119 314.369 212.284Z" fill="#FF725E"/>
<path d="M365.613 211.87C365.613 212.036 356.19 212.201 344.619 212.201C333.049 212.201 323.627 212.036 323.627 211.87C323.627 211.705 333.049 211.54 344.619 211.54C356.273 211.54 365.613 211.705 365.613 211.87Z" fill="#263238"/>
<path d="M361.975 203.027C361.975 203.192 353.05 203.357 341.974 203.357C330.9 203.357 321.973 203.192 321.973 203.027C321.973 202.862 330.9 202.696 341.974 202.696C352.967 202.696 361.975 202.862 361.975 203.027Z" fill="#263238"/>
<path d="M458.594 194.349C458.594 194.515 428.095 194.68 390.49 194.68C352.884 194.68 322.387 194.515 322.387 194.349C322.387 194.184 352.884 194.019 390.49 194.019C428.095 194.101 458.594 194.184 458.594 194.349Z" fill="#263238"/>
<path d="M526.118 166.826V283.361L508.018 298.486H526.118H527.853H602.734V166.826H526.118Z" fill="#FAFAFA"/>
<path d="M526.118 166.826C526.118 166.826 526.532 166.826 527.441 166.826C528.35 166.826 529.671 166.826 531.408 166.826C534.879 166.826 540.086 166.826 546.698 166.826C560.004 166.826 579.179 166.743 602.817 166.743H602.982V166.909C602.982 202.117 602.982 248.07 603.065 298.569V298.816H602.817C598.601 298.816 594.057 298.816 589.511 298.816C560.666 298.816 533.06 298.816 508.018 298.816H507.439L507.853 298.486C514.134 293.28 520.168 288.237 525.953 283.361L525.87 283.527C525.87 248.648 525.953 219.473 525.953 199.059C525.953 188.893 525.953 180.794 526.035 175.339C526.035 172.611 526.035 170.545 526.035 169.057C526.035 168.396 526.035 167.818 526.035 167.487C526.118 166.991 526.118 166.826 526.118 166.826C526.118 166.826 526.118 166.991 526.118 167.404C526.118 167.735 526.118 168.313 526.118 169.057C526.118 170.462 526.118 172.611 526.118 175.339C526.118 180.876 526.118 188.893 526.201 199.142C526.201 219.556 526.284 248.648 526.284 283.527V283.609L526.201 283.692C520.415 288.568 514.382 293.609 508.101 298.816L507.935 298.486C532.979 298.486 560.583 298.486 589.428 298.486C593.974 298.486 598.519 298.486 602.734 298.486L602.487 298.733C602.487 248.153 602.487 202.2 602.568 167.074L602.734 167.239C579.179 167.239 560.004 167.156 546.698 167.156C540.086 167.156 534.879 167.156 531.408 167.156C529.671 167.156 528.35 167.156 527.441 167.156C526.615 166.826 526.118 166.826 526.118 166.826Z" fill="#263238"/>
<path d="M533.06 172.611C533.06 173.438 532.398 174.182 531.489 174.182C530.663 174.182 529.92 173.52 529.92 172.611C529.92 171.785 530.58 171.041 531.489 171.041C532.398 171.041 533.06 171.702 533.06 172.611Z" fill="#263238"/>
<path d="M538.68 172.611C538.68 173.438 538.019 174.182 537.11 174.182C536.284 174.182 535.539 173.52 535.539 172.611C535.539 171.785 536.201 171.041 537.11 171.041C538.019 171.041 538.68 171.702 538.68 172.611Z" fill="#263238"/>
<path d="M544.301 172.611C544.301 173.438 543.64 174.182 542.731 174.182C541.905 174.182 541.16 173.52 541.16 172.611C541.16 171.785 541.822 171.041 542.731 171.041C543.64 171.041 544.301 171.702 544.301 172.611Z" fill="#263238"/>
<path d="M581.659 208.481C581.659 208.646 571.907 208.729 559.922 208.729C547.939 208.729 538.186 208.646 538.186 208.481C538.186 208.316 547.939 208.233 559.922 208.233C571.989 208.233 581.659 208.398 581.659 208.481Z" fill="#FF725E"/>
<path d="M590.747 219.061C590.747 219.226 578.93 219.309 564.3 219.309C549.671 219.309 537.852 219.226 537.852 219.061C537.852 218.896 549.671 218.813 564.3 218.813C578.93 218.813 590.747 218.896 590.747 219.061Z" fill="#FF725E"/>
<path d="M592.899 258.402C592.899 258.567 580.254 258.65 564.717 258.65C549.178 258.65 536.533 258.567 536.533 258.402C536.533 258.236 549.178 258.154 564.717 258.154C580.254 258.154 592.899 258.236 592.899 258.402Z" fill="#FF725E"/>
<path d="M542.32 224.433C542.32 224.598 541.08 224.681 539.674 224.681C538.186 224.681 537.029 224.598 537.029 224.433C537.029 224.268 538.269 224.185 539.674 224.185C541.161 224.185 542.32 224.268 542.32 224.433Z" fill="#FF725E"/>
<path d="M560.829 224.516C560.829 224.681 558.184 224.764 555.045 224.764C551.82 224.764 549.176 224.681 549.176 224.516C549.176 224.35 551.82 224.268 555.045 224.268C558.267 224.268 560.829 224.433 560.829 224.516Z" fill="#FF725E"/>
<path d="M572.65 224.516C572.65 224.681 570.419 224.764 567.692 224.764C564.965 224.764 562.732 224.681 562.732 224.516C562.732 224.35 564.965 224.268 567.692 224.268C570.419 224.268 572.65 224.433 572.65 224.516Z" fill="#FF725E"/>
<path d="M541.574 231.292C541.574 231.458 540.5 231.541 539.261 231.541C538.021 231.541 536.945 231.458 536.945 231.292C536.945 231.128 538.021 231.044 539.261 231.044C540.582 231.044 541.574 231.128 541.574 231.292Z" fill="#FF725E"/>
<path d="M541.823 238.318C541.823 238.484 540.749 238.565 539.426 238.565C538.105 238.565 537.029 238.484 537.029 238.318C537.029 238.153 538.105 238.07 539.426 238.07C540.749 238.07 541.823 238.153 541.823 238.318Z" fill="#FF725E"/>
<path d="M541.823 246.253C541.823 246.419 540.749 246.5 539.426 246.5C538.105 246.5 537.029 246.419 537.029 246.253C537.029 246.088 538.105 246.005 539.426 246.005C540.749 246.005 541.823 246.088 541.823 246.253Z" fill="#FF725E"/>
<path d="M585.625 245.838C585.625 246.005 577.609 246.086 567.691 246.086C557.772 246.086 549.756 246.005 549.756 245.838C549.756 245.674 557.772 245.591 567.691 245.591C577.609 245.591 585.625 245.757 585.625 245.838Z" fill="#FF725E"/>
<path d="M582.487 238.318C582.487 238.484 574.8 238.565 565.377 238.565C555.957 238.565 548.27 238.484 548.27 238.318C548.27 238.153 555.957 238.07 565.377 238.07C574.8 238.07 582.487 238.153 582.487 238.318Z" fill="#FF725E"/>
<path d="M545.293 268.898C545.293 269.064 544.218 269.145 542.897 269.145C541.574 269.145 540.5 269.064 540.5 268.898C540.5 268.733 541.574 268.65 542.897 268.65C544.218 268.65 545.293 268.733 545.293 268.898Z" fill="#FF725E"/>
<path d="M545.293 276.833C545.293 276.997 544.218 277.08 542.897 277.08C541.574 277.08 540.5 276.997 540.5 276.833C540.5 276.668 541.574 276.585 542.897 276.585C544.218 276.585 545.293 276.75 545.293 276.833Z" fill="#FF725E"/>
<path d="M589.181 276.502C589.181 276.667 581.164 276.75 571.246 276.75C561.328 276.75 553.311 276.667 553.311 276.502C553.311 276.336 561.328 276.254 571.246 276.254C581.08 276.254 589.181 276.336 589.181 276.502Z" fill="#FF725E"/>
<path d="M585.955 268.898C585.955 269.064 578.27 269.145 568.848 269.145C559.425 269.145 551.738 269.064 551.738 268.898C551.738 268.733 559.425 268.65 568.848 268.65C578.351 268.65 585.955 268.733 585.955 268.898Z" fill="#FF725E"/>
<path d="M595.214 230.88C595.214 231.044 584.8 231.127 571.907 231.127C559.013 231.127 548.6 231.044 548.6 230.88C548.6 230.713 559.013 230.632 571.907 230.632C584.8 230.632 595.214 230.796 595.214 230.88Z" fill="#FF725E"/>
<path d="M602.072 178.645C602.072 178.81 585.212 178.893 564.466 178.893C543.721 178.893 526.861 178.81 526.861 178.645C526.861 178.48 543.721 178.397 564.466 178.397C585.212 178.397 602.072 178.562 602.072 178.645Z" fill="#263238"/>
<path d="M554.135 202.118C554.135 202.283 550.582 202.366 546.202 202.366C541.821 202.366 538.268 202.283 538.268 202.118C538.268 201.952 541.821 201.87 546.202 201.87C550.582 201.87 554.135 202.035 554.135 202.118Z" fill="#FF725E"/>
<path d="M545.127 187.737C545.127 187.902 543.475 187.985 541.409 187.985C539.342 187.985 537.689 187.902 537.689 187.737C537.689 187.571 539.342 187.489 541.409 187.489C543.475 187.489 545.127 187.654 545.127 187.737Z" fill="#FF725E"/>
<path d="M478.759 357.498L495.372 341.05L465.7 290.222C462.642 286.667 458.675 283.939 454.295 282.287L443.881 278.32L417.929 273.526L399.498 280.8C394.869 282.618 391.977 287.411 392.556 292.369L397.349 333.034L400.16 385.929L467.188 374.276L460.411 354.687L460.659 324.19L478.759 357.498Z" fill="#FF725E"/>
<path d="M461.155 353.448C461.32 353.448 461.322 342.869 461.239 329.811C461.155 316.752 460.908 306.173 460.742 306.173C460.577 306.173 460.577 316.752 460.66 329.811C460.742 342.869 460.991 353.448 461.155 353.448Z" fill="#263238"/>
<path d="M458.676 361.218L418.178 344.936C414.873 343.613 412.64 340.555 412.393 337.085L409.418 298.239C409.418 298.239 409.748 281.709 399.417 280.883L393.55 283.197C385.946 287.246 384.044 298.239 385.118 306.835C386.607 318.985 387.186 336.092 388.838 346.588C390.161 355.185 395.368 361.961 403.55 364.938L453.469 375.764L458.676 361.218Z" fill="#FF725E"/>
<path d="M409.996 304.107C409.996 304.107 410.079 304.438 410.162 305.017C410.244 305.678 410.327 306.504 410.41 307.578C410.658 309.893 410.905 313.033 411.236 317C411.567 320.968 411.981 325.761 412.476 330.968C412.559 332.29 412.724 333.613 412.807 335.017C412.89 336.423 412.971 337.828 413.302 339.151C413.633 340.555 414.294 341.795 415.286 342.787C416.36 343.779 417.683 344.522 419.005 345.101C430.164 349.894 440.494 353.945 447.933 356.755C451.651 358.16 454.628 359.233 456.775 360.061C457.767 360.473 458.593 360.721 459.173 360.97C459.752 361.218 460 361.301 460 361.301C460 361.301 459.669 361.218 459.173 361.052C458.593 360.887 457.767 360.556 456.694 360.226C454.545 359.483 451.486 358.49 447.767 357.084C440.246 354.359 429.914 350.473 418.757 345.596C417.352 344.936 416.029 344.192 414.873 343.199C413.716 342.126 413.054 340.721 412.724 339.315C412.393 337.911 412.311 336.423 412.228 335.1C412.145 333.696 411.981 332.373 411.897 331.051C411.484 325.761 411.153 321.051 410.822 317.083C410.575 313.116 410.327 309.893 410.162 307.661C410.079 306.587 410.079 305.76 409.996 305.098C409.996 304.355 409.996 304.107 409.996 304.107Z" fill="#263238"/>
<path d="M386.771 325.182C386.771 325.182 386.854 325.347 386.854 325.677C386.854 326.091 386.935 326.587 387.018 327.165C387.101 328.571 387.266 330.389 387.515 332.703C387.763 335.017 388.01 337.827 388.424 340.885C388.837 343.944 389.333 347.333 390.243 350.72C390.655 352.457 391.316 354.027 392.225 355.432C393.135 356.836 394.208 358.076 395.284 359.152C397.433 361.382 399.746 362.953 401.731 364.026C405.863 366.176 408.921 366.176 408.838 366.342C408.838 366.342 408.673 366.342 408.343 366.342C408.012 366.342 407.515 366.259 406.855 366.176C405.532 365.928 403.714 365.433 401.565 364.357C399.416 363.283 397.102 361.713 394.87 359.481C393.796 358.407 392.721 357.084 391.73 355.68C390.738 354.275 390.076 352.538 389.663 350.803C388.753 347.333 388.258 343.944 387.844 340.885C387.432 337.827 387.184 335.017 387.018 332.703C386.854 330.389 386.771 328.488 386.688 327.165C386.688 326.587 386.688 326.091 386.688 325.677C386.771 325.347 386.771 325.182 386.771 325.182Z" fill="#263238"/>
<path d="M404.127 352.374C404.044 352.374 404.209 351.465 404.87 350.225C405.449 348.986 406.606 347.333 408.259 345.846C409.913 344.44 411.73 343.531 413.053 343.2C414.376 342.788 415.285 342.788 415.285 342.788C415.285 342.869 414.457 343.035 413.136 343.531C411.813 344.027 410.161 344.937 408.507 346.258C406.936 347.664 405.779 349.152 405.118 350.392C404.54 351.63 404.209 352.374 404.127 352.374Z" fill="#263238"/>
<g opacity="0.3">
<path d="M447.023 356.589C442.725 354.109 438.427 352.291 433.881 350.225C429.335 348.159 424.956 345.515 421.98 341.547C416.359 334.026 417.021 323.117 411.318 315.677C411.731 320.72 412.061 325.678 412.475 330.721C412.806 335.266 412.144 339.812 415.038 342.952C417.516 345.596 422.393 347.581 425.782 348.737C432.724 350.887 440.162 354.275 447.023 356.589Z" fill="black"/>
</g>
<path opacity="0.3" d="M460.74 309.065L464.295 330.72L460.989 324.604L460.74 309.065Z" fill="black"/>
<path d="M408.755 295.759C408.755 295.759 408.424 295.842 407.846 295.842C407.186 295.842 406.276 295.842 405.284 295.925C403.135 296.006 400.16 296.089 396.854 296.337C393.548 296.586 390.572 296.915 388.506 297.165C387.515 297.246 386.687 297.412 385.944 297.495C385.366 297.577 385.035 297.577 385.035 297.577C385.035 297.577 385.366 297.495 385.944 297.329C386.523 297.246 387.432 297.082 388.506 296.915C390.655 296.586 393.63 296.255 396.936 296.006C400.242 295.759 403.218 295.677 405.367 295.759C406.441 295.759 407.35 295.759 407.929 295.842C408.424 295.677 408.755 295.759 408.755 295.759Z" fill="#455A64"/>
<path d="M409.913 316.422C409.913 316.505 404.623 317.083 398.011 317.579C391.481 318.157 386.109 318.488 386.109 318.323C386.109 318.24 391.4 317.662 398.011 317.167C404.623 316.67 409.913 316.339 409.913 316.422Z" fill="#455A64"/>
<path d="M411.895 338.158C411.895 338.158 411.647 338.323 411.069 338.654C410.49 338.903 409.663 339.315 408.672 339.729C406.605 340.638 403.712 341.629 400.407 342.373C397.101 343.118 394.043 343.447 391.81 343.53C390.737 343.613 389.828 343.613 389.166 343.53C388.505 343.53 388.174 343.447 388.174 343.447C388.174 343.447 388.505 343.365 389.166 343.365C389.744 343.365 390.654 343.282 391.81 343.199C394.043 343.035 397.018 342.704 400.324 341.959C403.629 341.216 406.523 340.224 408.589 339.481C409.663 339.067 410.49 338.737 410.986 338.489C411.564 338.241 411.895 338.158 411.895 338.158Z" fill="#455A64"/>
<path d="M426.279 349.315C426.362 349.398 424.13 350.391 422.23 352.538C420.329 354.687 419.586 356.919 419.42 356.836C419.337 356.836 419.503 356.258 419.833 355.349C420.246 354.44 420.907 353.283 421.899 352.209C422.892 351.134 423.965 350.308 424.791 349.894C425.701 349.482 426.279 349.315 426.279 349.315Z" fill="#455A64"/>
<path d="M440.989 363.698C440.906 363.698 441.319 361.63 442.559 359.4C443.798 357.168 445.204 355.68 445.287 355.763C445.368 355.845 444.128 357.415 442.889 359.647C441.732 361.796 441.07 363.698 440.989 363.698Z" fill="#455A64"/>
<path d="M417.846 283.609C417.846 283.692 415.284 284.27 412.143 284.849C408.92 285.427 406.357 285.758 406.357 285.676C406.357 285.593 408.92 285.015 412.06 284.436C415.284 283.858 417.846 283.444 417.846 283.609Z" fill="#455A64"/>
<path d="M456.692 285.346C456.692 285.427 453.138 285.098 448.757 284.601C444.376 284.106 440.822 283.527 440.822 283.444C440.822 283.361 444.376 283.692 448.757 284.189C453.138 284.684 456.692 285.263 456.692 285.346Z" fill="#455A64"/>
<path d="M459.998 303.362C459.998 303.362 459.832 303.362 459.502 303.362C459.089 303.362 458.675 303.362 458.014 303.362C456.693 303.362 454.874 303.362 452.642 303.362C448.096 303.362 441.898 303.362 435.038 303.61C428.178 303.776 421.897 304.107 417.434 304.272C415.202 304.355 413.384 304.519 412.061 304.519C411.483 304.519 410.987 304.602 410.573 304.602C410.243 304.602 410.078 304.602 410.078 304.602C410.078 304.602 410.243 304.519 410.573 304.519C410.987 304.519 411.401 304.436 412.061 304.355C413.301 304.272 415.119 304.107 417.434 303.941C421.98 303.61 428.178 303.279 435.038 303.115C441.898 302.949 448.179 302.949 452.642 303.032C454.874 303.032 456.693 303.115 458.014 303.198C458.592 303.198 459.089 303.279 459.502 303.279C459.832 303.362 459.998 303.362 459.998 303.362Z" fill="#455A64"/>
<path d="M460.413 326.256C460.413 326.339 449.752 327.165 436.693 328.075C423.551 328.902 412.972 329.562 412.891 329.398C412.891 329.314 423.47 328.488 436.61 327.579C449.752 326.753 460.413 326.092 460.413 326.256Z" fill="#455A64"/>
<path d="M459.335 346.34C459.335 346.34 459.005 346.506 458.426 346.754C457.848 347.002 457.022 347.249 455.946 347.58C453.797 348.242 450.822 349.151 447.516 349.977C444.211 350.803 441.152 351.381 438.922 351.712C437.846 351.878 436.937 352.043 436.276 352.043C435.614 352.126 435.285 352.126 435.285 352.126C435.285 352.126 435.614 352.043 436.194 351.878C436.854 351.712 437.763 351.548 438.756 351.381C440.905 350.969 443.963 350.308 447.269 349.563C450.575 348.737 453.55 347.911 455.699 347.333C456.691 347.002 457.517 346.836 458.262 346.588C459.005 346.423 459.335 346.34 459.335 346.34Z" fill="#455A64"/>
<path d="M476.279 309.891C476.279 309.974 472.89 310.966 468.592 312.123C464.295 313.198 460.823 314.025 460.74 313.941C460.74 313.858 464.129 312.868 468.427 311.709C472.807 310.552 476.279 309.726 476.279 309.891Z" fill="#455A64"/>
<path d="M468.181 294.438C468.181 294.519 466.694 294.933 464.792 295.264C462.891 295.595 461.32 295.759 461.32 295.676C461.32 295.595 462.809 295.181 464.709 294.85C466.611 294.519 468.181 294.355 468.181 294.438Z" fill="#455A64"/>
<path d="M410.159 299.231C410.076 299.231 409.91 297.825 409.167 295.759C408.423 293.693 406.935 290.965 404.457 288.652C401.977 286.419 399.083 285.18 396.934 284.684C394.785 284.187 393.381 284.187 393.381 284.106C393.381 284.106 393.712 284.023 394.373 284.106C395.035 284.106 395.944 284.187 397.017 284.437C399.167 284.849 402.225 286.089 404.786 288.402C407.349 290.718 408.836 293.528 409.498 295.676C409.829 296.751 409.993 297.66 410.076 298.238C410.159 298.9 410.159 299.231 410.159 299.231Z" fill="#263238"/>
<path d="M458.428 288.237C458.511 288.237 459.173 291.626 459.833 295.758C460.494 299.973 460.991 303.362 460.825 303.362C460.742 303.362 460.082 299.973 459.421 295.841C458.759 291.626 458.264 288.237 458.428 288.237Z" fill="#263238"/>
<path d="M503.554 410.063C503.554 410.063 534.713 418.659 535.953 419.155C537.853 419.816 537.522 426.675 534.63 426.594C533.225 426.511 510.744 427.42 507.852 427.255C505.042 427.089 496.445 423.7 496.445 423.7L503.554 410.063Z" fill="#FF725E"/>
<path d="M516.529 421.882C516.694 421.882 516.86 420.23 517.934 418.576C518.926 416.841 520.249 415.849 520.166 415.684C520.083 415.601 518.595 416.427 517.522 418.329C516.363 420.147 516.446 421.882 516.529 421.882Z" fill="#263238"/>
<path d="M513.306 420.394C513.47 420.394 513.801 418.99 514.627 417.336C515.453 415.684 516.446 414.608 516.363 414.444C516.281 414.361 515.041 415.353 514.215 417.088C513.223 418.823 513.14 420.394 513.306 420.394Z" fill="#263238"/>
<path d="M510.248 419.651C510.413 419.651 510.248 418.081 510.991 416.346C511.653 414.609 512.81 413.535 512.727 413.452C512.645 413.369 511.239 414.278 510.579 416.179C509.751 417.998 510.082 419.651 510.248 419.651Z" fill="#263238"/>
<path d="M510.827 415.6C510.909 415.6 511.158 414.774 511.158 413.287C511.158 412.542 511.075 411.716 510.827 410.724C510.744 410.229 510.58 409.732 510.33 409.319C510.249 409.072 510.083 408.823 509.835 408.575C509.504 408.327 509.009 408.327 508.761 408.658C508.512 408.906 508.347 409.236 508.347 409.567C508.347 409.815 508.264 410.146 508.347 410.393C508.347 410.89 508.431 411.469 508.512 411.881C508.761 412.873 509.09 413.618 509.504 414.278C510.249 415.517 510.827 416.179 510.909 416.179C510.992 416.096 510.497 415.436 509.835 414.113C509.504 413.451 509.174 412.708 509.009 411.799C508.926 411.385 508.843 410.89 508.843 410.393C508.843 409.898 508.843 409.319 509.09 409.072C509.257 408.989 509.34 408.906 509.504 409.072C509.67 409.153 509.752 409.403 509.835 409.65C510 410.146 510.166 410.559 510.33 411.055C510.58 411.964 510.661 412.79 510.744 413.451C510.827 414.691 510.744 415.6 510.827 415.6Z" fill="#263238"/>
<path d="M510.745 415.27C510.745 415.187 510 414.939 508.762 414.939C508.1 414.939 507.356 415.023 506.53 415.189C506.116 415.27 505.703 415.436 505.29 415.684C504.876 415.932 504.38 416.51 504.547 417.088C504.711 417.667 505.207 418.081 505.703 418.164C506.199 418.328 506.694 418.245 507.108 418.164C507.934 417.998 508.596 417.585 509.091 417.172C510.083 416.427 510.58 415.767 510.58 415.767C510.497 415.684 509.918 416.179 508.926 416.924C508.431 417.255 507.769 417.585 507.025 417.75C506.613 417.833 506.199 417.833 505.868 417.75C505.537 417.667 505.207 417.336 505.125 417.005C505.042 416.676 505.207 416.345 505.62 416.096C505.951 415.849 506.363 415.767 506.777 415.684C507.522 415.436 508.265 415.353 508.843 415.353C510 415.27 510.745 415.353 510.745 415.27Z" fill="#263238"/>
<path d="M521.324 422.213C521.489 422.213 521.324 420.89 521.903 419.403C522.481 417.915 523.557 417.089 523.39 417.006C523.307 416.841 522.069 417.584 521.408 419.238C520.746 420.89 521.241 422.296 521.324 422.213Z" fill="#263238"/>
<path d="M499.586 423.7C499.586 423.7 500 423.949 500.826 424.278C501.652 424.609 502.809 425.023 504.296 425.354C507.271 426.097 511.488 426.511 516.198 426.511C520.827 426.427 525.042 426.263 528.1 426.097C529.505 426.015 530.745 425.932 531.737 425.932C532.563 425.849 533.058 425.849 533.058 425.768C533.058 425.768 532.563 425.684 531.737 425.684C530.745 425.684 529.588 425.684 528.1 425.684C524.959 425.768 520.827 425.849 516.198 425.932C511.57 426.015 507.354 425.601 504.379 424.94C501.404 424.362 499.669 423.618 499.586 423.7Z" fill="#263238"/>
<path d="M498.678 424.362C498.761 424.445 499.587 423.948 500.991 423.288C502.397 422.71 504.546 421.965 506.86 422.296C509.174 422.627 510.909 424.197 511.984 425.354C513.058 426.511 513.72 427.256 513.803 427.173C513.886 427.173 513.307 426.346 512.315 425.107C511.818 424.528 511.158 423.784 510.249 423.205C509.421 422.544 508.265 422.048 507.025 421.801C504.545 421.387 502.314 422.213 500.91 422.957C499.421 423.701 498.678 424.362 498.678 424.362Z" fill="#263238"/>
<path d="M466.692 402.79C466.692 402.79 437.186 422.048 436.195 422.874C434.624 424.114 436.443 429.817 439.17 428.825C440.491 428.329 465.205 421.47 467.849 420.478C470.493 419.402 477.684 413.618 477.684 413.618L466.692 402.79Z" fill="#FF725E"/>
<path d="M457.934 418.08C458.099 418.08 457.52 416.345 455.95 414.939C454.379 413.535 452.644 413.121 452.644 413.287C452.561 413.452 454.131 414.03 455.619 415.353C457.106 416.593 457.851 418.164 457.934 418.08Z" fill="#263238"/>
<path d="M460.577 415.684C460.742 415.601 460.164 414.113 458.759 412.79C457.436 411.386 455.949 410.807 455.867 410.972C455.784 411.138 457.105 411.881 458.345 413.204C459.751 414.444 460.494 415.766 460.577 415.684Z" fill="#263238"/>
<path d="M463.222 413.947C463.389 413.947 463.222 412.295 461.901 410.724C460.661 409.154 459.007 408.658 459.007 408.823C458.924 408.989 460.33 409.651 461.487 411.055C462.727 412.46 463.139 414.03 463.222 413.947Z" fill="#263238"/>
<path d="M461.485 410.31C461.568 410.31 461.154 409.484 460.823 408.08C460.659 407.418 460.492 406.592 460.492 405.6C460.492 405.105 460.492 404.608 460.492 404.113C460.492 403.865 460.576 403.617 460.659 403.451C460.74 403.286 460.906 403.286 461.071 403.368C461.402 403.534 461.568 404.112 461.732 404.526C461.899 405.022 461.98 405.435 461.98 405.931C462.063 406.84 461.98 407.666 461.899 408.411C461.732 409.815 461.402 410.641 461.485 410.724C461.568 410.724 461.98 409.898 462.229 408.492C462.394 407.749 462.477 406.923 462.394 405.931C462.394 405.435 462.228 404.939 462.146 404.443C462.063 404.196 461.98 403.948 461.899 403.699C461.815 403.451 461.568 403.12 461.237 402.956C460.906 402.79 460.411 402.873 460.162 403.203C459.997 403.534 459.914 403.782 459.914 404.113C459.914 404.608 459.914 405.186 459.914 405.6C459.997 406.592 460.162 407.418 460.411 408.08C460.906 409.567 461.485 410.31 461.485 410.31Z" fill="#263238"/>
<path d="M461.485 409.98C461.485 410.063 462.23 409.732 463.387 409.401C463.965 409.237 464.708 409.154 465.536 409.154C465.948 409.154 466.362 409.154 466.774 409.237C467.188 409.32 467.436 409.567 467.519 409.898C467.519 410.229 467.354 410.641 467.023 410.807C466.693 411.055 466.279 411.138 465.948 411.138C465.205 411.22 464.461 411.055 463.882 410.889C462.725 410.56 461.981 410.229 461.981 410.311C461.981 410.394 462.642 410.807 463.799 411.22C464.378 411.469 465.122 411.633 466.031 411.55C466.445 411.55 466.94 411.386 467.354 411.138C467.766 410.889 468.097 410.31 468.097 409.732C468.097 409.071 467.436 408.658 467.023 408.575C466.527 408.492 466.114 408.492 465.701 408.492C464.874 408.575 464.13 408.741 463.551 408.906C462.064 409.484 461.402 409.898 461.485 409.98Z" fill="#263238"/>
<path d="M442.889 427.75C442.889 427.833 443.386 427.42 443.634 426.594C443.881 425.766 443.717 424.528 443.055 423.369C442.724 422.791 442.394 422.295 442.063 421.882C441.732 421.469 441.401 421.056 441.071 420.808C440.741 420.56 440.411 420.394 440.161 420.394C439.914 420.394 439.749 420.477 439.832 420.477C439.832 420.56 440.328 420.56 440.906 421.056C441.154 421.303 441.484 421.717 441.732 422.129C442.063 422.543 442.394 423.038 442.641 423.535C443.22 424.609 443.386 425.684 443.303 426.427C443.138 427.255 442.889 427.667 442.889 427.75Z" fill="#263238"/>
<path d="M453.469 419.816C453.635 419.816 453.552 418.328 452.395 417.005C451.238 415.684 449.834 415.353 449.834 415.518C449.751 415.684 450.991 416.179 452.065 417.336C453.057 418.576 453.388 419.816 453.469 419.816Z" fill="#263238"/>
<path d="M474.629 414.609C474.629 414.609 474.132 414.94 473.306 415.518C472.48 416.096 471.24 416.924 469.669 417.75C468.099 418.576 466.116 419.485 463.884 420.311C461.651 421.139 459.173 421.965 456.527 422.708C451.238 424.197 446.445 425.602 442.973 426.676C441.321 427.172 439.915 427.585 438.841 427.915C437.849 428.246 437.354 428.412 437.354 428.412C437.354 428.412 437.932 428.329 438.924 428.082C439.998 427.832 441.402 427.42 443.056 427.006C446.527 426.016 451.322 424.693 456.693 423.205C459.338 422.461 461.818 421.634 464.131 420.808C466.363 419.981 468.346 418.99 469.917 418.081C471.488 417.172 472.727 416.344 473.47 415.684C474.298 415.023 474.629 414.609 474.629 414.609Z" fill="#263238"/>
<path d="M475.701 415.022C475.701 414.939 474.791 414.608 473.221 414.361C471.65 414.113 469.336 413.948 467.023 415.105C465.866 415.684 465.038 416.51 464.377 417.419C463.717 418.245 463.303 419.154 462.972 419.899C462.311 421.386 462.063 422.295 462.146 422.378C462.229 422.378 462.642 421.469 463.303 420.063C463.965 418.659 465.121 416.676 467.271 415.6C469.42 414.527 471.65 414.608 473.221 414.774C474.791 414.857 475.701 415.105 475.701 415.022Z" fill="#263238"/>
<path d="M527.935 354.522C527.935 354.522 536.779 357.664 536.779 367.581C536.862 386.59 498.43 407.501 498.43 407.501L447.27 373.615L444.047 372.292C444.128 372.375 513.141 346.423 527.935 354.522Z" fill="#263238"/>
<path d="M473.221 390.723C473.221 390.723 473.716 390.392 474.544 389.814C475.37 389.235 476.61 388.326 478.014 387.169C480.908 384.937 484.957 381.715 489.255 377.995C493.553 374.277 497.354 370.888 500 368.325C501.321 367.085 502.397 366.011 503.14 365.267C503.884 364.524 504.297 364.11 504.215 364.11C504.215 364.11 503.718 364.441 502.975 365.102C502.147 365.847 501.074 366.837 499.751 368.077C497.023 370.557 493.222 373.946 488.924 377.664C484.626 381.301 480.742 384.608 477.85 386.922C476.444 388.079 475.287 388.988 474.461 389.732C473.635 390.311 473.221 390.723 473.221 390.723Z" fill="#455A64"/>
<path d="M513.555 361.632C513.555 361.466 511.323 361.301 508.595 362.044C505.951 362.788 504.133 364.276 504.216 364.359C504.297 364.524 506.199 363.284 508.761 362.541C511.323 361.796 513.555 361.796 513.555 361.632Z" fill="#455A64"/>
<path d="M509.092 358.655C509.01 358.574 507.44 359.235 506.035 360.97C504.712 362.622 504.298 364.359 504.464 364.441C504.629 364.524 505.207 362.872 506.447 361.301C507.77 359.647 509.175 358.821 509.092 358.655Z" fill="#455A64"/>
<path d="M530.745 418.742C530.745 418.659 530.166 418.576 529.422 419.154C528.76 419.733 528.1 420.808 527.934 422.129C527.77 423.452 528.017 424.609 528.431 425.437C528.76 426.18 529.174 426.594 529.257 426.511C529.34 426.427 529.01 426.015 528.76 425.271C528.513 424.528 528.265 423.369 528.431 422.212C528.596 421.056 529.091 419.982 529.669 419.485C530.249 418.907 530.828 418.824 530.745 418.742Z" fill="#263238"/>
<path d="M524.3 327.579L509.754 366.756C508.928 368.986 506.779 370.474 504.382 370.474L424.295 369.4V363.284L454.049 364.359L466.694 325.265C467.107 323.942 468.347 323.033 469.753 323.033L521.408 323.199C523.639 323.199 525.126 325.513 524.3 327.579Z" fill="#E0E0E0"/>
<path d="M524.298 327.579V327.496C524.298 327.415 524.381 327.332 524.381 327.167C524.465 326.836 524.546 326.339 524.381 325.678C524.215 325.018 523.803 324.273 522.977 323.778C522.563 323.53 522.068 323.364 521.488 323.281C520.909 323.281 520.331 323.281 519.671 323.281C514.628 323.281 507.272 323.281 498.099 323.281C493.47 323.281 488.429 323.281 482.974 323.281C480.247 323.281 477.436 323.281 474.461 323.281C472.974 323.281 471.486 323.281 469.998 323.281C469.254 323.281 468.511 323.364 467.849 323.778C467.188 324.19 466.774 324.769 466.526 325.513C462.725 337.332 458.51 350.473 453.964 364.607V364.688H453.881C444.378 364.358 434.458 363.945 424.127 363.615L424.293 363.45C424.293 363.779 424.293 364.193 424.293 364.524C424.293 366.259 424.293 367.913 424.293 369.483L424.127 369.317C442.062 369.565 459.089 369.812 474.461 369.979C482.148 370.062 489.503 370.143 496.364 370.309C498.099 370.309 499.751 370.392 501.405 370.392C502.231 370.392 503.057 370.392 503.885 370.392C504.711 370.392 505.455 370.309 506.198 370.062C507.686 369.483 508.843 368.325 509.421 367.003C509.918 365.597 510.497 364.193 510.992 362.788C515.042 351.879 518.348 343.118 520.579 337.001C521.737 333.943 522.563 331.63 523.225 330.059C523.968 328.405 524.298 327.579 524.298 327.579C524.298 327.579 523.968 328.405 523.389 330.059C522.811 331.63 521.902 334.026 520.828 337.085C518.596 343.199 515.29 351.96 511.323 362.87C510.827 364.193 510.33 365.597 509.752 367.085C509.174 368.491 507.934 369.731 506.446 370.309C505.703 370.557 504.875 370.722 504.049 370.64C503.223 370.64 502.397 370.64 501.57 370.64C499.917 370.64 498.264 370.557 496.528 370.557C489.669 370.474 482.313 370.392 474.626 370.309C459.172 370.143 442.145 369.896 424.293 369.648H424.127V369.483C424.127 367.913 424.127 366.176 424.127 364.524C424.127 364.11 424.127 363.779 424.127 363.45V363.284H424.293C434.541 363.698 444.542 364.028 454.047 364.359L453.881 364.441C458.427 350.391 462.642 337.249 466.526 325.43C466.774 324.687 467.271 324.026 467.932 323.612C468.592 323.2 469.42 323.033 470.163 323.116C471.651 323.116 473.138 323.116 474.626 323.116C477.519 323.116 480.411 323.116 483.139 323.116C488.594 323.116 493.636 323.116 498.264 323.2C507.438 323.281 514.795 323.281 519.836 323.281C520.497 323.281 521.076 323.281 521.654 323.281C522.232 323.281 522.728 323.53 523.142 323.778C523.968 324.273 524.381 325.099 524.546 325.678C524.712 326.339 524.629 326.836 524.546 327.167C524.381 327.415 524.298 327.579 524.298 327.579Z" fill="#263238"/>
<path d="M488.761 342.373C489.835 341.63 491.737 341.961 492.646 342.787C493.555 343.613 493.886 345.101 493.389 346.257C492.893 347.416 491.736 348.242 490.497 348.325C489.174 348.407 487.769 347.58 487.438 346.257C487.026 345.019 487.438 343.035 488.761 342.373Z" fill="white"/>
<path d="M507.11 409.65C507.11 409.65 434.958 363.45 431.733 361.631C429.006 360.061 421.733 355.598 414.625 357.581C407.435 359.564 401.071 365.928 397.847 375.35C396.029 380.722 395.119 389.814 394.707 396.675C394.21 404.857 396.773 413.039 402.145 419.237C404.542 422.048 407.6 424.528 411.153 425.601C411.898 425.849 412.724 426.015 413.469 426.18C427.106 429.155 441.155 423.038 448.842 411.303L450.495 408.741C450.495 408.741 497.771 426.097 498.514 425.849L507.11 409.65Z" fill="#263238"/>
<path d="M435.451 364.193C435.451 364.193 435.368 364.193 435.286 364.11C435.12 364.028 434.955 363.945 434.789 363.779C434.377 363.45 433.715 363.036 432.806 362.458C431.071 361.382 428.591 359.813 425.119 358.573C423.384 357.995 421.483 357.498 419.333 357.333C417.184 357.25 414.954 357.581 412.722 358.407C410.491 359.233 408.342 360.556 406.358 362.291C405.367 363.119 404.375 364.11 403.549 365.102C402.64 366.094 401.895 367.251 401.234 368.408C399.829 370.805 398.837 373.367 398.094 375.847C397.432 378.325 396.854 380.888 396.357 383.202C395.366 387.914 394.788 392.21 394.705 395.847C394.622 399.484 395.036 402.46 395.366 404.443C395.531 405.435 395.696 406.262 395.779 406.757C395.862 407.006 395.862 407.171 395.862 407.335C395.862 407.501 395.862 407.501 395.862 407.585C395.862 407.585 395.862 407.501 395.779 407.418C395.696 407.254 395.696 407.088 395.614 406.84C395.448 406.345 395.283 405.517 395.117 404.526C394.705 402.542 394.291 399.567 394.291 395.93C394.291 392.294 394.869 387.914 395.862 383.202C396.357 380.805 396.935 378.409 397.597 375.847C398.341 373.284 399.332 370.723 400.738 368.325C401.4 367.086 402.226 365.928 403.135 364.937C404.044 363.945 405.036 362.953 406.027 362.127C408.011 360.392 410.242 359.069 412.557 358.243C414.871 357.417 417.184 357.086 419.333 357.167C421.483 357.333 423.467 357.829 425.202 358.49C428.673 359.813 431.152 361.382 432.888 362.541C433.715 363.119 434.377 363.614 434.789 363.945C434.955 364.11 435.12 364.193 435.286 364.359C435.451 364.11 435.451 364.193 435.451 364.193Z" fill="#455A64"/>
<path d="M417.682 396.592C417.682 396.592 417.846 396.675 418.094 396.757C418.343 396.84 418.755 397.006 419.252 397.254C420.326 397.666 421.897 398.244 423.798 398.989C427.847 400.476 433.633 402.709 440.823 405.436C448.096 408.163 456.692 411.303 466.445 414.857C476.197 418.412 486.942 422.296 498.43 426.18L498.678 426.263L498.761 426.097C500.579 422.627 502.479 418.99 504.38 415.354C505.373 413.452 506.365 411.634 507.274 409.816L507.356 409.568L507.191 409.403C485.454 395.6 466.114 383.286 452.063 374.442C445.038 370.062 439.418 366.507 435.534 364.029C433.633 362.789 432.062 361.88 431.071 361.218C432.145 361.88 433.633 362.87 435.534 364.11C439.418 366.59 445.038 370.227 451.98 374.689C465.948 383.616 485.371 396.014 507.025 409.816L506.943 409.485C506.034 411.222 505.042 413.122 504.05 415.023C502.148 418.743 500.248 422.379 498.43 425.767L498.761 425.602C487.273 421.718 476.444 417.833 466.774 414.361C457.023 410.808 448.344 407.667 441.153 405.022C433.963 402.378 428.095 400.229 424.046 398.741C422.061 397.997 420.492 397.418 419.417 397.088C418.922 396.923 418.508 396.757 418.177 396.675C417.846 396.675 417.682 396.592 417.682 396.592Z" fill="#455A64"/>
<path d="M421.401 243.194C420.162 240.714 418.839 238.236 418.178 235.509C417.517 232.781 417.435 229.888 418.592 227.326C419.253 225.838 420.327 224.516 420.822 223.028C421.567 220.879 421.236 218.4 422.559 216.581C424.625 213.771 429.005 214.433 432.146 212.945C434.626 211.788 436.361 209.308 438.924 208.482C441.154 207.738 443.634 208.482 445.866 209.391C448.014 210.3 450.163 211.54 452.56 211.788C454.213 212.036 455.949 211.788 457.602 211.788C459.338 211.788 461.073 212.201 462.313 213.441C463.47 214.681 463.719 216.829 462.479 217.987C465.454 217.491 468.263 220.466 468.181 223.441C468.181 226.417 465.866 229.062 463.139 230.385C460.411 231.623 457.272 231.706 454.296 231.458C445.783 230.797 437.27 227.574 431.485 221.292" fill="#FF725E"/>
<path d="M423.301 232.615L417.516 274.6C416.525 281.709 421.731 288.238 428.922 288.899C435.616 289.478 441.65 284.684 442.56 277.989C442.972 274.848 443.386 272.204 443.386 271.873C443.386 271.873 454.212 272.37 456.445 261.872C457.518 256.831 458.923 246.169 459.998 236.582C461.238 226.251 454.295 216.746 444.047 214.68L443.055 214.515C431.98 212.944 424.541 221.54 423.301 232.615Z" fill="#FFBE9D"/>
<path d="M443.384 271.791C443.384 271.791 436.607 270.964 430.49 265.18C430.49 265.18 432.227 273.361 442.888 274.519L443.384 271.791Z" fill="#EB996E"/>
<path d="M455.286 245.508C455.122 246.334 454.379 246.831 453.551 246.748C452.725 246.665 452.147 245.922 452.311 245.096C452.477 244.268 453.22 243.773 454.048 243.856C454.874 244.02 455.453 244.765 455.286 245.508Z" fill="#263238"/>
<path d="M456.694 241.293C456.447 241.459 455.538 240.383 453.884 240.053C452.313 239.722 450.909 240.3 450.826 240.053C450.744 239.971 450.992 239.64 451.57 239.393C452.149 239.144 453.058 238.896 454.132 239.144C455.124 239.31 455.95 239.888 456.281 240.383C456.694 240.88 456.859 241.21 456.694 241.293Z" fill="#263238"/>
<path d="M440.245 242.946C440.081 243.772 439.336 244.268 438.51 244.186C437.684 244.103 437.106 243.359 437.27 242.533C437.435 241.707 438.179 241.21 439.005 241.293C439.75 241.376 440.328 242.119 440.245 242.946Z" fill="#263238"/>
<path d="M440.74 238.483C440.491 238.648 439.581 237.574 437.929 237.243C436.359 236.913 434.954 237.491 434.871 237.243C434.788 237.16 435.036 236.83 435.616 236.582C436.194 236.334 437.103 236.085 438.177 236.334C439.169 236.582 439.912 237.077 440.326 237.574C440.821 237.986 440.904 238.4 440.74 238.483Z" fill="#263238"/>
<path d="M444.213 251.624C444.213 251.541 445.288 251.541 446.94 251.707C447.354 251.707 447.766 251.707 447.933 251.459C448.097 251.212 448.014 250.715 447.933 250.22C447.766 249.144 447.519 247.987 447.354 246.831C446.527 242.037 446.031 238.07 446.279 238.07C446.445 238.07 447.271 241.871 448.097 246.748C448.263 247.904 448.428 249.063 448.594 250.136C448.676 250.632 448.842 251.212 448.511 251.79C448.345 252.038 448.014 252.202 447.685 252.286C447.436 252.286 447.188 252.286 446.94 252.202C445.288 251.872 444.213 251.707 444.213 251.624Z" fill="#263238"/>
<path d="M439.251 251.79C439.5 251.79 439.169 253.608 440.409 255.096C441.649 256.666 443.549 256.831 443.549 257.079C443.549 257.162 443.054 257.326 442.309 257.162C441.566 256.996 440.491 256.583 439.665 255.591C438.922 254.682 438.672 253.525 438.756 252.781C438.839 252.121 439.169 251.707 439.251 251.79Z" fill="#263238"/>
<path d="M442.475 232.201C442.227 232.615 440.657 232.12 438.755 231.954C436.854 231.789 435.202 232.037 435.036 231.541C434.954 231.292 435.285 230.963 436.028 230.632C436.689 230.302 437.763 230.135 438.921 230.218C440.078 230.302 441.069 230.714 441.73 231.128C442.309 231.623 442.558 232.037 442.475 232.201Z" fill="#FF725E"/>
<path d="M457.023 236.499C456.693 236.829 455.617 236.168 454.296 235.92C452.973 235.59 451.816 235.673 451.568 235.259C451.485 235.011 451.733 234.68 452.311 234.433C452.89 234.185 453.717 234.102 454.627 234.268C455.536 234.516 456.279 235.011 456.693 235.425C457.105 235.92 457.188 236.334 457.023 236.499Z" fill="#FF725E"/>
<path d="M422.56 240.55C422.394 240.467 415.782 236.997 414.542 244.187C413.302 251.377 420.823 251.129 420.906 250.965C420.989 250.715 422.56 240.55 422.56 240.55Z" fill="#FFBE9D"/>
<path d="M419.168 247.823C419.168 247.823 419.002 247.904 418.837 247.988C418.589 248.071 418.259 248.071 417.928 247.823C417.183 247.409 416.771 246.088 416.936 244.765C417.019 244.103 417.266 243.525 417.597 243.03C417.928 242.533 418.342 242.202 418.672 242.202C419.085 242.202 419.332 242.451 419.332 242.699C419.415 242.946 419.332 243.03 419.332 243.111C419.332 243.111 419.499 243.03 419.499 242.699C419.499 242.533 419.416 242.368 419.251 242.202C419.085 242.037 418.837 241.954 418.589 241.871C418.011 241.79 417.433 242.285 417.102 242.78C416.688 243.277 416.44 244.02 416.357 244.765C416.193 246.252 416.688 247.74 417.68 248.154C418.176 248.401 418.589 248.318 418.837 248.154C419.085 247.988 419.168 247.823 419.168 247.823Z" fill="#EB996E"/>
<path d="M462.064 226.829C460.824 229.475 454.46 230.549 449.75 229.144C445.452 227.821 443.881 225.094 441.154 222.697C439.419 221.21 439.418 221.21 436.608 220.879C434.294 220.631 432.476 222.945 430.741 224.433C431.731 230.218 429.17 235.839 426.69 241.128C426.443 241.706 426.112 242.368 425.534 242.616C424.541 243.112 423.384 242.368 422.806 241.376C421.897 239.888 421.731 238.07 421.814 236.335C421.897 232.367 422.558 228.317 424.211 224.681C425.864 221.044 428.426 217.738 431.731 215.59C435.947 212.945 441.237 212.118 446.113 213.193C450.99 214.267 455.369 216.995 458.758 220.796C460.246 222.615 461.569 224.598 462.064 226.829Z" fill="#FF725E"/>
<path d="M447.355 244.351C447.437 244.351 447.355 243.691 447.686 242.699C447.934 241.623 448.677 240.136 450.248 238.979C451.735 237.822 454.215 237.161 456.612 238.07C457.768 238.484 458.925 239.31 459.753 240.384C460.579 241.459 461.074 242.863 461.074 244.351C461.074 245.838 460.579 247.244 459.753 248.318C458.925 249.394 457.851 250.22 456.612 250.633C454.215 251.543 451.735 250.881 450.248 249.724C448.677 248.566 447.934 247.078 447.686 246.005C447.437 244.929 447.437 244.351 447.355 244.351C447.355 244.351 447.355 244.517 447.355 244.765C447.355 245.095 447.355 245.509 447.52 246.088C447.768 247.161 448.429 248.815 450.083 250.053C451.652 251.293 454.298 252.121 456.942 251.129C458.265 250.715 459.422 249.806 460.331 248.649C461.24 247.492 461.736 245.921 461.736 244.351C461.736 242.782 461.24 241.211 460.331 240.054C459.422 238.814 458.265 237.987 456.942 237.575C454.298 236.665 451.652 237.408 450.083 238.648C448.429 239.888 447.768 241.542 447.52 242.616C447.437 243.194 447.355 243.608 447.355 243.939C447.355 244.186 447.355 244.351 447.355 244.351Z" fill="#263238"/>
<path d="M430.245 241.294C430.328 241.294 430.245 240.633 430.575 239.641C430.823 238.567 431.568 237.078 433.138 235.921C434.626 234.764 437.106 234.103 439.502 235.012C440.659 235.426 441.816 236.252 442.642 237.327C443.47 238.401 443.965 239.805 443.965 241.294C443.965 242.782 443.47 244.186 442.642 245.26C441.816 246.335 440.742 247.161 439.502 247.575C437.106 248.484 434.626 247.823 433.138 246.666C431.568 245.509 430.823 244.022 430.575 242.946C430.245 241.954 430.245 241.294 430.245 241.294C430.245 241.294 430.245 241.459 430.245 241.707C430.245 242.037 430.245 242.451 430.411 243.03C430.659 244.103 431.32 245.757 432.972 246.997C434.543 248.237 437.187 249.063 439.833 248.071C441.155 247.657 442.311 246.748 443.221 245.591C444.13 244.434 444.627 242.863 444.627 241.294C444.627 239.724 444.13 238.153 443.221 236.996C442.311 235.756 441.155 234.93 439.833 234.516C437.187 233.607 434.543 234.35 432.972 235.59C431.32 236.83 430.659 238.484 430.411 239.558C430.328 240.136 430.245 240.55 430.245 240.88C430.163 241.211 430.163 241.294 430.245 241.294Z" fill="#263238"/>
<path d="M444.376 241.542C444.458 241.707 445.367 241.293 446.442 241.623C447.516 241.954 448.011 242.782 448.178 242.699C448.261 242.699 448.178 242.368 447.93 242.037C447.682 241.707 447.185 241.211 446.524 241.045C445.864 240.88 445.202 240.964 444.872 241.128C444.458 241.293 444.293 241.542 444.376 241.542Z" fill="#263238"/>
<path d="M420.492 239.476C420.492 239.641 422.806 239.724 425.616 239.724C428.425 239.724 430.741 239.558 430.741 239.393C430.741 239.227 428.425 239.146 425.616 239.146C422.806 239.146 420.492 239.31 420.492 239.476Z" fill="#263238"/>
<path d="M465.454 219.97C465.454 219.97 465.454 220.218 465.371 220.631C465.207 221.045 464.876 221.623 464.297 222.202C463.719 222.698 462.727 223.111 461.735 223.276C460.661 223.441 459.502 223.276 458.264 223.111C455.867 222.78 453.718 222.284 452.148 221.871C451.403 221.706 450.742 221.458 450.329 221.375C450.163 221.293 449.999 221.293 449.833 221.21C449.751 221.21 449.668 221.127 449.668 221.127C449.668 221.127 449.751 221.127 449.833 221.127C449.999 221.127 450.163 221.21 450.329 221.293C450.825 221.458 451.486 221.541 452.148 221.789C453.718 222.202 455.867 222.615 458.264 222.946C459.502 223.111 460.661 223.276 461.652 223.111C462.727 223.028 463.553 222.615 464.214 222.119C464.793 221.623 465.207 221.045 465.288 220.631C465.454 220.218 465.454 219.97 465.454 219.97Z" fill="white"/>
<path d="M467.025 221.623C467.025 221.623 466.941 222.449 466.446 223.607C465.949 224.764 464.792 226.251 463.139 227.326C461.403 228.317 459.585 228.566 458.345 228.483C457.024 228.4 456.279 228.069 456.279 228.069C456.279 228.069 456.445 228.069 456.858 228.152C457.188 228.235 457.685 228.317 458.345 228.317C459.585 228.4 461.403 228.069 463.057 227.079C464.709 226.086 465.785 224.598 466.363 223.441C466.611 222.863 466.858 222.367 466.941 222.036C467.025 221.788 467.025 221.623 467.025 221.623Z" fill="white"/>
</g>
<defs>
<linearGradient id="paint0_linear_1631_42570" x1="313.006" y1="0.673828" x2="313.006" y2="500.674" gradientUnits="userSpaceOnUse">
<stop stop-color="#0160E7"/>
<stop offset="1" stop-color="#013681"/>
</linearGradient>
</defs>
</svg>
