<svg width="625" height="501" viewBox="0 0 625 501" fill="none" xmlns="http://www.w3.org/2000/svg">
<g clip-path="url(#clip0_214_175)">
<path opacity="0.1" d="M4.51134 224.612C-14.3153 150.605 40.1129 115.741 69.6804 107.56C93.8164 101.896 164.897 81.8836 256.134 47.1455C347.371 12.4074 428.108 4.9815 457.072 5.61081C649.683 -33.6584 637.494 180.56 607.322 292.578C546.499 529.704 321.303 515.984 216.309 479.484C68.5924 453.808 13.562 298.871 4.51134 224.612Z" fill="url(#paint0_linear_214_175)"/>
<path d="M471.98 433.109H465.111V438.156H471.98V433.109Z" fill="#E89889"/>
<path d="M452.547 264.051C451.712 264.164 449.976 264.186 449.707 263.379C449.371 262.37 451.314 261.996 452.547 264.051Z" fill="#E2988D"/>
<path d="M440.019 294.116C439.572 294.452 437.039 293.977 435.828 293.697C436.944 284.85 438.803 281.536 439.786 280.802C439.854 280.709 439.931 280.662 440.019 280.668C439.949 280.695 439.871 280.739 439.786 280.802C438.968 281.934 439.575 289.944 440.019 294.116Z" fill="#149FFD"/>
<path d="M449.472 437.17V429.802H442.779V437.17H449.472Z" fill="#E89889"/>
<path d="M450.514 375.371L450.033 430.911H441.814L438.967 406.557L437.691 388.58C436.159 386.282 436.485 368.191 436.84 359.432C436.308 350.709 437.159 343.901 438.01 338.571C438.691 334.307 438.861 327.724 438.861 324.966C443.712 326.838 463.244 325.272 472.404 324.255C471.4 324.939 473.408 330.67 473.408 338.571V357.35V433.342H464.619C463.766 429.791 462.488 412.035 461.955 403.601C460.961 398.629 460.539 389.218 460.452 385.134V384.533C458.913 379.913 458.052 366.951 457.815 361.047C456.706 356.315 456.429 349.957 456.429 347.37C455.394 341.234 453.656 351.467 452.917 357.35C451.734 358.755 450.822 369.949 450.514 375.371Z" fill="#0146A4"/>
<path d="M146.705 437.117V433.17C145.905 430.523 154.798 432.671 154.198 432.721C153.719 432.761 153.998 435.668 154.198 437.117H146.705Z" fill="#E39885"/>
<path d="M304.806 52.7911C261.977 58.2526 241.21 75.1874 236.179 82.9722C187.901 126.862 154.237 190.423 143.44 216.717C84.6065 245.533 94.9832 292.912 107.526 313C121.401 353.55 167.555 364.052 188.897 364.234C294.359 373.905 373.686 334.108 400.167 313C556.172 254.858 552.004 190.762 532.961 167.048C513.918 143.334 476.91 114.231 414.033 79.3792C363.731 51.4976 320.255 50.0365 304.806 52.7911Z" fill="#D3EEFF"/>
<rect x="327.238" y="48.839" width="3.98004" height="2.47031" fill="#A8DEFA"/>
<rect x="336.312" y="48.839" width="8.59239" height="2.47031" fill="#A8DEFA"/>
<rect x="352.387" y="48.839" width="42.8727" height="2.47031" fill="#EAF4FD"/>
<rect x="433.574" y="59.2408" width="42.8727" height="2.47031" fill="#EAF4FD"/>
<rect x="427.406" y="78.0831" width="50.5328" height="2.47031" fill="#EAF4FD"/>
<rect x="427.406" y="86.5236" width="50.5328" height="2.47031" fill="#B3E3FF"/>
<rect x="427.729" y="106.092" width="50.5328" height="2.47031" fill="#B3E3FF"/>
<rect x="327.238" y="59.2408" width="3.98004" height="2.47031" fill="#A8DEFA"/>
<rect x="327.238" y="67.681" width="3.98004" height="2.47031" fill="#A8DEFA"/>
<rect x="327.238" y="78.0831" width="3.98004" height="2.47031" fill="#A8DEFA"/>
<rect x="327.238" y="86.5236" width="3.98004" height="2.47031" fill="#A8DEFA"/>
<rect x="327.561" y="106.092" width="3.98004" height="2.47031" fill="#A8DEFA"/>
<rect x="327.561" y="96.9258" width="3.98004" height="2.47031" fill="#A8DEFA"/>
<rect x="378.293" y="78.0831" width="9.16593" height="2.47031" fill="#A8DEFA"/>
<rect x="378.293" y="86.5236" width="9.16593" height="2.47031" fill="#A8DEFA"/>
<rect x="378.616" y="106.092" width="9.16593" height="2.47031" fill="#A8DEFA"/>
<rect x="442.938" y="96.9258" width="9.16593" height="2.47031" fill="#A8DEFA"/>
<rect x="378.616" y="96.9258" width="9.16593" height="2.47031" fill="#DEF0FE"/>
<rect x="398.042" y="78.0831" width="22.5458" height="2.47031" fill="#A8DEFA"/>
<rect x="398.042" y="86.5236" width="22.5458" height="2.47031" fill="#DEF0FE"/>
<rect x="398.365" y="106.092" width="22.5458" height="2.47031" fill="#DEF0FE"/>
<rect x="398.365" y="96.9258" width="37.1739" height="2.47031" fill="#B3E3FF"/>
<rect x="338.618" y="78.0831" width="35.6178" height="2.47031" fill="#DEF0FE"/>
<rect x="338.618" y="86.5236" width="35.6178" height="2.47031" fill="#B3E3FF"/>
<rect x="338.941" y="106.092" width="35.6178" height="2.47031" fill="#B3E3FF"/>
<rect x="338.941" y="96.9258" width="35.6178" height="2.47031" fill="#B3E3FF"/>
<rect x="336.312" y="67.681" width="70.8955" height="2.47031" fill="#B3E3FF"/>
<rect x="366.833" y="59.2408" width="11.4602" height="2.47031" fill="#A8DEFA"/>
<rect x="383.8" y="58.0057" width="40.8365" height="2.47031" fill="#DEF0FE"/>
<rect x="413.156" y="67.681" width="50.4263" height="2.47031" fill="#DEF0FE"/>
<ellipse cx="303.017" cy="429.405" rx="119.347" ry="13.6181" fill="#D3F2FF"/>
<rect x="207.066" y="80.5535" width="194.966" height="345.193" rx="10" fill="white"/>
<rect x="218.614" y="101.896" width="171.537" height="295.413" fill="url(#paint1_linear_214_175)" stroke="url(#paint2_linear_214_175)" stroke-width="5"/>
<rect x="225.751" y="353.087" width="158.097" height="39.053" rx="1" fill="#ACA1FE"/>
<rect x="238.796" y="362.443" width="17.7276" height="17.7276" fill="#8679FF"/>
<rect x="275.465" y="362.443" width="17.7276" height="17.7276" fill="#8679FF"/>
<rect x="312.133" y="362.443" width="17.7276" height="17.7276" fill="#8679FF"/>
<rect x="348.802" y="362.443" width="17.7276" height="17.7276" fill="#8679FF"/>
<rect x="229.288" y="271.353" width="65.7199" height="65.7198" rx="2" fill="#6E5EFF"/>
<rect x="314.453" y="271.353" width="65.7199" height="65.7198" rx="2" fill="#0045A1"/>
<rect x="326.814" y="323.25" width="40.9975" height="3.07074" fill="#937AFA"/>
<rect width="150.885" height="24.985" rx="2" transform="matrix(-1 0 0 1 380.173 230.899)" fill="#705EFF"/>
<rect x="298.413" y="406.792" width="12.273" height="12.273" rx="1" fill="#C3E9F8"/>
<rect x="299.436" y="407.815" width="10.2275" height="10.2275" rx="1" fill="#F0F9FF"/>
<ellipse cx="131.322" cy="447.953" rx="48.3118" ry="4.14467" fill="#D5F1FF"/>
<ellipse cx="446.126" cy="447.461" rx="48.3118" ry="4.14467" fill="#D5F1FF"/>
<rect x="149.448" y="78.1328" width="25.6447" height="22.2361" rx="1" fill="#D3EDFE"/>
<path d="M152.463 91.2212V89.6871L158.6 86.985V88.7501L154.398 90.4368L154.455 90.3452V90.5631L154.398 90.4716L158.6 92.1583V93.9234L152.463 91.2212Z" fill="white"/>
<path d="M164.331 84.6794L161.454 95.366H159.855L162.731 84.6794H164.331Z" fill="white"/>
<path d="M171.724 91.2212L165.587 93.9234V92.1583L169.788 90.4716L169.732 90.5631V90.3452L169.788 90.4368L165.587 88.7501V86.985L171.724 89.6871V91.2212Z" fill="white"/>
<rect x="472.221" y="164.42" width="25.6447" height="22.2361" rx="1" fill="#A8DEFF"/>
<path d="M475.237 177.508V175.974L481.374 173.272V175.037L477.172 176.724L477.229 176.632V176.85L477.172 176.759L481.374 178.445V180.21L475.237 177.508Z" fill="white"/>
<path d="M487.105 170.967L484.228 181.653H482.629L485.505 170.967H487.105Z" fill="white"/>
<path d="M494.497 177.508L488.361 180.21V178.445L492.562 176.759L492.506 176.85V176.632L492.562 176.724L488.361 175.037V173.272L494.497 175.974V177.508Z" fill="white"/>
<path d="M304.73 128.87C304.73 126.108 306.969 123.87 309.73 123.87H432.867C435.628 123.87 437.867 126.108 437.867 128.87V213.72H309.73C306.969 213.72 304.73 211.482 304.73 208.72V128.87Z" fill="white"/>
<path d="M304.73 128.87C304.73 126.108 306.969 123.87 309.73 123.87H432.867C435.628 123.87 437.867 126.108 437.867 128.87V137.716H304.73V128.87Z" fill="#2D4294"/>
<ellipse cx="315.578" cy="131.36" rx="2.38641" ry="2.38641" fill="#F6F7EF"/>
<ellipse cx="325.777" cy="131.36" rx="2.38641" ry="2.38641" fill="#F6F7EF"/>
<ellipse cx="336.005" cy="131.36" rx="2.38641" ry="2.38641" fill="#F6F7EF"/>
<path d="M371.298 173.364C373.822 173.364 375.868 171.318 375.868 168.795C375.868 166.271 373.822 164.226 371.298 164.226C368.775 164.226 366.729 166.271 366.729 168.795C366.729 171.318 368.775 173.364 371.298 173.364Z" fill="#61DAFB"/>
<path d="M388.653 161.26C387.771 160.939 386.85 160.619 385.888 160.338C386.128 159.376 386.329 158.414 386.489 157.492C387.331 152.202 386.409 148.474 383.844 147.031C383.082 146.59 382.24 146.39 381.278 146.39C378.473 146.39 374.906 148.474 371.298 151.961C367.691 148.474 364.124 146.39 361.319 146.39C360.357 146.39 359.515 146.59 358.753 147.031C356.188 148.514 355.266 152.242 356.108 157.492C356.268 158.414 356.469 159.376 356.709 160.338C355.747 160.619 354.826 160.899 353.944 161.26C348.934 163.184 346.208 165.829 346.208 168.795C346.208 171.761 348.974 174.406 353.944 176.33C354.826 176.651 355.747 176.971 356.709 177.252C356.469 178.214 356.268 179.176 356.108 180.097C355.266 185.388 356.188 189.116 358.753 190.558C359.515 190.999 360.357 191.2 361.319 191.2C364.164 191.2 367.731 189.116 371.298 185.629C374.906 189.116 378.473 191.2 381.278 191.2C382.24 191.2 383.082 190.999 383.844 190.558C386.409 189.075 387.331 185.348 386.489 180.097C386.329 179.176 386.128 178.214 385.888 177.252C386.85 176.971 387.771 176.691 388.653 176.33C393.663 174.406 396.389 171.761 396.389 168.795C396.389 165.829 393.663 163.184 388.653 161.26ZM382.721 149.035C384.365 149.997 384.926 152.963 384.244 157.172C384.124 158.013 383.924 158.895 383.683 159.817C381.599 159.336 379.395 159.015 377.07 158.815C375.707 156.891 374.305 155.168 372.902 153.604C375.868 150.679 378.874 148.675 381.319 148.675C381.84 148.675 382.321 148.795 382.721 149.035ZM378.232 172.803C377.511 174.085 376.669 175.368 375.787 176.651C374.305 176.771 372.822 176.811 371.298 176.811C369.735 176.811 368.252 176.771 366.809 176.651C365.928 175.368 365.126 174.085 364.405 172.803C363.643 171.48 362.922 170.118 362.28 168.795C362.922 167.472 363.643 166.109 364.405 164.787C365.126 163.504 365.968 162.222 366.85 160.939C368.333 160.819 369.816 160.779 371.339 160.779C372.902 160.779 374.385 160.819 375.828 160.939C376.709 162.222 377.511 163.504 378.232 164.787C378.994 166.109 379.715 167.472 380.357 168.795C379.675 170.118 378.994 171.44 378.232 172.803ZM381.559 171.48C382.16 172.883 382.641 174.246 383.082 175.609C381.719 175.929 380.276 176.17 378.753 176.37C379.234 175.609 379.755 174.807 380.196 173.965C380.677 173.124 381.118 172.282 381.559 171.48ZM371.298 182.342C370.337 181.3 369.415 180.178 368.533 179.015C369.455 179.055 370.377 179.095 371.298 179.095C372.22 179.095 373.142 179.055 374.064 179.015C373.182 180.178 372.26 181.3 371.298 182.342ZM363.844 176.33C362.321 176.13 360.878 175.889 359.515 175.568C359.956 174.246 360.437 172.843 361.038 171.44C361.479 172.242 361.92 173.083 362.401 173.885C362.882 174.767 363.363 175.528 363.844 176.33ZM361.038 166.109C360.437 164.707 359.956 163.344 359.515 161.981C360.878 161.661 362.321 161.42 363.844 161.22C363.363 161.981 362.842 162.783 362.401 163.625C361.92 164.466 361.479 165.308 361.038 166.109ZM371.298 155.248C372.26 156.29 373.182 157.412 374.064 158.574C373.142 158.534 372.22 158.494 371.298 158.494C370.377 158.494 369.455 158.534 368.533 158.574C369.415 157.412 370.337 156.29 371.298 155.248ZM380.196 163.665L378.753 161.26C380.276 161.46 381.719 161.701 383.082 162.021C382.641 163.344 382.16 164.747 381.559 166.15C381.118 165.308 380.677 164.466 380.196 163.665ZM358.353 157.172C357.671 152.963 358.232 149.997 359.876 149.035C360.276 148.795 360.757 148.675 361.278 148.675C363.683 148.675 366.689 150.639 369.695 153.604C368.292 155.128 366.89 156.891 365.527 158.815C363.202 159.015 360.998 159.376 358.914 159.817C358.673 158.895 358.513 158.013 358.353 157.172ZM348.453 168.795C348.453 166.911 350.737 164.907 354.745 163.424C355.547 163.103 356.429 162.823 357.31 162.582C357.952 164.586 358.753 166.711 359.715 168.835C358.753 170.959 357.912 173.043 357.31 175.047C351.779 173.444 348.453 171.039 348.453 168.795ZM359.876 188.554C358.232 187.593 357.671 184.627 358.353 180.418C358.473 179.576 358.673 178.695 358.914 177.773C360.998 178.254 363.202 178.574 365.527 178.775C366.89 180.699 368.292 182.422 369.695 183.985C366.729 186.911 363.723 188.915 361.278 188.915C360.757 188.915 360.276 188.795 359.876 188.554ZM384.244 180.418C384.926 184.627 384.365 187.593 382.721 188.554C382.321 188.795 381.84 188.915 381.319 188.915C378.914 188.915 375.908 186.951 372.902 183.985C374.305 182.462 375.707 180.699 377.07 178.775C379.395 178.574 381.599 178.214 383.683 177.773C383.924 178.695 384.084 179.576 384.244 180.418ZM387.852 174.166C387.05 174.486 386.168 174.767 385.286 175.007C384.645 173.003 383.844 170.879 382.882 168.755C383.844 166.631 384.685 164.546 385.286 162.542C390.818 164.146 394.144 166.55 394.144 168.795C394.144 170.679 391.82 172.683 387.852 174.166Z" fill="#61DAFB"/>
<path d="M148.335 128.87C148.335 126.108 150.574 123.87 153.335 123.87H287.958C290.72 123.87 292.958 126.108 292.958 128.87V219.283H153.335C150.574 219.283 148.335 217.045 148.335 214.283V128.87Z" fill="url(#paint3_linear_214_175)"/>
<path d="M148.335 128.87C148.335 126.108 150.574 123.87 153.335 123.87H287.958C290.72 123.87 292.958 126.108 292.958 128.87V137.716H148.335V128.87Z" fill="#2D4294"/>
<ellipse cx="159.183" cy="131.36" rx="2.38641" ry="2.38641" fill="#F6F7EF"/>
<ellipse cx="169.382" cy="131.36" rx="2.38641" ry="2.38641" fill="#F6F7EF"/>
<ellipse cx="179.61" cy="131.36" rx="2.38641" ry="2.38641" fill="#F6F7EF"/>
<rect x="158.859" y="148.973" width="3.71303" height="2.72732" fill="#00EFF1"/>
<rect x="158.859" y="157.049" width="3.71303" height="2.72732" fill="#00EFF1"/>
<rect x="158.859" y="165.124" width="3.71303" height="2.72732" fill="#00EFF1"/>
<rect x="158.859" y="171.959" width="3.71303" height="2.72732" fill="#00EFF1"/>
<rect x="158.859" y="180.034" width="3.71303" height="2.72732" fill="#00EFF1"/>
<rect x="159.419" y="188.11" width="3.71303" height="2.72732" fill="#00EFF1"/>
<rect x="158.859" y="194.944" width="3.71303" height="2.72732" fill="#00EFF1"/>
<rect x="167.232" y="188.11" width="15.0281" height="2.72732" fill="#00EFF1"/>
<rect x="167.232" y="194.944" width="50.0315" height="2.72732" fill="#53DFF9"/>
<rect x="186.359" y="188.11" width="8.35476" height="2.72732" fill="#00EFF1"/>
<rect x="250.832" y="194.944" width="8.35476" height="2.72732" fill="#00EFF1"/>
<rect x="274.065" y="180.034" width="8.36933" height="2.72732" fill="#00EFF1"/>
<rect x="167.232" y="171.959" width="58.1313" height="2.72732" fill="#00EFF1"/>
<rect x="167.232" y="180.034" width="42.5181" height="2.72732" fill="#00EFF1"/>
<rect x="227.612" y="171.959" width="43.652" height="2.72732" fill="#00EFF1"/>
<rect x="167.232" y="165.124" width="22.41" height="2.72732" fill="#00D5E5"/>
<rect x="191.791" y="165.124" width="11.1538" height="2.72732" fill="#00F1F6"/>
<rect x="207.038" y="165.124" width="33.2495" height="2.72732" fill="#00F1F6"/>
<rect x="243.441" y="164.42" width="38.9935" height="2.72732" fill="#8DDBE0"/>
<rect x="222.183" y="194.944" width="26.0893" height="2.72732" fill="#8DDBE0"/>
<rect x="238.248" y="203.171" width="44.1871" height="2.72732" fill="#66DDFF"/>
<rect x="167.232" y="203.02" width="50.0315" height="2.72732" fill="#60BEFE"/>
<rect x="167.232" y="157.049" width="7.11403" height="2.72732" fill="#00EFF1"/>
<rect x="177.459" y="157.049" width="40.7329" height="2.72732" fill="#2ED7EE"/>
<rect x="262.068" y="188.11" width="20.3665" height="2.72732" fill="#56C4FA"/>
<rect x="158.859" y="203.02" width="3.71303" height="2.72732" fill="#56C4FA"/>
<rect x="214.149" y="180.034" width="57.1147" height="2.72732" fill="#2ED7EE"/>
<rect x="224.6" y="203.02" width="8.40362" height="2.72732" fill="#2ED7EE"/>
<rect x="220.18" y="188.11" width="36.1345" height="2.72732" fill="#2ED7EE"/>
<rect x="197.826" y="188.11" width="14.7502" height="2.72732" fill="#2ED7EE"/>
<rect x="167.232" y="148.973" width="35.7126" height="2.72732" fill="#00E3DE"/>
<rect x="222.852" y="157.049" width="59.5831" height="2.72732" fill="#00E3DE"/>
<rect x="222.852" y="148.973" width="24.6141" height="2.72732" fill="#00E3DE"/>
<rect x="249.263" y="148.973" width="16.5673" height="2.72732" fill="#00E3DE"/>
<rect x="206.592" y="148.973" width="11.6006" height="2.72732" fill="#86E7D8"/>
<path d="M145.966 436.583C146.743 436.398 152.027 436.845 154.572 437.092C154.572 439.141 160.657 444.177 165.054 447.455C165.788 448.002 165.478 449.097 164.562 449.12C159.703 449.243 150.399 449.095 145.503 448.983L145.966 436.583Z" fill="#0044A0"/>
<path d="M98.7906 423.799L97.1597 427.813L103.684 431.013L105.189 427.123L98.7906 423.799Z" fill="#E39885"/>
<path d="M136.262 280.224C137.276 280.055 137.142 277.198 136.949 275.791C141.699 279.644 146.186 279.222 145.236 279.644C144.476 279.982 144.919 282.107 145.236 283.128C144.011 282.199 138.743 280.805 136.262 280.224Z" fill="#E5988C"/>
<path d="M154.184 314.774C152.602 318.497 151.974 331.526 151.857 337.575C149.242 338.615 129.871 335.143 120.513 333.278C120.084 332.764 119.57 330.433 120.941 325.224C122.312 320.015 122.483 306.261 122.398 300.035V290.267C121.369 284.099 124.825 281.7 126.681 281.271C146.284 277.57 154.384 286.298 155.983 291.124C161.209 296.608 156.162 310.121 154.184 314.774Z" fill="url(#paint4_linear_214_175)"/>
<path d="M106.342 427.683L97.408 423.349L106.342 400.766C110.583 386.473 119.1 380.199 118.612 378.443C118.222 377.038 117.994 364.326 117.929 358.145C116.419 351.197 118.559 337.747 119.817 331.891C122.67 334.585 142.54 336.407 152.118 336.982C153.666 344.72 163.88 380.469 161.559 385.886C159.702 390.219 156.978 419.043 155.848 432.913L145.227 432.584C146.003 419.317 147.35 392.484 146.536 391.287C145.722 390.091 146.197 384.861 146.536 382.395C145.102 371.687 141.086 367.193 139.843 360.118C138.849 354.458 137.453 354.381 136.879 355.051C136.344 357.422 132.449 375.416 130.569 384.116C127.586 389.777 113.175 415.519 106.342 427.683Z" fill="#0248A8"/>
<path d="M109.522 446.459C105.285 445.057 96.2104 439.686 91.509 436.724L96.7603 427.58C98.3189 427.648 102.662 430.375 104.638 431.731L105.57 436.724C107.049 440.616 108.867 443.574 110.166 445.329C110.643 445.974 110.284 446.711 109.522 446.459Z" fill="#0044A0"/>
<path d="M123.366 285.482C122.383 290.668 131.152 298.67 135.66 302.023C138.432 297.016 142.328 293.827 143.93 292.859L134.766 285.482C131.376 283.322 124.35 280.297 123.366 285.482Z" fill="#03A7F7"/>
<path d="M160.541 321.533C157.804 321.607 155.257 316.859 154.326 314.476C156.22 308.321 157.841 301.575 158.414 298.972C158.908 301.037 160.208 305.592 161.466 307.294C162.723 308.995 164.825 314.845 165.719 317.557C165.134 318.852 163.278 321.459 160.541 321.533Z" fill="#E69E8F"/>
<path d="M155.234 270.931C154.978 269.286 156.109 267.747 157.755 267.502L217.159 258.635C218.778 258.394 220.291 259.494 220.561 261.108L230.576 321.006C230.855 322.672 229.705 324.238 228.033 324.472L167.882 332.885C166.259 333.112 164.755 331.995 164.502 330.376L155.234 270.931Z" fill="#124DA1"/>
<path d="M148.719 278.958C146.819 280.647 145.288 279.978 144.76 279.433C144.972 280.657 144.848 281.491 144.76 281.755C143.705 280.615 138.69 280.189 136.315 280.119C136.906 278.303 137.019 274.612 137.001 272.993C136.03 271.304 136.596 269.369 137.001 268.612C138.231 266.425 139.337 267.662 139.966 269.063C139.855 267.688 140.38 265.322 140.749 264.02C144.18 261.592 148.191 265.128 150.092 265.498C151.992 265.867 150.778 276.424 150.514 275.685C150.303 275.094 149.863 274.664 149.669 274.524C149.845 275.491 150.092 277.427 149.669 277.427C149.247 277.427 148.86 278.447 148.719 278.958Z" fill="#DF988C"/>
<path d="M140.134 256.98C135.614 258.152 135.195 262.589 135.195 266.858C135.195 270.009 136.283 272.413 136.953 273.427C136.826 264.214 138.686 267.274 139.632 269.955C141.038 270.156 140.943 266.635 140.72 264.849C141.725 261.367 147.222 263.844 149.845 265.519C156.876 263.007 152.774 258.152 149.845 257.482C147.501 256.947 142.394 256.924 140.134 256.98Z" fill="#0048A5"/>
<rect x="176.901" y="316.463" width="34.7703" height="2.47064" transform="rotate(-8.0199 176.901 316.463)" fill="#937AFA"/>
<path d="M192.761 283.843C190.694 282.854 187.854 284.855 186.693 285.978C187.786 279.659 183.322 285.518 180.953 289.237C171.573 290.549 155.907 300.594 153.005 300.884C150.684 301.116 145.809 296.063 143.662 293.508C142.261 293.038 138.059 298.679 136.133 301.559C139.183 303.592 148.008 312.015 155.352 310.099C161.226 308.567 176.746 298.4 183.771 293.508C189.255 293.328 192.05 290.586 192.761 289.237C193.623 287.851 194.829 284.832 192.761 283.843Z" fill="#E59C8D"/>
<path d="M449.571 435.749V447.432C443.898 448.289 437.849 448.257 433.314 447.98C432.198 447.912 431.769 445.502 432.674 444.845C436.146 442.325 439.787 438.624 441.704 436.45C441.579 435.079 446.897 435.412 449.571 435.749Z" fill="#0245A4"/>
<path d="M472.313 437.576H464.829C464.405 436.185 464.249 443.347 464.224 447.101C466.462 447.706 472.111 447.353 474.656 447.101C474.777 444.743 473.144 439.769 472.313 437.576Z" fill="#0245A4"/>
<path d="M463.328 325.541C459.516 327.219 445.791 325.887 439.405 325.012C439.934 324.589 439.502 302.891 439.22 292.095C438.305 285.692 441.634 277.357 443.413 273.99C444.099 271.017 449.797 269.956 452.56 269.798C452.255 272.542 453.323 274.308 453.894 274.848C459.002 275.229 462.248 270.75 463.233 268.463C466.434 268.006 469.458 269.543 470.57 270.369C479.432 270.369 474.191 296.955 472.666 298.003C471.446 298.842 471.84 316.013 472.19 324.493C469.369 325.332 465.107 325.541 463.328 325.541Z" fill="url(#paint5_linear_214_175)"/>
<path d="M460.969 296.029C463.938 296.267 470.18 296.902 471.392 297.544C470.917 302.978 468.63 313.686 463.285 313.045C457.939 312.404 450.07 309.333 446.803 307.878C442.557 305.621 433.743 301.072 432.46 300.929C430.857 300.751 426.58 296.207 428.095 294.96C429.306 293.962 430.797 295.791 431.391 296.831C431.181 295.708 431.283 293.977 433.37 296.029C434.881 297.515 435.302 298.025 435.321 298.132C437.244 298.489 441.755 299.46 445.354 300.672C449.715 302.141 453.074 304.09 459.24 303.908C459.867 303.89 460.446 303.55 460.641 302.954C461.052 301.699 461.407 299.395 460.969 296.029Z" fill="#EB948A"/>
<path d="M417.684 315.497C414.372 317.369 411.461 315.079 410.419 313.701C408.851 312.799 407.982 311.392 417.054 312.977C428.395 314.957 432.175 310.816 433.615 310.996C434.767 311.14 435.715 300.076 436.045 294.526H439.555C440.995 297.262 439.555 308.449 438.655 313.701C434.911 316.584 423.115 316.1 417.684 315.497Z" fill="#EB948A"/>
<rect x="436.295" y="311.75" width="12.225" height="1.56608" fill="#102E7D"/>
<path d="M399.279 293.013H429.416L437.888 313.316H407.15L399.279 293.013Z" fill="#102E7D"/>
<circle cx="418.583" cy="303.164" r="2.72732" fill="white"/>
<path d="M449.412 251.684V251.98C449.825 252.094 451.348 251.889 455.36 250.716C461.225 249 460.755 253.966 459.786 256.664C460.636 257.436 460.974 257.67 461.077 257.693C461.085 257.673 461.093 257.652 461.101 257.632C461.121 257.674 461.121 257.703 461.077 257.693C459.406 261.899 455.825 266.899 451.902 266.762C448.748 266.651 448.928 262.151 449.412 259.915V251.98C449.221 251.928 449.266 251.808 449.412 251.684Z" fill="#E2998A"/>
<path d="M453.285 266.762C452.4 268.422 453.239 272.572 453.769 274.439C457.31 275.712 461.054 271.926 462.484 269.874C462.968 264.48 462.484 261.505 462.484 261.16C462.484 260.814 463.66 255.626 462.484 255.004C461.308 254.381 460.893 255.211 459.51 259.915C458.403 263.677 454.899 266.047 453.285 266.762Z" fill="#E2988A"/>
<path d="M449.558 265.803C448.995 265.146 449.006 262.169 449.24 260.683C449.768 260.097 452.55 260.231 455.072 261.111C457.09 261.814 459.002 258.666 459.706 257.004C460.137 256.085 460.739 253.661 459.706 251.314C458.674 248.968 453.254 250.65 450.673 251.784C447.153 250.47 447.055 246.856 447.446 245.214C450.497 240.239 454.505 241.811 456.128 243.219C458.709 243.97 460.88 244.432 461.642 244.569C467.801 247.619 465.162 249.437 465.572 253.133C465.901 256.089 464.067 259.292 463.109 260.524C461.877 258.178 463.519 255.538 462.287 255.303C461.055 255.069 458.416 263.692 455.072 265.803C451.729 267.915 450.262 266.625 449.558 265.803Z" fill="#00479E"/>
</g>
<defs>
<linearGradient id="paint0_linear_214_175" x1="312.643" y1="0.8678" x2="312.643" y2="500.069" gradientUnits="userSpaceOnUse">
<stop stop-color="#0160E7"/>
<stop offset="1" stop-color="#013681"/>
</linearGradient>
<linearGradient id="paint1_linear_214_175" x1="304.382" y1="99.396" x2="304.382" y2="399.809" gradientUnits="userSpaceOnUse">
<stop stop-color="#8383FE"/>
<stop offset="1" stop-color="#A774FF"/>
</linearGradient>
<linearGradient id="paint2_linear_214_175" x1="304.382" y1="99.396" x2="304.382" y2="399.809" gradientUnits="userSpaceOnUse">
<stop stop-color="#7A8BFF"/>
<stop offset="1" stop-color="#A071F0"/>
</linearGradient>
<linearGradient id="paint3_linear_214_175" x1="220.647" y1="123.87" x2="220.647" y2="219.283" gradientUnits="userSpaceOnUse">
<stop stop-color="#00CFCA"/>
<stop offset="1" stop-color="#02A0FB"/>
</linearGradient>
<linearGradient id="paint4_linear_214_175" x1="139.167" y1="280.381" x2="139.167" y2="337.766" gradientUnits="userSpaceOnUse">
<stop stop-color="#00CDCE"/>
<stop offset="0.980017" stop-color="#189DFD"/>
</linearGradient>
<linearGradient id="paint5_linear_214_175" x1="457.33" y1="268.38" x2="457.33" y2="326.345" gradientUnits="userSpaceOnUse">
<stop stop-color="#00CDCA"/>
<stop offset="1" stop-color="#1D9CFB"/>
</linearGradient>
<clipPath id="clip0_214_175">
<rect width="625" height="500.2" fill="white"/>
</clipPath>
</defs>
</svg>
