<svg width="625" height="500" viewBox="0 0 625 500" fill="none" xmlns="http://www.w3.org/2000/svg">
<path opacity="0.1" d="M3.87593 224.102C-14.9808 149.977 39.5345 115.057 69.1492 106.863C93.3239 101.19 164.519 81.1455 255.901 46.3518C347.284 11.5581 428.15 4.12028 457.161 4.7506C650.079 -34.5814 637.871 179.98 607.652 292.177C546.73 529.682 321.175 515.941 216.012 479.382C68.0596 453.665 12.9411 298.48 3.87593 224.102Z" fill="url(#paint0_linear_617_252)"/>
<path d="M575.309 345.453C557.37 342.96 541.953 344.995 528.743 349.924C528.514 357.603 528.084 366.773 528.084 366.773L519.888 353.821C472.262 377.92 457.418 439.932 457.418 439.932C496.763 446.093 523.012 438.843 540.52 426.063C538.916 420.79 536.451 412.967 536.451 412.967L545.965 421.678C553.845 414.686 559.634 406.491 563.846 398.152C558.889 393.653 553.358 388.409 553.358 388.409L567.543 389.899C576.484 367.088 575.309 345.453 575.309 345.453Z" fill="#7C9AF2"/>
<path d="M540.521 426.034C538.916 420.761 536.452 412.938 536.452 412.938L545.966 421.65C553.846 414.657 559.635 406.462 563.847 398.123C558.89 393.624 553.359 388.38 553.359 388.38L567.544 389.87C576.484 367.06 575.338 345.453 575.338 345.453C517.023 368.665 457.447 439.903 457.447 439.903C496.763 446.064 523.012 438.814 540.521 426.034Z" fill="#4951EC"/>
<path d="M561.556 428.298C553.304 419.558 544.449 414.228 535.565 411.305C532.27 415.202 528.258 419.758 528.258 419.758L529.376 409.643C494.702 402.393 461.289 428.355 461.289 428.355C479.113 447.87 495.734 454.976 510.09 455.607C511.437 452.197 513.414 447.125 513.414 447.125L514.733 455.578C521.725 455.206 528.115 453.372 533.76 450.793C533.044 446.408 532.356 441.393 532.356 441.393L539.09 448.042C553.189 439.989 561.556 428.298 561.556 428.298Z" fill="url(#paint1_linear_617_252)"/>
<path d="M510.12 455.636C511.467 452.226 513.444 447.153 513.444 447.153L514.762 455.607C521.755 455.234 528.145 453.4 533.79 450.821C533.074 446.437 532.386 441.422 532.386 441.422L539.12 448.07C553.219 439.961 561.586 428.269 561.586 428.269C521.726 416.119 461.348 428.355 461.348 428.355C479.143 447.898 495.735 455.005 510.12 455.636Z" fill="url(#paint2_linear_617_252)"/>
<path d="M551.325 146.494C563.619 153.286 549.692 167.815 545.795 171.54C548.001 176.325 549.663 180.882 550.895 185.094C553.446 178.818 551.325 172.17 554.105 168.875C557.257 165.15 563.046 163.688 563.619 173.173C564.077 180.681 555.079 185.209 551.325 186.756C553.331 194.092 554.048 200.339 554.248 204.953C558.231 198.247 556.569 190.367 560.18 186.985C564.134 183.289 570.697 182.429 570.124 192.946C569.636 201.657 558.231 205.411 554.305 206.472C554.391 210.684 554.048 213.206 553.99 213.464C553.303 218.564 552.386 223.407 551.297 227.992C554.965 222.175 554.821 215.269 558.518 212.69C562.931 209.595 569.579 209.652 567.516 219.997C565.883 228.193 554.993 230.485 550.523 231.087C548.001 240.629 544.648 249.054 540.98 256.39C546.081 252.608 550.552 243.438 556.426 241.661C560.295 240.486 562.558 242.292 563.791 244.011C564.851 245.501 565.166 247.335 564.679 249.083C561.985 258.998 545.307 258.224 540.264 257.737C535.622 266.735 530.492 274.071 525.735 279.831C528.372 277.911 532.384 274.959 534.361 273.355C537.513 270.804 543.101 269.028 546.74 270.432C546.884 270.489 547.027 270.546 547.17 270.604C549.864 271.836 551.096 274.931 550.351 277.796C547.342 288.972 528.028 283.356 523.873 282.009C523.844 282.037 523.815 282.095 523.758 282.123C511.436 296.337 500.318 302.584 499.859 302.87L498.885 301.151C498.999 301.094 509.573 295.105 521.236 281.98C512.84 265.36 518.944 255.301 523.615 255.244C528.458 255.187 533.616 260.431 529.002 267.337C526.309 271.349 524.446 276.192 523.328 279.544C528.171 273.813 533.473 266.334 538.287 257.107C520.405 239.884 532.04 229.826 537.714 232.004C543.445 234.211 543.789 238.796 541.095 245.243C539.29 249.542 538.946 253.611 538.917 255.903C542.557 248.71 545.852 240.458 548.374 231.087C543.989 230.428 532.928 227.964 531.438 219.653C529.575 209.251 536.224 209.337 540.579 212.518C544.591 215.441 543.875 223.55 548.746 229.74C550.093 224.525 551.182 218.994 551.984 213.148C552.013 213.062 552.701 207.99 551.784 199.852C547.313 199.737 536.109 198.648 533.587 190.625C530.435 180.566 537.026 179.793 541.754 182.4C545.967 184.722 546.396 192.459 551.526 197.961C550.58 191.083 548.488 182.286 544.047 172.571C539.404 172.428 528.601 171.225 526.137 163.373C522.984 153.286 529.575 152.541 534.304 155.149C538.573 157.498 538.946 165.436 544.305 170.938L544.505 170.852C544.018 168.044 542.986 162.083 542.327 159.246C541.468 155.464 542.385 150.019 545.25 147.612C548.173 145.262 551.325 146.494 551.325 146.494Z" fill="#DDE8FE"/>
<path d="M411.485 110.789C429.653 109.729 424.437 135.261 422.718 142.053C428.449 145.778 433.407 149.618 437.676 153.401C436.129 144.746 429.194 138.958 429.997 133.399C430.885 127.152 436.186 121.535 443.408 131.507C449.11 139.416 442.376 150.592 439.339 154.891C446.589 161.567 451.718 167.9 455.099 172.829C454.841 162.714 447.563 155.235 449.196 149.045C450.973 142.282 457.564 136.751 464.212 148.73C469.714 158.616 459.828 170.623 456.217 174.491C459.226 179.048 460.573 182.057 460.716 182.372C463.496 188.418 465.845 194.35 467.823 200.167C467.823 191.284 462.894 183.805 465.158 178.417C467.851 171.97 475.159 167.442 480.059 180.194C483.927 190.281 473.582 200.339 469.112 204.122C472.923 216.301 475.101 227.849 476.133 238.452C479.084 230.8 477.652 217.647 482.867 211.658C486.277 207.704 490.031 208.105 492.581 209.137C494.759 210.025 496.393 211.83 497.08 214.094C501.006 226.817 482.151 237.506 476.333 240.458C477.451 253.525 476.907 265.102 475.703 274.701C477.279 270.747 479.6 264.786 480.689 261.634C482.38 256.648 487.28 250.831 492.238 249.857C492.438 249.828 492.639 249.771 492.839 249.742C496.651 249.226 500.147 251.777 501.293 255.445C505.735 269.773 480.661 276.965 475.216 278.341C475.216 278.398 475.187 278.484 475.187 278.541C471.519 302.612 463.668 317.17 463.352 317.771L461.117 316.539C461.203 316.396 468.654 302.526 472.379 280.089C451.718 267.681 451.431 252.436 456.504 249.169C461.776 245.788 471.032 247.937 470.774 258.711C470.602 264.958 471.892 271.578 473.009 276.02C474.328 266.391 475.015 254.528 473.869 241.088C442.376 234.583 448.165 215.498 455.902 213.979C463.725 212.432 467.249 217.217 468.74 226.13C469.743 232.061 472.178 236.79 473.697 239.311C472.694 228.909 470.631 217.561 466.934 205.583C461.69 207.876 447.849 212.833 440.456 204.752C431.229 194.665 438.565 190.166 445.528 190.625C451.947 191.055 456.761 200.454 466.361 203.835C464.241 197.216 461.633 190.395 458.423 183.403C458.366 183.289 455.644 177.271 448.996 168.989C444.038 171.97 431 178.503 422.718 171.454C412.287 162.599 418.993 157.212 425.985 156.782C432.203 156.409 438.02 164.605 447.448 167.069C441.66 160.163 433.263 151.996 421.715 144.431C416.528 147.469 403.862 153.63 395.724 146.724C385.293 137.869 391.999 132.482 398.991 132.052C405.295 131.679 411.17 140.104 420.855 142.425L420.999 142.196C418.534 139.445 413.262 133.657 410.597 130.992C407.043 127.467 404.264 120.847 405.754 116.234C407.187 111.62 411.485 110.789 411.485 110.789Z" fill="#BED1F9"/>
<path d="M129.981 357.231L231.752 319.874L186.426 196.393L84.6551 233.749L129.981 357.231Z" fill="#BED1F9"/>
<path d="M180.843 338.565L231.742 319.882L186.417 196.401L135.517 215.084L180.843 338.565Z" fill="#92B5F9"/>
<path d="M171.406 214.008C172.495 213.521 172.982 212.231 172.437 211.171C170.689 207.618 166.505 199.938 160.144 192.831C148.681 180.022 135.729 175.466 122.633 179.621C115.354 181.942 109.967 186.441 106.586 193.032C98.9345 207.933 103.749 229.052 105.611 235.758C105.927 236.904 107.13 237.563 108.276 237.191C109.337 236.847 109.938 235.729 109.652 234.64C107.961 228.422 103.405 208.334 110.311 194.923C113.177 189.364 117.733 185.553 123.894 183.604C135.471 179.936 146.618 183.976 157.02 195.611C163.009 202.288 167.021 209.681 168.655 213.005C169.17 214.037 170.374 214.466 171.406 214.008Z" fill="#DDE8FE"/>
<path d="M173.235 331.956L115.063 251.977C112.885 248.997 108.73 248.338 105.75 250.516L60.6739 283.27C57.6937 285.448 57.0346 289.603 59.2125 292.583L117.384 372.562C119.562 375.542 123.717 376.201 126.697 374.023L171.773 341.241C174.725 339.092 175.413 334.936 173.235 331.956Z" fill="url(#paint3_linear_617_252)"/>
<path d="M147.838 358.644L81.8262 267.859L67.5955 278.207L133.607 368.991L147.838 358.644Z" fill="#0B0754"/>
<path d="M122.657 292.239L100.076 261.176C99.789 260.775 99.2445 260.689 98.8434 260.975L98.6428 261.119C98.2416 261.405 98.1556 261.95 98.4422 262.351L121.023 293.414C121.31 293.815 121.854 293.901 122.255 293.614L122.456 293.471C122.857 293.185 122.943 292.64 122.657 292.239Z" fill="#0B0754"/>
<path d="M122.743 283.871L104.117 258.224C103.83 257.823 103.286 257.737 102.884 258.024L102.684 258.167C102.283 258.454 102.197 258.998 102.483 259.399L121.11 285.046C121.396 285.448 121.941 285.534 122.342 285.247L122.542 285.104C122.944 284.817 123.03 284.273 122.743 283.871Z" fill="#0B0754"/>
<path d="M130.77 286.365L108.189 255.301C107.902 254.9 107.358 254.814 106.957 255.101L106.756 255.244C106.355 255.531 106.269 256.075 106.555 256.476L129.136 287.539C129.423 287.941 129.967 288.027 130.369 287.74L130.569 287.597C130.97 287.31 131.056 286.766 130.77 286.365Z" fill="#0B0754"/>
<path d="M162.087 329.435L154.981 319.663C153.72 317.915 151.284 317.542 149.536 318.803L146.097 321.296C144.349 322.557 143.977 324.993 145.238 326.741L152.344 336.513C153.605 338.261 156.041 338.633 157.789 337.372L161.228 334.879C162.947 333.618 163.348 331.183 162.087 329.435Z" fill="#0B0754"/>
<path d="M49.6438 317.915C70.5913 314.734 88.6733 316.94 104.205 322.5C104.549 331.498 105.179 342.186 105.179 342.186L114.607 326.913C170.658 354.451 188.883 426.808 188.883 426.808C142.919 434.573 112.114 426.435 91.4816 411.706C93.2869 405.516 96.0665 396.346 96.0665 396.346L85.0626 406.662C75.7494 398.581 68.872 389.096 63.7999 379.353C69.5597 374.023 75.95 367.834 75.95 367.834L59.3868 369.782C48.5835 343.218 49.6438 317.915 49.6438 317.915Z" fill="#7C9AF2"/>
<path d="M91.453 411.706C93.2584 405.516 96.038 396.346 96.038 396.346L85.0341 406.662C75.7209 398.581 68.8434 389.096 63.7713 379.353C69.5312 374.023 75.9215 367.833 75.9215 367.833L59.3583 369.782C48.5836 343.218 49.6439 317.915 49.6439 317.915C118.189 344.307 188.855 426.836 188.855 426.836C142.891 434.573 112.085 426.435 91.453 411.706Z" fill="#4951EC"/>
<path d="M64.6582 414.6C75.7481 405.917 86.8953 401.304 97.6986 399.47C100.851 404.542 104.691 410.531 104.691 410.531L105.149 398.639C146.528 396.289 180.658 432.166 180.658 432.166C156.615 451.624 136.155 456.982 119.42 455.206C118.446 451.051 117.07 444.832 117.07 444.832L114.061 454.403C106.037 452.77 98.9595 449.532 92.8844 445.549C94.4605 440.591 96.1512 434.917 96.1512 434.917L87.2105 441.451C72.3094 429.587 64.6582 414.6 64.6582 414.6Z" fill="#BED1F9"/>
<path d="M119.424 455.177C118.45 451.022 117.075 444.804 117.075 444.804L114.066 454.375C106.042 452.741 98.964 449.503 92.8889 445.52C94.465 440.563 96.1557 434.889 96.1557 434.889L87.215 441.422C72.3139 429.587 64.6914 414.6 64.6914 414.6C112.919 407.493 180.691 432.166 180.691 432.166C156.62 451.624 136.16 456.954 119.424 455.177Z" fill="#92B5F9"/>
<path d="M507.595 465.866H106.325C104.864 465.866 103.66 464.662 103.66 463.201V460.421C103.66 458.96 104.864 457.756 106.325 457.756H507.595C509.057 457.756 510.26 458.96 510.26 460.421V463.201C510.26 464.662 509.086 465.866 507.595 465.866Z" fill="#4951EC"/>
<path d="M479.832 264.156L413.694 340.095C411.229 342.931 411.516 347.23 414.353 349.694L457.165 386.976C460.002 389.44 464.3 389.154 466.765 386.317L532.903 310.378C535.367 307.541 535.081 303.243 532.244 300.778L489.432 263.497C486.595 261.033 482.296 261.319 479.832 264.156Z" fill="#4951EC"/>
<path d="M512.131 283.276L437.064 369.476L450.57 381.237L525.637 295.037L512.131 283.276Z" fill="#0B0754"/>
<path d="M451.948 323.388L426.244 352.904C425.929 353.276 425.957 353.849 426.33 354.165L426.531 354.337C426.903 354.652 427.476 354.623 427.791 354.251L453.496 324.735C453.811 324.362 453.782 323.789 453.41 323.474L453.209 323.302C452.865 322.987 452.292 323.016 451.948 323.388Z" fill="#333333"/>
<path d="M443.608 325.222L422.402 349.551C422.087 349.924 422.116 350.497 422.488 350.812L422.689 350.984C423.061 351.299 423.634 351.27 423.95 350.898L445.155 326.569C445.47 326.196 445.442 325.623 445.069 325.308L444.869 325.136C444.496 324.792 443.952 324.821 443.608 325.222Z" fill="#333333"/>
<path d="M444.271 316.711L418.566 346.227C418.251 346.599 418.28 347.173 418.652 347.488L418.853 347.66C419.225 347.975 419.799 347.946 420.114 347.574L445.818 318.058C446.133 317.686 446.105 317.112 445.732 316.797L445.532 316.625C445.159 316.281 444.586 316.31 444.271 316.711Z" fill="#333333"/>
<path d="M479.89 275.79L471.809 285.075C470.376 286.737 470.548 289.23 472.181 290.663L475.448 293.5C477.11 294.933 479.603 294.761 481.036 293.127L489.117 283.843C490.55 282.181 490.378 279.688 488.744 278.255L485.477 275.418C483.844 273.956 481.322 274.128 479.89 275.79Z" fill="#0B0754"/>
<path d="M132.542 299.317C142.056 303.128 149.077 308.458 154.178 314.562C152.114 318.402 149.765 323.016 149.765 323.016L157.416 318.946C174.065 344.135 163.978 378.78 163.978 378.78C142.916 370.785 132.055 359.867 127.012 348.663C129.276 346.513 132.686 343.361 132.686 343.361L125.579 344.966C123.659 339.321 123.115 333.676 123.372 328.374C127.069 327.543 131.253 326.54 131.253 326.54L123.86 323.302C125.894 309.604 132.542 299.317 132.542 299.317Z" fill="#4951EC"/>
<path d="M127.039 348.663C129.303 346.513 132.713 343.361 132.713 343.361L125.606 344.966C123.686 339.321 123.142 333.676 123.4 328.374C127.096 327.543 131.28 326.54 131.28 326.54L123.887 323.302C125.893 309.576 132.512 299.288 132.512 299.288C154.664 327.056 163.977 378.751 163.977 378.751C142.915 370.785 132.054 359.838 127.039 348.663Z" fill="#0B0754"/>
<path d="M189.001 65.7704C189.001 65.7704 189.402 69.8396 192.64 70.1262C189.43 70.4127 189.001 74.4819 189.001 74.4819C189.001 74.4819 188.599 70.4127 185.361 70.1262C188.599 69.8683 189.001 65.7704 189.001 65.7704Z" fill="#DDE8FE"/>
<path d="M258.488 197.961C258.488 197.961 259.176 204.838 264.62 205.297C259.204 205.784 258.488 212.633 258.488 212.633C258.488 212.633 257.8 205.755 252.355 205.297C257.771 204.838 258.488 197.961 258.488 197.961Z" fill="#FEB546"/>
<path d="M434.636 67.9196C434.636 67.9196 434.98 71.4157 437.731 71.6449C434.98 71.8742 434.636 75.3702 434.636 75.3702C434.636 75.3702 434.292 71.8742 431.541 71.6449C434.263 71.387 434.636 67.9196 434.636 67.9196Z" fill="#DDE8FE"/>
<path d="M72.454 119.701C72.454 119.701 73.1704 126.636 78.6151 127.123C73.1418 127.61 72.454 134.545 72.454 134.545C72.454 134.545 71.7376 127.61 66.293 127.123C71.7663 126.636 72.454 119.701 72.454 119.701Z" fill="#7C9AF2"/>
<path d="M152.29 145.09C152.29 145.09 153.064 152.57 158.967 153.085C153.064 153.601 152.29 161.08 152.29 161.08C152.29 161.08 151.545 153.601 145.613 153.085C151.545 152.57 152.29 145.09 152.29 145.09Z" fill="#BED1F9"/>
<path d="M321.933 66.4868C321.933 66.4868 322.678 73.966 328.61 74.4818C322.706 74.9977 321.933 82.4769 321.933 82.4769C321.933 82.4769 321.159 74.9977 315.256 74.4818C321.188 73.966 321.933 66.4868 321.933 66.4868Z" fill="#BED1F9"/>
<path d="M243.761 34.1342C243.761 34.1342 244.506 41.6134 250.438 42.1292C244.535 42.6451 243.761 50.1243 243.761 50.1243C243.761 50.1243 243.016 42.6451 237.084 42.1292C243.016 41.6134 243.761 34.1342 243.761 34.1342Z" fill="#7C9AF2"/>
<path d="M117.814 43.5334C117.814 43.5334 118.559 51.0126 124.49 51.5284C118.587 52.0443 117.814 59.5521 117.814 59.5521C117.814 59.5521 117.069 52.0729 111.137 51.5571C117.069 51.0126 117.814 43.5334 117.814 43.5334Z" fill="url(#paint4_linear_617_252)"/>
<path d="M472.12 107.064C472.12 107.064 472.865 114.543 478.797 115.059C472.894 115.575 472.12 123.054 472.12 123.054C472.12 123.054 471.375 115.575 465.443 115.059C471.346 114.543 472.12 107.064 472.12 107.064Z" fill="url(#paint5_linear_617_252)"/>
<path d="M329.012 147.24C329.012 147.24 329.442 151.509 332.824 151.796C329.442 152.082 329.012 156.352 329.012 156.352C329.012 156.352 328.583 152.082 325.201 151.796C328.583 151.509 329.012 147.24 329.012 147.24Z" fill="url(#paint6_linear_617_252)"/>
<path d="M454.154 458.387H171.405C165.588 458.387 160.859 453.658 160.859 447.841V246.762C160.859 240.945 165.588 236.216 171.405 236.216H454.182C460 236.216 464.728 240.945 464.728 246.762V447.812C464.728 453.658 459.999 458.387 454.154 458.387Z" fill="#0B0754"/>
<path d="M443.091 449.704H172.091C170.228 449.704 168.738 448.185 168.738 446.351V248.367C168.738 246.504 170.257 245.014 172.091 245.014H443.091V449.704Z" fill="#DDE8FE"/>
<path d="M430.167 272.151H179.828V446.208H430.167V272.151Z" fill="white"/>
<path d="M430.196 276.908V264.013C430.196 259.6 426.614 256.018 422.201 256.018H187.823C183.41 256.018 179.828 259.6 179.828 264.013V276.908H430.196Z" fill="url(#paint7_linear_617_252)"/>
<path d="M415.005 271.549H316.085C313.649 271.549 311.672 269.572 311.672 267.136V265.818C311.672 263.382 313.649 261.405 316.085 261.405H415.005C417.441 261.405 419.418 263.382 419.418 265.818V267.136C419.447 269.572 417.47 271.549 415.005 271.549Z" fill="white"/>
<path d="M200.488 265.904C200.861 268.798 198.425 271.205 195.531 270.862C193.553 270.604 191.977 269.028 191.719 267.05C191.347 264.156 193.783 261.749 196.677 262.093C198.654 262.351 200.23 263.927 200.488 265.904Z" fill="white"/>
<path d="M219.744 265.904C220.117 268.798 217.681 271.205 214.787 270.862C212.809 270.604 211.233 269.028 210.975 267.05C210.603 264.156 213.039 261.749 215.933 262.093C217.91 262.351 219.486 263.927 219.744 265.904Z" fill="white"/>
<path d="M239.004 265.904C239.376 268.798 236.941 271.205 234.046 270.862C232.069 270.604 230.493 269.028 230.235 267.05C229.863 264.156 232.298 261.749 235.193 262.093C237.17 262.351 238.746 263.927 239.004 265.904Z" fill="white"/>
<path d="M348.036 372.247H261.982C260.664 372.247 259.604 371.186 259.604 369.868V305.736C259.604 304.418 260.664 303.358 261.982 303.358H348.036C349.354 303.358 350.414 304.418 350.414 305.736V369.868C350.414 371.186 349.354 372.247 348.036 372.247Z" fill="#DDE8FE"/>
<path d="M294.196 361.214C291.961 361.214 290.127 359.38 290.127 357.145C290.127 354.91 291.961 353.076 294.196 353.076C296.431 353.076 298.265 354.91 298.265 357.145C298.265 359.38 296.431 361.214 294.196 361.214ZM294.196 354.308C292.649 354.308 291.359 355.569 291.359 357.145C291.359 358.721 292.62 359.982 294.196 359.982C295.744 359.982 297.033 358.721 297.033 357.145C297.033 355.569 295.744 354.308 294.196 354.308Z" fill="url(#paint8_linear_617_252)"/>
<path d="M310.612 361.214C308.377 361.214 306.543 359.38 306.543 357.145C306.543 354.91 308.377 353.076 310.612 353.076C312.847 353.076 314.681 354.91 314.681 357.145C314.681 359.38 312.847 361.214 310.612 361.214ZM310.612 354.308C309.065 354.308 307.775 355.569 307.775 357.145C307.775 358.721 309.036 359.982 310.612 359.982C312.16 359.982 313.449 358.721 313.449 357.145C313.449 355.569 312.16 354.308 310.612 354.308Z" fill="url(#paint9_linear_617_252)"/>
<path d="M334.739 314.82C334.653 314.533 334.31 314.361 333.994 314.419L322.675 316.883C322.446 316.94 322.245 317.112 322.217 317.313L321.07 323.073C321.013 323.331 320.755 323.531 320.469 323.531H275.88C275.45 323.531 275.164 323.904 275.307 324.248L284.821 347.43C284.907 347.66 285.136 347.803 285.394 347.803H315.397C315.769 347.803 316.084 348.118 315.998 348.433L315.368 351.471C315.311 351.729 315.053 351.929 314.766 351.929H289.492C289.148 351.929 288.861 352.159 288.861 352.474C288.861 352.76 289.148 353.018 289.492 353.018H315.798C316.113 353.018 316.371 352.818 316.4 352.56L322.102 324.219L322.245 323.56L323.306 318.23C323.334 318.029 323.535 317.857 323.764 317.8L334.281 315.508C334.625 315.393 334.825 315.106 334.739 314.82ZM280.837 332.443H288.345C288.632 332.443 288.89 332.615 288.947 332.873L290.323 338.805C290.409 339.149 290.093 339.464 289.721 339.464H283.245C282.987 339.464 282.757 339.321 282.671 339.092L280.236 333.16C280.121 332.787 280.408 332.443 280.837 332.443ZM290.896 332.443H298.575C298.919 332.443 299.206 332.673 299.206 332.988V338.92C299.206 339.206 298.919 339.464 298.575 339.464H292.3C292.013 339.464 291.755 339.292 291.698 339.034L290.323 333.102C290.208 332.759 290.494 332.443 290.896 332.443ZM300.438 330.81V325.165C300.438 324.878 300.725 324.62 301.069 324.62H308.748C309.121 324.62 309.407 324.907 309.379 325.222L308.691 330.867C308.662 331.154 308.405 331.354 308.061 331.354H301.097C300.696 331.354 300.438 331.097 300.438 330.81ZM308.376 333.016L307.631 338.948C307.602 339.235 307.344 339.435 307 339.435H301.04C300.696 339.435 300.409 339.206 300.409 338.891V332.959C300.409 332.673 300.696 332.415 301.04 332.415H307.745C308.118 332.443 308.405 332.701 308.376 333.016ZM298.575 331.354H290.409C290.122 331.354 289.864 331.182 289.807 330.925L288.489 325.279C288.403 324.935 288.718 324.62 289.09 324.62H298.604C298.948 324.62 299.235 324.85 299.235 325.165V330.81C299.177 331.097 298.919 331.354 298.575 331.354ZM299.177 341.069V346.17C299.177 346.456 298.891 346.714 298.547 346.714H293.962C293.675 346.714 293.417 346.542 293.36 346.284L292.157 341.183C292.071 340.84 292.386 340.524 292.758 340.524H298.547C298.919 340.524 299.177 340.782 299.177 341.069ZM301.04 340.524H306.742C307.115 340.524 307.402 340.811 307.373 341.126L306.742 346.227C306.714 346.513 306.456 346.714 306.112 346.714H301.04C300.696 346.714 300.409 346.485 300.409 346.17V341.069C300.438 340.782 300.696 340.524 301.04 340.524ZM309.264 340.524H316.801C317.173 340.524 317.488 340.84 317.402 341.155L316.371 346.256C316.314 346.513 316.056 346.714 315.769 346.714H308.662C308.29 346.714 308.003 346.427 308.032 346.112L308.662 341.012C308.662 340.754 308.949 340.524 309.264 340.524ZM308.892 338.862L309.637 332.93C309.665 332.644 309.923 332.443 310.267 332.443H318.434C318.807 332.443 319.122 332.759 319.036 333.074L317.832 339.006C317.775 339.263 317.517 339.464 317.231 339.464H309.522C309.15 339.464 308.863 339.178 308.892 338.862ZM318.864 331.354H310.525C310.153 331.354 309.866 331.068 309.895 330.753L310.582 325.107C310.611 324.821 310.869 324.62 311.213 324.62H320.01C320.383 324.62 320.698 324.935 320.612 325.251L319.466 330.896C319.437 331.154 319.179 331.354 318.864 331.354ZM287.142 325.05L288.46 330.695C288.546 331.039 288.231 331.354 287.858 331.354H279.949C279.691 331.354 279.462 331.211 279.376 330.982L277.055 325.337C276.912 324.993 277.198 324.62 277.628 324.62H286.511C286.827 324.62 287.084 324.792 287.142 325.05ZM284.162 340.524H290.237C290.523 340.524 290.781 340.696 290.838 340.954L292.042 346.055C292.128 346.399 291.813 346.714 291.44 346.714H286.253C285.995 346.714 285.766 346.571 285.68 346.342L283.588 341.241C283.445 340.897 283.732 340.524 284.162 340.524Z" fill="url(#paint10_linear_617_252)"/>
<path d="M334.025 435.204H275.997C272.845 435.204 270.266 432.653 270.266 429.473V427.782C270.266 424.63 272.816 422.051 275.997 422.051H334.025C337.177 422.051 339.756 424.601 339.756 427.782V429.473C339.756 432.653 337.177 435.204 334.025 435.204Z" fill="url(#paint11_linear_617_252)"/>
<path d="M291.815 429.673C291.815 429.845 291.786 430.017 291.758 430.16C291.7 430.304 291.643 430.447 291.557 430.562C291.471 430.676 291.385 430.791 291.271 430.877C291.156 430.963 291.013 431.049 290.869 431.106C290.726 431.163 290.583 431.221 290.411 431.249C290.239 431.278 290.067 431.307 289.838 431.307H288.376C288.319 431.307 288.233 431.278 288.176 431.249C288.118 431.192 288.09 431.135 288.09 431.02V425.977C288.09 425.862 288.118 425.776 288.176 425.747C288.233 425.69 288.29 425.69 288.376 425.69H289.666C290.01 425.69 290.268 425.719 290.497 425.776C290.726 425.833 290.898 425.919 291.041 426.063C291.185 426.177 291.299 426.349 291.357 426.521C291.443 426.693 291.471 426.894 291.471 427.123C291.471 427.266 291.443 427.381 291.414 427.495C291.385 427.61 291.328 427.725 291.271 427.839C291.213 427.954 291.127 428.04 291.041 428.126C290.955 428.212 290.841 428.269 290.726 428.326C290.869 428.355 291.013 428.412 291.156 428.498C291.299 428.584 291.414 428.67 291.5 428.785C291.615 428.899 291.672 429.043 291.729 429.215C291.786 429.301 291.815 429.473 291.815 429.673ZM290.669 427.151C290.669 427.008 290.64 426.894 290.612 426.779C290.583 426.664 290.526 426.578 290.44 426.492C290.354 426.406 290.239 426.349 290.124 426.32C289.981 426.292 289.809 426.263 289.609 426.263H288.835V428.097H289.695C289.895 428.097 290.038 428.068 290.153 428.011C290.268 427.954 290.382 427.897 290.44 427.811C290.526 427.725 290.583 427.639 290.612 427.495C290.669 427.381 290.669 427.266 290.669 427.151ZM291.013 429.702C291.013 429.53 290.984 429.387 290.927 429.243C290.869 429.129 290.784 429.014 290.698 428.928C290.583 428.842 290.468 428.785 290.296 428.728C290.153 428.67 289.952 428.67 289.723 428.67H288.835V430.647H289.924C290.096 430.647 290.239 430.619 290.382 430.59C290.497 430.562 290.612 430.476 290.726 430.418C290.812 430.332 290.898 430.246 290.955 430.132C290.984 430.017 291.013 429.874 291.013 429.702Z" fill="white"/>
<path d="M297.203 429.215C297.203 429.559 297.146 429.874 297.06 430.132C296.945 430.39 296.802 430.619 296.63 430.819C296.43 431.02 296.229 431.135 295.942 431.249C295.685 431.335 295.369 431.393 295.025 431.393C294.71 431.393 294.424 431.335 294.166 431.249C293.908 431.163 293.679 431.02 293.507 430.848C293.335 430.676 293.191 430.447 293.077 430.189C292.962 429.931 292.934 429.616 292.934 429.272V425.776C292.934 425.747 292.934 425.719 292.962 425.719C292.962 425.69 292.991 425.69 293.02 425.69C293.048 425.69 293.077 425.661 293.134 425.661C293.192 425.661 293.249 425.661 293.306 425.661C293.363 425.661 293.449 425.661 293.478 425.661C293.535 425.661 293.564 425.69 293.593 425.69C293.621 425.69 293.65 425.719 293.65 425.719C293.65 425.747 293.679 425.747 293.679 425.776V429.186C293.679 429.444 293.707 429.673 293.765 429.874C293.822 430.074 293.908 430.218 294.051 430.361C294.166 430.504 294.309 430.59 294.481 430.647C294.653 430.705 294.854 430.733 295.054 430.733C295.283 430.733 295.455 430.705 295.627 430.647C295.799 430.59 295.942 430.476 296.057 430.361C296.172 430.246 296.258 430.074 296.315 429.874C296.372 429.673 296.401 429.473 296.401 429.215V425.776C296.401 425.747 296.401 425.719 296.43 425.719C296.43 425.69 296.458 425.69 296.487 425.69C296.516 425.69 296.544 425.661 296.602 425.661C296.659 425.661 296.716 425.661 296.774 425.661C296.831 425.661 296.888 425.661 296.945 425.661C297.003 425.661 297.031 425.69 297.06 425.69C297.089 425.69 297.117 425.719 297.117 425.719C297.117 425.747 297.146 425.747 297.146 425.776V429.215H297.203Z" fill="white"/>
<path d="M301.814 430.991C301.814 431.049 301.814 431.077 301.814 431.135C301.814 431.163 301.786 431.221 301.786 431.221C301.757 431.249 301.757 431.278 301.728 431.278C301.7 431.278 301.7 431.307 301.671 431.307H298.949C298.891 431.307 298.805 431.278 298.748 431.249C298.691 431.192 298.662 431.135 298.662 431.02V425.977C298.662 425.862 298.691 425.776 298.748 425.747C298.805 425.69 298.863 425.69 298.949 425.69H301.642C301.671 425.69 301.7 425.69 301.7 425.719C301.728 425.719 301.728 425.747 301.757 425.776C301.757 425.805 301.786 425.833 301.786 425.862C301.786 425.891 301.786 425.948 301.786 426.005C301.786 426.063 301.786 426.091 301.786 426.149C301.786 426.177 301.757 426.206 301.757 426.234C301.757 426.263 301.728 426.292 301.7 426.292C301.671 426.292 301.671 426.32 301.642 426.32H299.436V428.097H301.327C301.356 428.097 301.384 428.097 301.384 428.126C301.413 428.126 301.413 428.154 301.442 428.183C301.47 428.212 301.47 428.24 301.47 428.269C301.47 428.298 301.47 428.355 301.47 428.412C301.47 428.47 301.47 428.498 301.47 428.556C301.47 428.584 301.442 428.613 301.442 428.642C301.442 428.67 301.413 428.67 301.384 428.699C301.356 428.699 301.356 428.728 301.327 428.728H299.436V430.762H301.671C301.7 430.762 301.728 430.762 301.728 430.791C301.757 430.791 301.757 430.819 301.786 430.848C301.814 430.877 301.814 430.905 301.814 430.934C301.814 430.877 301.814 430.905 301.814 430.991Z" fill="white"/>
<path d="M309.323 430.991C309.323 431.049 309.323 431.106 309.294 431.135C309.266 431.163 309.237 431.221 309.209 431.221C309.18 431.249 309.151 431.278 309.094 431.278C309.065 431.278 309.008 431.307 308.979 431.307H308.721C308.635 431.307 308.578 431.307 308.521 431.278C308.463 431.249 308.406 431.221 308.349 431.192C308.292 431.163 308.234 431.106 308.177 431.02C308.12 430.934 308.062 430.848 308.005 430.733L306.286 427.524C306.2 427.352 306.114 427.18 305.999 427.008C305.913 426.836 305.827 426.636 305.741 426.464C305.741 426.664 305.741 426.894 305.741 427.094C305.741 427.323 305.741 427.524 305.741 427.753V431.163C305.741 431.192 305.741 431.192 305.712 431.221C305.712 431.249 305.684 431.249 305.655 431.278C305.627 431.278 305.598 431.307 305.541 431.307C305.483 431.307 305.426 431.307 305.369 431.307C305.283 431.307 305.225 431.307 305.197 431.307C305.139 431.307 305.111 431.278 305.082 431.278C305.053 431.278 305.025 431.249 305.025 431.221C305.025 431.192 304.996 431.192 304.996 431.163V425.948C304.996 425.833 305.025 425.747 305.082 425.69C305.139 425.633 305.225 425.604 305.311 425.604H305.684C305.77 425.604 305.856 425.604 305.913 425.633C305.97 425.661 306.028 425.661 306.085 425.719C306.142 425.776 306.171 425.805 306.228 425.862C306.286 425.919 306.314 426.005 306.372 426.091L307.69 428.584C307.776 428.728 307.862 428.871 307.919 429.014C308.005 429.157 308.062 429.301 308.148 429.444C308.206 429.587 308.292 429.731 308.349 429.845C308.406 429.988 308.492 430.103 308.549 430.246C308.549 430.017 308.549 429.788 308.549 429.53C308.549 429.272 308.549 429.043 308.549 428.814V425.747C308.549 425.719 308.549 425.719 308.578 425.69C308.578 425.661 308.607 425.661 308.635 425.633C308.664 425.633 308.693 425.604 308.75 425.604C308.807 425.604 308.865 425.604 308.951 425.604C309.008 425.604 309.065 425.604 309.123 425.604C309.18 425.604 309.209 425.633 309.237 425.633C309.266 425.633 309.294 425.661 309.294 425.69C309.294 425.719 309.323 425.719 309.323 425.747V430.991Z" fill="white"/>
<path d="M315.571 428.384C315.571 428.842 315.513 429.243 315.399 429.616C315.284 429.988 315.141 430.304 314.912 430.562C314.711 430.819 314.425 431.02 314.109 431.163C313.794 431.307 313.422 431.364 312.992 431.364C312.562 431.364 312.189 431.307 311.903 431.163C311.588 431.049 311.33 430.848 311.129 430.619C310.929 430.39 310.785 430.074 310.671 429.731C310.585 429.387 310.527 428.957 310.527 428.498C310.527 428.04 310.585 427.639 310.699 427.295C310.814 426.922 310.957 426.636 311.186 426.378C311.416 426.12 311.674 425.919 311.989 425.776C312.304 425.633 312.677 425.575 313.106 425.575C313.536 425.575 313.88 425.633 314.195 425.776C314.511 425.891 314.768 426.091 314.969 426.32C315.17 426.55 315.313 426.865 315.428 427.209C315.513 427.524 315.571 427.954 315.571 428.384ZM314.768 428.441C314.768 428.126 314.74 427.811 314.682 427.553C314.625 427.266 314.539 427.037 314.396 426.836C314.253 426.636 314.081 426.464 313.88 426.349C313.651 426.234 313.393 426.177 313.049 426.177C312.734 426.177 312.447 426.234 312.218 426.349C311.989 426.464 311.817 426.636 311.674 426.836C311.53 427.037 311.444 427.266 311.387 427.553C311.33 427.839 311.301 428.097 311.301 428.412C311.301 428.756 311.33 429.043 311.387 429.329C311.444 429.616 311.53 429.845 311.674 430.046C311.817 430.246 311.989 430.418 312.189 430.504C312.419 430.619 312.677 430.676 313.02 430.676C313.336 430.676 313.622 430.619 313.851 430.504C314.081 430.39 314.253 430.218 314.396 430.017C314.539 429.816 314.625 429.559 314.682 429.301C314.74 429.043 314.768 428.756 314.768 428.441Z" fill="white"/>
<path d="M322.074 431.135C322.074 431.163 322.046 431.221 322.017 431.221C321.988 431.249 321.96 431.278 321.931 431.278C321.902 431.278 321.845 431.307 321.788 431.307C321.73 431.307 321.644 431.307 321.559 431.307C321.473 431.307 321.387 431.307 321.329 431.307C321.272 431.307 321.215 431.278 321.186 431.278C321.157 431.278 321.129 431.249 321.1 431.221C321.071 431.192 321.071 431.163 321.043 431.135L319.868 426.865L318.779 431.135C318.779 431.163 318.75 431.221 318.722 431.221C318.693 431.249 318.664 431.278 318.636 431.278C318.607 431.278 318.55 431.307 318.492 431.307C318.435 431.307 318.349 431.307 318.263 431.307C318.177 431.307 318.091 431.307 318.034 431.307C317.977 431.307 317.919 431.278 317.891 431.278C317.862 431.278 317.805 431.249 317.805 431.221C317.776 431.192 317.776 431.163 317.747 431.135L316.257 425.919C316.229 425.862 316.229 425.805 316.229 425.776C316.229 425.747 316.229 425.719 316.257 425.69C316.286 425.661 316.314 425.661 316.372 425.661C316.429 425.661 316.515 425.661 316.601 425.661C316.687 425.661 316.773 425.661 316.802 425.661C316.859 425.661 316.888 425.661 316.916 425.69C316.945 425.69 316.974 425.719 316.974 425.747C316.974 425.776 317.002 425.805 317.002 425.833L318.263 430.562L319.467 425.833C319.467 425.805 319.495 425.776 319.495 425.747C319.495 425.719 319.524 425.719 319.553 425.69C319.581 425.69 319.61 425.661 319.667 425.661C319.725 425.661 319.782 425.661 319.868 425.661C319.954 425.661 320.011 425.661 320.068 425.661C320.126 425.661 320.154 425.69 320.183 425.69C320.212 425.69 320.24 425.719 320.24 425.747C320.24 425.776 320.269 425.805 320.269 425.833L321.559 430.562L322.791 425.833C322.791 425.805 322.819 425.776 322.819 425.747C322.819 425.719 322.848 425.719 322.877 425.69C322.905 425.69 322.934 425.661 322.991 425.661C323.049 425.661 323.106 425.661 323.192 425.661C323.278 425.661 323.335 425.661 323.393 425.661C323.45 425.661 323.478 425.69 323.507 425.69C323.536 425.719 323.536 425.747 323.536 425.776C323.536 425.805 323.536 425.862 323.507 425.919L322.074 431.135Z" fill="white"/>
<path d="M350.62 403.797H259.408V406.662H350.62V403.797Z" fill="#DDE8FE"/>
<path d="M350.62 410.445H259.408V413.311H350.62V410.445Z" fill="#DDE8FE"/>
<path d="M350.62 397.149H259.408V400.014H350.62V397.149Z" fill="#DDE8FE"/>
<path d="M350.62 390.5H259.408V393.366H350.62V390.5Z" fill="#DDE8FE"/>
<path d="M350.62 383.852H259.408V386.718H350.62V383.852Z" fill="#DDE8FE"/>
<path opacity="0.3" d="M461.919 346.685C462.292 351.442 458.366 355.368 453.609 354.996C449.884 354.709 446.846 351.672 446.56 347.946C446.187 343.189 450.113 339.263 454.87 339.636C458.624 339.923 461.633 342.931 461.919 346.685Z" fill="#4951EC"/>
<path d="M456.562 350.525H451.978C451.462 350.525 451.061 350.124 451.061 349.608V345.023C451.061 344.508 451.462 344.106 451.978 344.106H456.562C457.078 344.106 457.48 344.508 457.48 345.023V349.608C457.451 350.095 457.05 350.525 456.562 350.525ZM451.949 344.336C451.576 344.336 451.29 344.622 451.29 344.995V349.58C451.29 349.952 451.576 350.239 451.949 350.239H456.534C456.906 350.239 457.193 349.952 457.193 349.58V344.995C457.193 344.622 456.906 344.336 456.534 344.336H451.949Z" fill="#DAEEF7"/>
<path opacity="0.5" d="M177.049 182.057C178.482 175.838 184.041 171.196 190.718 171.196C191.95 171.196 193.125 171.339 194.271 171.654C197.567 164.634 204.702 159.762 212.955 159.762C215.104 159.762 217.167 160.077 219.087 160.679C223.529 153.315 231.639 148.386 240.866 148.386C251.87 148.386 261.24 155.378 264.794 165.15C267.315 163.745 270.21 162.943 273.276 162.943C282.904 162.943 290.727 170.766 290.727 180.395C290.727 180.968 290.699 181.541 290.641 182.085H177.049V182.057Z" fill="#DDE8FE"/>
<path opacity="0.5" d="M106.066 132.912C106.897 129.301 110.107 126.636 113.947 126.636C114.663 126.636 115.351 126.722 115.981 126.894C117.873 122.825 121.999 120.016 126.785 120.016C128.017 120.016 129.22 120.217 130.338 120.561C132.917 116.291 137.588 113.454 142.918 113.454C149.28 113.454 154.696 117.495 156.73 123.14C158.192 122.337 159.854 121.879 161.63 121.879C167.19 121.879 171.717 126.407 171.717 131.966C171.717 132.31 171.689 132.625 171.66 132.94H106.066V132.912Z" fill="#DDE8FE"/>
<path opacity="0.5" d="M262.959 93.0797C263.332 91.4463 264.793 90.2427 266.512 90.2427C266.828 90.2427 267.143 90.2714 267.429 90.3573C268.289 88.5233 270.152 87.2625 272.301 87.2625C272.845 87.2625 273.39 87.3485 273.906 87.4917C275.08 85.5718 277.172 84.2823 279.579 84.2823C282.445 84.2823 284.881 86.1162 285.826 88.638C286.486 88.2654 287.231 88.0649 288.033 88.0649C290.555 88.0649 292.589 90.0994 292.589 92.6212C292.589 92.7644 292.589 92.9077 292.561 93.051H262.959V93.0797Z" fill="#DDE8FE"/>
<path opacity="0.5" d="M352.336 116.778C351.505 113.167 348.296 110.502 344.456 110.502C343.74 110.502 343.052 110.588 342.422 110.76C340.53 106.691 336.404 103.883 331.618 103.883C330.386 103.883 329.182 104.084 328.065 104.427C325.486 100.158 320.815 97.3207 315.485 97.3207C309.123 97.3207 303.707 101.361 301.673 107.006C300.211 106.204 298.549 105.746 296.772 105.746C291.213 105.746 286.686 110.273 286.686 115.832C286.686 116.176 286.714 116.492 286.743 116.807H352.336V116.778Z" fill="#DDE8FE"/>
<path d="M414.722 345.167C416.212 350.497 420.883 355.655 427.531 359.351C433.749 362.79 441.057 364.653 448.278 364.653C448.908 364.653 449.539 364.653 450.169 364.624L452.376 364.538L453.379 364.595C454.009 364.624 454.64 364.653 455.27 364.653C462.52 364.653 469.827 362.819 476.046 359.38C482.694 355.712 487.393 350.525 488.884 345.224C490.775 338.49 487.623 332.243 480.201 328.145C476.132 325.91 471.948 325.652 468.079 327.429C462.692 329.922 458.021 336.341 454.21 346.513C453.235 349.121 452.433 351.643 451.803 353.792C451.172 351.643 450.398 349.15 449.424 346.571C445.613 336.398 440.942 329.979 435.583 327.486C431.743 325.68 427.531 325.938 423.462 328.174C416.011 332.185 412.83 338.404 414.722 345.167ZM458.021 357.489C458.651 355.139 459.568 352.044 460.772 348.835C463.838 340.725 467.477 335.366 471.031 333.733C471.604 333.475 472.378 333.188 473.352 333.188C474.298 333.188 475.444 333.446 476.819 334.22C481.347 336.713 483.152 339.751 482.149 343.247C480.315 349.78 470.028 356.6 458.021 357.489ZM426.815 334.249C428.19 333.504 429.336 333.246 430.282 333.246C431.256 333.246 432.001 333.504 432.603 333.79C436.128 335.424 439.767 340.811 442.833 348.921C444.037 352.13 444.954 355.225 445.584 357.575C433.577 356.658 423.29 349.809 421.456 343.304C420.482 339.751 422.287 336.713 426.815 334.249Z" fill="url(#paint12_linear_617_252)"/>
<path d="M405.036 459.304L494.988 459.389C499.83 459.389 503.756 455.464 503.756 450.621L503.814 371.272C503.814 366.429 499.888 362.503 495.045 362.503L405.094 362.418C400.251 362.418 396.325 366.343 396.325 371.186L396.268 450.535C396.268 455.349 400.193 459.275 405.036 459.304Z" fill="#BED1F9"/>
<path d="M396.297 410.846L503.786 410.932L503.814 373.765C503.814 367.547 498.771 362.475 492.552 362.475L407.587 362.389C401.369 362.389 396.297 367.432 396.297 373.651V410.846Z" fill="#92B5F9"/>
<path d="M394.435 398.581L505.678 398.667C508.887 398.667 511.466 396.088 511.466 392.879L511.495 368.263C511.495 365.054 508.916 362.475 505.706 362.475L394.464 362.389C391.254 362.389 388.675 364.968 388.675 368.177L388.646 392.793C388.646 396.002 391.254 398.581 394.435 398.581Z" fill="#BED1F9"/>
<path d="M437.124 459.308L461.625 459.33L461.71 362.444L437.209 362.422L437.124 459.308Z" fill="url(#paint13_linear_617_252)"/>
<path d="M437.142 410.871L461.643 410.893L461.653 398.657L437.153 398.635L437.142 410.871Z" fill="#92B5F9"/>
<path d="M290.21 269.83L288.319 274.071C288.176 274.415 288.319 274.845 288.663 274.988L298.578 279.43C299.294 279.745 299.982 278.943 299.552 278.283L295.712 272.294C295.712 272.294 292.675 272.839 290.21 269.83Z" fill="url(#paint14_linear_617_252)"/>
<path d="M277.599 269.83L275.707 274.071C275.564 274.415 275.708 274.845 276.051 274.988L285.966 279.43C286.683 279.745 287.37 278.943 286.941 278.283L283.101 272.294C283.101 272.294 280.063 272.839 277.599 269.83Z" fill="url(#paint15_linear_617_252)"/>
<path d="M256.167 152.971L255.106 159.59L252.871 150.764C252.871 150.764 255.995 149.245 256.138 149.79C256.281 150.334 256.167 152.971 256.167 152.971Z" fill="url(#paint16_linear_617_252)"/>
<path d="M238.427 167.213L237.453 178.646L247.569 178.159L246.394 168.044L238.427 167.213Z" fill="#AAAAAA"/>
<path d="M246.937 172.858L246.392 168.044L238.426 167.213L238.082 171.167C239.687 172.743 242.524 174.377 246.937 172.858Z" fill="#AAAAAA"/>
<path d="M253.125 159.504C252.523 160.765 252.839 162.169 253.842 162.656C254.845 163.144 256.163 162.513 256.764 161.252C257.366 159.991 257.051 158.587 256.048 158.1C255.045 157.613 253.756 158.243 253.125 159.504Z" fill="#AAAAAA"/>
<path d="M254.589 160.421C254.647 160.106 254.704 159.762 254.79 159.447C255.105 158.157 255.191 156.753 254.962 155.292C254.274 150.621 250.492 146.867 245.792 146.237C239.488 145.377 233.9 150.048 233.527 156.238C232.868 155.808 232.123 155.693 231.435 155.951C230.117 156.438 229.544 158.157 230.175 159.82C230.776 161.453 232.352 162.399 233.671 161.911C233.843 161.854 234.014 161.739 234.186 161.625C234.387 166.926 238.456 171.282 243.643 171.511C246.193 171.626 248.543 170.737 250.377 169.19C252.841 167.356 254.102 163.459 254.589 160.421Z" fill="#AAAAAA"/>
<path d="M246.738 156.954C246.767 157.584 246.767 158.186 246.795 158.759C246.824 159.332 246.91 159.963 247.139 160.364C247.369 160.679 247.569 160.908 247.569 161.31C247.569 161.711 247.369 162.083 247.111 162.313C246.566 162.771 245.85 162.828 245.248 162.685C245.85 162.57 246.423 162.37 246.767 161.969C246.91 161.768 247.025 161.568 246.996 161.338C246.967 161.109 246.91 161.052 246.624 160.679C246.423 160.335 246.366 160.02 246.337 159.705C246.308 159.39 246.308 159.074 246.337 158.759C246.366 158.157 246.509 157.527 246.738 156.954Z" fill="#0160E7"/>
<path d="M243.156 157.584C243.242 158.243 242.64 158.788 242.01 158.645C241.637 158.559 241.351 158.243 241.293 157.871C241.207 157.212 241.809 156.667 242.44 156.811C242.812 156.897 243.099 157.212 243.156 157.584Z" fill="#0B0754"/>
<path d="M251.209 158.501C251.295 159.16 250.693 159.705 250.063 159.562C249.69 159.476 249.403 159.16 249.346 158.788C249.26 158.129 249.862 157.584 250.492 157.728C250.865 157.814 251.151 158.129 251.209 158.501Z" fill="#0B0754"/>
<path d="M241.58 164.147C241.838 164.376 242.096 164.548 242.354 164.748C242.612 164.92 242.898 165.092 243.185 165.235C243.758 165.522 244.388 165.723 245.019 165.809C245.649 165.895 246.308 165.837 246.91 165.665C247.541 165.493 248.114 165.207 248.687 164.863C248.085 165.379 247.569 165.637 246.967 165.837C246.337 166.038 245.707 166.124 244.99 166.038C244.331 165.952 243.672 165.723 243.099 165.407C242.526 165.064 242.01 164.662 241.58 164.147Z" fill="#0160E7"/>
<path d="M244.331 155.664C243.843 155.521 243.414 155.406 242.955 155.32C242.497 155.263 242.067 155.234 241.637 155.292C241.207 155.349 240.777 155.435 240.376 155.636C240.061 155.722 239.316 156.18 239.115 156.266C239.344 155.836 239.688 155.378 240.09 155.12C240.491 154.805 241.035 154.633 241.551 154.547C242.067 154.489 242.611 154.547 243.098 154.747C243.586 154.948 244.044 155.235 244.331 155.664Z" fill="#0B0754"/>
<path d="M248.486 156.123C248.859 155.779 249.346 155.578 249.862 155.492C250.378 155.406 250.922 155.435 251.409 155.578C251.925 155.75 252.384 156.037 252.727 156.409C253.1 156.753 253.329 157.269 253.472 157.728C253.301 157.613 252.641 157.011 252.355 156.868C251.982 156.61 251.581 156.438 251.18 156.295C250.779 156.152 250.349 156.094 249.89 156.066C249.461 156.037 249.002 156.066 248.486 156.123Z" fill="#0B0754"/>
<path d="M243.986 220.885C243.986 220.885 241.895 235.156 255.678 237.649C269.49 240.142 286.655 239.397 286.655 239.397L289.034 272.208L296.226 272.581C296.226 272.581 314.767 226.989 289.091 219.854L266.023 219.968L256.509 219.281C256.509 219.281 246.881 216.902 246.766 217.361C246.709 217.819 244.216 221.115 243.986 220.885Z" fill="#4951EC"/>
<path d="M231.293 220.971C231.293 220.971 229.201 235.242 242.985 237.735C256.797 240.228 273.962 239.483 273.962 239.483L276.34 272.294L283.533 272.667C283.533 272.667 302.073 227.075 276.398 219.94L253.33 220.054L243.816 219.367C243.816 219.367 234.187 216.988 234.073 217.447C234.015 217.905 231.522 221.201 231.293 220.971Z" fill="#7C9AF2"/>
<path d="M248.686 174.09C248.686 174.09 258.2 175.294 260.607 177.271C263.014 179.22 274.648 208.048 274.648 208.048L264.991 219.367L244.474 219.51C244.474 219.51 229.085 227.792 219.428 219.968C209.771 212.117 214.757 184.836 220.345 178.933C225.933 173.059 235.877 173.202 235.877 173.202C235.877 173.202 244.903 179.506 248.686 174.09Z" fill="url(#paint17_linear_617_252)"/>
<path d="M230.288 188.418C230.632 189.994 230.833 191.57 230.976 193.175C231.062 193.977 231.09 194.78 231.148 195.582C231.176 196.385 231.176 197.187 231.176 197.989C231.148 199.594 231.062 201.199 230.775 202.803C230.517 204.38 230.116 205.984 229.371 207.417C229.858 205.898 230.116 204.322 230.288 202.746C230.46 201.17 230.517 199.565 230.546 197.989C230.575 196.413 230.546 194.808 230.489 193.204C230.431 191.628 230.374 190.023 230.288 188.418Z" fill="white"/>
<path d="M258.717 187.358C259.147 189.708 259.605 192.029 260.092 194.35C260.579 196.671 261.067 198.992 261.611 201.285C262.156 203.577 262.786 205.87 263.531 208.105C263.904 209.222 264.333 210.34 264.821 211.4C265.308 212.489 265.881 213.521 266.655 214.438C265.795 213.635 265.136 212.604 264.563 211.544C263.989 210.483 263.502 209.394 263.101 208.277C262.671 207.159 262.299 206.013 261.955 204.895C261.611 203.749 261.324 202.603 261.038 201.457C260.751 200.31 260.493 199.136 260.264 197.961C260.035 196.786 259.806 195.611 259.634 194.436C259.204 192.086 258.917 189.736 258.717 187.358Z" fill="white"/>
<path d="M263.502 212.833C263.444 212.346 259.805 211.83 258.487 211.744C257.484 211.687 250.778 211.458 248.514 211.372L248.686 211.945L248.658 214.524L248.285 216.243C250.291 216.358 255.163 216.558 256.194 216.759C257.541 217.017 259.92 218.048 259.92 218.048C259.92 218.048 260.894 217.819 259.662 217.275C258.659 216.845 257.971 216.186 257.656 215.842C257.484 215.641 257.684 215.298 257.799 215.355C261.18 216.243 261.524 216.386 261.524 216.386C261.524 216.386 265.507 216.358 261.553 215.469C259.174 214.925 258.315 214.61 258.114 214.352C258.028 214.237 258.171 213.865 258.343 213.836C260.407 213.721 264.103 214.438 263.072 213.951C262.241 213.55 259.662 213.12 258.63 212.976C258.573 212.976 258.458 212.604 258.745 212.575C260.665 212.432 263.559 213.263 263.502 212.833Z" fill="#AAAAAA"/>
<path d="M227.969 207.016C228.8 207.217 229.631 207.446 230.462 207.618C231.293 207.818 232.124 207.962 232.984 208.134C234.674 208.449 236.365 208.707 238.056 208.936C239.746 209.165 241.437 209.366 243.156 209.538C244.847 209.71 246.567 209.853 248.257 209.939H248.486L248.544 210.139C248.687 210.713 248.773 211.257 248.859 211.83C248.916 212.403 248.974 212.976 248.945 213.549C248.945 214.123 248.888 214.696 248.802 215.269C248.687 215.842 248.544 216.386 248.315 216.931L248.286 216.988L248.257 217.017L246.395 218.278C245.764 218.708 245.162 219.109 244.532 219.51C245.105 219.051 245.707 218.593 246.309 218.134L248.085 216.759L248.028 216.816C248.229 216.3 248.343 215.785 248.429 215.24C248.486 214.696 248.515 214.151 248.515 213.607C248.486 213.062 248.429 212.518 248.372 211.973C248.286 211.429 248.171 210.884 248.028 210.369L248.315 210.569C247.426 210.541 246.595 210.483 245.735 210.426C244.876 210.369 244.016 210.283 243.156 210.197C241.437 210.025 239.746 209.796 238.056 209.538C236.365 209.251 234.674 208.936 233.012 208.535C232.181 208.334 231.35 208.105 230.519 207.847C229.573 207.618 228.771 207.302 227.969 207.016Z" fill="white"/>
<path d="M306.399 193.634H269.29L258.773 219.309H240.892C240.404 219.309 239.975 219.711 239.975 220.226C239.975 220.714 240.376 221.143 240.892 221.143H294.049L306.399 193.634Z" fill="#0B0754"/>
<path d="M288 208.277C287.771 209.366 286.825 210.111 285.88 209.91C284.934 209.71 284.332 208.678 284.533 207.589C284.762 206.5 285.708 205.755 286.653 205.956C287.628 206.128 288.229 207.188 288 208.277Z" fill="#DDE8FE"/>
<path d="M256.368 146.695C256.368 146.695 259.549 146.81 256.224 144.116C252.9 141.451 243.988 138.299 238.257 141.308C238.257 141.308 237.111 138.872 235.449 139.445C233.787 140.018 236.538 141.709 236.538 141.709C236.538 141.709 234.417 141.652 233.787 142.683C233.3 143.457 234.618 143.486 235.306 143.457C234.102 143.657 229.488 146.58 231.81 155.865C232.641 155.693 237.311 148.902 237.311 148.902C237.311 148.902 248.029 154.862 246.969 150.134C246.969 150.134 258.058 157.068 256.482 151.337C256.482 151.309 260.781 151.624 256.368 146.695Z" fill="url(#paint18_linear_617_252)"/>
<path d="M231.779 155.922C231.779 155.922 232.668 155.607 233.613 156.381C234.559 157.126 234.473 159.791 234.473 159.791C234.473 159.791 239.029 162.714 238.542 150.306C238.026 137.095 234.731 151.366 234.731 151.366L231.779 155.922Z" fill="url(#paint19_linear_617_252)"/>
<path d="M250.269 458.53L243.191 436.637L252.161 434.602L251.731 437.41L254.826 456.61L251.674 459.504L250.269 458.53Z" fill="#AAAAAA"/>
<path d="M225.826 433.542L228.692 457.67L232.102 459.504L233.735 456.553L235.798 432.768L225.826 433.542Z" fill="#AAAAAA"/>
<path d="M224.968 438.041C227.547 438.786 231.301 439.33 236.201 438.557L236.946 431.794L240.299 430.332L242.82 438.385C244.855 438.643 248.666 438.7 253.796 436.723L251.475 423.426H224.738C224.71 425.661 224.738 427.839 224.767 429.902C224.853 432.653 224.91 435.404 224.968 438.041Z" fill="#BED1F9"/>
<path d="M227.773 449.847L228.69 457.641L232.129 459.475L233.763 456.524L234.307 450.048C231.441 450.22 229.034 450.019 227.773 449.847Z" fill="#BED1F9"/>
<path d="M233.738 456.553V460.65C233.738 460.994 233.451 461.252 233.136 461.252H223.565C222.877 461.252 222.619 460.335 223.192 459.963L228.58 456.553C228.551 456.553 230.643 458.1 233.738 456.553Z" fill="url(#paint20_linear_617_252)"/>
<path d="M253.567 448.873C250.243 450.535 247.463 449.876 247.463 449.876L250.271 458.558L251.675 459.533L254.827 456.639L253.567 448.873Z" fill="#BED1F9"/>
<path d="M249.611 456.553V460.65C249.611 460.994 249.898 461.252 250.213 461.252H259.784C260.472 461.252 260.73 460.335 260.157 459.963L254.769 456.553C254.798 456.553 252.706 458.1 249.611 456.553Z" fill="url(#paint21_linear_617_252)"/>
<path d="M240.871 390.529H235.197V396.203H240.871V390.529Z" fill="#AAAAAA"/>
<path d="M240.871 393.939V390.529H235.197V393.423C236.401 394.082 238.235 394.455 240.871 393.939Z" fill="#AAAAAA"/>
<path d="M249.123 381.13C248.579 380.843 247.92 380.901 247.318 381.187C247.519 375.915 243.22 371.502 237.804 371.673C232.388 371.473 228.09 375.915 228.29 381.187C227.717 380.901 227.058 380.843 226.485 381.13C225.425 381.646 225.081 383.164 225.74 384.511C226.399 385.858 227.803 386.489 228.864 385.973C229.007 385.887 229.15 385.801 229.265 385.686C229.867 390.042 233.506 393.309 237.776 393.251C242.045 393.309 245.685 390.042 246.286 385.686C246.401 385.801 246.544 385.887 246.688 385.973C247.748 386.489 249.152 385.858 249.811 384.511C250.528 383.164 250.184 381.674 249.123 381.13Z" fill="#AAAAAA"/>
<path d="M231.502 394.827C231.502 394.827 238.207 400.989 244.311 394.913L231.502 394.827Z" fill="#AAAAAA"/>
<path d="M272.309 381.846C272.28 381.646 274.401 379.783 274.172 379.726C273.942 379.668 271.765 381.13 271.679 380.987C271.621 380.843 273.685 379.067 273.427 378.809C273.169 378.551 270.962 380.557 270.848 380.27C270.733 379.984 273.054 377.978 272.768 377.777C272.538 377.605 269.902 379.783 269.071 380.471C268.956 380.557 268.784 380.499 268.784 380.356C268.526 378.207 268.383 378.064 268.154 378.15C268.011 378.207 267.323 380.643 266.864 382.419C258.841 390.902 245.115 396.805 245.115 396.805C245.115 396.805 240.186 408.84 247.12 406.29C253.224 404.055 265.747 389.784 268.756 386.317L269.959 385.17C270.36 384.913 270.704 384.712 270.704 384.712C274.458 381.703 274.372 381.617 274.286 381.445C274.229 381.245 272.338 382.047 272.309 381.846Z" fill="#AAAAAA"/>
<path d="M202.642 381.846C202.67 381.646 200.55 379.783 200.779 379.726C201.008 379.668 203.186 381.13 203.272 380.987C203.329 380.843 201.266 379.067 201.524 378.809C201.782 378.551 203.988 380.557 204.103 380.27C204.218 379.984 201.897 377.978 202.183 377.777C202.412 377.605 205.049 379.783 205.88 380.471C205.994 380.557 206.166 380.499 206.166 380.356C206.424 378.207 206.568 378.064 206.797 378.15C206.94 378.207 207.628 380.643 208.086 382.419C216.11 390.902 229.836 396.805 229.836 396.805C229.836 396.805 234.765 408.84 227.83 406.29C221.727 404.055 209.204 389.784 206.195 386.317L204.991 385.17C204.59 384.913 204.246 384.712 204.246 384.712C200.492 381.703 200.578 381.617 200.664 381.445C200.722 381.245 202.613 382.047 202.642 381.846Z" fill="#AAAAAA"/>
<path d="M255.34 390.816L248.204 393.767C246.772 394.369 245.253 394.742 243.705 394.913C238.175 400.415 232.1 394.856 232.1 394.856C230.409 394.742 228.718 394.34 227.142 393.681L220.293 390.844C220.293 390.844 219.749 395.83 217.17 399.928L225.394 405.029L224.706 423.655C224.706 423.655 246.6 425.117 251.443 423.455L250.382 404.943L258.463 399.928C255.311 396.26 255.34 390.816 255.34 390.816Z" fill="url(#paint22_linear_617_252)"/>
<path d="M229.151 404.427C229.151 404.427 239.725 404.857 246.259 404.427C246.259 404.427 246.746 416.291 248.064 421.076C248.38 422.223 249.325 423.082 250.5 423.254L251.474 423.426C251.474 423.426 248.781 425.776 248.695 425.776C248.609 425.776 240.929 425.69 240.814 425.633C240.7 425.575 224.738 423.426 224.738 423.426C224.738 423.426 226.372 423.512 227.489 422.165C228.607 420.847 229.151 404.427 229.151 404.427Z" fill="#BED1F9"/>
<path d="M231.671 407.178H230.21C229.981 407.178 229.809 407.006 229.809 406.777V394.484C229.809 394.254 229.981 394.082 230.21 394.082H231.671C231.9 394.082 232.072 394.254 232.072 394.484V406.777C232.072 407.006 231.872 407.178 231.671 407.178Z" fill="#92B5F9"/>
<path d="M245.283 407.178H243.821C243.592 407.178 243.42 407.006 243.42 406.777V394.484C243.42 394.254 243.592 394.082 243.821 394.082H245.283C245.512 394.082 245.684 394.254 245.684 394.484V406.777C245.684 407.006 245.512 407.178 245.283 407.178Z" fill="#92B5F9"/>
<path d="M227.404 403.396C227.347 403.51 227.318 403.625 227.261 403.74C227.146 403.969 227.032 404.169 226.86 404.341C226.688 404.513 226.516 404.685 226.315 404.8C226.115 404.914 225.886 405 225.656 405L225.398 405.029L225.599 405.172C225.714 405.258 225.828 405.287 225.972 405.344C226.086 405.373 226.229 405.402 226.373 405.402C226.631 405.402 226.889 405.373 227.118 405.258C227.003 405.287 226.86 405.316 226.745 405.316C226.631 405.316 226.487 405.316 226.373 405.287C226.258 405.258 226.143 405.23 226.029 405.201C226 405.201 225.972 405.172 225.943 405.172C226.115 405.144 226.258 405.086 226.43 405C226.659 404.886 226.86 404.685 227.032 404.485L227.146 404.341C227.175 404.284 227.204 404.227 227.232 404.169C227.29 404.055 227.347 403.94 227.376 403.825C227.404 403.711 227.433 403.596 227.49 403.453C227.519 403.338 227.519 403.195 227.548 403.08C227.49 403.166 227.462 403.281 227.404 403.396Z" fill="#DAEEF7"/>
<path d="M248.38 403.31C248.437 403.424 248.466 403.539 248.523 403.654C248.638 403.883 248.752 404.083 248.924 404.255C249.096 404.427 249.268 404.599 249.469 404.714C249.669 404.828 249.898 404.914 250.128 404.914L250.386 404.943L250.185 405.086C250.07 405.172 249.956 405.201 249.812 405.258C249.698 405.287 249.555 405.316 249.411 405.316C249.153 405.316 248.895 405.287 248.666 405.172C248.781 405.201 248.924 405.23 249.039 405.23C249.153 405.23 249.297 405.23 249.411 405.201C249.526 405.172 249.64 405.144 249.755 405.115C249.784 405.115 249.812 405.086 249.841 405.086C249.669 405.058 249.526 405 249.354 404.914C249.125 404.8 248.924 404.599 248.752 404.399L248.638 404.255C248.609 404.198 248.58 404.141 248.552 404.083C248.494 403.969 248.437 403.854 248.408 403.74C248.38 403.625 248.351 403.51 248.294 403.367C248.265 403.252 248.265 403.109 248.236 402.994C248.294 403.052 248.351 403.195 248.38 403.31Z" fill="#DAEEF7"/>
<path d="M240.412 415.689H235.139C233.706 415.689 232.531 414.514 232.531 413.081V410.187H243.019V413.081C243.019 414.514 241.844 415.689 240.412 415.689Z" fill="#92B5F9"/>
<path d="M231.59 405.946C231.59 406.29 231.303 406.605 230.931 406.605C230.558 406.605 230.271 406.319 230.271 405.946C230.271 405.574 230.558 405.287 230.931 405.287C231.303 405.316 231.59 405.602 231.59 405.946Z" fill="#DAEEF7"/>
<path d="M245.197 405.946C245.197 406.29 244.911 406.605 244.538 406.605C244.165 406.605 243.879 406.319 243.879 405.946C243.879 405.574 244.165 405.287 244.538 405.287C244.911 405.316 245.197 405.602 245.197 405.946Z" fill="#DAEEF7"/>
<path d="M240.214 383.365C240.071 383.91 240.529 384.397 241.074 384.311C241.389 384.282 241.647 384.053 241.704 383.738C241.847 383.193 241.389 382.706 240.844 382.792C240.558 382.821 240.3 383.05 240.214 383.365Z" fill="#0B0754"/>
<path d="M233.62 383.422C233.477 383.967 233.935 384.454 234.48 384.368C234.795 384.339 235.053 384.11 235.11 383.795C235.254 383.25 234.795 382.763 234.251 382.849C233.964 382.907 233.706 383.136 233.62 383.422Z" fill="#0B0754"/>
<path d="M239.35 381.932C239.722 381.789 240.095 381.703 240.467 381.617C240.84 381.56 241.184 381.531 241.527 381.56C241.871 381.588 242.215 381.674 242.559 381.818C243.018 381.99 243.361 382.219 243.591 382.333C243.39 382.018 243.104 381.617 242.76 381.445C242.416 381.187 241.986 381.073 241.585 381.015C241.155 380.958 240.725 381.044 240.324 381.187C239.951 381.388 239.608 381.617 239.35 381.932Z" fill="#0B0754"/>
<path d="M236.256 381.932C235.998 381.617 235.654 381.359 235.282 381.216C234.909 381.044 234.451 380.987 234.021 381.015C233.591 381.073 233.161 381.187 232.817 381.445C232.473 381.646 232.187 382.018 231.986 382.333C232.244 382.219 232.559 381.99 233.018 381.818C233.362 381.674 233.706 381.588 234.05 381.56C234.393 381.531 234.766 381.531 235.11 381.617C235.511 381.674 235.884 381.789 236.256 381.932Z" fill="#0B0754"/>
<path d="M231.299 369.61C231.299 369.61 233.992 367.346 240.068 367.719C246.171 368.091 247.318 371.272 247.661 375.8L247.318 381.216C247.318 381.216 245.741 379.583 243.678 375.084C243.678 375.084 240.268 378.923 238.778 378.465C237.288 378.006 239.351 375.255 239.351 375.255C239.351 375.255 232.388 381.245 228.29 381.245C228.29 381.245 226.112 374.253 229.178 371.673C229.178 371.673 226.886 371.788 226.771 371.33C226.657 370.871 227.86 370.212 230.067 370.47C230.067 370.47 228.491 367.404 229.379 367.088C230.239 366.716 231.299 369.61 231.299 369.61Z" fill="url(#paint23_linear_617_252)"/>
<path d="M234.537 387.606C234.766 388.609 235.913 389.412 237.345 389.44C238.75 389.497 239.953 388.752 240.24 387.778L234.537 387.606Z" fill="white"/>
<path d="M237.516 382.448C237.545 382.849 237.516 383.25 237.459 383.652C237.431 383.852 237.373 384.053 237.287 384.253C237.201 384.454 237.115 384.655 236.943 384.827C236.743 384.97 236.657 385.027 236.6 385.17C236.542 385.285 236.571 385.457 236.628 385.6C236.771 385.915 237.087 386.145 237.459 386.317C237.058 386.288 236.628 386.145 236.37 385.744C236.256 385.543 236.17 385.285 236.256 385.056C236.342 384.798 236.485 384.712 236.685 384.54C236.8 384.425 236.886 384.282 236.972 384.11C237.058 383.938 237.115 383.766 237.173 383.594C237.287 383.222 237.402 382.849 237.516 382.448Z" fill="#0160E7"/>
<path d="M271.95 410.071L290.109 403.406L282.032 381.4L263.873 388.065L271.95 410.071Z" fill="#BED1F9"/>
<path d="M281.039 406.732L290.105 403.404L282.028 381.398L272.962 384.726L281.039 406.732Z" fill="#92B5F9"/>
<path d="M279.355 384.54C279.556 384.454 279.642 384.225 279.527 384.024C279.212 383.394 278.467 382.018 277.349 380.757C275.315 378.465 272.994 377.663 270.673 378.408C269.383 378.809 268.409 379.611 267.807 380.786C266.432 383.451 267.291 387.205 267.635 388.409C267.692 388.609 267.922 388.724 268.122 388.666C268.323 388.609 268.409 388.409 268.38 388.208C268.065 387.09 267.263 383.508 268.495 381.13C269.011 380.127 269.813 379.468 270.931 379.124C272.994 378.465 274.971 379.181 276.834 381.273C277.894 382.477 278.61 383.795 278.897 384.368C278.954 384.54 279.183 384.597 279.355 384.54Z" fill="#DAEEF7"/>
<path d="M212.511 388.783L194.352 382.118L186.274 404.124L204.433 410.789L212.511 388.783Z" fill="#BED1F9"/>
<path d="M203.408 385.445L194.342 382.117L186.264 404.123L195.33 407.451L203.408 385.445Z" fill="#92B5F9"/>
<path d="M197.026 385.256C196.825 385.17 196.739 384.941 196.854 384.741C197.169 384.11 197.914 382.735 199.032 381.474C201.067 379.181 203.388 378.379 205.709 379.124C206.998 379.525 207.973 380.328 208.574 381.502C209.95 384.167 209.09 387.921 208.746 389.125C208.689 389.326 208.46 389.44 208.259 389.383C208.059 389.326 207.973 389.125 208.001 388.924C208.316 387.807 209.119 384.225 207.887 381.846C207.371 380.843 206.568 380.184 205.451 379.84C203.388 379.181 201.41 379.898 199.548 381.99C198.487 383.193 197.771 384.511 197.485 385.084C197.427 385.256 197.227 385.314 197.026 385.256Z" fill="#DAEEF7"/>
<path d="M440.972 392.793L442.748 396.747C442.892 397.063 442.748 397.464 442.433 397.607L433.149 401.762C432.49 402.078 431.83 401.304 432.232 400.673L435.814 395.085C435.814 395.085 438.651 395.63 440.972 392.793Z" fill="url(#paint24_linear_617_252)"/>
<path d="M452.978 392.306L454.754 396.26C454.898 396.576 454.754 396.977 454.439 397.12L445.155 401.275C444.495 401.562 443.836 400.817 444.238 400.186L447.82 394.598C447.848 394.627 450.685 395.143 452.978 392.306Z" fill="url(#paint25_linear_617_252)"/>
<path d="M463.837 264.099C463.837 264.099 453.721 262.408 450.34 273.67L454.524 279.946C454.524 279.946 463.292 276.564 463.321 276.249C463.35 275.905 463.837 264.099 463.837 264.099Z" fill="url(#paint26_linear_617_252)"/>
<path d="M480.087 269.2C480.087 269.2 483.039 273.641 484.529 275.389C488.311 279.802 488.799 278.427 491.148 282.238C493.699 286.336 491.12 288.915 489.658 290.09C488.197 291.265 490.632 295.649 487.91 298.113C484.357 301.323 481.061 298.285 478.626 300.091C476.19 301.896 475.645 304.561 469.828 304.045C464.04 303.529 464.068 284.559 464.068 284.559C464.068 284.559 468.825 274.501 468.997 274.415C469.226 274.329 480.087 269.2 480.087 269.2Z" fill="url(#paint27_linear_617_252)"/>
<path d="M450.34 273.699C450.34 273.699 449.996 277.166 448.85 279.172C445.956 284.215 444.38 282.553 442.775 286.737C441.056 291.236 444.036 293.299 445.698 294.188C447.36 295.076 445.755 299.833 448.879 301.724C452.977 304.217 455.642 300.635 458.393 301.953C461.144 303.272 462.146 305.793 467.763 304.217C473.38 302.641 469.798 284.015 469.798 284.015C469.798 284.015 463.264 275.017 463.063 274.959C462.863 274.931 450.34 273.699 450.34 273.699Z" fill="url(#paint28_linear_617_252)"/>
<path d="M464.985 296.165C464.985 296.165 474.67 294.388 479.112 294.531C483.554 294.675 476.418 306.252 476.418 306.252L469.14 306.424C469.14 306.424 464.669 301.438 464.985 300.864C465.271 300.291 464.985 296.48 464.985 296.48V296.165Z" fill="#AAAAAA"/>
<path d="M473.639 286.909L476.189 294.675C476.189 294.675 473.954 299.26 467.163 297.282C467.163 297.282 467.936 295.678 466.905 292.382C465.816 289.001 473.639 286.909 473.639 286.909Z" fill="#AAAAAA"/>
<path opacity="0.6" d="M473.639 286.909L474.842 290.52C474.126 293.156 471.805 294.961 467.449 295.534C467.449 294.761 467.335 293.7 466.905 292.354C465.816 289.001 473.639 286.909 473.639 286.909Z" fill="#AAAAAA"/>
<path d="M458.051 281.235C458.596 282.496 458.223 283.871 457.22 284.33C456.217 284.76 454.956 284.101 454.383 282.84C453.839 281.579 454.211 280.203 455.214 279.774C456.217 279.315 457.507 279.974 458.051 281.235Z" fill="#0160E7"/>
<path d="M457.765 286.966C457.106 285.333 456.763 283.613 456.562 282.095C456.533 281.78 456.476 281.436 456.39 281.12C456.132 279.831 456.103 278.455 456.361 277.023C457.221 272.438 461.061 268.884 465.703 268.426C471.95 267.795 477.28 272.61 477.424 278.713C478.083 278.312 478.828 278.226 479.487 278.484C480.776 279.029 481.263 280.748 480.604 282.324C479.945 283.929 478.369 284.788 477.08 284.244C476.908 284.158 476.736 284.072 476.592 283.957C476.191 289.173 472.036 293.299 466.935 293.357C463.124 293.443 459.342 291.121 457.765 286.966Z" fill="#AAAAAA"/>
<path d="M464.439 278.971C464.639 279.544 464.754 280.146 464.782 280.777C464.811 281.092 464.782 281.407 464.754 281.722C464.696 282.037 464.639 282.353 464.439 282.668C464.209 282.954 464.095 283.069 464.037 283.298C464.009 283.499 464.095 283.728 464.238 283.929C464.553 284.33 465.126 284.559 465.728 284.674C465.126 284.788 464.439 284.702 463.923 284.244C463.665 284.015 463.464 283.642 463.493 283.241C463.522 282.84 463.694 282.639 463.951 282.324C464.066 282.123 464.152 281.865 464.209 281.608C464.267 281.35 464.295 281.034 464.324 280.748C464.381 280.175 464.41 279.573 464.439 278.971Z" fill="#0160E7"/>
<path d="M467.966 279.716C467.851 280.375 468.424 280.92 469.083 280.805C469.456 280.719 469.743 280.433 469.8 280.06C469.914 279.401 469.341 278.857 468.682 278.971C468.31 279.057 468.023 279.344 467.966 279.716Z" fill="#0B0754"/>
<path d="M459.999 280.318C459.884 280.977 460.458 281.522 461.088 281.407C461.461 281.321 461.747 281.035 461.804 280.662C461.919 280.003 461.346 279.458 460.687 279.573C460.343 279.659 460.056 279.946 459.999 280.318Z" fill="#0B0754"/>
<path opacity="0.3" d="M468.109 286.966C468.109 286.966 466.791 286.479 465.53 287.31C465.53 287.31 464.183 286.45 463.123 287.281C463.123 287.281 463.61 289.287 465.845 289.144C468.052 289.001 468.109 286.966 468.109 286.966Z" fill="#0160E7"/>
<path d="M469.253 286.25C468.995 286.45 468.737 286.651 468.479 286.794C468.222 286.966 467.935 287.11 467.648 287.253C467.075 287.511 466.445 287.683 465.814 287.74C465.184 287.797 464.554 287.711 463.952 287.539C463.35 287.339 462.777 287.052 462.232 286.68C462.462 286.909 462.72 287.11 463.006 287.281C463.293 287.453 463.579 287.597 463.894 287.711C464.21 287.826 464.525 287.912 464.84 287.969C465.155 287.998 465.499 288.027 465.843 287.998C466.502 287.941 467.133 287.74 467.734 287.425C468.279 287.11 468.823 286.708 469.253 286.25Z" fill="#0160E7"/>
<path d="M466.846 277.768C467.333 277.653 467.763 277.538 468.221 277.481C468.651 277.424 469.081 277.424 469.511 277.51C469.912 277.567 470.342 277.682 470.743 277.882C471.058 277.997 471.775 278.455 471.975 278.541C471.775 278.112 471.459 277.653 471.029 277.395C470.628 277.08 470.112 276.879 469.625 276.793C469.11 276.707 468.565 276.765 468.107 276.937C467.619 277.109 467.161 277.367 466.846 277.768Z" fill="url(#paint29_linear_617_252)"/>
<path d="M462.748 278.083C462.375 277.739 461.917 277.51 461.43 277.395C460.943 277.281 460.398 277.281 459.882 277.424C459.395 277.567 458.908 277.825 458.535 278.198C458.163 278.513 457.905 279 457.762 279.458C457.934 279.344 458.621 278.799 458.908 278.656C459.28 278.398 459.682 278.255 460.083 278.14C460.484 278.026 460.914 277.968 461.372 277.968C461.802 277.968 462.261 277.997 462.748 278.083Z" fill="url(#paint30_linear_617_252)"/>
<path d="M481.836 343.533C481.836 343.533 484.701 356.973 471.72 360.154C458.768 363.335 442.405 363.678 442.405 363.678L442.09 394.999L435.27 395.773C435.27 395.773 414.924 353.592 438.88 345.281L460.802 343.992L469.8 342.788C469.8 342.788 478.798 339.951 478.913 340.381C479.085 340.782 481.635 343.762 481.836 343.533Z" fill="#4951EC"/>
<path d="M493.898 342.846C493.898 342.846 496.764 356.285 483.783 359.466C470.83 362.647 454.468 362.991 454.468 362.991L454.152 394.312L447.332 395.085C447.332 395.085 426.986 352.904 450.943 344.594L472.865 343.304L481.863 342.1C481.863 342.1 490.861 339.264 490.975 339.693C491.119 340.095 493.698 343.075 493.898 342.846Z" fill="#7C9AF2"/>
<path d="M450.54 363.879C450.913 363.822 451.285 363.736 451.658 363.65C452.03 363.564 452.403 363.478 452.747 363.363C452.919 363.306 453.119 363.249 453.291 363.191C453.09 363.163 452.919 363.105 452.747 363.019C452.403 362.905 452.059 362.704 451.744 362.504C451.428 362.274 451.142 362.045 450.913 361.758C450.655 361.472 450.454 361.185 450.254 360.87L450.626 361.271C450.769 361.386 450.884 361.529 451.027 361.644C451.285 361.902 451.6 362.102 451.887 362.274C452.202 362.446 452.517 362.618 452.861 362.733C453.205 362.847 453.549 362.933 453.893 362.933L454.495 362.962L453.95 363.22C453.578 363.392 453.234 363.506 452.861 363.592C452.489 363.707 452.116 363.764 451.744 363.822C451.371 363.879 450.999 363.936 450.597 363.965C450.225 363.994 449.824 364.022 449.451 364.022C449.795 363.994 450.168 363.936 450.54 363.879Z" fill="white"/>
<path d="M453.98 315.021C453.98 315.021 453.091 336.971 450.627 340.41L464.21 337.315V313.416L453.98 315.021Z" fill="#AAAAAA"/>
<path d="M459.77 318.029C459.77 318.029 461.661 323.56 462.005 326.483C462.864 333.762 461.919 338.92 460.429 343.075C458.308 348.892 475.588 346.771 475.96 346.599C476.304 346.428 491.119 340.696 491.119 340.696L493.927 332.501V318.029L493.125 311.41L459.77 318.029Z" fill="#BED1F9"/>
<path d="M501.178 311.41L490.289 315.106C490.289 315.106 492.18 332.501 491.578 334.965C491.062 337.086 483.182 341.269 478.196 343.619C477.393 343.992 476.505 344.164 475.617 344.078C472.78 343.848 467.736 343.39 466.934 343.361C465.702 343.275 462.263 343.361 462.148 343.791C462.034 344.192 464.813 343.763 466.619 344.135C466.877 344.192 466.733 344.536 466.676 344.536C465.731 344.565 463.266 344.679 462.464 344.937C461.461 345.281 464.985 344.995 466.877 345.367C467.02 345.396 467.106 345.768 467.02 345.854C466.791 346.084 465.96 346.284 463.696 346.513C459.913 346.886 463.61 347.373 463.61 347.373C463.61 347.373 463.954 347.287 467.192 346.829C467.307 346.8 467.45 347.144 467.278 347.316C466.963 347.602 466.246 348.118 465.272 348.433C464.068 348.806 464.928 349.121 464.928 349.121C464.928 349.121 467.221 348.433 468.51 348.347C469.484 348.262 474.012 348.634 475.903 348.749L476.047 348.433C478.568 348.347 498.742 347.832 500.691 335.338C502.697 322.414 501.178 311.41 501.178 311.41Z" fill="#AAAAAA"/>
<path d="M422.115 323.875H456.789L466.618 347.86H483.324C483.783 347.86 484.184 348.233 484.184 348.691C484.184 349.15 483.812 349.551 483.324 349.551H433.664L422.115 323.875Z" fill="#0B0754"/>
<path d="M439.282 337.573C439.483 338.604 440.371 339.292 441.259 339.092C442.148 338.92 442.721 337.945 442.52 336.914C442.32 335.882 441.431 335.194 440.543 335.395C439.655 335.567 439.082 336.541 439.282 337.573Z" fill="#DDE8FE"/>
<path d="M464.985 296.165C464.985 296.165 471.576 303.845 479.113 294.531C479.113 294.531 487.366 293.872 493.441 298.171C499.516 302.498 503.184 312.212 503.184 312.212C503.184 312.212 492.151 317.771 489.429 318.029H458.824C458.824 318.029 454.153 317.686 449.654 315.393C449.654 315.364 450.428 299.947 464.985 296.165Z" fill="#BED1F9"/>
<path d="M485.416 309.261C485.703 310.206 485.961 311.181 486.219 312.126C486.706 314.018 487.136 315.823 487.451 317.743C488.053 317.772 488.712 317.686 489.314 317.6C492.494 317.026 494.586 316.138 497.423 314.992C501.664 313.072 501.091 313.244 503.24 312.184C500.747 313.76 499.429 314.447 497.624 315.364C495.131 316.511 492.781 317.571 489.428 318.173C487.967 318.373 487.537 318.316 486.992 318.259C486.763 316.855 486.534 315.393 485.846 312.212L485.216 309.289L484.557 306.395C484.843 307.369 485.13 308.315 485.416 309.261Z" fill="#0B0754"/>
<path d="M461.26 304.189C460.83 305.306 460.429 306.452 460.085 307.599C459.741 308.745 459.426 309.891 459.225 311.066C459.025 312.069 458.91 313.358 458.939 314.591C458.996 315.766 460.715 321.325 461.231 322.414C460.515 321.439 458.595 315.852 458.48 314.619C458.337 313.387 458.423 312.155 458.652 310.951C458.881 309.748 459.197 308.602 459.655 307.455C460.114 306.309 460.629 305.192 461.26 304.189Z" fill="#0B0754"/>
<path d="M477.451 278.713C477.451 278.713 466.131 275.991 460.744 268.311C460.744 268.311 460.658 261.319 471.032 262.895C481.119 264.443 483.497 274.272 477.451 278.713Z" fill="url(#paint31_linear_617_252)"/>
<defs>
<linearGradient id="paint0_linear_617_252" x1="312.5" y1="0" x2="312.5" y2="500" gradientUnits="userSpaceOnUse">
<stop stop-color="#0160E7"/>
<stop offset="1" stop-color="#013681"/>
</linearGradient>
<linearGradient id="paint1_linear_617_252" x1="511.423" y1="408.365" x2="511.423" y2="455.607" gradientUnits="userSpaceOnUse">
<stop stop-color="#0160E7"/>
<stop offset="1" stop-color="#013681"/>
</linearGradient>
<linearGradient id="paint2_linear_617_252" x1="461.348" y1="439.263" x2="561.586" y2="439.263" gradientUnits="userSpaceOnUse">
<stop stop-color="#0160E7"/>
<stop offset="1" stop-color="#013681"/>
</linearGradient>
<linearGradient id="paint3_linear_617_252" x1="116.22" y1="249.231" x2="116.22" y2="375.308" gradientUnits="userSpaceOnUse">
<stop stop-color="#0160E7"/>
<stop offset="1" stop-color="#013681"/>
</linearGradient>
<linearGradient id="paint4_linear_617_252" x1="117.814" y1="43.5334" x2="117.814" y2="59.5521" gradientUnits="userSpaceOnUse">
<stop stop-color="#0160E7"/>
<stop offset="1" stop-color="#013681"/>
</linearGradient>
<linearGradient id="paint5_linear_617_252" x1="472.12" y1="107.064" x2="472.12" y2="123.054" gradientUnits="userSpaceOnUse">
<stop stop-color="#0160E7"/>
<stop offset="1" stop-color="#013681"/>
</linearGradient>
<linearGradient id="paint6_linear_617_252" x1="329.012" y1="147.24" x2="329.012" y2="156.352" gradientUnits="userSpaceOnUse">
<stop stop-color="#0160E7"/>
<stop offset="1" stop-color="#013681"/>
</linearGradient>
<linearGradient id="paint7_linear_617_252" x1="305.012" y1="256.018" x2="305.012" y2="276.908" gradientUnits="userSpaceOnUse">
<stop stop-color="#0160E7"/>
<stop offset="1" stop-color="#013681"/>
</linearGradient>
<linearGradient id="paint8_linear_617_252" x1="294.196" y1="353.076" x2="294.196" y2="361.214" gradientUnits="userSpaceOnUse">
<stop stop-color="#0160E7"/>
<stop offset="1" stop-color="#013681"/>
</linearGradient>
<linearGradient id="paint9_linear_617_252" x1="310.612" y1="353.076" x2="310.612" y2="361.214" gradientUnits="userSpaceOnUse">
<stop stop-color="#0160E7"/>
<stop offset="1" stop-color="#013681"/>
</linearGradient>
<linearGradient id="paint10_linear_617_252" x1="305.014" y1="314.408" x2="305.014" y2="353.018" gradientUnits="userSpaceOnUse">
<stop stop-color="#0160E7"/>
<stop offset="1" stop-color="#013681"/>
</linearGradient>
<linearGradient id="paint11_linear_617_252" x1="305.011" y1="422.051" x2="305.011" y2="435.204" gradientUnits="userSpaceOnUse">
<stop stop-color="#0160E7"/>
<stop offset="1" stop-color="#013681"/>
</linearGradient>
<linearGradient id="paint12_linear_617_252" x1="451.804" y1="326.26" x2="451.804" y2="364.653" gradientUnits="userSpaceOnUse">
<stop stop-color="#0160E7"/>
<stop offset="1" stop-color="#013681"/>
</linearGradient>
<linearGradient id="paint13_linear_617_252" x1="449.375" y1="459.319" x2="449.46" y2="362.433" gradientUnits="userSpaceOnUse">
<stop stop-color="#0160E7"/>
<stop offset="1" stop-color="#013681"/>
</linearGradient>
<linearGradient id="paint14_linear_617_252" x1="293.974" y1="269.83" x2="293.974" y2="279.5" gradientUnits="userSpaceOnUse">
<stop stop-color="#0160E7"/>
<stop offset="1" stop-color="#013681"/>
</linearGradient>
<linearGradient id="paint15_linear_617_252" x1="281.363" y1="269.83" x2="281.363" y2="279.5" gradientUnits="userSpaceOnUse">
<stop stop-color="#0160E7"/>
<stop offset="1" stop-color="#013681"/>
</linearGradient>
<linearGradient id="paint16_linear_617_252" x1="254.541" y1="149.672" x2="254.541" y2="159.59" gradientUnits="userSpaceOnUse">
<stop stop-color="#0160E7"/>
<stop offset="1" stop-color="#013681"/>
</linearGradient>
<linearGradient id="paint17_linear_617_252" x1="244.308" y1="173.202" x2="244.308" y2="223.33" gradientUnits="userSpaceOnUse">
<stop stop-color="#0160E7"/>
<stop offset="1" stop-color="#013681"/>
</linearGradient>
<linearGradient id="paint18_linear_617_252" x1="244.763" y1="139.358" x2="244.763" y2="155.865" gradientUnits="userSpaceOnUse">
<stop stop-color="#0160E7"/>
<stop offset="1" stop-color="#013681"/>
</linearGradient>
<linearGradient id="paint19_linear_617_252" x1="235.179" y1="144.697" x2="235.179" y2="160.091" gradientUnits="userSpaceOnUse">
<stop stop-color="#0160E7"/>
<stop offset="1" stop-color="#013681"/>
</linearGradient>
<linearGradient id="paint20_linear_617_252" x1="228.307" y1="456.553" x2="228.307" y2="461.252" gradientUnits="userSpaceOnUse">
<stop stop-color="#0160E7"/>
<stop offset="1" stop-color="#013681"/>
</linearGradient>
<linearGradient id="paint21_linear_617_252" x1="255.042" y1="456.553" x2="255.042" y2="461.252" gradientUnits="userSpaceOnUse">
<stop stop-color="#0160E7"/>
<stop offset="1" stop-color="#013681"/>
</linearGradient>
<linearGradient id="paint22_linear_617_252" x1="237.817" y1="390.816" x2="237.817" y2="424.249" gradientUnits="userSpaceOnUse">
<stop stop-color="#0160E7"/>
<stop offset="1" stop-color="#013681"/>
</linearGradient>
<linearGradient id="paint23_linear_617_252" x1="237.213" y1="367.055" x2="237.213" y2="381.245" gradientUnits="userSpaceOnUse">
<stop stop-color="#0160E7"/>
<stop offset="1" stop-color="#013681"/>
</linearGradient>
<linearGradient id="paint24_linear_617_252" x1="437.457" y1="392.793" x2="437.457" y2="401.835" gradientUnits="userSpaceOnUse">
<stop stop-color="#0160E7"/>
<stop offset="1" stop-color="#013681"/>
</linearGradient>
<linearGradient id="paint25_linear_617_252" x1="449.463" y1="392.306" x2="449.463" y2="401.338" gradientUnits="userSpaceOnUse">
<stop stop-color="#0160E7"/>
<stop offset="1" stop-color="#013681"/>
</linearGradient>
<linearGradient id="paint26_linear_617_252" x1="457.088" y1="264.009" x2="457.088" y2="279.946" gradientUnits="userSpaceOnUse">
<stop stop-color="#0160E7"/>
<stop offset="1" stop-color="#013681"/>
</linearGradient>
<linearGradient id="paint27_linear_617_252" x1="478.148" y1="269.2" x2="478.148" y2="304.11" gradientUnits="userSpaceOnUse">
<stop stop-color="#0160E7"/>
<stop offset="1" stop-color="#013681"/>
</linearGradient>
<linearGradient id="paint28_linear_617_252" x1="456.59" y1="273.699" x2="456.59" y2="304.719" gradientUnits="userSpaceOnUse">
<stop stop-color="#0160E7"/>
<stop offset="1" stop-color="#013681"/>
</linearGradient>
<linearGradient id="paint29_linear_617_252" x1="469.41" y1="276.754" x2="469.41" y2="278.541" gradientUnits="userSpaceOnUse">
<stop stop-color="#0160E7"/>
<stop offset="1" stop-color="#013681"/>
</linearGradient>
<linearGradient id="paint30_linear_617_252" x1="460.255" y1="277.312" x2="460.255" y2="279.458" gradientUnits="userSpaceOnUse">
<stop stop-color="#0160E7"/>
<stop offset="1" stop-color="#013681"/>
</linearGradient>
<linearGradient id="paint31_linear_617_252" x1="470.742" y1="262.664" x2="470.742" y2="278.713" gradientUnits="userSpaceOnUse">
<stop stop-color="#0160E7"/>
<stop offset="1" stop-color="#013681"/>
</linearGradient>
</defs>
</svg>
