<svg width="625" height="500" viewBox="0 0 625 500" fill="none" xmlns="http://www.w3.org/2000/svg">
<path opacity="0.1" d="M3.87593 224.102C-14.9808 149.977 39.5345 115.057 69.1492 106.863C93.3239 101.19 164.519 81.1455 255.901 46.3518C347.284 11.5581 428.15 4.12028 457.161 4.7506C650.079 -34.5814 637.871 179.98 607.652 292.177C546.73 529.682 321.175 515.941 216.012 479.382C68.0596 453.665 12.9411 298.48 3.87593 224.102Z" fill="url(#paint0_linear_617_252)"/>
<path d="M509.994 321.51C496.481 319.632 484.868 321.164 474.917 324.877C474.744 330.662 474.42 337.57 474.42 337.57L468.247 327.813C432.371 345.967 421.189 392.679 421.189 392.679C450.827 397.32 470.6 391.858 483.789 382.231C482.58 378.259 480.724 372.366 480.724 372.366L487.89 378.928C493.826 373.662 498.187 367.488 501.36 361.206C497.625 357.817 493.459 353.867 493.459 353.867L504.144 354.99C510.879 337.807 509.994 321.51 509.994 321.51Z" fill="#7C9AF2"/>
<path d="M483.789 382.21C482.58 378.238 480.723 372.345 480.723 372.345L487.89 378.907C493.826 373.64 498.186 367.466 501.36 361.185C497.625 357.796 493.459 353.846 493.459 353.846L504.144 354.968C510.879 337.786 510.016 321.51 510.016 321.51C466.088 338.994 421.211 392.657 421.211 392.657C450.827 397.298 470.6 391.837 483.789 382.21Z" fill="#4951EC"/>
<path d="M499.635 383.915C493.418 377.331 486.748 373.316 480.056 371.114C477.574 374.05 474.552 377.482 474.552 377.482L475.394 369.862C449.275 364.401 424.105 383.958 424.105 383.958C437.532 398.658 450.052 404.011 460.866 404.486C461.881 401.918 463.37 398.097 463.37 398.097L464.363 404.465C469.63 404.184 474.444 402.803 478.696 400.86C478.157 397.557 477.639 393.78 477.639 393.78L482.711 398.788C493.332 392.722 499.635 383.915 499.635 383.915Z" fill="url(#paint1_linear_617_252)"/>
<path d="M460.888 404.508C461.902 401.939 463.392 398.118 463.392 398.118L464.385 404.486C469.652 404.206 474.465 402.824 478.718 400.881C478.178 397.579 477.66 393.801 477.66 393.801L482.733 398.809C493.353 392.7 499.656 383.893 499.656 383.893C469.63 374.741 424.148 383.958 424.148 383.958C437.553 398.68 450.052 404.033 460.888 404.508Z" fill="url(#paint2_linear_617_252)"/>
<path d="M491.928 171.639C501.188 176.754 490.698 187.698 487.762 190.505C489.424 194.11 490.676 197.542 491.604 200.715C493.525 195.987 491.928 190.98 494.022 188.497C496.396 185.691 500.757 184.59 501.188 191.735C501.534 197.391 494.756 200.801 491.928 201.967C493.439 207.493 493.979 212.199 494.13 215.674C497.13 210.623 495.878 204.687 498.598 202.14C501.577 199.355 506.52 198.707 506.088 206.629C505.722 213.192 497.13 216.019 494.173 216.818C494.238 219.991 493.979 221.891 493.936 222.085C493.417 225.927 492.727 229.575 491.906 233.029C494.669 228.647 494.562 223.445 497.346 221.502C500.67 219.171 505.678 219.214 504.124 227.007C502.894 233.18 494.691 234.907 491.324 235.36C489.424 242.548 486.899 248.895 484.136 254.421C487.978 251.571 491.345 244.664 495.77 243.326C498.684 242.44 500.39 243.8 501.318 245.096C502.117 246.218 502.354 247.6 501.987 248.916C499.958 256.385 487.395 255.802 483.596 255.435C480.099 262.213 476.235 267.739 472.652 272.078C474.638 270.632 477.66 268.408 479.149 267.2C481.524 265.278 485.733 263.94 488.474 264.998C488.582 265.041 488.69 265.084 488.798 265.127C490.827 266.056 491.755 268.387 491.194 270.545C488.928 278.964 474.379 274.733 471.249 273.719C471.227 273.74 471.206 273.783 471.162 273.805C461.88 284.512 453.505 289.217 453.16 289.433L452.426 288.138C452.512 288.095 460.477 283.583 469.263 273.697C462.938 261.177 467.536 253.6 471.054 253.557C474.702 253.514 478.588 257.464 475.113 262.667C473.084 265.689 471.68 269.337 470.839 271.862C474.487 267.545 478.48 261.911 482.106 254.96C468.637 241.987 477.401 234.411 481.675 236.051C485.992 237.713 486.251 241.167 484.222 246.024C482.862 249.262 482.603 252.327 482.581 254.054C485.323 248.636 487.805 242.419 489.705 235.36C486.402 234.864 478.07 233.007 476.947 226.747C475.544 218.912 480.552 218.977 483.833 221.373C486.855 223.574 486.316 229.683 489.985 234.346C491 230.417 491.82 226.251 492.425 221.847C492.446 221.783 492.964 217.962 492.273 211.832C488.906 211.745 480.466 210.925 478.566 204.881C476.192 197.304 481.157 196.721 484.718 198.686C487.892 200.434 488.215 206.262 492.079 210.407C491.367 205.226 489.791 198.599 486.445 191.282C482.948 191.174 474.81 190.267 472.954 184.353C470.58 176.754 475.544 176.193 479.106 178.157C482.322 179.928 482.603 185.907 486.64 190.051L486.791 189.987C486.424 187.871 485.647 183.381 485.15 181.244C484.503 178.395 485.193 174.294 487.352 172.48C489.554 170.71 491.928 171.639 491.928 171.639Z" fill="#DDE8FE"/>
<path d="M386.588 144.742C400.273 143.944 396.345 163.177 395.05 168.293C399.367 171.099 403.101 173.991 406.317 176.841C405.152 170.322 399.928 165.961 400.532 161.774C401.202 157.068 405.195 152.837 410.635 160.349C414.93 166.307 409.857 174.725 407.569 177.963C413.031 182.993 416.894 187.763 419.442 191.476C419.247 183.856 413.765 178.222 414.995 173.56C416.333 168.465 421.298 164.299 426.306 173.322C430.45 180.769 423.003 189.814 420.283 192.728C422.55 196.16 423.565 198.427 423.672 198.664C425.766 203.219 427.536 207.687 429.026 212.069C429.026 205.377 425.313 199.743 427.018 195.685C429.047 190.828 434.552 187.418 438.243 197.024C441.157 204.622 433.365 212.199 429.997 215.048C432.868 224.222 434.509 232.921 435.286 240.908C437.509 235.144 436.43 225.236 440.358 220.725C442.927 217.746 445.755 218.048 447.676 218.825C449.317 219.495 450.547 220.855 451.065 222.56C454.022 232.144 439.819 240.196 435.437 242.419C436.279 252.262 435.869 260.983 434.962 268.214C436.149 265.235 437.898 260.745 438.718 258.371C439.991 254.615 443.683 250.233 447.417 249.499C447.568 249.477 447.719 249.434 447.87 249.413C450.741 249.024 453.375 250.945 454.238 253.708C457.584 264.501 438.696 269.919 434.595 270.956C434.595 270.999 434.573 271.063 434.573 271.107C431.81 289.239 425.896 300.204 425.658 300.658L423.975 299.73C424.039 299.622 429.652 289.174 432.458 272.272C416.895 262.926 416.679 251.442 420.499 248.981C424.471 246.434 431.443 248.053 431.249 256.169C431.12 260.875 432.091 265.861 432.933 269.207C433.926 261.954 434.444 253.018 433.58 242.894C409.857 237.994 414.218 223.618 420.046 222.473C425.939 221.308 428.594 224.913 429.717 231.626C430.472 236.094 432.307 239.656 433.451 241.555C432.695 233.72 431.141 225.172 428.357 216.149C424.406 217.876 413.98 221.61 408.411 215.523C401.461 207.925 406.987 204.536 412.232 204.881C417.067 205.205 420.694 212.285 427.925 214.832C426.328 209.846 424.363 204.708 421.946 199.441C421.902 199.355 419.852 194.822 414.844 188.584C411.109 190.828 401.288 195.75 395.05 190.44C387.192 183.77 392.243 179.712 397.51 179.388C402.194 179.107 406.576 185.281 413.678 187.137C409.318 181.935 402.993 175.783 394.294 170.084C390.387 172.372 380.846 177.013 374.716 171.811C366.858 165.141 371.909 161.083 377.176 160.759C381.925 160.479 386.35 166.825 393.646 168.573L393.754 168.401C391.898 166.328 387.926 161.968 385.919 159.961C383.242 157.305 381.148 152.319 382.271 148.844C383.35 145.368 386.588 144.742 386.588 144.742Z" fill="#BED1F9"/>
<path d="M174.537 330.382L251.199 302.242L217.056 209.226L140.394 237.366L174.537 330.382Z" fill="#BED1F9"/>
<path d="M212.852 316.321L251.193 302.248L217.051 209.232L178.709 223.306L212.852 316.321Z" fill="#92B5F9"/>
<path d="M205.741 222.495C206.562 222.128 206.929 221.157 206.518 220.358C205.202 217.681 202.05 211.896 197.258 206.543C188.624 196.894 178.867 193.462 169.002 196.592C163.519 198.34 159.461 201.729 156.914 206.694C151.15 217.919 154.777 233.828 156.18 238.879C156.417 239.742 157.324 240.239 158.187 239.958C158.986 239.699 159.439 238.857 159.224 238.037C157.95 233.353 154.518 218.221 159.72 208.119C161.879 203.931 165.311 201.06 169.952 199.592C178.673 196.829 187.07 199.873 194.905 208.637C199.417 213.666 202.439 219.236 203.669 221.74C204.058 222.517 204.964 222.84 205.741 222.495Z" fill="#DDE8FE"/>
<path d="M207.12 311.343L163.301 251.096C161.66 248.852 158.53 248.355 156.285 249.996L122.33 274.668C120.085 276.309 119.589 279.439 121.229 281.684L165.049 341.93C166.689 344.175 169.819 344.672 172.064 343.031L206.019 318.337C208.242 316.718 208.761 313.588 207.12 311.343Z" fill="url(#paint3_linear_617_252)"/>
<path d="M187.989 331.446L138.264 263.06L127.544 270.855L177.269 339.24L187.989 331.446Z" fill="#0B0754"/>
<path d="M169.022 281.425L152.012 258.026C151.796 257.723 151.386 257.659 151.084 257.874L150.933 257.982C150.63 258.198 150.566 258.608 150.781 258.911L167.791 282.31C168.007 282.612 168.417 282.677 168.719 282.461L168.87 282.353C169.173 282.137 169.237 281.727 169.022 281.425Z" fill="#0B0754"/>
<path d="M169.086 275.122L155.055 255.802C154.839 255.5 154.429 255.435 154.127 255.651L153.975 255.759C153.673 255.975 153.609 256.385 153.824 256.687L167.855 276.007C168.071 276.309 168.481 276.374 168.783 276.158L168.935 276.05C169.237 275.834 169.302 275.424 169.086 275.122Z" fill="#0B0754"/>
<path d="M175.131 277L158.121 253.6C157.905 253.298 157.495 253.233 157.193 253.449L157.042 253.557C156.74 253.773 156.675 254.183 156.891 254.485L173.901 277.885C174.116 278.187 174.527 278.252 174.829 278.036L174.98 277.928C175.282 277.712 175.347 277.302 175.131 277Z" fill="#0B0754"/>
<path d="M198.723 309.443L193.37 302.083C192.42 300.766 190.585 300.485 189.268 301.435L186.678 303.313C185.361 304.263 185.081 306.097 186.03 307.414L191.384 314.775C192.333 316.092 194.168 316.372 195.485 315.423L198.075 313.545C199.37 312.595 199.673 310.76 198.723 309.443Z" fill="#0B0754"/>
<path d="M114.022 300.766C129.801 298.37 143.422 300.032 155.121 304.219C155.38 310.997 155.855 319.049 155.855 319.049L162.957 307.544C205.179 328.288 218.908 382.792 218.908 382.792C184.284 388.642 161.079 382.512 145.537 371.417C146.897 366.754 148.991 359.846 148.991 359.846L140.702 367.617C133.686 361.53 128.506 354.385 124.685 347.046C129.024 343.031 133.837 338.368 133.837 338.368L121.361 339.836C113.223 319.826 114.022 300.766 114.022 300.766Z" fill="#7C9AF2"/>
<path d="M145.516 371.417C146.875 366.754 148.969 359.846 148.969 359.846L140.68 367.617C133.665 361.53 128.484 354.385 124.663 347.046C129.002 343.031 133.816 338.368 133.816 338.368L121.339 339.836C113.223 319.826 114.022 300.766 114.022 300.766C165.655 320.646 218.886 382.814 218.886 382.814C184.262 388.642 161.057 382.512 145.516 371.417Z" fill="#4951EC"/>
<path d="M125.332 373.597C133.686 367.056 142.083 363.581 150.221 362.199C152.595 366.02 155.488 370.532 155.488 370.532L155.833 361.573C187.003 359.803 212.712 386.829 212.712 386.829C194.601 401.486 179.189 405.522 166.583 404.184C165.849 401.054 164.813 396.37 164.813 396.37L162.546 403.58C156.502 402.349 151.17 399.91 146.594 396.91C147.781 393.175 149.055 388.901 149.055 388.901L142.32 393.823C131.095 384.886 125.332 373.597 125.332 373.597Z" fill="#BED1F9"/>
<path d="M166.585 404.162C165.851 401.033 164.815 396.348 164.815 396.348L162.548 403.558C156.504 402.328 151.172 399.888 146.596 396.888C147.783 393.154 149.057 388.88 149.057 388.88L142.322 393.801C131.097 384.886 125.355 373.597 125.355 373.597C161.685 368.243 212.735 386.829 212.735 386.829C194.603 401.486 179.191 405.501 166.585 404.162Z" fill="#92B5F9"/>
<path d="M458.987 412.214H156.718C155.618 412.214 154.711 411.307 154.711 410.207V408.113C154.711 407.012 155.618 406.105 156.718 406.105H458.987C460.087 406.105 460.994 407.012 460.994 408.113V410.207C460.994 411.307 460.109 412.214 458.987 412.214Z" fill="#4951EC"/>
<path d="M438.072 260.27L388.251 317.473C386.395 319.61 386.611 322.848 388.748 324.705L420.997 352.788C423.134 354.644 426.372 354.428 428.229 352.291L478.049 295.089C479.905 292.952 479.69 289.714 477.553 287.857L445.303 259.774C443.166 257.918 439.928 258.133 438.072 260.27Z" fill="#4951EC"/>
<path d="M462.402 274.673L405.855 339.606L416.029 348.465L472.575 283.532L462.402 274.673Z" fill="#0B0754"/>
<path d="M417.069 304.889L397.706 327.122C397.469 327.403 397.49 327.835 397.771 328.072L397.922 328.201C398.203 328.439 398.634 328.417 398.872 328.137L418.234 305.903C418.472 305.623 418.45 305.191 418.17 304.953L418.019 304.824C417.76 304.586 417.328 304.608 417.069 304.889Z" fill="#333333"/>
<path d="M410.785 306.27L394.812 324.597C394.574 324.877 394.596 325.309 394.876 325.546L395.028 325.676C395.308 325.913 395.74 325.892 395.977 325.611L411.951 307.285C412.188 307.004 412.167 306.572 411.886 306.335L411.735 306.205C411.454 305.946 411.044 305.968 410.785 306.27Z" fill="#333333"/>
<path d="M411.284 299.859L391.921 322.093C391.684 322.373 391.705 322.805 391.986 323.042L392.137 323.172C392.418 323.409 392.849 323.388 393.087 323.107L412.449 300.874C412.687 300.593 412.665 300.161 412.385 299.924L412.233 299.794C411.953 299.535 411.521 299.557 411.284 299.859Z" fill="#333333"/>
<path d="M438.115 269.034L432.028 276.028C430.948 277.28 431.078 279.158 432.308 280.237L434.769 282.374C436.021 283.454 437.899 283.324 438.978 282.094L445.065 275.1C446.145 273.848 446.015 271.97 444.785 270.891L442.324 268.754C441.094 267.653 439.194 267.782 438.115 269.034Z" fill="#0B0754"/>
<path d="M176.468 286.756C183.635 289.627 188.923 293.642 192.766 298.24C191.212 301.133 189.441 304.608 189.441 304.608L195.205 301.543C207.746 320.517 200.148 346.614 200.148 346.614C184.282 340.592 176.101 332.368 172.302 323.927C174.008 322.308 176.576 319.934 176.576 319.934L171.223 321.143C169.777 316.89 169.367 312.638 169.561 308.645C172.345 308.019 175.497 307.263 175.497 307.263L169.928 304.824C171.46 294.506 176.468 286.756 176.468 286.756Z" fill="#4951EC"/>
<path d="M172.324 323.927C174.029 322.308 176.598 319.934 176.598 319.934L171.244 321.143C169.798 316.89 169.388 312.638 169.582 308.645C172.367 308.019 175.518 307.263 175.518 307.263L169.949 304.824C171.46 294.484 176.447 286.735 176.447 286.735C193.133 307.652 200.148 346.593 200.148 346.593C184.282 340.592 176.101 332.346 172.324 323.927Z" fill="#0B0754"/>
<path d="M218.995 110.831C218.995 110.831 219.298 113.896 221.737 114.112C219.319 114.328 218.995 117.393 218.995 117.393C218.995 117.393 218.693 114.328 216.254 114.112C218.693 113.918 218.995 110.831 218.995 110.831Z" fill="#DDE8FE"/>
<path d="M271.34 210.407C271.34 210.407 271.858 215.588 275.959 215.933C271.88 216.3 271.34 221.459 271.34 221.459C271.34 221.459 270.822 216.278 266.721 215.933C270.8 215.588 271.34 210.407 271.34 210.407Z" fill="#FEB546"/>
<path d="M404.029 112.45C404.029 112.45 404.288 115.083 406.36 115.256C404.288 115.429 404.029 118.062 404.029 118.062C404.029 118.062 403.77 115.429 401.697 115.256C403.748 115.062 404.029 112.45 404.029 112.45Z" fill="#DDE8FE"/>
<path d="M131.203 151.456C131.203 151.456 131.743 156.679 135.844 157.046C131.722 157.413 131.203 162.637 131.203 162.637C131.203 162.637 130.664 157.413 126.562 157.046C130.685 156.679 131.203 151.456 131.203 151.456Z" fill="#7C9AF2"/>
<path d="M191.342 170.581C191.342 170.581 191.925 176.215 196.372 176.603C191.925 176.992 191.342 182.626 191.342 182.626C191.342 182.626 190.781 176.992 186.312 176.603C190.781 176.215 191.342 170.581 191.342 170.581Z" fill="#BED1F9"/>
<path d="M319.131 111.371C319.131 111.371 319.692 117.004 324.161 117.393C319.714 117.782 319.131 123.415 319.131 123.415C319.131 123.415 318.548 117.782 314.102 117.393C318.57 117.004 319.131 111.371 319.131 111.371Z" fill="#BED1F9"/>
<path d="M260.246 87C260.246 87 260.808 92.6339 265.276 93.0225C260.829 93.411 260.246 99.045 260.246 99.045C260.246 99.045 259.685 93.411 255.217 93.0225C259.685 92.6339 260.246 87 260.246 87Z" fill="#7C9AF2"/>
<path d="M165.373 94.0802C165.373 94.0802 165.935 99.7141 170.403 100.103C165.956 100.491 165.373 106.147 165.373 106.147C165.373 106.147 164.812 100.513 160.344 100.124C164.812 99.7141 165.373 94.0802 165.373 94.0802Z" fill="url(#paint4_linear_617_252)"/>
<path d="M432.264 141.936C432.264 141.936 432.825 147.57 437.293 147.959C432.847 148.347 432.264 153.981 432.264 153.981C432.264 153.981 431.703 148.347 427.234 147.959C431.681 147.57 432.264 141.936 432.264 141.936Z" fill="url(#paint5_linear_617_252)"/>
<path d="M324.463 172.2C324.463 172.2 324.787 175.416 327.334 175.632C324.787 175.848 324.463 179.064 324.463 179.064C324.463 179.064 324.139 175.848 321.592 175.632C324.139 175.416 324.463 172.2 324.463 172.2Z" fill="url(#paint6_linear_617_252)"/>
<path d="M418.731 406.58H205.742C201.361 406.58 197.799 403.018 197.799 398.636V247.168C197.799 242.786 201.361 239.224 205.742 239.224H418.753C423.135 239.224 426.696 242.786 426.696 247.168V398.615C426.696 403.018 423.135 406.58 418.731 406.58Z" fill="#0B0754"/>
<path d="M410.398 400.04H206.26C204.857 400.04 203.734 398.896 203.734 397.514V248.377C203.734 246.974 204.878 245.851 206.26 245.851H410.398V400.04Z" fill="#DDE8FE"/>
<path d="M400.663 266.293H212.088V397.406H400.663V266.293Z" fill="white"/>
<path d="M400.684 269.876V260.163C400.684 256.838 397.986 254.14 394.662 254.14H218.11C214.786 254.14 212.088 256.838 212.088 260.163V269.876H400.684Z" fill="url(#paint7_linear_617_252)"/>
<path d="M389.243 265.84H314.729C312.894 265.84 311.404 264.35 311.404 262.515V261.522C311.404 259.688 312.894 258.198 314.729 258.198H389.243C391.078 258.198 392.567 259.688 392.567 261.522V262.515C392.589 264.35 391.1 265.84 389.243 265.84Z" fill="white"/>
<path d="M227.651 261.587C227.932 263.767 226.097 265.581 223.917 265.322C222.428 265.127 221.24 263.94 221.046 262.451C220.765 260.27 222.6 258.457 224.78 258.716C226.27 258.911 227.457 260.098 227.651 261.587Z" fill="white"/>
<path d="M242.155 261.587C242.436 263.767 240.601 265.581 238.421 265.322C236.931 265.127 235.744 263.94 235.55 262.451C235.269 260.27 237.104 258.457 239.284 258.716C240.774 258.911 241.961 260.098 242.155 261.587Z" fill="white"/>
<path d="M256.665 261.587C256.946 263.767 255.111 265.581 252.931 265.322C251.441 265.127 250.254 263.94 250.06 262.451C249.779 260.27 251.614 258.457 253.794 258.716C255.284 258.911 256.471 260.098 256.665 261.587Z" fill="white"/>
<path d="M338.796 341.693H273.973C272.98 341.693 272.182 340.894 272.182 339.901V291.592C272.182 290.599 272.98 289.8 273.973 289.8H338.796C339.789 289.8 340.588 290.599 340.588 291.592V339.901C340.588 340.894 339.789 341.693 338.796 341.693Z" fill="#DDE8FE"/>
<path d="M298.239 333.382C296.555 333.382 295.174 332.001 295.174 330.317C295.174 328.633 296.555 327.252 298.239 327.252C299.923 327.252 301.304 328.633 301.304 330.317C301.304 332.001 299.923 333.382 298.239 333.382ZM298.239 328.18C297.073 328.18 296.102 329.13 296.102 330.317C296.102 331.504 297.052 332.454 298.239 332.454C299.405 332.454 300.376 331.504 300.376 330.317C300.376 329.13 299.405 328.18 298.239 328.18Z" fill="url(#paint8_linear_617_252)"/>
<path d="M310.604 333.382C308.921 333.382 307.539 332.001 307.539 330.317C307.539 328.633 308.921 327.252 310.604 327.252C312.288 327.252 313.669 328.633 313.669 330.317C313.669 332.001 312.288 333.382 310.604 333.382ZM310.604 328.18C309.439 328.18 308.467 329.13 308.467 330.317C308.467 331.504 309.417 332.454 310.604 332.454C311.77 332.454 312.741 331.504 312.741 330.317C312.741 329.13 311.77 328.18 310.604 328.18Z" fill="url(#paint9_linear_617_252)"/>
<path d="M328.78 298.434C328.715 298.219 328.456 298.089 328.219 298.132L319.692 299.989C319.519 300.032 319.368 300.161 319.347 300.312L318.483 304.651C318.44 304.845 318.246 304.997 318.03 304.997H284.442C284.118 304.997 283.903 305.277 284.01 305.536L291.177 322.999C291.242 323.172 291.414 323.28 291.609 323.28H314.209C314.49 323.28 314.727 323.517 314.663 323.755L314.188 326.043C314.145 326.237 313.95 326.388 313.734 326.388H294.696C294.437 326.388 294.221 326.561 294.221 326.798C294.221 327.014 294.437 327.209 294.696 327.209H314.511C314.749 327.209 314.943 327.057 314.965 326.863L319.26 305.515L319.368 305.018L320.167 301.003C320.189 300.852 320.34 300.723 320.512 300.679L328.434 298.953C328.693 298.866 328.845 298.65 328.78 298.434ZM288.177 311.71H293.832C294.048 311.71 294.242 311.839 294.285 312.034L295.322 316.502C295.386 316.761 295.149 316.998 294.868 316.998H289.99C289.796 316.998 289.623 316.89 289.558 316.718L287.723 312.249C287.637 311.969 287.853 311.71 288.177 311.71ZM295.753 311.71H301.538C301.797 311.71 302.013 311.883 302.013 312.12V316.588C302.013 316.804 301.797 316.998 301.538 316.998H296.811C296.595 316.998 296.401 316.869 296.358 316.675L295.322 312.206C295.235 311.947 295.451 311.71 295.753 311.71ZM302.941 310.479V306.227C302.941 306.011 303.157 305.817 303.416 305.817H309.201C309.482 305.817 309.698 306.033 309.676 306.27L309.158 310.523C309.137 310.738 308.942 310.89 308.683 310.89H303.438C303.136 310.89 302.941 310.695 302.941 310.479ZM308.921 312.142L308.359 316.61C308.338 316.826 308.144 316.977 307.885 316.977H303.395C303.136 316.977 302.92 316.804 302.92 316.567V312.098C302.92 311.883 303.136 311.688 303.395 311.688H308.446C308.726 311.71 308.942 311.904 308.921 312.142ZM301.538 310.89H295.386C295.17 310.89 294.976 310.76 294.933 310.566L293.94 306.313C293.875 306.054 294.113 305.817 294.393 305.817H301.56C301.819 305.817 302.035 305.99 302.035 306.227V310.479C301.992 310.695 301.797 310.89 301.538 310.89ZM301.992 318.207V322.049C301.992 322.265 301.776 322.46 301.517 322.46H298.063C297.847 322.46 297.653 322.33 297.61 322.136L296.703 318.294C296.638 318.035 296.876 317.797 297.156 317.797H301.517C301.797 317.797 301.992 317.991 301.992 318.207ZM303.395 317.797H307.69C307.971 317.797 308.187 318.013 308.165 318.25L307.69 322.093C307.669 322.309 307.474 322.46 307.215 322.46H303.395C303.136 322.46 302.92 322.287 302.92 322.049V318.207C302.941 317.991 303.136 317.797 303.395 317.797ZM309.59 317.797H315.267C315.548 317.797 315.785 318.035 315.72 318.272L314.943 322.114C314.9 322.309 314.706 322.46 314.49 322.46H309.137C308.856 322.46 308.64 322.244 308.662 322.006L309.137 318.164C309.137 317.97 309.352 317.797 309.59 317.797ZM309.309 316.545L309.87 312.077C309.892 311.861 310.086 311.71 310.345 311.71H316.497C316.778 311.71 317.015 311.947 316.951 312.185L316.044 316.653C316.001 316.847 315.807 316.998 315.591 316.998H309.784C309.504 316.998 309.288 316.783 309.309 316.545ZM316.821 310.89H310.54C310.259 310.89 310.043 310.674 310.065 310.436L310.583 306.184C310.604 305.968 310.799 305.817 311.058 305.817H317.685C317.965 305.817 318.203 306.054 318.138 306.292L317.274 310.544C317.253 310.738 317.059 310.89 316.821 310.89ZM292.926 306.141L293.918 310.393C293.983 310.652 293.746 310.89 293.465 310.89H287.507C287.313 310.89 287.14 310.782 287.076 310.609L285.327 306.357C285.219 306.097 285.435 305.817 285.759 305.817H292.451C292.688 305.817 292.882 305.946 292.926 306.141ZM290.681 317.797H295.257C295.473 317.797 295.667 317.927 295.71 318.121L296.617 321.963C296.681 322.222 296.444 322.46 296.163 322.46H292.256C292.062 322.46 291.889 322.352 291.825 322.179L290.249 318.337C290.141 318.078 290.357 317.797 290.681 317.797Z" fill="url(#paint10_linear_617_252)"/>
<path d="M328.242 389.117H284.53C282.156 389.117 280.213 387.196 280.213 384.8V383.526C280.213 381.152 282.134 379.209 284.53 379.209H328.242C330.616 379.209 332.559 381.13 332.559 383.526V384.8C332.559 387.196 330.616 389.117 328.242 389.117Z" fill="url(#paint11_linear_617_252)"/>
<path d="M296.445 384.951C296.445 385.08 296.423 385.21 296.402 385.318C296.359 385.426 296.315 385.534 296.251 385.62C296.186 385.706 296.121 385.793 296.035 385.858C295.948 385.922 295.84 385.987 295.733 386.03C295.625 386.073 295.517 386.117 295.387 386.138C295.258 386.16 295.128 386.181 294.955 386.181H293.855C293.811 386.181 293.747 386.16 293.703 386.138C293.66 386.095 293.639 386.052 293.639 385.965V382.166C293.639 382.08 293.66 382.015 293.703 381.994C293.747 381.951 293.79 381.951 293.855 381.951H294.826C295.085 381.951 295.279 381.972 295.452 382.015C295.625 382.058 295.754 382.123 295.862 382.231C295.97 382.317 296.056 382.447 296.099 382.577C296.164 382.706 296.186 382.857 296.186 383.03C296.186 383.138 296.164 383.224 296.143 383.31C296.121 383.397 296.078 383.483 296.035 383.569C295.992 383.656 295.927 383.721 295.862 383.785C295.797 383.85 295.711 383.893 295.625 383.936C295.733 383.958 295.84 384.001 295.948 384.066C296.056 384.131 296.143 384.195 296.207 384.282C296.294 384.368 296.337 384.476 296.38 384.606C296.423 384.67 296.445 384.8 296.445 384.951ZM295.581 383.051C295.581 382.943 295.56 382.857 295.538 382.771C295.517 382.684 295.473 382.62 295.409 382.555C295.344 382.49 295.258 382.447 295.171 382.425C295.063 382.404 294.934 382.382 294.783 382.382H294.2V383.764H294.847C294.999 383.764 295.107 383.742 295.193 383.699C295.279 383.656 295.366 383.613 295.409 383.548C295.473 383.483 295.517 383.418 295.538 383.31C295.581 383.224 295.581 383.138 295.581 383.051ZM295.84 384.973C295.84 384.843 295.819 384.735 295.776 384.627C295.733 384.541 295.668 384.454 295.603 384.39C295.517 384.325 295.43 384.282 295.301 384.239C295.193 384.195 295.042 384.195 294.869 384.195H294.2V385.685H295.02C295.15 385.685 295.258 385.663 295.366 385.642C295.452 385.62 295.538 385.555 295.625 385.512C295.689 385.447 295.754 385.383 295.797 385.296C295.819 385.21 295.84 385.102 295.84 384.973Z" fill="white"/>
<path d="M300.503 384.606C300.503 384.865 300.46 385.102 300.395 385.296C300.309 385.491 300.201 385.663 300.072 385.814C299.921 385.966 299.769 386.052 299.554 386.138C299.359 386.203 299.122 386.246 298.863 386.246C298.625 386.246 298.41 386.203 298.215 386.138C298.021 386.073 297.848 385.966 297.719 385.836C297.589 385.706 297.481 385.534 297.395 385.34C297.309 385.145 297.287 384.908 297.287 384.649V382.015C297.287 381.994 297.287 381.972 297.309 381.972C297.309 381.951 297.33 381.951 297.352 381.951C297.373 381.951 297.395 381.929 297.438 381.929C297.481 381.929 297.525 381.929 297.568 381.929C297.611 381.929 297.676 381.929 297.697 381.929C297.74 381.929 297.762 381.951 297.784 381.951C297.805 381.951 297.827 381.972 297.827 381.972C297.827 381.994 297.848 381.994 297.848 382.015V384.584C297.848 384.778 297.87 384.951 297.913 385.102C297.956 385.253 298.021 385.361 298.129 385.469C298.215 385.577 298.323 385.642 298.453 385.685C298.582 385.728 298.733 385.75 298.884 385.75C299.057 385.75 299.187 385.728 299.316 385.685C299.446 385.642 299.554 385.555 299.64 385.469C299.726 385.383 299.791 385.253 299.834 385.102C299.877 384.951 299.899 384.8 299.899 384.606V382.015C299.899 381.994 299.899 381.972 299.921 381.972C299.921 381.951 299.942 381.951 299.964 381.951C299.985 381.951 300.007 381.929 300.05 381.929C300.093 381.929 300.136 381.929 300.18 381.929C300.223 381.929 300.266 381.929 300.309 381.929C300.352 381.929 300.374 381.951 300.395 381.951C300.417 381.951 300.439 381.972 300.439 381.972C300.439 381.994 300.46 381.994 300.46 382.015V384.606H300.503Z" fill="white"/>
<path d="M303.978 385.944C303.978 385.987 303.978 386.009 303.978 386.052C303.978 386.073 303.956 386.117 303.956 386.117C303.935 386.138 303.935 386.16 303.913 386.16C303.892 386.16 303.892 386.181 303.87 386.181H301.819C301.776 386.181 301.711 386.16 301.668 386.138C301.625 386.095 301.604 386.052 301.604 385.965V382.166C301.604 382.08 301.625 382.015 301.668 381.994C301.711 381.951 301.755 381.951 301.819 381.951H303.848C303.87 381.951 303.892 381.951 303.892 381.972C303.913 381.972 303.913 381.994 303.935 382.015C303.935 382.037 303.956 382.058 303.956 382.08C303.956 382.102 303.956 382.145 303.956 382.188C303.956 382.231 303.956 382.253 303.956 382.296C303.956 382.317 303.935 382.339 303.935 382.361C303.935 382.382 303.913 382.404 303.892 382.404C303.87 382.404 303.87 382.425 303.848 382.425H302.186V383.764H303.611C303.633 383.764 303.654 383.764 303.654 383.785C303.676 383.785 303.676 383.807 303.697 383.828C303.719 383.85 303.719 383.872 303.719 383.893C303.719 383.915 303.719 383.958 303.719 384.001C303.719 384.044 303.719 384.066 303.719 384.109C303.719 384.131 303.697 384.152 303.697 384.174C303.697 384.195 303.676 384.195 303.654 384.217C303.633 384.217 303.633 384.239 303.611 384.239H302.186V385.771H303.87C303.892 385.771 303.913 385.771 303.913 385.793C303.935 385.793 303.935 385.814 303.956 385.836C303.978 385.858 303.978 385.879 303.978 385.901C303.978 385.858 303.978 385.879 303.978 385.944Z" fill="white"/>
<path d="M309.634 385.944C309.634 385.987 309.634 386.03 309.613 386.052C309.591 386.073 309.57 386.117 309.548 386.117C309.527 386.138 309.505 386.16 309.462 386.16C309.44 386.16 309.397 386.181 309.375 386.181H309.181C309.116 386.181 309.073 386.181 309.03 386.16C308.987 386.138 308.944 386.117 308.901 386.095C308.857 386.073 308.814 386.03 308.771 385.965C308.728 385.901 308.685 385.836 308.642 385.75L307.346 383.332C307.282 383.203 307.217 383.073 307.131 382.943C307.066 382.814 307.001 382.663 306.936 382.533C306.936 382.684 306.936 382.857 306.936 383.008C306.936 383.181 306.936 383.332 306.936 383.505V386.073C306.936 386.095 306.936 386.095 306.915 386.117C306.915 386.138 306.893 386.138 306.871 386.16C306.85 386.16 306.828 386.181 306.785 386.181C306.742 386.181 306.699 386.181 306.656 386.181C306.591 386.181 306.548 386.181 306.526 386.181C306.483 386.181 306.461 386.16 306.44 386.16C306.418 386.16 306.397 386.138 306.397 386.117C306.397 386.095 306.375 386.095 306.375 386.073V382.145C306.375 382.058 306.397 381.994 306.44 381.951C306.483 381.907 306.548 381.886 306.612 381.886H306.893C306.958 381.886 307.023 381.886 307.066 381.907C307.109 381.929 307.152 381.929 307.195 381.972C307.238 382.015 307.26 382.037 307.303 382.08C307.346 382.123 307.368 382.188 307.411 382.253L308.404 384.131C308.469 384.239 308.534 384.347 308.577 384.454C308.642 384.562 308.685 384.67 308.749 384.778C308.793 384.886 308.857 384.994 308.901 385.08C308.944 385.188 309.008 385.275 309.052 385.383C309.052 385.21 309.052 385.037 309.052 384.843C309.052 384.649 309.052 384.476 309.052 384.303V381.994C309.052 381.972 309.052 381.972 309.073 381.951C309.073 381.929 309.095 381.929 309.116 381.907C309.138 381.907 309.16 381.886 309.203 381.886C309.246 381.886 309.289 381.886 309.354 381.886C309.397 381.886 309.44 381.886 309.483 381.886C309.527 381.886 309.548 381.907 309.57 381.907C309.591 381.907 309.613 381.929 309.613 381.951C309.613 381.972 309.634 381.972 309.634 381.994V385.944Z" fill="white"/>
<path d="M314.34 383.98C314.34 384.325 314.297 384.627 314.211 384.908C314.124 385.188 314.016 385.426 313.844 385.62C313.693 385.814 313.477 385.965 313.239 386.073C313.002 386.181 312.721 386.225 312.397 386.225C312.074 386.225 311.793 386.181 311.577 386.073C311.34 385.987 311.145 385.836 310.994 385.663C310.843 385.491 310.735 385.253 310.649 384.994C310.584 384.735 310.541 384.411 310.541 384.066C310.541 383.721 310.584 383.418 310.671 383.159C310.757 382.879 310.865 382.663 311.037 382.469C311.21 382.274 311.404 382.123 311.642 382.015C311.879 381.907 312.16 381.864 312.484 381.864C312.808 381.864 313.067 381.907 313.304 382.015C313.541 382.102 313.736 382.253 313.887 382.425C314.038 382.598 314.146 382.836 314.232 383.095C314.297 383.332 314.34 383.656 314.34 383.98ZM313.736 384.023C313.736 383.785 313.714 383.548 313.671 383.354C313.628 383.138 313.563 382.965 313.455 382.814C313.347 382.663 313.218 382.533 313.067 382.447C312.894 382.361 312.7 382.317 312.441 382.317C312.203 382.317 311.987 382.361 311.815 382.447C311.642 382.533 311.512 382.663 311.404 382.814C311.297 382.965 311.232 383.138 311.189 383.354C311.145 383.569 311.124 383.764 311.124 384.001C311.124 384.26 311.145 384.476 311.189 384.692C311.232 384.908 311.297 385.08 311.404 385.232C311.512 385.383 311.642 385.512 311.793 385.577C311.966 385.663 312.16 385.706 312.419 385.706C312.656 385.706 312.872 385.663 313.045 385.577C313.218 385.491 313.347 385.361 313.455 385.21C313.563 385.059 313.628 384.865 313.671 384.67C313.714 384.476 313.736 384.26 313.736 384.023Z" fill="white"/>
<path d="M319.239 386.052C319.239 386.073 319.218 386.117 319.196 386.117C319.175 386.138 319.153 386.16 319.132 386.16C319.11 386.16 319.067 386.181 319.024 386.181C318.98 386.181 318.916 386.181 318.851 386.181C318.786 386.181 318.721 386.181 318.678 386.181C318.635 386.181 318.592 386.16 318.57 386.16C318.549 386.16 318.527 386.138 318.506 386.117C318.484 386.095 318.484 386.073 318.462 386.052L317.577 382.836L316.757 386.052C316.757 386.073 316.735 386.117 316.714 386.117C316.692 386.138 316.671 386.16 316.649 386.16C316.628 386.16 316.584 386.181 316.541 386.181C316.498 386.181 316.433 386.181 316.369 386.181C316.304 386.181 316.239 386.181 316.196 386.181C316.153 386.181 316.11 386.16 316.088 386.16C316.066 386.16 316.023 386.138 316.023 386.117C316.002 386.095 316.002 386.073 315.98 386.052L314.858 382.123C314.836 382.08 314.836 382.037 314.836 382.015C314.836 381.994 314.836 381.972 314.858 381.951C314.879 381.929 314.901 381.929 314.944 381.929C314.987 381.929 315.052 381.929 315.117 381.929C315.181 381.929 315.246 381.929 315.268 381.929C315.311 381.929 315.332 381.929 315.354 381.951C315.376 381.951 315.397 381.972 315.397 381.994C315.397 382.015 315.419 382.037 315.419 382.058L316.369 385.62L317.275 382.058C317.275 382.037 317.297 382.015 317.297 381.994C317.297 381.972 317.318 381.972 317.34 381.951C317.361 381.951 317.383 381.929 317.426 381.929C317.469 381.929 317.513 381.929 317.577 381.929C317.642 381.929 317.685 381.929 317.728 381.929C317.772 381.929 317.793 381.951 317.815 381.951C317.836 381.951 317.858 381.972 317.858 381.994C317.858 382.015 317.88 382.037 317.88 382.058L318.851 385.62L319.779 382.058C319.779 382.037 319.801 382.015 319.801 381.994C319.801 381.972 319.822 381.972 319.844 381.951C319.865 381.951 319.887 381.929 319.93 381.929C319.973 381.929 320.017 381.929 320.081 381.929C320.146 381.929 320.189 381.929 320.232 381.929C320.276 381.929 320.297 381.951 320.319 381.951C320.34 381.972 320.34 381.994 320.34 382.015C320.34 382.037 320.34 382.08 320.319 382.123L319.239 386.052Z" fill="white"/>
<path d="M340.743 365.459H272.035V367.617H340.743V365.459Z" fill="#DDE8FE"/>
<path d="M340.743 370.467H272.035V372.625H340.743V370.467Z" fill="#DDE8FE"/>
<path d="M340.743 360.451H272.035V362.61H340.743V360.451Z" fill="#DDE8FE"/>
<path d="M340.743 355.443H272.035V357.602H340.743V355.443Z" fill="#DDE8FE"/>
<path d="M340.743 350.435H272.035V352.594H340.743V350.435Z" fill="#DDE8FE"/>
<path opacity="0.3" d="M424.581 322.438C424.861 326.021 421.904 328.979 418.321 328.698C415.515 328.482 413.227 326.194 413.011 323.388C412.73 319.805 415.687 316.847 419.271 317.128C422.098 317.344 424.365 319.61 424.581 322.438Z" fill="#4951EC"/>
<path d="M420.545 325.331H417.091C416.703 325.331 416.4 325.028 416.4 324.64V321.186C416.4 320.797 416.703 320.495 417.091 320.495H420.545C420.933 320.495 421.236 320.797 421.236 321.186V324.64C421.214 325.007 420.912 325.331 420.545 325.331ZM417.07 320.668C416.789 320.668 416.573 320.884 416.573 321.164V324.618C416.573 324.899 416.789 325.115 417.07 325.115H420.523C420.804 325.115 421.02 324.899 421.02 324.618V321.164C421.02 320.884 420.804 320.668 420.523 320.668H417.07Z" fill="#DAEEF7"/>
<path opacity="0.5" d="M209.992 198.427C211.071 193.743 215.259 190.246 220.289 190.246C221.217 190.246 222.102 190.354 222.965 190.591C225.448 185.302 230.823 181.633 237.039 181.633C238.658 181.633 240.213 181.87 241.659 182.324C245.005 176.776 251.113 173.063 258.064 173.063C266.353 173.063 273.412 178.33 276.088 185.691C277.988 184.633 280.168 184.029 282.478 184.029C289.731 184.029 295.624 189.922 295.624 197.175C295.624 197.606 295.602 198.038 295.559 198.448H209.992V198.427Z" fill="#DDE8FE"/>
<path opacity="0.5" d="M156.523 161.407C157.149 158.687 159.567 156.679 162.46 156.679C162.999 156.679 163.517 156.744 163.992 156.874C165.417 153.809 168.525 151.693 172.13 151.693C173.058 151.693 173.965 151.844 174.807 152.103C176.749 148.887 180.268 146.75 184.283 146.75C189.075 146.75 193.155 149.794 194.687 154.046C195.788 153.442 197.04 153.096 198.379 153.096C202.566 153.096 205.977 156.507 205.977 160.694C205.977 160.953 205.955 161.191 205.934 161.428H156.523V161.407Z" fill="#DDE8FE"/>
<path opacity="0.5" d="M274.707 131.402C274.988 130.172 276.089 129.265 277.384 129.265C277.621 129.265 277.859 129.287 278.074 129.352C278.722 127.97 280.125 127.02 281.744 127.02C282.154 127.02 282.564 127.085 282.953 127.193C283.838 125.747 285.414 124.775 287.227 124.775C289.385 124.775 291.22 126.157 291.933 128.056C292.429 127.776 292.99 127.625 293.595 127.625C295.494 127.625 297.027 129.157 297.027 131.057C297.027 131.165 297.027 131.273 297.005 131.381H274.707V131.402Z" fill="#DDE8FE"/>
<path opacity="0.5" d="M342.034 149.254C341.408 146.534 338.99 144.527 336.097 144.527C335.558 144.527 335.04 144.591 334.565 144.721C333.14 141.656 330.032 139.54 326.427 139.54C325.499 139.54 324.592 139.691 323.75 139.95C321.807 136.734 318.289 134.597 314.274 134.597C309.482 134.597 305.402 137.641 303.87 141.893C302.769 141.289 301.517 140.943 300.178 140.943C295.991 140.943 292.58 144.354 292.58 148.542C292.58 148.801 292.602 149.038 292.623 149.275H342.034V149.254Z" fill="#DDE8FE"/>
<path d="M389.027 321.294C390.15 325.309 393.668 329.194 398.676 331.979C403.361 334.569 408.865 335.972 414.305 335.972C414.779 335.972 415.254 335.972 415.729 335.951L417.391 335.886L418.147 335.929C418.622 335.951 419.097 335.972 419.572 335.972C425.033 335.972 430.537 334.591 435.221 332.001C440.229 329.238 443.769 325.331 444.892 321.337C446.317 316.264 443.942 311.559 438.351 308.472C435.286 306.788 432.135 306.594 429.221 307.932C425.162 309.81 421.644 314.645 418.773 322.308C418.039 324.273 417.435 326.172 416.96 327.791C416.485 326.172 415.902 324.294 415.168 322.352C412.297 314.689 408.779 309.853 404.742 307.975C401.85 306.616 398.676 306.81 395.611 308.493C389.999 311.516 387.603 316.2 389.027 321.294ZM421.644 330.576C422.119 328.806 422.809 326.475 423.716 324.057C426.026 317.948 428.767 313.912 431.444 312.681C431.876 312.487 432.458 312.271 433.192 312.271C433.905 312.271 434.768 312.465 435.804 313.048C439.215 314.926 440.575 317.214 439.819 319.848C438.438 324.769 430.688 329.907 421.644 330.576ZM398.137 313.07C399.173 312.508 400.036 312.314 400.749 312.314C401.483 312.314 402.044 312.508 402.497 312.724C405.152 313.955 407.894 318.013 410.203 324.122C411.11 326.539 411.801 328.871 412.276 330.641C403.231 329.95 395.482 324.791 394.1 319.891C393.366 317.214 394.726 314.926 398.137 313.07Z" fill="url(#paint12_linear_617_252)"/>
<path d="M381.73 407.271L449.489 407.336C453.137 407.336 456.094 404.378 456.094 400.73L456.137 340.959C456.137 337.311 453.18 334.353 449.532 334.353L381.773 334.289C378.125 334.289 375.168 337.246 375.168 340.894L375.125 400.666C375.125 404.292 378.082 407.249 381.73 407.271Z" fill="#BED1F9"/>
<path d="M375.148 370.769L456.117 370.834L456.139 342.837C456.139 338.153 452.34 334.332 447.656 334.332L383.653 334.267C378.969 334.267 375.148 338.066 375.148 342.75V370.769Z" fill="#92B5F9"/>
<path d="M373.745 361.53L457.542 361.595C459.959 361.595 461.902 359.652 461.902 357.235L461.924 338.692C461.924 336.275 459.981 334.332 457.563 334.332L373.767 334.267C371.349 334.267 369.406 336.21 369.406 338.627L369.385 357.17C369.385 359.587 371.349 361.53 373.745 361.53Z" fill="#BED1F9"/>
<path d="M405.901 407.274L424.357 407.291L424.422 334.308L405.966 334.292L405.901 407.274Z" fill="url(#paint13_linear_617_252)"/>
<path d="M405.915 370.788L424.371 370.804L424.379 361.587L405.923 361.57L405.915 370.788Z" fill="#92B5F9"/>
<path d="M295.234 264.544L293.809 267.739C293.701 267.998 293.809 268.322 294.068 268.43L301.537 271.776C302.077 272.013 302.595 271.409 302.271 270.912L299.378 266.401C299.378 266.401 297.09 266.811 295.234 264.544Z" fill="url(#paint14_linear_617_252)"/>
<path d="M285.736 264.544L284.311 267.739C284.203 267.998 284.311 268.322 284.57 268.43L292.039 271.776C292.578 272.013 293.097 271.409 292.773 270.912L289.88 266.401C289.88 266.401 287.592 266.811 285.736 264.544Z" fill="url(#paint15_linear_617_252)"/>
<path d="M269.59 176.517L268.791 181.503L267.107 174.855C267.107 174.855 269.46 173.711 269.568 174.121C269.676 174.531 269.59 176.517 269.59 176.517Z" fill="url(#paint16_linear_617_252)"/>
<path d="M256.228 187.245L255.494 195.858L263.114 195.491L262.229 187.871L256.228 187.245Z" fill="#AAAAAA"/>
<path d="M262.639 191.498L262.229 187.871L256.228 187.245L255.969 190.224C257.178 191.411 259.315 192.642 262.639 191.498Z" fill="#AAAAAA"/>
<path d="M267.3 181.439C266.847 182.388 267.084 183.446 267.84 183.813C268.595 184.18 269.588 183.705 270.041 182.755C270.495 181.805 270.257 180.748 269.502 180.381C268.746 180.014 267.775 180.489 267.3 181.439Z" fill="#AAAAAA"/>
<path d="M268.403 182.129C268.446 181.892 268.489 181.633 268.554 181.395C268.791 180.424 268.856 179.366 268.683 178.265C268.165 174.747 265.316 171.919 261.776 171.444C257.027 170.797 252.818 174.315 252.537 178.978C252.041 178.654 251.479 178.568 250.961 178.762C249.968 179.129 249.537 180.424 250.012 181.676C250.465 182.906 251.652 183.619 252.645 183.252C252.775 183.209 252.904 183.122 253.034 183.036C253.185 187.029 256.25 190.31 260.157 190.483C262.078 190.569 263.848 189.9 265.23 188.735C267.086 187.353 268.036 184.417 268.403 182.129Z" fill="#AAAAAA"/>
<path d="M262.488 179.517C262.509 179.992 262.509 180.446 262.531 180.877C262.552 181.309 262.617 181.784 262.79 182.086C262.963 182.324 263.114 182.496 263.114 182.798C263.114 183.101 262.963 183.381 262.768 183.554C262.358 183.899 261.819 183.943 261.365 183.835C261.819 183.748 262.25 183.597 262.509 183.295C262.617 183.144 262.704 182.993 262.682 182.82C262.66 182.647 262.617 182.604 262.401 182.324C262.25 182.065 262.207 181.827 262.185 181.59C262.164 181.352 262.164 181.115 262.185 180.877C262.207 180.424 262.315 179.949 262.488 179.517Z" fill="#0160E7"/>
<path d="M259.79 179.992C259.855 180.489 259.402 180.899 258.927 180.791C258.646 180.726 258.43 180.489 258.387 180.208C258.322 179.712 258.776 179.302 259.25 179.409C259.531 179.474 259.747 179.712 259.79 179.992Z" fill="#0B0754"/>
<path d="M265.857 180.683C265.921 181.179 265.468 181.59 264.993 181.482C264.712 181.417 264.497 181.179 264.453 180.899C264.389 180.402 264.842 179.992 265.317 180.1C265.598 180.165 265.813 180.402 265.857 180.683Z" fill="#0B0754"/>
<path d="M258.604 184.935C258.798 185.108 258.992 185.238 259.186 185.389C259.381 185.518 259.596 185.648 259.812 185.756C260.244 185.972 260.719 186.123 261.194 186.187C261.669 186.252 262.165 186.209 262.618 186.08C263.093 185.95 263.525 185.734 263.957 185.475C263.504 185.864 263.115 186.058 262.662 186.209C262.187 186.36 261.712 186.425 261.172 186.36C260.676 186.295 260.179 186.123 259.748 185.885C259.316 185.626 258.927 185.324 258.604 184.935Z" fill="#0160E7"/>
<path d="M260.675 178.546C260.308 178.438 259.984 178.352 259.639 178.287C259.293 178.244 258.969 178.222 258.646 178.265C258.322 178.309 257.998 178.373 257.696 178.524C257.458 178.589 256.897 178.935 256.746 178.999C256.919 178.676 257.178 178.33 257.48 178.136C257.782 177.898 258.192 177.769 258.581 177.704C258.969 177.661 259.38 177.704 259.747 177.855C260.114 178.006 260.459 178.222 260.675 178.546Z" fill="#0B0754"/>
<path d="M263.805 178.891C264.085 178.632 264.452 178.481 264.841 178.416C265.229 178.352 265.639 178.373 266.006 178.481C266.395 178.611 266.74 178.827 266.999 179.107C267.28 179.366 267.453 179.755 267.561 180.1C267.431 180.014 266.935 179.561 266.719 179.453C266.438 179.258 266.136 179.129 265.834 179.021C265.532 178.913 265.208 178.87 264.862 178.848C264.539 178.827 264.193 178.848 263.805 178.891Z" fill="#0B0754"/>
<path d="M260.416 227.676C260.416 227.676 258.84 238.425 269.223 240.303C279.627 242.181 292.557 241.62 292.557 241.62L294.349 266.336L299.767 266.617C299.767 266.617 313.733 232.273 294.392 226.899L277.015 226.985L269.849 226.467C269.849 226.467 262.596 224.675 262.509 225.021C262.466 225.366 260.588 227.848 260.416 227.676Z" fill="#4951EC"/>
<path d="M250.853 227.74C250.853 227.74 249.277 238.49 259.66 240.368C270.065 242.246 282.995 241.685 282.995 241.685L284.786 266.401L290.204 266.681C290.204 266.681 304.17 232.338 284.829 226.963L267.453 227.05L260.286 226.532C260.286 226.532 253.033 224.74 252.947 225.085C252.904 225.431 251.026 227.913 250.853 227.74Z" fill="#7C9AF2"/>
<path d="M263.956 192.426C263.956 192.426 271.122 193.332 272.936 194.822C274.749 196.29 283.513 218.005 283.513 218.005L276.238 226.532L260.783 226.64C260.783 226.64 249.191 232.878 241.917 226.985C234.642 221.07 238.398 200.521 242.607 196.074C246.817 191.649 254.307 191.757 254.307 191.757C254.307 191.757 261.107 196.506 263.956 192.426Z" fill="url(#paint17_linear_617_252)"/>
<path d="M250.097 203.219C250.356 204.406 250.507 205.593 250.615 206.802C250.68 207.406 250.701 208.011 250.745 208.615C250.766 209.22 250.766 209.824 250.766 210.428C250.745 211.637 250.68 212.846 250.464 214.055C250.27 215.242 249.967 216.451 249.406 217.53C249.773 216.386 249.967 215.199 250.097 214.012C250.227 212.825 250.27 211.616 250.291 210.428C250.313 209.241 250.291 208.032 250.248 206.824C250.205 205.636 250.162 204.428 250.097 203.219Z" fill="white"/>
<path d="M271.512 202.42C271.836 204.19 272.181 205.939 272.548 207.687C272.915 209.436 273.282 211.184 273.692 212.911C274.102 214.638 274.577 216.365 275.138 218.048C275.419 218.89 275.743 219.732 276.11 220.531C276.476 221.351 276.908 222.128 277.491 222.819C276.843 222.214 276.347 221.437 275.915 220.639C275.484 219.84 275.117 219.02 274.814 218.178C274.491 217.336 274.21 216.473 273.951 215.631C273.692 214.767 273.476 213.904 273.26 213.04C273.044 212.177 272.85 211.292 272.677 210.407C272.505 209.522 272.332 208.637 272.202 207.752C271.879 205.982 271.663 204.212 271.512 202.42Z" fill="white"/>
<path d="M275.116 221.61C275.073 221.243 272.332 220.854 271.339 220.79C270.583 220.747 265.532 220.574 263.827 220.509L263.957 220.941L263.935 222.884L263.654 224.179C265.165 224.265 268.835 224.416 269.612 224.567C270.627 224.762 272.418 225.539 272.418 225.539C272.418 225.539 273.152 225.366 272.224 224.956C271.468 224.632 270.95 224.136 270.713 223.876C270.583 223.725 270.734 223.466 270.821 223.51C273.368 224.179 273.627 224.287 273.627 224.287C273.627 224.287 276.627 224.265 273.649 223.596C271.857 223.186 271.209 222.948 271.058 222.754C270.994 222.668 271.101 222.387 271.231 222.365C272.785 222.279 275.57 222.819 274.793 222.452C274.167 222.15 272.224 221.826 271.447 221.718C271.404 221.718 271.317 221.437 271.533 221.416C272.979 221.308 275.16 221.934 275.116 221.61Z" fill="#AAAAAA"/>
<path d="M248.35 217.228C248.976 217.379 249.602 217.552 250.228 217.681C250.854 217.832 251.48 217.94 252.127 218.07C253.401 218.307 254.674 218.502 255.948 218.674C257.221 218.847 258.495 218.998 259.79 219.128C261.064 219.257 262.359 219.365 263.632 219.43H263.805L263.848 219.581C263.956 220.013 264.021 220.423 264.086 220.854C264.129 221.286 264.172 221.718 264.151 222.15C264.151 222.581 264.107 223.013 264.043 223.445C263.956 223.876 263.848 224.287 263.676 224.697L263.654 224.74L263.632 224.762L262.229 225.711C261.754 226.035 261.301 226.337 260.826 226.64C261.258 226.294 261.711 225.949 262.165 225.603L263.503 224.567L263.46 224.61C263.611 224.222 263.697 223.833 263.762 223.423C263.805 223.013 263.827 222.603 263.827 222.193C263.805 221.783 263.762 221.373 263.719 220.962C263.654 220.552 263.568 220.142 263.46 219.754L263.676 219.905C263.006 219.883 262.38 219.84 261.733 219.797C261.085 219.754 260.438 219.689 259.79 219.624C258.495 219.495 257.221 219.322 255.948 219.128C254.674 218.912 253.401 218.674 252.149 218.372C251.523 218.221 250.897 218.048 250.271 217.854C249.558 217.681 248.954 217.444 248.35 217.228Z" fill="white"/>
<path d="M307.429 207.147H279.475L271.553 226.488H258.083C257.716 226.488 257.393 226.791 257.393 227.179C257.393 227.546 257.695 227.87 258.083 227.87H298.125L307.429 207.147Z" fill="#0B0754"/>
<path d="M293.571 218.178C293.398 218.998 292.686 219.559 291.973 219.408C291.261 219.257 290.808 218.48 290.959 217.66C291.131 216.839 291.844 216.278 292.556 216.429C293.29 216.559 293.743 217.358 293.571 218.178Z" fill="#DDE8FE"/>
<path d="M269.742 171.79C269.742 171.79 272.138 171.876 269.634 169.847C267.13 167.839 260.417 165.465 256.099 167.731C256.099 167.731 255.236 165.897 253.984 166.328C252.732 166.76 254.804 168.034 254.804 168.034C254.804 168.034 253.207 167.99 252.732 168.768C252.365 169.35 253.358 169.372 253.876 169.35C252.969 169.501 249.494 171.703 251.243 178.697C251.869 178.568 255.387 173.452 255.387 173.452C255.387 173.452 263.46 177.942 262.662 174.38C262.662 174.38 271.015 179.604 269.828 175.287C269.828 175.265 273.066 175.502 269.742 171.79Z" fill="url(#paint18_linear_617_252)"/>
<path d="M251.221 178.74C251.221 178.74 251.89 178.503 252.602 179.086C253.315 179.647 253.25 181.654 253.25 181.654C253.25 181.654 256.682 183.856 256.315 174.509C255.926 164.558 253.444 175.308 253.444 175.308L251.221 178.74Z" fill="url(#paint19_linear_617_252)"/>
<path d="M265.146 406.688L259.814 390.196L266.571 388.664L266.247 390.779L268.578 405.242L266.204 407.422L265.146 406.688Z" fill="#AAAAAA"/>
<path d="M246.734 387.865L248.893 406.04L251.462 407.422L252.692 405.199L254.246 387.282L246.734 387.865Z" fill="#AAAAAA"/>
<path d="M246.088 391.254C248.031 391.815 250.858 392.225 254.55 391.643L255.111 386.548L257.636 385.447L259.536 391.513C261.069 391.707 263.939 391.751 267.803 390.261L266.055 380.245H245.915C245.894 381.929 245.915 383.569 245.937 385.124C246.002 387.196 246.045 389.268 246.088 391.254Z" fill="#BED1F9"/>
<path d="M248.201 400.147L248.892 406.019L251.482 407.4L252.713 405.177L253.123 400.299C250.964 400.428 249.151 400.277 248.201 400.147Z" fill="#BED1F9"/>
<path d="M252.695 405.199V408.285C252.695 408.544 252.479 408.739 252.242 408.739H245.032C244.514 408.739 244.32 408.048 244.751 407.767L248.809 405.199C248.788 405.199 250.364 406.364 252.695 405.199Z" fill="url(#paint20_linear_617_252)"/>
<path d="M267.631 399.414C265.127 400.666 263.033 400.169 263.033 400.169L265.149 406.71L266.206 407.444L268.581 405.263L267.631 399.414Z" fill="#BED1F9"/>
<path d="M264.65 405.199V408.285C264.65 408.544 264.866 408.739 265.104 408.739H272.313C272.831 408.739 273.026 408.048 272.594 407.767L268.536 405.199C268.557 405.199 266.982 406.364 264.65 405.199Z" fill="url(#paint21_linear_617_252)"/>
<path d="M258.067 355.465H253.793V359.739H258.067V355.465Z" fill="#AAAAAA"/>
<path d="M258.067 358.033V355.465H253.793V357.645C254.7 358.141 256.081 358.422 258.067 358.033Z" fill="#AAAAAA"/>
<path d="M264.285 348.384C263.875 348.169 263.378 348.212 262.925 348.428C263.076 344.456 259.838 341.131 255.759 341.261C251.679 341.11 248.441 344.456 248.592 348.428C248.16 348.212 247.664 348.169 247.232 348.384C246.433 348.773 246.174 349.917 246.671 350.931C247.167 351.946 248.225 352.421 249.024 352.032C249.132 351.968 249.24 351.903 249.326 351.817C249.779 355.098 252.521 357.558 255.737 357.515C258.953 357.558 261.695 355.098 262.148 351.817C262.234 351.903 262.342 351.968 262.45 352.032C263.249 352.421 264.307 351.946 264.803 350.931C265.343 349.917 265.084 348.794 264.285 348.384Z" fill="#AAAAAA"/>
<path d="M251.01 358.702C251.01 358.702 256.061 363.343 260.659 358.767L251.01 358.702Z" fill="#AAAAAA"/>
<path d="M281.749 348.924C281.727 348.773 283.325 347.37 283.152 347.327C282.979 347.283 281.339 348.384 281.274 348.276C281.231 348.169 282.785 346.83 282.591 346.636C282.396 346.442 280.734 347.953 280.648 347.737C280.562 347.521 282.31 346.01 282.094 345.859C281.922 345.729 279.936 347.37 279.31 347.888C279.223 347.953 279.094 347.909 279.094 347.802C278.9 346.183 278.792 346.075 278.619 346.139C278.511 346.183 277.993 348.017 277.648 349.356C271.603 355.745 261.264 360.192 261.264 360.192C261.264 360.192 257.551 369.258 262.775 367.337C267.373 365.653 276.806 354.903 279.072 352.291L279.979 351.428C280.281 351.234 280.54 351.083 280.54 351.083C283.368 348.816 283.303 348.751 283.238 348.622C283.195 348.471 281.77 349.075 281.749 348.924Z" fill="#AAAAAA"/>
<path d="M229.271 348.924C229.292 348.773 227.695 347.37 227.867 347.327C228.04 347.283 229.681 348.384 229.745 348.276C229.789 348.169 228.234 346.83 228.429 346.636C228.623 346.442 230.285 347.953 230.371 347.737C230.458 347.521 228.709 346.01 228.925 345.859C229.098 345.729 231.084 347.37 231.71 347.888C231.796 347.953 231.926 347.909 231.926 347.802C232.12 346.183 232.228 346.075 232.4 346.139C232.508 346.183 233.026 348.017 233.372 349.356C239.416 355.745 249.756 360.192 249.756 360.192C249.756 360.192 253.468 369.258 248.245 367.337C243.647 365.653 234.214 354.903 231.947 352.291L231.041 351.428C230.738 351.234 230.479 351.083 230.479 351.083C227.652 348.816 227.716 348.751 227.781 348.622C227.824 348.471 229.249 349.075 229.271 348.924Z" fill="#AAAAAA"/>
<path d="M268.967 355.68L263.592 357.904C262.513 358.357 261.369 358.638 260.203 358.767C256.037 362.912 251.461 358.724 251.461 358.724C250.188 358.638 248.914 358.335 247.727 357.839L242.568 355.702C242.568 355.702 242.158 359.458 240.215 362.545L246.41 366.387L245.892 380.418C245.892 380.418 262.384 381.519 266.032 380.267L265.233 366.322L271.32 362.545C268.946 359.782 268.967 355.68 268.967 355.68Z" fill="url(#paint22_linear_617_252)"/>
<path d="M249.238 365.934C249.238 365.934 257.204 366.258 262.125 365.934C262.125 365.934 262.492 374.87 263.485 378.475C263.722 379.339 264.435 379.986 265.32 380.116L266.054 380.245C266.054 380.245 264.025 382.015 263.96 382.015C263.895 382.015 258.11 381.951 258.024 381.907C257.937 381.864 245.914 380.245 245.914 380.245C245.914 380.245 247.144 380.31 247.986 379.295C248.828 378.302 249.238 365.934 249.238 365.934Z" fill="#BED1F9"/>
<path d="M251.137 368.006H250.037C249.864 368.006 249.734 367.876 249.734 367.704V358.443C249.734 358.271 249.864 358.141 250.037 358.141H251.137C251.31 358.141 251.44 358.271 251.44 358.443V367.704C251.44 367.876 251.289 368.006 251.137 368.006Z" fill="#92B5F9"/>
<path d="M261.391 368.006H260.29C260.118 368.006 259.988 367.876 259.988 367.704V358.443C259.988 358.271 260.118 358.141 260.29 358.141H261.391C261.564 358.141 261.694 358.271 261.694 358.443V367.704C261.694 367.876 261.564 368.006 261.391 368.006Z" fill="#92B5F9"/>
<path d="M247.923 365.157C247.88 365.243 247.858 365.329 247.815 365.416C247.729 365.588 247.643 365.739 247.513 365.869C247.383 365.999 247.254 366.128 247.103 366.214C246.952 366.301 246.779 366.365 246.606 366.365L246.412 366.387L246.563 366.495C246.65 366.56 246.736 366.581 246.844 366.625C246.93 366.646 247.038 366.668 247.146 366.668C247.34 366.668 247.535 366.646 247.707 366.56C247.621 366.581 247.513 366.603 247.427 366.603C247.34 366.603 247.232 366.603 247.146 366.581C247.06 366.56 246.973 366.538 246.887 366.517C246.865 366.517 246.844 366.495 246.822 366.495C246.952 366.473 247.06 366.43 247.189 366.365C247.362 366.279 247.513 366.128 247.642 365.977L247.729 365.869C247.75 365.826 247.772 365.783 247.794 365.739C247.837 365.653 247.88 365.567 247.902 365.48C247.923 365.394 247.945 365.308 247.988 365.2C248.009 365.113 248.009 365.006 248.031 364.919C247.988 364.984 247.966 365.07 247.923 365.157Z" fill="#DAEEF7"/>
<path d="M263.723 365.092C263.766 365.178 263.788 365.265 263.831 365.351C263.917 365.524 264.004 365.675 264.133 365.804C264.263 365.934 264.392 366.063 264.543 366.15C264.695 366.236 264.867 366.301 265.04 366.301L265.234 366.322L265.083 366.43C264.997 366.495 264.91 366.517 264.802 366.56C264.716 366.581 264.608 366.603 264.5 366.603C264.306 366.603 264.112 366.581 263.939 366.495C264.025 366.517 264.133 366.538 264.22 366.538C264.306 366.538 264.414 366.538 264.5 366.517C264.587 366.495 264.673 366.473 264.759 366.452C264.781 366.452 264.802 366.43 264.824 366.43C264.695 366.409 264.587 366.365 264.457 366.301C264.284 366.214 264.133 366.063 264.004 365.912L263.917 365.804C263.896 365.761 263.874 365.718 263.853 365.675C263.81 365.588 263.766 365.502 263.745 365.416C263.723 365.329 263.702 365.243 263.658 365.135C263.637 365.049 263.637 364.941 263.615 364.854C263.658 364.898 263.702 365.006 263.723 365.092Z" fill="#DAEEF7"/>
<path d="M257.721 374.417H253.749C252.67 374.417 251.785 373.532 251.785 372.453V370.273H259.686V372.453C259.686 373.532 258.801 374.417 257.721 374.417Z" fill="#92B5F9"/>
<path d="M251.075 367.078C251.075 367.337 250.859 367.574 250.579 367.574C250.298 367.574 250.082 367.358 250.082 367.078C250.082 366.797 250.298 366.581 250.579 366.581C250.859 366.603 251.075 366.819 251.075 367.078Z" fill="#DAEEF7"/>
<path d="M261.327 367.078C261.327 367.337 261.111 367.574 260.83 367.574C260.55 367.574 260.334 367.358 260.334 367.078C260.334 366.797 260.55 366.581 260.83 366.581C261.111 366.603 261.327 366.819 261.327 367.078Z" fill="#DAEEF7"/>
<path d="M257.573 350.068C257.465 350.478 257.81 350.845 258.22 350.78C258.458 350.759 258.652 350.586 258.695 350.349C258.803 349.939 258.458 349.572 258.048 349.636C257.832 349.658 257.637 349.831 257.573 350.068Z" fill="#0B0754"/>
<path d="M252.606 350.111C252.498 350.521 252.843 350.888 253.254 350.824C253.491 350.802 253.685 350.629 253.728 350.392C253.836 349.982 253.491 349.615 253.081 349.68C252.865 349.723 252.671 349.895 252.606 350.111Z" fill="#0B0754"/>
<path d="M256.922 348.989C257.202 348.881 257.483 348.816 257.764 348.751C258.044 348.708 258.303 348.687 258.562 348.708C258.821 348.73 259.08 348.795 259.34 348.902C259.685 349.032 259.944 349.205 260.117 349.291C259.966 349.054 259.75 348.751 259.491 348.622C259.232 348.428 258.908 348.341 258.606 348.298C258.282 348.255 257.958 348.32 257.656 348.428C257.375 348.579 257.116 348.751 256.922 348.989Z" fill="#0B0754"/>
<path d="M254.591 348.989C254.397 348.751 254.138 348.557 253.857 348.449C253.577 348.32 253.231 348.276 252.908 348.298C252.584 348.341 252.26 348.428 252.001 348.622C251.742 348.773 251.526 349.054 251.375 349.291C251.569 349.205 251.807 349.032 252.152 348.902C252.411 348.795 252.67 348.73 252.929 348.708C253.188 348.687 253.469 348.687 253.728 348.751C254.03 348.794 254.311 348.881 254.591 348.989Z" fill="#0B0754"/>
<path d="M250.858 339.707C250.858 339.707 252.887 338.002 257.463 338.282C262.061 338.563 262.924 340.959 263.183 344.369L262.924 348.449C262.924 348.449 261.737 347.219 260.183 343.83C260.183 343.83 257.614 346.722 256.492 346.377C255.369 346.031 256.923 343.959 256.923 343.959C256.923 343.959 251.678 348.471 248.591 348.471C248.591 348.471 246.951 343.204 249.26 341.261C249.26 341.261 247.533 341.347 247.447 341.002C247.361 340.657 248.267 340.16 249.929 340.354C249.929 340.354 248.742 338.045 249.411 337.807C250.059 337.527 250.858 339.707 250.858 339.707Z" fill="url(#paint23_linear_617_252)"/>
<path d="M253.297 353.263C253.47 354.018 254.333 354.623 255.412 354.644C256.47 354.687 257.377 354.126 257.592 353.392L253.297 353.263Z" fill="white"/>
<path d="M255.541 349.377C255.562 349.68 255.541 349.982 255.497 350.284C255.476 350.435 255.433 350.586 255.368 350.737C255.303 350.888 255.238 351.039 255.109 351.169C254.958 351.277 254.893 351.32 254.85 351.428C254.807 351.514 254.828 351.644 254.871 351.752C254.979 351.989 255.217 352.162 255.497 352.291C255.195 352.27 254.871 352.162 254.677 351.86C254.591 351.709 254.526 351.514 254.591 351.342C254.656 351.147 254.763 351.083 254.915 350.953C255.001 350.867 255.066 350.759 255.13 350.629C255.195 350.5 255.238 350.37 255.282 350.241C255.368 349.96 255.454 349.68 255.541 349.377Z" fill="#0160E7"/>
<path d="M281.479 370.185L295.158 365.164L289.073 348.588L275.395 353.609L281.479 370.185Z" fill="#BED1F9"/>
<path d="M288.325 367.67L295.154 365.163L289.07 348.586L282.24 351.093L288.325 367.67Z" fill="#92B5F9"/>
<path d="M287.056 350.953C287.207 350.888 287.272 350.716 287.186 350.565C286.948 350.09 286.387 349.054 285.545 348.104C284.013 346.377 282.264 345.772 280.516 346.334C279.544 346.636 278.811 347.24 278.357 348.125C277.321 350.133 277.969 352.961 278.228 353.867C278.271 354.018 278.444 354.105 278.595 354.061C278.746 354.018 278.811 353.867 278.789 353.716C278.552 352.874 277.947 350.176 278.875 348.384C279.264 347.629 279.868 347.132 280.71 346.873C282.264 346.377 283.754 346.917 285.157 348.492C285.956 349.399 286.495 350.392 286.711 350.824C286.754 350.953 286.927 350.996 287.056 350.953Z" fill="#DAEEF7"/>
<path d="M236.704 354.15L223.025 349.129L216.941 365.705L230.619 370.726L236.704 354.15Z" fill="#BED1F9"/>
<path d="M229.847 351.635L223.018 349.128L216.933 365.705L223.762 368.212L229.847 351.635Z" fill="#92B5F9"/>
<path d="M225.039 351.493C224.888 351.428 224.823 351.255 224.91 351.104C225.147 350.629 225.708 349.593 226.55 348.643C228.083 346.917 229.831 346.312 231.58 346.873C232.551 347.176 233.285 347.78 233.738 348.665C234.775 350.672 234.127 353.5 233.868 354.407C233.825 354.558 233.652 354.644 233.501 354.601C233.35 354.558 233.285 354.407 233.307 354.256C233.544 353.414 234.149 350.716 233.22 348.924C232.832 348.169 232.227 347.672 231.386 347.413C229.831 346.917 228.342 347.456 226.939 349.032C226.14 349.939 225.601 350.931 225.385 351.363C225.341 351.493 225.19 351.536 225.039 351.493Z" fill="#DAEEF7"/>
<path d="M408.799 357.17L410.137 360.149C410.245 360.386 410.137 360.688 409.9 360.796L402.906 363.926C402.409 364.164 401.913 363.581 402.215 363.106L404.913 358.897C404.913 358.897 407.05 359.307 408.799 357.17Z" fill="url(#paint24_linear_617_252)"/>
<path d="M417.844 356.803L419.182 359.782C419.29 360.019 419.182 360.321 418.945 360.429L411.951 363.559C411.454 363.775 410.958 363.214 411.26 362.739L413.958 358.53C413.98 358.551 416.117 358.94 417.844 356.803Z" fill="url(#paint25_linear_617_252)"/>
<path d="M426.024 260.227C426.024 260.227 418.405 258.954 415.857 267.437L419.009 272.164C419.009 272.164 425.614 269.617 425.636 269.38C425.657 269.121 426.024 260.227 426.024 260.227Z" fill="url(#paint26_linear_617_252)"/>
<path d="M438.264 264.07C438.264 264.07 440.487 267.415 441.61 268.732C444.459 272.056 444.826 271.02 446.596 273.891C448.517 276.978 446.574 278.921 445.474 279.806C444.373 280.691 446.207 283.993 444.157 285.85C441.48 288.267 438.998 285.979 437.163 287.339C435.328 288.699 434.918 290.707 430.536 290.318C426.176 289.93 426.197 275.64 426.197 275.64C426.197 275.64 429.781 268.063 429.91 267.998C430.083 267.933 438.264 264.07 438.264 264.07Z" fill="url(#paint27_linear_617_252)"/>
<path d="M415.858 267.459C415.858 267.459 415.599 270.07 414.735 271.582C412.555 275.381 411.368 274.129 410.159 277.28C408.864 280.669 411.109 282.223 412.361 282.893C413.613 283.562 412.404 287.145 414.757 288.57C417.844 290.448 419.851 287.749 421.923 288.742C423.996 289.735 424.751 291.635 428.982 290.448C433.213 289.26 430.515 275.23 430.515 275.23C430.515 275.23 425.593 268.452 425.442 268.408C425.291 268.387 415.858 267.459 415.858 267.459Z" fill="url(#paint28_linear_617_252)"/>
<path d="M426.889 284.382C426.889 284.382 434.185 283.044 437.531 283.152C440.877 283.26 435.502 291.98 435.502 291.98L430.019 292.11C430.019 292.11 426.651 288.354 426.889 287.922C427.105 287.49 426.889 284.619 426.889 284.619V284.382Z" fill="#AAAAAA"/>
<path d="M433.407 277.41L435.328 283.26C435.328 283.26 433.644 286.713 428.528 285.224C428.528 285.224 429.111 284.015 428.334 281.533C427.514 278.986 433.407 277.41 433.407 277.41Z" fill="#AAAAAA"/>
<path opacity="0.6" d="M433.407 277.41L434.314 280.13C433.774 282.115 432.025 283.475 428.744 283.907C428.744 283.324 428.658 282.526 428.334 281.511C427.514 278.986 433.407 277.41 433.407 277.41Z" fill="#AAAAAA"/>
<path d="M421.665 273.136C422.075 274.085 421.794 275.122 421.039 275.467C420.283 275.791 419.333 275.294 418.902 274.345C418.491 273.395 418.772 272.359 419.528 272.035C420.283 271.689 421.254 272.186 421.665 273.136Z" fill="#0160E7"/>
<path d="M421.449 277.453C420.952 276.222 420.693 274.927 420.542 273.783C420.521 273.546 420.478 273.287 420.413 273.049C420.219 272.078 420.197 271.042 420.391 269.963C421.039 266.509 423.931 263.832 427.428 263.487C432.134 263.012 436.149 266.638 436.257 271.236C436.753 270.934 437.315 270.869 437.811 271.063C438.782 271.474 439.149 272.769 438.653 273.956C438.156 275.165 436.969 275.812 435.998 275.402C435.868 275.337 435.739 275.273 435.631 275.186C435.329 279.115 432.199 282.223 428.356 282.267C425.486 282.331 422.636 280.583 421.449 277.453Z" fill="#AAAAAA"/>
<path d="M426.476 271.43C426.627 271.862 426.714 272.315 426.735 272.79C426.757 273.028 426.735 273.265 426.714 273.503C426.67 273.74 426.627 273.978 426.476 274.215C426.303 274.431 426.217 274.517 426.174 274.69C426.152 274.841 426.217 275.014 426.325 275.165C426.562 275.467 426.994 275.64 427.447 275.726C426.994 275.812 426.476 275.748 426.088 275.402C425.893 275.23 425.742 274.949 425.764 274.647C425.785 274.345 425.915 274.193 426.109 273.956C426.195 273.805 426.26 273.611 426.303 273.416C426.347 273.222 426.368 272.985 426.39 272.769C426.433 272.337 426.455 271.884 426.476 271.43Z" fill="#0160E7"/>
<path d="M429.134 271.992C429.048 272.488 429.479 272.898 429.976 272.812C430.257 272.747 430.472 272.531 430.516 272.251C430.602 271.754 430.17 271.344 429.674 271.43C429.393 271.495 429.177 271.711 429.134 271.992Z" fill="#0B0754"/>
<path d="M423.132 272.445C423.046 272.941 423.478 273.352 423.952 273.265C424.233 273.2 424.449 272.985 424.492 272.704C424.578 272.208 424.147 271.797 423.65 271.884C423.391 271.948 423.175 272.164 423.132 272.445Z" fill="#0B0754"/>
<path opacity="0.3" d="M429.242 277.453C429.242 277.453 428.249 277.086 427.3 277.712C427.3 277.712 426.285 277.064 425.486 277.69C425.486 277.69 425.853 279.201 427.537 279.093C429.199 278.986 429.242 277.453 429.242 277.453Z" fill="#0160E7"/>
<path d="M430.103 276.913C429.909 277.064 429.714 277.215 429.52 277.323C429.326 277.453 429.11 277.561 428.894 277.669C428.462 277.863 427.988 277.993 427.513 278.036C427.038 278.079 426.563 278.014 426.11 277.885C425.656 277.734 425.225 277.518 424.814 277.237C424.987 277.41 425.181 277.561 425.397 277.69C425.613 277.82 425.829 277.928 426.066 278.014C426.304 278.1 426.541 278.165 426.779 278.208C427.016 278.23 427.275 278.252 427.534 278.23C428.031 278.187 428.506 278.036 428.959 277.798C429.369 277.561 429.779 277.259 430.103 276.913Z" fill="#0160E7"/>
<path d="M428.291 270.524C428.658 270.437 428.982 270.351 429.327 270.308C429.651 270.265 429.975 270.265 430.299 270.33C430.601 270.373 430.924 270.459 431.227 270.61C431.464 270.696 432.004 271.042 432.155 271.107C432.004 270.783 431.766 270.437 431.443 270.243C431.14 270.006 430.752 269.855 430.385 269.79C429.996 269.725 429.586 269.768 429.241 269.898C428.874 270.027 428.528 270.222 428.291 270.524Z" fill="url(#paint29_linear_617_252)"/>
<path d="M425.203 270.761C424.923 270.502 424.577 270.33 424.21 270.243C423.843 270.157 423.433 270.157 423.045 270.265C422.678 270.373 422.311 270.567 422.03 270.848C421.749 271.085 421.555 271.452 421.447 271.797C421.577 271.711 422.095 271.301 422.311 271.193C422.591 270.999 422.894 270.891 423.196 270.804C423.498 270.718 423.822 270.675 424.167 270.675C424.491 270.675 424.836 270.696 425.203 270.761Z" fill="url(#paint30_linear_617_252)"/>
<path d="M439.581 320.064C439.581 320.064 441.739 330.187 431.961 332.583C422.204 334.979 409.878 335.238 409.878 335.238L409.641 358.832L404.504 359.415C404.504 359.415 389.178 327.64 407.223 321.38L423.737 320.409L430.515 319.502C430.515 319.502 437.293 317.365 437.379 317.689C437.509 317.991 439.43 320.236 439.581 320.064Z" fill="#4951EC"/>
<path d="M448.669 319.546C448.669 319.546 450.827 329.669 441.049 332.065C431.292 334.461 418.966 334.72 418.966 334.72L418.729 358.314L413.591 358.897C413.591 358.897 398.265 327.122 416.311 320.862L432.825 319.891L439.603 318.984C439.603 318.984 446.381 316.847 446.467 317.171C446.575 317.473 448.518 319.718 448.669 319.546Z" fill="#7C9AF2"/>
<path d="M416.008 335.39C416.288 335.346 416.569 335.282 416.85 335.217C417.13 335.152 417.411 335.087 417.67 335.001C417.799 334.958 417.95 334.915 418.08 334.872C417.929 334.85 417.799 334.807 417.67 334.742C417.411 334.656 417.152 334.505 416.914 334.353C416.677 334.181 416.461 334.008 416.288 333.792C416.094 333.576 415.943 333.361 415.792 333.123L416.073 333.425C416.18 333.512 416.267 333.62 416.375 333.706C416.569 333.9 416.806 334.051 417.022 334.181C417.26 334.31 417.497 334.44 417.756 334.526C418.015 334.613 418.274 334.677 418.533 334.677L418.987 334.699L418.576 334.893C418.296 335.023 418.037 335.109 417.756 335.174C417.476 335.26 417.195 335.303 416.914 335.346C416.634 335.39 416.353 335.433 416.051 335.454C415.77 335.476 415.468 335.498 415.188 335.498C415.447 335.476 415.727 335.433 416.008 335.39Z" fill="white"/>
<path d="M418.598 298.586C418.598 298.586 417.929 315.12 416.072 317.711L426.304 315.379V297.377L418.598 298.586Z" fill="#AAAAAA"/>
<path d="M422.959 300.852C422.959 300.852 424.384 305.018 424.643 307.22C425.29 312.703 424.578 316.588 423.455 319.718C421.858 324.1 434.874 322.503 435.155 322.373C435.414 322.244 446.574 317.927 446.574 317.927L448.689 311.753V300.852L448.085 295.866L422.959 300.852Z" fill="#BED1F9"/>
<path d="M454.151 295.866L445.948 298.65C445.948 298.65 447.373 311.753 446.919 313.609C446.531 315.207 440.595 318.358 436.839 320.128C436.234 320.409 435.565 320.538 434.896 320.474C432.759 320.301 428.96 319.956 428.355 319.934C427.427 319.869 424.837 319.934 424.751 320.258C424.664 320.56 426.758 320.236 428.118 320.517C428.312 320.56 428.204 320.819 428.161 320.819C427.449 320.841 425.592 320.927 424.988 321.121C424.232 321.38 426.888 321.164 428.312 321.445C428.42 321.467 428.485 321.747 428.42 321.812C428.247 321.985 427.621 322.136 425.916 322.309C423.067 322.589 425.851 322.956 425.851 322.956C425.851 322.956 426.11 322.891 428.55 322.546C428.636 322.524 428.744 322.783 428.614 322.913C428.377 323.129 427.837 323.517 427.103 323.755C426.197 324.035 426.844 324.273 426.844 324.273C426.844 324.273 428.571 323.755 429.543 323.69C430.277 323.625 433.687 323.906 435.112 323.992L435.22 323.755C437.119 323.69 452.316 323.301 453.784 313.89C455.295 304.155 454.151 295.866 454.151 295.866Z" fill="#AAAAAA"/>
<path d="M394.596 305.256H420.715L428.119 323.323H440.703C441.049 323.323 441.351 323.604 441.351 323.949C441.351 324.294 441.07 324.597 440.703 324.597H403.295L394.596 305.256Z" fill="#0B0754"/>
<path d="M407.526 315.574C407.677 316.351 408.347 316.869 409.016 316.718C409.685 316.588 410.117 315.854 409.965 315.077C409.814 314.3 409.145 313.782 408.476 313.933C407.807 314.063 407.375 314.797 407.526 315.574Z" fill="#DDE8FE"/>
<path d="M426.888 284.382C426.888 284.382 431.853 290.167 437.53 283.152C437.53 283.152 443.747 282.655 448.323 285.893C452.899 289.152 455.662 296.47 455.662 296.47C455.662 296.47 447.352 300.658 445.301 300.852H422.247C422.247 300.852 418.729 300.593 415.34 298.866C415.34 298.845 415.923 287.231 426.888 284.382Z" fill="#BED1F9"/>
<path d="M442.278 294.247C442.494 294.959 442.689 295.693 442.883 296.405C443.25 297.83 443.574 299.19 443.811 300.636C444.264 300.658 444.761 300.593 445.214 300.528C447.61 300.097 449.186 299.427 451.323 298.564C454.518 297.118 454.086 297.247 455.705 296.449C453.827 297.636 452.834 298.154 451.474 298.845C449.596 299.708 447.826 300.507 445.3 300.96C444.2 301.111 443.876 301.068 443.466 301.025C443.293 299.967 443.12 298.866 442.602 296.47L442.127 294.268L441.631 292.088C441.847 292.822 442.063 293.534 442.278 294.247Z" fill="#0B0754"/>
<path d="M424.082 290.426C423.758 291.268 423.456 292.131 423.197 292.995C422.938 293.858 422.701 294.722 422.55 295.607C422.398 296.362 422.312 297.334 422.334 298.262C422.377 299.147 423.672 303.334 424.061 304.155C423.521 303.421 422.075 299.212 421.988 298.283C421.88 297.355 421.945 296.427 422.118 295.52C422.291 294.614 422.528 293.75 422.873 292.887C423.219 292.023 423.607 291.182 424.082 290.426Z" fill="#0B0754"/>
<path d="M436.278 271.236C436.278 271.236 427.752 269.185 423.693 263.4C423.693 263.4 423.629 258.133 431.443 259.321C439.041 260.486 440.833 267.89 436.278 271.236Z" fill="url(#paint31_linear_617_252)"/>
<defs>
<linearGradient id="paint0_linear_617_252" x1="312.5" y1="0" x2="312.5" y2="500" gradientUnits="userSpaceOnUse">
<stop stop-color="#0160E7"/>
<stop offset="1" stop-color="#013681"/>
</linearGradient>
<linearGradient id="paint1_linear_617_252" x1="461.87" y1="368.9" x2="461.87" y2="404.486" gradientUnits="userSpaceOnUse">
<stop stop-color="#0160E7"/>
<stop offset="1" stop-color="#013681"/>
</linearGradient>
<linearGradient id="paint2_linear_617_252" x1="424.148" y1="392.175" x2="499.656" y2="392.175" gradientUnits="userSpaceOnUse">
<stop stop-color="#0160E7"/>
<stop offset="1" stop-color="#013681"/>
</linearGradient>
<linearGradient id="paint3_linear_617_252" x1="164.172" y1="249.028" x2="164.172" y2="343.999" gradientUnits="userSpaceOnUse">
<stop stop-color="#0160E7"/>
<stop offset="1" stop-color="#013681"/>
</linearGradient>
<linearGradient id="paint4_linear_617_252" x1="165.373" y1="94.0802" x2="165.373" y2="106.147" gradientUnits="userSpaceOnUse">
<stop stop-color="#0160E7"/>
<stop offset="1" stop-color="#013681"/>
</linearGradient>
<linearGradient id="paint5_linear_617_252" x1="432.264" y1="141.936" x2="432.264" y2="153.981" gradientUnits="userSpaceOnUse">
<stop stop-color="#0160E7"/>
<stop offset="1" stop-color="#013681"/>
</linearGradient>
<linearGradient id="paint6_linear_617_252" x1="324.463" y1="172.2" x2="324.463" y2="179.064" gradientUnits="userSpaceOnUse">
<stop stop-color="#0160E7"/>
<stop offset="1" stop-color="#013681"/>
</linearGradient>
<linearGradient id="paint7_linear_617_252" x1="306.386" y1="254.14" x2="306.386" y2="269.876" gradientUnits="userSpaceOnUse">
<stop stop-color="#0160E7"/>
<stop offset="1" stop-color="#013681"/>
</linearGradient>
<linearGradient id="paint8_linear_617_252" x1="298.239" y1="327.252" x2="298.239" y2="333.382" gradientUnits="userSpaceOnUse">
<stop stop-color="#0160E7"/>
<stop offset="1" stop-color="#013681"/>
</linearGradient>
<linearGradient id="paint9_linear_617_252" x1="310.604" y1="327.252" x2="310.604" y2="333.382" gradientUnits="userSpaceOnUse">
<stop stop-color="#0160E7"/>
<stop offset="1" stop-color="#013681"/>
</linearGradient>
<linearGradient id="paint10_linear_617_252" x1="306.389" y1="298.124" x2="306.389" y2="327.209" gradientUnits="userSpaceOnUse">
<stop stop-color="#0160E7"/>
<stop offset="1" stop-color="#013681"/>
</linearGradient>
<linearGradient id="paint11_linear_617_252" x1="306.386" y1="379.209" x2="306.386" y2="389.117" gradientUnits="userSpaceOnUse">
<stop stop-color="#0160E7"/>
<stop offset="1" stop-color="#013681"/>
</linearGradient>
<linearGradient id="paint12_linear_617_252" x1="416.961" y1="307.052" x2="416.961" y2="335.972" gradientUnits="userSpaceOnUse">
<stop stop-color="#0160E7"/>
<stop offset="1" stop-color="#013681"/>
</linearGradient>
<linearGradient id="paint13_linear_617_252" x1="415.129" y1="407.282" x2="415.194" y2="334.3" gradientUnits="userSpaceOnUse">
<stop stop-color="#0160E7"/>
<stop offset="1" stop-color="#013681"/>
</linearGradient>
<linearGradient id="paint14_linear_617_252" x1="298.069" y1="264.544" x2="298.069" y2="271.829" gradientUnits="userSpaceOnUse">
<stop stop-color="#0160E7"/>
<stop offset="1" stop-color="#013681"/>
</linearGradient>
<linearGradient id="paint15_linear_617_252" x1="288.571" y1="264.544" x2="288.571" y2="271.829" gradientUnits="userSpaceOnUse">
<stop stop-color="#0160E7"/>
<stop offset="1" stop-color="#013681"/>
</linearGradient>
<linearGradient id="paint16_linear_617_252" x1="268.365" y1="174.032" x2="268.365" y2="181.503" gradientUnits="userSpaceOnUse">
<stop stop-color="#0160E7"/>
<stop offset="1" stop-color="#013681"/>
</linearGradient>
<linearGradient id="paint17_linear_617_252" x1="260.658" y1="191.756" x2="260.658" y2="229.517" gradientUnits="userSpaceOnUse">
<stop stop-color="#0160E7"/>
<stop offset="1" stop-color="#013681"/>
</linearGradient>
<linearGradient id="paint18_linear_617_252" x1="261" y1="166.263" x2="261" y2="178.697" gradientUnits="userSpaceOnUse">
<stop stop-color="#0160E7"/>
<stop offset="1" stop-color="#013681"/>
</linearGradient>
<linearGradient id="paint19_linear_617_252" x1="253.782" y1="170.285" x2="253.782" y2="181.88" gradientUnits="userSpaceOnUse">
<stop stop-color="#0160E7"/>
<stop offset="1" stop-color="#013681"/>
</linearGradient>
<linearGradient id="paint20_linear_617_252" x1="248.604" y1="405.199" x2="248.604" y2="408.739" gradientUnits="userSpaceOnUse">
<stop stop-color="#0160E7"/>
<stop offset="1" stop-color="#013681"/>
</linearGradient>
<linearGradient id="paint21_linear_617_252" x1="268.741" y1="405.199" x2="268.741" y2="408.739" gradientUnits="userSpaceOnUse">
<stop stop-color="#0160E7"/>
<stop offset="1" stop-color="#013681"/>
</linearGradient>
<linearGradient id="paint22_linear_617_252" x1="255.768" y1="355.68" x2="255.768" y2="380.865" gradientUnits="userSpaceOnUse">
<stop stop-color="#0160E7"/>
<stop offset="1" stop-color="#013681"/>
</linearGradient>
<linearGradient id="paint23_linear_617_252" x1="255.312" y1="337.782" x2="255.312" y2="348.471" gradientUnits="userSpaceOnUse">
<stop stop-color="#0160E7"/>
<stop offset="1" stop-color="#013681"/>
</linearGradient>
<linearGradient id="paint24_linear_617_252" x1="406.151" y1="357.17" x2="406.151" y2="363.981" gradientUnits="userSpaceOnUse">
<stop stop-color="#0160E7"/>
<stop offset="1" stop-color="#013681"/>
</linearGradient>
<linearGradient id="paint25_linear_617_252" x1="415.196" y1="356.803" x2="415.196" y2="363.607" gradientUnits="userSpaceOnUse">
<stop stop-color="#0160E7"/>
<stop offset="1" stop-color="#013681"/>
</linearGradient>
<linearGradient id="paint26_linear_617_252" x1="420.941" y1="260.159" x2="420.941" y2="272.164" gradientUnits="userSpaceOnUse">
<stop stop-color="#0160E7"/>
<stop offset="1" stop-color="#013681"/>
</linearGradient>
<linearGradient id="paint27_linear_617_252" x1="436.803" y1="264.07" x2="436.803" y2="290.367" gradientUnits="userSpaceOnUse">
<stop stop-color="#0160E7"/>
<stop offset="1" stop-color="#013681"/>
</linearGradient>
<linearGradient id="paint28_linear_617_252" x1="420.566" y1="267.459" x2="420.566" y2="290.826" gradientUnits="userSpaceOnUse">
<stop stop-color="#0160E7"/>
<stop offset="1" stop-color="#013681"/>
</linearGradient>
<linearGradient id="paint29_linear_617_252" x1="430.223" y1="269.76" x2="430.223" y2="271.107" gradientUnits="userSpaceOnUse">
<stop stop-color="#0160E7"/>
<stop offset="1" stop-color="#013681"/>
</linearGradient>
<linearGradient id="paint30_linear_617_252" x1="423.325" y1="270.181" x2="423.325" y2="271.797" gradientUnits="userSpaceOnUse">
<stop stop-color="#0160E7"/>
<stop offset="1" stop-color="#013681"/>
</linearGradient>
<linearGradient id="paint31_linear_617_252" x1="431.224" y1="259.146" x2="431.224" y2="271.236" gradientUnits="userSpaceOnUse">
<stop stop-color="#0160E7"/>
<stop offset="1" stop-color="#013681"/>
</linearGradient>
</defs>
</svg>
