<svg width="625" height="500" viewBox="0 0 625 500" fill="none" xmlns="http://www.w3.org/2000/svg">
<path opacity="0.1" d="M3.87593 224.102C-14.9808 149.977 39.5345 115.057 69.1492 106.863C93.3239 101.19 164.519 81.1455 255.901 46.3518C347.284 11.5581 428.15 4.12028 457.161 4.7506C650.079 -34.5814 637.871 179.98 607.652 292.177C546.73 529.682 321.175 515.941 216.012 479.382C68.0596 453.665 12.9411 298.48 3.87593 224.102Z" fill="url(#paint0_linear_619_919)"/>
<path d="M472.273 282.787C461.869 276.842 453.491 262.249 453.491 250.359C453.491 245.9 454.707 242.522 456.599 240.225C450.924 240.631 447.006 245.36 447.006 253.467C447.006 265.357 455.383 279.814 465.787 285.895C472.273 289.678 477.947 289.137 481.325 285.354C478.758 285.624 475.65 284.814 472.273 282.787Z" fill="#72B5E8"/>
<path d="M490.512 278.869C490.512 277.382 490.377 275.896 490.242 274.275L497.809 273.329C496.998 269.546 495.917 265.627 494.431 261.844L485.783 259.277C484.297 256.034 482.405 252.926 480.379 249.954L482.405 241.171C479.838 237.928 477.001 235.091 474.163 232.389L469.569 238.469C468.353 237.523 467.002 236.712 465.786 235.902C464.435 235.091 463.219 234.551 462.003 234.01L457.409 222.66C454.436 221.85 451.734 221.579 449.167 221.85L451.194 232.929C449.167 233.47 447.275 234.551 445.789 236.037L437.142 228.605C435.655 230.632 434.439 233.199 433.764 236.172L441.33 245.9C441.195 247.251 441.06 248.603 441.06 250.089C441.06 251.575 441.195 253.061 441.33 254.683L433.764 255.629C434.574 259.412 435.655 263.33 437.142 267.114L445.789 269.681C447.275 272.924 449.167 276.031 451.194 279.004L449.167 287.786C451.734 291.029 454.572 293.867 457.409 296.569L462.003 290.489C463.219 291.434 464.57 292.245 465.786 293.056C467.137 293.867 468.353 294.407 469.569 294.947L474.163 306.297C477.136 307.108 479.838 307.378 482.405 307.108L480.379 296.028C482.405 295.488 484.297 294.407 485.783 292.921L494.431 300.352C495.917 298.325 497.133 295.758 497.809 292.786L490.242 283.057C490.377 281.841 490.512 280.355 490.512 278.869ZM465.921 285.895C455.517 279.95 447.14 265.357 447.14 253.467C447.14 241.577 455.517 236.848 465.921 242.793C476.325 248.738 484.702 263.33 484.702 275.221C484.702 287.111 476.325 291.975 465.921 285.895Z" fill="#A8CFF0"/>
<path d="M469.164 230.092L464.57 218.607L457.273 222.795L461.867 234.28L469.164 230.092Z" fill="#72B5E8"/>
<path d="M461.869 234.28C463.085 234.821 464.436 235.361 465.652 236.172C467.004 236.983 468.22 237.793 469.436 238.739L474.03 232.659C474.03 232.659 473.219 232.118 472.814 231.983C471.462 231.173 470.246 230.632 469.03 230.092L461.869 234.28Z" fill="#D1EBFF"/>
<path d="M464.572 218.607C461.599 217.796 458.897 217.526 456.329 217.796L449.033 221.985C451.6 221.715 454.438 221.985 457.275 222.795L464.572 218.607Z" fill="#D1EBFF"/>
<path d="M489.702 237.118C487.135 233.875 484.298 231.038 481.46 228.335L474.164 232.524C477.137 235.091 479.839 238.064 482.406 241.306L489.702 237.118Z" fill="#D1EBFF"/>
<path d="M482.406 241.306L480.379 250.089L487.675 245.9L489.702 237.118L482.406 241.306Z" fill="#72B5E8"/>
<path d="M480.379 250.089C482.406 253.061 484.297 256.169 485.784 259.412L493.08 255.223C491.594 251.981 489.702 248.873 487.675 245.9L480.379 250.089Z" fill="#72B5E8"/>
<path d="M485.783 259.277L494.431 261.979L501.592 257.791L492.944 255.088L485.783 259.277Z" fill="#D1EBFF"/>
<path d="M494.432 261.979C495.918 265.762 497.134 269.681 497.81 273.464L505.106 269.275C504.295 265.492 503.214 261.574 501.728 257.79L494.432 261.979Z" fill="#72B5E8"/>
<path d="M451.058 233.064L450.517 229.821L444.302 224.552L437.006 228.741L445.653 236.172C447.14 234.686 449.031 233.605 451.058 233.064Z" fill="#72B5E8"/>
<path d="M497.81 292.786C496.999 295.758 495.918 298.19 494.432 300.352L501.728 296.163C503.214 294.137 504.43 291.57 505.106 288.597L497.81 292.786Z" fill="#72B5E8"/>
<path d="M497.538 278.869C497.674 277.517 497.809 276.166 497.809 274.68C497.809 274.275 497.809 273.734 497.809 273.329L490.242 274.275C490.377 275.761 490.512 277.382 490.512 278.869C490.512 280.355 490.377 281.706 490.242 283.057L497.538 278.869Z" fill="#72B5E8"/>
<path d="M490.242 283.057L497.809 292.786L505.105 288.597L497.538 278.869L490.242 283.057Z" fill="#D1EBFF"/>
<path d="M485.784 292.921C484.297 294.407 482.406 295.488 480.379 296.028L482.406 307.108L489.702 302.919L488.216 295.083L485.784 292.921Z" fill="#72B5E8"/>
<path d="M440.925 251.44L433.629 255.764L441.195 254.818C441.06 253.602 440.925 252.521 440.925 251.44Z" fill="#D1EBFF"/>
<path d="M461.867 290.489L457.273 296.569L464.57 292.38C463.624 291.84 462.813 291.164 461.867 290.489Z" fill="#72B5E8"/>
<path d="M450.112 233.605C449.707 233.605 449.437 233.74 449.031 234.01C449.437 233.875 449.842 233.74 450.112 233.605Z" fill="white"/>
<path d="M440.249 254.953L433.898 255.764C433.898 255.899 433.898 256.034 434.034 256.169L440.249 255.358C440.249 255.088 440.249 254.953 440.249 254.953Z" fill="white"/>
<path d="M482 241.847L479.974 250.629C482 253.602 483.892 256.71 485.378 259.952L494.026 262.52C495.512 266.168 496.593 269.951 497.404 273.599L498.214 273.464C497.404 269.681 496.323 265.762 494.836 261.979L486.189 259.412C484.703 256.169 482.811 253.061 480.784 250.089L482.811 241.306C480.244 238.064 477.406 235.226 474.569 232.524L474.299 233.47C477.001 236.037 479.568 238.739 482 241.847Z" fill="white"/>
<path d="M466.057 285.76C455.653 279.814 447.276 265.222 447.276 253.332C447.276 248.062 448.897 244.279 451.599 242.117C448.492 244.144 446.465 248.197 446.465 253.872C446.465 265.762 454.842 280.22 465.246 286.3C470.515 289.273 475.245 289.543 478.622 287.651C478.352 287.786 478.082 287.786 477.812 287.786C474.569 289.002 470.516 288.462 466.057 285.76Z" fill="white"/>
<path d="M481.73 295.623C482.947 295.218 484.163 294.542 485.108 293.731L484.838 293.461C483.892 294.407 482.947 295.083 481.73 295.623Z" fill="white"/>
<path d="M445.382 236.307C445.112 236.307 445.382 236.037 445.653 235.767L437.275 228.741C437.005 229.011 436.87 229.416 437.275 229.416L445.382 236.307Z" fill="white"/>
<path d="M480.107 296.569L482.133 307.243C481.863 307.243 482.404 307.243 482.809 307.243L480.782 296.299C480.377 296.299 479.971 296.434 480.107 296.569Z" fill="white"/>
<path d="M490.919 278.869C490.919 277.517 490.784 276.166 490.649 274.68H489.838C489.973 276.166 490.108 277.788 490.108 279.274C490.108 280.76 489.973 282.111 489.838 283.463L497.404 293.191C496.729 295.623 495.783 297.785 494.702 299.676V300.217C496.188 298.19 497.404 295.623 498.08 292.65L490.513 282.922C490.784 281.706 490.919 280.355 490.919 278.869Z" fill="white"/>
<path d="M456.869 223.066L461.463 234.415C462.679 234.956 464.03 235.496 465.246 236.307C466.598 237.118 467.814 237.928 469.03 238.874L469.165 238.199C468.084 237.388 467.003 236.712 465.922 236.037C464.571 235.226 463.355 234.686 462.139 234.145L457.545 222.795C454.572 221.985 451.87 221.714 449.303 221.985L449.438 222.525C451.6 222.39 454.437 222.525 456.869 223.066Z" fill="white"/>
<path d="M461.055 291.029L457.137 296.028C457.272 296.163 457.407 296.299 457.677 296.434L461.596 291.299C461.325 291.299 461.19 291.164 461.055 291.029Z" fill="white"/>
<path d="M469.571 193.61C454.032 184.558 441.332 162.804 441.332 144.969C441.332 138.348 443.088 133.213 446.061 129.836C437.548 130.511 431.738 137.672 431.738 149.698C431.738 167.533 444.439 189.422 459.978 198.339C469.706 204.014 478.353 203.204 483.488 197.394C479.434 197.664 474.705 196.583 469.571 193.61Z" fill="#72B5E8"/>
<path d="M497 187.665C497 185.368 496.864 183.071 496.459 180.774L507.809 179.288C506.593 173.478 504.836 167.803 502.674 161.993L489.703 158.075C487.406 153.211 484.704 148.482 481.596 144.158L484.704 131.052C480.786 126.187 476.732 121.864 472.273 117.945L465.247 126.998C463.356 125.647 461.464 124.296 459.572 123.08C457.681 121.999 455.789 121.053 453.898 120.377L446.871 103.218C442.413 102.002 438.224 101.596 434.441 102.002L437.548 118.756C434.441 119.567 431.738 121.188 429.441 123.35L416.47 112.27C414.173 115.378 412.417 119.161 411.336 123.62L422.686 138.213C422.415 140.239 422.145 142.266 422.145 144.563C422.145 146.86 422.28 149.157 422.686 151.454L411.336 152.94C412.552 158.75 414.308 164.425 416.47 170.235L429.441 174.154C431.738 179.018 434.441 183.747 437.548 188.071L434.441 201.177C438.359 206.041 442.413 210.365 446.871 214.283L453.898 205.23C455.789 206.582 457.681 207.933 459.572 209.149C461.464 210.23 463.356 211.175 465.247 211.851L472.273 229.011C476.732 230.227 480.921 230.632 484.704 230.227L481.596 213.472C484.704 212.662 487.406 211.04 489.703 208.878L502.674 219.958C504.971 216.85 506.728 213.067 507.809 208.608L496.459 194.016C496.864 191.989 497 189.962 497 187.665ZM459.978 198.339C444.439 189.287 431.738 167.533 431.738 149.698C431.738 131.862 444.439 124.566 459.978 133.619C475.516 142.672 488.217 164.425 488.217 182.261C488.217 200.096 475.651 207.257 459.978 198.339Z" fill="#A8CFF0"/>
<path d="M464.843 114.162L457.817 97.0024L447.008 103.353L453.899 120.513L464.843 114.162Z" fill="#72B5E8"/>
<path d="M453.896 120.513C455.788 121.323 457.68 122.134 459.571 123.215C461.463 124.296 463.355 125.647 465.246 127.133L472.272 118.08C472.272 118.08 471.056 117.405 470.516 117C468.624 115.919 466.733 114.973 464.841 114.297L453.896 120.513Z" fill="#D1EBFF"/>
<path d="M457.815 97.0024C453.356 95.7863 449.167 95.381 445.384 95.7863L434.439 102.002C438.358 101.596 442.411 102.002 446.87 103.218L457.815 97.0024Z" fill="#D1EBFF"/>
<path d="M495.783 124.836C491.865 119.972 487.811 115.648 483.353 111.73L472.408 117.945C476.867 121.864 481.056 126.323 484.839 131.052L495.783 124.836Z" fill="#D1EBFF"/>
<path d="M484.838 131.187L481.73 144.293L492.675 137.943L495.783 124.836L484.838 131.187Z" fill="#72B5E8"/>
<path d="M481.73 144.293C484.838 148.617 487.54 153.346 489.837 158.21L500.782 151.995C498.485 147.13 495.783 142.401 492.675 138.078L481.73 144.293Z" fill="#72B5E8"/>
<path d="M489.838 158.21L502.809 162.128L513.753 155.913L500.782 151.995L489.838 158.21Z" fill="#D1EBFF"/>
<path d="M502.809 162.128C505.106 167.803 506.862 173.613 507.943 179.423L518.887 173.208C517.671 167.398 515.915 161.723 513.753 155.913L502.809 162.128Z" fill="#72B5E8"/>
<path d="M437.549 118.756L436.603 113.892L427.415 106.055L416.471 112.27L429.442 123.35C431.739 121.188 434.576 119.567 437.549 118.756Z" fill="#72B5E8"/>
<path d="M507.943 208.608C506.727 213.067 504.97 216.85 502.809 219.958L513.753 213.743C516.05 210.635 517.806 206.852 518.887 202.393L507.943 208.608Z" fill="#72B5E8"/>
<path d="M507.538 187.665C507.808 185.639 508.079 183.612 508.079 181.315C508.079 180.639 508.079 179.964 507.943 179.288L496.594 180.774C496.864 183.071 497.134 185.368 497.134 187.665C497.134 189.962 496.999 191.989 496.594 194.016L507.538 187.665Z" fill="#72B5E8"/>
<path d="M496.594 194.016L507.943 208.608L518.888 202.258L507.538 187.665L496.594 194.016Z" fill="#D1EBFF"/>
<path d="M489.837 208.878C487.54 211.175 484.838 212.662 481.73 213.472L484.838 230.227L495.783 224.011L493.621 212.121L489.837 208.878Z" fill="#72B5E8"/>
<path d="M422.28 146.32L411.336 152.805L422.686 151.319C422.551 149.698 422.415 148.076 422.28 146.32Z" fill="#D1EBFF"/>
<path d="M453.899 205.23L446.873 214.283L457.953 208.068C456.601 207.122 455.25 206.176 453.899 205.23Z" fill="#72B5E8"/>
<path d="M436.332 119.567V119.432C435.792 119.567 435.251 119.837 434.846 120.107C435.251 119.837 435.792 119.702 436.332 119.567Z" fill="white"/>
<path d="M421.335 151.589L411.877 152.805C411.877 152.94 412.012 153.211 412.012 153.346L421.47 152.13C421.47 151.995 421.335 151.724 421.335 151.589Z" fill="white"/>
<path d="M484.165 131.862L481.057 144.969C484.165 149.292 486.867 154.021 489.164 158.886L502.135 162.804C504.297 168.344 506.054 174.019 507.135 179.558L508.486 179.288C507.27 173.478 505.513 167.803 503.351 161.993L490.38 158.075C488.083 153.211 485.381 148.482 482.273 144.158L485.381 131.052C481.463 126.187 477.409 121.864 472.95 117.945L472.545 119.432C476.598 123.08 480.517 127.268 484.165 131.862Z" fill="white"/>
<path d="M460.113 198.069C444.575 189.016 431.874 167.263 431.874 149.427C431.874 141.591 434.306 135.781 438.495 132.538C433.766 135.646 430.793 141.726 430.793 150.238C430.793 168.073 443.494 189.962 459.032 198.88C466.869 203.474 474.03 203.879 479.165 200.771C478.759 200.907 478.354 200.907 477.948 201.042C473.084 202.798 466.869 201.988 460.113 198.069Z" fill="white"/>
<path d="M483.758 212.932C485.649 212.256 487.406 211.311 488.892 210.095L488.352 209.689C487.136 210.905 485.514 211.986 483.758 212.932Z" fill="white"/>
<path d="M429.172 123.755C428.632 123.755 429.172 123.35 429.713 122.945L417.147 112.27C416.741 112.811 416.471 113.351 417.012 113.351L429.172 123.755Z" fill="white"/>
<path d="M481.462 214.148L484.434 230.092C484.029 230.092 484.704 230.092 485.38 229.957L482.272 213.472C481.732 213.743 481.056 214.013 481.462 214.148Z" fill="white"/>
<path d="M497.541 187.665C497.541 185.638 497.406 183.477 497.136 181.45L496.055 181.585C496.325 183.882 496.595 186.179 496.595 188.476C496.595 190.773 496.46 192.8 496.055 194.826L507.404 209.419C506.459 213.067 504.972 216.31 503.216 219.147L503.351 220.093C505.648 216.985 507.404 213.202 508.485 208.743L497.136 194.151C497.406 191.989 497.541 189.827 497.541 187.665Z" fill="white"/>
<path d="M446.465 103.758L453.491 120.918C455.383 121.729 457.274 122.539 459.166 123.62C461.058 124.701 462.949 126.052 464.841 127.539L465.111 126.458C463.49 125.242 461.868 124.161 460.247 123.215C458.355 122.134 456.464 121.188 454.572 120.513L447.546 103.353C443.087 102.137 438.898 101.731 435.115 102.137L435.25 102.812C438.493 102.677 442.817 102.812 446.465 103.758Z" fill="white"/>
<path d="M452.548 205.906L446.738 213.472C447.009 213.743 447.279 213.878 447.414 214.148L453.359 206.446C453.089 206.311 452.818 206.176 452.548 205.906Z" fill="white"/>
<path d="M473.758 95.7863C473.893 94.0298 475.109 93.2191 476.595 94.0298C478.081 94.8405 479.162 97.0024 479.027 98.7589C478.892 100.515 477.676 101.326 476.19 100.515C474.839 99.7047 473.758 97.5428 473.758 95.7863Z" fill="#EB4680"/>
<path d="M465.652 311.972C465.652 310.756 466.598 310.216 467.544 310.756C468.49 311.296 469.3 312.783 469.165 313.999C469.165 315.215 468.22 315.755 467.274 315.215C466.328 314.674 465.652 313.188 465.652 311.972Z" fill="#EB4680"/>
<path d="M518.482 224.552C518.211 224.552 518.076 224.417 517.941 224.282C517.806 224.011 517.806 223.741 517.941 223.471L521.184 217.931C521.319 217.661 521.724 217.526 522.13 217.661C522.4 217.796 522.535 218.201 522.4 218.607L519.968 222.66L524.697 221.174C525.102 221.039 525.373 221.309 525.508 221.579C525.643 221.985 525.373 222.255 525.102 222.39L518.617 224.417C518.617 224.552 518.617 224.552 518.482 224.552Z" fill="#EB4680"/>
<path d="M462.412 249.143C464.979 250.629 467.141 253.467 468.492 256.439C468.492 256.439 469.978 256.034 470.519 255.764C471.735 255.223 473.356 255.494 475.113 256.439C479.031 258.736 482.274 264.276 482.274 268.735C482.274 276.977 468.087 279.814 468.087 279.814C468.087 279.814 454.575 261.844 454.575 253.467C454.575 251.17 453.629 250.494 454.845 249.819C454.98 249.819 457.548 248.332 457.683 248.332C459.034 247.927 460.655 248.062 462.412 249.143Z" fill="#D62D69"/>
<path d="M460.114 250.359C462.817 251.981 465.249 255.088 466.465 258.466C467.681 256.575 469.978 256.169 472.815 257.655C476.734 259.952 479.976 265.492 479.976 269.951C479.976 278.193 466.465 280.625 466.465 280.625C466.465 280.625 452.953 262.655 452.953 254.278C452.953 249.954 456.061 248.062 460.114 250.359Z" fill="#EB4680"/>
<path opacity="0.7" d="M459.709 250.494C462.411 252.116 465.113 255.223 466.33 258.601C466.6 258.196 466.194 258.331 466.6 258.061C465.384 254.953 463.087 251.981 460.384 250.494C458.223 249.278 456.601 249.008 455.25 249.684C456.466 249.413 458.087 249.548 459.709 250.494Z" fill="white"/>
<path opacity="0.7" d="M472.95 257.655C470.788 256.439 469.167 256.439 468.086 257.115C469.302 256.71 470.788 256.98 472.41 257.926C476.328 260.223 479.571 265.762 479.571 270.221C479.571 274.004 476.598 276.707 473.491 278.328C477.004 276.707 480.111 274.275 480.111 270.086C480.111 265.492 476.868 259.952 472.95 257.655Z" fill="white"/>
<path d="M520.646 223.741L519.7 222.795C526.996 216.175 530.779 205.365 530.779 191.719C530.779 157.534 506.458 115.648 476.598 98.3535L477.273 97.1375C507.539 114.567 532.13 156.994 532.13 191.584C532.13 205.771 528.212 216.85 520.646 223.741Z" fill="#EB4680"/>
<path d="M541.994 200.636C541.589 200.636 541.318 200.366 541.318 199.961C541.318 199.555 541.318 199.015 541.318 198.61C541.318 198.204 541.589 197.934 541.994 197.934C542.399 197.934 542.67 198.204 542.67 198.61C542.67 199.015 542.67 199.555 542.67 199.961C542.67 200.366 542.399 200.636 541.994 200.636Z" fill="#A8CFF0"/>
<path d="M504.837 247.387C504.432 247.387 504.162 247.116 504.162 246.711C504.162 246.306 504.432 246.035 504.837 246.035C505.783 246.035 506.594 246.035 507.54 245.9C507.945 245.9 508.215 246.17 508.215 246.576C508.215 246.981 507.945 247.251 507.54 247.251C506.729 247.387 505.783 247.387 504.837 247.387ZM500.784 247.251C499.838 247.116 498.892 247.116 498.082 246.981C497.676 246.981 497.406 246.576 497.541 246.171C497.541 245.765 497.946 245.495 498.352 245.63C499.298 245.765 500.108 245.9 500.919 245.9C501.324 245.9 501.594 246.306 501.594 246.576C501.459 246.981 501.189 247.251 500.784 247.251ZM511.458 246.846C511.188 246.846 510.918 246.576 510.782 246.306C510.782 245.9 510.918 245.63 511.323 245.495C512.134 245.36 513.079 245.09 513.89 244.954C514.295 244.819 514.566 245.09 514.701 245.495C514.836 245.9 514.566 246.17 514.16 246.306C513.485 246.441 512.539 246.711 511.458 246.846C511.593 246.846 511.593 246.846 511.458 246.846ZM517.944 244.954C517.673 244.954 517.403 244.819 517.268 244.549C517.133 244.144 517.268 243.874 517.673 243.738C518.484 243.468 519.295 243.063 520.105 242.657C520.376 242.522 520.781 242.657 521.051 242.928C521.186 243.198 521.051 243.603 520.781 243.874C519.97 244.279 519.16 244.684 518.349 244.954C518.079 244.954 518.079 244.954 517.944 244.954ZM523.889 241.847C523.618 241.847 523.483 241.712 523.348 241.577C523.078 241.306 523.213 240.901 523.483 240.631C524.159 240.09 524.97 239.685 525.645 239.144C525.915 238.874 526.321 239.009 526.591 239.28C526.861 239.55 526.726 239.955 526.456 240.225C525.78 240.766 524.97 241.306 524.294 241.847C524.159 241.847 524.024 241.847 523.889 241.847ZM529.023 237.658C528.888 237.658 528.618 237.658 528.483 237.523C528.212 237.253 528.212 236.847 528.483 236.577C529.158 235.902 529.699 235.361 530.239 234.686C530.509 234.415 530.915 234.415 531.185 234.551C531.455 234.821 531.455 235.226 531.32 235.496C530.78 236.172 530.104 236.847 529.428 237.523C529.428 237.658 529.293 237.658 529.023 237.658ZM533.347 232.524C533.212 232.524 533.077 232.524 532.941 232.389C532.671 232.118 532.536 231.713 532.806 231.443C533.347 230.767 533.752 229.957 534.157 229.281C534.293 229.011 534.698 228.876 535.103 229.011C535.374 229.146 535.509 229.551 535.374 229.957C534.968 230.767 534.428 231.443 533.887 232.254C533.752 232.389 533.617 232.524 533.347 232.524ZM536.59 226.714C536.454 226.714 536.454 226.714 536.319 226.714C536.049 226.579 535.779 226.173 536.049 225.768C536.454 224.957 536.725 224.147 537.13 223.336C537.265 222.931 537.67 222.795 538.076 222.931C538.481 223.066 538.616 223.471 538.481 223.876C538.076 224.687 537.806 225.498 537.4 226.308C537.13 226.579 536.86 226.714 536.59 226.714ZM539.022 220.498C539.022 220.498 538.887 220.498 538.751 220.498C538.346 220.363 538.211 219.958 538.346 219.688C538.616 218.877 538.887 218.066 539.022 217.121C539.157 216.715 539.427 216.58 539.832 216.58C540.238 216.715 540.373 216.985 540.373 217.391C540.103 218.337 539.832 219.147 539.562 219.958C539.697 220.228 539.427 220.498 539.022 220.498ZM540.778 214.013C540.643 214.013 540.643 214.013 540.778 214.013C540.238 213.878 540.103 213.608 540.103 213.202C540.238 212.391 540.373 211.446 540.508 210.635C540.508 210.23 540.913 209.959 541.319 210.095C541.724 210.095 541.994 210.5 541.859 210.905C541.724 211.851 541.589 212.662 541.454 213.608C541.319 213.743 541.048 214.013 540.778 214.013ZM541.724 207.257C541.589 207.257 541.589 207.257 541.724 207.257C541.319 207.257 541.048 206.852 541.048 206.581C541.184 205.771 541.184 204.825 541.319 203.879C541.319 203.474 541.589 203.204 541.994 203.204C542.4 203.204 542.67 203.609 542.67 203.879C542.67 204.825 542.535 205.636 542.4 206.581C542.264 207.122 541.994 207.257 541.724 207.257Z" fill="#A8CFF0"/>
<path d="M494.162 246.306H494.026C493.621 246.17 493.081 246.17 492.675 246.035C492.27 245.9 492.135 245.63 492.135 245.225C492.27 244.819 492.54 244.684 492.945 244.684C493.351 244.819 493.756 244.954 494.297 244.954C494.702 245.09 494.837 245.36 494.837 245.765C494.702 246.035 494.432 246.306 494.162 246.306Z" fill="#A8CFF0"/>
<path d="M407.686 139.294C407.416 139.294 407.146 139.023 407.01 138.753C406.875 138.348 406.875 137.807 406.74 137.402C406.74 136.997 406.875 136.726 407.281 136.591C407.686 136.591 407.956 136.726 408.091 137.132C408.227 137.537 408.227 138.078 408.362 138.483C408.362 138.888 408.091 139.294 407.686 139.294Z" fill="#A8CFF0"/>
<path d="M532.13 153.076C531.86 153.076 531.589 152.94 531.454 152.67C531.049 151.859 530.779 151.049 530.373 150.103C530.238 149.698 530.373 149.427 530.779 149.157C531.184 149.022 531.454 149.157 531.725 149.563C532.13 150.373 532.4 151.319 532.805 152.13C532.941 152.535 532.805 152.805 532.4 153.076C532.4 153.076 532.265 153.076 532.13 153.076ZM529.428 146.725C529.157 146.725 528.887 146.59 528.752 146.32C528.347 145.509 527.941 144.698 527.536 143.888C527.401 143.617 527.536 143.212 527.806 142.942C528.076 142.807 528.482 142.942 528.752 143.212C529.157 144.023 529.563 144.833 529.968 145.644C530.103 146.049 529.968 146.32 529.698 146.59C529.698 146.725 529.563 146.725 529.428 146.725ZM526.455 140.645C526.185 140.645 525.915 140.51 525.915 140.239C525.509 139.429 525.104 138.618 524.698 137.807C524.563 137.537 524.698 137.132 524.969 136.862C525.239 136.726 525.644 136.862 525.915 137.132C526.32 137.943 526.725 138.753 527.131 139.564C527.266 139.834 527.131 140.239 526.86 140.51C526.725 140.51 526.59 140.645 526.455 140.645ZM523.212 134.565C522.942 134.565 522.807 134.429 522.672 134.159C522.266 133.349 521.726 132.538 521.321 131.727C521.185 131.457 521.185 131.052 521.591 130.781C521.861 130.646 522.266 130.646 522.537 131.052C522.942 131.862 523.482 132.673 523.888 133.484C524.023 133.754 523.888 134.159 523.618 134.43C523.482 134.565 523.347 134.565 523.212 134.565ZM406.742 133.889C406.472 133.889 406.067 133.619 406.067 133.349C405.931 132.403 405.796 131.457 405.796 130.646C405.796 130.241 406.067 129.971 406.337 129.836C406.742 129.836 407.012 130.106 407.147 130.376C407.283 131.322 407.418 132.133 407.418 133.078C407.553 133.484 407.283 133.889 406.742 133.889ZM519.834 128.62C519.564 128.62 519.429 128.484 519.294 128.349C518.753 127.539 518.348 126.863 517.808 126.052C517.672 125.782 517.672 125.377 518.078 125.106C518.348 124.971 518.753 124.971 519.024 125.377C519.564 126.187 519.969 126.863 520.51 127.674C520.645 127.944 520.645 128.349 520.24 128.62C520.105 128.62 519.969 128.62 519.834 128.62ZM406.067 127.133C405.661 127.133 405.391 126.863 405.391 126.458C405.391 125.512 405.256 124.566 405.256 123.755C405.256 123.35 405.526 123.08 405.931 123.08C406.337 123.08 406.607 123.35 406.607 123.755C406.607 124.701 406.742 125.512 406.742 126.458C406.742 126.728 406.472 127.133 406.067 127.133ZM516.051 122.945C515.781 122.945 515.646 122.81 515.511 122.674C514.97 121.864 514.43 121.188 514.024 120.377C513.754 120.107 513.889 119.702 514.159 119.432C514.43 119.161 514.835 119.297 515.105 119.567C515.646 120.377 516.186 121.053 516.592 121.864C516.862 122.134 516.727 122.539 516.456 122.81C516.321 122.81 516.186 122.945 516.051 122.945ZM405.931 120.242C405.526 120.242 405.256 119.972 405.256 119.567C405.256 118.621 405.256 117.675 405.256 116.864C405.256 116.459 405.526 116.189 405.931 116.189C406.337 116.189 406.607 116.459 406.607 116.864C406.607 117.81 406.607 118.621 406.607 119.567C406.607 119.972 406.202 120.242 405.931 120.242ZM512.133 117.27C511.862 117.27 511.727 117.135 511.592 117C511.052 116.324 510.511 115.513 509.971 114.838C509.701 114.567 509.836 114.162 510.106 113.892C510.376 113.622 510.782 113.757 511.052 114.027C511.592 114.703 512.133 115.513 512.673 116.189C512.943 116.459 512.808 116.864 512.538 117.135C512.403 117.27 512.268 117.27 512.133 117.27ZM406.202 113.487C405.796 113.487 405.526 113.081 405.526 112.811C405.661 111.865 405.661 110.919 405.796 110.109C405.796 109.703 406.202 109.433 406.607 109.568C407.012 109.568 407.283 109.973 407.147 110.379C407.012 111.325 407.012 112.135 406.877 113.081C406.877 113.216 406.472 113.487 406.202 113.487ZM507.944 111.865C507.809 111.865 507.539 111.73 507.404 111.595C506.863 110.919 506.323 110.244 505.647 109.433C505.377 109.163 505.512 108.757 505.782 108.487C506.052 108.217 506.458 108.352 506.728 108.622C507.269 109.298 507.944 109.973 508.485 110.784C508.755 111.054 508.62 111.46 508.349 111.73C508.214 111.865 508.079 111.865 507.944 111.865ZM503.62 106.731C503.485 106.731 503.215 106.596 503.08 106.46C502.539 105.785 501.864 105.109 501.323 104.434C501.053 104.164 501.053 103.758 501.323 103.488C501.594 103.218 501.999 103.218 502.269 103.488C502.945 104.164 503.485 104.839 504.161 105.515C504.431 105.785 504.431 106.19 504.161 106.46C503.891 106.596 503.755 106.731 503.62 106.731ZM407.012 106.731C406.472 106.596 406.337 106.325 406.337 105.92C406.472 104.974 406.742 104.163 406.877 103.218C407.012 102.812 407.283 102.677 407.688 102.677C408.093 102.812 408.228 103.083 408.228 103.488C408.093 104.299 407.823 105.244 407.688 106.19C407.688 106.46 407.418 106.731 407.012 106.731ZM498.891 101.731C498.756 101.731 498.486 101.596 498.351 101.461C497.675 100.786 497.135 100.11 496.459 99.5696C496.189 99.2993 496.189 98.894 496.459 98.6237C496.729 98.3535 497.135 98.3535 497.405 98.6237C498.081 99.2993 498.756 99.9749 499.297 100.515C499.567 100.786 499.567 101.191 499.297 101.461C499.297 101.596 499.162 101.731 498.891 101.731ZM408.634 99.9749H408.499C408.093 99.8398 407.958 99.4344 408.093 99.1642C408.364 98.2184 408.634 97.4077 408.904 96.597C409.039 96.1917 409.444 96.0565 409.715 96.1916C410.12 96.3268 410.255 96.7321 410.12 97.0023C409.85 97.813 409.58 98.7589 409.309 99.5696C409.174 99.8398 408.904 99.9749 408.634 99.9749ZM494.027 96.8672C493.892 96.8672 493.757 96.8672 493.622 96.7321C492.946 96.0565 492.271 95.5161 491.595 94.8405C491.325 94.5703 491.325 94.1649 491.595 93.8947C491.865 93.6244 492.271 93.6244 492.541 93.8947C493.216 94.5703 493.892 95.1107 494.568 95.7863C494.838 96.0565 494.838 96.4619 494.568 96.7321C494.432 96.8672 494.162 96.8672 494.027 96.8672ZM411.066 93.6244C410.931 93.6244 410.931 93.6244 410.796 93.6244C410.39 93.4893 410.255 93.084 410.525 92.6786C410.931 91.8679 411.336 91.0572 411.741 90.2465C411.877 89.9763 412.282 89.8412 412.687 89.9763C412.957 90.1114 413.093 90.5168 412.957 90.9221C412.552 91.7328 412.147 92.5435 411.741 93.3542C411.606 93.4893 411.336 93.6244 411.066 93.6244ZM488.893 92.4084C488.758 92.4084 488.622 92.4084 488.487 92.2733C487.812 91.7328 487.136 91.0572 486.326 90.5168C486.055 90.2465 485.92 89.8412 486.19 89.571C486.461 89.3007 486.866 89.1656 487.136 89.4358C487.812 89.9763 488.623 90.6519 489.298 91.1924C489.568 91.4626 489.568 91.8679 489.433 92.1382C489.298 92.2733 489.163 92.4084 488.893 92.4084ZM483.488 88.0847C483.353 88.0847 483.218 88.0847 483.083 87.9496C482.407 87.4091 481.596 86.8686 480.921 86.3282C480.651 86.0579 480.516 85.6526 480.786 85.3824C481.056 85.1121 481.461 84.977 481.732 85.2472C482.542 85.7877 483.218 86.3282 484.029 86.8686C484.299 87.1389 484.434 87.5442 484.164 87.8145C483.893 88.0847 483.758 88.0847 483.488 88.0847ZM414.444 87.6793C414.309 87.6793 414.174 87.6793 414.038 87.5442C413.768 87.274 413.633 86.8686 413.903 86.5984C414.444 85.7877 414.984 85.1121 415.525 84.3014C415.795 84.0312 416.2 83.8961 416.47 84.1663C416.741 84.4366 416.876 84.8419 416.606 85.1121C416.065 85.7877 415.525 86.5984 414.984 87.274C414.849 87.5442 414.579 87.6793 414.444 87.6793ZM477.948 84.3014C477.813 84.3014 477.678 84.3014 477.543 84.1663C476.732 83.6259 476.057 83.2205 475.246 82.68C474.976 82.5449 474.841 82.0045 474.976 81.7342C475.111 81.464 475.651 81.3289 475.922 81.464C476.732 81.8693 477.543 82.4098 478.219 82.9503C478.489 83.0854 478.624 83.6259 478.489 83.8961C478.354 84.1663 478.083 84.3014 477.948 84.3014ZM418.767 82.4098C418.632 82.4098 418.362 82.4098 418.227 82.2747C417.957 82.0045 417.957 81.5991 418.227 81.3289C418.903 80.6533 419.578 79.9777 420.254 79.4373C420.524 79.167 420.929 79.167 421.2 79.5724C421.47 79.8426 421.47 80.248 421.064 80.5182C420.389 81.0586 419.713 81.7342 419.173 82.4098C419.038 82.2747 418.903 82.4098 418.767 82.4098ZM472.003 80.7884C471.868 80.7884 471.733 80.7884 471.733 80.6533C470.922 80.248 470.112 79.8426 469.301 79.4373C469.031 79.3021 468.896 78.8968 469.031 78.4914C469.166 78.2212 469.571 78.0861 469.976 78.2212C470.787 78.6266 471.598 79.0319 472.409 79.4373C472.679 79.5724 472.814 79.9777 472.679 80.3831C472.544 80.6533 472.273 80.7884 472.003 80.7884ZM424.037 78.0861C423.767 78.0861 423.632 77.951 423.497 77.8159C423.226 77.5456 423.361 77.1403 423.632 76.87C424.442 76.3296 425.253 75.9242 426.064 75.3838C426.334 75.2487 426.739 75.3838 427.01 75.654C427.145 75.9242 427.01 76.3296 426.739 76.5998C425.929 77.0052 425.253 77.5456 424.442 77.951C424.307 77.951 424.172 78.0861 424.037 78.0861ZM465.923 77.6807C465.788 77.6807 465.788 77.6807 465.653 77.6807C464.842 77.2754 464.031 77.0052 463.221 76.5998C462.815 76.4647 462.68 76.0594 462.815 75.7891C462.95 75.3838 463.356 75.2487 463.761 75.3838C464.572 75.654 465.518 76.0594 466.328 76.4647C466.734 76.5998 466.869 77.0052 466.734 77.4105C466.463 77.5456 466.193 77.6807 465.923 77.6807ZM459.573 75.2487C459.437 75.2487 459.437 75.2487 459.302 75.2487C458.492 74.9784 457.546 74.7082 456.735 74.438C456.33 74.3028 456.195 73.8975 456.33 73.6273C456.465 73.2219 456.735 73.0868 457.14 73.2219C457.951 73.4921 458.897 73.7624 459.843 74.0326C460.248 74.1677 460.383 74.5731 460.248 74.8433C460.113 75.1135 459.843 75.2487 459.573 75.2487ZM429.982 74.8433C429.712 74.8433 429.442 74.7082 429.307 74.438C429.171 74.0326 429.307 73.7624 429.712 73.6273C430.523 73.357 431.468 72.9517 432.414 72.6815C432.82 72.5463 433.09 72.8166 433.225 73.0868C433.36 73.4921 433.09 73.7624 432.82 73.8975C432.009 74.1677 431.063 74.438 430.252 74.7082C430.252 74.8433 430.117 74.8433 429.982 74.8433ZM452.952 73.4921H452.817C451.871 73.357 451.06 73.0868 450.114 73.0868C449.709 73.0868 449.439 72.6815 449.574 72.2761C449.574 71.8708 449.979 71.6005 450.385 71.7356C451.33 71.8708 452.141 72.0059 453.087 72.2761C453.492 72.4112 453.627 72.6815 453.627 73.0868C453.492 73.2219 453.222 73.4921 452.952 73.4921ZM436.603 73.0868C436.333 73.0868 436.062 72.8166 435.927 72.5463C435.927 72.141 436.062 71.8708 436.468 71.7356C437.413 71.6005 438.359 71.4654 439.17 71.3303C439.575 71.3303 439.846 71.6005 439.846 71.8708C439.846 72.2761 439.575 72.5463 439.305 72.5463C438.494 72.8166 437.549 72.9517 436.603 73.0868ZM446.196 72.5463C445.25 72.5463 444.304 72.4112 443.494 72.4112C443.088 72.4112 442.818 72.141 442.818 71.7356C442.818 71.3303 443.088 71.0601 443.494 71.0601C444.44 71.0601 445.385 71.0601 446.331 71.1952C446.736 71.1952 447.007 71.6005 447.007 71.8708C446.736 72.2761 446.466 72.5463 446.196 72.5463Z" fill="#A8CFF0"/>
<path d="M534.155 158.21C533.885 158.21 533.615 158.075 533.479 157.805L533.074 156.589C532.939 156.183 533.074 155.913 533.479 155.778C533.885 155.643 534.155 155.778 534.29 156.183L534.695 157.399C534.831 157.805 534.695 158.075 534.29 158.21C534.29 158.21 534.29 158.21 534.155 158.21Z" fill="#A8CFF0"/>
<path d="M509.7 259.007C509.43 259.007 509.16 258.871 509.025 258.601C508.89 258.196 508.754 257.79 508.484 257.385C508.349 256.98 508.484 256.71 508.89 256.439C509.295 256.304 509.565 256.439 509.835 256.845C509.971 257.25 510.241 257.655 510.376 258.061C510.511 258.466 510.376 258.736 509.971 259.007C509.835 259.007 509.7 259.007 509.7 259.007Z" fill="#EB4680"/>
<path d="M491.053 321.836C490.108 321.836 489.297 321.836 488.351 321.7C487.946 321.7 487.675 321.295 487.675 321.025C487.675 320.619 488.081 320.349 488.351 320.349C489.162 320.484 490.108 320.484 490.918 320.484C491.324 320.484 491.594 320.755 491.594 321.16C491.729 321.565 491.459 321.836 491.053 321.836ZM494.972 321.565C494.702 321.565 494.296 321.295 494.296 321.025C494.296 320.619 494.431 320.349 494.837 320.214C495.647 320.079 496.593 319.944 497.404 319.674C497.809 319.539 498.079 319.809 498.215 320.214C498.35 320.619 498.079 320.89 497.674 321.025C496.998 321.295 496.053 321.43 494.972 321.565C495.107 321.565 495.107 321.565 494.972 321.565ZM484.433 321.16H484.298C483.487 321.025 482.541 320.755 481.595 320.484C481.19 320.349 481.055 319.944 481.19 319.674C481.325 319.268 481.73 319.133 482.001 319.268C482.811 319.539 483.757 319.674 484.568 319.944C484.973 320.079 485.108 320.349 485.108 320.755C484.973 320.89 484.703 321.16 484.433 321.16ZM501.457 319.674C501.187 319.674 500.917 319.539 500.782 319.268C500.647 318.998 500.782 318.593 501.052 318.323C501.863 317.917 502.538 317.512 503.349 317.106C503.619 316.971 504.025 316.971 504.295 317.377C504.43 317.647 504.43 318.052 504.025 318.323C503.214 318.863 502.403 319.268 501.592 319.674H501.457ZM477.947 319.133C477.812 319.133 477.812 319.133 477.677 319.133C476.866 318.863 476.055 318.458 475.245 318.052C474.839 317.917 474.704 317.512 474.975 317.106C475.11 316.701 475.515 316.566 475.92 316.836C476.731 317.242 477.542 317.512 478.352 317.917C478.758 318.052 478.893 318.458 478.758 318.728C478.488 318.998 478.217 319.133 477.947 319.133ZM506.862 316.026C506.727 316.026 506.457 315.89 506.321 315.755C506.051 315.485 506.051 315.08 506.321 314.809C506.997 314.269 507.538 313.593 508.078 312.918C508.348 312.648 508.754 312.648 509.024 312.783C509.294 313.053 509.294 313.458 509.159 313.729C508.618 314.404 507.943 315.08 507.267 315.755C507.267 315.89 507.132 316.026 506.862 316.026ZM511.186 310.756C511.051 310.756 510.915 310.756 510.78 310.621C510.51 310.486 510.375 309.945 510.51 309.675C510.915 309 511.321 308.189 511.726 307.378C511.861 307.108 512.267 306.973 512.672 307.108C512.942 307.243 513.212 307.648 512.942 308.054C512.537 308.864 512.132 309.675 511.591 310.486C511.591 310.621 511.321 310.756 511.186 310.756ZM513.888 304.676C513.753 304.676 513.753 304.676 513.618 304.676C513.212 304.541 513.077 304.135 513.212 303.865C513.483 303.054 513.753 302.244 514.023 301.298C514.158 300.893 514.428 300.757 514.834 300.757C515.239 300.893 515.374 301.163 515.374 301.568C515.104 302.514 514.834 303.325 514.564 304.135C514.428 304.541 514.158 304.676 513.888 304.676ZM515.509 298.19C514.969 298.055 514.834 297.785 514.834 297.38C514.969 296.569 515.104 295.623 515.239 294.812C515.239 294.407 515.645 294.137 515.915 294.272C516.32 294.272 516.59 294.677 516.455 294.947C516.32 295.893 516.185 296.704 516.05 297.65C516.185 298.055 515.915 298.19 515.509 298.19ZM516.185 291.57C515.78 291.57 515.509 291.299 515.509 290.894C515.509 290.353 515.509 289.678 515.509 289.002V288.192C515.509 287.786 515.78 287.516 516.185 287.516C516.59 287.516 516.861 287.786 516.861 288.192V289.002C516.861 289.678 516.861 290.218 516.861 290.894C516.861 291.299 516.59 291.57 516.185 291.57ZM516.05 284.949C515.645 284.949 515.374 284.679 515.374 284.273C515.374 283.463 515.239 282.517 515.104 281.571C515.104 281.166 515.374 280.895 515.645 280.76C516.05 280.76 516.32 281.03 516.455 281.301C516.59 282.247 516.59 283.057 516.725 284.003C516.725 284.544 516.455 284.814 516.05 284.949ZM515.239 278.328C514.969 278.328 514.564 278.058 514.564 277.788C514.428 276.977 514.293 276.031 514.023 275.22C513.888 274.815 514.158 274.545 514.564 274.41C514.969 274.275 515.239 274.545 515.374 274.95C515.509 275.896 515.78 276.707 515.915 277.653C515.915 277.788 515.645 278.193 515.239 278.328ZM513.888 271.707C513.618 271.707 513.348 271.437 513.212 271.167C512.942 270.356 512.807 269.41 512.537 268.6C512.402 268.194 512.672 267.924 512.942 267.789C513.348 267.654 513.618 267.924 513.753 268.194C514.023 269.005 514.293 269.951 514.428 270.762C514.564 271.167 514.293 271.437 513.888 271.572C513.888 271.707 513.888 271.707 513.888 271.707ZM511.996 265.222C511.726 265.222 511.456 265.087 511.321 264.817C511.051 264.006 510.78 263.195 510.51 262.249C510.375 261.844 510.51 261.574 510.915 261.439C511.321 261.304 511.591 261.439 511.726 261.844C511.996 262.655 512.267 263.601 512.537 264.411C512.672 264.817 512.402 265.087 512.132 265.222H511.996Z" fill="#EB4680"/>
<path d="M471.868 316.296C471.733 316.296 471.598 316.296 471.598 316.161C471.193 315.89 470.787 315.755 470.382 315.485C470.112 315.35 469.976 314.945 470.112 314.539C470.247 314.269 470.652 314.134 471.057 314.269C471.463 314.539 471.868 314.674 472.273 314.945C472.544 315.08 472.679 315.485 472.544 315.89C472.409 316.161 472.138 316.296 471.868 316.296Z" fill="#EB4680"/>
<path d="M508.08 259.682C507.675 259.682 507.404 259.277 507.404 259.007L507.675 255.358C507.675 255.088 507.81 254.953 508.08 254.818C508.35 254.683 508.62 254.683 508.755 254.953L511.728 257.25C511.998 257.52 512.133 257.926 511.863 258.196C511.593 258.466 511.188 258.601 510.917 258.331L508.891 256.845L508.755 259.142C508.755 259.412 508.485 259.682 508.08 259.682Z" fill="#EB4680"/>
<path d="M262.844 139.969C262.844 135.51 256.628 131.862 248.927 131.862C241.225 131.862 235.01 135.375 235.01 139.834C235.01 143.888 240.279 147.266 247.035 147.806V150.103C245.684 150.238 244.738 150.914 244.873 151.724V159.426C244.873 160.372 246.224 161.182 247.846 161.182H250.143C251.764 161.182 253.115 160.372 253.115 159.426V151.724C253.115 150.914 252.17 150.238 250.818 150.103V147.806C257.709 147.266 262.844 144.023 262.844 139.969Z" fill="white"/>
<path d="M431.333 453.979L189.745 314.404C180.422 309 172.855 294.542 172.855 282.111V62.2775C172.855 49.8469 180.422 44.0369 189.745 49.4415L431.333 189.016C440.656 194.421 448.222 208.878 448.222 221.309V441.008C448.222 453.574 440.656 459.384 431.333 453.979Z" fill="#D1EBFF"/>
<path d="M437.952 185.639L196.365 46.0636C192.717 43.9017 189.204 43.4964 186.501 44.5773C186.096 44.7124 179.475 48.0903 179.205 48.3606C182.043 47.0094 185.691 47.2796 189.744 49.5766L431.332 189.152C440.655 194.556 448.221 209.014 448.221 221.444V441.143C448.221 448.98 445.249 454.114 440.79 455.6C441.195 455.6 441.6 455.465 442.276 455.06C442.546 454.925 449.572 451.142 449.707 451.007C452.95 448.71 454.977 444.116 454.977 437.765V217.931C454.842 205.501 447.275 191.043 437.952 185.639Z" fill="#3F92D1"/>
<path d="M436.061 186.449L194.473 47.0094C190.825 44.8476 187.312 44.4422 184.61 45.5231C184.204 45.6582 179.475 48.2255 179.205 48.3606C182.043 47.0094 185.691 47.2796 189.744 49.5766L431.332 189.152L436.061 186.449Z" fill="#4F9FDB"/>
<path d="M432.143 188.611L190.556 49.1713C186.772 47.0094 183.259 46.6041 180.422 47.8201C182.854 47.4148 185.691 47.9552 188.529 49.7117L430.116 189.287C439.439 194.691 447.006 209.149 447.006 221.579V441.278C447.006 448.574 444.304 453.574 440.25 455.33C445.52 454.52 449.033 449.115 449.033 440.603V221.039C449.033 208.608 441.466 194.016 432.143 188.611Z" fill="white"/>
<path d="M182.314 81.8694V282.111C182.314 291.84 186.908 301.433 194.475 306.297L433.495 444.386C433.63 444.386 433.766 444.521 433.901 444.656C436.062 445.872 438.765 444.386 438.765 441.819V229.957L182.314 81.8694Z" fill="#03336E"/>
<path d="M438.359 442.629C438.224 442.494 438.089 442.494 437.954 442.359L198.934 304.406C191.367 299.676 186.773 290.083 186.773 280.22V84.4366L182.314 81.8694V282.111C182.314 291.84 186.908 301.433 194.475 306.297L433.495 444.386C433.63 444.386 433.766 444.521 433.901 444.656C435.792 445.737 437.954 444.791 438.495 442.9C438.495 442.629 438.359 442.629 438.359 442.629Z" fill="#001A46"/>
<path d="M425.252 205.906C425.252 208.878 427.279 212.391 429.846 213.878C432.413 215.364 434.44 214.148 434.44 211.175C434.44 208.203 432.413 204.69 429.846 203.204C427.279 201.852 425.252 202.933 425.252 205.906Z" fill="#FFCC00"/>
<path d="M413.227 199.015C413.227 201.987 415.253 205.501 417.821 206.987C420.388 208.473 422.414 207.257 422.414 204.284C422.414 201.312 420.388 197.799 417.821 196.313C415.253 194.826 413.227 196.042 413.227 199.015Z" fill="#EB4680"/>
<path d="M401.201 191.989C401.201 194.961 403.228 198.475 405.795 199.961C408.362 201.447 410.389 200.231 410.389 197.258C410.389 194.286 408.362 190.773 405.795 189.287C403.228 187.8 401.201 189.016 401.201 191.989Z" fill="#0FBAB8"/>
<path d="M339.859 185.233L322.294 175.099C320.537 174.019 319.051 174.829 319.051 176.991C319.051 179.018 320.537 181.45 322.294 182.531L339.859 192.665C341.615 193.745 343.101 192.935 343.101 190.773C343.101 188.746 341.75 186.314 339.859 185.233ZM368.774 201.988L351.208 191.854C349.452 190.773 347.966 191.584 347.966 193.745C347.966 195.772 349.452 198.204 351.208 199.285L368.774 209.419C370.53 210.5 372.016 209.689 372.016 207.527C372.016 205.501 370.53 202.933 368.774 201.988ZM397.688 218.607L380.123 208.473C378.367 207.392 376.88 208.203 376.88 210.365C376.88 212.391 378.367 214.824 380.123 215.904L397.688 226.038C399.445 227.119 400.931 226.308 400.931 224.147C400.796 222.12 399.445 219.688 397.688 218.607ZM426.468 235.226L408.903 225.092C407.146 224.011 405.66 224.822 405.66 226.984C405.66 229.011 407.146 231.443 408.903 232.524L426.468 242.657C428.225 243.738 429.711 242.928 429.711 240.766C429.711 238.739 428.225 236.307 426.468 235.226Z" fill="#72B5E8"/>
<path d="M270.41 199.826V275.221L278.652 270.356V194.691L270.41 199.826Z" fill="#2672AB"/>
<path d="M270.409 199.826V275.221L105.838 180.774V105.109L270.409 199.826Z" fill="#3F92D1"/>
<path d="M105.838 105.109L270.409 199.826L278.651 194.691L113.945 100.245L105.838 105.109Z" fill="#72B5E8"/>
<path opacity="0.7" d="M105.838 105.109L270.409 199.826L278.651 194.691L270.409 198.61L105.838 105.109Z" fill="white"/>
<path d="M246.36 247.792V244.684L194.34 215.094V218.337L246.36 247.792Z" fill="white"/>
<path d="M171.91 155.508V158.75L259.195 208.743V205.501L171.91 155.508Z" fill="white"/>
<path d="M202.582 199.961L171.91 182.125V185.368L202.582 203.068V199.961Z" fill="white"/>
<path d="M223.389 225.228V228.47L236.09 235.361V232.118L223.389 225.228Z" fill="white"/>
<path d="M221.498 197.529L171.91 168.884V171.992L221.498 200.636V197.529Z" fill="white"/>
<path d="M190.016 186.044L171.91 175.505V178.748L190.016 189.152V186.044Z" fill="white"/>
<path d="M185.422 206.446L220.282 226.579V223.336L185.422 203.339V206.446Z" fill="white"/>
<path d="M193.123 187.8V191.043L242.17 218.742V215.634L193.123 187.8Z" fill="white"/>
<path d="M205.824 201.717V204.96L230.28 219.012V215.905L205.824 201.717Z" fill="white"/>
<path d="M182.314 201.447L171.91 195.502V198.61L182.314 204.69V201.447Z" fill="white"/>
<path d="M224.605 202.528L259.195 221.985V218.742L224.605 199.285V202.528Z" fill="white"/>
<path d="M245.279 220.634L259.196 228.605V225.498L245.279 217.391V220.634Z" fill="white"/>
<path d="M171.91 165.371L259.195 215.364V212.121L171.91 162.128V165.371Z" fill="white"/>
<path d="M233.389 220.904L259.196 235.361V232.118L233.389 217.661V220.904Z" fill="white"/>
<path d="M191.232 213.337L171.91 202.123V205.365L191.232 216.445V213.337Z" fill="white"/>
<path d="M249.467 249.684L259.195 255.223V252.116L249.467 246.441V249.684Z" fill="white"/>
<path d="M239.199 237.118L259.196 248.603V245.36L239.199 233.875V237.118Z" fill="white"/>
<path d="M171.91 191.989L259.195 241.982V238.739L171.91 188.746V191.989Z" fill="white"/>
<path d="M153.67 142.807L124.891 126.323C119.891 123.485 115.838 126.458 115.838 133.213V166.452C115.838 173.208 119.891 180.909 124.891 183.747L153.535 200.366C158.535 203.204 162.588 200.231 162.588 193.475V160.237C162.723 153.481 158.67 145.779 153.67 142.807Z" fill="#2672AB"/>
<path d="M157.183 197.664L128.539 181.045C123.54 178.207 119.486 170.37 119.486 163.75V130.376C119.486 128.214 119.891 126.458 120.567 125.242C117.73 125.647 115.838 128.62 115.838 133.078V166.317C115.838 173.073 119.891 180.774 124.891 183.612L153.535 200.231C156.913 202.258 159.886 201.447 161.507 198.61C160.291 198.88 158.805 198.61 157.183 197.664Z" fill="#084C94"/>
<path d="M131.377 152.13L102.598 135.51C97.5984 132.673 93.5449 135.646 93.5449 142.401V175.64C93.5449 182.396 97.5984 190.097 102.598 192.935L131.242 209.554C136.242 212.392 140.295 209.419 140.295 202.663V169.56C140.43 162.804 136.377 155.102 131.377 152.13Z" fill="#0FBAB8"/>
<path d="M135.973 149.427L107.328 132.808C105.167 131.592 103.275 131.457 101.654 132.133L96.6543 135.105C98.2757 134.159 100.302 134.159 102.599 135.51L131.379 152.13C136.378 155.102 140.432 162.804 140.432 169.56V202.798C140.432 206.041 139.486 208.473 137.865 209.689L140.567 207.933C142.864 206.582 145.026 204.555 145.026 200.096V166.722C145.161 160.102 140.972 152.265 135.973 149.427Z" fill="#0BA19F"/>
<path opacity="0.7" d="M131.784 151.724L103.14 135.105C100.707 133.619 98.4105 133.754 96.7891 134.97C98.2753 134.43 100.167 134.565 102.059 135.781L130.703 152.4C135.702 155.237 139.756 163.074 139.756 169.695V202.933C139.756 206.311 138.675 208.743 137.054 209.959C139.351 209.149 140.837 206.311 140.837 202.258V169.154C140.972 162.399 136.919 154.697 131.784 151.724Z" fill="white"/>
<path d="M101.111 144.698V182.666L132.323 200.772V162.669L101.111 144.698ZM130.296 197.258L103.138 181.585V148.211L130.296 163.885V197.258Z" fill="white"/>
<path d="M125.432 169.425C125.432 171.857 123.676 172.938 121.514 171.722C119.352 170.506 117.596 167.398 117.596 164.966C117.596 162.534 119.352 161.453 121.514 162.669C123.676 163.885 125.432 166.992 125.432 169.425Z" fill="white"/>
<path d="M102.193 172.667L110.3 162.128L118.542 182.936L124.488 178.072L131.108 196.042L130.973 197.934L102.328 182.531L102.193 172.667Z" fill="white"/>
<path d="M482 174.019C482 179.153 480.243 182.801 477.271 184.558C477.135 184.558 472.271 187.665 472.271 187.665C469.299 189.287 471.19 185.503 466.596 182.936C457.409 177.667 449.842 164.696 449.842 154.156C449.842 148.887 444.978 148.887 447.95 147.13C448.086 147.13 453.49 144.023 453.625 143.888C456.598 142.266 460.786 142.537 465.245 145.239C474.433 150.643 482 163.479 482 174.019Z" fill="#FFCC00"/>
<path d="M460.653 148.076C456.194 145.509 452.276 145.239 449.168 146.725C452.005 145.914 455.383 146.59 459.167 148.752C468.354 154.021 475.921 166.993 475.921 177.532C475.921 183.071 473.894 186.855 470.651 188.476C474.705 187.395 477.407 183.342 477.407 176.991C477.272 166.317 469.841 153.481 460.653 148.076Z" fill="white"/>
<path d="M471.686 187.939C478.193 184.135 478.155 171.964 471.602 160.755C465.049 149.545 454.462 143.542 447.955 147.346C441.448 151.15 441.486 163.321 448.039 174.53C454.593 185.739 465.18 191.743 471.686 187.939Z" fill="#FFD70F"/>
<path d="M456.869 160.777C456.869 162.263 455.788 162.804 454.572 162.128C453.221 161.318 452.275 159.561 452.275 158.075C452.275 156.589 453.356 156.048 454.572 156.724C455.788 157.534 456.869 159.291 456.869 160.777Z" fill="#D99F00"/>
<path d="M466.326 166.317C466.326 167.803 465.245 168.344 464.029 167.668C462.678 166.857 461.732 165.101 461.732 163.615C461.732 162.128 462.813 161.588 464.029 162.263C465.245 163.074 466.326 164.831 466.326 166.317Z" fill="#D99F00"/>
<path d="M450.385 166.993L452.547 167.398C453.492 171.181 456.195 174.964 459.302 176.721C462.275 178.342 464.842 177.802 465.923 175.37L468.085 177.532C466.734 180.909 463.086 181.585 459.302 179.423C455.249 176.991 451.736 171.992 450.385 166.993Z" fill="#D99F00"/>
<path d="M455.113 161.723C453.762 160.912 452.816 159.156 452.816 157.669C452.816 157.129 452.951 156.859 453.086 156.589C452.546 156.724 452.141 157.264 452.141 158.21C452.141 159.696 453.222 161.453 454.438 162.263C455.248 162.804 456.059 162.669 456.464 162.128C456.059 162.128 455.654 161.993 455.113 161.723Z" fill="#B08100"/>
<path d="M464.57 167.128C463.219 166.317 462.273 164.56 462.273 163.074C462.273 162.534 462.408 162.263 462.543 161.993C462.003 162.128 461.598 162.669 461.598 163.615C461.598 165.101 462.679 166.857 463.895 167.668C464.705 168.209 465.516 168.073 465.921 167.533C465.651 167.533 465.111 167.398 464.57 167.128Z" fill="#B08100"/>
<path d="M466.195 175.505L465.924 175.235C465.654 175.775 465.384 176.316 464.979 176.721C465.384 176.451 465.789 176.045 466.195 175.505Z" fill="#B08100"/>
<path d="M459.978 178.883C456.195 176.721 452.682 171.992 451.195 167.128L450.385 166.993C451.736 172.127 455.249 176.991 459.302 179.288C462.275 180.909 464.977 180.909 466.734 179.423C464.842 180.504 462.545 180.369 459.978 178.883Z" fill="#B08100"/>
<path d="M473.762 339.941V432.09L482.004 427.361V334.942L473.762 339.941Z" fill="#2672AB"/>
<path d="M473.76 339.941V432.09L293.65 328.862V236.577L473.76 339.941Z" fill="#3F92D1"/>
<path d="M293.65 236.577L473.76 339.941L482.002 334.942L301.892 231.578L293.65 236.577Z" fill="#72B5E8"/>
<path opacity="0.7" d="M293.65 236.577L473.76 339.941L482.002 334.942L473.76 338.86L293.65 236.577Z" fill="white"/>
<path d="M454.679 398.403C465.631 392 465.502 371.404 454.392 352.399C443.281 333.395 425.397 323.179 414.445 329.582C403.493 335.984 403.622 356.581 414.732 375.585C425.842 394.589 443.727 404.805 454.679 398.403Z" fill="#2672AB"/>
<path d="M437.279 394.123C421.606 385.07 409.04 363.316 409.04 345.346C409.04 338.725 410.797 333.456 413.769 330.078C409.175 333.185 406.338 339.266 406.338 347.778C406.338 365.748 419.039 387.502 434.577 396.555C444.306 402.23 452.953 401.419 458.087 395.744C452.953 399.122 445.522 398.852 437.279 394.123Z" fill="#084C94"/>
<path d="M355.265 287.111L349.185 283.598V352.102L355.265 355.615V287.111ZM364.048 283.598L357.968 280.085V356.966L364.048 360.479V283.598ZM372.966 299.136L366.885 295.623V362.235L372.966 365.748V299.136ZM331.215 304V341.562L337.295 345.076V307.513L331.215 304ZM346.213 293.461L340.132 289.948V346.562L346.213 350.075V293.461ZM381.883 318.187L375.803 314.674V367.37L381.883 370.883V318.187ZM390.531 339.941L384.45 336.428V372.369L390.531 375.882V339.941ZM328.242 297.515L322.162 294.002V336.158L328.242 339.671V297.515ZM304.191 299.947V325.484L310.272 328.997V303.46L304.191 299.947ZM319.189 289.948L313.109 286.435V330.618L319.189 334.131V289.948Z" fill="#2672AB"/>
<path d="M355.265 313.999L349.185 310.486V352.102L355.265 355.615V313.999ZM364.048 295.083L357.968 291.57V357.101L364.048 360.614V295.083ZM372.966 311.296L366.885 307.783V362.235L372.966 365.748V311.296ZM331.215 313.053V341.427L337.295 344.94V316.566L331.215 313.053ZM346.213 311.972L340.132 308.459V346.697L346.213 350.21V311.972ZM328.242 300.893L322.162 297.38V336.023L328.242 339.536V300.893ZM304.191 318.052V325.484L310.272 328.997V321.565L304.191 318.052ZM319.189 318.052L313.109 314.539V330.618L319.189 334.131V318.052ZM381.883 327.916L375.803 324.403V367.235L381.883 370.748V327.916ZM390.531 345.211L384.45 341.698V372.369L390.531 375.882V345.211Z" fill="#A8CFF0"/>
<path d="M372.967 312.107L366.887 308.594V307.783L372.967 311.296V312.107Z" fill="white"/>
<path d="M364.049 295.758L357.969 292.38V291.57L364.049 295.083V295.758Z" fill="white"/>
<path d="M390.531 346.021L384.451 342.508V341.698L390.531 345.211V346.021Z" fill="white"/>
<path d="M355.266 314.674L349.186 311.296V310.486L355.266 313.999V314.674Z" fill="white"/>
<path d="M381.883 328.726L375.803 325.213V324.403L381.883 327.916V328.726Z" fill="white"/>
<path d="M319.19 318.863L313.109 315.35V314.539L319.19 318.052V318.863Z" fill="white"/>
<path d="M328.242 301.703L322.162 298.19V297.38L328.242 300.893V301.703Z" fill="white"/>
<path d="M310.272 321.565V322.376L304.191 318.863V318.052L310.272 321.565Z" fill="white"/>
<path d="M346.211 312.783L340.131 309.27V308.459L346.211 311.972V312.783Z" fill="white"/>
<path d="M337.295 317.377L331.215 313.864V313.053L337.295 316.566V317.377Z" fill="white"/>
<path d="M406.743 352.102C407.148 338.59 417.011 333.185 429.037 340.211C435.252 343.859 440.927 349.94 444.98 357.101L449.439 356.02C444.305 346.832 437.144 338.725 429.037 334.131C413.904 325.349 401.473 332.239 401.338 349.534L404.851 352.777L406.743 352.102Z" fill="#FFCC00"/>
<path d="M440.252 394.258C437.009 394.528 433.09 393.582 429.037 391.285C417.552 384.665 408.094 369.261 406.878 355.885L401.473 353.182C401.473 353.318 399.717 353.588 399.717 353.723C401.338 370.477 414.85 389.394 429.172 397.636C434.307 400.608 437.82 402.23 442.008 401.689C442.143 401.689 443.765 401.284 443.9 401.149L440.252 394.258Z" fill="#FFCC00"/>
<path d="M447.007 361.019C449.709 366.829 451.33 372.909 451.33 378.584C451.33 386.691 448.088 391.961 442.953 393.717L446.466 400.608C452.817 398.446 456.87 391.826 456.87 381.827C456.87 374.801 454.843 367.235 451.465 359.938L447.007 361.019Z" fill="#FFCC00"/>
<path d="M436.737 372.234C435.251 371.018 433.9 369.396 432.819 367.505C432.144 366.424 432.144 365.208 432.819 364.938C433.63 364.397 434.305 363.721 434.846 362.776C435.521 362.911 436.332 362.776 436.332 361.83C436.332 360.884 435.927 359.803 435.386 359.263C435.251 355.209 433.765 350.885 429.036 348.183C427.414 347.237 426.198 346.967 425.253 347.102C424.982 347.102 423.226 347.643 422.956 347.778C421.74 348.453 422.821 349.805 422.821 351.966C422.28 351.831 421.875 352.372 421.875 353.318C421.875 354.263 422.685 355.479 423.361 356.155C423.766 357.641 424.577 359.263 425.388 360.749C426.063 361.83 426.063 363.046 425.388 363.316C424.307 363.857 422.956 363.992 421.469 363.451C420.929 363.316 420.253 363.316 419.848 363.451C419.713 363.451 418.091 363.992 417.956 363.992C417.011 364.397 418.091 365.073 418.091 366.559V370.748C418.091 371.558 418.632 372.504 419.443 373.045L437.548 385.07C437.818 385.205 439.71 384.665 439.845 384.529C440.115 384.394 440.25 384.124 440.25 383.719V379.53C440.115 376.828 438.764 373.99 436.737 372.234Z" fill="#FFCC00"/>
<path d="M405.528 352.372C405.933 338.86 415.797 333.455 427.822 340.481C434.037 344.13 439.712 350.21 443.766 357.371L448.224 356.29C443.09 347.102 435.929 338.995 427.822 334.401C412.689 325.619 400.258 332.51 400.123 349.805L405.528 352.372Z" fill="white"/>
<path d="M439.036 394.663C435.793 394.933 431.875 393.987 427.821 391.69C416.337 385.07 406.879 369.667 405.662 356.29L400.258 353.588C401.744 370.477 413.499 389.799 427.821 398.041C433.226 401.149 438.225 402.23 442.549 401.689L439.036 394.663Z" fill="white"/>
<path d="M445.794 361.424C448.496 367.234 450.117 373.315 450.117 378.99C450.117 387.097 446.875 392.366 441.74 394.123L445.253 401.014C451.604 398.852 455.657 392.231 455.657 382.232C455.657 375.206 453.63 367.64 450.253 360.344L445.794 361.424Z" fill="white"/>
<path d="M435.522 372.639C434.035 371.423 432.684 369.802 431.603 367.91C430.928 366.829 430.928 365.613 431.603 365.343C432.414 364.802 433.09 364.127 433.63 363.181C434.306 363.316 435.116 363.181 435.116 362.235C435.116 361.289 434.711 360.208 434.171 359.668C434.035 355.615 432.549 351.291 427.82 348.588C423.091 345.886 421.74 348.453 421.47 352.372C420.929 352.237 420.524 352.777 420.524 353.723C420.524 354.669 421.335 355.885 422.01 356.56C422.415 358.047 423.226 359.668 424.037 361.154C424.712 362.235 424.712 363.451 424.037 363.721C422.956 364.262 421.605 364.397 420.118 363.857C418.092 363.316 416.605 364.397 416.605 366.829V371.018C416.605 371.828 417.146 372.774 417.957 373.315L437.548 384.664C438.224 385.07 438.9 384.8 438.9 383.989V379.8C438.9 377.233 437.548 374.261 435.522 372.639Z" fill="white"/>
<path d="M404.852 352.507C405.257 338.995 415.121 333.591 427.146 340.617C433.361 344.265 439.036 350.345 443.09 357.506L447.549 356.425C442.414 347.237 435.253 339.13 427.146 334.536C412.013 325.754 399.582 332.645 399.447 349.94L404.852 352.507Z" fill="#FFDE17"/>
<path d="M438.36 394.798C435.118 395.068 431.199 394.123 427.146 391.826C415.661 385.205 406.203 369.802 404.987 356.425L399.582 353.723C401.068 370.612 412.823 389.934 427.146 398.176C432.55 401.284 437.55 402.365 441.873 401.824L438.36 394.798Z" fill="#FFDE17"/>
<path d="M445.118 361.56C447.82 367.37 449.442 373.45 449.442 379.125C449.442 387.232 446.199 392.501 441.064 394.258L444.577 401.149C450.928 398.987 454.981 392.366 454.981 382.368C454.981 375.342 452.955 367.775 449.577 360.479L445.118 361.56Z" fill="#FFDE17"/>
<path d="M434.846 372.774C433.36 371.558 432.009 369.937 430.928 368.045C430.252 366.964 430.252 365.748 430.928 365.478C431.738 364.938 432.414 364.262 432.954 363.316C433.63 363.451 434.441 363.316 434.441 362.37C434.441 361.425 434.035 360.344 433.495 359.803C433.36 355.75 431.873 351.426 427.144 348.724C422.415 346.021 421.064 348.589 420.794 352.507C420.253 352.372 419.848 352.912 419.848 353.858C419.848 354.804 420.659 356.02 421.334 356.695C421.74 358.182 422.55 359.803 423.361 361.289C424.037 362.37 424.037 363.586 423.361 363.857C422.28 364.397 420.929 364.532 419.443 363.992C417.416 363.451 415.93 364.532 415.93 366.964V371.153C415.93 371.964 416.47 372.909 417.281 373.45L436.873 384.8C437.548 385.205 438.224 384.935 438.224 384.124V379.935C438.224 377.368 436.738 374.396 434.846 372.774Z" fill="#FFDE17"/>
<path d="M294.73 316.836V355.479L301.081 351.831V313.053L294.73 316.836Z" fill="#0BA19F"/>
<path d="M294.732 316.836V355.479L151.914 273.059V234.28L294.732 316.836Z" fill="#0FBAB8"/>
<path d="M151.914 234.28L294.732 316.836L301.082 313.053L158.4 230.497L151.914 234.28Z" fill="#3ECFCD"/>
<path opacity="0.7" d="M151.914 234.28L294.732 316.836L301.082 313.053L294.867 315.89L151.914 234.28Z" fill="white"/>
<path d="M287.433 343.724L158.938 268.735V246.035L287.433 321.025V343.724Z" fill="white"/>
<path d="M164.344 252.521L166.911 254.007L168.127 266.438L169.343 255.494L172.316 257.25L173.532 269.681L174.748 258.601L177.045 259.952L175.558 275.221L172.18 273.329L170.964 262.79L169.748 271.978L166.235 269.951L164.344 252.521Z" fill="#084C94"/>
<path d="M179.748 261.439L182.315 262.925L183.531 275.356L184.747 264.411L187.72 266.168L188.936 278.598L190.152 267.519L192.449 268.87L190.692 284.138L187.315 282.247L186.099 271.707L184.882 280.895L181.369 278.869L179.748 261.439Z" fill="#084C94"/>
<path d="M195.285 270.221L197.852 271.707L199.068 284.138L200.284 273.194L203.257 274.95L204.473 287.381L205.689 276.301L207.986 277.653L206.23 292.921L202.852 291.029L201.636 280.49L200.42 289.678L196.907 287.651L195.285 270.221Z" fill="#084C94"/>
<path d="M216.77 118.351V145.239L220.823 143.077V115.919L216.77 118.351Z" fill="#FFCC00"/>
<path d="M216.771 118.351V145.239L192.855 131.457V104.299L216.771 118.351Z" fill="#FFD70F"/>
<path d="M192.855 104.299L216.771 118.351L220.824 115.919L196.774 102.002L192.855 104.299Z" fill="#FFDE17"/>
<path d="M192.855 104.299L216.771 118.351L220.824 115.919L216.636 116.999L192.855 104.299Z" fill="white"/>
<path d="M237.848 109.433V152.94L244.333 149.292V105.38L237.848 109.433Z" fill="#D62D69"/>
<path d="M199.07 86.5984L237.849 109.433L244.334 105.38L205.556 82.8152L199.07 86.5984Z" fill="#F76195"/>
<path opacity="0.7" d="M199.07 86.5984L237.849 109.433L244.334 105.38L237.984 108.487L199.07 86.5984Z" fill="white"/>
<path d="M199.07 86.5984V104.704L219.608 116.729V142.401L237.849 152.94V109.433L199.07 86.5984Z" fill="#EB4680"/>
<path d="M320.672 214.553V244.684L325.266 242.117V211.851L320.672 214.553Z" fill="#0BA19F"/>
<path d="M320.671 214.553V244.684L293.918 229.146V198.88L320.671 214.553Z" fill="#0FBAB8"/>
<path d="M293.918 198.88L320.671 214.553L325.265 211.851L298.377 196.178L293.918 198.88Z" fill="#3ECFCD"/>
<path opacity="0.7" d="M293.918 198.88L320.671 214.553L325.265 211.851L320.536 213.067L293.918 198.88Z" fill="white"/>
<path d="M355.803 234.821V264.952L360.397 262.384V232.118L355.803 234.821Z" fill="#0BA19F"/>
<path d="M355.802 234.821V264.952L329.049 249.413V219.147L355.802 234.821Z" fill="#0FBAB8"/>
<path d="M329.049 219.147L355.802 234.821L360.396 232.118L333.508 216.445L329.049 219.147Z" fill="#3ECFCD"/>
<path opacity="0.7" d="M329.049 219.147L355.802 234.821L360.396 232.118L355.667 233.334L329.049 219.147Z" fill="white"/>
<path d="M390.799 254.818V284.949L395.258 282.382V252.116L390.799 254.818Z" fill="#0BA19F"/>
<path d="M390.798 254.818V284.949L364.045 269.41V239.144L390.798 254.818Z" fill="#0FBAB8"/>
<path d="M364.045 239.144L390.798 254.818L395.257 252.116L368.504 236.577L364.045 239.144Z" fill="#3ECFCD"/>
<path opacity="0.7" d="M364.045 239.144L390.798 254.818L395.257 252.116L390.528 253.467L364.045 239.144Z" fill="white"/>
<path d="M425.252 274.41V304.541L429.711 301.973V271.707L425.252 274.41Z" fill="#0BA19F"/>
<path d="M425.251 274.41V304.541L398.498 289.002V258.736L425.251 274.41Z" fill="#0FBAB8"/>
<path d="M398.498 258.736L425.251 274.41L429.71 271.707L402.957 256.169L398.498 258.736Z" fill="#3ECFCD"/>
<path opacity="0.7" d="M398.498 258.736L425.251 274.41L429.71 271.707L424.981 273.059L398.498 258.736Z" fill="white"/>
<path d="M382.691 267.654C381.745 266.843 380.934 265.762 380.259 264.681C379.854 264.006 379.854 263.195 380.259 263.06C380.799 262.79 381.205 262.249 381.475 261.709C381.88 261.844 382.421 261.709 382.421 261.033C382.421 260.493 382.151 259.817 381.745 259.412C381.61 256.845 380.799 254.142 377.827 252.386C374.854 250.629 373.908 252.251 373.908 254.818C373.503 254.683 373.233 255.088 373.233 255.764C373.233 256.304 373.773 257.115 374.179 257.52C374.449 258.466 374.989 259.547 375.395 260.358C375.8 261.033 375.8 261.844 375.395 261.979C374.719 262.384 373.908 262.384 372.963 262.114C371.747 261.709 370.801 262.52 370.801 264.006V266.708C370.801 267.249 371.206 267.924 371.611 268.059L384.042 275.22C384.448 275.491 384.853 275.22 384.853 274.815V272.113C384.853 270.491 384.042 268.735 382.691 267.654Z" fill="white"/>
<path d="M403.229 286.976L407.552 289.543V281.706L403.229 279.139V286.976ZM410.119 290.894L414.443 293.461V279.139L410.119 276.572V290.894ZM417.01 274.14V294.947L421.334 297.515V276.707L417.01 274.14Z" fill="white"/>
<path d="M349.451 246.441C349.451 246.035 349.451 245.63 349.316 245.225L351.342 244.954C351.072 243.874 350.802 242.928 350.397 241.847L348.1 241.171C347.694 240.36 347.154 239.415 346.613 238.604L347.154 236.307C346.478 235.496 345.668 234.686 344.857 234.01L343.641 235.631C343.371 235.361 342.965 235.091 342.56 234.956C342.155 234.821 341.884 234.55 341.479 234.415L340.263 231.308C339.452 231.037 338.777 231.037 337.966 231.037L338.506 234.01C337.966 234.145 337.425 234.415 337.02 234.821L334.723 232.794C334.318 233.334 334.048 234.01 333.777 234.821L335.804 237.388C335.804 237.793 335.669 238.064 335.669 238.469C335.669 238.874 335.669 239.28 335.804 239.685L333.777 239.955C334.048 241.036 334.318 241.982 334.723 243.063L337.02 243.738C337.425 244.549 337.966 245.495 338.506 246.306L337.966 248.603C338.642 249.413 339.452 250.224 340.263 250.9L341.479 249.278C341.749 249.548 342.155 249.819 342.56 249.954C342.965 250.089 343.235 250.359 343.641 250.494L344.857 253.602C345.668 253.872 346.343 253.872 347.154 253.872L346.613 250.9C347.154 250.764 347.694 250.494 348.1 250.089L350.397 252.116C350.802 251.575 351.072 250.9 351.342 250.089L349.316 247.522C349.451 247.116 349.451 246.846 349.451 246.441ZM342.695 245.63C341.209 244.819 339.993 242.657 339.993 241.036C339.993 239.28 341.209 238.604 342.695 239.55C344.181 240.36 345.397 242.522 345.397 244.144C345.397 245.765 344.181 246.441 342.695 245.63Z" fill="white"/>
<path d="M298.916 210.77L307.563 224.282L316.211 220.769C315.941 220.363 315.535 219.958 315.13 219.823L299.862 211.04C299.592 210.77 299.186 210.77 298.916 210.77Z" fill="white"/>
<path d="M316.211 220.769L307.563 225.633L305.131 221.444L298.916 224.011L304.591 220.769L298.916 210.905C298.51 211.04 298.24 211.446 298.24 211.986V222.255C298.24 223.336 299.051 224.687 299.862 225.228L315.13 234.01C316.076 234.551 316.886 234.145 316.886 233.064V222.795C316.886 222.12 316.616 221.444 316.211 220.769ZM316.211 234.01L309.995 224.417L310.401 224.147L316.211 234.01Z" fill="white"/>
<path d="M185.826 302.514V341.022L192.042 337.644V298.866L185.826 302.514Z" fill="#2672AB"/>
<path d="M185.962 302.514V341.022L82.3281 281.301V242.522L185.962 302.514Z" fill="#3F92D1"/>
<path d="M82.3281 242.522L185.962 302.514L192.042 298.866L88.2732 238.874L82.3281 242.522Z" fill="#72B5E8"/>
<path opacity="0.7" d="M82.3281 242.522L185.962 302.514L192.042 298.866L185.692 301.298L82.3281 242.522Z" fill="white"/>
<path d="M122.323 271.978L103.407 261.033C102.191 260.358 101.245 260.898 101.245 262.249V275.085C101.245 276.436 102.191 278.058 103.407 278.733L115.297 285.624L121.242 295.893V289.137L122.458 289.813C123.674 290.489 124.62 289.948 124.62 288.597V275.761C124.485 274.275 123.539 272.653 122.323 271.978ZM108.946 274.41C108.271 274.815 107.325 274.14 106.649 273.059C105.974 271.978 105.974 270.897 106.649 270.491C107.325 270.086 108.271 270.762 108.946 271.843C109.622 272.923 109.622 274.004 108.946 274.41ZM114.081 277.382C113.405 277.788 112.459 277.112 111.784 276.031C111.108 274.95 111.108 273.869 111.784 273.464C112.459 273.059 113.405 273.734 114.081 274.815C114.756 275.761 114.756 276.977 114.081 277.382ZM119.215 280.22C118.54 280.625 117.594 279.95 116.918 278.869C116.243 277.788 116.243 276.707 116.918 276.301C117.594 275.896 118.54 276.572 119.215 277.653C119.891 278.733 119.891 279.95 119.215 280.22ZM99.7586 274.14V263.736L92.4623 259.547C91.3814 258.871 90.4355 259.412 90.4355 260.763V273.599C90.4355 274.95 91.3814 276.572 92.5974 277.247L93.8134 277.923V284.679L99.7586 281.301L111.649 288.192C112.865 288.867 113.811 288.327 113.811 286.976V286.435L103.677 280.625C101.38 279.274 99.7586 276.436 99.7586 274.14Z" fill="white"/>
<path d="M128.809 278.463V281.571L178.261 310.215V306.973L128.809 278.463Z" fill="white"/>
<path d="M162.588 311.296L128.809 291.705V294.947L162.588 314.539V311.296Z" fill="white"/>
<path d="M128.809 288.327L178.261 316.836V313.593L128.809 285.084V288.327Z" fill="white"/>
<path opacity="0.2" d="M254.87 383.178L222.713 365.073C225.55 363.046 227.172 360.614 227.172 358.047C227.172 350.885 214.876 345.075 199.743 345.075C184.61 345.075 172.314 350.885 172.314 358.047C172.314 365.208 184.61 371.018 199.743 371.018C202.851 371.018 205.958 370.747 208.796 370.342L243.386 389.799C245.682 391.15 249.466 390.88 252.168 389.394C255.005 387.907 258.383 385.205 254.87 383.178Z" fill="#92B4D1"/>
<path d="M254.871 379.53C256.762 383.043 255.411 387.637 251.898 389.529C248.385 391.42 243.791 390.069 241.9 386.556C240.008 383.043 241.359 378.449 244.872 376.558C248.385 374.666 252.844 376.017 254.871 379.53Z" fill="#001A46"/>
<path d="M231.496 333.32L215.553 341.968L239.333 385.881C240.684 388.448 245.413 388.583 249.737 386.286C254.196 383.854 256.628 379.935 255.142 377.368L231.496 333.32Z" fill="#084C94"/>
<path d="M231.497 333.32C232.848 335.888 230.416 339.941 226.092 342.238C221.633 344.67 217.039 344.4 215.688 341.833C214.337 339.265 216.769 335.212 221.093 332.915C225.416 330.618 230.145 330.753 231.497 333.32Z" fill="#2672AB"/>
<path d="M221.093 321.565L211.635 326.7L218.391 339.265C219.201 340.752 222.039 340.887 224.606 339.536C227.173 338.185 228.659 335.752 227.849 334.266L221.093 321.565Z" fill="#001A46"/>
<path d="M194.34 221.039C182.585 214.283 171.775 213.472 163.939 217.661C163.668 217.796 152.454 224.011 152.184 224.552C160.155 218.472 171.911 218.607 185.152 226.173C209.203 240.09 228.659 273.599 228.659 301.163C228.659 315.215 223.525 324.943 215.418 329.402C215.958 329.267 216.634 328.997 217.58 328.456C217.85 328.321 225.417 323.727 225.687 323.592C233.253 318.998 237.847 309.405 237.847 296.028C237.712 268.465 218.255 234.956 194.34 221.039Z" fill="#72B5E8"/>
<path d="M185.152 226.308C161.101 212.391 141.645 223.606 141.645 251.035C141.645 278.598 161.101 312.107 185.152 326.024C209.203 339.941 228.659 328.726 228.659 301.298C228.659 273.869 209.067 240.225 185.152 226.308ZM184.476 319.539C164.074 307.783 147.59 279.274 147.59 255.899C147.59 232.524 164.074 223.066 184.476 234.821C204.879 246.576 221.363 275.085 221.363 298.46C221.363 321.836 204.744 331.294 184.476 319.539Z" fill="#D1EBFF"/>
<path d="M192.043 315.215C171.641 303.46 155.156 274.95 155.156 251.575C155.156 241.982 157.859 234.821 162.588 230.497C153.535 232.929 147.59 241.982 147.59 255.899C147.59 279.274 164.074 307.783 184.477 319.539C196.502 326.565 207.311 326.024 213.932 319.674C207.852 321.295 200.285 319.944 192.043 315.215Z" fill="#72B5E8"/>
<path d="M187.179 225.228C175.694 218.607 165.155 217.661 157.453 221.579C164.749 219.553 175.424 220.634 185.152 226.308C209.203 240.225 228.659 273.734 228.659 301.298C228.659 315.62 221.768 325.889 213.256 330.213C223.93 327.24 230.686 316.701 230.686 300.352C230.686 272.653 211.229 239.144 187.179 225.228Z" fill="white"/>
<defs>
<linearGradient id="paint0_linear_619_919" x1="312.5" y1="0" x2="312.5" y2="500" gradientUnits="userSpaceOnUse">
<stop stop-color="#0160E7"/>
<stop offset="1" stop-color="#013681"/>
</linearGradient>
</defs>
</svg>
