<svg width="625" height="500" viewBox="0 0 625 500" fill="none" xmlns="http://www.w3.org/2000/svg">
<path opacity="0.1" d="M3.87593 224.102C-14.9808 149.977 39.5345 115.057 69.1492 106.863C93.3239 101.19 164.519 81.1455 255.901 46.3518C347.284 11.5581 428.15 4.12028 457.161 4.7506C650.079 -34.5814 637.871 179.98 607.652 292.177C546.73 529.682 321.175 515.941 216.012 479.382C68.0596 453.665 12.9411 298.48 3.87593 224.102Z" fill="url(#paint0_linear_619_919)"/>
<path d="M430.6 274.727C422.9 270.327 416.7 259.527 416.7 250.727C416.7 247.427 417.6 244.927 419 243.227C414.8 243.527 411.9 247.027 411.9 253.027C411.9 261.827 418.1 272.527 425.8 277.027C430.6 279.827 434.8 279.427 437.3 276.627C435.4 276.827 433.1 276.227 430.6 274.727Z" fill="#72B5E8"/>
<path d="M444.1 271.827C444.1 270.727 444 269.627 443.9 268.427L449.5 267.727C448.9 264.927 448.1 262.027 447 259.227L440.6 257.327C439.5 254.927 438.1 252.627 436.6 250.427L438.1 243.927C436.2 241.527 434.1 239.427 432 237.427L428.6 241.927C427.7 241.227 426.7 240.627 425.8 240.027C424.8 239.427 423.9 239.027 423 238.627L419.6 230.227C417.4 229.627 415.4 229.427 413.5 229.627L415 237.827C413.5 238.227 412.1 239.027 411 240.127L404.6 234.627C403.5 236.127 402.6 238.027 402.1 240.227L407.7 247.427C407.6 248.427 407.5 249.427 407.5 250.527C407.5 251.627 407.6 252.727 407.7 253.927L402.1 254.627C402.7 257.427 403.5 260.327 404.6 263.127L411 265.027C412.1 267.427 413.5 269.727 415 271.927L413.5 278.427C415.4 280.827 417.5 282.927 419.6 284.927L423 280.427C423.9 281.127 424.9 281.727 425.8 282.327C426.8 282.927 427.7 283.327 428.6 283.727L432 292.127C434.2 292.727 436.2 292.927 438.1 292.727L436.6 284.527C438.1 284.127 439.5 283.327 440.6 282.227L447 287.727C448.1 286.227 449 284.327 449.5 282.127L443.9 274.927C444 274.027 444.1 272.927 444.1 271.827ZM425.9 277.027C418.2 272.627 412 261.827 412 253.027C412 244.227 418.2 240.727 425.9 245.127C433.6 249.527 439.8 260.327 439.8 269.127C439.8 277.927 433.6 281.527 425.9 277.027Z" fill="#A8CFF0"/>
<path d="M428.3 235.727L424.9 227.227L419.5 230.327L422.9 238.827L428.3 235.727Z" fill="#72B5E8"/>
<path d="M422.9 238.827C423.8 239.227 424.8 239.627 425.7 240.227C426.7 240.827 427.6 241.427 428.5 242.127L431.9 237.627C431.9 237.627 431.3 237.227 431 237.127C430 236.527 429.1 236.127 428.2 235.727L422.9 238.827Z" fill="#D1EBFF"/>
<path d="M424.9 227.227C422.7 226.627 420.7 226.427 418.8 226.627L413.4 229.727C415.3 229.527 417.4 229.727 419.5 230.327L424.9 227.227Z" fill="#D1EBFF"/>
<path d="M443.5 240.927C441.6 238.527 439.5 236.427 437.4 234.427L432 237.527C434.2 239.427 436.2 241.627 438.1 244.027L443.5 240.927Z" fill="#D1EBFF"/>
<path d="M438.1 244.027L436.6 250.527L442 247.427L443.5 240.927L438.1 244.027Z" fill="#72B5E8"/>
<path d="M436.6 250.527C438.1 252.727 439.5 255.027 440.6 257.427L446 254.327C444.9 251.927 443.5 249.627 442 247.427L436.6 250.527Z" fill="#72B5E8"/>
<path d="M440.6 257.327L447 259.327L452.3 256.227L445.9 254.227L440.6 257.327Z" fill="#D1EBFF"/>
<path d="M447 259.327C448.1 262.127 449 265.027 449.5 267.827L454.9 264.727C454.3 261.927 453.5 259.027 452.4 256.227L447 259.327Z" fill="#72B5E8"/>
<path d="M414.9 237.927L414.5 235.527L409.9 231.627L404.5 234.727L410.9 240.227C412 239.127 413.4 238.327 414.9 237.927Z" fill="#72B5E8"/>
<path d="M449.5 282.127C448.9 284.327 448.1 286.127 447 287.727L452.4 284.627C453.5 283.127 454.4 281.227 454.9 279.027L449.5 282.127Z" fill="#72B5E8"/>
<path d="M449.3 271.827C449.4 270.827 449.5 269.827 449.5 268.727C449.5 268.427 449.5 268.027 449.5 267.727L443.9 268.427C444 269.527 444.1 270.727 444.1 271.827C444.1 272.927 444 273.927 443.9 274.927L449.3 271.827Z" fill="#72B5E8"/>
<path d="M443.9 274.927L449.5 282.127L454.9 279.027L449.3 271.827L443.9 274.927Z" fill="#D1EBFF"/>
<path d="M440.6 282.227C439.5 283.327 438.1 284.127 436.6 284.527L438.1 292.727L443.5 289.627L442.4 283.827L440.6 282.227Z" fill="#72B5E8"/>
<path d="M407.4 251.527L402 254.727L407.6 254.027C407.5 253.127 407.4 252.327 407.4 251.527Z" fill="#D1EBFF"/>
<path d="M422.9 280.427L419.5 284.927L424.9 281.827C424.2 281.427 423.6 280.927 422.9 280.427Z" fill="#72B5E8"/>
<path d="M414.198 238.327C413.898 238.327 413.698 238.427 413.398 238.627C413.698 238.527 413.998 238.427 414.198 238.327Z" fill="white"/>
<path d="M406.899 254.127L402.199 254.727C402.199 254.827 402.199 254.927 402.299 255.027L406.899 254.427C406.899 254.227 406.899 254.127 406.899 254.127Z" fill="white"/>
<path d="M437.8 244.427L436.3 250.927C437.8 253.127 439.2 255.427 440.3 257.827L446.7 259.727C447.8 262.427 448.6 265.227 449.2 267.927L449.8 267.827C449.2 265.027 448.4 262.127 447.3 259.327L440.9 257.427C439.8 255.027 438.4 252.727 436.9 250.527L438.4 244.027C436.5 241.627 434.4 239.527 432.3 237.527L432.1 238.227C434.1 240.127 436 242.127 437.8 244.427Z" fill="white"/>
<path d="M426 276.927C418.3 272.527 412.1 261.727 412.1 252.927C412.1 249.027 413.3 246.227 415.3 244.627C413 246.127 411.5 249.127 411.5 253.327C411.5 262.127 417.7 272.827 425.4 277.327C429.3 279.527 432.8 279.727 435.3 278.327C435.1 278.427 434.9 278.427 434.7 278.427C432.3 279.327 429.3 278.927 426 276.927Z" fill="white"/>
<path d="M437.6 284.227C438.5 283.927 439.4 283.427 440.1 282.827L439.9 282.627C439.2 283.327 438.5 283.827 437.6 284.227Z" fill="white"/>
<path d="M410.699 240.327C410.499 240.327 410.699 240.127 410.899 239.927L404.699 234.727C404.499 234.927 404.399 235.227 404.699 235.227L410.699 240.327Z" fill="white"/>
<path d="M436.399 284.927L437.899 292.827C437.699 292.827 438.099 292.827 438.399 292.827L436.899 284.727C436.599 284.727 436.299 284.827 436.399 284.927Z" fill="white"/>
<path d="M444.4 271.827C444.4 270.827 444.3 269.827 444.2 268.727H443.6C443.7 269.827 443.8 271.027 443.8 272.127C443.8 273.227 443.7 274.227 443.6 275.227L449.2 282.427C448.7 284.227 448 285.827 447.2 287.227V287.627C448.3 286.127 449.2 284.227 449.7 282.027L444.1 274.827C444.3 273.927 444.4 272.927 444.4 271.827Z" fill="white"/>
<path d="M419.2 230.527L422.6 238.927C423.5 239.327 424.5 239.727 425.4 240.327C426.4 240.927 427.3 241.527 428.2 242.227L428.3 241.727C427.5 241.127 426.7 240.627 425.9 240.127C424.9 239.527 424 239.127 423.1 238.727L419.7 230.327C417.5 229.727 415.5 229.527 413.6 229.727L413.7 230.127C415.3 230.027 417.4 230.127 419.2 230.527Z" fill="white"/>
<path d="M422.298 280.827L419.398 284.527C419.498 284.627 419.598 284.727 419.798 284.827L422.698 281.027C422.498 281.027 422.398 280.927 422.298 280.827Z" fill="white"/>
<path d="M428.6 208.727C417.1 202.027 407.7 185.927 407.7 172.727C407.7 167.827 409 164.027 411.2 161.527C404.9 162.027 400.6 167.327 400.6 176.227C400.6 189.427 410 205.627 421.5 212.227C428.7 216.427 435.1 215.827 438.9 211.527C435.9 211.727 432.4 210.927 428.6 208.727Z" fill="#72B5E8"/>
<path d="M448.9 204.327C448.9 202.627 448.8 200.927 448.5 199.227L456.9 198.127C456 193.827 454.7 189.627 453.1 185.327L443.5 182.427C441.8 178.827 439.8 175.327 437.5 172.127L439.8 162.427C436.9 158.827 433.9 155.627 430.6 152.727L425.4 159.427C424 158.427 422.6 157.427 421.2 156.527C419.8 155.727 418.4 155.027 417 154.527L411.8 141.827C408.5 140.927 405.4 140.627 402.6 140.927L404.9 153.327C402.6 153.927 400.6 155.127 398.9 156.727L389.3 148.527C387.6 150.827 386.3 153.627 385.5 156.927L393.9 167.727C393.7 169.227 393.5 170.727 393.5 172.427C393.5 174.127 393.6 175.827 393.9 177.527L385.5 178.627C386.4 182.927 387.7 187.127 389.3 191.427L398.9 194.327C400.6 197.927 402.6 201.427 404.9 204.627L402.6 214.327C405.5 217.927 408.5 221.127 411.8 224.027L417 217.327C418.4 218.327 419.8 219.327 421.2 220.227C422.6 221.027 424 221.727 425.4 222.227L430.6 234.927C433.9 235.827 437 236.127 439.8 235.827L437.5 223.427C439.8 222.827 441.8 221.627 443.5 220.027L453.1 228.227C454.8 225.927 456.1 223.127 456.9 219.827L448.5 209.027C448.8 207.527 448.9 206.027 448.9 204.327ZM421.5 212.227C410 205.527 400.6 189.427 400.6 176.227C400.6 163.027 410 157.627 421.5 164.327C433 171.027 442.4 187.127 442.4 200.327C442.4 213.527 433.1 218.827 421.5 212.227Z" fill="#A8CFF0"/>
<path d="M425.1 149.927L419.9 137.227L411.9 141.927L417 154.627L425.1 149.927Z" fill="#72B5E8"/>
<path d="M417 154.627C418.4 155.227 419.8 155.827 421.2 156.627C422.6 157.427 424 158.427 425.4 159.527L430.6 152.827C430.6 152.827 429.7 152.327 429.3 152.027C427.9 151.227 426.5 150.527 425.1 150.027L417 154.627Z" fill="#D1EBFF"/>
<path d="M419.9 137.227C416.6 136.327 413.5 136.027 410.7 136.327L402.6 140.927C405.5 140.627 408.5 140.927 411.8 141.827L419.9 137.227Z" fill="#D1EBFF"/>
<path d="M447.999 157.827C445.099 154.227 442.099 151.027 438.799 148.127L430.699 152.727C433.999 155.627 437.099 158.927 439.899 162.427L447.999 157.827Z" fill="#D1EBFF"/>
<path d="M439.9 162.527L437.6 172.227L445.7 167.527L448 157.827L439.9 162.527Z" fill="#72B5E8"/>
<path d="M437.6 172.227C439.9 175.427 441.9 178.927 443.6 182.527L451.7 177.927C450 174.327 448 170.827 445.7 167.627L437.6 172.227Z" fill="#72B5E8"/>
<path d="M443.6 182.527L453.2 185.427L461.3 180.827L451.7 177.927L443.6 182.527Z" fill="#D1EBFF"/>
<path d="M453.199 185.427C454.899 189.627 456.199 193.927 456.999 198.227L465.099 193.627C464.199 189.327 462.899 185.127 461.299 180.827L453.199 185.427Z" fill="#72B5E8"/>
<path d="M404.901 153.327L404.201 149.727L397.401 143.927L389.301 148.527L398.901 156.727C400.601 155.127 402.701 153.927 404.901 153.327Z" fill="#72B5E8"/>
<path d="M456.999 219.827C456.099 223.127 454.799 225.927 453.199 228.227L461.299 223.627C462.999 221.327 464.299 218.527 465.099 215.227L456.999 219.827Z" fill="#72B5E8"/>
<path d="M456.7 204.327C456.9 202.827 457.1 201.327 457.1 199.627C457.1 199.127 457.1 198.627 457 198.127L448.6 199.227C448.8 200.927 449 202.627 449 204.327C449 206.027 448.9 207.527 448.6 209.027L456.7 204.327Z" fill="#72B5E8"/>
<path d="M448.6 209.027L457 219.827L465.1 215.127L456.7 204.327L448.6 209.027Z" fill="#D1EBFF"/>
<path d="M443.6 220.027C441.9 221.727 439.9 222.827 437.6 223.427L439.9 235.827L448 231.227L446.4 222.427L443.6 220.027Z" fill="#72B5E8"/>
<path d="M393.6 173.727L385.5 178.527L393.9 177.427C393.8 176.227 393.7 175.027 393.6 173.727Z" fill="#D1EBFF"/>
<path d="M417.001 217.327L411.801 224.027L420.001 219.427C419.001 218.727 418.001 218.027 417.001 217.327Z" fill="#72B5E8"/>
<path d="M404 153.927V153.827C403.6 153.927 403.2 154.127 402.9 154.327C403.2 154.127 403.6 154.027 404 153.927Z" fill="white"/>
<path d="M392.9 177.627L385.9 178.527C385.9 178.627 386 178.827 386 178.927L393 178.027C393 177.927 392.9 177.727 392.9 177.627Z" fill="white"/>
<path d="M439.401 163.027L437.101 172.727C439.401 175.927 441.401 179.427 443.101 183.027L452.701 185.927C454.301 190.027 455.601 194.227 456.401 198.327L457.401 198.127C456.501 193.827 455.201 189.627 453.601 185.327L444.001 182.427C442.301 178.827 440.301 175.327 438.001 172.127L440.301 162.427C437.401 158.827 434.401 155.627 431.101 152.727L430.801 153.827C433.801 156.527 436.701 159.627 439.401 163.027Z" fill="white"/>
<path d="M421.6 212.027C410.1 205.327 400.7 189.227 400.7 176.027C400.7 170.227 402.5 165.927 405.6 163.527C402.1 165.827 399.9 170.327 399.9 176.627C399.9 189.827 409.3 206.027 420.8 212.627C426.6 216.027 431.9 216.327 435.7 214.027C435.4 214.127 435.1 214.127 434.8 214.227C431.2 215.527 426.6 214.927 421.6 212.027Z" fill="white"/>
<path d="M439.1 223.027C440.5 222.527 441.8 221.827 442.9 220.927L442.5 220.627C441.6 221.527 440.4 222.327 439.1 223.027Z" fill="white"/>
<path d="M398.701 157.027C398.301 157.027 398.701 156.727 399.101 156.427L389.801 148.527C389.501 148.927 389.301 149.327 389.701 149.327L398.701 157.027Z" fill="white"/>
<path d="M437.4 223.927L439.6 235.727C439.3 235.727 439.8 235.727 440.3 235.627L438 223.427C437.6 223.627 437.1 223.827 437.4 223.927Z" fill="white"/>
<path d="M449.301 204.327C449.301 202.827 449.201 201.227 449.001 199.727L448.201 199.827C448.401 201.527 448.601 203.227 448.601 204.927C448.601 206.627 448.501 208.127 448.201 209.627L456.601 220.427C455.901 223.127 454.801 225.527 453.501 227.627L453.601 228.327C455.301 226.027 456.601 223.227 457.401 219.927L449.001 209.127C449.201 207.527 449.301 205.927 449.301 204.327Z" fill="white"/>
<path d="M411.5 142.227L416.7 154.927C418.1 155.527 419.5 156.127 420.9 156.927C422.3 157.727 423.7 158.727 425.1 159.827L425.3 159.027C424.1 158.127 422.9 157.327 421.7 156.627C420.3 155.827 418.9 155.127 417.5 154.627L412.3 141.927C409 141.027 405.9 140.727 403.1 141.027L403.2 141.527C405.6 141.427 408.8 141.527 411.5 142.227Z" fill="white"/>
<path d="M416.001 217.827L411.701 223.427C411.901 223.627 412.101 223.727 412.201 223.927L416.601 218.227C416.401 218.127 416.201 218.027 416.001 217.827Z" fill="white"/>
<path d="M431.699 136.327C431.799 135.027 432.699 134.427 433.799 135.027C434.899 135.627 435.699 137.227 435.599 138.527C435.499 139.827 434.599 140.427 433.499 139.827C432.499 139.227 431.699 137.627 431.699 136.327Z" fill="#EB4680"/>
<path d="M425.699 296.327C425.699 295.427 426.399 295.027 427.099 295.427C427.799 295.827 428.399 296.927 428.299 297.827C428.299 298.727 427.599 299.127 426.899 298.727C426.199 298.327 425.699 297.227 425.699 296.327Z" fill="#EB4680"/>
<path d="M464.799 231.627C464.599 231.627 464.499 231.527 464.399 231.427C464.299 231.227 464.299 231.027 464.399 230.827L466.799 226.727C466.899 226.527 467.199 226.427 467.499 226.527C467.699 226.627 467.799 226.927 467.699 227.227L465.899 230.227L469.399 229.127C469.699 229.027 469.899 229.227 469.999 229.427C470.099 229.727 469.899 229.927 469.699 230.027L464.899 231.527C464.899 231.627 464.899 231.627 464.799 231.627Z" fill="#EB4680"/>
<path d="M423.302 249.827C425.202 250.927 426.802 253.027 427.802 255.227C427.802 255.227 428.902 254.927 429.302 254.727C430.202 254.327 431.402 254.527 432.702 255.227C435.602 256.927 438.002 261.027 438.002 264.327C438.002 270.427 427.502 272.527 427.502 272.527C427.502 272.527 417.502 259.227 417.502 253.027C417.502 251.327 416.802 250.827 417.702 250.327C417.802 250.327 419.702 249.227 419.802 249.227C420.802 248.927 422.002 249.027 423.302 249.827Z" fill="#D62D69"/>
<path d="M421.601 250.727C423.601 251.927 425.401 254.227 426.301 256.727C427.201 255.327 428.901 255.027 431.001 256.127C433.901 257.827 436.301 261.927 436.301 265.227C436.301 271.327 426.301 273.127 426.301 273.127C426.301 273.127 416.301 259.827 416.301 253.627C416.301 250.427 418.601 249.027 421.601 250.727Z" fill="#EB4680"/>
<path opacity="0.7" d="M421.3 250.827C423.3 252.027 425.3 254.327 426.2 256.827C426.4 256.527 426.1 256.627 426.4 256.427C425.5 254.127 423.8 251.927 421.8 250.827C420.2 249.927 419 249.727 418 250.227C418.9 250.027 420.1 250.127 421.3 250.827Z" fill="white"/>
<path opacity="0.7" d="M431.1 256.127C429.5 255.227 428.3 255.227 427.5 255.727C428.4 255.427 429.5 255.627 430.7 256.327C433.6 258.027 436 262.127 436 265.427C436 268.227 433.8 270.227 431.5 271.427C434.1 270.227 436.4 268.427 436.4 265.327C436.4 261.927 434 257.827 431.1 256.127Z" fill="white"/>
<path d="M466.401 231.027L465.701 230.327C471.101 225.427 473.901 217.427 473.901 207.327C473.901 182.027 455.901 151.027 433.801 138.227L434.301 137.327C456.701 150.227 474.901 181.627 474.901 207.227C474.901 217.727 472.001 225.927 466.401 231.027Z" fill="#EB4680"/>
<path d="M482.201 213.927C481.901 213.927 481.701 213.727 481.701 213.427C481.701 213.127 481.701 212.727 481.701 212.427C481.701 212.127 481.901 211.927 482.201 211.927C482.501 211.927 482.701 212.127 482.701 212.427C482.701 212.727 482.701 213.127 482.701 213.427C482.701 213.727 482.501 213.927 482.201 213.927Z" fill="#A8CFF0"/>
<path d="M454.701 248.527C454.401 248.527 454.201 248.327 454.201 248.027C454.201 247.727 454.401 247.527 454.701 247.527C455.401 247.527 456.001 247.527 456.701 247.427C457.001 247.427 457.201 247.627 457.201 247.927C457.201 248.227 457.001 248.427 456.701 248.427C456.101 248.527 455.401 248.527 454.701 248.527ZM451.701 248.427C451.001 248.327 450.301 248.327 449.701 248.227C449.401 248.227 449.201 247.927 449.301 247.627C449.301 247.327 449.601 247.127 449.901 247.227C450.601 247.327 451.201 247.427 451.801 247.427C452.101 247.427 452.301 247.727 452.301 247.927C452.201 248.227 452.001 248.427 451.701 248.427ZM459.601 248.127C459.401 248.127 459.201 247.927 459.101 247.727C459.101 247.427 459.201 247.227 459.501 247.127C460.101 247.027 460.801 246.827 461.401 246.727C461.701 246.627 461.901 246.827 462.001 247.127C462.101 247.427 461.901 247.627 461.601 247.727C461.101 247.827 460.401 248.027 459.601 248.127C459.701 248.127 459.701 248.127 459.601 248.127ZM464.401 246.727C464.201 246.727 464.001 246.627 463.901 246.427C463.801 246.127 463.901 245.927 464.201 245.827C464.801 245.627 465.401 245.327 466.001 245.027C466.201 244.927 466.501 245.027 466.701 245.227C466.801 245.427 466.701 245.727 466.501 245.927C465.901 246.227 465.301 246.527 464.701 246.727C464.501 246.727 464.501 246.727 464.401 246.727ZM468.801 244.427C468.601 244.427 468.501 244.327 468.401 244.227C468.201 244.027 468.301 243.727 468.501 243.527C469.001 243.127 469.601 242.827 470.101 242.427C470.301 242.227 470.601 242.327 470.801 242.527C471.001 242.727 470.901 243.027 470.701 243.227C470.201 243.627 469.601 244.027 469.101 244.427C469.001 244.427 468.901 244.427 468.801 244.427ZM472.601 241.327C472.501 241.327 472.301 241.327 472.201 241.227C472.001 241.027 472.001 240.727 472.201 240.527C472.701 240.027 473.101 239.627 473.501 239.127C473.701 238.927 474.001 238.927 474.201 239.027C474.401 239.227 474.401 239.527 474.301 239.727C473.901 240.227 473.401 240.727 472.901 241.227C472.901 241.327 472.801 241.327 472.601 241.327ZM475.801 237.527C475.701 237.527 475.601 237.527 475.501 237.427C475.301 237.227 475.201 236.927 475.401 236.727C475.801 236.227 476.101 235.627 476.401 235.127C476.501 234.927 476.801 234.827 477.101 234.927C477.301 235.027 477.401 235.327 477.301 235.627C477.001 236.227 476.601 236.727 476.201 237.327C476.101 237.427 476.001 237.527 475.801 237.527ZM478.201 233.227C478.101 233.227 478.101 233.227 478.001 233.227C477.801 233.127 477.601 232.827 477.801 232.527C478.101 231.927 478.301 231.327 478.601 230.727C478.701 230.427 479.001 230.327 479.301 230.427C479.601 230.527 479.701 230.827 479.601 231.127C479.301 231.727 479.101 232.327 478.801 232.927C478.601 233.127 478.401 233.227 478.201 233.227ZM480.001 228.627C480.001 228.627 479.901 228.627 479.801 228.627C479.501 228.527 479.401 228.227 479.501 228.027C479.701 227.427 479.901 226.827 480.001 226.127C480.101 225.827 480.301 225.727 480.601 225.727C480.901 225.827 481.001 226.027 481.001 226.327C480.801 227.027 480.601 227.627 480.401 228.227C480.501 228.427 480.301 228.627 480.001 228.627ZM481.301 223.827C481.201 223.827 481.201 223.827 481.301 223.827C480.901 223.727 480.801 223.527 480.801 223.227C480.901 222.627 481.001 221.927 481.101 221.327C481.101 221.027 481.401 220.827 481.701 220.927C482.001 220.927 482.201 221.227 482.101 221.527C482.001 222.227 481.901 222.827 481.801 223.527C481.701 223.627 481.501 223.827 481.301 223.827ZM482.001 218.827C481.901 218.827 481.901 218.827 482.001 218.827C481.701 218.827 481.501 218.527 481.501 218.327C481.601 217.727 481.601 217.027 481.701 216.327C481.701 216.027 481.901 215.827 482.201 215.827C482.501 215.827 482.701 216.127 482.701 216.327C482.701 217.027 482.601 217.627 482.501 218.327C482.401 218.727 482.201 218.827 482.001 218.827Z" fill="#A8CFF0"/>
<path d="M446.801 247.727H446.701C446.401 247.627 446.001 247.627 445.701 247.527C445.401 247.427 445.301 247.227 445.301 246.927C445.401 246.627 445.601 246.527 445.901 246.527C446.201 246.627 446.501 246.727 446.901 246.727C447.201 246.827 447.301 247.027 447.301 247.327C447.201 247.527 447.001 247.727 446.801 247.727Z" fill="#A8CFF0"/>
<path d="M382.8 168.527C382.6 168.527 382.4 168.327 382.3 168.127C382.2 167.827 382.2 167.427 382.1 167.127C382.1 166.827 382.2 166.627 382.5 166.527C382.8 166.527 383 166.627 383.1 166.927C383.2 167.227 383.2 167.627 383.3 167.927C383.3 168.227 383.1 168.527 382.8 168.527Z" fill="#A8CFF0"/>
<path d="M474.9 178.727C474.7 178.727 474.5 178.627 474.4 178.427C474.1 177.827 473.9 177.227 473.6 176.527C473.5 176.227 473.6 176.027 473.9 175.827C474.2 175.727 474.4 175.827 474.6 176.127C474.9 176.727 475.1 177.427 475.4 178.027C475.5 178.327 475.4 178.527 475.1 178.727C475.1 178.727 475 178.727 474.9 178.727ZM472.9 174.027C472.7 174.027 472.5 173.927 472.4 173.727C472.1 173.127 471.8 172.527 471.5 171.927C471.4 171.727 471.5 171.427 471.7 171.227C471.9 171.127 472.2 171.227 472.4 171.427C472.7 172.027 473 172.627 473.3 173.227C473.4 173.527 473.3 173.727 473.1 173.927C473.1 174.027 473 174.027 472.9 174.027ZM470.7 169.527C470.5 169.527 470.3 169.427 470.3 169.227C470 168.627 469.7 168.027 469.4 167.427C469.3 167.227 469.4 166.927 469.6 166.727C469.8 166.627 470.1 166.727 470.3 166.927C470.6 167.527 470.9 168.127 471.2 168.727C471.3 168.927 471.2 169.227 471 169.427C470.9 169.427 470.8 169.527 470.7 169.527ZM468.3 165.027C468.1 165.027 468 164.927 467.9 164.727C467.6 164.127 467.2 163.527 466.9 162.927C466.8 162.727 466.8 162.427 467.1 162.227C467.3 162.127 467.6 162.127 467.8 162.427C468.1 163.027 468.5 163.627 468.8 164.227C468.9 164.427 468.8 164.727 468.6 164.927C468.5 165.027 468.4 165.027 468.3 165.027ZM382.1 164.527C381.9 164.527 381.6 164.327 381.6 164.127C381.5 163.427 381.4 162.727 381.4 162.127C381.4 161.827 381.6 161.627 381.8 161.527C382.1 161.527 382.3 161.727 382.4 161.927C382.5 162.627 382.6 163.227 382.6 163.927C382.7 164.227 382.5 164.527 382.1 164.527ZM465.8 160.627C465.6 160.627 465.5 160.527 465.4 160.427C465 159.827 464.7 159.327 464.3 158.727C464.2 158.527 464.2 158.227 464.5 158.027C464.7 157.927 465 157.927 465.2 158.227C465.6 158.827 465.9 159.327 466.3 159.927C466.4 160.127 466.4 160.427 466.1 160.627C466 160.627 465.9 160.627 465.8 160.627ZM381.6 159.527C381.3 159.527 381.1 159.327 381.1 159.027C381.1 158.327 381 157.627 381 157.027C381 156.727 381.2 156.527 381.5 156.527C381.8 156.527 382 156.727 382 157.027C382 157.727 382.1 158.327 382.1 159.027C382.1 159.227 381.9 159.527 381.6 159.527ZM463 156.427C462.8 156.427 462.7 156.327 462.6 156.227C462.2 155.627 461.8 155.127 461.5 154.527C461.3 154.327 461.4 154.027 461.6 153.827C461.8 153.627 462.1 153.727 462.3 153.927C462.7 154.527 463.1 155.027 463.4 155.627C463.6 155.827 463.5 156.127 463.3 156.327C463.2 156.327 463.1 156.427 463 156.427ZM381.5 154.427C381.2 154.427 381 154.227 381 153.927C381 153.227 381 152.527 381 151.927C381 151.627 381.2 151.427 381.5 151.427C381.8 151.427 382 151.627 382 151.927C382 152.627 382 153.227 382 153.927C382 154.227 381.7 154.427 381.5 154.427ZM460.1 152.227C459.9 152.227 459.8 152.127 459.7 152.027C459.3 151.527 458.9 150.927 458.5 150.427C458.3 150.227 458.4 149.927 458.6 149.727C458.8 149.527 459.1 149.627 459.3 149.827C459.7 150.327 460.1 150.927 460.5 151.427C460.7 151.627 460.6 151.927 460.4 152.127C460.3 152.227 460.2 152.227 460.1 152.227ZM381.7 149.427C381.4 149.427 381.2 149.127 381.2 148.927C381.3 148.227 381.3 147.527 381.4 146.927C381.4 146.627 381.7 146.427 382 146.527C382.3 146.527 382.5 146.827 382.4 147.127C382.3 147.827 382.3 148.427 382.2 149.127C382.2 149.227 381.9 149.427 381.7 149.427ZM457 148.227C456.9 148.227 456.7 148.127 456.6 148.027C456.2 147.527 455.8 147.027 455.3 146.427C455.1 146.227 455.2 145.927 455.4 145.727C455.6 145.527 455.9 145.627 456.1 145.827C456.5 146.327 457 146.827 457.4 147.427C457.6 147.627 457.5 147.927 457.3 148.127C457.2 148.227 457.1 148.227 457 148.227ZM453.8 144.427C453.7 144.427 453.5 144.327 453.4 144.227C453 143.727 452.5 143.227 452.1 142.727C451.9 142.527 451.9 142.227 452.1 142.027C452.3 141.827 452.6 141.827 452.8 142.027C453.3 142.527 453.7 143.027 454.2 143.527C454.4 143.727 454.4 144.027 454.2 144.227C454 144.327 453.9 144.427 453.8 144.427ZM382.3 144.427C381.9 144.327 381.8 144.127 381.8 143.827C381.9 143.127 382.1 142.527 382.2 141.827C382.3 141.527 382.5 141.427 382.8 141.427C383.1 141.527 383.2 141.727 383.2 142.027C383.1 142.627 382.9 143.327 382.8 144.027C382.8 144.227 382.6 144.427 382.3 144.427ZM450.3 140.727C450.2 140.727 450 140.627 449.9 140.527C449.4 140.027 449 139.527 448.5 139.127C448.3 138.927 448.3 138.627 448.5 138.427C448.7 138.227 449 138.227 449.2 138.427C449.7 138.927 450.2 139.427 450.6 139.827C450.8 140.027 450.8 140.327 450.6 140.527C450.6 140.627 450.5 140.727 450.3 140.727ZM383.5 139.427H383.4C383.1 139.327 383 139.027 383.1 138.827C383.3 138.127 383.5 137.527 383.7 136.927C383.8 136.627 384.1 136.527 384.3 136.627C384.6 136.727 384.7 137.027 384.6 137.227C384.4 137.827 384.2 138.527 384 139.127C383.9 139.327 383.7 139.427 383.5 139.427ZM446.7 137.127C446.6 137.127 446.5 137.127 446.4 137.027C445.9 136.527 445.4 136.127 444.9 135.627C444.7 135.427 444.7 135.127 444.9 134.927C445.1 134.727 445.4 134.727 445.6 134.927C446.1 135.427 446.6 135.827 447.1 136.327C447.3 136.527 447.3 136.827 447.1 137.027C447 137.127 446.8 137.127 446.7 137.127ZM385.3 134.727C385.2 134.727 385.2 134.727 385.1 134.727C384.8 134.627 384.7 134.327 384.9 134.027C385.2 133.427 385.5 132.827 385.8 132.227C385.9 132.027 386.2 131.927 386.5 132.027C386.7 132.127 386.8 132.427 386.7 132.727C386.4 133.327 386.1 133.927 385.8 134.527C385.7 134.627 385.5 134.727 385.3 134.727ZM442.9 133.827C442.8 133.827 442.7 133.827 442.6 133.727C442.1 133.327 441.6 132.827 441 132.427C440.8 132.227 440.7 131.927 440.9 131.727C441.1 131.527 441.4 131.427 441.6 131.627C442.1 132.027 442.7 132.527 443.2 132.927C443.4 133.127 443.4 133.427 443.3 133.627C443.2 133.727 443.1 133.827 442.9 133.827ZM438.9 130.627C438.8 130.627 438.7 130.627 438.6 130.527C438.1 130.127 437.5 129.727 437 129.327C436.8 129.127 436.7 128.827 436.9 128.627C437.1 128.427 437.4 128.327 437.6 128.527C438.2 128.927 438.7 129.327 439.3 129.727C439.5 129.927 439.6 130.227 439.4 130.427C439.2 130.627 439.1 130.627 438.9 130.627ZM387.8 130.327C387.7 130.327 387.6 130.327 387.5 130.227C387.3 130.027 387.2 129.727 387.4 129.527C387.8 128.927 388.2 128.427 388.6 127.827C388.8 127.627 389.1 127.527 389.3 127.727C389.5 127.927 389.6 128.227 389.4 128.427C389 128.927 388.6 129.527 388.2 130.027C388.1 130.227 387.9 130.327 387.8 130.327ZM434.8 127.827C434.7 127.827 434.6 127.827 434.5 127.727C433.9 127.327 433.4 127.027 432.8 126.627C432.6 126.527 432.5 126.127 432.6 125.927C432.7 125.727 433.1 125.627 433.3 125.727C433.9 126.027 434.5 126.427 435 126.827C435.2 126.927 435.3 127.327 435.2 127.527C435.1 127.727 434.9 127.827 434.8 127.827ZM391 126.427C390.9 126.427 390.7 126.427 390.6 126.327C390.4 126.127 390.4 125.827 390.6 125.627C391.1 125.127 391.6 124.627 392.1 124.227C392.3 124.027 392.6 124.027 392.8 124.327C393 124.527 393 124.827 392.7 125.027C392.2 125.427 391.7 125.927 391.3 126.427C391.2 126.327 391.1 126.427 391 126.427ZM430.4 125.227C430.3 125.227 430.2 125.227 430.2 125.127C429.6 124.827 429 124.527 428.4 124.227C428.2 124.127 428.1 123.827 428.2 123.527C428.3 123.327 428.6 123.227 428.9 123.327C429.5 123.627 430.1 123.927 430.7 124.227C430.9 124.327 431 124.627 430.9 124.927C430.8 125.127 430.6 125.227 430.4 125.227ZM394.9 123.227C394.7 123.227 394.6 123.127 394.5 123.027C394.3 122.827 394.4 122.527 394.6 122.327C395.2 121.927 395.8 121.627 396.4 121.227C396.6 121.127 396.9 121.227 397.1 121.427C397.2 121.627 397.1 121.927 396.9 122.127C396.3 122.427 395.8 122.827 395.2 123.127C395.1 123.127 395 123.227 394.9 123.227ZM425.9 122.927C425.8 122.927 425.8 122.927 425.7 122.927C425.1 122.627 424.5 122.427 423.9 122.127C423.6 122.027 423.5 121.727 423.6 121.527C423.7 121.227 424 121.127 424.3 121.227C424.9 121.427 425.6 121.727 426.2 122.027C426.5 122.127 426.6 122.427 426.5 122.727C426.3 122.827 426.1 122.927 425.9 122.927ZM421.2 121.127C421.1 121.127 421.1 121.127 421 121.127C420.4 120.927 419.7 120.727 419.1 120.527C418.8 120.427 418.7 120.127 418.8 119.927C418.9 119.627 419.1 119.527 419.4 119.627C420 119.827 420.7 120.027 421.4 120.227C421.7 120.327 421.8 120.627 421.7 120.827C421.6 121.027 421.4 121.127 421.2 121.127ZM399.3 120.827C399.1 120.827 398.9 120.727 398.8 120.527C398.7 120.227 398.8 120.027 399.1 119.927C399.7 119.727 400.4 119.427 401.1 119.227C401.4 119.127 401.6 119.327 401.7 119.527C401.8 119.827 401.6 120.027 401.4 120.127C400.8 120.327 400.1 120.527 399.5 120.727C399.5 120.827 399.4 120.827 399.3 120.827ZM416.3 119.827H416.2C415.5 119.727 414.9 119.527 414.2 119.527C413.9 119.527 413.7 119.227 413.8 118.927C413.8 118.627 414.1 118.427 414.4 118.527C415.1 118.627 415.7 118.727 416.4 118.927C416.7 119.027 416.8 119.227 416.8 119.527C416.7 119.627 416.5 119.827 416.3 119.827ZM404.2 119.527C404 119.527 403.8 119.327 403.7 119.127C403.7 118.827 403.8 118.627 404.1 118.527C404.8 118.427 405.5 118.327 406.1 118.227C406.4 118.227 406.6 118.427 406.6 118.627C406.6 118.927 406.4 119.127 406.2 119.127C405.6 119.327 404.9 119.427 404.2 119.527ZM411.3 119.127C410.6 119.127 409.9 119.027 409.3 119.027C409 119.027 408.8 118.827 408.8 118.527C408.8 118.227 409 118.027 409.3 118.027C410 118.027 410.7 118.027 411.4 118.127C411.7 118.127 411.9 118.427 411.9 118.627C411.7 118.927 411.5 119.127 411.3 119.127Z" fill="#A8CFF0"/>
<path d="M476.4 182.527C476.2 182.527 476 182.427 475.9 182.227L475.6 181.327C475.5 181.027 475.6 180.827 475.9 180.727C476.2 180.627 476.4 180.727 476.5 181.027L476.8 181.927C476.9 182.227 476.8 182.427 476.5 182.527C476.5 182.527 476.5 182.527 476.4 182.527Z" fill="#A8CFF0"/>
<path d="M458.301 257.127C458.101 257.127 457.901 257.027 457.801 256.827C457.701 256.527 457.601 256.227 457.401 255.927C457.301 255.627 457.401 255.427 457.701 255.227C458.001 255.127 458.201 255.227 458.401 255.527C458.501 255.827 458.701 256.127 458.801 256.427C458.901 256.727 458.801 256.927 458.501 257.127C458.401 257.127 458.301 257.127 458.301 257.127Z" fill="#EB4680"/>
<path d="M444.5 303.627C443.8 303.627 443.2 303.627 442.5 303.527C442.2 303.527 442 303.227 442 303.027C442 302.727 442.3 302.527 442.5 302.527C443.1 302.627 443.8 302.627 444.4 302.627C444.7 302.627 444.9 302.827 444.9 303.127C445 303.427 444.8 303.627 444.5 303.627ZM447.4 303.427C447.2 303.427 446.9 303.227 446.9 303.027C446.9 302.727 447 302.527 447.3 302.427C447.9 302.327 448.6 302.227 449.2 302.027C449.5 301.927 449.7 302.127 449.8 302.427C449.9 302.727 449.7 302.927 449.4 303.027C448.9 303.227 448.2 303.327 447.4 303.427C447.5 303.427 447.5 303.427 447.4 303.427ZM439.6 303.127H439.5C438.9 303.027 438.2 302.827 437.5 302.627C437.2 302.527 437.1 302.227 437.2 302.027C437.3 301.727 437.6 301.627 437.8 301.727C438.4 301.927 439.1 302.027 439.7 302.227C440 302.327 440.1 302.527 440.1 302.827C440 302.927 439.8 303.127 439.6 303.127ZM452.2 302.027C452 302.027 451.8 301.927 451.7 301.727C451.6 301.527 451.7 301.227 451.9 301.027C452.5 300.727 453 300.427 453.6 300.127C453.8 300.027 454.1 300.027 454.3 300.327C454.4 300.527 454.4 300.827 454.1 301.027C453.5 301.427 452.9 301.727 452.3 302.027H452.2ZM434.8 301.627C434.7 301.627 434.7 301.627 434.6 301.627C434 301.427 433.4 301.127 432.8 300.827C432.5 300.727 432.4 300.427 432.6 300.127C432.7 299.827 433 299.727 433.3 299.927C433.9 300.227 434.5 300.427 435.1 300.727C435.4 300.827 435.5 301.127 435.4 301.327C435.2 301.527 435 301.627 434.8 301.627ZM456.2 299.327C456.1 299.327 455.9 299.227 455.8 299.127C455.6 298.927 455.6 298.627 455.8 298.427C456.3 298.027 456.7 297.527 457.1 297.027C457.3 296.827 457.6 296.827 457.8 296.927C458 297.127 458 297.427 457.9 297.627C457.5 298.127 457 298.627 456.5 299.127C456.5 299.227 456.4 299.327 456.2 299.327ZM459.4 295.427C459.3 295.427 459.2 295.427 459.1 295.327C458.9 295.227 458.8 294.827 458.9 294.627C459.2 294.127 459.5 293.527 459.8 292.927C459.9 292.727 460.2 292.627 460.5 292.727C460.7 292.827 460.9 293.127 460.7 293.427C460.4 294.027 460.1 294.627 459.7 295.227C459.7 295.327 459.5 295.427 459.4 295.427ZM461.4 290.927C461.3 290.927 461.3 290.927 461.2 290.927C460.9 290.827 460.8 290.527 460.9 290.327C461.1 289.727 461.3 289.127 461.5 288.427C461.6 288.127 461.8 288.027 462.1 288.027C462.4 288.127 462.5 288.327 462.5 288.627C462.3 289.327 462.1 289.927 461.9 290.527C461.8 290.827 461.6 290.927 461.4 290.927ZM462.6 286.127C462.2 286.027 462.1 285.827 462.1 285.527C462.2 284.927 462.3 284.227 462.4 283.627C462.4 283.327 462.7 283.127 462.9 283.227C463.2 283.227 463.4 283.527 463.3 283.727C463.2 284.427 463.1 285.027 463 285.727C463.1 286.027 462.9 286.127 462.6 286.127ZM463.1 281.227C462.8 281.227 462.6 281.027 462.6 280.727C462.6 280.327 462.6 279.827 462.6 279.327V278.727C462.6 278.427 462.8 278.227 463.1 278.227C463.4 278.227 463.6 278.427 463.6 278.727V279.327C463.6 279.827 463.6 280.227 463.6 280.727C463.6 281.027 463.4 281.227 463.1 281.227ZM463 276.327C462.7 276.327 462.5 276.127 462.5 275.827C462.5 275.227 462.4 274.527 462.3 273.827C462.3 273.527 462.5 273.327 462.7 273.227C463 273.227 463.2 273.427 463.3 273.627C463.4 274.327 463.4 274.927 463.5 275.627C463.5 276.027 463.3 276.227 463 276.327ZM462.4 271.427C462.2 271.427 461.9 271.227 461.9 271.027C461.8 270.427 461.7 269.727 461.5 269.127C461.4 268.827 461.6 268.627 461.9 268.527C462.2 268.427 462.4 268.627 462.5 268.927C462.6 269.627 462.8 270.227 462.9 270.927C462.9 271.027 462.7 271.327 462.4 271.427ZM461.4 266.527C461.2 266.527 461 266.327 460.9 266.127C460.7 265.527 460.6 264.827 460.4 264.227C460.3 263.927 460.5 263.727 460.7 263.627C461 263.527 461.2 263.727 461.3 263.927C461.5 264.527 461.7 265.227 461.8 265.827C461.9 266.127 461.7 266.327 461.4 266.427C461.4 266.527 461.4 266.527 461.4 266.527ZM460 261.727C459.8 261.727 459.6 261.627 459.5 261.427C459.3 260.827 459.1 260.227 458.9 259.527C458.8 259.227 458.9 259.027 459.2 258.927C459.5 258.827 459.7 258.927 459.8 259.227C460 259.827 460.2 260.527 460.4 261.127C460.5 261.427 460.3 261.627 460.1 261.727H460Z" fill="#EB4680"/>
<path d="M430.3 299.527C430.2 299.527 430.1 299.527 430.1 299.427C429.8 299.227 429.5 299.127 429.2 298.927C429 298.827 428.9 298.527 429 298.227C429.1 298.027 429.4 297.927 429.7 298.027C430 298.227 430.3 298.327 430.6 298.527C430.8 298.627 430.9 298.927 430.8 299.227C430.7 299.427 430.5 299.527 430.3 299.527Z" fill="#EB4680"/>
<path d="M457.1 257.627C456.8 257.627 456.6 257.327 456.6 257.127L456.8 254.427C456.8 254.227 456.9 254.127 457.1 254.027C457.3 253.927 457.5 253.927 457.6 254.127L459.8 255.827C460 256.027 460.1 256.327 459.9 256.527C459.7 256.727 459.4 256.827 459.2 256.627L457.7 255.527L457.6 257.227C457.6 257.427 457.4 257.627 457.1 257.627Z" fill="#EB4680"/>
<path d="M275.6 169.027C275.6 165.727 271 163.027 265.3 163.027C259.6 163.027 255 165.627 255 168.927C255 171.927 258.9 174.427 263.9 174.827V176.527C262.9 176.627 262.2 177.127 262.3 177.727V183.427C262.3 184.127 263.3 184.727 264.5 184.727H266.2C267.4 184.727 268.4 184.127 268.4 183.427V177.727C268.4 177.127 267.7 176.627 266.7 176.527V174.827C271.8 174.427 275.6 172.027 275.6 169.027Z" fill="white"/>
<path d="M400.3 401.427L221.5 298.127C214.6 294.127 209 283.427 209 274.227V111.527C209 102.327 214.6 98.0272 221.5 102.027L400.3 205.327C407.2 209.327 412.8 220.027 412.8 229.227V391.827C412.8 401.127 407.2 405.427 400.3 401.427Z" fill="#D1EBFF"/>
<path d="M405.199 202.827L226.399 99.5272C223.699 97.9272 221.099 97.6272 219.099 98.4272C218.799 98.5272 213.899 101.027 213.699 101.227C215.799 100.227 218.499 100.427 221.499 102.127L400.299 205.427C407.199 209.427 412.799 220.127 412.799 229.327V391.927C412.799 397.727 410.599 401.527 407.299 402.627C407.599 402.627 407.899 402.527 408.399 402.227C408.599 402.127 413.799 399.327 413.899 399.227C416.299 397.527 417.799 394.127 417.799 389.427V226.727C417.699 217.527 412.099 206.827 405.199 202.827Z" fill="#3F92D1"/>
<path d="M403.799 203.427L224.999 100.227C222.299 98.6272 219.699 98.3272 217.699 99.1272C217.399 99.2272 213.899 101.127 213.699 101.227C215.799 100.227 218.499 100.427 221.499 102.127L400.299 205.427L403.799 203.427Z" fill="#4F9FDB"/>
<path d="M400.9 205.027L222.1 101.827C219.3 100.227 216.7 99.9272 214.6 100.827C216.4 100.527 218.5 100.927 220.6 102.227L399.4 205.527C406.3 209.527 411.9 220.227 411.9 229.427V392.027C411.9 397.427 409.9 401.127 406.9 402.427C410.8 401.827 413.4 397.827 413.4 391.527V229.027C413.4 219.827 407.8 209.027 400.9 205.027Z" fill="white"/>
<path d="M216 126.027V274.227C216 281.427 219.4 288.527 225 292.127L401.9 394.327C402 394.327 402.1 394.427 402.2 394.527C403.8 395.427 405.8 394.327 405.8 392.427V235.627L216 126.027Z" fill="#03336E"/>
<path d="M405.5 393.027C405.4 392.927 405.3 392.927 405.2 392.827L228.3 290.727C222.7 287.227 219.3 280.127 219.3 272.827V127.927L216 126.027V274.227C216 281.427 219.4 288.527 225 292.127L401.9 394.327C402 394.327 402.1 394.427 402.2 394.527C403.6 395.327 405.2 394.627 405.6 393.227C405.6 393.027 405.5 393.027 405.5 393.027Z" fill="#001A46"/>
<path d="M395.801 217.827C395.801 220.027 397.301 222.627 399.201 223.727C401.101 224.827 402.601 223.927 402.601 221.727C402.601 219.527 401.101 216.927 399.201 215.827C397.301 214.827 395.801 215.627 395.801 217.827Z" fill="#FFCC00"/>
<path d="M386.9 212.727C386.9 214.927 388.4 217.527 390.3 218.627C392.2 219.727 393.7 218.827 393.7 216.627C393.7 214.427 392.2 211.827 390.3 210.727C388.4 209.627 386.9 210.527 386.9 212.727Z" fill="#EB4680"/>
<path d="M378 207.527C378 209.727 379.5 212.327 381.4 213.427C383.3 214.527 384.8 213.627 384.8 211.427C384.8 209.227 383.3 206.627 381.4 205.527C379.5 204.427 378 205.327 378 207.527Z" fill="#0FBAB8"/>
<path d="M332.599 202.527L319.599 195.027C318.299 194.227 317.199 194.827 317.199 196.427C317.199 197.927 318.299 199.727 319.599 200.527L332.599 208.027C333.899 208.827 334.999 208.227 334.999 206.627C334.999 205.127 333.999 203.327 332.599 202.527ZM353.999 214.927L340.999 207.427C339.699 206.627 338.599 207.227 338.599 208.827C338.599 210.327 339.699 212.127 340.999 212.927L353.999 220.427C355.299 221.227 356.399 220.627 356.399 219.027C356.399 217.527 355.299 215.627 353.999 214.927ZM375.399 227.227L362.399 219.727C361.099 218.927 359.999 219.527 359.999 221.127C359.999 222.627 361.099 224.427 362.399 225.227L375.399 232.727C376.699 233.527 377.799 232.927 377.799 231.327C377.699 229.827 376.699 228.027 375.399 227.227ZM396.699 239.527L383.699 232.027C382.399 231.227 381.299 231.827 381.299 233.427C381.299 234.927 382.399 236.727 383.699 237.527L396.699 245.027C397.999 245.827 399.099 245.227 399.099 243.627C399.099 242.127 397.999 240.327 396.699 239.527Z" fill="#72B5E8"/>
<path d="M281.201 213.327V269.127L287.301 265.527V209.527L281.201 213.327Z" fill="#2672AB"/>
<path d="M281.2 213.327V269.127L159.4 199.227V143.227L281.2 213.327Z" fill="#3F92D1"/>
<path d="M159.4 143.227L281.2 213.327L287.3 209.527L165.4 139.627L159.4 143.227Z" fill="#72B5E8"/>
<path opacity="0.7" d="M159.4 143.227L281.2 213.327L287.3 209.527L281.2 212.427L159.4 143.227Z" fill="white"/>
<path d="M263.4 248.827V246.527L224.9 224.627V227.027L263.4 248.827Z" fill="white"/>
<path d="M208.301 180.527V182.927L272.901 219.927V217.527L208.301 180.527Z" fill="white"/>
<path d="M231.001 213.427L208.301 200.227V202.627L231.001 215.727V213.427Z" fill="white"/>
<path d="M246.4 232.127V234.527L255.8 239.627V237.227L246.4 232.127Z" fill="white"/>
<path d="M245.001 211.627L208.301 190.427V192.727L245.001 213.927V211.627Z" fill="white"/>
<path d="M221.701 203.127L208.301 195.327V197.727L221.701 205.427V203.127Z" fill="white"/>
<path d="M218.301 218.227L244.101 233.127V230.727L218.301 215.927V218.227Z" fill="white"/>
<path d="M224 204.427V206.827L260.3 227.327V225.027L224 204.427Z" fill="white"/>
<path d="M233.4 214.727V217.127L251.5 227.527V225.227L233.4 214.727Z" fill="white"/>
<path d="M216.001 214.527L208.301 210.127V212.427L216.001 216.927V214.527Z" fill="white"/>
<path d="M247.301 215.327L272.901 229.727V227.327L247.301 212.927V215.327Z" fill="white"/>
<path d="M262.602 228.727L272.902 234.627V232.327L262.602 226.327V228.727Z" fill="white"/>
<path d="M208.301 187.827L272.901 224.827V222.427L208.301 185.427V187.827Z" fill="white"/>
<path d="M253.801 228.927L272.901 239.627V237.227L253.801 226.527V228.927Z" fill="white"/>
<path d="M222.601 223.327L208.301 215.027V217.427L222.601 225.627V223.327Z" fill="white"/>
<path d="M265.701 250.227L272.901 254.327V252.027L265.701 247.827V250.227Z" fill="white"/>
<path d="M258.102 240.927L272.902 249.427V247.027L258.102 238.527V240.927Z" fill="white"/>
<path d="M208.301 207.527L272.901 244.527V242.127L208.301 205.127V207.527Z" fill="white"/>
<path d="M194.801 171.127L173.501 158.927C169.801 156.827 166.801 159.027 166.801 164.027V188.627C166.801 193.627 169.801 199.327 173.501 201.427L194.701 213.727C198.401 215.827 201.401 213.627 201.401 208.627V184.027C201.501 179.027 198.501 173.327 194.801 171.127Z" fill="#2672AB"/>
<path d="M197.401 211.727L176.201 199.427C172.501 197.327 169.501 191.527 169.501 186.627V161.927C169.501 160.327 169.801 159.027 170.301 158.127C168.201 158.427 166.801 160.627 166.801 163.927V188.527C166.801 193.527 169.801 199.227 173.501 201.327L194.701 213.627C197.201 215.127 199.401 214.527 200.601 212.427C199.701 212.627 198.601 212.427 197.401 211.727Z" fill="#084C94"/>
<path d="M178.301 178.027L157.001 165.727C153.301 163.627 150.301 165.827 150.301 170.827V195.427C150.301 200.427 153.301 206.127 157.001 208.227L178.201 220.527C181.901 222.627 184.901 220.427 184.901 215.427V190.927C185.001 185.927 182.001 180.227 178.301 178.027Z" fill="#0FBAB8"/>
<path d="M181.702 176.027L160.502 163.727C158.902 162.827 157.502 162.727 156.302 163.227L152.602 165.427C153.802 164.727 155.302 164.727 157.002 165.727L178.302 178.027C182.002 180.227 185.002 185.927 185.002 190.927V215.527C185.002 217.927 184.302 219.727 183.102 220.627L185.102 219.327C186.802 218.327 188.402 216.827 188.402 213.527V188.827C188.502 183.927 185.402 178.127 181.702 176.027Z" fill="#0BA19F"/>
<path opacity="0.7" d="M178.601 177.727L157.401 165.427C155.601 164.327 153.901 164.427 152.701 165.327C153.801 164.927 155.201 165.027 156.601 165.927L177.801 178.227C181.501 180.327 184.501 186.127 184.501 191.027V215.627C184.501 218.127 183.701 219.927 182.501 220.827C184.201 220.227 185.301 218.127 185.301 215.127V190.627C185.401 185.627 182.401 179.927 178.601 177.727Z" fill="white"/>
<path d="M155.9 172.527V200.627L179 214.027V185.827L155.9 172.527ZM177.5 211.427L157.4 199.827V175.127L177.5 186.727V211.427Z" fill="white"/>
<path d="M173.902 190.827C173.902 192.627 172.602 193.427 171.002 192.527C169.402 191.627 168.102 189.327 168.102 187.527C168.102 185.727 169.402 184.927 171.002 185.827C172.602 186.727 173.902 189.027 173.902 190.827Z" fill="white"/>
<path d="M156.701 193.227L162.701 185.427L168.801 200.827L173.201 197.227L178.101 210.527L178.001 211.927L156.801 200.527L156.701 193.227Z" fill="white"/>
<path d="M437.799 194.227C437.799 198.027 436.499 200.727 434.299 202.027C434.199 202.027 430.599 204.327 430.599 204.327C428.399 205.527 429.799 202.727 426.399 200.827C419.599 196.927 413.999 187.327 413.999 179.527C413.999 175.627 410.399 175.627 412.599 174.327C412.699 174.327 416.699 172.027 416.799 171.927C418.999 170.727 422.099 170.927 425.399 172.927C432.199 176.927 437.799 186.427 437.799 194.227Z" fill="#FFCC00"/>
<path d="M422 175.027C418.7 173.127 415.8 172.927 413.5 174.027C415.6 173.427 418.1 173.927 420.9 175.527C427.7 179.427 433.3 189.027 433.3 196.827C433.3 200.927 431.8 203.727 429.4 204.927C432.4 204.127 434.4 201.127 434.4 196.427C434.3 188.527 428.8 179.027 422 175.027Z" fill="white"/>
<path d="M430.166 204.53C434.981 201.714 434.953 192.707 430.103 184.411C425.253 176.115 417.418 171.672 412.602 174.487C407.787 177.302 407.815 186.31 412.665 194.606C417.515 202.902 425.35 207.345 430.166 204.53Z" fill="#FFD70F"/>
<path d="M419.199 184.427C419.199 185.527 418.399 185.927 417.499 185.427C416.499 184.827 415.799 183.527 415.799 182.427C415.799 181.327 416.599 180.927 417.499 181.427C418.399 182.027 419.199 183.327 419.199 184.427Z" fill="#D99F00"/>
<path d="M426.199 188.527C426.199 189.627 425.399 190.027 424.499 189.527C423.499 188.927 422.799 187.627 422.799 186.527C422.799 185.427 423.599 185.027 424.499 185.527C425.399 186.127 426.199 187.427 426.199 188.527Z" fill="#D99F00"/>
<path d="M414.4 189.027L416 189.327C416.7 192.127 418.7 194.927 421 196.227C423.2 197.427 425.1 197.027 425.9 195.227L427.5 196.827C426.5 199.327 423.8 199.827 421 198.227C418 196.427 415.4 192.727 414.4 189.027Z" fill="#D99F00"/>
<path d="M417.899 185.127C416.899 184.527 416.199 183.227 416.199 182.127C416.199 181.727 416.299 181.527 416.399 181.327C415.999 181.427 415.699 181.827 415.699 182.527C415.699 183.627 416.499 184.927 417.399 185.527C417.999 185.927 418.599 185.827 418.899 185.427C418.599 185.427 418.299 185.327 417.899 185.127Z" fill="#B08100"/>
<path d="M424.899 189.127C423.899 188.527 423.199 187.227 423.199 186.127C423.199 185.727 423.299 185.527 423.399 185.327C422.999 185.427 422.699 185.827 422.699 186.527C422.699 187.627 423.499 188.927 424.399 189.527C424.999 189.927 425.599 189.827 425.899 189.427C425.699 189.427 425.299 189.327 424.899 189.127Z" fill="#B08100"/>
<path d="M426.101 195.327L425.901 195.127C425.701 195.527 425.501 195.927 425.201 196.227C425.501 196.027 425.801 195.727 426.101 195.327Z" fill="#B08100"/>
<path d="M421.5 197.827C418.7 196.227 416.1 192.727 415 189.127L414.4 189.027C415.4 192.827 418 196.427 421 198.127C423.2 199.327 425.2 199.327 426.5 198.227C425.1 199.027 423.4 198.927 421.5 197.827Z" fill="#B08100"/>
<path d="M431.701 317.027V385.227L437.801 381.727V313.327L431.701 317.027Z" fill="#2672AB"/>
<path d="M431.7 317.027V385.227L298.4 308.827V240.527L431.7 317.027Z" fill="#3F92D1"/>
<path d="M298.4 240.527L431.7 317.027L437.8 313.327L304.5 236.827L298.4 240.527Z" fill="#72B5E8"/>
<path opacity="0.7" d="M298.4 240.527L431.7 317.027L437.8 313.327L431.7 316.227L298.4 240.527Z" fill="white"/>
<path d="M417.578 360.295C425.684 355.556 425.589 340.313 417.366 326.248C409.143 312.182 395.906 304.622 387.801 309.36C379.696 314.099 379.791 329.342 388.014 343.407C396.236 357.473 409.473 365.033 417.578 360.295Z" fill="#2672AB"/>
<path d="M404.701 357.127C393.101 350.427 383.801 334.327 383.801 321.027C383.801 316.127 385.101 312.227 387.301 309.727C383.901 312.027 381.801 316.527 381.801 322.827C381.801 336.127 391.201 352.227 402.701 358.927C409.901 363.127 416.301 362.527 420.101 358.327C416.301 360.827 410.801 360.627 404.701 357.127Z" fill="#084C94"/>
<path d="M344.001 277.927L339.501 275.327V326.027L344.001 328.627V277.927ZM350.501 275.327L346.001 272.727V329.627L350.501 332.227V275.327ZM357.101 286.827L352.601 284.227V333.527L357.101 336.127V286.827ZM326.201 290.427V318.227L330.701 320.827V293.027L326.201 290.427ZM337.301 282.627L332.801 280.027V321.927L337.301 324.527V282.627ZM363.701 300.927L359.201 298.327V337.327L363.701 339.927V300.927ZM370.101 317.027L365.601 314.427V341.027L370.101 343.627V317.027ZM324.001 285.627L319.501 283.027V314.227L324.001 316.827V285.627ZM306.201 287.427V306.327L310.701 308.927V290.027L306.201 287.427ZM317.301 280.027L312.801 277.427V310.127L317.301 312.727V280.027Z" fill="#2672AB"/>
<path d="M344.001 297.827L339.501 295.227V326.027L344.001 328.627V297.827ZM350.501 283.827L346.001 281.227V329.727L350.501 332.327V283.827ZM357.101 295.827L352.601 293.227V333.527L357.101 336.127V295.827ZM326.201 297.127V318.127L330.701 320.727V299.727L326.201 297.127ZM337.301 296.327L332.801 293.727V322.027L337.301 324.627V296.327ZM324.001 288.127L319.501 285.527V314.127L324.001 316.727V288.127ZM306.201 300.827V306.327L310.701 308.927V303.427L306.201 300.827ZM317.301 300.827L312.801 298.227V310.127L317.301 312.727V300.827ZM363.701 308.127L359.201 305.527V337.227L363.701 339.827V308.127ZM370.101 320.927L365.601 318.327V341.027L370.101 343.627V320.927Z" fill="#A8CFF0"/>
<path d="M357.102 296.427L352.602 293.827V293.227L357.102 295.827V296.427Z" fill="white"/>
<path d="M350.502 284.327L346.002 281.827V281.227L350.502 283.827V284.327Z" fill="white"/>
<path d="M370.102 321.527L365.602 318.927V318.327L370.102 320.927V321.527Z" fill="white"/>
<path d="M344.002 298.327L339.502 295.827V295.227L344.002 297.827V298.327Z" fill="white"/>
<path d="M363.701 308.727L359.201 306.127V305.527L363.701 308.127V308.727Z" fill="white"/>
<path d="M317.301 301.427L312.801 298.827V298.227L317.301 300.827V301.427Z" fill="white"/>
<path d="M324.002 288.727L319.502 286.127V285.527L324.002 288.127V288.727Z" fill="white"/>
<path d="M310.701 303.427V304.027L306.201 301.427V300.827L310.701 303.427Z" fill="white"/>
<path d="M337.301 296.927L332.801 294.327V293.727L337.301 296.327V296.927Z" fill="white"/>
<path d="M330.701 300.327L326.201 297.727V297.127L330.701 299.727V300.327Z" fill="white"/>
<path d="M382.1 326.027C382.4 316.027 389.7 312.027 398.6 317.227C403.2 319.927 407.4 324.427 410.4 329.727L413.7 328.927C409.9 322.127 404.6 316.127 398.6 312.727C387.4 306.227 378.2 311.327 378.1 324.127L380.7 326.527L382.1 326.027Z" fill="#FFCC00"/>
<path d="M406.9 357.227C404.5 357.427 401.6 356.727 398.6 355.027C390.1 350.127 383.1 338.727 382.2 328.827L378.2 326.827C378.2 326.927 376.9 327.127 376.9 327.227C378.1 339.627 388.1 353.627 398.7 359.727C402.5 361.927 405.1 363.127 408.2 362.727C408.3 362.727 409.5 362.427 409.6 362.327L406.9 357.227Z" fill="#FFCC00"/>
<path d="M411.9 332.627C413.9 336.927 415.1 341.427 415.1 345.627C415.1 351.627 412.7 355.527 408.9 356.827L411.5 361.927C416.2 360.327 419.2 355.427 419.2 348.027C419.2 342.827 417.7 337.227 415.2 331.827L411.9 332.627Z" fill="#FFCC00"/>
<path d="M404.3 340.927C403.2 340.027 402.2 338.827 401.4 337.427C400.9 336.627 400.9 335.727 401.4 335.527C402 335.127 402.5 334.627 402.9 333.927C403.4 334.027 404 333.927 404 333.227C404 332.527 403.7 331.727 403.3 331.327C403.2 328.327 402.1 325.127 398.6 323.127C397.4 322.427 396.5 322.227 395.8 322.327C395.6 322.327 394.3 322.727 394.1 322.827C393.2 323.327 394 324.327 394 325.927C393.6 325.827 393.3 326.227 393.3 326.927C393.3 327.627 393.9 328.527 394.4 329.027C394.7 330.127 395.3 331.327 395.9 332.427C396.4 333.227 396.4 334.127 395.9 334.327C395.1 334.727 394.1 334.827 393 334.427C392.6 334.327 392.1 334.327 391.8 334.427C391.7 334.427 390.5 334.827 390.4 334.827C389.7 335.127 390.5 335.627 390.5 336.727V339.827C390.5 340.427 390.9 341.127 391.5 341.527L404.9 350.427C405.1 350.527 406.5 350.127 406.6 350.027C406.8 349.927 406.9 349.727 406.9 349.427V346.327C406.8 344.327 405.8 342.227 404.3 340.927Z" fill="#FFCC00"/>
<path d="M381.201 326.227C381.501 316.227 388.801 312.227 397.701 317.427C402.301 320.127 406.501 324.627 409.501 329.927L412.801 329.127C409.001 322.327 403.701 316.327 397.701 312.927C386.501 306.427 377.301 311.527 377.201 324.327L381.201 326.227Z" fill="white"/>
<path d="M406.001 357.527C403.601 357.727 400.701 357.027 397.701 355.327C389.201 350.427 382.201 339.027 381.301 329.127L377.301 327.127C378.401 339.627 387.101 353.927 397.701 360.027C401.701 362.327 405.401 363.127 408.601 362.727L406.001 357.527Z" fill="white"/>
<path d="M411.002 332.927C413.002 337.227 414.202 341.727 414.202 345.927C414.202 351.927 411.802 355.827 408.002 357.127L410.602 362.227C415.302 360.627 418.302 355.727 418.302 348.327C418.302 343.127 416.802 337.527 414.302 332.127L411.002 332.927Z" fill="white"/>
<path d="M403.4 341.227C402.3 340.327 401.3 339.127 400.5 337.727C400 336.927 400 336.027 400.5 335.827C401.1 335.427 401.6 334.927 402 334.227C402.5 334.327 403.1 334.227 403.1 333.527C403.1 332.827 402.8 332.027 402.4 331.627C402.3 328.627 401.2 325.427 397.7 323.427C394.2 321.427 393.2 323.327 393 326.227C392.6 326.127 392.3 326.527 392.3 327.227C392.3 327.927 392.9 328.827 393.4 329.327C393.7 330.427 394.3 331.627 394.9 332.727C395.4 333.527 395.4 334.427 394.9 334.627C394.1 335.027 393.1 335.127 392 334.727C390.5 334.327 389.4 335.127 389.4 336.927V340.027C389.4 340.627 389.8 341.327 390.4 341.727L404.9 350.127C405.4 350.427 405.9 350.227 405.9 349.627V346.527C405.9 344.627 404.9 342.427 403.4 341.227Z" fill="white"/>
<path d="M380.701 326.327C381.001 316.327 388.301 312.327 397.201 317.527C401.801 320.227 406.001 324.727 409.001 330.027L412.301 329.227C408.501 322.427 403.201 316.427 397.201 313.027C386.001 306.527 376.801 311.627 376.701 324.427L380.701 326.327Z" fill="#FFDE17"/>
<path d="M405.501 357.627C403.101 357.827 400.201 357.127 397.201 355.427C388.701 350.527 381.701 339.127 380.801 329.227L376.801 327.227C377.901 339.727 386.601 354.027 397.201 360.127C401.201 362.427 404.901 363.227 408.101 362.827L405.501 357.627Z" fill="#FFDE17"/>
<path d="M410.502 333.027C412.502 337.327 413.702 341.827 413.702 346.027C413.702 352.027 411.302 355.927 407.502 357.227L410.102 362.327C414.802 360.727 417.802 355.827 417.802 348.427C417.802 343.227 416.302 337.627 413.802 332.227L410.502 333.027Z" fill="#FFDE17"/>
<path d="M402.9 341.327C401.8 340.427 400.8 339.227 400 337.827C399.5 337.027 399.5 336.127 400 335.927C400.6 335.527 401.1 335.027 401.5 334.327C402 334.427 402.6 334.327 402.6 333.627C402.6 332.927 402.3 332.127 401.9 331.727C401.8 328.727 400.7 325.527 397.2 323.527C393.7 321.527 392.7 323.427 392.5 326.327C392.1 326.227 391.8 326.627 391.8 327.327C391.8 328.027 392.4 328.927 392.9 329.427C393.2 330.527 393.8 331.727 394.4 332.827C394.9 333.627 394.9 334.527 394.4 334.727C393.6 335.127 392.6 335.227 391.5 334.827C390 334.427 388.9 335.227 388.9 337.027V340.127C388.9 340.727 389.3 341.427 389.9 341.827L404.4 350.227C404.9 350.527 405.4 350.327 405.4 349.727V346.627C405.4 344.727 404.3 342.527 402.9 341.327Z" fill="#FFDE17"/>
<path d="M299.199 299.927V328.527L303.899 325.827V297.127L299.199 299.927Z" fill="#0BA19F"/>
<path d="M299.2 299.927V328.527L193.5 267.527V238.827L299.2 299.927Z" fill="#0FBAB8"/>
<path d="M193.5 238.827L299.2 299.927L303.9 297.127L198.3 236.027L193.5 238.827Z" fill="#3ECFCD"/>
<path opacity="0.7" d="M193.5 238.827L299.2 299.927L303.9 297.127L299.3 299.227L193.5 238.827Z" fill="white"/>
<path d="M293.799 319.827L198.699 264.327V247.527L293.799 303.027V319.827Z" fill="white"/>
<path d="M202.699 252.327L204.599 253.427L205.499 262.627L206.399 254.527L208.599 255.827L209.499 265.027L210.399 256.827L212.099 257.827L210.999 269.127L208.499 267.727L207.599 259.927L206.699 266.727L204.099 265.227L202.699 252.327Z" fill="#084C94"/>
<path d="M214.1 258.927L216 260.027L216.9 269.227L217.8 261.127L220 262.427L220.9 271.627L221.8 263.427L223.5 264.427L222.2 275.727L219.7 274.327L218.8 266.527L217.9 273.327L215.3 271.827L214.1 258.927Z" fill="#084C94"/>
<path d="M225.6 265.427L227.5 266.527L228.4 275.727L229.3 267.627L231.5 268.927L232.4 278.127L233.3 269.927L235 270.927L233.7 282.227L231.2 280.827L230.3 273.027L229.4 279.827L226.8 278.327L225.6 265.427Z" fill="#084C94"/>
<path d="M241.5 153.027V172.927L244.5 171.327V151.227L241.5 153.027Z" fill="#FFCC00"/>
<path d="M241.501 153.027V172.927L223.801 162.727V142.627L241.501 153.027Z" fill="#FFD70F"/>
<path d="M223.801 142.627L241.501 153.027L244.501 151.227L226.701 140.927L223.801 142.627Z" fill="#FFDE17"/>
<path d="M223.801 142.627L241.501 153.027L244.501 151.227L241.401 152.027L223.801 142.627Z" fill="white"/>
<path d="M257.1 146.427V178.627L261.9 175.927V143.427L257.1 146.427Z" fill="#D62D69"/>
<path d="M228.4 129.527L257.1 146.427L261.9 143.427L233.2 126.727L228.4 129.527Z" fill="#F76195"/>
<path opacity="0.7" d="M228.4 129.527L257.1 146.427L261.9 143.427L257.2 145.727L228.4 129.527Z" fill="white"/>
<path d="M228.4 129.527V142.927L243.6 151.827V170.827L257.1 178.627V146.427L228.4 129.527Z" fill="#EB4680"/>
<path d="M318.4 224.227V246.527L321.8 244.627V222.227L318.4 224.227Z" fill="#0BA19F"/>
<path d="M318.4 224.227V246.527L298.6 235.027V212.627L318.4 224.227Z" fill="#0FBAB8"/>
<path d="M298.6 212.627L318.4 224.227L321.8 222.227L301.9 210.627L298.6 212.627Z" fill="#3ECFCD"/>
<path opacity="0.7" d="M298.6 212.627L318.4 224.227L321.8 222.227L318.3 223.127L298.6 212.627Z" fill="white"/>
<path d="M344.4 239.227V261.527L347.8 259.627V237.227L344.4 239.227Z" fill="#0BA19F"/>
<path d="M344.4 239.227V261.527L324.6 250.027V227.627L344.4 239.227Z" fill="#0FBAB8"/>
<path d="M324.6 227.627L344.4 239.227L347.8 237.227L327.9 225.627L324.6 227.627Z" fill="#3ECFCD"/>
<path opacity="0.7" d="M324.6 227.627L344.4 239.227L347.8 237.227L344.3 238.127L324.6 227.627Z" fill="white"/>
<path d="M370.301 254.027V276.327L373.601 274.427V252.027L370.301 254.027Z" fill="#0BA19F"/>
<path d="M370.3 254.027V276.327L350.5 264.827V242.427L370.3 254.027Z" fill="#0FBAB8"/>
<path d="M350.5 242.427L370.3 254.027L373.6 252.027L353.8 240.527L350.5 242.427Z" fill="#3ECFCD"/>
<path opacity="0.7" d="M350.5 242.427L370.3 254.027L373.6 252.027L370.1 253.027L350.5 242.427Z" fill="white"/>
<path d="M395.801 268.527V290.827L399.101 288.927V266.527L395.801 268.527Z" fill="#0BA19F"/>
<path d="M395.8 268.527V290.827L376 279.327V256.927L395.8 268.527Z" fill="#0FBAB8"/>
<path d="M376 256.927L395.8 268.527L399.1 266.527L379.3 255.027L376 256.927Z" fill="#3ECFCD"/>
<path opacity="0.7" d="M376 256.927L395.8 268.527L399.1 266.527L395.6 267.527L376 256.927Z" fill="white"/>
<path d="M364.3 263.527C363.6 262.927 363 262.127 362.5 261.327C362.2 260.827 362.2 260.227 362.5 260.127C362.9 259.927 363.2 259.527 363.4 259.127C363.7 259.227 364.1 259.127 364.1 258.627C364.1 258.227 363.9 257.727 363.6 257.427C363.5 255.527 362.9 253.527 360.7 252.227C358.5 250.927 357.8 252.127 357.8 254.027C357.5 253.927 357.3 254.227 357.3 254.727C357.3 255.127 357.7 255.727 358 256.027C358.2 256.727 358.6 257.527 358.9 258.127C359.2 258.627 359.2 259.227 358.9 259.327C358.4 259.627 357.8 259.627 357.1 259.427C356.2 259.127 355.5 259.727 355.5 260.827V262.827C355.5 263.227 355.8 263.727 356.1 263.827L365.3 269.127C365.6 269.327 365.9 269.127 365.9 268.827V266.827C365.9 265.627 365.3 264.327 364.3 263.527Z" fill="white"/>
<path d="M379.5 277.827L382.7 279.727V273.927L379.5 272.027V277.827ZM384.6 280.727L387.8 282.627V272.027L384.6 270.127V280.727ZM389.7 268.327V283.727L392.9 285.627V270.227L389.7 268.327Z" fill="white"/>
<path d="M339.7 247.827C339.7 247.527 339.7 247.227 339.6 246.927L341.1 246.727C340.9 245.927 340.7 245.227 340.4 244.427L338.7 243.927C338.4 243.327 338 242.627 337.6 242.027L338 240.327C337.5 239.727 336.9 239.127 336.3 238.627L335.4 239.827C335.2 239.627 334.9 239.427 334.6 239.327C334.3 239.227 334.1 239.027 333.8 238.927L332.9 236.627C332.3 236.427 331.8 236.427 331.2 236.427L331.6 238.627C331.2 238.727 330.8 238.927 330.5 239.227L328.8 237.727C328.5 238.127 328.3 238.627 328.1 239.227L329.6 241.127C329.6 241.427 329.5 241.627 329.5 241.927C329.5 242.227 329.5 242.527 329.6 242.827L328.1 243.027C328.3 243.827 328.5 244.527 328.8 245.327L330.5 245.827C330.8 246.427 331.2 247.127 331.6 247.727L331.2 249.427C331.7 250.027 332.3 250.627 332.9 251.127L333.8 249.927C334 250.127 334.3 250.327 334.6 250.427C334.9 250.527 335.1 250.727 335.4 250.827L336.3 253.127C336.9 253.327 337.4 253.327 338 253.327L337.6 251.127C338 251.027 338.4 250.827 338.7 250.527L340.4 252.027C340.7 251.627 340.9 251.127 341.1 250.527L339.6 248.627C339.7 248.327 339.7 248.127 339.7 247.827ZM334.7 247.227C333.6 246.627 332.7 245.027 332.7 243.827C332.7 242.527 333.6 242.027 334.7 242.727C335.8 243.327 336.7 244.927 336.7 246.127C336.7 247.327 335.8 247.827 334.7 247.227Z" fill="white"/>
<path d="M302.299 221.427L308.699 231.427L315.099 228.827C314.899 228.527 314.599 228.227 314.299 228.127L302.999 221.627C302.799 221.427 302.499 221.427 302.299 221.427Z" fill="white"/>
<path d="M315.099 228.827L308.699 232.427L306.899 229.327L302.299 231.227L306.499 228.827L302.299 221.527C301.999 221.627 301.799 221.927 301.799 222.327V229.927C301.799 230.727 302.399 231.727 302.999 232.127L314.299 238.627C314.999 239.027 315.599 238.727 315.599 237.927V230.327C315.599 229.827 315.399 229.327 315.099 228.827ZM315.099 238.627L310.499 231.527L310.799 231.327L315.099 238.627Z" fill="white"/>
<path d="M218.6 289.327V317.827L223.2 315.327V286.627L218.6 289.327Z" fill="#2672AB"/>
<path d="M218.7 289.327V317.827L142 273.627V244.927L218.7 289.327Z" fill="#3F92D1"/>
<path d="M142 244.927L218.7 289.327L223.2 286.627L146.4 242.227L142 244.927Z" fill="#72B5E8"/>
<path opacity="0.7" d="M142 244.927L218.7 289.327L223.2 286.627L218.5 288.427L142 244.927Z" fill="white"/>
<path d="M171.6 266.727L157.6 258.627C156.7 258.127 156 258.527 156 259.527V269.027C156 270.027 156.7 271.227 157.6 271.727L166.4 276.827L170.8 284.427V279.427L171.7 279.927C172.6 280.427 173.3 280.027 173.3 279.027V269.527C173.2 268.427 172.5 267.227 171.6 266.727ZM161.7 268.527C161.2 268.827 160.5 268.327 160 267.527C159.5 266.727 159.5 265.927 160 265.627C160.5 265.327 161.2 265.827 161.7 266.627C162.2 267.427 162.2 268.227 161.7 268.527ZM165.5 270.727C165 271.027 164.3 270.527 163.8 269.727C163.3 268.927 163.3 268.127 163.8 267.827C164.3 267.527 165 268.027 165.5 268.827C166 269.527 166 270.427 165.5 270.727ZM169.3 272.827C168.8 273.127 168.1 272.627 167.6 271.827C167.1 271.027 167.1 270.227 167.6 269.927C168.1 269.627 168.8 270.127 169.3 270.927C169.8 271.727 169.8 272.627 169.3 272.827ZM154.9 268.327V260.627L149.5 257.527C148.7 257.027 148 257.427 148 258.427V267.927C148 268.927 148.7 270.127 149.6 270.627L150.5 271.127V276.127L154.9 273.627L163.7 278.727C164.6 279.227 165.3 278.827 165.3 277.827V277.427L157.8 273.127C156.1 272.127 154.9 270.027 154.9 268.327Z" fill="white"/>
<path d="M176.4 271.527V273.827L213 295.027V292.627L176.4 271.527Z" fill="white"/>
<path d="M201.4 295.827L176.4 281.327V283.727L201.4 298.227V295.827Z" fill="white"/>
<path d="M176.4 278.827L213 299.927V297.527L176.4 276.427V278.827Z" fill="white"/>
<path opacity="0.2" d="M269.7 349.027L245.9 335.627C248 334.127 249.2 332.327 249.2 330.427C249.2 325.127 240.1 320.827 228.9 320.827C217.7 320.827 208.6 325.127 208.6 330.427C208.6 335.727 217.7 340.027 228.9 340.027C231.2 340.027 233.5 339.827 235.6 339.527L261.2 353.927C262.9 354.927 265.7 354.727 267.7 353.627C269.8 352.527 272.3 350.527 269.7 349.027Z" fill="#92B4D1"/>
<path d="M269.701 346.327C271.101 348.927 270.101 352.327 267.501 353.727C264.901 355.127 261.501 354.127 260.101 351.527C258.701 348.927 259.701 345.527 262.301 344.127C264.901 342.727 268.201 343.727 269.701 346.327Z" fill="#001A46"/>
<path d="M252.402 312.127L240.602 318.527L258.202 351.027C259.202 352.927 262.702 353.027 265.902 351.327C269.202 349.527 271.002 346.627 269.902 344.727L252.402 312.127Z" fill="#084C94"/>
<path d="M252.4 312.127C253.4 314.027 251.6 317.027 248.4 318.727C245.1 320.527 241.7 320.327 240.7 318.427C239.7 316.527 241.5 313.527 244.7 311.827C247.9 310.127 251.4 310.227 252.4 312.127Z" fill="#2672AB"/>
<path d="M244.701 303.427L237.701 307.227L242.701 316.527C243.301 317.627 245.401 317.727 247.301 316.727C249.201 315.727 250.301 313.927 249.701 312.827L244.701 303.427Z" fill="#001A46"/>
<path d="M224.901 229.027C216.201 224.027 208.201 223.427 202.401 226.527C202.201 226.627 193.901 231.227 193.701 231.627C199.601 227.127 208.301 227.227 218.101 232.827C235.901 243.127 250.301 267.927 250.301 288.327C250.301 298.727 246.501 305.927 240.501 309.227C240.901 309.127 241.401 308.927 242.101 308.527C242.301 308.427 247.901 305.027 248.101 304.927C253.701 301.527 257.101 294.427 257.101 284.527C257.001 264.127 242.601 239.327 224.901 229.027Z" fill="#72B5E8"/>
<path d="M218.1 232.927C200.3 222.627 185.9 230.927 185.9 251.227C185.9 271.627 200.3 296.427 218.1 306.727C235.9 317.027 250.3 308.727 250.3 288.427C250.3 268.127 235.8 243.227 218.1 232.927ZM217.6 301.927C202.5 293.227 190.3 272.127 190.3 254.827C190.3 237.527 202.5 230.527 217.6 239.227C232.7 247.927 244.9 269.027 244.9 286.327C244.9 303.627 232.6 310.627 217.6 301.927Z" fill="#D1EBFF"/>
<path d="M223.201 298.727C208.101 290.027 195.901 268.927 195.901 251.627C195.901 244.527 197.901 239.227 201.401 236.027C194.701 237.827 190.301 244.527 190.301 254.827C190.301 272.127 202.501 293.227 217.601 301.927C226.501 307.127 234.501 306.727 239.401 302.027C234.901 303.227 229.301 302.227 223.201 298.727Z" fill="#72B5E8"/>
<path d="M219.6 232.127C211.1 227.227 203.3 226.527 197.6 229.427C203 227.927 210.9 228.727 218.1 232.927C235.9 243.227 250.3 268.027 250.3 288.427C250.3 299.027 245.2 306.627 238.9 309.827C246.8 307.627 251.8 299.827 251.8 287.727C251.8 267.227 237.4 242.427 219.6 232.127Z" fill="white"/>
<defs>
<linearGradient id="paint0_linear_619_919" x1="312.5" y1="0" x2="312.5" y2="500" gradientUnits="userSpaceOnUse">
<stop stop-color="#0160E7"/>
<stop offset="1" stop-color="#013681"/>
</linearGradient>
</defs>
</svg>
