<svg width="625" height="500" viewBox="0 0 625 500" fill="none" xmlns="http://www.w3.org/2000/svg">
<path opacity="0.1" d="M3.87593 224.102C-14.9808 149.977 39.5345 115.057 69.1492 106.863C93.3239 101.19 164.519 81.1455 255.901 46.3518C347.284 11.5581 428.15 4.12028 457.161 4.7506C650.079 -34.5814 637.871 179.98 607.652 292.177C546.73 529.682 321.175 515.941 216.012 479.382C68.0596 453.665 12.9411 298.48 3.87593 224.102Z" fill="#0160E7"/>
<path d="M329.489 375.365C428.795 375.365 509.299 365.728 509.299 353.841C509.299 341.953 428.795 332.316 329.489 332.316C230.183 332.316 149.68 341.953 149.68 353.841C149.68 365.728 230.183 375.365 329.489 375.365Z" fill="#D9E4F5"/>
<path d="M237.026 102.448C237.026 103.298 236.68 104.073 236.115 104.633C235.558 105.197 234.783 105.544 233.933 105.544H167.745C166.045 105.544 164.652 104.151 164.652 102.448C164.652 101.598 164.999 100.823 165.563 100.263C166.12 99.6985 166.896 99.3519 167.745 99.3519H170.874C172.109 96.4807 174.963 94.4736 178.284 94.4736C180.519 94.4736 182.54 95.3845 184.004 96.8523C185.954 93.545 189.55 91.3244 193.668 91.3244C194.801 91.3244 195.89 91.496 196.918 91.8064C199.072 87.7567 203.329 85 208.235 85C214.128 85 219.085 88.9787 220.581 94.3922C221.667 93.8497 222.891 93.5386 224.191 93.5386C227.866 93.5386 230.966 95.9922 231.941 99.3519H233.933C235.633 99.3519 237.026 100.745 237.026 102.448Z" fill="#D9E4F5"/>
<path d="M475.104 103.918C475.104 104.768 474.758 105.543 474.193 106.103C473.636 106.668 472.861 107.014 472.011 107.014H405.823C404.123 107.014 402.73 105.621 402.73 103.918C402.73 103.068 403.077 102.293 403.641 101.733C404.198 101.169 404.973 100.822 405.823 100.822H408.952C410.187 97.9509 413.041 95.9438 416.362 95.9438C418.597 95.9438 420.619 96.8547 422.083 98.3225C424.033 95.0153 427.629 92.7946 431.747 92.7946C432.879 92.7946 433.969 92.9663 434.997 93.2766C437.15 89.2269 441.407 86.4702 446.314 86.4702C452.206 86.4702 457.164 90.4489 458.66 95.8624C459.746 95.32 460.97 95.0088 462.27 95.0088C465.945 95.0088 469.045 97.4625 470.02 100.823H472.012C473.711 100.822 475.104 102.215 475.104 103.918Z" fill="#D9E4F5"/>
<path d="M367.337 124.643C367.337 125.493 366.99 126.268 366.426 126.828C365.869 127.392 365.094 127.739 364.244 127.739H298.056C296.356 127.739 294.963 126.346 294.963 124.643C294.963 123.793 295.31 123.018 295.874 122.458C296.431 121.893 297.206 121.547 298.056 121.547H301.184C302.42 118.676 305.273 116.669 308.594 116.669C310.829 116.669 312.851 117.579 314.316 119.047C316.265 115.74 319.861 113.519 323.979 113.519C325.111 113.519 326.201 113.691 327.229 114.001C329.382 109.952 333.64 107.195 338.547 107.195C344.439 107.195 349.396 111.174 350.892 116.587C351.978 116.044 353.202 115.733 354.503 115.733C358.177 115.733 361.278 118.187 362.252 121.548H364.245C365.944 121.547 367.337 122.94 367.337 124.643Z" fill="#D9E4F5"/>
<path d="M451.311 247.181C455.106 240.397 462.366 226.154 465.488 211.446C470.153 189.469 480.546 188.501 484.344 194.793C494.773 212.072 466.536 241.693 457.562 250.433L451.311 247.181Z" fill="#C7D9ED"/>
<path d="M453.691 248.419C460.644 239.548 465.918 229.819 469.335 222.641C473.874 213.109 476.208 205.895 476.231 205.822C476.314 205.563 476.592 205.421 476.852 205.504C477.111 205.587 477.255 205.865 477.17 206.124C477.148 206.197 474.796 213.461 470.233 223.05C466.812 230.241 461.536 239.976 454.581 248.882L453.691 248.419Z" fill="#B4CAE3"/>
<path d="M202.29 311.954C198.808 305.004 192.205 290.445 189.757 275.609C186.099 253.442 175.761 252.001 171.681 258.113C160.474 274.898 187.33 305.776 195.897 314.917L202.29 311.954Z" fill="#C7D9ED"/>
<path d="M199.856 313.082C193.315 303.903 188.49 293.945 185.404 286.618C181.305 276.888 179.302 269.576 179.282 269.502C179.211 269.24 178.939 269.084 178.677 269.157C178.414 269.227 178.258 269.498 178.33 269.761C178.349 269.835 180.367 277.199 184.487 286.985C187.578 294.325 192.404 304.29 198.945 313.504L199.856 313.082Z" fill="#B4CAE3"/>
<path d="M210.794 332.159C203.276 324.581 186.853 306.819 176.507 286.654C161.659 257.714 146.77 260.3 143.849 270.531C136.293 296.989 180.797 325.744 199.25 336.365L210.794 332.159Z" fill="#D9E4F5"/>
<path d="M206.73 333.64C193.773 323.923 182.819 312.428 175.376 303.754C165.422 292.155 159.426 282.96 159.366 282.868C159.151 282.538 158.709 282.444 158.378 282.66C158.047 282.873 157.953 283.316 158.169 283.646C158.227 283.739 164.266 292.998 174.276 304.667C181.629 313.239 192.39 324.547 205.132 334.223L206.73 333.64Z" fill="#C7D9ED"/>
<path d="M445.971 260.966C453.827 253.739 471.042 236.745 482.298 217.072C498.45 188.84 513.206 192.103 515.657 202.456C521.998 229.231 476.23 255.926 457.312 265.695L445.971 260.966Z" fill="#D9E4F5"/>
<path d="M449.963 262.631C463.349 253.515 474.816 242.532 482.647 234.206C493.119 223.073 499.528 214.162 499.593 214.071C499.822 213.751 500.268 213.678 500.589 213.908C500.911 214.137 500.985 214.583 500.754 214.904C500.692 214.993 494.237 223.967 483.705 235.167C475.969 243.395 464.703 254.201 451.533 263.285L449.963 262.631Z" fill="#C7D9ED"/>
<path d="M219.952 217.007C212.171 212.371 194.918 201.251 182.15 186.87C163.826 166.232 152.139 171.507 151.903 180.532C151.293 203.871 193.945 218.083 211.356 222.906L219.952 217.007Z" fill="#D9E4F5"/>
<path d="M216.926 219.083C204.223 213.841 192.79 206.713 184.838 201.16C174.205 193.735 167.333 187.449 167.264 187.385C167.018 187.159 166.634 187.175 166.408 187.423C166.181 187.669 166.197 188.052 166.445 188.278C166.512 188.342 173.433 194.672 184.127 202.142C191.982 207.63 203.218 214.645 215.735 219.9L216.926 219.083Z" fill="#C7D9ED"/>
<path d="M261.877 127.772C263.17 115.672 262.164 103.977 256.142 106.862C250.114 109.749 252.227 129.841 260.422 143.094L262.131 148.269C256.328 138.506 244.747 130.235 239.995 133.327C235.272 136.398 243.48 141.204 251.709 144.343C257.973 146.732 261.527 149.732 263.177 151.432L271.252 175.873C262.017 160.439 243.725 147.404 236.204 152.296C228.71 157.17 241.735 164.795 254.792 169.776C264.659 173.539 270.292 178.26 272.935 180.967L274.545 185.841C275.434 185.694 276.321 185.542 277.208 185.385L267.601 156.307C268.247 153.811 269.527 150.393 272.064 146.419C276.804 138.995 280.534 130.246 274.911 130.592C270.03 130.892 266.105 141.004 265.858 151.028L262.535 140.971C262.038 137.684 261.32 132.994 261.877 127.772Z" fill="#C7D9ED"/>
<path d="M495.922 261.397C499.188 249.674 504.441 239.178 508.973 244.081C513.508 248.989 504.127 266.882 491.618 276.173L488.119 280.35C497.117 273.421 510.933 270.009 514.209 274.638C517.464 279.236 508.061 280.672 499.255 280.55C492.551 280.458 488.142 281.934 485.98 282.904L469.452 302.636C483.732 291.703 505.544 286.342 510.727 293.664C515.893 300.961 500.973 303.239 486.999 303.046C476.44 302.901 469.463 305.209 466.006 306.748L462.711 310.682C461.939 310.218 461.17 309.749 460.404 309.276L480.068 285.799C480.39 283.241 480.462 279.592 479.572 274.962C477.908 266.313 477.672 256.805 482.77 259.203C487.195 261.284 487.109 272.13 483.638 281.537L490.438 273.418C492.113 270.55 494.513 266.456 495.922 261.397Z" fill="#D9E4F5"/>
<path d="M478.64 171.205C476.48 171.205 474.723 169.448 474.723 167.288C474.723 165.127 476.48 163.37 478.64 163.37C480.8 163.37 482.558 165.127 482.558 167.288C482.558 169.448 480.8 171.205 478.64 171.205ZM478.64 164.599C477.158 164.599 475.952 165.805 475.952 167.288C475.952 168.77 477.158 169.976 478.64 169.976C480.122 169.976 481.328 168.77 481.328 167.288C481.329 165.805 480.122 164.599 478.64 164.599Z" fill="#007EFF"/>
<path d="M498.552 175.191C496.392 175.191 494.635 173.434 494.635 171.274C494.635 169.113 496.392 167.356 498.552 167.356C500.712 167.356 502.47 169.113 502.47 171.274C502.47 173.434 500.712 175.191 498.552 175.191ZM498.552 168.585C497.07 168.585 495.864 169.79 495.864 171.273C495.864 172.755 497.07 173.961 498.552 173.961C500.035 173.961 501.24 172.755 501.24 171.273C501.241 169.79 500.035 168.585 498.552 168.585Z" fill="#0060E6"/>
<path d="M507.985 183.19C507.646 183.19 507.371 182.915 507.371 182.575V179.865C507.371 179.526 507.646 179.251 507.985 179.251C508.325 179.251 508.6 179.526 508.6 179.865V182.575C508.6 182.915 508.325 183.19 507.985 183.19Z" fill="#007EFF"/>
<path d="M507.985 187.932C507.646 187.932 507.371 187.657 507.371 187.318V184.608C507.371 184.269 507.646 183.994 507.985 183.994C508.325 183.994 508.6 184.269 508.6 184.608V187.318C508.6 187.657 508.325 187.932 507.985 187.932Z" fill="#007EFF"/>
<path d="M511.792 184.206H509.357C509.018 184.206 508.742 183.93 508.742 183.591C508.742 183.252 509.017 182.977 509.357 182.977H511.792C512.131 182.977 512.406 183.252 512.406 183.591C512.406 183.93 512.131 184.206 511.792 184.206Z" fill="#007EFF"/>
<path d="M506.619 184.206H504.185C503.845 184.206 503.57 183.93 503.57 183.591C503.57 183.252 503.845 182.977 504.185 182.977H506.619C506.958 182.977 507.233 183.252 507.233 183.591C507.233 183.93 506.958 184.206 506.619 184.206Z" fill="#007EFF"/>
<path d="M487.063 178.771C486.724 178.771 486.449 178.496 486.449 178.157V175.447C486.449 175.107 486.725 174.832 487.063 174.832C487.403 174.832 487.678 175.107 487.678 175.447V178.157C487.678 178.495 487.404 178.771 487.063 178.771Z" fill="#0060E6"/>
<path d="M487.063 183.513C486.724 183.513 486.449 183.238 486.449 182.898V180.188C486.449 179.848 486.725 179.574 487.063 179.574C487.403 179.574 487.678 179.848 487.678 180.188V182.898C487.678 183.238 487.404 183.513 487.063 183.513Z" fill="#0060E6"/>
<path d="M490.865 179.786H488.431C488.091 179.786 487.816 179.511 487.816 179.172C487.816 178.833 488.091 178.558 488.431 178.558H490.865C491.204 178.558 491.479 178.833 491.479 179.172C491.479 179.511 491.203 179.786 490.865 179.786Z" fill="#0060E6"/>
<path d="M485.693 179.786H483.259C482.919 179.786 482.645 179.511 482.645 179.172C482.645 178.833 482.919 178.558 483.259 178.558H485.693C486.032 178.558 486.307 178.833 486.307 179.172C486.307 179.511 486.032 179.786 485.693 179.786Z" fill="#0060E6"/>
<path d="M159.579 245.256C159.579 247.416 157.822 249.174 155.662 249.174C153.501 249.174 151.744 247.416 151.744 245.256C151.744 243.096 153.501 241.339 155.662 241.339C157.822 241.339 159.579 243.097 159.579 245.256ZM152.973 245.256C152.973 246.738 154.178 247.944 155.661 247.944C157.143 247.944 158.349 246.738 158.349 245.256C158.349 243.774 157.143 242.568 155.661 242.568C154.178 242.568 152.973 243.774 152.973 245.256Z" fill="#007EFF"/>
<path d="M163.565 225.346C163.565 227.506 161.808 229.263 159.648 229.263C157.488 229.263 155.73 227.506 155.73 225.346C155.73 223.185 157.488 221.428 159.648 221.428C161.808 221.428 163.565 223.185 163.565 225.346ZM156.96 225.346C156.96 226.828 158.166 228.034 159.648 228.034C161.13 228.034 162.336 226.828 162.336 225.346C162.336 223.863 161.13 222.657 159.648 222.657C158.166 222.657 156.96 223.863 156.96 225.346Z" fill="#0060E6"/>
<path d="M171.563 215.911C171.563 216.251 171.289 216.526 170.949 216.526H168.239C167.9 216.526 167.625 216.251 167.625 215.911C167.625 215.572 167.9 215.297 168.239 215.297H170.949C171.288 215.297 171.563 215.572 171.563 215.911Z" fill="#007EFF"/>
<path d="M176.306 215.912C176.306 216.251 176.031 216.526 175.691 216.526H172.981C172.642 216.526 172.367 216.251 172.367 215.912C172.367 215.572 172.642 215.297 172.981 215.297H175.691C176.031 215.297 176.306 215.572 176.306 215.912Z" fill="#007EFF"/>
<path d="M172.578 212.108V214.542C172.578 214.881 172.303 215.156 171.964 215.156C171.624 215.156 171.35 214.881 171.35 214.542V212.108C171.35 211.768 171.624 211.493 171.964 211.493C172.303 211.493 172.578 211.768 172.578 212.108Z" fill="#007EFF"/>
<path d="M172.578 217.281V219.715C172.578 220.055 172.303 220.329 171.964 220.329C171.624 220.329 171.35 220.055 171.35 219.715V217.281C171.35 216.942 171.624 216.667 171.964 216.667C172.303 216.666 172.578 216.942 172.578 217.281Z" fill="#007EFF"/>
<path d="M167.145 236.835C167.145 237.175 166.871 237.449 166.531 237.449H163.821C163.482 237.449 163.207 237.175 163.207 236.835C163.207 236.496 163.482 236.221 163.821 236.221H166.531C166.871 236.221 167.145 236.496 167.145 236.835Z" fill="#0060E6"/>
<path d="M171.889 236.835C171.889 237.175 171.614 237.449 171.274 237.449H168.564C168.225 237.449 167.949 237.175 167.949 236.835C167.949 236.496 168.224 236.221 168.564 236.221H171.274C171.614 236.221 171.889 236.496 171.889 236.835Z" fill="#0060E6"/>
<path d="M168.162 233.032V235.466C168.162 235.805 167.887 236.08 167.548 236.08C167.208 236.08 166.934 235.805 166.934 235.466V233.032C166.934 232.692 167.208 232.417 167.548 232.417C167.887 232.417 168.162 232.692 168.162 233.032Z" fill="#0060E6"/>
<path d="M168.162 238.205V240.639C168.162 240.978 167.887 241.253 167.548 241.253C167.208 241.253 166.934 240.978 166.934 240.639V238.205C166.934 237.865 167.208 237.591 167.548 237.591C167.887 237.591 168.162 237.865 168.162 238.205Z" fill="#0060E6"/>
<path d="M183.907 135.073C183.743 134.241 183.415 133.436 182.927 132.718C182.604 132.238 182.21 131.797 181.749 131.411C179.029 129.133 174.974 129.495 172.702 132.219C170.951 134.321 170.771 137.213 172.032 139.465L164.804 148.135C164.192 148.87 164.29 149.964 165.026 150.578L165.856 151.27C166.299 151.64 166.788 151.948 167.31 152.189C167.829 152.429 168.381 152.603 168.951 152.702C169.337 152.77 169.686 152.615 169.905 152.35C170.124 152.088 170.215 151.717 170.08 151.347L169.47 149.69L171.209 149.992C171.595 150.061 171.944 149.905 172.164 149.642C172.382 149.379 172.472 149.008 172.339 148.638L171.728 146.982L173.468 147.283C173.854 147.351 174.202 147.196 174.423 146.932C174.641 146.669 174.733 146.298 174.598 145.928L173.987 144.274L175.55 142.398C176.575 142.749 177.663 142.83 178.712 142.651C180.224 142.393 181.653 141.593 182.681 140.281C182.785 140.149 182.883 140.014 182.973 139.875C183.087 139.707 183.19 139.533 183.283 139.356C183.994 138.026 184.192 136.506 183.907 135.073ZM177.054 133.568C177.842 132.621 179.247 132.493 180.192 133.281C180.326 133.393 180.444 133.515 180.543 133.649C181.155 134.456 181.153 135.608 180.477 136.419C180.405 136.504 180.329 136.584 180.247 136.656C180.047 136.835 179.82 136.972 179.579 137.066C179.544 137.08 179.508 137.093 179.471 137.105C179.306 137.16 179.137 137.195 178.966 137.21C178.914 137.216 178.862 137.218 178.811 137.219C178.76 137.221 178.707 137.221 178.655 137.217C178.61 137.216 178.564 137.212 178.517 137.205C178.469 137.2 178.422 137.194 178.374 137.185C178.371 137.185 178.366 137.184 178.361 137.184C178.32 137.176 178.28 137.167 178.241 137.156C178.207 137.15 178.174 137.141 178.141 137.13C178.11 137.122 178.079 137.113 178.05 137.101C178.004 137.088 177.959 137.071 177.915 137.051C177.854 137.026 177.793 136.999 177.735 136.968C177.596 136.897 177.463 136.807 177.338 136.703C176.48 135.987 176.297 134.76 176.862 133.834C176.919 133.742 176.982 133.652 177.054 133.568Z" fill="#00A0FF"/>
<path d="M173.236 142.854C173.36 142.957 173.377 143.143 173.273 143.266L167.595 150.077C167.492 150.201 167.306 150.218 167.183 150.114C167.059 150.011 167.043 149.826 167.146 149.702L172.824 142.891C172.928 142.768 173.113 142.751 173.236 142.854Z" fill="#007EFF"/>
<path d="M171.963 141.793C172.086 141.897 172.103 142.082 172 142.205L166.321 149.016C166.218 149.14 166.033 149.157 165.909 149.054C165.786 148.95 165.769 148.765 165.872 148.642L171.552 141.83C171.654 141.707 171.84 141.69 171.963 141.793Z" fill="#007EFF"/>
<path d="M180.247 136.656C180.19 136.748 180.127 136.839 180.056 136.924C179.479 137.617 178.568 137.87 177.753 137.645C177.455 137.563 177.171 137.419 176.918 137.208C175.973 136.419 175.846 135.015 176.634 134.069C176.706 133.984 176.781 133.906 176.863 133.834C176.298 134.76 176.48 135.987 177.338 136.703C177.463 136.807 177.597 136.897 177.736 136.968C177.794 136.999 177.855 137.026 177.916 137.051C177.96 137.071 178.005 137.087 178.05 137.101C178.079 137.112 178.111 137.122 178.141 137.13C178.174 137.141 178.207 137.15 178.242 137.156C178.282 137.167 178.322 137.176 178.362 137.184C178.367 137.184 178.372 137.186 178.375 137.185C178.423 137.193 178.47 137.201 178.518 137.205C178.564 137.212 178.61 137.216 178.656 137.217C178.706 137.22 178.76 137.22 178.812 137.219C178.863 137.219 178.915 137.216 178.967 137.21C179.138 137.195 179.307 137.16 179.471 137.105C179.508 137.093 179.545 137.08 179.579 137.066C179.819 136.972 180.046 136.835 180.247 136.656Z" fill="#007EFF"/>
<path d="M181.906 137.505C181.895 137.397 181.893 137.288 181.897 137.175C181.956 136.058 182.827 135.176 183.907 135.073C183.743 134.241 183.414 133.436 182.927 132.718C182.063 132.865 181.254 133.187 180.542 133.649C181.155 134.456 181.153 135.608 180.476 136.419C180.405 136.504 180.329 136.584 180.247 136.656C180.047 136.835 179.82 136.972 179.578 137.066C179.544 137.08 179.507 137.093 179.47 137.105C179.306 137.16 179.137 137.195 178.966 137.21C178.914 137.216 178.862 137.218 178.811 137.219C178.758 137.22 178.705 137.22 178.655 137.217C178.61 137.216 178.564 137.212 178.517 137.205C178.469 137.2 178.422 137.194 178.374 137.185C178.371 137.185 178.366 137.184 178.361 137.184C178.32 137.176 178.28 137.167 178.241 137.156C178.207 137.15 178.173 137.141 178.14 137.13C178.11 137.122 178.078 137.113 178.049 137.101C178.004 137.088 177.959 137.071 177.915 137.051C177.851 137.244 177.797 137.443 177.752 137.644C177.677 137.988 177.628 138.342 177.608 138.705C177.533 140.161 177.949 141.53 178.712 142.649C180.224 142.391 181.653 141.591 182.681 140.28C182.785 140.147 182.882 140.013 182.973 139.873C183.087 139.705 183.19 139.532 183.283 139.354C182.526 139.047 181.984 138.339 181.906 137.505Z" fill="#007EFF"/>
<path d="M191.801 139.527C191.876 136.092 189.169 133.174 185.737 132.986C182.193 132.793 179.166 135.514 178.982 139.057C178.839 141.788 180.428 144.212 182.789 145.257L182.2 156.53C182.15 157.486 182.885 158.303 183.841 158.353L184.921 158.41C185.498 158.439 186.074 158.393 186.635 158.273C187.196 158.153 187.742 157.962 188.256 157.699C188.607 157.521 188.792 157.188 188.81 156.846C188.828 156.504 188.678 156.153 188.348 155.937L186.867 154.977L188.44 154.177C188.79 154 188.976 153.667 188.994 153.325C189.011 152.983 188.861 152.632 188.532 152.416L187.051 151.456L188.624 150.654C188.974 150.476 189.16 150.144 189.177 149.801C189.195 149.459 189.045 149.108 188.716 148.892L187.235 147.934L187.362 145.496C189.878 144.683 191.738 142.349 191.801 139.527ZM187.678 138.085C187.465 139.148 186.496 139.925 185.379 139.866C184.263 139.808 183.38 138.935 183.279 137.855C183.268 137.746 183.265 137.637 183.271 137.525C183.335 136.296 184.382 135.351 185.611 135.415C186.841 135.48 187.785 136.528 187.72 137.757C187.714 137.869 187.7 137.978 187.678 138.085Z" fill="#00A0FF"/>
<path d="M185.783 147.248C185.943 147.256 186.068 147.395 186.06 147.555L185.598 156.411C185.59 156.572 185.451 156.697 185.291 156.688C185.13 156.68 185.005 156.541 185.014 156.381L185.476 147.525C185.485 147.364 185.623 147.24 185.783 147.248Z" fill="#007EFF"/>
<path d="M184.129 147.162C184.289 147.17 184.414 147.309 184.405 147.469L183.943 156.325C183.935 156.486 183.797 156.61 183.636 156.602C183.476 156.594 183.351 156.455 183.36 156.294L183.822 147.438C183.83 147.278 183.968 147.154 184.129 147.162Z" fill="#007EFF"/>
<path d="M187.685 138.414C187.621 139.643 186.572 140.586 185.344 140.522C184.115 140.458 183.171 139.411 183.236 138.181C183.241 138.07 183.256 137.961 183.277 137.856C183.379 138.935 184.262 139.809 185.378 139.867C186.495 139.925 187.463 139.149 187.677 138.086C187.688 138.193 187.691 138.302 187.685 138.414Z" fill="#007EFF"/>
<path d="M187.064 124.586C183.328 122.996 178.996 124.74 177.405 128.475C177.2 128.959 177.049 129.453 176.953 129.95C177.879 129.851 178.827 129.953 179.724 130.264C179.781 130.028 179.859 129.793 179.957 129.561C180.949 127.234 183.65 126.147 185.978 127.138C188.306 128.13 189.394 130.83 188.403 133.158C188.335 133.318 188.258 133.472 188.174 133.621C189.025 134.036 189.772 134.634 190.362 135.361C190.588 135.013 190.787 134.639 190.955 134.245C192.545 130.509 190.799 126.177 187.064 124.586ZM186.135 135.509C185.489 135.814 184.774 135.968 184.046 135.949C184.038 135.948 184.03 135.948 184.02 135.947C183.471 135.929 182.916 135.811 182.38 135.583C181.864 135.363 181.407 135.057 181.021 134.691C181.001 134.672 180.982 134.653 180.963 134.635C180.515 134.193 180.166 133.667 179.932 133.095C179.038 132.543 177.858 132.693 177.13 133.479C177.538 134.831 178.329 136.06 179.434 136.993C179.47 137.022 179.504 137.051 179.541 137.08C179.606 137.133 179.671 137.184 179.739 137.235C180.21 137.591 180.729 137.895 181.295 138.136C181.938 138.41 182.6 138.584 183.262 138.668C183.351 138.678 183.44 138.688 183.53 138.696C183.548 138.697 183.568 138.7 183.587 138.7C185.031 138.817 186.467 138.498 187.714 137.817C187.717 137.798 187.717 137.779 187.719 137.761C187.773 136.712 187.097 135.796 186.135 135.509Z" fill="#3B3E7D"/>
<path d="M156.552 163.165H154.862C154.423 163.165 154.066 162.809 154.066 162.37V160.679C154.066 160.24 154.423 159.884 154.862 159.884C155.301 159.884 155.658 160.24 155.658 160.679V161.574H156.552C156.992 161.574 157.348 161.93 157.348 162.37C157.348 162.809 156.992 163.165 156.552 163.165Z" fill="#B4CAE3"/>
<path d="M202.27 163.165H198.906C198.466 163.165 198.11 162.809 198.11 162.37C198.11 161.93 198.466 161.574 198.906 161.574H202.27C202.71 161.574 203.066 161.93 203.066 162.37C203.066 162.809 202.71 163.165 202.27 163.165ZM195.739 163.165H192.374C191.935 163.165 191.579 162.809 191.579 162.37C191.579 161.93 191.935 161.574 192.374 161.574H195.739C196.178 161.574 196.534 161.93 196.534 162.37C196.534 162.809 196.178 163.165 195.739 163.165ZM189.207 163.165H185.843C185.403 163.165 185.047 162.809 185.047 162.37C185.047 161.93 185.403 161.574 185.843 161.574H189.207C189.646 161.574 190.003 161.93 190.003 162.37C190.003 162.809 189.646 163.165 189.207 163.165ZM182.676 163.165H179.311C178.872 163.165 178.516 162.809 178.516 162.37C178.516 161.93 178.872 161.574 179.311 161.574H182.676C183.115 161.574 183.471 161.93 183.471 162.37C183.471 162.809 183.115 163.165 182.676 163.165ZM176.144 163.165H172.78C172.34 163.165 171.984 162.809 171.984 162.37C171.984 161.93 172.34 161.574 172.78 161.574H176.144C176.583 161.574 176.94 161.93 176.94 162.37C176.94 162.809 176.583 163.165 176.144 163.165ZM169.613 163.165H166.249C165.81 163.165 165.453 162.809 165.453 162.37C165.453 161.93 165.81 161.574 166.249 161.574H169.613C170.053 161.574 170.409 161.93 170.409 162.37C170.408 162.809 170.052 163.165 169.613 163.165ZM163.082 163.165H159.717C159.278 163.165 158.922 162.809 158.922 162.37C158.922 161.93 159.278 161.574 159.717 161.574H163.082C163.521 161.574 163.878 161.93 163.878 162.37C163.877 162.809 163.521 163.165 163.082 163.165Z" fill="#B4CAE3"/>
<path d="M207.127 163.165H205.436C204.997 163.165 204.641 162.809 204.641 162.37C204.641 161.93 204.997 161.574 205.436 161.574H206.331V160.679C206.331 160.24 206.687 159.884 207.127 159.884C207.566 159.884 207.922 160.24 207.922 160.679V162.37C207.922 162.809 207.566 163.165 207.127 163.165Z" fill="#B4CAE3"/>
<path d="M207.128 158.43C206.688 158.43 206.332 158.073 206.332 157.634V154.399C206.332 153.959 206.688 153.603 207.128 153.603C207.567 153.603 207.923 153.959 207.923 154.399V157.634C207.923 158.074 207.567 158.43 207.128 158.43ZM207.128 152.15C206.688 152.15 206.332 151.793 206.332 151.354V148.119C206.332 147.679 206.688 147.323 207.128 147.323C207.567 147.323 207.923 147.679 207.923 148.119V151.354C207.923 151.793 207.567 152.15 207.128 152.15ZM207.128 145.869C206.688 145.869 206.332 145.513 206.332 145.073V141.838C206.332 141.398 206.688 141.042 207.128 141.042C207.567 141.042 207.923 141.398 207.923 141.838V145.073C207.923 145.513 207.567 145.869 207.128 145.869ZM207.128 139.589C206.688 139.589 206.332 139.233 206.332 138.793V135.558C206.332 135.118 206.688 134.762 207.128 134.762C207.567 134.762 207.923 135.118 207.923 135.558V138.793C207.923 139.233 207.567 139.589 207.128 139.589ZM207.128 133.308C206.688 133.308 206.332 132.952 206.332 132.512V129.277C206.332 128.838 206.688 128.481 207.128 128.481C207.567 128.481 207.923 128.838 207.923 129.277V132.512C207.923 132.952 207.567 133.308 207.128 133.308ZM207.128 127.028C206.688 127.028 206.332 126.672 206.332 126.232V122.997C206.332 122.558 206.688 122.201 207.128 122.201C207.567 122.201 207.923 122.558 207.923 122.997V126.232C207.923 126.672 207.567 127.028 207.128 127.028Z" fill="#B4CAE3"/>
<path d="M207.127 120.747C206.687 120.747 206.331 120.391 206.331 119.952V119.057H205.436C204.997 119.057 204.641 118.701 204.641 118.261C204.641 117.822 204.997 117.466 205.436 117.466H207.127C207.566 117.466 207.922 117.822 207.922 118.261V119.952C207.922 120.391 207.566 120.747 207.127 120.747Z" fill="#B4CAE3"/>
<path d="M202.27 119.057H198.906C198.466 119.057 198.11 118.701 198.11 118.261C198.11 117.822 198.466 117.466 198.906 117.466H202.27C202.71 117.466 203.066 117.822 203.066 118.261C203.066 118.701 202.71 119.057 202.27 119.057ZM195.739 119.057H192.374C191.935 119.057 191.579 118.701 191.579 118.261C191.579 117.822 191.935 117.466 192.374 117.466H195.739C196.178 117.466 196.534 117.822 196.534 118.261C196.534 118.701 196.178 119.057 195.739 119.057ZM189.207 119.057H185.843C185.403 119.057 185.047 118.701 185.047 118.261C185.047 117.822 185.403 117.466 185.843 117.466H189.207C189.646 117.466 190.003 117.822 190.003 118.261C190.003 118.701 189.646 119.057 189.207 119.057ZM182.676 119.057H179.311C178.872 119.057 178.516 118.701 178.516 118.261C178.516 117.822 178.872 117.466 179.311 117.466H182.676C183.115 117.466 183.471 117.822 183.471 118.261C183.471 118.701 183.115 119.057 182.676 119.057ZM176.144 119.057H172.78C172.34 119.057 171.984 118.701 171.984 118.261C171.984 117.822 172.34 117.466 172.78 117.466H176.144C176.583 117.466 176.94 117.822 176.94 118.261C176.94 118.701 176.583 119.057 176.144 119.057ZM169.613 119.057H166.249C165.81 119.057 165.453 118.701 165.453 118.261C165.453 117.822 165.81 117.466 166.249 117.466H169.613C170.053 117.466 170.409 117.822 170.409 118.261C170.408 118.701 170.052 119.057 169.613 119.057ZM163.082 119.057H159.717C159.278 119.057 158.922 118.701 158.922 118.261C158.922 117.822 159.278 117.466 159.717 117.466H163.082C163.521 117.466 163.878 117.822 163.878 118.261C163.877 118.701 163.521 119.057 163.082 119.057Z" fill="#B4CAE3"/>
<path d="M154.862 120.747C154.423 120.747 154.066 120.391 154.066 119.952V118.261C154.066 117.822 154.423 117.466 154.862 117.466H156.552C156.992 117.466 157.348 117.822 157.348 118.261C157.348 118.701 156.992 119.057 156.552 119.057H155.658V119.952C155.658 120.391 155.301 120.747 154.862 120.747Z" fill="#B4CAE3"/>
<path d="M154.862 158.43C154.423 158.43 154.066 158.073 154.066 157.634V154.399C154.066 153.959 154.423 153.603 154.862 153.603C155.301 153.603 155.658 153.959 155.658 154.399V157.634C155.658 158.074 155.301 158.43 154.862 158.43ZM154.862 152.15C154.423 152.15 154.066 151.793 154.066 151.354V148.119C154.066 147.679 154.423 147.323 154.862 147.323C155.301 147.323 155.658 147.679 155.658 148.119V151.354C155.658 151.793 155.301 152.15 154.862 152.15ZM154.862 145.869C154.423 145.869 154.066 145.513 154.066 145.073V141.838C154.066 141.398 154.423 141.042 154.862 141.042C155.301 141.042 155.658 141.398 155.658 141.838V145.073C155.658 145.513 155.301 145.869 154.862 145.869ZM154.862 139.589C154.423 139.589 154.066 139.233 154.066 138.793V135.558C154.066 135.118 154.423 134.762 154.862 134.762C155.301 134.762 155.658 135.118 155.658 135.558V138.793C155.658 139.233 155.301 139.589 154.862 139.589ZM154.862 133.308C154.423 133.308 154.066 132.952 154.066 132.512V129.277C154.066 128.838 154.423 128.481 154.862 128.481C155.301 128.481 155.658 128.838 155.658 129.277V132.512C155.658 132.952 155.301 133.308 154.862 133.308ZM154.862 127.028C154.423 127.028 154.066 126.672 154.066 126.232V122.997C154.066 122.558 154.423 122.201 154.862 122.201C155.301 122.201 155.658 122.558 155.658 122.997V126.232C155.658 126.672 155.301 127.028 154.862 127.028Z" fill="#B4CAE3"/>
<path d="M229.665 174.062C229.225 174.062 228.869 173.706 228.869 173.267V169.887C228.869 169.448 229.225 169.091 229.665 169.091C230.104 169.091 230.46 169.448 230.46 169.887V173.267C230.46 173.706 230.104 174.062 229.665 174.062ZM229.665 167.501C229.225 167.501 228.869 167.145 228.869 166.706V163.326C228.869 162.886 229.225 162.53 229.665 162.53C230.104 162.53 230.46 162.886 230.46 163.326V166.706C230.46 167.146 230.104 167.501 229.665 167.501ZM229.665 160.941C229.225 160.941 228.869 160.584 228.869 160.145V156.765C228.869 156.326 229.225 155.97 229.665 155.97C230.104 155.97 230.46 156.326 230.46 156.765V160.145C230.46 160.584 230.104 160.941 229.665 160.941ZM229.665 154.379C229.225 154.379 228.869 154.023 228.869 153.584V150.204C228.869 149.765 229.225 149.408 229.665 149.408C230.104 149.408 230.46 149.765 230.46 150.204V153.584C230.46 154.023 230.104 154.379 229.665 154.379ZM229.665 147.818C229.225 147.818 228.869 147.462 228.869 147.022V143.643C228.869 143.203 229.225 142.847 229.665 142.847C230.104 142.847 230.46 143.203 230.46 143.643V147.022C230.46 147.462 230.104 147.818 229.665 147.818ZM226.936 143.986H223.556C223.117 143.986 222.761 143.63 222.761 143.19C222.761 142.751 223.117 142.395 223.556 142.395H226.936C227.375 142.395 227.732 142.751 227.732 143.19C227.732 143.63 227.375 143.986 226.936 143.986ZM220.375 143.986H216.995C216.556 143.986 216.199 143.63 216.199 143.19C216.199 142.751 216.556 142.395 216.995 142.395H220.375C220.814 142.395 221.17 142.751 221.17 143.19C221.17 143.63 220.814 143.986 220.375 143.986ZM213.813 143.986H210.434C209.994 143.986 209.638 143.63 209.638 143.19C209.638 142.751 209.994 142.395 210.434 142.395H213.813C214.253 142.395 214.609 142.751 214.609 143.19C214.609 143.63 214.253 143.986 213.813 143.986ZM207.253 143.986H207.18C206.741 143.986 206.385 143.63 206.385 143.19C206.385 142.751 206.741 142.395 207.18 142.395H207.253C207.692 142.395 208.048 142.751 208.048 143.19C208.048 143.63 207.692 143.986 207.253 143.986Z" fill="#B4CAE3"/>
<path d="M405.078 139.391L404.943 144.108L409.363 144.235C409.553 145.359 409.933 146.455 410.487 147.484L407.355 150.441L410.595 153.872L413.592 151.042C414.767 151.895 416.079 152.483 417.445 152.796L417.318 157.216L422.035 157.352L422.166 152.796C423.094 152.587 423.997 152.254 424.855 151.792L427.811 154.924L431.243 151.684L428.413 148.688C429.265 147.513 429.854 146.201 430.167 144.835L434.031 144.947L434.167 140.229L430.167 140.114C429.901 138.929 429.436 137.782 428.758 136.726L431.756 133.896L428.517 130.465L425.384 133.422C424.225 132.708 422.959 132.239 421.652 132.012L421.78 127.565L417.063 127.429L416.925 132.25C415.939 132.528 414.987 132.952 414.098 133.523L411.268 130.525L407.836 133.764L410.793 136.896C410.283 137.725 409.897 138.608 409.635 139.523L405.078 139.391ZM416.855 139.309C418.59 137.672 421.332 137.75 422.97 139.485C424.607 141.219 424.529 143.962 422.794 145.6C421.06 147.237 418.317 147.158 416.68 145.424C415.042 143.689 415.121 140.947 416.855 139.309Z" fill="#007EFF"/>
<path d="M420.558 149.272C424.374 148.862 427.136 145.436 426.726 141.619C426.315 137.803 422.889 135.042 419.073 135.452C415.257 135.862 412.495 139.288 412.906 143.105C413.317 146.921 416.742 149.682 420.558 149.272ZM416.857 139.309C418.592 137.672 421.334 137.75 422.972 139.485C424.609 141.219 424.531 143.962 422.796 145.6C421.061 147.237 418.318 147.159 416.681 145.424C415.043 143.689 415.122 140.947 416.857 139.309Z" fill="#0060E6"/>
<path d="M436.119 141.402L436.041 144.141L438.608 144.215C438.718 144.868 438.938 145.504 439.26 146.102L437.441 147.819L439.322 149.811L441.063 148.168C441.745 148.663 442.507 149.004 443.3 149.187L443.226 151.754L445.966 151.832L446.042 149.187C446.581 149.066 447.106 148.871 447.603 148.603L449.32 150.422L451.313 148.541L449.669 146.801C450.164 146.119 450.506 145.356 450.687 144.563L452.931 144.627L453.01 141.888L450.687 141.822C450.532 141.134 450.262 140.467 449.868 139.854L451.609 138.21L449.728 136.218L447.909 137.935C447.236 137.52 446.5 137.248 445.741 137.116L445.816 134.533L443.077 134.455L442.997 137.254C442.424 137.416 441.871 137.661 441.355 137.994L439.712 136.252L437.719 138.134L439.436 139.952C439.14 140.434 438.916 140.946 438.764 141.478L436.119 141.402ZM442.959 141.355C443.966 140.404 445.558 140.45 446.509 141.457C447.46 142.465 447.415 144.057 446.407 145.008C445.399 145.959 443.807 145.913 442.856 144.906C441.906 143.899 441.951 142.306 442.959 141.355Z" fill="#007EFF"/>
<path d="M445.11 147.14C447.326 146.901 448.929 144.912 448.691 142.696C448.453 140.48 446.463 138.877 444.247 139.115C442.031 139.353 440.428 141.343 440.666 143.559C440.904 145.775 442.894 147.379 445.11 147.14ZM442.96 141.355C443.968 140.404 445.56 140.45 446.511 141.457C447.462 142.465 447.416 144.057 446.408 145.008C445.401 145.959 443.808 145.913 442.858 144.906C441.907 143.899 441.952 142.306 442.96 141.355Z" fill="#0060E6"/>
<path d="M465.406 163.165H463.716C463.276 163.165 462.92 162.809 462.92 162.37C462.92 161.93 463.276 161.574 463.716 161.574H464.61V160.679C464.61 160.24 464.966 159.884 465.406 159.884C465.845 159.884 466.201 160.24 466.201 160.679V162.37C466.201 162.809 465.845 163.165 465.406 163.165Z" fill="#B4CAE3"/>
<path d="M460.505 163.165H457.091C456.652 163.165 456.295 162.809 456.295 162.37C456.295 161.93 456.652 161.574 457.091 161.574H460.505C460.944 161.574 461.3 161.93 461.3 162.37C461.3 162.809 460.944 163.165 460.505 163.165ZM453.879 163.165H450.465C450.026 163.165 449.669 162.809 449.669 162.37C449.669 161.93 450.026 161.574 450.465 161.574H453.879C454.318 161.574 454.674 161.93 454.674 162.37C454.674 162.809 454.318 163.165 453.879 163.165ZM447.253 163.165H443.839C443.4 163.165 443.044 162.809 443.044 162.37C443.044 161.93 443.4 161.574 443.839 161.574H447.253C447.692 161.574 448.048 161.93 448.048 162.37C448.048 162.809 447.692 163.165 447.253 163.165ZM440.627 163.165H437.213C436.774 163.165 436.418 162.809 436.418 162.37C436.418 161.93 436.774 161.574 437.213 161.574H440.627C441.066 161.574 441.423 161.93 441.423 162.37C441.422 162.809 441.066 163.165 440.627 163.165ZM434.001 163.165H430.588C430.148 163.165 429.792 162.809 429.792 162.37C429.792 161.93 430.148 161.574 430.588 161.574H434.001C434.441 161.574 434.797 161.93 434.797 162.37C434.796 162.809 434.44 163.165 434.001 163.165ZM427.375 163.165H423.961C423.522 163.165 423.165 162.809 423.165 162.37C423.165 161.93 423.522 161.574 423.961 161.574H427.375C427.814 161.574 428.17 161.93 428.17 162.37C428.17 162.809 427.814 163.165 427.375 163.165ZM420.749 163.165H417.335C416.896 163.165 416.54 162.809 416.54 162.37C416.54 161.93 416.896 161.574 417.335 161.574H420.749C421.188 161.574 421.544 161.93 421.544 162.37C421.544 162.809 421.188 163.165 420.749 163.165ZM414.123 163.165H410.709C410.27 163.165 409.914 162.809 409.914 162.37C409.914 161.93 410.27 161.574 410.709 161.574H414.123C414.562 161.574 414.919 161.93 414.919 162.37C414.919 162.809 414.562 163.165 414.123 163.165ZM407.497 163.165H404.084C403.644 163.165 403.288 162.809 403.288 162.37C403.288 161.93 403.644 161.574 404.084 161.574H407.497C407.936 161.574 408.293 161.93 408.293 162.37C408.292 162.809 407.936 163.165 407.497 163.165ZM400.871 163.165H397.458C397.018 163.165 396.662 162.809 396.662 162.37C396.662 161.93 397.018 161.574 397.458 161.574H400.871C401.311 161.574 401.667 161.93 401.667 162.37C401.666 162.809 401.31 163.165 400.871 163.165Z" fill="#B4CAE3"/>
<path d="M394.246 163.165H392.555C392.116 163.165 391.76 162.809 391.76 162.37V160.679C391.76 160.24 392.116 159.884 392.555 159.884C392.995 159.884 393.351 160.24 393.351 160.679V161.574H394.246C394.685 161.574 395.041 161.93 395.041 162.37C395.041 162.809 394.685 163.165 394.246 163.165Z" fill="#B4CAE3"/>
<path d="M392.557 158.218C392.118 158.218 391.762 157.861 391.762 157.422V153.961C391.762 153.522 392.118 153.165 392.557 153.165C392.997 153.165 393.353 153.522 393.353 153.961V157.422C393.352 157.861 392.997 158.218 392.557 158.218ZM392.557 151.5C392.118 151.5 391.762 151.144 391.762 150.704V147.243C391.762 146.804 392.118 146.448 392.557 146.448C392.997 146.448 393.353 146.804 393.353 147.243V150.704C393.352 151.144 392.997 151.5 392.557 151.5ZM392.557 144.781C392.118 144.781 391.762 144.425 391.762 143.986V140.525C391.762 140.085 392.118 139.729 392.557 139.729C392.997 139.729 393.353 140.085 393.353 140.525V143.986C393.352 144.426 392.997 144.781 392.557 144.781ZM392.557 138.064C392.118 138.064 391.762 137.707 391.762 137.268V133.807C391.762 133.368 392.118 133.011 392.557 133.011C392.997 133.011 393.353 133.368 393.353 133.807V137.268C393.352 137.707 392.997 138.064 392.557 138.064ZM392.557 131.345C392.118 131.345 391.762 130.989 391.762 130.55V127.089C391.762 126.65 392.118 126.294 392.557 126.294C392.997 126.294 393.353 126.65 393.353 127.089V130.55C393.352 130.99 392.997 131.345 392.557 131.345Z" fill="#B4CAE3"/>
<path d="M392.557 124.627C392.118 124.627 391.762 124.271 391.762 123.832V122.142C391.762 121.702 392.118 121.346 392.557 121.346H394.248C394.687 121.346 395.043 121.702 395.043 122.142C395.043 122.581 394.687 122.937 394.248 122.937H393.353V123.832C393.352 124.271 392.997 124.627 392.557 124.627Z" fill="#B4CAE3"/>
<path d="M460.505 122.937H457.092C456.652 122.937 456.296 122.581 456.296 122.142C456.296 121.702 456.652 121.346 457.092 121.346H460.505C460.945 121.346 461.301 121.702 461.301 122.142C461.301 122.581 460.944 122.937 460.505 122.937ZM453.879 122.937H450.465C450.026 122.937 449.669 122.581 449.669 122.142C449.669 121.702 450.026 121.346 450.465 121.346H453.879C454.318 121.346 454.674 121.702 454.674 122.142C454.674 122.581 454.318 122.937 453.879 122.937ZM447.253 122.937H443.839C443.4 122.937 443.044 122.581 443.044 122.142C443.044 121.702 443.4 121.346 443.839 121.346H447.253C447.692 121.346 448.048 121.702 448.048 122.142C448.048 122.581 447.692 122.937 447.253 122.937ZM440.627 122.937H437.213C436.774 122.937 436.418 122.581 436.418 122.142C436.418 121.702 436.774 121.346 437.213 121.346H440.627C441.066 121.346 441.423 121.702 441.423 122.142C441.423 122.581 441.066 122.937 440.627 122.937ZM434.001 122.937H430.588C430.148 122.937 429.792 122.581 429.792 122.142C429.792 121.702 430.148 121.346 430.588 121.346H434.001C434.441 121.346 434.797 121.702 434.797 122.142C434.797 122.581 434.44 122.937 434.001 122.937ZM427.375 122.937H423.961C423.522 122.937 423.165 122.581 423.165 122.142C423.165 121.702 423.522 121.346 423.961 121.346H427.375C427.814 121.346 428.17 121.702 428.17 122.142C428.17 122.581 427.814 122.937 427.375 122.937ZM420.749 122.937H417.335C416.896 122.937 416.54 122.581 416.54 122.142C416.54 121.702 416.896 121.346 417.335 121.346H420.749C421.188 121.346 421.544 121.702 421.544 122.142C421.544 122.581 421.188 122.937 420.749 122.937ZM414.123 122.937H410.709C410.27 122.937 409.914 122.581 409.914 122.142C409.914 121.702 410.27 121.346 410.709 121.346H414.123C414.562 121.346 414.919 121.702 414.919 122.142C414.919 122.581 414.562 122.937 414.123 122.937ZM407.497 122.937H404.084C403.644 122.937 403.288 122.581 403.288 122.142C403.288 121.702 403.644 121.346 404.084 121.346H407.497C407.936 121.346 408.293 121.702 408.293 122.142C408.293 122.581 407.936 122.937 407.497 122.937ZM400.871 122.937H397.458C397.018 122.937 396.662 122.581 396.662 122.142C396.662 121.702 397.018 121.346 397.458 121.346H400.871C401.311 121.346 401.667 121.702 401.667 122.142C401.667 122.581 401.31 122.937 400.871 122.937Z" fill="#B4CAE3"/>
<path d="M465.406 124.627C464.966 124.627 464.61 124.271 464.61 123.832V122.937H463.716C463.276 122.937 462.92 122.581 462.92 122.142C462.92 121.702 463.276 121.346 463.716 121.346H465.406C465.845 121.346 466.201 121.702 466.201 122.142V123.832C466.201 124.271 465.845 124.627 465.406 124.627Z" fill="#B4CAE3"/>
<path d="M465.407 158.218C464.968 158.218 464.611 157.861 464.611 157.422V153.961C464.611 153.522 464.968 153.165 465.407 153.165C465.846 153.165 466.202 153.522 466.202 153.961V157.422C466.202 157.861 465.846 158.218 465.407 158.218ZM465.407 151.5C464.968 151.5 464.611 151.144 464.611 150.704V147.243C464.611 146.804 464.968 146.448 465.407 146.448C465.846 146.448 466.202 146.804 466.202 147.243V150.704C466.202 151.144 465.846 151.5 465.407 151.5ZM465.407 144.781C464.968 144.781 464.611 144.425 464.611 143.986V140.525C464.611 140.085 464.968 139.729 465.407 139.729C465.846 139.729 466.202 140.085 466.202 140.525V143.986C466.202 144.426 465.846 144.781 465.407 144.781ZM465.407 138.064C464.968 138.064 464.611 137.707 464.611 137.268V133.807C464.611 133.368 464.968 133.011 465.407 133.011C465.846 133.011 466.202 133.368 466.202 133.807V137.268C466.202 137.707 465.846 138.064 465.407 138.064ZM465.407 131.345C464.968 131.345 464.611 130.989 464.611 130.55V127.089C464.611 126.65 464.968 126.294 465.407 126.294C465.846 126.294 466.202 126.65 466.202 127.089V130.55C466.202 130.99 465.846 131.345 465.407 131.345Z" fill="#B4CAE3"/>
<path d="M370.069 174.062C369.63 174.062 369.273 173.706 369.273 173.267V169.887C369.273 169.448 369.63 169.091 370.069 169.091C370.508 169.091 370.865 169.448 370.865 169.887V173.267C370.865 173.706 370.508 174.062 370.069 174.062ZM370.069 167.501C369.63 167.501 369.273 167.145 369.273 166.705V163.326C369.273 162.886 369.63 162.53 370.069 162.53C370.508 162.53 370.865 162.886 370.865 163.326V166.705C370.865 167.146 370.508 167.501 370.069 167.501ZM370.069 160.941C369.63 160.941 369.273 160.584 369.273 160.145V156.765C369.273 156.326 369.63 155.97 370.069 155.97C370.508 155.97 370.865 156.326 370.865 156.765V160.145C370.865 160.584 370.508 160.941 370.069 160.941ZM370.069 154.379C369.63 154.379 369.273 154.023 369.273 153.584V150.204C369.273 149.764 369.63 149.408 370.069 149.408C370.508 149.408 370.865 149.764 370.865 150.204V153.584C370.865 154.023 370.508 154.379 370.069 154.379ZM370.069 147.818C369.63 147.818 369.273 147.462 369.273 147.022V143.642C369.273 143.203 369.63 142.847 370.069 142.847C370.508 142.847 370.865 143.203 370.865 143.642V147.022C370.865 147.462 370.508 147.818 370.069 147.818ZM392.554 143.458H391.954C391.514 143.458 391.158 143.102 391.158 142.662C391.158 142.223 391.514 141.867 391.954 141.867H392.554C392.993 141.867 393.35 142.223 393.35 142.662C393.349 143.102 392.993 143.458 392.554 143.458ZM388.772 143.458H385.392C384.953 143.458 384.597 143.102 384.597 142.662C384.597 142.223 384.953 141.867 385.392 141.867H388.772C389.211 141.867 389.568 142.223 389.568 142.662C389.568 143.102 389.211 143.458 388.772 143.458ZM382.212 143.458H378.832C378.392 143.458 378.036 143.102 378.036 142.662C378.036 142.223 378.392 141.867 378.832 141.867H382.212C382.651 141.867 383.007 142.223 383.007 142.662C383.006 143.102 382.65 143.458 382.212 143.458ZM375.65 143.458H372.27C371.831 143.458 371.475 143.102 371.475 142.662C371.475 142.223 371.831 141.867 372.27 141.867H375.65C376.089 141.867 376.446 142.223 376.446 142.662C376.445 143.102 376.089 143.458 375.65 143.458Z" fill="#B4CAE3"/>
<path d="M169.932 235.396L169.924 235.408H169.938L169.932 235.396Z" fill="#0060E6"/>
<path d="M169.923 235.408L169.871 235.479L169.887 235.408H169.923Z" fill="#0060E6"/>
<path d="M466.592 178.104V329.685C466.592 335.935 461.528 340.999 455.277 340.999H196.949C190.699 340.999 185.635 335.935 185.635 329.685V178.104C185.635 171.854 190.699 166.789 196.949 166.789H455.278C461.528 166.789 466.592 171.854 466.592 178.104Z" fill="#3B3E7D"/>
<path d="M466.592 256.959V329.685C466.592 335.935 461.528 340.999 455.277 340.999H196.949C190.699 340.999 185.635 335.935 185.635 329.685V256.959H466.592Z" fill="#18285D"/>
<path d="M454.114 185.81V321.979C454.114 325.986 450.868 329.235 446.861 329.235H205.371C203.679 329.235 202.122 328.654 200.886 327.682C200.56 327.424 200.254 327.137 199.976 326.828C198.817 325.546 198.115 323.843 198.115 321.979V185.81C198.115 181.803 201.366 178.554 205.371 178.554H446.86C448.2 178.554 449.453 178.917 450.53 179.551C451.541 180.146 452.398 180.979 453.018 181.975C453.714 183.087 454.114 184.403 454.114 185.81Z" fill="white"/>
<path d="M492.839 334.943V335.911C492.839 340.733 491.293 345.192 488.667 348.819C484.663 354.357 478.147 357.96 470.79 357.96H181.44C174.083 357.96 167.566 354.357 163.563 348.819C160.937 345.192 159.391 340.733 159.391 335.911V334.943H492.839Z" fill="#021147"/>
<path d="M288.744 334.943V335.164C288.744 336.91 289.913 338.326 291.356 338.326H359.428C360.87 338.326 362.038 336.91 362.038 335.164V334.943H288.744Z" fill="white"/>
<path d="M454.114 185.81V193.844H198.117V185.81C198.117 184.264 198.598 182.833 199.425 181.659C200.734 179.782 202.91 178.555 205.373 178.555H446.861C449.324 178.555 451.5 179.782 452.806 181.659C453.633 182.833 454.114 184.264 454.114 185.81Z" fill="#D9E4F5"/>
<path d="M392.297 188.622H256.478C256.143 188.622 255.869 188.348 255.869 188.013V185.168C255.869 184.833 256.143 184.56 256.477 184.56H392.297C392.631 184.56 392.904 184.834 392.904 185.168V188.014C392.905 188.348 392.631 188.622 392.297 188.622Z" fill="white"/>
<path d="M223.148 186.59V188.096C223.148 188.528 222.68 188.798 222.306 188.582L221.002 187.829L219.698 187.076C219.324 186.86 219.324 186.321 219.698 186.105L221.002 185.352L222.306 184.599C222.68 184.383 223.148 184.653 223.148 185.085V186.59Z" fill="#3B3E7D"/>
<path d="M229.932 186.59V188.096C229.932 188.528 230.399 188.798 230.773 188.582L232.077 187.829L233.382 187.076C233.756 186.86 233.756 186.321 233.382 186.105L232.077 185.352L230.773 184.599C230.399 184.383 229.932 184.653 229.932 185.085V186.59Z" fill="#3B3E7D"/>
<path d="M452.806 181.658H199.426C200.734 179.781 202.91 178.554 205.374 178.554H446.861C449.325 178.554 451.5 179.781 452.806 181.658Z" fill="#B9D2F0"/>
<path d="M351.595 159.752H286.447C282.031 159.752 278.451 156.173 278.451 151.756V150.149C278.451 145.733 282.031 142.153 286.447 142.153H351.595C356.011 142.153 359.591 145.733 359.591 150.149V151.756C359.591 156.173 356.01 159.752 351.595 159.752Z" fill="#007EFF"/>
<path d="M350.913 145.724C348.029 145.724 345.684 148.069 345.684 150.953C345.684 153.836 348.029 156.182 350.913 156.182C353.796 156.182 356.141 153.836 356.141 150.953C356.141 148.069 353.796 145.724 350.913 145.724ZM351.123 152.883V151.051H353.486C353.472 151.698 353.377 152.314 353.207 152.883H351.123ZM352.604 154.97C352.988 154.482 353.294 153.922 353.513 153.304H355.106C354.433 154.501 353.303 155.343 351.975 155.642C352.199 155.442 352.41 155.217 352.604 154.97ZM353.065 153.304C352.867 153.818 352.605 154.287 352.284 154.697C351.782 155.337 351.282 155.663 351.123 155.756V153.304H353.065ZM351.123 148.378V146.149C351.185 146.152 351.248 146.156 351.31 146.162C351.572 146.383 352.392 147.143 352.949 148.379H351.123V148.378ZM353.409 148.378C353.222 147.928 352.985 147.496 352.704 147.093C352.501 146.802 352.28 146.528 352.043 146.278C353.245 146.569 354.301 147.325 354.971 148.378H353.409ZM351.123 150.631V148.799H353.121C353.337 149.389 353.46 150.005 353.484 150.631H351.123ZM353.905 150.631C353.882 150.009 353.768 149.393 353.568 148.799H355.211C355.5 149.373 355.668 149.989 355.711 150.631H353.905ZM355.72 151.052C355.707 151.689 355.572 152.305 355.316 152.884H353.646C353.806 152.312 353.894 151.696 353.908 151.052H355.72ZM348.229 152.883H346.51C346.254 152.304 346.119 151.688 346.106 151.051H347.967C347.981 151.695 348.069 152.311 348.229 152.883ZM348.924 148.378C349.086 148.017 349.282 147.67 349.508 147.343C349.948 146.71 350.388 146.309 350.569 146.156C350.613 146.153 350.658 146.15 350.702 146.149V148.377L348.924 148.378ZM350.703 148.799V150.631H348.391C348.416 150.007 348.538 149.391 348.753 148.799H350.703ZM346.855 148.378C347.538 147.305 348.616 146.544 349.845 146.264C349.603 146.518 349.377 146.797 349.17 147.093C348.889 147.496 348.652 147.928 348.465 148.378H346.855ZM350.703 151.052V152.884H348.667C348.496 152.317 348.402 151.702 348.388 151.052H350.703ZM346.116 150.631C346.158 149.989 346.326 149.374 346.615 148.799H348.307C348.106 149.393 347.993 150.009 347.97 150.631H346.116ZM348.362 153.304C348.581 153.922 348.887 154.483 349.271 154.97C349.469 155.222 349.685 155.452 349.915 155.656C348.576 155.371 347.397 154.505 346.72 153.304H348.362ZM350.703 153.304V155.726C350.385 155.528 349.391 154.811 348.811 153.304H350.703Z" fill="white"/>
<path d="M337.699 145.928C340.441 145.928 342.671 148.158 342.671 150.899C342.671 153.641 340.441 155.871 337.699 155.871H287.438C284.697 155.871 282.466 153.641 282.466 150.899C282.466 148.158 284.697 145.928 287.438 145.928H337.699ZM337.699 145.413H287.438C284.413 145.413 281.951 147.874 281.951 150.9C281.951 153.925 284.412 156.387 287.438 156.387H337.699C340.724 156.387 343.185 153.926 343.185 150.9C343.185 147.874 340.724 145.413 337.699 145.413Z" fill="white"/>
<path d="M426.247 211.589V303.151C426.247 306.407 423.607 309.048 420.35 309.048H234.428C231.172 309.048 228.531 306.407 228.531 303.151V211.589C228.531 208.333 231.172 205.692 234.428 205.692H420.349C423.606 205.692 426.247 208.333 426.247 211.589Z" fill="#D9E4F5"/>
<path d="M426.247 211.589V215.887H228.531V211.589C228.531 208.333 231.172 205.692 234.428 205.692H420.349C423.606 205.692 426.247 208.333 426.247 211.589Z" fill="#B4CAE3"/>
<path d="M407.258 210.69C407.258 211.794 406.363 212.689 405.259 212.689C404.155 212.689 403.26 211.794 403.26 210.69C403.26 209.585 404.155 208.691 405.259 208.691C406.363 208.691 407.258 209.586 407.258 210.69Z" fill="#3B3E7D"/>
<path d="M413.654 210.69C413.654 211.794 412.76 212.689 411.655 212.689C410.551 212.689 409.656 211.794 409.656 210.69C409.656 209.585 410.551 208.691 411.655 208.691C412.759 208.691 413.654 209.586 413.654 210.69Z" fill="#0060E6"/>
<path d="M420.051 210.69C420.051 211.794 419.156 212.689 418.052 212.689C416.947 212.689 416.053 211.794 416.053 210.69C416.053 209.585 416.947 208.691 418.052 208.691C419.156 208.691 420.051 209.586 420.051 210.69Z" fill="#007EFF"/>
<path d="M253.791 245.475H241.66C239.6 245.475 237.93 243.805 237.93 241.745V229.614C237.93 227.553 239.6 225.883 241.66 225.883H253.791C255.852 225.883 257.522 227.553 257.522 229.614V241.745C257.521 243.805 255.851 245.475 253.791 245.475Z" fill="#B4CAE3"/>
<path d="M251.192 242.677H239.061C237 242.677 235.33 241.007 235.33 238.946V226.815C235.33 224.755 237 223.085 239.061 223.085H251.192C253.252 223.085 254.922 224.755 254.922 226.815V238.946C254.922 241.007 253.252 242.677 251.192 242.677Z" fill="#007EFF"/>
<path d="M248.722 231.082L243.367 232.919L248.722 234.757V237.761L239.709 234.492V231.347L248.722 228.077V231.082Z" fill="white"/>
<path d="M286.151 245.475H274.02C271.959 245.475 270.289 243.805 270.289 241.745V229.614C270.289 227.553 271.959 225.883 274.02 225.883H286.151C288.211 225.883 289.88 227.553 289.88 229.614V241.745C289.88 243.805 288.21 245.475 286.151 245.475Z" fill="#B4CAE3"/>
<path d="M283.551 242.677H271.42C269.36 242.677 267.689 241.007 267.689 238.946V226.815C267.689 224.755 269.36 223.085 271.42 223.085H283.551C285.611 223.085 287.282 224.755 287.282 226.815V238.946C287.282 241.007 285.611 242.677 283.551 242.677Z" fill="#007EFF"/>
<path d="M278.043 226.58H280.751L276.284 239.333H273.576L278.043 226.58Z" fill="white"/>
<path d="M317.364 245.475H305.232C303.172 245.475 301.502 243.805 301.502 241.745V229.614C301.502 227.553 303.172 225.883 305.232 225.883H317.364C319.424 225.883 321.094 227.553 321.094 229.614V241.745C321.093 243.805 319.423 245.475 317.364 245.475Z" fill="#B4CAE3"/>
<path d="M314.764 242.677H302.633C300.573 242.677 298.902 241.007 298.902 238.946V226.815C298.902 224.755 300.573 223.085 302.633 223.085H314.764C316.824 223.085 318.494 224.755 318.494 226.815V238.946C318.494 241.007 316.824 242.677 314.764 242.677Z" fill="#007EFF"/>
<path d="M304.281 228.077L313.294 231.347V234.492L304.281 237.761V234.757L309.636 232.919L304.281 231.082V228.077Z" fill="white"/>
<path d="M414.522 300.452H402.391C400.33 300.452 398.66 298.782 398.66 296.722V284.59C398.66 282.53 400.33 280.86 402.391 280.86H414.522C416.582 280.86 418.252 282.53 418.252 284.59V296.722C418.251 298.782 416.581 300.452 414.522 300.452Z" fill="#B4CAE3"/>
<path d="M411.922 297.653H399.791C397.731 297.653 396.061 295.983 396.061 293.923V281.792C396.061 279.731 397.731 278.061 399.791 278.061H411.922C413.983 278.061 415.653 279.731 415.653 281.792V293.923C415.653 295.983 413.983 297.653 411.922 297.653Z" fill="#007EFF"/>
<path d="M405.674 281.476C402.151 281.476 399.285 284.343 399.285 287.866C399.285 291.389 402.152 294.255 405.674 294.255C409.197 294.255 412.064 291.389 412.064 287.866C412.063 284.342 409.197 281.476 405.674 281.476ZM405.931 290.225V287.986H408.819C408.802 288.777 408.687 289.53 408.478 290.225H405.931ZM407.741 292.775C408.21 292.179 408.583 291.494 408.851 290.739H410.797C409.975 292.202 408.594 293.23 406.972 293.596C407.246 293.351 407.504 293.076 407.741 292.775ZM408.303 290.739C408.062 291.368 407.742 291.94 407.35 292.441C406.737 293.223 406.125 293.621 405.931 293.735V290.739H408.303ZM405.931 284.72V281.996C406.007 282 406.083 282.004 406.16 282.011C406.479 282.282 407.482 283.21 408.163 284.72H405.931ZM408.724 284.72C408.495 284.17 408.206 283.642 407.863 283.15C407.615 282.794 407.343 282.46 407.055 282.154C408.524 282.51 409.815 283.434 410.633 284.719H408.724V284.72ZM405.931 287.472V285.233H408.373C408.637 285.955 408.786 286.707 408.816 287.472H405.931ZM409.33 287.472C409.302 286.712 409.163 285.959 408.918 285.233H410.925C411.279 285.935 411.483 286.688 411.536 287.472H409.33ZM411.548 287.986C411.532 288.764 411.366 289.517 411.054 290.225H409.014C409.209 289.525 409.317 288.772 409.334 287.986H411.548ZM402.394 290.225H400.294C399.982 289.517 399.816 288.764 399.8 287.986H402.074C402.091 288.772 402.199 289.525 402.394 290.225ZM403.243 284.72C403.44 284.279 403.681 283.854 403.957 283.455C404.494 282.682 405.032 282.191 405.253 282.005C405.307 282.001 405.361 281.999 405.416 281.996V284.72H403.243ZM405.417 285.233V287.472H402.592C402.621 286.709 402.771 285.957 403.034 285.233H405.417ZM400.715 284.72C401.549 283.409 402.867 282.479 404.37 282.137C404.075 282.447 403.797 282.787 403.544 283.15C403.202 283.642 402.912 284.17 402.684 284.72H400.715ZM405.417 287.986V290.225H402.929C402.721 289.532 402.606 288.78 402.588 287.986H405.417ZM399.812 287.472C399.863 286.688 400.069 285.936 400.423 285.233H402.49C402.244 285.959 402.106 286.712 402.077 287.472H399.812ZM402.556 290.739C402.824 291.495 403.198 292.179 403.667 292.775C403.91 293.083 404.174 293.363 404.454 293.613C402.817 293.265 401.377 292.207 400.551 290.739H402.556ZM405.417 290.739V293.699C405.028 293.456 403.814 292.58 403.105 290.739H405.417Z" fill="white"/>
<path d="M318.837 255.98H237.585C236.339 255.98 235.33 254.97 235.33 253.725C235.33 252.478 236.34 251.469 237.585 251.469H318.837C320.083 251.469 321.092 252.479 321.092 253.725C321.092 254.971 320.083 255.98 318.837 255.98Z" fill="#B4CAE3"/>
<path d="M318.837 264.334H237.585C236.339 264.334 235.33 263.324 235.33 262.079C235.33 260.832 236.34 259.823 237.585 259.823H318.837C320.083 259.823 321.092 260.833 321.092 262.079C321.092 263.324 320.083 264.334 318.837 264.334Z" fill="#B4CAE3"/>
<path d="M318.837 272.688H237.585C236.339 272.688 235.33 271.678 235.33 270.433C235.33 269.187 236.34 268.177 237.585 268.177H318.837C320.083 268.177 321.092 269.187 321.092 270.433C321.092 271.678 320.083 272.688 318.837 272.688Z" fill="#B4CAE3"/>
<path d="M318.837 281.041H237.585C236.339 281.041 235.33 280.031 235.33 278.786C235.33 277.54 236.34 276.53 237.585 276.53H318.837C320.083 276.53 321.092 277.54 321.092 278.786C321.092 280.031 320.083 281.041 318.837 281.041Z" fill="#B4CAE3"/>
<path d="M318.837 289.395H237.585C236.339 289.395 235.33 288.385 235.33 287.14C235.33 285.894 236.34 284.885 237.585 284.885H318.837C320.083 284.885 321.092 285.894 321.092 287.14C321.092 288.385 320.083 289.395 318.837 289.395Z" fill="#B4CAE3"/>
<path d="M318.837 297.748H237.585C236.339 297.748 235.33 296.738 235.33 295.493C235.33 294.248 236.34 293.238 237.585 293.238H318.837C320.083 293.238 321.092 294.248 321.092 295.493C321.092 296.739 320.083 297.748 318.837 297.748Z" fill="#B4CAE3"/>
<path d="M388.608 276.53H333.237C331.995 276.53 330.93 277.502 330.907 278.744C330.883 280.009 331.902 281.042 333.162 281.042H388.608C389.853 281.042 390.863 280.032 390.863 278.787C390.865 277.54 389.855 276.53 388.608 276.53Z" fill="#B4CAE3"/>
<path d="M388.608 284.884H333.237C331.995 284.884 330.93 285.855 330.907 287.097C330.883 288.362 331.902 289.395 333.162 289.395H388.608C389.853 289.395 390.863 288.385 390.863 287.14C390.865 285.894 389.855 284.884 388.608 284.884Z" fill="#B4CAE3"/>
<path d="M388.608 293.238H333.237C331.995 293.238 330.93 294.209 330.907 295.451C330.883 296.716 331.902 297.749 333.162 297.749H388.608C389.853 297.749 390.863 296.739 390.863 295.494C390.865 294.248 389.855 293.238 388.608 293.238Z" fill="#B4CAE3"/>
<path d="M415.651 225.839V267.681C415.651 267.769 415.647 267.856 415.641 267.942C415.6 268.413 415.455 268.847 415.227 269.219C414.783 269.951 414.027 270.433 413.172 270.433H333.228C332.261 270.433 331.424 269.82 331.018 268.924C330.846 268.55 330.748 268.127 330.748 267.681V225.839C330.748 225.499 330.803 225.175 330.904 224.872C331.053 224.436 331.298 224.05 331.61 223.751C332.043 223.337 332.609 223.085 333.227 223.085H413.171C413.666 223.085 414.126 223.244 414.511 223.522C414.873 223.778 415.171 224.139 415.369 224.565C415.55 224.947 415.651 225.38 415.651 225.839Z" fill="#B4CAE3"/>
<path d="M415.643 267.941C415.602 268.412 415.456 268.846 415.229 269.218L372.846 246.928L371.424 246.18L330.906 224.872C331.055 224.435 331.3 224.049 331.612 223.75L372.846 245.433L374.265 246.18H374.267L415.643 267.941Z" fill="#D9E4F5"/>
<path d="M415.37 224.564L374.266 246.181H374.263L372.844 246.929L331.018 268.924C330.846 268.55 330.748 268.126 330.748 267.681V267.57L371.423 246.182L372.844 245.434L414.511 223.522C414.873 223.778 415.171 224.138 415.37 224.564Z" fill="#D9E4F5"/>
<path d="M205.945 414.722C223.99 414.722 238.619 411.869 238.619 408.35C238.619 404.832 223.99 401.979 205.945 401.979C187.9 401.979 173.271 404.832 173.271 408.35C173.271 411.869 187.9 414.722 205.945 414.722Z" fill="#D9E4F5"/>
<path d="M187.583 301.729L182.889 304.624C180.875 303.374 178.586 302.643 176.24 302.482C175.819 301.352 175.58 300.076 175.58 298.643C175.58 287.053 184.717 265.642 184.717 265.642L183.883 289.563C183.273 295.662 185.237 299.429 187.583 301.729Z" fill="#00A0FF"/>
<path d="M200.928 293.492L182.888 304.623C178.384 301.828 172.506 301.628 167.692 304.602C161.684 308.309 159.345 315.703 161.797 322.059C162.112 322.881 162.509 323.682 162.987 324.458C167.174 331.241 176.062 333.347 182.845 329.161C185.255 327.675 187.071 325.598 188.228 323.23C189.386 320.864 189.878 318.208 189.64 315.568L253.157 276.377L253.898 277.579L269.576 277.121L276.961 263.421L277.009 263.327L275.751 260.83L271.737 262.852L270.892 263.277L270.266 263.511L266.029 271.369L257.105 271.631L254.76 267.832L252.417 264.033L252.551 263.784L256.654 256.174L265.578 255.912L268.783 249.964L266.097 250.043L253.106 250.423L245.663 264.229L246.404 265.432L200.928 293.492ZM178.99 309.977L181.695 314.365L183.107 316.653L179.386 323.554L171.547 323.783L167.429 317.112L167.563 316.863L171.15 310.207L178.99 309.977Z" fill="#0060E6"/>
<path d="M200.928 293.492L182.888 304.623C178.384 301.828 172.506 301.628 167.692 304.602C161.684 308.309 159.345 315.703 161.797 322.059C166.017 328.735 174.831 330.783 181.569 326.626C183.977 325.14 185.794 323.062 186.951 320.695C188.109 318.329 188.602 315.673 188.363 313.033L251.881 273.842L252.621 275.044L268.299 274.586L274.332 263.392L275.741 260.778L268.988 260.976L264.751 268.834L255.827 269.096L253.482 265.297L252.551 263.785L251.14 261.498L255.377 253.639L264.301 253.377L266.097 250.043L253.106 250.423L245.663 264.229L246.404 265.432L200.928 293.492ZM177.713 307.442L181.831 314.117L181.696 314.365L178.11 321.019L170.271 321.248L167.564 316.863L166.153 314.576L169.874 307.671L177.713 307.442Z" fill="#007EFF"/>
<path d="M209.506 244.504C209.506 245.985 210.711 247.191 212.192 247.191C213.673 247.191 214.879 245.985 214.879 244.504C214.879 244.316 214.861 244.132 214.823 243.954C214.785 243.779 214.732 243.61 214.664 243.449C214.664 243.449 214.664 243.449 214.662 243.447C214.252 242.49 213.299 241.818 212.193 241.818C212.024 241.818 211.856 241.833 211.696 241.865H211.694C211.405 241.918 211.132 242.019 210.883 242.159C210.062 242.62 209.506 243.499 209.506 244.504ZM209.925 244.504C209.925 243.505 210.575 242.654 211.474 242.355C211.7 242.279 211.941 242.237 212.192 242.237C212.368 242.237 212.54 242.258 212.703 242.297C213.102 242.387 213.463 242.586 213.75 242.86C214.047 243.14 214.268 243.501 214.379 243.906C214.432 244.098 214.46 244.298 214.46 244.504C214.46 245.754 213.443 246.772 212.192 246.772C210.942 246.772 209.925 245.754 209.925 244.504Z" fill="#007EFF"/>
<path d="M198.598 252.662V258.002C198.598 258.002 200.19 260.723 202.344 260.907C204.496 261.095 206.408 258.567 206.408 258.567V253.039L198.598 252.662Z" fill="#FB9A83"/>
<path d="M204.26 253.954C204.26 253.954 204.606 255.846 206.41 256.539V254.087L204.26 253.954Z" fill="#FF6D6B"/>
<path d="M205.801 255.008C197.759 257.283 195.12 251.069 193.995 247.135C193.871 246.698 193.758 246.212 193.661 245.694C193.657 245.674 193.654 245.652 193.648 245.629C193.539 245.046 193.444 244.426 193.364 243.787C193.304 243.314 193.253 242.833 193.208 242.349C193.093 241.173 193.018 239.994 192.969 238.947C192.855 236.556 194.287 234.356 196.527 233.497C199.756 232.255 204.657 231.273 209.301 233.906C211.017 234.878 212.092 236.68 212.131 238.651C212.131 238.651 212.942 241.801 212.557 243.214C212.173 244.627 212.087 245.055 211.958 246.936C211.83 248.817 210.761 253.348 209.65 254.289C208.539 255.229 205.801 255.008 205.801 255.008Z" fill="#FB9A83"/>
<path d="M208.791 246.672C208.683 246.648 208.599 246.555 208.592 246.439C208.498 244.719 206.967 243.69 206.952 243.68C206.835 243.604 206.803 243.446 206.879 243.329C206.956 243.212 207.113 243.18 207.23 243.256C207.302 243.304 208.99 244.432 209.099 246.411C209.106 246.551 208.999 246.671 208.859 246.679C208.836 246.679 208.812 246.677 208.791 246.672Z" fill="#FF6D6B"/>
<path d="M207.278 245.48C207.232 245.47 207.189 245.447 207.153 245.411C207.055 245.311 207.056 245.151 207.156 245.052C207.173 245.036 207.569 244.649 208.252 244.51C208.389 244.482 208.523 244.57 208.551 244.707C208.579 244.844 208.49 244.979 208.353 245.006C207.826 245.114 207.515 245.409 207.513 245.413C207.448 245.476 207.36 245.499 207.278 245.48Z" fill="#FF6D6B"/>
<path d="M192.685 242.732C193.011 246.995 194.878 251.592 194.878 251.592C196.919 256.094 200.718 255.269 202.771 254.653C204.272 254.203 206.307 252.537 207.138 251.772C207.775 251.186 208.16 250.317 208.386 249.598C208.551 249.07 208.17 248.545 207.619 248.493C206.662 248.401 205.666 247.589 205.427 245.335C205.022 241.512 207.573 241.509 207.573 241.509C209.119 241.372 209.94 243.31 209.94 243.31C209.94 243.31 210.892 242.071 210.696 240.034C210.523 238.247 212.325 239.52 212.325 239.52C212.325 239.52 214.856 237.32 214.913 235.154C214.97 232.988 213.708 232.902 212.572 232.346C211.437 231.791 214.058 229.74 212.804 228.656C211.55 227.574 210.126 227.459 209.1 228.029C208.074 228.599 207.731 225.806 206.164 225.75C204.597 225.692 203.6 227.403 202.502 226.718C201.405 226.035 198.612 225.009 197.358 227.117C196.104 229.226 195.762 229.768 194.736 229.881C193.71 229.995 190.86 231.962 191.43 235.21C192.002 238.458 192.495 240.243 192.685 242.732Z" fill="#021147"/>
<path d="M208.217 241.57C208.482 241.649 208.716 241.785 208.921 241.95C209.436 241.89 209.98 241.943 210.516 242.066C210.64 242.095 210.761 242.125 210.882 242.16C211.082 242.218 211.281 242.283 211.474 242.355C211.876 242.502 212.266 242.678 212.625 242.86C213.383 243.241 214.014 243.653 214.38 243.906C214.595 244.057 214.72 244.152 214.727 244.158L214.823 243.954C214.785 243.78 214.733 243.611 214.664 243.45C214.664 243.45 214.664 243.45 214.663 243.448C214.452 243.301 214.138 243.091 213.751 242.86C213.443 242.677 213.089 242.482 212.705 242.297C212.691 242.291 212.678 242.283 212.662 242.277C212.358 242.13 212.033 241.992 211.696 241.867H211.694C211.352 241.742 210.996 241.634 210.637 241.556C209.826 241.375 208.991 241.338 208.217 241.57Z" fill="#007EFF"/>
<path d="M218.987 411.741C219.573 411.819 220.285 411.857 220.885 411.72L221.776 411.43L223.24 410.989C223.24 410.989 228.5 408.924 230.363 407.113C232.225 405.303 231.893 403.309 228.989 402.338C226.086 401.367 223.491 402.287 221.938 401.666C221.938 401.666 217.291 402.057 217.549 404.54C217.49 406.851 217.352 408.075 217.661 410.41C217.753 411.101 218.296 411.648 218.987 411.741Z" fill="#007EFF"/>
<path d="M221.559 402.775C221.479 402.757 221.406 402.709 221.36 402.634C221.271 402.488 221.317 402.297 221.463 402.208C221.512 402.178 222.67 401.476 223.687 401.514C225.043 401.563 225.538 402.617 225.558 402.662C225.629 402.818 225.561 403.002 225.405 403.072C225.249 403.143 225.066 403.075 224.995 402.919C224.981 402.891 224.629 402.17 223.665 402.133C222.832 402.103 221.797 402.73 221.787 402.736C221.716 402.78 221.634 402.791 221.559 402.775Z" fill="white"/>
<path d="M222.602 402.66C222.522 402.643 222.45 402.594 222.403 402.519C222.314 402.373 222.36 402.182 222.505 402.092C222.555 402.062 223.713 401.361 224.73 401.399C226.086 401.448 226.581 402.503 226.601 402.548C226.672 402.703 226.604 402.887 226.448 402.958C226.292 403.029 226.109 402.96 226.038 402.805C226.024 402.777 225.671 402.055 224.708 402.019C223.875 401.988 222.84 402.615 222.83 402.622C222.759 402.665 222.677 402.676 222.602 402.66Z" fill="white"/>
<path d="M223.622 402.448C223.542 402.43 223.469 402.382 223.423 402.307C223.333 402.161 223.379 401.97 223.525 401.88C223.574 401.85 224.733 401.149 225.75 401.186C227.106 401.235 227.6 402.29 227.621 402.335C227.692 402.49 227.623 402.674 227.467 402.745C227.312 402.816 227.128 402.748 227.057 402.592C227.043 402.564 226.69 401.842 225.727 401.806C224.895 401.775 223.86 402.403 223.849 402.409C223.778 402.453 223.697 402.464 223.622 402.448Z" fill="white"/>
<path d="M223.011 398.471L222.727 403.353C220.921 403.852 219.565 404.082 218.542 403.286L218.25 398.108L223.011 398.471Z" fill="#FB9A83"/>
<path d="M224.493 400.492C221.796 402.158 217.467 401.185 217.467 401.185C217.984 401.093 213.695 369.003 213.13 364.17C212.609 359.71 207.049 346.761 204.712 339.415C204.549 338.904 204.404 338.421 204.274 337.968C204.091 337.324 203.916 336.71 203.751 336.131C202.718 332.534 202.039 330.246 202.039 330.246L217.467 326.874C217.926 328.605 218.359 330.311 218.769 331.996C218.858 332.365 218.946 332.731 219.033 333.097C219.087 333.328 219.141 333.559 219.196 333.788C228.658 373.98 224.493 400.492 224.493 400.492Z" fill="#3B3E7D"/>
<path d="M219.035 333.096C213.735 335.035 208.552 335.912 203.753 336.131C202.72 332.533 202.041 330.246 202.041 330.246L217.469 326.873C217.928 328.604 218.361 330.31 218.771 331.996C218.86 332.365 218.947 332.731 219.035 333.096Z" fill="#18285D"/>
<path d="M178.988 410.668C179.529 410.907 180.203 411.143 180.817 411.179L181.754 411.151L183.283 411.136C183.283 411.136 188.91 410.623 191.204 409.406C193.498 408.188 193.736 406.181 191.219 404.437C188.703 402.693 185.954 402.851 184.638 401.821C184.638 401.821 180.066 400.897 179.62 403.354C178.917 405.556 178.442 406.692 178.086 409.02C177.981 409.709 178.35 410.386 178.988 410.668Z" fill="#007EFF"/>
<path d="M183.963 402.779C183.892 402.74 183.835 402.673 183.812 402.588C183.767 402.423 183.864 402.253 184.029 402.208C184.084 402.192 185.392 401.842 186.36 402.163C187.648 402.59 187.828 403.74 187.836 403.789C187.861 403.958 187.743 404.115 187.574 404.14C187.404 404.165 187.247 404.048 187.222 403.878C187.217 403.847 187.08 403.056 186.165 402.752C185.374 402.49 184.204 402.802 184.192 402.806C184.112 402.827 184.031 402.815 183.963 402.779Z" fill="white"/>
<path d="M184.995 402.96C184.923 402.921 184.866 402.854 184.843 402.769C184.798 402.603 184.895 402.433 185.061 402.388C185.116 402.373 186.425 402.023 187.391 402.344C188.679 402.77 188.86 403.92 188.866 403.97C188.891 404.139 188.773 404.296 188.604 404.321C188.435 404.346 188.277 404.228 188.253 404.059C188.248 404.028 188.111 403.237 187.195 402.932C186.404 402.67 185.235 402.983 185.223 402.986C185.144 403.008 185.062 402.996 184.995 402.96Z" fill="white"/>
<path d="M186.034 403.04C185.962 403.001 185.905 402.935 185.882 402.849C185.837 402.684 185.935 402.514 186.1 402.469C186.155 402.453 187.464 402.104 188.43 402.424C189.718 402.851 189.899 404.001 189.906 404.05C189.931 404.219 189.813 404.377 189.644 404.402C189.475 404.427 189.317 404.309 189.293 404.14C189.288 404.108 189.151 403.317 188.235 403.013C187.444 402.75 186.275 403.064 186.263 403.067C186.183 403.089 186.101 403.077 186.034 403.04Z" fill="white"/>
<path d="M186.559 399.052L184.922 403.66C183.049 403.635 181.683 403.477 180.922 402.426L182.089 397.372L186.559 399.052Z" fill="#FB9A83"/>
<path d="M201.244 328.757C201.201 330.549 201.138 332.307 201.061 334.04C201.03 334.742 200.994 335.458 200.953 336.187C200.882 337.439 200.799 338.726 200.703 340.034C199.949 350.486 198.481 362.285 197.341 368.203C196.585 372.128 187.417 401.406 187.417 401.406C184.403 402.24 180.582 400.167 180.479 400.109C181.003 400.109 184.845 364.966 186.055 362.395C186.815 360.779 186.122 356.521 185.553 338.337C185.528 337.495 185.5 336.625 185.475 335.723C185.458 335.129 185.446 334.56 185.437 334.019C185.373 330.159 185.487 327.684 185.487 327.684L201.244 328.757Z" fill="#3B3E7D"/>
<path d="M185.489 327.684L201.246 328.757C201.203 330.549 201.14 332.307 201.063 334.04C201.032 334.742 200.996 335.458 200.955 336.187C194.814 336.158 189.435 335.121 185.44 334.019C185.375 330.159 185.489 327.684 185.489 327.684Z" fill="#18285D"/>
<path d="M219.031 327.77C219.031 327.77 209.63 331.461 201.245 331.503C192.861 331.543 184.832 330.743 184.832 330.743C184.832 330.743 184.13 318.069 183.672 303.91C183.643 302.983 183.614 302.05 183.587 301.115C183.555 300.077 183.529 299.033 183.5 297.992C183.476 297.061 183.454 296.128 183.433 295.198C183.406 294.004 183.383 292.817 183.362 291.64C183.345 290.7 183.333 289.772 183.32 288.851C183.191 278.175 182.685 268.556 184.401 266.397C187.929 261.959 198.595 257.498 198.595 257.498C200.963 258.169 203.631 258.393 206.66 258.081C206.66 258.081 212.63 262.591 216.815 265.643C220.121 268.053 217.512 276.664 217.696 288.486C217.708 289.388 217.725 290.307 217.742 291.238C217.749 291.538 217.754 291.842 217.761 292.146C217.778 292.965 217.799 293.85 217.824 294.785C217.846 295.658 217.871 296.577 217.901 297.529C217.93 298.531 217.961 299.569 217.997 300.633C218.026 301.533 218.055 302.452 218.089 303.379C218.475 314.811 219.031 327.77 219.031 327.77Z" fill="#00A0FF"/>
<path d="M198.57 263.564C203.771 264.05 207.222 261.287 207.379 261.159C207.507 261.055 207.526 260.867 207.421 260.74C207.317 260.612 207.13 260.593 207.002 260.697C206.963 260.729 202.943 263.937 197.216 262.76C197.055 262.727 196.897 262.831 196.864 262.992C196.83 263.153 196.934 263.311 197.096 263.344C197.601 263.448 198.094 263.52 198.57 263.564Z" fill="#007EFF"/>
<path d="M217.743 291.238C210.585 292.615 204.203 293.081 198.836 293.081C191.66 293.081 186.306 292.246 183.362 291.64C183.345 290.7 183.333 289.772 183.32 288.851C187.814 289.811 200.623 291.838 217.696 288.487C217.71 289.388 217.726 290.307 217.743 291.238Z" fill="#007EFF"/>
<path d="M217.902 297.529C210.679 298.931 204.24 299.404 198.837 299.404C191.771 299.404 186.473 298.596 183.5 297.992C183.477 297.061 183.455 296.127 183.434 295.198C188.035 296.171 200.828 298.146 217.824 294.785C217.848 295.658 217.873 296.577 217.902 297.529Z" fill="#007EFF"/>
<path d="M218.089 303.379C210.792 304.808 204.288 305.289 198.836 305.289C191.906 305.289 186.675 304.512 183.673 303.91C183.644 302.983 183.615 302.05 183.588 301.115C188.333 302.1 201.103 304.006 217.997 300.633C218.026 301.533 218.056 302.452 218.089 303.379Z" fill="#007EFF"/>
<path d="M217.539 266.397C217.539 266.397 232.28 289.26 234.712 287.76C238.378 285.498 241.512 283.563 241.512 283.563L244.978 281.425C244.978 281.425 242.92 294.822 234.795 297.515C229.697 299.206 215.855 281.797 215.855 281.797C215.855 281.797 215.856 270.007 217.539 266.397Z" fill="#00A0FF"/>
<path d="M365.742 313.633C350.01 292.482 340.074 272.972 340.074 272.972L340.572 287.595C340.572 287.595 355.523 311.676 360.194 316.684C362.058 316.684 365.742 316.051 365.742 313.633Z" fill="#007EFF"/>
<path d="M326.76 269.458C326.76 269.458 324.164 270.155 321.642 270.784C319.322 271.364 318.032 272.04 318.032 272.04C318.032 272.04 317.802 294.24 318.032 300.977C318.262 307.715 316.078 313.897 316.507 317.831C316.507 317.831 335.762 319.193 339.869 317.562C339.869 317.562 338.279 300.229 340.074 295.36C341.896 290.416 342.852 286.971 342.425 284.956C341.329 279.783 340.025 279.009 340.365 274.246C340.705 269.484 326.76 269.458 326.76 269.458Z" fill="#00A0FF"/>
<path d="M335.099 277.475C329.876 277.475 326.696 274.403 326.552 274.261C326.435 274.145 326.433 273.957 326.548 273.839C326.664 273.721 326.853 273.721 326.97 273.836C327.007 273.872 330.71 277.439 336.522 276.801C336.685 276.783 336.833 276.9 336.851 277.064C336.868 277.228 336.751 277.375 336.587 277.393C336.074 277.449 335.578 277.475 335.099 277.475Z" fill="#007EFF"/>
<path d="M322.63 305.127C322.47 305.127 322.338 305.001 322.332 304.839C322.327 304.675 322.455 304.537 322.62 304.531C322.7 304.527 330.652 304.16 336.113 296.946C336.213 296.814 336.4 296.788 336.53 296.888C336.662 296.987 336.687 297.175 336.588 297.305C330.95 304.753 322.723 305.123 322.641 305.126C322.637 305.127 322.634 305.127 322.63 305.127Z" fill="#007EFF"/>
<path d="M322.369 307.952C321.744 307.952 321.38 307.914 321.362 307.912C321.199 307.893 321.081 307.746 321.1 307.583C321.118 307.42 321.265 307.303 321.429 307.32C321.509 307.329 329.429 308.126 335.886 301.787C336.004 301.672 336.192 301.674 336.308 301.791C336.423 301.908 336.421 302.097 336.303 302.212C331.017 307.403 324.769 307.952 322.369 307.952Z" fill="#007EFF"/>
<path d="M399.122 328.925L404.206 330.72L402.491 335.344L396.996 333.746L399.122 328.925Z" fill="#FB9A83"/>
<path d="M403.45 331.364C403.45 331.364 402.332 329.656 402.73 328.771C403.128 327.886 411.269 322.911 412.609 320.677C413.949 318.442 415.547 319.556 416.29 320.327C417.033 321.098 408.939 339.371 408.939 339.371C408.939 339.371 403.176 337.846 401.695 336.611C400.213 335.376 403.167 333.39 403.45 331.364Z" fill="#007EFF"/>
<path d="M408.758 328.91C408.753 329.004 408.71 329.096 408.632 329.162C408.481 329.29 408.255 329.271 408.128 329.12C408.085 329.07 407.079 327.87 406.942 326.7C406.759 325.143 407.876 324.39 407.925 324.359C408.09 324.25 408.312 324.296 408.421 324.461C408.53 324.627 408.484 324.849 408.318 324.958C408.288 324.979 407.526 325.508 407.655 326.617C407.766 327.57 408.666 328.646 408.675 328.657C408.736 328.73 408.764 328.821 408.758 328.91Z" fill="white"/>
<path d="M407.443 329.567C407.438 329.661 407.395 329.753 407.317 329.819C407.165 329.947 406.94 329.928 406.811 329.777C406.769 329.726 405.763 328.527 405.626 327.357C405.443 325.798 406.56 325.046 406.607 325.015C406.773 324.906 406.995 324.952 407.104 325.117C407.213 325.283 407.167 325.505 407.001 325.614C406.971 325.635 406.208 326.165 406.337 327.273C406.449 328.23 407.349 329.302 407.358 329.313C407.422 329.387 407.449 329.477 407.443 329.567Z" fill="white"/>
<path d="M410.026 327.831C410.02 327.926 409.977 328.018 409.899 328.084C409.747 328.212 409.522 328.192 409.394 328.042C409.351 327.991 408.344 326.792 408.208 325.621C408.024 324.063 409.142 323.311 409.19 323.28C409.356 323.171 409.578 323.217 409.687 323.383C409.796 323.549 409.75 323.771 409.584 323.88C409.553 323.901 408.791 324.431 408.92 325.539C409.032 326.496 409.932 327.569 409.942 327.579C410.003 327.652 410.03 327.743 410.026 327.831Z" fill="white"/>
<path d="M331.609 319.79C331.609 319.79 352.156 313.807 362.439 313.396C372.732 312.99 400.439 328.285 400.439 328.285C401.1 329.893 400.668 331.678 399.589 333.288C399.436 333.52 399.271 333.739 399.094 333.946C398.715 334.431 398.277 334.877 397.792 335.297C397.792 335.297 377.337 332.677 363.672 325.43C363.672 325.43 344.484 330.209 333.44 329.903C333.44 329.903 328.884 326.1 331.609 319.79Z" fill="#021147"/>
<path d="M339.535 260.03C343.81 255.756 343.81 248.825 339.535 244.551C335.261 240.276 328.33 240.276 324.056 244.551C319.782 248.825 319.782 255.756 324.056 260.03C328.33 264.304 335.261 264.304 339.535 260.03Z" fill="#021147"/>
<path d="M327.801 248.295C331.505 248.295 334.508 245.292 334.508 241.588C334.508 237.883 331.505 234.88 327.801 234.88C324.097 234.88 321.094 237.883 321.094 241.588C321.094 245.292 324.097 248.295 327.801 248.295Z" fill="#021147"/>
<path d="M339.648 255.315C339.648 255.315 341.311 253.577 342.266 255.237C343.221 256.896 341.223 261.339 338.629 259.959L339.648 255.315Z" fill="#FF6D6B"/>
<path d="M339.867 259.756C339.842 260.029 340.042 260.271 340.314 260.297C340.586 260.323 340.828 260.123 340.855 259.851C340.881 259.578 340.681 259.336 340.408 259.31C340.136 259.284 339.894 259.484 339.867 259.756Z" fill="white"/>
<path d="M339.355 258.598C339.455 258.608 339.553 258.554 339.59 258.46C340.143 257.083 341.744 256.656 341.76 256.651C341.882 256.62 341.953 256.501 341.919 256.385C341.885 256.269 341.759 256.199 341.637 256.231C341.562 256.25 339.799 256.715 339.162 258.301C339.116 258.413 339.176 258.54 339.295 258.584C339.314 258.591 339.334 258.596 339.355 258.598Z" fill="#ED495C"/>
<path d="M340.984 258.033C341.026 258.037 341.071 258.03 341.111 258.01C341.223 257.956 341.266 257.824 341.208 257.717C341.198 257.699 340.963 257.277 340.414 256.979C340.304 256.919 340.164 256.955 340.102 257.059C340.04 257.163 340.079 257.297 340.19 257.357C340.614 257.587 340.8 257.912 340.801 257.915C340.839 257.983 340.909 258.026 340.984 258.033Z" fill="#ED495C"/>
<path d="M327.295 263.827L326.758 269.459C326.758 269.459 329.182 271.729 331.208 272.099C333.231 272.471 334.166 270.131 334.166 270.131L334.667 264.889L327.295 263.827Z" fill="#FB9A83"/>
<path d="M327.242 264.378L327.027 266.625C328.253 268.276 330.634 269.047 334.286 268.859L334.613 265.441L327.242 264.378Z" fill="#FF6D6B"/>
<path d="M340.336 257.541C340.219 258.079 340.089 258.625 339.938 259.166C338.942 262.767 336.247 266.501 333.259 266.886C326.807 267.716 324.657 262.505 323.997 258.749C323.924 258.331 324.178 257.886 324.135 257.396C324.036 256.235 323.698 254.896 323.716 253.609C323.728 252.716 323.76 251.838 323.799 251.045C323.909 248.81 325.393 246.888 327.484 246.281C330.498 245.404 334.994 244.91 338.936 247.758C340.392 248.81 341.201 250.577 341.06 252.414C340.952 253.817 340.742 255.645 340.336 257.541Z" fill="#FB9A83"/>
<path d="M332.356 259.639C332.238 259.628 332.142 259.534 332.133 259.412C332.124 259.277 332.226 259.158 332.362 259.149L333.218 259.087L332.352 255.885C332.316 255.753 332.394 255.618 332.525 255.583C332.657 255.548 332.792 255.624 332.827 255.756L333.85 259.535L332.397 259.639C332.383 259.64 332.37 259.64 332.356 259.639Z" fill="#FF6D6B"/>
<path d="M338.492 251.14C340.854 252.502 340.132 256.223 339.971 259.047C339.965 259.157 340.583 257.034 340.646 256.991C341.068 255.059 341.283 253.196 341.392 251.766C341.534 249.893 340.676 248.089 339.138 247.012C334.974 244.095 330.238 244.583 327.064 245.468C324.863 246.08 323.305 248.035 323.196 250.313C323.158 251.122 323.128 252.017 323.117 252.927C323.504 253.21 324.494 253.417 324.473 254.079C324.417 255.832 324.284 258.802 324.653 258.708C325.083 258.6 325.589 254.614 325.404 253.341C325.404 253.341 326.056 252.476 328.44 251.809C331.499 250.954 334.5 249.542 334.5 249.542C334.5 249.542 335.685 248.974 336.185 248.28C336.187 248.279 336.694 250.103 338.492 251.14Z" fill="#021147"/>
<path d="M336.046 255.953C335.995 256.494 336.232 256.958 336.575 256.992C336.918 257.025 337.239 256.613 337.291 256.073C337.342 255.532 337.105 255.067 336.762 255.034C336.418 255.001 336.097 255.413 336.046 255.953Z" fill="#021147"/>
<path d="M328.718 255.273C328.666 255.814 328.903 256.278 329.247 256.311C329.59 256.344 329.911 255.932 329.963 255.392C330.014 254.852 329.777 254.387 329.434 254.354C329.09 254.32 328.769 254.732 328.718 255.273Z" fill="#021147"/>
<path d="M338.109 253.257C337.618 253.112 336.621 252.854 335.541 252.79C335.256 252.773 335.009 252.964 335.026 253.193L335.027 253.199C335.041 253.382 335.223 253.521 335.451 253.526C336.191 253.541 338.11 253.737 338.978 254.088C339.015 253.961 338.942 253.815 338.828 253.683C338.653 253.483 338.395 253.343 338.109 253.257Z" fill="#021147"/>
<path d="M328.096 252.42C328.605 252.363 329.631 252.284 330.706 252.411C330.989 252.444 331.199 252.677 331.141 252.899L331.14 252.905C331.094 253.083 330.891 253.188 330.665 253.152C329.934 253.037 328.011 252.892 327.093 253.085C327.079 252.954 327.177 252.823 327.313 252.713C327.52 252.546 327.799 252.453 328.096 252.42Z" fill="#021147"/>
<path d="M334.939 261.36C334.676 262.203 333.921 263.727 331.884 263.533C329.843 263.338 329.408 261.837 329.307 260.822L334.939 261.36Z" fill="white"/>
<path d="M331.771 265.013C332.359 265.07 332.908 264.802 332.931 264.791C333.05 264.732 333.1 264.587 333.041 264.468C332.982 264.348 332.838 264.299 332.717 264.357C332.713 264.36 332.265 264.575 331.817 264.532C331.332 264.485 330.922 264.187 330.918 264.185C330.81 264.106 330.66 264.128 330.581 264.236C330.502 264.343 330.523 264.493 330.631 264.573C330.651 264.589 331.149 264.955 331.771 265.013Z" fill="#FF6D6B"/>
<path d="M324.436 253.847C324.436 253.847 322.911 251.589 321.749 253.002C320.587 254.414 321.601 259.009 324.197 258.159L324.436 253.847Z" fill="#FB9A83"/>
<path d="M322.619 258.11C322.594 258.382 322.794 258.624 323.066 258.65C323.338 258.676 323.58 258.476 323.607 258.204C323.633 257.931 323.433 257.69 323.16 257.663C322.888 257.637 322.645 257.837 322.619 258.11Z" fill="white"/>
<path d="M323.787 256.73C323.695 256.721 323.616 256.651 323.599 256.556C323.344 255.143 321.971 254.448 321.958 254.442C321.853 254.39 321.81 254.264 321.862 254.159C321.913 254.054 322.04 254.012 322.145 254.062C322.209 254.094 323.722 254.854 324.016 256.481C324.036 256.597 323.96 256.706 323.845 256.727C323.824 256.73 323.805 256.731 323.787 256.73Z" fill="#FF6D6B"/>
<path d="M322.414 255.899C322.374 255.895 322.336 255.88 322.303 255.854C322.211 255.782 322.196 255.649 322.268 255.557C322.28 255.542 322.569 255.181 323.119 254.995C323.229 254.957 323.349 255.017 323.387 255.128C323.424 255.238 323.366 255.359 323.254 255.396C322.829 255.54 322.602 255.816 322.6 255.82C322.554 255.878 322.483 255.905 322.414 255.899Z" fill="#FF6D6B"/>
<path d="M332.088 254.834C332.102 254.688 332.084 254.544 332.038 254.413C331.915 254.052 331.595 253.775 331.191 253.727L327.625 253.306C327.344 253.273 327.078 253.357 326.873 253.519C326.76 253.608 326.667 253.72 326.6 253.849C326.544 253.957 326.505 254.074 326.49 254.2L326.436 254.656C326.345 255.429 326.561 256.202 327.029 256.781C327.496 257.355 328.066 257.693 328.726 257.785L328.821 257.796C329.584 257.886 330.337 257.675 330.943 257.199C331.559 256.717 331.948 256.023 332.039 255.246L332.085 254.86C332.087 254.852 332.089 254.842 332.088 254.834ZM331.62 255.196C331.542 255.861 331.209 256.453 330.684 256.865C330.166 257.272 329.523 257.452 328.872 257.375L328.787 257.365C328.237 257.287 327.758 257.002 327.361 256.514C326.964 256.025 326.781 255.365 326.859 254.706L326.913 254.251C326.952 253.923 327.248 253.689 327.576 253.728L331.143 254.149C331.47 254.187 331.705 254.484 331.666 254.812L331.62 255.196Z" fill="white"/>
<path d="M339.641 255.475C339.621 255.332 339.567 255.196 339.49 255.076C339.33 254.831 339.066 254.655 338.753 254.619L335.185 254.198C334.772 254.149 334.385 254.355 334.186 254.694C334.119 254.807 334.073 254.935 334.055 255.072C334.053 255.08 334.052 255.085 334.051 255.092L333.997 255.547C333.906 256.32 334.123 257.094 334.591 257.672C335.057 258.246 335.628 258.584 336.287 258.675L336.382 258.687C337.145 258.777 337.898 258.566 338.504 258.089C339.119 257.607 339.51 256.914 339.601 256.137L339.646 255.751C339.659 255.658 339.658 255.566 339.641 255.475ZM339.182 256.088C339.104 256.753 338.771 257.345 338.245 257.757C337.727 258.164 337.085 258.343 336.434 258.267L336.347 258.256C335.797 258.179 335.317 257.893 334.921 257.406C334.525 256.917 334.341 256.256 334.418 255.598L334.472 255.142C334.511 254.814 334.809 254.58 335.136 254.619L338.704 255.039C339.031 255.078 339.266 255.375 339.227 255.703L339.182 256.088Z" fill="white"/>
<path d="M326.873 253.519C326.534 253.297 325.641 252.809 324.318 252.755L324.428 253.188C325.527 253.262 326.288 253.656 326.601 253.85C326.704 253.913 326.759 253.955 326.762 253.957L327.024 253.625C327.013 253.617 326.962 253.576 326.873 253.519Z" fill="white"/>
<path d="M331.943 254.86L331.852 254.446C331.877 254.44 332.492 254.307 333.141 254.383C333.832 254.465 334.252 254.729 334.269 254.74L334.041 255.097C334.038 255.096 333.68 254.873 333.091 254.804C332.516 254.735 331.948 254.858 331.943 254.86Z" fill="white"/>
<path d="M340.841 254.843C340.037 254.882 339.36 255.117 339.316 255.133L339.457 255.532C339.468 255.529 340.164 255.288 340.947 255.264L340.841 254.843Z" fill="white"/>
<path d="M354.706 357.343L352.884 362.744L348.113 362.294L349.731 356.545L354.706 357.343Z" fill="#FB9A83"/>
<path d="M352.548 362.559C352.548 362.559 353.762 360.918 354.731 360.986C355.699 361.052 363.185 366.969 365.744 367.452C368.304 367.935 367.812 369.82 367.346 370.784C366.88 371.748 346.935 370.48 346.935 370.48C346.935 370.48 346.371 364.546 347.017 362.728C347.663 360.911 350.548 362.994 352.548 362.559Z" fill="#007EFF"/>
<path d="M356.685 366.69C356.595 366.717 356.493 366.709 356.405 366.659C356.232 366.562 356.172 366.343 356.269 366.171C356.302 366.113 357.079 364.754 358.13 364.221C359.527 363.51 360.62 364.299 360.666 364.332C360.826 364.449 360.86 364.674 360.742 364.834C360.624 364.993 360.4 365.027 360.241 364.909C360.211 364.888 359.45 364.356 358.455 364.86C357.598 365.295 356.9 366.512 356.894 366.525C356.846 366.608 356.771 366.664 356.685 366.69Z" fill="white"/>
<path d="M355.615 365.684C355.525 365.712 355.423 365.703 355.334 365.653C355.162 365.555 355.101 365.337 355.199 365.164C355.231 365.106 356.009 363.747 357.059 363.214C358.458 362.503 359.55 363.291 359.596 363.325C359.756 363.442 359.789 363.667 359.672 363.826C359.555 363.986 359.33 364.02 359.17 363.901C359.141 363.88 358.379 363.348 357.384 363.853C356.525 364.289 355.83 365.504 355.824 365.516C355.776 365.601 355.7 365.658 355.615 365.684Z" fill="white"/>
<path d="M358.138 367.505C358.048 367.532 357.947 367.524 357.858 367.474C357.685 367.376 357.625 367.158 357.722 366.985C357.755 366.928 358.532 365.568 359.583 365.035C360.98 364.324 362.073 365.112 362.119 365.147C362.278 365.264 362.312 365.488 362.194 365.648C362.078 365.807 361.853 365.841 361.693 365.723C361.663 365.702 360.901 365.171 359.907 365.675C359.048 366.111 358.353 367.326 358.346 367.338C358.299 367.422 358.223 367.479 358.138 367.505Z" fill="white"/>
<path d="M316.225 320.225C315.964 322.433 316.336 324.685 317.377 326.649C318.913 329.544 322.219 332.575 329.342 332.201C344.511 331.404 355.209 332.201 355.209 332.201C355.209 332.201 353.629 337.317 351.928 344.747C350.929 349.112 347.803 359.708 347.803 359.708C349.859 360.918 352.046 360.607 354.241 360.205C354.241 360.205 369.994 333.184 368.619 324.397C367.246 315.609 316.506 317.832 316.506 317.832L316.225 320.225Z" fill="#3B3E7D"/>
<path d="M347.804 313.226C340.66 308.717 329.344 300.126 329.344 300.126C329.344 300.126 322.223 286.342 318.033 272.04C318.033 272.04 313.279 277.522 316.576 289.789C319.788 301.74 324.954 306.031 324.954 306.031C324.954 306.031 338.156 315.488 345.145 317.831C346.245 315.99 346.791 315.117 347.804 313.226Z" fill="#007EFF"/>
<path d="M380.658 318.753L335.889 319.344C335.088 319.354 334.43 318.713 334.42 317.913L334.41 317.209C334.4 316.408 335.041 315.75 335.841 315.74L380.61 315.149C381.411 315.138 382.069 315.779 382.079 316.58L382.089 317.284C382.1 318.085 381.459 318.742 380.658 318.753Z" fill="#0060E6"/>
<path d="M382.109 318.733L343.051 319.248L354.684 297.805L393.671 297.419L382.109 318.733Z" fill="#00A0FF"/>
<path d="M379.684 318.758L379.68 318.766L340.693 319.151L352.255 297.836L354.68 297.811L343.12 319.12L379.684 318.758Z" fill="#0060E6"/>
<path d="M371.372 308.23C371.391 309.602 370.293 310.728 368.921 310.746C367.549 310.764 366.422 309.667 366.405 308.295C366.387 306.923 367.484 305.796 368.856 305.778C370.228 305.761 371.355 306.858 371.372 308.23Z" fill="#007EFF"/>
<path d="M482.428 393.145C500.473 393.145 515.101 390.292 515.101 386.774C515.101 383.255 500.473 380.403 482.428 380.403C464.382 380.403 449.754 383.255 449.754 386.774C449.754 390.292 464.382 393.145 482.428 393.145Z" fill="#D9E4F5"/>
<path d="M460.668 319.439V385.47C460.668 386.922 461.844 388.098 463.296 388.098H501.565C502.297 388.098 502.958 387.799 503.434 387.317C503.904 386.844 504.194 386.193 504.194 385.47V319.439C504.194 317.988 503.018 316.812 501.566 316.812H463.297C462.777 316.812 462.295 316.962 461.888 317.221C461.155 317.687 460.668 318.506 460.668 319.439Z" fill="#007EFF"/>
<path d="M472.594 329.546H498.15C499.149 329.546 499.959 328.737 499.959 327.737C499.959 326.738 499.149 325.928 498.15 325.928H472.594C471.595 325.928 470.785 326.738 470.785 327.737C470.785 328.737 471.595 329.546 472.594 329.546Z" fill="#00A0FF"/>
<path d="M472.594 337.785H498.15C499.149 337.785 499.959 336.976 499.959 335.977C499.959 334.978 499.149 334.168 498.15 334.168H472.594C471.595 334.168 470.785 334.977 470.785 335.977C470.785 336.975 471.595 337.785 472.594 337.785Z" fill="#00A0FF"/>
<path d="M472.594 346.025H498.15C499.149 346.025 499.959 345.215 499.959 344.216C499.959 343.217 499.149 342.407 498.15 342.407H472.594C471.595 342.407 470.785 343.217 470.785 344.216C470.785 345.215 471.595 346.025 472.594 346.025Z" fill="#00A0FF"/>
<path d="M472.594 354.264H498.15C499.149 354.264 499.959 353.454 499.959 352.455C499.959 351.456 499.149 350.646 498.15 350.646H472.594C471.595 350.646 470.785 351.456 470.785 352.455C470.785 353.454 471.595 354.264 472.594 354.264Z" fill="#00A0FF"/>
<path d="M472.594 362.503H498.15C499.149 362.503 499.959 361.693 499.959 360.694C499.959 359.696 499.149 358.886 498.15 358.886H472.594C471.595 358.886 470.785 359.696 470.785 360.694C470.785 361.694 471.595 362.503 472.594 362.503Z" fill="#00A0FF"/>
<path d="M472.594 370.743H498.15C499.149 370.743 499.959 369.934 499.959 368.934C499.959 367.935 499.149 367.125 498.15 367.125H472.594C471.595 367.125 470.785 367.935 470.785 368.934C470.785 369.934 471.595 370.743 472.594 370.743Z" fill="#00A0FF"/>
<path d="M472.594 378.982H498.15C499.149 378.982 499.959 378.172 499.959 377.174C499.959 376.175 499.149 375.365 498.15 375.365H472.594C471.595 375.365 470.785 376.175 470.785 377.174C470.785 378.172 471.595 378.982 472.594 378.982Z" fill="#00A0FF"/>
<path d="M465.617 326.703C465.617 327.131 465.964 327.478 466.392 327.478C466.82 327.478 467.166 327.131 467.166 326.703C467.166 326.275 466.82 325.928 466.392 325.928C465.964 325.928 465.617 326.276 465.617 326.703Z" fill="#021147"/>
<path d="M465.617 328.771C465.617 329.199 465.964 329.546 466.392 329.546C466.82 329.546 467.166 329.199 467.166 328.771C467.166 328.343 466.82 327.997 466.392 327.997C465.964 327.997 465.617 328.344 465.617 328.771Z" fill="#00A0FF"/>
<path d="M465.617 334.942C465.617 335.37 465.964 335.717 466.392 335.717C466.82 335.717 467.166 335.37 467.166 334.942C467.166 334.514 466.82 334.168 466.392 334.168C465.964 334.168 465.617 334.514 465.617 334.942Z" fill="white"/>
<path d="M465.617 337.011C465.617 337.439 465.964 337.785 466.392 337.785C466.82 337.785 467.166 337.439 467.166 337.011C467.166 336.583 466.82 336.236 466.392 336.236C465.964 336.236 465.617 336.583 465.617 337.011Z" fill="#00A0FF"/>
<path d="M465.617 351.422C465.617 351.85 465.964 352.196 466.392 352.196C466.82 352.196 467.166 351.85 467.166 351.422C467.166 350.994 466.82 350.647 466.392 350.647C465.964 350.647 465.617 350.994 465.617 351.422Z" fill="white"/>
<path d="M465.617 353.49C465.617 353.918 465.964 354.265 466.392 354.265C466.82 354.265 467.166 353.918 467.166 353.49C467.166 353.062 466.82 352.715 466.392 352.715C465.964 352.715 465.617 353.062 465.617 353.49Z" fill="#00A0FF"/>
<path d="M465.617 343.182C465.617 343.61 465.964 343.957 466.392 343.957C466.82 343.957 467.166 343.61 467.166 343.182C467.166 342.754 466.82 342.407 466.392 342.407C465.964 342.407 465.617 342.754 465.617 343.182Z" fill="#021147"/>
<path d="M465.617 345.25C465.617 345.678 465.964 346.025 466.392 346.025C466.82 346.025 467.166 345.678 467.166 345.25C467.166 344.822 466.82 344.476 466.392 344.476C465.964 344.476 465.617 344.822 465.617 345.25Z" fill="#00A0FF"/>
<path d="M465.617 359.66C465.617 360.088 465.964 360.435 466.392 360.435C466.82 360.435 467.166 360.088 467.166 359.66C467.166 359.232 466.82 358.886 466.392 358.886C465.964 358.886 465.617 359.233 465.617 359.66Z" fill="#021147"/>
<path d="M465.617 361.729C465.617 362.157 465.964 362.504 466.392 362.504C466.82 362.504 467.166 362.157 467.166 361.729C467.166 361.301 466.82 360.955 466.392 360.955C465.964 360.955 465.617 361.301 465.617 361.729Z" fill="#00A0FF"/>
<path d="M465.617 367.9C465.617 368.328 465.964 368.674 466.392 368.674C466.82 368.674 467.166 368.328 467.166 367.9C467.166 367.472 466.82 367.125 466.392 367.125C465.964 367.125 465.617 367.473 465.617 367.9Z" fill="white"/>
<path d="M465.617 369.968C465.617 370.396 465.964 370.743 466.392 370.743C466.82 370.743 467.166 370.396 467.166 369.968C467.166 369.54 466.82 369.194 466.392 369.194C465.964 369.194 465.617 369.541 465.617 369.968Z" fill="#00A0FF"/>
<path d="M465.617 376.139C465.617 376.567 465.964 376.914 466.392 376.914C466.82 376.914 467.166 376.567 467.166 376.139C467.166 375.711 466.82 375.365 466.392 375.365C465.964 375.365 465.617 375.711 465.617 376.139Z" fill="#021147"/>
<path d="M465.617 378.208C465.617 378.636 465.964 378.982 466.392 378.982C466.82 378.982 467.166 378.636 467.166 378.208C467.166 377.78 466.82 377.433 466.392 377.433C465.964 377.433 465.617 377.78 465.617 378.208Z" fill="#00A0FF"/>
<path d="M468.969 316.812H495.891C495.891 315.167 494.557 313.833 492.912 313.833H471.949C470.303 313.833 468.969 315.167 468.969 316.812Z" fill="#0060E6"/>
<path d="M466.596 251.023V252.813H481.584V313.833H483.373V251.023H466.596Z" fill="#00A0FF"/>
<path d="M484.746 251.918C484.746 253.198 483.709 254.236 482.429 254.236C481.149 254.236 480.111 253.198 480.111 251.918C480.111 250.638 481.149 249.601 482.429 249.601C483.709 249.601 484.746 250.638 484.746 251.918Z" fill="#0060E6"/>
</svg>
