<svg width="625" height="500" viewBox="0 0 625 500" fill="none" xmlns="http://www.w3.org/2000/svg">
<path opacity="0.1" d="M3.87593 224.102C-14.9808 149.977 39.5345 115.057 69.1492 106.863C93.3239 101.19 164.519 81.1455 255.901 46.3518C347.284 11.5581 428.15 4.12028 457.161 4.7506C650.079 -34.5814 637.871 179.98 607.652 292.177C546.73 529.682 321.175 515.941 216.012 479.382C68.0596 453.665 12.9411 298.48 3.87593 224.102Z" fill="#0160E7"/>
<path d="M329.454 407.795C454.421 407.795 555.727 395.668 555.727 380.709C555.727 365.75 454.421 353.623 329.454 353.623C204.487 353.623 103.182 365.75 103.182 380.709C103.182 395.668 204.487 407.795 329.454 407.795Z" fill="#D9E4F5"/>
<path d="M213.097 64.3564C213.097 65.4255 212.661 66.4013 211.95 67.1063C211.25 67.8163 210.274 68.2525 209.205 68.2525H125.914C123.774 68.2525 122.021 66.4997 122.021 64.3564C122.021 63.2863 122.458 62.3115 123.168 61.6065C123.869 60.8965 124.844 60.4603 125.914 60.4603H129.85C131.405 56.8472 134.996 54.3215 139.175 54.3215C141.988 54.3215 144.532 55.4677 146.374 57.3148C148.828 53.1529 153.353 50.3584 158.535 50.3584C159.96 50.3584 161.33 50.5745 162.625 50.965C165.335 45.8689 170.692 42.3998 176.866 42.3998C184.281 42.3998 190.519 47.4067 192.402 54.219C193.768 53.5364 195.309 53.1448 196.945 53.1448C201.57 53.1448 205.471 56.2325 206.697 60.4603H209.205C211.344 60.4603 213.097 62.2131 213.097 64.3564Z" fill="#D9E4F5"/>
<path d="M512.694 66.2065C512.694 67.2756 512.258 68.2514 511.548 68.9564C510.847 69.6664 509.871 70.1026 508.802 70.1026H425.511C423.372 70.1026 421.619 68.3498 421.619 66.2065C421.619 65.1364 422.055 64.1616 422.765 63.4566C423.466 62.7466 424.441 62.3104 425.511 62.3104H429.448C431.003 58.6973 434.594 56.1716 438.773 56.1716C441.586 56.1716 444.13 57.3178 445.973 59.1649C448.426 55.003 452.951 52.2085 458.134 52.2085C459.558 52.2085 460.929 52.4246 462.223 52.8151C464.933 47.719 470.29 44.2499 476.465 44.2499C483.88 44.2499 490.118 49.2568 492.001 56.0691C493.367 55.3865 494.908 54.9949 496.544 54.9949C501.168 54.9949 505.07 58.0826 506.296 62.3114H508.803C510.942 62.3104 512.694 64.0632 512.694 66.2065Z" fill="#D9E4F5"/>
<path d="M377.079 92.2864C377.079 93.3565 376.643 94.3313 375.933 95.0363C375.232 95.7463 374.257 96.1825 373.187 96.1825H289.896C287.757 96.1825 286.004 94.4297 286.004 92.2864C286.004 91.2173 286.44 90.2415 287.15 89.5365C287.851 88.8265 288.827 88.3903 289.896 88.3903H293.833C295.388 84.7772 298.978 82.2515 303.158 82.2515C305.97 82.2515 308.514 83.3977 310.357 85.2448C312.811 81.0829 317.336 78.2884 322.518 78.2884C323.943 78.2884 325.314 78.5045 326.608 78.895C329.318 73.7989 334.675 70.3298 340.85 70.3298C348.265 70.3298 354.503 75.3367 356.385 82.149C357.752 81.4653 359.293 81.0748 360.929 81.0748C365.553 81.0748 369.454 84.1625 370.681 88.3913H373.188C375.326 88.3903 377.079 90.1431 377.079 92.2864Z" fill="#D9E4F5"/>
<path d="M482.752 246.489C487.529 237.952 496.664 220.028 500.593 201.519C506.463 173.863 519.542 172.645 524.321 180.563C537.446 202.308 501.912 239.582 490.619 250.58L482.752 246.489Z" fill="#C7D9ED"/>
<path d="M485.75 248.047C494.499 236.884 501.136 224.641 505.436 215.607C511.147 203.612 514.085 194.535 514.114 194.442C514.219 194.117 514.569 193.937 514.895 194.043C515.222 194.146 515.402 194.496 515.296 194.823C515.267 194.914 512.309 204.055 506.566 216.122C502.261 225.171 495.622 237.422 486.87 248.629L485.75 248.047Z" fill="#B4CAE3"/>
<path d="M169.384 327.999C165.002 319.253 156.693 300.932 153.612 282.263C149.008 254.367 135.999 252.554 130.865 260.245C116.762 281.368 150.558 320.225 161.339 331.727L169.384 327.999Z" fill="#C7D9ED"/>
<path d="M166.319 329.419C158.089 317.868 152.017 305.336 148.133 296.116C142.975 283.872 140.454 274.67 140.429 274.577C140.34 274.247 139.998 274.051 139.667 274.143C139.336 274.231 139.141 274.573 139.231 274.903C139.254 274.996 141.794 284.263 146.98 296.578C150.869 305.815 156.941 318.355 165.173 329.949L166.319 329.419Z" fill="#B4CAE3"/>
<path d="M180.085 353.425C170.624 343.889 149.958 321.537 136.938 296.161C118.254 259.743 99.5177 262.998 95.8417 275.872C86.3332 309.167 142.336 345.352 165.558 358.718L180.085 353.425Z" fill="#D9E4F5"/>
<path d="M174.97 355.289C158.666 343.061 144.881 328.596 135.514 317.68C122.988 303.084 115.443 291.513 115.367 291.397C115.097 290.982 114.541 290.863 114.125 291.135C113.708 291.404 113.589 291.961 113.861 292.377C113.934 292.493 121.533 304.145 134.131 318.829C143.384 329.615 156.925 343.846 172.959 356.022L174.97 355.289Z" fill="#C7D9ED"/>
<path d="M476.033 263.836C485.919 254.741 507.583 233.356 521.748 208.6C542.073 173.072 560.642 177.178 563.727 190.206C571.706 223.9 514.112 257.493 490.305 269.787L476.033 263.836Z" fill="#D9E4F5"/>
<path d="M481.059 265.931C497.904 254.459 512.334 240.638 522.188 230.161C535.367 216.151 543.432 204.937 543.513 204.823C543.801 204.421 544.363 204.328 544.767 204.618C545.171 204.905 545.265 205.467 544.974 205.871C544.896 205.984 536.773 217.276 523.519 231.371C513.785 241.724 499.608 255.322 483.035 266.754L481.059 265.931Z" fill="#C7D9ED"/>
<path d="M191.612 208.518C181.821 202.684 160.108 188.69 144.041 170.593C120.983 144.622 106.276 151.261 105.979 162.617C105.211 191.988 158.885 209.872 180.794 215.941L191.612 208.518Z" fill="#D9E4F5"/>
<path d="M187.804 211.13C171.819 204.533 157.432 195.563 147.425 188.575C134.044 179.232 125.397 171.321 125.309 171.241C125 170.957 124.517 170.977 124.233 171.289C123.947 171.598 123.967 172.081 124.279 172.365C124.364 172.445 133.073 180.411 146.531 189.812C156.415 196.718 170.554 205.545 186.306 212.158L187.804 211.13Z" fill="#C7D9ED"/>
<path d="M244.369 96.2242C245.995 80.9978 244.729 66.2806 237.15 69.911C229.565 73.5434 232.224 98.828 242.537 115.505L244.688 122.017C237.385 109.732 222.812 99.324 216.831 103.214C210.888 107.08 221.217 113.127 231.573 117.077C239.455 120.084 243.927 123.859 246.004 125.997L256.165 156.754C244.544 137.333 221.525 120.93 212.062 127.085C202.631 133.218 219.021 142.814 235.452 149.082C247.869 153.818 254.957 159.759 258.283 163.165L260.309 169.298C261.428 169.113 262.545 168.922 263.66 168.725L251.571 132.133C252.384 128.992 253.995 124.691 257.188 119.689C263.152 110.347 267.846 99.3372 260.77 99.7723C254.628 100.151 249.689 112.876 249.377 125.489L245.196 112.834C244.57 108.698 243.667 102.795 244.369 96.2242Z" fill="#C7D9ED"/>
<path d="M538.89 264.378C543.001 249.626 549.611 236.417 555.314 242.587C561.022 248.764 549.217 271.28 533.475 282.972L529.072 288.229C540.395 279.509 557.781 275.216 561.903 281.04C565.999 286.827 554.167 288.634 543.085 288.481C534.649 288.365 529.1 290.222 526.38 291.442L505.58 316.274C523.551 302.515 551 295.769 557.522 304.983C564.022 314.166 545.247 317.031 527.663 316.789C514.375 316.606 505.595 319.51 501.245 321.448L497.098 326.399C496.127 325.815 495.159 325.224 494.195 324.629L518.94 295.086C519.345 291.866 519.436 287.274 518.315 281.448C516.222 270.564 515.925 258.599 522.34 261.617C527.908 264.236 527.801 277.885 523.433 289.722L531.99 279.506C534.098 275.896 537.117 270.745 538.89 264.378Z" fill="#D9E4F5"/>
<path d="M517.137 150.88C514.418 150.88 512.207 148.669 512.207 145.951C512.207 143.232 514.418 141.021 517.137 141.021C519.855 141.021 522.066 143.232 522.066 145.951C522.066 148.669 519.855 150.88 517.137 150.88ZM517.137 142.568C515.271 142.568 513.754 144.085 513.754 145.951C513.754 147.816 515.271 149.334 517.137 149.334C519.002 149.334 520.52 147.816 520.52 145.951C520.521 144.085 519.002 142.568 517.137 142.568Z" fill="#007EFF"/>
<path d="M542.193 155.896C539.475 155.896 537.264 153.685 537.264 150.967C537.264 148.248 539.475 146.037 542.193 146.037C544.912 146.037 547.123 148.248 547.123 150.967C547.124 153.685 544.912 155.896 542.193 155.896ZM542.193 147.583C540.328 147.583 538.811 149.1 538.811 150.966C538.811 152.831 540.328 154.348 542.193 154.348C544.059 154.348 545.576 152.831 545.576 150.966C545.577 149.1 544.059 147.583 542.193 147.583Z" fill="#0060E6"/>
<path d="M554.062 165.962C553.635 165.962 553.289 165.616 553.289 165.189V161.778C553.289 161.351 553.635 161.005 554.062 161.005C554.489 161.005 554.835 161.351 554.835 161.778V165.189C554.835 165.616 554.489 165.962 554.062 165.962Z" fill="#007EFF"/>
<path d="M554.062 171.93C553.635 171.93 553.289 171.584 553.289 171.157V167.747C553.289 167.32 553.635 166.974 554.062 166.974C554.489 166.974 554.835 167.32 554.835 167.747V171.157C554.835 171.583 554.489 171.93 554.062 171.93Z" fill="#007EFF"/>
<path d="M558.857 167.241H555.793C555.366 167.241 555.02 166.894 555.02 166.467C555.02 166.04 555.365 165.694 555.793 165.694H558.857C559.284 165.694 559.63 166.04 559.63 166.467C559.63 166.894 559.284 167.241 558.857 167.241Z" fill="#007EFF"/>
<path d="M552.346 167.241H549.283C548.856 167.241 548.51 166.894 548.51 166.467C548.51 166.04 548.856 165.694 549.283 165.694H552.346C552.773 165.694 553.119 166.04 553.119 166.467C553.119 166.894 552.773 167.241 552.346 167.241Z" fill="#007EFF"/>
<path d="M527.74 160.401C527.313 160.401 526.967 160.055 526.967 159.628V156.218C526.967 155.791 527.314 155.445 527.74 155.445C528.167 155.445 528.514 155.791 528.514 156.218V159.628C528.514 160.054 528.168 160.401 527.74 160.401Z" fill="#0060E6"/>
<path d="M527.74 166.368C527.313 166.368 526.967 166.023 526.967 165.594V162.184C526.967 161.757 527.314 161.411 527.74 161.411C528.167 161.411 528.514 161.757 528.514 162.184V165.594C528.514 166.023 528.168 166.368 527.74 166.368Z" fill="#0060E6"/>
<path d="M532.516 161.679H529.453C529.026 161.679 528.68 161.333 528.68 160.906C528.68 160.479 529.026 160.133 529.453 160.133H532.516C532.943 160.133 533.289 160.479 533.289 160.906C533.289 161.333 532.942 161.679 532.516 161.679Z" fill="#0060E6"/>
<path d="M526.006 161.679H522.943C522.516 161.679 522.17 161.333 522.17 160.906C522.17 160.479 522.516 160.133 522.943 160.133H526.006C526.433 160.133 526.779 160.479 526.779 160.906C526.779 161.333 526.432 161.679 526.006 161.679Z" fill="#0060E6"/>
<path d="M115.635 244.066C115.635 246.785 113.424 248.996 110.705 248.996C107.987 248.996 105.775 246.785 105.775 244.066C105.775 241.348 107.987 239.136 110.705 239.136C113.424 239.136 115.635 241.349 115.635 244.066ZM107.321 244.066C107.321 245.932 108.839 247.449 110.704 247.449C112.569 247.449 114.087 245.932 114.087 244.066C114.087 242.201 112.569 240.683 110.704 240.683C108.839 240.683 107.321 242.201 107.321 244.066Z" fill="#007EFF"/>
<path d="M120.649 219.011C120.649 221.729 118.437 223.941 115.719 223.941C113 223.941 110.789 221.729 110.789 219.011C110.789 216.293 113 214.081 115.719 214.081C118.437 214.081 120.649 216.293 120.649 219.011ZM112.336 219.011C112.336 220.876 113.853 222.394 115.719 222.394C117.584 222.394 119.102 220.876 119.102 219.011C119.102 217.146 117.584 215.628 115.719 215.628C113.853 215.628 112.336 217.146 112.336 219.011Z" fill="#0060E6"/>
<path d="M130.714 207.139C130.714 207.566 130.368 207.912 129.941 207.912H126.531C126.104 207.912 125.758 207.566 125.758 207.139C125.758 206.712 126.104 206.366 126.531 206.366H129.941C130.367 206.366 130.714 206.712 130.714 207.139Z" fill="#007EFF"/>
<path d="M136.683 207.139C136.683 207.566 136.337 207.912 135.91 207.912H132.499C132.072 207.912 131.727 207.566 131.727 207.139C131.727 206.712 132.072 206.366 132.499 206.366H135.91C136.337 206.366 136.683 206.712 136.683 207.139Z" fill="#007EFF"/>
<path d="M131.991 202.352V205.416C131.991 205.843 131.645 206.189 131.218 206.189C130.791 206.189 130.445 205.843 130.445 205.416V202.352C130.445 201.925 130.791 201.579 131.218 201.579C131.645 201.578 131.991 201.925 131.991 202.352Z" fill="#007EFF"/>
<path d="M131.991 208.862V211.926C131.991 212.353 131.645 212.699 131.218 212.699C130.791 212.699 130.445 212.353 130.445 211.926V208.862C130.445 208.435 130.791 208.089 131.218 208.089C131.645 208.088 131.991 208.435 131.991 208.862Z" fill="#007EFF"/>
<path d="M125.151 233.47C125.151 233.897 124.806 234.243 124.378 234.243H120.968C120.541 234.243 120.195 233.897 120.195 233.47C120.195 233.043 120.541 232.697 120.968 232.697H124.378C124.806 232.697 125.151 233.043 125.151 233.47Z" fill="#0060E6"/>
<path d="M131.122 233.47C131.122 233.897 130.776 234.243 130.348 234.243H126.938C126.511 234.243 126.164 233.897 126.164 233.47C126.164 233.043 126.51 232.697 126.938 232.697H130.348C130.775 232.697 131.122 233.043 131.122 233.47Z" fill="#0060E6"/>
<path d="M126.431 228.683V231.746C126.431 232.173 126.085 232.519 125.658 232.519C125.231 232.519 124.885 232.173 124.885 231.746V228.683C124.885 228.256 125.231 227.91 125.658 227.91C126.085 227.91 126.431 228.256 126.431 228.683Z" fill="#0060E6"/>
<path d="M126.431 235.193V238.257C126.431 238.684 126.085 239.029 125.658 239.029C125.231 239.029 124.885 238.684 124.885 238.257V235.193C124.885 234.766 125.231 234.42 125.658 234.42C126.085 234.42 126.431 234.766 126.431 235.193Z" fill="#0060E6"/>
<path d="M146.248 105.412C146.041 104.364 145.628 103.352 145.015 102.448C144.608 101.845 144.113 101.29 143.533 100.804C140.109 97.9363 135.007 98.3918 132.148 101.82C129.943 104.466 129.717 108.104 131.305 110.939L122.209 121.85C121.438 122.774 121.562 124.151 122.488 124.923L123.533 125.794C124.09 126.26 124.705 126.647 125.362 126.951C126.016 127.253 126.71 127.471 127.427 127.596C127.913 127.681 128.352 127.486 128.628 127.154C128.903 126.823 129.018 126.356 128.848 125.891L128.08 123.806L130.269 124.186C130.755 124.273 131.194 124.076 131.47 123.745C131.745 123.415 131.858 122.947 131.69 122.483L130.922 120.398L133.111 120.777C133.597 120.863 134.035 120.667 134.313 120.335C134.588 120.004 134.704 119.538 134.533 119.072L133.764 116.99L135.731 114.629C137.021 115.072 138.391 115.173 139.711 114.948C141.613 114.623 143.412 113.616 144.705 111.966C144.836 111.799 144.959 111.63 145.072 111.455C145.216 111.243 145.345 111.024 145.463 110.801C146.358 109.128 146.607 107.215 146.248 105.412ZM137.624 103.517C138.615 102.326 140.384 102.165 141.573 103.157C141.741 103.297 141.889 103.451 142.014 103.62C142.785 104.635 142.782 106.085 141.931 107.106C141.841 107.213 141.745 107.313 141.642 107.403C141.39 107.628 141.105 107.802 140.801 107.92C140.757 107.937 140.712 107.954 140.665 107.968C140.458 108.038 140.245 108.082 140.03 108.101C139.965 108.108 139.899 108.111 139.835 108.112C139.77 108.114 139.704 108.114 139.639 108.109C139.582 108.108 139.524 108.103 139.465 108.095C139.405 108.089 139.345 108.081 139.286 108.07C139.281 108.07 139.275 108.068 139.269 108.068C139.218 108.059 139.167 108.047 139.118 108.033C139.075 108.025 139.033 108.014 138.991 108.001C138.953 107.991 138.913 107.978 138.877 107.964C138.82 107.947 138.763 107.927 138.707 107.9C138.63 107.87 138.554 107.835 138.481 107.796C138.306 107.707 138.138 107.594 137.981 107.463C136.902 106.562 136.672 105.018 137.383 103.853C137.454 103.736 137.534 103.624 137.624 103.517Z" fill="#00A0FF"/>
<path d="M132.818 115.204C132.973 115.333 132.994 115.567 132.864 115.722L125.718 124.293C125.589 124.448 125.355 124.47 125.2 124.34C125.045 124.21 125.024 123.977 125.153 123.821L132.3 115.25C132.429 115.095 132.663 115.074 132.818 115.204Z" fill="#007EFF"/>
<path d="M131.216 113.869C131.371 113.998 131.393 114.232 131.263 114.387L124.117 122.958C123.987 123.113 123.754 123.135 123.599 123.005C123.443 122.875 123.422 122.642 123.552 122.487L130.699 113.915C130.828 113.76 131.061 113.739 131.216 113.869Z" fill="#007EFF"/>
<path d="M141.644 107.403C141.573 107.52 141.493 107.634 141.404 107.741C140.677 108.613 139.532 108.932 138.505 108.648C138.131 108.545 137.773 108.364 137.456 108.098C136.266 107.105 136.107 105.339 137.098 104.148C137.188 104.042 137.283 103.943 137.386 103.853C136.675 105.018 136.904 106.562 137.984 107.463C138.141 107.594 138.31 107.707 138.484 107.796C138.557 107.835 138.634 107.87 138.71 107.9C138.766 107.926 138.823 107.946 138.88 107.964C138.916 107.977 138.956 107.991 138.994 108.001C139.036 108.014 139.078 108.025 139.121 108.033C139.171 108.047 139.222 108.059 139.272 108.068C139.278 108.068 139.284 108.071 139.289 108.07C139.348 108.08 139.408 108.089 139.468 108.095C139.527 108.103 139.584 108.108 139.642 108.109C139.705 108.113 139.772 108.113 139.838 108.112C139.902 108.112 139.968 108.108 140.033 108.101C140.248 108.082 140.461 108.038 140.668 107.968C140.715 107.954 140.76 107.937 140.804 107.92C141.106 107.802 141.391 107.63 141.644 107.403Z" fill="#007EFF"/>
<path d="M143.732 108.472C143.718 108.336 143.715 108.199 143.721 108.058C143.795 106.652 144.89 105.541 146.25 105.412C146.043 104.364 145.63 103.352 145.016 102.448C143.929 102.634 142.911 103.039 142.016 103.62C142.787 104.635 142.784 106.085 141.933 107.106C141.842 107.213 141.747 107.313 141.644 107.403C141.392 107.628 141.107 107.802 140.803 107.92C140.759 107.937 140.713 107.954 140.667 107.968C140.46 108.038 140.247 108.082 140.032 108.101C139.967 108.108 139.901 108.111 139.837 108.112C139.77 108.113 139.704 108.113 139.64 108.109C139.583 108.108 139.526 108.103 139.467 108.095C139.407 108.089 139.347 108.081 139.287 108.07C139.283 108.07 139.277 108.068 139.271 108.068C139.219 108.059 139.169 108.047 139.12 108.033C139.076 108.025 139.035 108.014 138.993 108.001C138.955 107.991 138.915 107.978 138.878 107.964C138.822 107.947 138.765 107.927 138.709 107.9C138.629 108.144 138.561 108.394 138.504 108.647C138.41 109.08 138.348 109.525 138.324 109.982C138.228 111.815 138.753 113.537 139.712 114.946C141.615 114.621 143.414 113.614 144.707 111.964C144.838 111.797 144.96 111.628 145.074 111.453C145.218 111.241 145.347 111.022 145.465 110.799C144.512 110.413 143.829 109.521 143.732 108.472Z" fill="#007EFF"/>
<path d="M156.184 111.016C156.279 106.694 152.872 103.022 148.553 102.786C144.093 102.542 140.284 105.967 140.052 110.425C139.873 113.862 141.873 116.912 144.843 118.227L144.102 132.413C144.04 133.616 144.965 134.645 146.168 134.707L147.527 134.778C148.252 134.816 148.977 134.758 149.683 134.607C150.389 134.456 151.076 134.215 151.723 133.885C152.165 133.661 152.398 133.242 152.42 132.811C152.442 132.38 152.254 131.938 151.839 131.667L149.976 130.459L151.955 129.452C152.396 129.23 152.629 128.81 152.651 128.38C152.674 127.95 152.485 127.508 152.07 127.237L150.207 126.029L152.186 125.019C152.627 124.795 152.86 124.377 152.883 123.945C152.905 123.515 152.716 123.073 152.301 122.802L150.438 121.596L150.598 118.528C153.764 117.505 156.105 114.568 156.184 111.016ZM150.996 109.202C150.727 110.54 149.509 111.517 148.103 111.443C146.698 111.37 145.587 110.272 145.46 108.913C145.446 108.776 145.442 108.638 145.45 108.498C145.531 106.951 146.848 105.762 148.395 105.842C149.942 105.923 151.13 107.243 151.049 108.79C151.042 108.93 151.023 109.067 150.996 109.202Z" fill="#00A0FF"/>
<path d="M148.611 120.733C148.813 120.743 148.97 120.917 148.959 121.119L148.378 132.264C148.367 132.466 148.193 132.623 147.991 132.612C147.789 132.602 147.632 132.427 147.643 132.225L148.224 121.081C148.236 120.879 148.409 120.723 148.611 120.733Z" fill="#007EFF"/>
<path d="M146.529 120.624C146.731 120.634 146.888 120.809 146.877 121.011L146.295 132.155C146.285 132.357 146.111 132.514 145.909 132.503C145.707 132.493 145.55 132.319 145.561 132.117L146.142 120.972C146.152 120.77 146.327 120.614 146.529 120.624Z" fill="#007EFF"/>
<path d="M151.005 109.616C150.925 111.162 149.605 112.349 148.06 112.269C146.513 112.188 145.325 110.87 145.406 109.323C145.413 109.183 145.432 109.047 145.459 108.914C145.587 110.272 146.698 111.371 148.102 111.444C149.508 111.517 150.727 110.541 150.995 109.203C151.01 109.338 151.014 109.476 151.005 109.616Z" fill="#007EFF"/>
<path d="M150.225 92.2155C145.524 90.2142 140.072 92.4082 138.071 97.1087C137.812 97.7173 137.623 98.3391 137.502 98.965C138.667 98.8402 139.86 98.969 140.988 99.3595C141.06 99.0634 141.159 98.7672 141.282 98.476C142.53 95.5466 145.929 94.1793 148.859 95.4269C151.789 96.6746 153.157 100.073 151.911 103.002C151.825 103.203 151.728 103.398 151.623 103.584C152.694 104.107 153.633 104.859 154.376 105.774C154.66 105.336 154.91 104.865 155.122 104.369C157.122 99.6689 154.925 94.2168 150.225 92.2155ZM149.056 105.96C148.244 106.344 147.343 106.538 146.428 106.514C146.417 106.513 146.407 106.513 146.395 106.512C145.704 106.489 145.006 106.34 144.332 106.053C143.681 105.776 143.106 105.392 142.621 104.931C142.596 104.907 142.572 104.884 142.548 104.86C141.984 104.304 141.545 103.642 141.251 102.923C140.125 102.228 138.641 102.417 137.725 103.406C138.238 105.108 139.233 106.654 140.624 107.827C140.669 107.864 140.712 107.901 140.759 107.937C140.84 108.004 140.922 108.069 141.008 108.133C141.6 108.58 142.253 108.962 142.965 109.266C143.775 109.611 144.607 109.831 145.441 109.935C145.553 109.948 145.665 109.96 145.778 109.971C145.801 109.973 145.826 109.976 145.85 109.976C147.668 110.123 149.474 109.722 151.043 108.865C151.048 108.841 151.048 108.817 151.05 108.794C151.118 107.474 150.267 106.321 149.056 105.96Z" fill="#3B3E7D"/>
<path d="M111.831 140.763H109.704C109.151 140.763 108.703 140.315 108.703 139.762V137.635C108.703 137.082 109.151 136.634 109.704 136.634C110.257 136.634 110.705 137.082 110.705 137.635V138.761H111.831C112.384 138.761 112.833 139.209 112.833 139.762C112.833 140.315 112.384 140.763 111.831 140.763Z" fill="#B4CAE3"/>
<path d="M169.36 140.763H165.126C164.573 140.763 164.125 140.315 164.125 139.762C164.125 139.209 164.573 138.761 165.126 138.761H169.36C169.913 138.761 170.361 139.209 170.361 139.762C170.361 140.315 169.913 140.763 169.36 140.763ZM161.141 140.763H156.907C156.354 140.763 155.906 140.315 155.906 139.762C155.906 139.209 156.354 138.761 156.907 138.761H161.141C161.694 138.761 162.142 139.209 162.142 139.762C162.142 140.315 161.694 140.763 161.141 140.763ZM152.922 140.763H148.688C148.135 140.763 147.687 140.315 147.687 139.762C147.687 139.209 148.135 138.761 148.688 138.761H152.922C153.474 138.761 153.923 139.209 153.923 139.762C153.923 140.315 153.474 140.763 152.922 140.763ZM144.702 140.763H140.468C139.916 140.763 139.467 140.315 139.467 139.762C139.467 139.209 139.916 138.761 140.468 138.761H144.702C145.255 138.761 145.704 139.209 145.704 139.762C145.704 140.315 145.255 140.763 144.702 140.763ZM136.483 140.763H132.249C131.696 140.763 131.248 140.315 131.248 139.762C131.248 139.209 131.696 138.761 132.249 138.761H136.483C137.036 138.761 137.484 139.209 137.484 139.762C137.484 140.315 137.036 140.763 136.483 140.763ZM128.265 140.763H124.031C123.478 140.763 123.03 140.315 123.03 139.762C123.03 139.209 123.478 138.761 124.031 138.761H128.265C128.818 138.761 129.266 139.209 129.266 139.762C129.265 140.315 128.817 140.763 128.265 140.763ZM120.046 140.763H115.812C115.259 140.763 114.811 140.315 114.811 139.762C114.811 139.209 115.259 138.761 115.812 138.761H120.046C120.598 138.761 121.047 139.209 121.047 139.762C121.046 140.315 120.598 140.763 120.046 140.763Z" fill="#B4CAE3"/>
<path d="M175.472 140.763H173.345C172.792 140.763 172.344 140.315 172.344 139.762C172.344 139.209 172.792 138.761 173.345 138.761H174.471V137.635C174.471 137.082 174.919 136.634 175.472 136.634C176.025 136.634 176.473 137.082 176.473 137.635V139.762C176.473 140.315 176.025 140.763 175.472 140.763Z" fill="#B4CAE3"/>
<path d="M175.474 134.804C174.921 134.804 174.473 134.355 174.473 133.803V129.731C174.473 129.178 174.921 128.73 175.474 128.73C176.027 128.73 176.475 129.178 176.475 129.731V133.803C176.475 134.356 176.027 134.804 175.474 134.804ZM175.474 126.901C174.921 126.901 174.473 126.453 174.473 125.9V121.828C174.473 121.275 174.921 120.827 175.474 120.827C176.027 120.827 176.475 121.275 176.475 121.828V125.9C176.475 126.453 176.027 126.901 175.474 126.901ZM175.474 118.997C174.921 118.997 174.473 118.549 174.473 117.996V113.924C174.473 113.372 174.921 112.923 175.474 112.923C176.027 112.923 176.475 113.372 176.475 113.924V117.996C176.475 118.55 176.027 118.997 175.474 118.997ZM175.474 111.094C174.921 111.094 174.473 110.646 174.473 110.093V106.022C174.473 105.469 174.921 105.021 175.474 105.021C176.027 105.021 176.475 105.469 176.475 106.022V110.093C176.475 110.646 176.027 111.094 175.474 111.094ZM175.474 103.191C174.921 103.191 174.473 102.742 174.473 102.189V98.1179C174.473 97.5651 174.921 97.1167 175.474 97.1167C176.027 97.1167 176.475 97.5651 176.475 98.1179V102.189C176.475 102.742 176.027 103.191 175.474 103.191ZM175.474 95.2878C174.921 95.2878 174.473 94.8395 174.473 94.2867V90.2151C174.473 89.6623 174.921 89.2139 175.474 89.2139C176.027 89.2139 176.475 89.6623 176.475 90.2151V94.2867C176.475 94.8395 176.027 95.2878 175.474 95.2878Z" fill="#B4CAE3"/>
<path d="M175.472 87.384C174.919 87.384 174.471 86.9356 174.471 86.3828V85.2569H173.345C172.792 85.2569 172.344 84.8086 172.344 84.2557C172.344 83.7029 172.792 83.2546 173.345 83.2546H175.472C176.025 83.2546 176.473 83.7029 176.473 84.2557V86.3828C176.473 86.9356 176.025 87.384 175.472 87.384Z" fill="#B4CAE3"/>
<path d="M169.36 85.2569H165.126C164.573 85.2569 164.125 84.8086 164.125 84.2557C164.125 83.7029 164.573 83.2546 165.126 83.2546H169.36C169.913 83.2546 170.361 83.7029 170.361 84.2557C170.361 84.8096 169.913 85.2569 169.36 85.2569ZM161.141 85.2569H156.907C156.354 85.2569 155.906 84.8086 155.906 84.2557C155.906 83.7029 156.354 83.2546 156.907 83.2546H161.141C161.694 83.2546 162.142 83.7029 162.142 84.2557C162.142 84.8096 161.694 85.2569 161.141 85.2569ZM152.922 85.2569H148.688C148.135 85.2569 147.687 84.8086 147.687 84.2557C147.687 83.7029 148.135 83.2546 148.688 83.2546H152.922C153.474 83.2546 153.923 83.7029 153.923 84.2557C153.923 84.8096 153.474 85.2569 152.922 85.2569ZM144.702 85.2569H140.468C139.916 85.2569 139.467 84.8086 139.467 84.2557C139.467 83.7029 139.916 83.2546 140.468 83.2546H144.702C145.255 83.2546 145.704 83.7029 145.704 84.2557C145.704 84.8096 145.255 85.2569 144.702 85.2569ZM136.483 85.2569H132.249C131.696 85.2569 131.248 84.8086 131.248 84.2557C131.248 83.7029 131.696 83.2546 132.249 83.2546H136.483C137.036 83.2546 137.484 83.7029 137.484 84.2557C137.484 84.8096 137.036 85.2569 136.483 85.2569ZM128.265 85.2569H124.031C123.478 85.2569 123.03 84.8086 123.03 84.2557C123.03 83.7029 123.478 83.2546 124.031 83.2546H128.265C128.818 83.2546 129.266 83.7029 129.266 84.2557C129.265 84.8096 128.817 85.2569 128.265 85.2569ZM120.046 85.2569H115.812C115.259 85.2569 114.811 84.8086 114.811 84.2557C114.811 83.7029 115.259 83.2546 115.812 83.2546H120.046C120.598 83.2546 121.047 83.7029 121.047 84.2557C121.046 84.8096 120.598 85.2569 120.046 85.2569Z" fill="#B4CAE3"/>
<path d="M109.704 87.384C109.151 87.384 108.703 86.9356 108.703 86.3828V84.2557C108.703 83.7029 109.151 83.2546 109.704 83.2546H111.831C112.384 83.2546 112.833 83.7029 112.833 84.2557C112.833 84.8086 112.384 85.2569 111.831 85.2569H110.705V86.3828C110.705 86.9356 110.257 87.384 109.704 87.384Z" fill="#B4CAE3"/>
<path d="M109.704 134.804C109.151 134.804 108.703 134.355 108.703 133.803V129.731C108.703 129.178 109.151 128.73 109.704 128.73C110.257 128.73 110.705 129.178 110.705 129.731V133.803C110.705 134.356 110.257 134.804 109.704 134.804ZM109.704 126.901C109.151 126.901 108.703 126.453 108.703 125.9V121.828C108.703 121.275 109.151 120.827 109.704 120.827C110.257 120.827 110.705 121.275 110.705 121.828V125.9C110.705 126.453 110.257 126.901 109.704 126.901ZM109.704 118.997C109.151 118.997 108.703 118.549 108.703 117.996V113.924C108.703 113.372 109.151 112.923 109.704 112.923C110.257 112.923 110.705 113.372 110.705 113.924V117.996C110.705 118.55 110.257 118.997 109.704 118.997ZM109.704 111.094C109.151 111.094 108.703 110.646 108.703 110.093V106.022C108.703 105.469 109.151 105.021 109.704 105.021C110.257 105.021 110.705 105.469 110.705 106.022V110.093C110.705 110.646 110.257 111.094 109.704 111.094ZM109.704 103.191C109.151 103.191 108.703 102.742 108.703 102.189V98.1179C108.703 97.5651 109.151 97.1167 109.704 97.1167C110.257 97.1167 110.705 97.5651 110.705 98.1179V102.189C110.705 102.742 110.257 103.191 109.704 103.191ZM109.704 95.2878C109.151 95.2878 108.703 94.8395 108.703 94.2867V90.2151C108.703 89.6623 109.151 89.2139 109.704 89.2139C110.257 89.2139 110.705 89.6623 110.705 90.2151V94.2867C110.705 94.8395 110.257 95.2878 109.704 95.2878Z" fill="#B4CAE3"/>
<path d="M203.836 154.476C203.284 154.476 202.835 154.028 202.835 153.475V149.222C202.835 148.669 203.284 148.221 203.836 148.221C204.389 148.221 204.838 148.669 204.838 149.222V153.475C204.838 154.028 204.389 154.476 203.836 154.476ZM203.836 146.219C203.284 146.219 202.835 145.771 202.835 145.218V140.965C202.835 140.412 203.284 139.964 203.836 139.964C204.389 139.964 204.838 140.412 204.838 140.965V145.218C204.838 145.772 204.389 146.219 203.836 146.219ZM203.836 137.963C203.284 137.963 202.835 137.515 202.835 136.962V132.709C202.835 132.156 203.284 131.708 203.836 131.708C204.389 131.708 204.838 132.156 204.838 132.709V136.962C204.838 137.515 204.389 137.963 203.836 137.963ZM203.836 129.707C203.284 129.707 202.835 129.258 202.835 128.706V124.452C202.835 123.9 203.284 123.451 203.836 123.451C204.389 123.451 204.838 123.9 204.838 124.452V128.706C204.838 129.258 204.389 129.707 203.836 129.707ZM203.836 121.45C203.284 121.45 202.835 121.002 202.835 120.449V116.196C202.835 115.643 203.284 115.194 203.836 115.194C204.389 115.194 204.838 115.643 204.838 116.196V120.449C204.838 121.002 204.389 121.45 203.836 121.45ZM200.403 116.628H196.15C195.597 116.628 195.149 116.179 195.149 115.627C195.149 115.074 195.597 114.625 196.15 114.625H200.403C200.956 114.625 201.404 115.074 201.404 115.627C201.404 116.179 200.956 116.628 200.403 116.628ZM192.146 116.628H187.893C187.34 116.628 186.892 116.179 186.892 115.627C186.892 115.074 187.34 114.625 187.893 114.625H192.146C192.699 114.625 193.147 115.074 193.147 115.627C193.147 116.179 192.699 116.628 192.146 116.628ZM183.889 116.628H179.636C179.083 116.628 178.635 116.179 178.635 115.627C178.635 115.074 179.083 114.625 179.636 114.625H183.889C184.442 114.625 184.89 115.074 184.89 115.627C184.89 116.179 184.442 116.628 183.889 116.628ZM175.633 116.628H175.542C174.989 116.628 174.541 116.179 174.541 115.627C174.541 115.074 174.989 114.625 175.542 114.625H175.633C176.186 114.625 176.635 115.074 176.635 115.627C176.634 116.179 176.186 116.628 175.633 116.628Z" fill="#B4CAE3"/>
<path d="M424.574 110.846L424.404 116.782L429.966 116.941C430.205 118.356 430.683 119.734 431.38 121.03L427.439 124.75L431.516 129.068L435.288 125.507C436.766 126.58 438.418 127.321 440.137 127.714L439.977 133.277L445.913 133.447L446.077 127.714C447.245 127.452 448.381 127.032 449.461 126.45L453.181 130.392L457.499 126.316L453.938 122.544C455.011 121.066 455.752 119.415 456.145 117.696L461.008 117.837L461.179 111.9L456.146 111.756C455.812 110.264 455.225 108.821 454.372 107.492L458.146 103.931L454.069 99.6128L450.127 103.333C448.669 102.436 447.075 101.845 445.431 101.559L445.592 95.9632L439.656 95.7928L439.482 101.86C438.241 102.21 437.043 102.742 435.924 103.461L432.363 99.6879L428.045 103.765L431.765 107.705C431.123 108.749 430.638 109.86 430.309 111.012L424.574 110.846ZM439.394 110.742C441.577 108.682 445.028 108.78 447.089 110.963C449.149 113.146 449.051 116.598 446.868 118.658C444.685 120.718 441.233 120.62 439.173 118.437C437.112 116.254 437.211 112.803 439.394 110.742Z" fill="#007EFF"/>
<path d="M444.056 123.28C448.858 122.763 452.333 118.452 451.817 113.649C451.301 108.847 446.99 105.372 442.187 105.889C437.385 106.405 433.91 110.716 434.426 115.519C434.943 120.321 439.254 123.796 444.056 123.28ZM439.398 110.742C441.581 108.682 445.032 108.781 447.093 110.963C449.153 113.146 449.055 116.598 446.872 118.658C444.689 120.718 441.237 120.62 439.177 118.437C437.116 116.254 437.215 112.803 439.398 110.742Z" fill="#0060E6"/>
<path d="M463.637 113.377L463.539 116.823L466.769 116.916C466.908 117.737 467.185 118.538 467.589 119.29L465.301 121.451L467.668 123.958L469.858 121.89C470.717 122.513 471.676 122.943 472.674 123.172L472.581 126.403L476.029 126.501L476.124 123.172C476.803 123.02 477.463 122.775 478.089 122.438L480.249 124.727L482.757 122.36L480.689 120.17C481.311 119.311 481.742 118.352 481.97 117.354L484.794 117.435L484.893 113.988L481.97 113.904C481.775 113.039 481.435 112.2 480.939 111.428L483.13 109.36L480.763 106.852L478.473 109.013C477.626 108.491 476.701 108.149 475.746 107.982L475.84 104.732L472.393 104.634L472.292 108.157C471.572 108.36 470.876 108.669 470.227 109.087L468.158 106.896L465.651 109.263L467.811 111.552C467.439 112.157 467.157 112.802 466.966 113.472L463.637 113.377ZM472.244 113.317C473.512 112.12 475.515 112.178 476.712 113.445C477.909 114.713 477.852 116.717 476.584 117.914C475.316 119.111 473.311 119.053 472.115 117.785C470.919 116.518 470.976 114.514 472.244 113.317Z" fill="#007EFF"/>
<path d="M474.952 120.597C477.74 120.296 479.758 117.793 479.458 115.005C479.159 112.216 476.655 110.199 473.866 110.498C471.078 110.798 469.06 113.302 469.359 116.09C469.659 118.879 472.163 120.897 474.952 120.597ZM472.246 113.317C473.514 112.12 475.518 112.178 476.715 113.446C477.911 114.713 477.854 116.717 476.586 117.914C475.318 119.111 473.313 119.053 472.118 117.785C470.922 116.518 470.978 114.514 472.246 113.317Z" fill="#0060E6"/>
<path d="M500.49 140.763H498.362C497.81 140.763 497.361 140.314 497.361 139.762C497.361 139.209 497.81 138.76 498.362 138.76H499.488V137.635C499.488 137.082 499.937 136.633 500.49 136.633C501.042 136.633 501.491 137.082 501.491 137.635V139.762C501.491 140.314 501.042 140.763 500.49 140.763Z" fill="#B4CAE3"/>
<path d="M494.322 140.763H490.026C489.473 140.763 489.025 140.314 489.025 139.762C489.025 139.209 489.473 138.76 490.026 138.76H494.322C494.875 138.76 495.323 139.209 495.323 139.762C495.323 140.314 494.875 140.763 494.322 140.763ZM485.984 140.763H481.688C481.135 140.763 480.687 140.314 480.687 139.762C480.687 139.209 481.135 138.76 481.688 138.76H485.984C486.537 138.76 486.985 139.209 486.985 139.762C486.985 140.314 486.537 140.763 485.984 140.763ZM477.646 140.763H473.35C472.797 140.763 472.349 140.314 472.349 139.762C472.349 139.209 472.797 138.76 473.35 138.76H477.646C478.199 138.76 478.647 139.209 478.647 139.762C478.647 140.314 478.199 140.763 477.646 140.763ZM469.308 140.763H465.012C464.459 140.763 464.011 140.314 464.011 139.762C464.011 139.209 464.459 138.76 465.012 138.76H469.308C469.861 138.76 470.309 139.209 470.309 139.762C470.308 140.314 469.861 140.763 469.308 140.763ZM460.97 140.763H456.674C456.121 140.763 455.673 140.314 455.673 139.762C455.673 139.209 456.121 138.76 456.674 138.76H460.97C461.523 138.76 461.971 139.209 461.971 139.762C461.97 140.314 461.522 140.763 460.97 140.763ZM452.631 140.763H448.335C447.783 140.763 447.334 140.314 447.334 139.762C447.334 139.209 447.783 138.76 448.335 138.76H452.631C453.184 138.76 453.632 139.209 453.632 139.762C453.632 140.314 453.184 140.763 452.631 140.763ZM444.293 140.763H439.997C439.445 140.763 438.996 140.314 438.996 139.762C438.996 139.209 439.445 138.76 439.997 138.76H444.293C444.846 138.76 445.294 139.209 445.294 139.762C445.294 140.314 444.846 140.763 444.293 140.763ZM435.955 140.763H431.659C431.107 140.763 430.658 140.314 430.658 139.762C430.658 139.209 431.107 138.76 431.659 138.76H435.955C436.508 138.76 436.956 139.209 436.956 139.762C436.956 140.314 436.508 140.763 435.955 140.763ZM427.617 140.763H423.322C422.769 140.763 422.32 140.314 422.32 139.762C422.32 139.209 422.769 138.76 423.322 138.76H427.617C428.17 138.76 428.618 139.209 428.618 139.762C428.617 140.314 428.17 140.763 427.617 140.763ZM419.279 140.763H414.984C414.431 140.763 413.982 140.314 413.982 139.762C413.982 139.209 414.431 138.76 414.984 138.76H419.279C419.832 138.76 420.281 139.209 420.281 139.762C420.28 140.314 419.831 140.763 419.279 140.763Z" fill="#B4CAE3"/>
<path d="M410.943 140.763H408.816C408.263 140.763 407.814 140.314 407.814 139.762V137.635C407.814 137.082 408.263 136.633 408.816 136.633C409.368 136.633 409.817 137.082 409.817 137.635V138.76H410.943C411.496 138.76 411.944 139.209 411.944 139.762C411.944 140.314 411.496 140.763 410.943 140.763Z" fill="#B4CAE3"/>
<path d="M408.818 134.537C408.265 134.537 407.816 134.088 407.816 133.536V129.18C407.816 128.627 408.265 128.179 408.818 128.179C409.37 128.179 409.819 128.627 409.819 129.18V133.536C409.818 134.088 409.37 134.537 408.818 134.537ZM408.818 126.083C408.265 126.083 407.816 125.635 407.816 125.082V120.726C407.816 120.174 408.265 119.725 408.818 119.725C409.37 119.725 409.819 120.174 409.819 120.726V125.082C409.818 125.635 409.37 126.083 408.818 126.083ZM408.818 117.629C408.265 117.629 407.816 117.18 407.816 116.628V112.272C407.816 111.719 408.265 111.271 408.818 111.271C409.37 111.271 409.819 111.719 409.819 112.272V116.628C409.818 117.181 409.37 117.629 408.818 117.629ZM408.818 109.175C408.265 109.175 407.816 108.727 407.816 108.174V103.818C407.816 103.265 408.265 102.817 408.818 102.817C409.37 102.817 409.819 103.265 409.819 103.818V108.174C409.818 108.727 409.37 109.175 408.818 109.175ZM408.818 100.721C408.265 100.721 407.816 100.272 407.816 99.7193V95.3647C407.816 94.8119 408.265 94.3636 408.818 94.3636C409.37 94.3636 409.819 94.8119 409.819 95.3647V99.7193C409.818 100.273 409.37 100.721 408.818 100.721Z" fill="#B4CAE3"/>
<path d="M408.818 92.2668C408.265 92.2668 407.816 91.8185 407.816 91.2656V89.1386C407.816 88.5857 408.265 88.1374 408.818 88.1374H410.945C411.497 88.1374 411.946 88.5857 411.946 89.1386C411.946 89.6914 411.497 90.1397 410.945 90.1397H409.819V91.2656C409.818 91.8185 409.37 92.2668 408.818 92.2668Z" fill="#B4CAE3"/>
<path d="M494.323 90.1397H490.027C489.474 90.1397 489.026 89.6914 489.026 89.1386C489.026 88.5857 489.474 88.1374 490.027 88.1374H494.323C494.876 88.1374 495.324 88.5857 495.324 89.1386C495.324 89.6914 494.875 90.1397 494.323 90.1397ZM485.984 90.1397H481.688C481.135 90.1397 480.687 89.6914 480.687 89.1386C480.687 88.5857 481.135 88.1374 481.688 88.1374H485.984C486.537 88.1374 486.985 88.5857 486.985 89.1386C486.985 89.6914 486.537 90.1397 485.984 90.1397ZM477.646 90.1397H473.35C472.797 90.1397 472.349 89.6914 472.349 89.1386C472.349 88.5857 472.797 88.1374 473.35 88.1374H477.646C478.199 88.1374 478.647 88.5857 478.647 89.1386C478.647 89.6914 478.199 90.1397 477.646 90.1397ZM469.308 90.1397H465.012C464.459 90.1397 464.011 89.6914 464.011 89.1386C464.011 88.5857 464.459 88.1374 465.012 88.1374H469.308C469.861 88.1374 470.309 88.5857 470.309 89.1386C470.309 89.6914 469.861 90.1397 469.308 90.1397ZM460.97 90.1397H456.674C456.121 90.1397 455.673 89.6914 455.673 89.1386C455.673 88.5857 456.121 88.1374 456.674 88.1374H460.97C461.523 88.1374 461.971 88.5857 461.971 89.1386C461.971 89.6914 461.522 90.1397 460.97 90.1397ZM452.631 90.1397H448.335C447.783 90.1397 447.334 89.6914 447.334 89.1386C447.334 88.5857 447.783 88.1374 448.335 88.1374H452.631C453.184 88.1374 453.632 88.5857 453.632 89.1386C453.632 89.6914 453.184 90.1397 452.631 90.1397ZM444.293 90.1397H439.997C439.445 90.1397 438.996 89.6914 438.996 89.1386C438.996 88.5857 439.445 88.1374 439.997 88.1374H444.293C444.846 88.1374 445.294 88.5857 445.294 89.1386C445.294 89.6914 444.846 90.1397 444.293 90.1397ZM435.955 90.1397H431.659C431.107 90.1397 430.658 89.6914 430.658 89.1386C430.658 88.5857 431.107 88.1374 431.659 88.1374H435.955C436.508 88.1374 436.956 88.5857 436.956 89.1386C436.956 89.6914 436.508 90.1397 435.955 90.1397ZM427.617 90.1397H423.322C422.769 90.1397 422.32 89.6914 422.32 89.1386C422.32 88.5857 422.769 88.1374 423.322 88.1374H427.617C428.17 88.1374 428.618 88.5857 428.618 89.1386C428.618 89.6914 428.17 90.1397 427.617 90.1397ZM419.279 90.1397H414.984C414.431 90.1397 413.982 89.6914 413.982 89.1386C413.982 88.5857 414.431 88.1374 414.984 88.1374H419.279C419.832 88.1374 420.281 88.5857 420.281 89.1386C420.281 89.6914 419.831 90.1397 419.279 90.1397Z" fill="#B4CAE3"/>
<path d="M500.49 92.2668C499.937 92.2668 499.488 91.8185 499.488 91.2656V90.1397H498.362C497.81 90.1397 497.361 89.6914 497.361 89.1386C497.361 88.5857 497.81 88.1374 498.362 88.1374H500.49C501.042 88.1374 501.491 88.5857 501.491 89.1386V91.2656C501.491 91.8185 501.042 92.2668 500.49 92.2668Z" fill="#B4CAE3"/>
<path d="M500.495 134.537C499.942 134.537 499.494 134.088 499.494 133.536V129.18C499.494 128.627 499.942 128.179 500.495 128.179C501.048 128.179 501.496 128.627 501.496 129.18V133.536C501.496 134.088 501.048 134.537 500.495 134.537ZM500.495 126.083C499.942 126.083 499.494 125.635 499.494 125.082V120.726C499.494 120.174 499.942 119.725 500.495 119.725C501.048 119.725 501.496 120.174 501.496 120.726V125.082C501.496 125.635 501.048 126.083 500.495 126.083ZM500.495 117.629C499.942 117.629 499.494 117.18 499.494 116.627V112.272C499.494 111.719 499.942 111.271 500.495 111.271C501.048 111.271 501.496 111.719 501.496 112.272V116.627C501.496 117.181 501.048 117.629 500.495 117.629ZM500.495 109.175C499.942 109.175 499.494 108.727 499.494 108.174V103.818C499.494 103.265 499.942 102.817 500.495 102.817C501.048 102.817 501.496 103.265 501.496 103.818V108.174C501.496 108.727 501.048 109.175 500.495 109.175ZM500.495 100.72C499.942 100.72 499.494 100.272 499.494 99.7193V95.3647C499.494 94.8119 499.942 94.3635 500.495 94.3635C501.048 94.3635 501.496 94.8119 501.496 95.3647V99.7193C501.496 100.273 501.048 100.72 500.495 100.72Z" fill="#B4CAE3"/>
<path d="M380.521 154.476C379.968 154.476 379.52 154.028 379.52 153.475V149.222C379.52 148.669 379.968 148.221 380.521 148.221C381.074 148.221 381.522 148.669 381.522 149.222V153.475C381.522 154.028 381.074 154.476 380.521 154.476ZM380.521 146.219C379.968 146.219 379.52 145.771 379.52 145.218V140.965C379.52 140.412 379.968 139.964 380.521 139.964C381.074 139.964 381.522 140.412 381.522 140.965V145.218C381.522 145.772 381.074 146.219 380.521 146.219ZM380.521 137.963C379.968 137.963 379.52 137.515 379.52 136.962V132.709C379.52 132.156 379.968 131.708 380.521 131.708C381.074 131.708 381.522 132.156 381.522 132.709V136.962C381.522 137.515 381.074 137.963 380.521 137.963ZM380.521 129.707C379.968 129.707 379.52 129.258 379.52 128.705V124.452C379.52 123.9 379.968 123.451 380.521 123.451C381.074 123.451 381.522 123.9 381.522 124.452V128.705C381.522 129.258 381.074 129.707 380.521 129.707ZM380.521 121.45C379.968 121.45 379.52 121.002 379.52 120.449V116.196C379.52 115.643 379.968 115.194 380.521 115.194C381.074 115.194 381.522 115.643 381.522 116.196V120.449C381.522 121.002 381.074 121.45 380.521 121.45ZM408.816 115.963H408.06C407.507 115.963 407.059 115.515 407.059 114.962C407.059 114.409 407.507 113.961 408.06 113.961H408.816C409.369 113.961 409.817 114.409 409.817 114.962C409.816 115.515 409.369 115.963 408.816 115.963ZM404.057 115.963H399.803C399.251 115.963 398.802 115.515 398.802 114.962C398.802 114.409 399.251 113.961 399.803 113.961H404.057C404.609 113.961 405.058 114.409 405.058 114.962C405.058 115.515 404.609 115.963 404.057 115.963ZM395.801 115.963H391.548C390.995 115.963 390.547 115.515 390.547 114.962C390.547 114.409 390.995 113.961 391.548 113.961H395.801C396.354 113.961 396.802 114.409 396.802 114.962C396.801 115.515 396.353 115.963 395.801 115.963ZM387.544 115.963H383.291C382.738 115.963 382.29 115.515 382.29 114.962C382.29 114.409 382.738 113.961 383.291 113.961H387.544C388.097 113.961 388.545 114.409 388.545 114.962C388.544 115.515 388.097 115.963 387.544 115.963Z" fill="#B4CAE3"/>
<path d="M128.664 231.658L128.654 231.672H128.67L128.664 231.658Z" fill="#0060E6"/>
<path d="M128.655 231.673L128.59 231.763L128.61 231.673H128.655Z" fill="#0060E6"/>
<path d="M501.983 159.562V350.311C501.983 358.176 495.609 364.55 487.744 364.55H162.664C154.799 364.55 148.426 358.176 148.426 350.311V159.562C148.426 151.697 154.799 145.324 162.664 145.324H487.745C495.609 145.324 501.983 151.697 501.983 159.562Z" fill="#3B3E7D"/>
<path d="M501.983 258.793V350.311C501.983 358.176 495.609 364.55 487.744 364.55H162.664C154.799 364.55 148.426 358.176 148.426 350.311V258.793H501.983Z" fill="#18285D"/>
<path d="M486.282 169.259V340.614C486.282 345.656 482.197 349.745 477.154 349.745H173.264C171.134 349.745 169.175 349.015 167.62 347.791C167.209 347.467 166.824 347.106 166.474 346.716C165.016 345.103 164.133 342.96 164.133 340.614V169.259C164.133 164.217 168.224 160.128 173.264 160.128H477.153C478.84 160.128 480.416 160.585 481.772 161.383C483.045 162.131 484.123 163.18 484.903 164.433C485.778 165.833 486.282 167.488 486.282 169.259Z" fill="white"/>
<path d="M535.013 356.928V358.147C535.013 364.215 533.067 369.826 529.762 374.39C524.724 381.359 516.524 385.893 507.265 385.893H143.148C133.889 385.893 125.689 381.359 120.651 374.39C117.347 369.826 115.4 364.215 115.4 358.147V356.928H535.013Z" fill="#021147"/>
<path d="M278.178 356.928V357.207C278.178 359.404 279.649 361.185 281.464 361.185H367.126C368.941 361.185 370.411 359.404 370.411 357.207V356.928H278.178Z" fill="white"/>
<path d="M486.281 169.259V179.369H164.135V169.259C164.135 167.314 164.74 165.513 165.781 164.035C167.427 161.673 170.166 160.129 173.266 160.129H477.154C480.254 160.129 482.992 161.674 484.635 164.035C485.676 165.513 486.281 167.314 486.281 169.259Z" fill="#D9E4F5"/>
<path d="M408.489 172.797H237.574C237.153 172.797 236.809 172.453 236.809 172.031V168.451C236.809 168.03 237.153 167.686 237.573 167.686H408.489C408.91 167.686 409.254 168.031 409.254 168.452V172.033C409.255 172.452 408.91 172.797 408.489 172.797Z" fill="white"/>
<path d="M195.635 170.241V172.136C195.635 172.68 195.046 173.019 194.576 172.748L192.935 171.8L191.294 170.853C190.824 170.581 190.824 169.902 191.294 169.63L192.935 168.683L194.576 167.736C195.046 167.464 195.635 167.804 195.635 168.347V170.241Z" fill="#3B3E7D"/>
<path d="M204.172 170.241V172.136C204.172 172.68 204.76 173.019 205.231 172.748L206.872 171.8L208.513 170.853C208.984 170.581 208.984 169.902 208.513 169.63L206.872 168.683L205.231 167.736C204.76 167.464 204.172 167.804 204.172 168.347V170.241Z" fill="#3B3E7D"/>
<path d="M484.635 164.034H165.781C167.428 161.672 170.166 160.128 173.266 160.128H477.154C480.254 160.128 482.992 161.673 484.635 164.034Z" fill="#B9D2F0"/>
<path d="M357.276 136.468H275.295C269.737 136.468 265.232 131.964 265.232 126.406V124.383C265.232 118.826 269.737 114.321 275.295 114.321H357.276C362.834 114.321 367.339 118.826 367.339 124.383V126.406C367.339 131.964 362.833 136.468 357.276 136.468Z" fill="#007EFF"/>
<path d="M356.422 118.815C352.794 118.815 349.842 121.767 349.842 125.395C349.842 129.023 352.794 131.975 356.422 131.975C360.05 131.975 363.002 129.023 363.002 125.395C363.002 121.767 360.05 118.815 356.422 118.815ZM356.687 127.824V125.519H359.661C359.642 126.333 359.524 127.108 359.31 127.824H356.687ZM358.551 130.45C359.034 129.837 359.418 129.132 359.694 128.354H361.698C360.852 129.86 359.43 130.92 357.759 131.296C358.041 131.044 358.307 130.761 358.551 130.45ZM359.13 128.354C358.882 129.001 358.552 129.59 358.147 130.107C357.516 130.912 356.886 131.322 356.687 131.439V128.354H359.13ZM356.687 122.155V119.35C356.765 119.353 356.844 119.359 356.922 119.366C357.252 119.645 358.283 120.601 358.985 122.156H356.687V122.155ZM359.563 122.155C359.328 121.588 359.03 121.045 358.677 120.538C358.421 120.171 358.142 119.827 357.844 119.513C359.357 119.879 360.686 120.83 361.529 122.155H359.563ZM356.687 124.99V122.685H359.201C359.473 123.427 359.627 124.202 359.658 124.99H356.687ZM360.187 124.99C360.159 124.207 360.016 123.432 359.763 122.685H361.831C362.195 123.407 362.407 124.182 362.46 124.99H360.187ZM362.471 125.52C362.455 126.321 362.285 127.096 361.963 127.825H359.862C360.063 127.105 360.174 126.33 360.191 125.52H362.471ZM353.045 127.824H350.881C350.56 127.095 350.39 126.32 350.373 125.519H352.715C352.733 126.329 352.843 127.104 353.045 127.824ZM353.919 122.155C354.123 121.701 354.37 121.264 354.655 120.853C355.208 120.055 355.762 119.551 355.99 119.359C356.046 119.355 356.101 119.351 356.157 119.349V122.154L353.919 122.155ZM356.158 122.685V124.99H353.249C353.28 124.205 353.434 123.43 353.704 122.685H356.158ZM351.316 122.155C352.175 120.805 353.532 119.847 355.079 119.495C354.775 119.814 354.49 120.165 354.229 120.538C353.876 121.044 353.578 121.588 353.342 122.155H351.316ZM356.158 125.52V127.825H353.596C353.381 127.112 353.263 126.337 353.245 125.52H356.158ZM350.385 124.99C350.439 124.183 350.65 123.408 351.014 122.685H353.144C352.89 123.432 352.748 124.207 352.718 124.99H350.385ZM353.212 128.354C353.488 129.132 353.873 129.838 354.356 130.45C354.605 130.768 354.877 131.057 355.167 131.314C353.481 130.955 351.998 129.865 351.146 128.354H353.212ZM356.158 128.354V131.402C355.757 131.152 354.508 130.25 353.777 128.354H356.158Z" fill="white"/>
<path d="M339.788 119.071C343.238 119.071 346.045 121.878 346.045 125.328C346.045 128.777 343.238 131.584 339.788 131.584H276.539C273.09 131.584 270.283 128.777 270.283 125.328C270.283 121.878 273.09 119.071 276.539 119.071H339.788ZM339.788 118.424H276.539C272.733 118.424 269.635 121.521 269.635 125.329C269.635 129.135 272.732 132.233 276.539 132.233H339.788C343.595 132.233 346.692 129.136 346.692 125.329C346.692 121.521 343.595 118.424 339.788 118.424Z" fill="white"/>
<path d="M451.214 201.7V316.921C451.214 321.019 447.891 324.342 443.793 324.342H209.829C205.731 324.342 202.408 321.019 202.408 316.921V201.7C202.408 197.602 205.731 194.279 209.829 194.279H443.792C447.89 194.279 451.214 197.602 451.214 201.7Z" fill="#D9E4F5"/>
<path d="M451.214 201.7V207.108H202.408V201.7C202.408 197.602 205.731 194.279 209.829 194.279H443.792C447.89 194.279 451.214 197.602 451.214 201.7Z" fill="#B4CAE3"/>
<path d="M427.316 200.568C427.316 201.958 426.19 203.084 424.801 203.084C423.411 203.084 422.285 201.958 422.285 200.568C422.285 199.178 423.411 198.052 424.801 198.052C426.19 198.052 427.316 199.179 427.316 200.568Z" fill="#3B3E7D"/>
<path d="M435.367 200.568C435.367 201.958 434.241 203.084 432.852 203.084C431.462 203.084 430.336 201.958 430.336 200.568C430.336 199.178 431.462 198.052 432.852 198.052C434.24 198.052 435.367 199.179 435.367 200.568Z" fill="#0060E6"/>
<path d="M443.416 200.568C443.416 201.958 442.29 203.084 440.9 203.084C439.511 203.084 438.385 201.958 438.385 200.568C438.385 199.178 439.511 198.052 440.9 198.052C442.29 198.052 443.416 199.179 443.416 200.568Z" fill="#007EFF"/>
<path d="M234.197 244.342H218.931C216.338 244.342 214.236 242.241 214.236 239.648V224.382C214.236 221.789 216.338 219.688 218.931 219.688H234.197C236.789 219.688 238.891 221.789 238.891 224.382V239.648C238.89 242.241 236.788 244.342 234.197 244.342Z" fill="#B4CAE3"/>
<path d="M230.927 240.82H215.661C213.069 240.82 210.967 238.719 210.967 236.126V220.86C210.967 218.267 213.069 216.166 215.661 216.166H230.927C233.52 216.166 235.622 218.267 235.622 220.86V236.126C235.622 238.719 233.52 240.82 230.927 240.82Z" fill="#007EFF"/>
<path d="M227.818 226.229L221.08 228.542L227.818 230.854V234.635L216.477 230.521V226.563L227.818 222.449V226.229Z" fill="white"/>
<path d="M274.911 244.342H259.646C257.053 244.342 254.951 242.24 254.951 239.648V224.382C254.951 221.789 257.053 219.687 259.646 219.687H274.911C277.504 219.687 279.605 221.789 279.605 224.382V239.648C279.605 242.24 277.503 244.342 274.911 244.342Z" fill="#B4CAE3"/>
<path d="M271.642 240.82H256.376C253.783 240.82 251.682 238.719 251.682 236.126V220.86C251.682 218.267 253.783 216.166 256.376 216.166H271.642C274.235 216.166 276.336 218.267 276.336 220.86V236.126C276.336 238.719 274.235 240.82 271.642 240.82Z" fill="#007EFF"/>
<path d="M264.713 220.565H268.121L262.499 236.613H259.092L264.713 220.565Z" fill="white"/>
<path d="M314.191 244.342H298.925C296.332 244.342 294.23 242.24 294.23 239.648V224.382C294.23 221.789 296.332 219.687 298.925 219.687H314.191C316.783 219.687 318.885 221.789 318.885 224.382V239.648C318.884 242.24 316.782 244.342 314.191 244.342Z" fill="#B4CAE3"/>
<path d="M310.921 240.82H295.655C293.063 240.82 290.961 238.719 290.961 236.126V220.86C290.961 218.267 293.063 216.166 295.655 216.166H310.921C313.514 216.166 315.616 218.267 315.616 220.86V236.126C315.616 238.719 313.514 240.82 310.921 240.82Z" fill="#007EFF"/>
<path d="M297.729 222.448L309.07 226.563V230.521L297.729 234.635V230.854L304.467 228.542L297.729 226.229V222.448Z" fill="white"/>
<path d="M436.458 313.525H421.192C418.6 313.525 416.498 311.423 416.498 308.83V293.564C416.498 290.972 418.6 288.87 421.192 288.87H436.458C439.051 288.87 441.153 290.972 441.153 293.564V308.83C441.152 311.423 439.05 313.525 436.458 313.525Z" fill="#B4CAE3"/>
<path d="M433.189 310.003H417.923C415.33 310.003 413.229 307.901 413.229 305.308V290.043C413.229 287.45 415.33 285.348 417.923 285.348H433.189C435.782 285.348 437.883 287.45 437.883 290.043V305.308C437.883 307.901 435.782 310.003 433.189 310.003Z" fill="#007EFF"/>
<path d="M425.327 289.646C420.893 289.646 417.287 293.253 417.287 297.687C417.287 302.119 420.894 305.726 425.327 305.726C429.761 305.726 433.368 302.119 433.368 297.687C433.367 293.252 429.761 289.646 425.327 289.646ZM425.65 300.655V297.838H429.285C429.262 298.833 429.118 299.78 428.856 300.655H425.65ZM427.928 303.864C428.518 303.114 428.988 302.252 429.325 301.302H431.774C430.739 303.143 429.002 304.437 426.96 304.898C427.305 304.589 427.629 304.242 427.928 303.864ZM428.636 301.302C428.332 302.093 427.929 302.813 427.436 303.444C426.665 304.428 425.894 304.929 425.65 305.072V301.302H428.636ZM425.65 293.728V290.3C425.746 290.304 425.842 290.31 425.938 290.319C426.34 290.659 427.602 291.828 428.459 293.728H425.65ZM429.165 293.728C428.877 293.036 428.513 292.372 428.082 291.752C427.769 291.303 427.428 290.884 427.064 290.498C428.914 290.946 430.538 292.109 431.567 293.727H429.165V293.728ZM425.65 297.191V294.374H428.723C429.056 295.282 429.243 296.228 429.281 297.191H425.65ZM429.928 297.191C429.892 296.234 429.718 295.287 429.409 294.374H431.935C432.38 295.256 432.637 296.204 432.703 297.191H429.928ZM432.718 297.838C432.699 298.817 432.49 299.764 432.098 300.655H429.529C429.776 299.774 429.911 298.827 429.932 297.838H432.718ZM421.199 300.655H418.556C418.164 299.764 417.955 298.817 417.935 297.838H420.797C420.818 298.827 420.954 299.774 421.199 300.655ZM422.268 293.728C422.516 293.173 422.818 292.638 423.166 292.136C423.842 291.162 424.518 290.546 424.797 290.311C424.865 290.306 424.933 290.303 425.002 290.3V293.728H422.268ZM425.003 294.374V297.191H421.448C421.485 296.231 421.673 295.285 422.005 294.374H425.003ZM419.087 293.728C420.136 292.078 421.795 290.908 423.686 290.477C423.314 290.867 422.965 291.295 422.647 291.752C422.216 292.371 421.852 293.035 421.564 293.728H419.087ZM425.003 297.838V300.655H421.872C421.61 299.783 421.466 298.837 421.444 297.838H425.003ZM417.949 297.191C418.014 296.205 418.273 295.257 418.718 294.374H421.32C421.011 295.287 420.836 296.234 420.801 297.191H417.949ZM421.403 301.302C421.74 302.253 422.211 303.114 422.801 303.864C423.106 304.252 423.439 304.605 423.792 304.919C421.732 304.481 419.919 303.149 418.88 301.302H421.403ZM425.003 301.302V305.027C424.514 304.721 422.987 303.619 422.094 301.302H425.003Z" fill="white"/>
<path d="M316.052 257.561H213.805C212.237 257.561 210.967 256.29 210.967 254.723C210.967 253.155 212.238 251.885 213.805 251.885H316.052C317.62 251.885 318.89 253.156 318.89 254.723C318.89 256.291 317.619 257.561 316.052 257.561Z" fill="#B4CAE3"/>
<path d="M316.052 268.074H213.805C212.237 268.074 210.967 266.803 210.967 265.236C210.967 263.668 212.238 262.398 213.805 262.398H316.052C317.62 262.398 318.89 263.669 318.89 265.236C318.89 266.803 317.619 268.074 316.052 268.074Z" fill="#B4CAE3"/>
<path d="M316.052 278.587H213.805C212.237 278.587 210.967 277.316 210.967 275.748C210.967 274.181 212.238 272.91 213.805 272.91H316.052C317.62 272.91 318.89 274.181 318.89 275.748C318.89 277.316 317.619 278.587 316.052 278.587Z" fill="#B4CAE3"/>
<path d="M316.052 289.098H213.805C212.237 289.098 210.967 287.827 210.967 286.26C210.967 284.693 212.238 283.422 213.805 283.422H316.052C317.62 283.422 318.89 284.693 318.89 286.26C318.89 287.827 317.619 289.098 316.052 289.098Z" fill="#B4CAE3"/>
<path d="M316.052 299.611H213.805C212.237 299.611 210.967 298.34 210.967 296.773C210.967 295.206 212.238 293.935 213.805 293.935H316.052C317.62 293.935 318.89 295.206 318.89 296.773C318.89 298.34 317.619 299.611 316.052 299.611Z" fill="#B4CAE3"/>
<path d="M316.052 310.123H213.805C212.237 310.123 210.967 308.852 210.967 307.284C210.967 305.717 212.238 304.446 213.805 304.446H316.052C317.62 304.446 318.89 305.717 318.89 307.284C318.89 308.853 317.619 310.123 316.052 310.123Z" fill="#B4CAE3"/>
<path d="M403.847 283.422H334.167C332.604 283.422 331.264 284.644 331.235 286.207C331.205 287.799 332.488 289.099 334.073 289.099H403.846C405.413 289.099 406.684 287.828 406.684 286.261C406.686 284.692 405.415 283.422 403.847 283.422Z" fill="#B4CAE3"/>
<path d="M403.847 293.934H334.167C332.604 293.934 331.264 295.156 331.235 296.719C331.205 298.311 332.488 299.611 334.073 299.611H403.846C405.413 299.611 406.684 298.34 406.684 296.773C406.686 295.205 405.415 293.934 403.847 293.934Z" fill="#B4CAE3"/>
<path d="M403.847 304.446H334.167C332.604 304.446 331.264 305.669 331.235 307.232C331.205 308.823 332.488 310.124 334.073 310.124H403.846C405.413 310.124 406.684 308.853 406.684 307.285C406.686 305.717 405.415 304.446 403.847 304.446Z" fill="#B4CAE3"/>
<path d="M437.881 219.632V272.285C437.881 272.396 437.876 272.506 437.868 272.614C437.817 273.206 437.634 273.753 437.348 274.221C436.789 275.142 435.837 275.748 434.761 275.748H334.16C332.943 275.748 331.89 274.977 331.379 273.849C331.162 273.379 331.039 272.846 331.039 272.285V219.632C331.039 219.203 331.108 218.796 331.236 218.415C331.422 217.866 331.731 217.381 332.123 217.004C332.669 216.483 333.381 216.166 334.159 216.166H434.76C435.383 216.166 435.962 216.366 436.447 216.715C436.901 217.038 437.277 217.492 437.526 218.028C437.754 218.509 437.881 219.053 437.881 219.632Z" fill="#B4CAE3"/>
<path d="M437.871 272.613C437.82 273.205 437.636 273.752 437.35 274.22L384.015 246.17L382.226 245.229L331.238 218.414C331.425 217.865 331.733 217.38 332.126 217.003L384.015 244.288L385.801 245.229H385.804L437.871 272.613Z" fill="#D9E4F5"/>
<path d="M437.527 218.027L385.802 245.23H385.799L384.012 246.171L331.379 273.849C331.162 273.379 331.039 272.846 331.039 272.285V272.146L382.224 245.231L384.012 244.29L436.447 216.716C436.901 217.038 437.277 217.491 437.527 218.027Z" fill="#D9E4F5"/>
<path d="M173.982 457.322C196.69 457.322 215.098 453.732 215.098 449.304C215.098 444.876 196.69 441.287 173.982 441.287C151.274 441.287 132.865 444.876 132.865 449.304C132.865 453.732 151.274 457.322 173.982 457.322Z" fill="#D9E4F5"/>
<path d="M150.876 315.132L144.97 318.775C142.435 317.202 139.554 316.282 136.602 316.08C136.073 314.657 135.771 313.052 135.771 311.249C135.771 296.663 147.269 269.72 147.269 269.72L146.22 299.822C145.452 307.498 147.924 312.238 150.876 315.132Z" fill="#00A0FF"/>
<path d="M167.668 304.767L144.967 318.774C139.299 315.256 131.903 315.005 125.844 318.747C118.284 323.412 115.34 332.716 118.426 340.715C118.823 341.749 119.322 342.757 119.923 343.734C125.193 352.27 136.377 354.919 144.914 349.653C147.946 347.782 150.231 345.168 151.686 342.188C153.144 339.211 153.764 335.869 153.464 332.547L233.394 283.228L234.326 284.742L254.055 284.165L263.349 266.925L263.41 266.807L261.826 263.665L256.775 266.209L255.712 266.744L254.924 267.038L249.591 276.927L238.361 277.257L235.411 272.476L232.462 267.695L232.631 267.382L237.794 257.806L249.024 257.476L253.057 249.991L249.677 250.091L233.329 250.568L223.964 267.942L224.896 269.456L167.668 304.767ZM140.062 325.511L143.466 331.034L145.242 333.912L140.56 342.597L130.696 342.885L125.513 334.489L125.683 334.177L130.196 325.8L140.062 325.511Z" fill="#0060E6"/>
<path d="M167.668 304.767L144.967 318.774C139.299 315.256 131.903 315.005 125.844 318.747C118.284 323.412 115.34 332.716 118.426 340.715C123.737 349.116 134.828 351.694 143.307 346.463C146.338 344.592 148.624 341.977 150.08 338.998C151.537 336.021 152.157 332.679 151.857 329.357L231.787 280.038L232.72 281.552L252.449 280.974L260.04 266.888L261.813 263.599L253.316 263.848L247.984 273.737L236.754 274.067L233.803 269.286L232.631 267.383L230.855 264.505L236.188 254.616L247.418 254.286L249.677 250.091L233.329 250.568L223.964 267.942L224.896 269.456L167.668 304.767ZM138.455 322.321L143.637 330.721L143.467 331.033L138.954 339.406L129.09 339.695L125.684 334.177L123.908 331.298L128.591 322.609L138.455 322.321Z" fill="#007EFF"/>
<path d="M178.463 243.12C178.463 244.983 179.979 246.501 181.844 246.501C183.707 246.501 185.225 244.983 185.225 243.12C185.225 242.884 185.201 242.651 185.154 242.427C185.106 242.208 185.04 241.995 184.954 241.792C184.954 241.792 184.954 241.792 184.952 241.79C184.435 240.585 183.236 239.739 181.845 239.739C181.632 239.739 181.421 239.758 181.219 239.799H181.217C180.853 239.866 180.509 239.993 180.196 240.169C179.163 240.749 178.463 241.855 178.463 243.12ZM178.99 243.12C178.99 241.863 179.808 240.792 180.94 240.416C181.224 240.319 181.527 240.268 181.844 240.268C182.065 240.268 182.281 240.293 182.487 240.343C182.988 240.456 183.442 240.707 183.803 241.051C184.178 241.404 184.456 241.858 184.596 242.367C184.663 242.609 184.697 242.86 184.697 243.12C184.697 244.693 183.417 245.973 181.844 245.973C180.27 245.973 178.99 244.693 178.99 243.12Z" fill="#007EFF"/>
<path d="M164.736 253.386V260.106C164.736 260.106 166.74 263.53 169.451 263.762C172.158 263.998 174.565 260.816 174.565 260.816V253.86L164.736 253.386Z" fill="#FB9A83"/>
<path d="M171.861 255.011C171.861 255.011 172.296 257.393 174.567 258.264V255.179L171.861 255.011Z" fill="#FF6D6B"/>
<path d="M173.802 256.338C163.682 259.202 160.361 251.382 158.946 246.431C158.79 245.881 158.648 245.269 158.525 244.617C158.52 244.592 158.516 244.564 158.509 244.535C158.372 243.802 158.252 243.022 158.152 242.217C158.075 241.622 158.012 241.017 157.955 240.408C157.811 238.929 157.716 237.445 157.655 236.127C157.51 233.118 159.313 230.349 162.132 229.268C166.194 227.706 172.363 226.47 178.206 229.783C180.366 231.007 181.719 233.274 181.768 235.754C181.768 235.754 182.788 239.719 182.304 241.497C181.82 243.275 181.713 243.814 181.551 246.18C181.389 248.547 180.044 254.25 178.645 255.433C177.248 256.616 173.802 256.338 173.802 256.338Z" fill="#FB9A83"/>
<path d="M177.565 245.849C177.429 245.818 177.323 245.701 177.315 245.554C177.196 243.391 175.27 242.096 175.251 242.083C175.104 241.987 175.063 241.788 175.16 241.641C175.256 241.494 175.454 241.453 175.601 241.55C175.691 241.61 177.815 243.029 177.952 245.52C177.961 245.695 177.826 245.847 177.651 245.857C177.622 245.857 177.592 245.855 177.565 245.849Z" fill="#FF6D6B"/>
<path d="M175.663 244.348C175.606 244.335 175.551 244.307 175.506 244.261C175.382 244.135 175.383 243.933 175.509 243.81C175.53 243.789 176.03 243.302 176.889 243.127C177.061 243.091 177.229 243.203 177.265 243.375C177.301 243.548 177.189 243.717 177.016 243.752C176.353 243.888 175.962 244.259 175.959 244.263C175.877 244.343 175.766 244.372 175.663 244.348Z" fill="#FF6D6B"/>
<path d="M157.296 240.891C157.706 246.254 160.056 252.039 160.056 252.039C162.625 257.704 167.405 256.667 169.989 255.892C171.878 255.325 174.438 253.229 175.484 252.266C176.286 251.528 176.77 250.436 177.054 249.53C177.262 248.865 176.782 248.205 176.089 248.139C174.885 248.023 173.631 247.002 173.331 244.166C172.821 239.355 176.031 239.351 176.031 239.351C177.977 239.178 179.01 241.617 179.01 241.617C179.01 241.617 180.208 240.058 179.961 237.494C179.744 235.246 182.011 236.848 182.011 236.848C182.011 236.848 185.196 234.079 185.268 231.354C185.34 228.628 183.751 228.52 182.322 227.821C180.893 227.122 184.192 224.54 182.614 223.177C181.036 221.815 179.244 221.671 177.952 222.388C176.661 223.105 176.23 219.59 174.258 219.519C172.286 219.447 171.032 221.6 169.65 220.738C168.269 219.878 164.755 218.587 163.176 221.241C161.598 223.894 161.168 224.576 159.877 224.719C158.586 224.862 155 227.337 155.717 231.425C156.436 235.511 157.057 237.758 157.296 240.891Z" fill="#021147"/>
<path d="M176.84 239.428C177.174 239.527 177.468 239.699 177.726 239.906C178.375 239.83 179.058 239.897 179.734 240.052C179.889 240.088 180.041 240.127 180.194 240.17C180.446 240.243 180.695 240.325 180.939 240.416C181.444 240.6 181.935 240.823 182.387 241.051C183.341 241.531 184.135 242.049 184.596 242.367C184.866 242.557 185.024 242.677 185.033 242.684L185.153 242.428C185.106 242.209 185.04 241.996 184.954 241.793C184.954 241.793 184.954 241.793 184.952 241.791C184.687 241.607 184.291 241.342 183.804 241.051C183.417 240.82 182.972 240.575 182.488 240.343C182.47 240.335 182.453 240.325 182.434 240.317C182.051 240.133 181.642 239.958 181.218 239.801H181.216C180.786 239.644 180.337 239.508 179.886 239.41C178.864 239.182 177.815 239.136 176.84 239.428Z" fill="#007EFF"/>
<path d="M190.395 453.571C191.133 453.669 192.029 453.717 192.784 453.545L193.906 453.18L195.748 452.624C195.748 452.624 202.366 450.026 204.711 447.748C207.054 445.469 206.636 442.961 202.982 441.739C199.328 440.516 196.063 441.674 194.11 440.893C194.11 440.893 188.261 441.385 188.586 444.51C188.511 447.418 188.338 448.958 188.726 451.896C188.842 452.766 189.526 453.454 190.395 453.571Z" fill="#007EFF"/>
<path d="M193.634 442.288C193.534 442.266 193.442 442.205 193.384 442.111C193.271 441.927 193.329 441.687 193.513 441.574C193.574 441.537 195.032 440.654 196.312 440.701C198.018 440.763 198.641 442.089 198.666 442.146C198.756 442.342 198.669 442.573 198.474 442.663C198.278 442.752 198.047 442.666 197.957 442.47C197.94 442.434 197.497 441.526 196.284 441.481C195.236 441.442 193.933 442.231 193.92 442.24C193.831 442.294 193.729 442.309 193.634 442.288Z" fill="white"/>
<path d="M194.943 442.143C194.842 442.122 194.751 442.06 194.692 441.966C194.58 441.782 194.638 441.542 194.821 441.429C194.883 441.392 196.341 440.509 197.621 440.557C199.327 440.619 199.95 441.945 199.975 442.002C200.064 442.198 199.978 442.429 199.782 442.519C199.587 442.608 199.355 442.522 199.266 442.326C199.249 442.29 198.804 441.382 197.592 441.337C196.544 441.298 195.242 442.087 195.229 442.095C195.14 442.149 195.037 442.163 194.943 442.143Z" fill="white"/>
<path d="M196.228 441.876C196.128 441.854 196.036 441.793 195.977 441.699C195.865 441.515 195.923 441.275 196.106 441.162C196.168 441.125 197.626 440.242 198.906 440.289C200.612 440.351 201.235 441.678 201.26 441.734C201.349 441.93 201.263 442.161 201.067 442.251C200.872 442.34 200.64 442.254 200.551 442.058C200.534 442.023 200.09 441.115 198.877 441.069C197.83 441.03 196.527 441.82 196.514 441.828C196.425 441.883 196.322 441.897 196.228 441.876Z" fill="white"/>
<path d="M195.46 436.872L195.102 443.015C192.83 443.643 191.124 443.933 189.836 442.931L189.469 436.415L195.46 436.872Z" fill="#FB9A83"/>
<path d="M197.327 439.416C193.932 441.512 188.485 440.288 188.485 440.288C189.135 440.172 183.738 399.789 183.027 393.708C182.371 388.096 175.374 371.8 172.434 362.555C172.229 361.913 172.046 361.305 171.883 360.736C171.653 359.925 171.433 359.152 171.225 358.424C169.924 353.897 169.07 351.018 169.07 351.018L188.485 346.774C189.062 348.953 189.607 351.099 190.123 353.22C190.236 353.684 190.346 354.145 190.456 354.605C190.524 354.896 190.592 355.187 190.661 355.475C202.567 406.053 197.327 439.416 197.327 439.416Z" fill="#3B3E7D"/>
<path d="M190.456 354.604C183.786 357.044 177.264 358.148 171.225 358.423C169.924 353.896 169.07 351.017 169.07 351.017L188.485 346.773C189.062 348.952 189.607 351.098 190.123 353.219C190.236 353.684 190.345 354.145 190.456 354.604Z" fill="#18285D"/>
<path d="M140.058 452.221C140.738 452.522 141.586 452.818 142.359 452.864L143.539 452.828L145.462 452.81C145.462 452.81 152.543 452.164 155.43 450.632C158.317 449.099 158.616 446.574 155.449 444.38C152.283 442.185 148.824 442.383 147.167 441.087C147.167 441.087 141.414 439.925 140.853 443.016C139.968 445.788 139.371 447.218 138.923 450.147C138.791 451.013 139.254 451.866 140.058 452.221Z" fill="#007EFF"/>
<path d="M146.318 442.293C146.228 442.244 146.157 442.159 146.127 442.053C146.07 441.845 146.193 441.631 146.401 441.574C146.47 441.555 148.116 441.115 149.334 441.518C150.954 442.055 151.182 443.502 151.191 443.564C151.222 443.777 151.074 443.975 150.861 444.006C150.648 444.038 150.45 443.89 150.419 443.677C150.413 443.637 150.24 442.642 149.088 442.259C148.093 441.929 146.621 442.323 146.606 442.327C146.506 442.353 146.403 442.339 146.318 442.293Z" fill="white"/>
<path d="M147.615 442.52C147.524 442.472 147.453 442.387 147.424 442.28C147.367 442.072 147.49 441.858 147.698 441.801C147.768 441.782 149.414 441.342 150.63 441.745C152.251 442.282 152.479 443.729 152.487 443.791C152.518 444.004 152.37 444.202 152.157 444.234C151.944 444.265 151.745 444.117 151.715 443.904C151.709 443.864 151.536 442.869 150.384 442.486C149.389 442.156 147.917 442.55 147.902 442.554C147.802 442.581 147.7 442.566 147.615 442.52Z" fill="white"/>
<path d="M148.927 442.622C148.837 442.573 148.766 442.489 148.737 442.381C148.68 442.173 148.802 441.959 149.01 441.903C149.079 441.883 150.727 441.443 151.943 441.847C153.564 442.383 153.791 443.831 153.8 443.893C153.832 444.106 153.684 444.304 153.47 444.335C153.257 444.366 153.059 444.218 153.028 444.005C153.022 443.966 152.85 442.971 151.697 442.587C150.702 442.257 149.231 442.651 149.216 442.655C149.115 442.683 149.012 442.668 148.927 442.622Z" fill="white"/>
<path d="M149.587 437.603L147.525 443.402C145.169 443.37 143.45 443.172 142.492 441.849L143.961 435.489L149.587 437.603Z" fill="#FB9A83"/>
<path d="M168.063 349.144C168.008 351.399 167.929 353.611 167.833 355.792C167.793 356.675 167.749 357.577 167.697 358.494C167.608 360.069 167.503 361.689 167.383 363.335C166.433 376.487 164.586 391.336 163.152 398.783C162.2 403.722 150.663 440.566 150.663 440.566C146.87 441.615 142.062 439.006 141.932 438.933C142.592 438.933 147.426 394.709 148.949 391.474C149.905 389.441 149.033 384.082 148.317 361.199C148.286 360.14 148.251 359.045 148.22 357.91C148.198 357.162 148.183 356.447 148.172 355.765C148.091 350.908 148.235 347.794 148.235 347.794L168.063 349.144Z" fill="#3B3E7D"/>
<path d="M148.24 347.794L168.068 349.144C168.013 351.399 167.934 353.611 167.838 355.792C167.798 356.675 167.754 357.577 167.702 358.494C159.974 358.457 153.205 357.152 148.178 355.765C148.096 350.908 148.24 347.794 148.24 347.794Z" fill="#18285D"/>
<path d="M190.451 347.902C190.451 347.902 178.621 352.547 168.069 352.6C157.518 352.649 147.415 351.643 147.415 351.643C147.415 351.643 146.532 335.695 145.956 317.876C145.919 316.71 145.883 315.535 145.848 314.359C145.809 313.053 145.775 311.74 145.739 310.429C145.709 309.258 145.681 308.083 145.654 306.913C145.62 305.411 145.592 303.917 145.565 302.436C145.544 301.253 145.529 300.085 145.512 298.926C145.35 285.491 144.713 273.387 146.873 270.67C151.312 265.085 164.734 259.471 164.734 259.471C167.714 260.315 171.072 260.597 174.883 260.205C174.883 260.205 182.396 265.881 187.663 269.721C191.822 272.754 188.54 283.591 188.771 298.467C188.786 299.602 188.808 300.758 188.829 301.93C188.837 302.307 188.844 302.69 188.852 303.073C188.874 304.104 188.9 305.217 188.932 306.394C188.96 307.493 188.991 308.649 189.029 309.847C189.065 311.108 189.105 312.413 189.15 313.753C189.186 314.885 189.223 316.042 189.265 317.208C189.751 331.595 190.451 347.902 190.451 347.902Z" fill="#00A0FF"/>
<path d="M164.706 267.105C171.25 267.717 175.594 264.24 175.792 264.078C175.952 263.948 175.976 263.711 175.844 263.551C175.714 263.391 175.477 263.366 175.317 263.497C175.267 263.538 170.209 267.574 163.002 266.093C162.8 266.051 162.6 266.182 162.558 266.385C162.517 266.588 162.648 266.787 162.851 266.828C163.487 266.959 164.106 267.05 164.706 267.105Z" fill="#007EFF"/>
<path d="M188.829 301.93C179.822 303.662 171.79 304.25 165.037 304.25C156.006 304.25 149.269 303.199 145.564 302.436C145.543 301.253 145.528 300.085 145.512 298.926C151.167 300.135 167.286 302.686 188.771 298.468C188.788 299.602 188.808 300.758 188.829 301.93Z" fill="#007EFF"/>
<path d="M189.027 309.847C179.938 311.611 171.836 312.206 165.036 312.206C156.144 312.206 149.477 311.189 145.737 310.429C145.707 309.258 145.679 308.083 145.652 306.913C151.443 308.138 167.541 310.623 188.929 306.394C188.959 307.493 188.99 308.649 189.027 309.847Z" fill="#007EFF"/>
<path d="M189.268 317.208C180.085 319.006 171.901 319.612 165.04 319.612C156.319 319.612 149.737 318.634 145.959 317.876C145.923 316.71 145.886 315.535 145.852 314.359C151.823 315.598 167.892 317.997 189.152 313.753C189.189 314.885 189.226 316.041 189.268 317.208Z" fill="#007EFF"/>
<path d="M188.572 270.67C188.572 270.67 207.121 299.441 210.182 297.553C214.795 294.707 218.74 292.272 218.74 292.272L223.101 289.581C223.101 289.581 220.511 306.441 210.287 309.829C203.872 311.957 186.453 290.05 186.453 290.05C186.453 290.05 186.454 275.213 188.572 270.67Z" fill="#00A0FF"/>
<path d="M375.075 330.112C355.278 303.496 342.775 278.944 342.775 278.944L343.402 297.346C343.402 297.346 362.216 327.649 368.095 333.951C370.44 333.952 375.075 333.154 375.075 330.112Z" fill="#007EFF"/>
<path d="M326.022 274.522C326.022 274.522 322.755 275.398 319.581 276.191C316.661 276.92 315.038 277.771 315.038 277.771C315.038 277.771 314.749 305.707 315.038 314.185C315.327 322.664 312.58 330.444 313.119 335.394C313.119 335.394 337.35 337.108 342.518 335.056C342.518 335.056 340.517 313.244 342.776 307.117C345.069 300.896 346.272 296.561 345.735 294.025C344.355 287.515 342.714 286.541 343.142 280.547C343.57 274.555 326.022 274.522 326.022 274.522Z" fill="#00A0FF"/>
<path d="M336.516 284.611C329.943 284.611 325.942 280.745 325.76 280.566C325.613 280.421 325.611 280.183 325.756 280.035C325.901 279.887 326.139 279.886 326.286 280.031C326.333 280.077 330.993 284.565 338.306 283.762C338.511 283.739 338.698 283.888 338.72 284.094C338.743 284.299 338.595 284.485 338.389 284.507C337.744 284.578 337.119 284.611 336.516 284.611Z" fill="#007EFF"/>
<path d="M320.824 319.408C320.623 319.408 320.457 319.249 320.449 319.046C320.442 318.839 320.604 318.665 320.812 318.657C320.912 318.653 330.919 318.191 337.791 309.112C337.917 308.947 338.152 308.915 338.316 309.039C338.482 309.164 338.514 309.4 338.389 309.565C331.294 318.937 320.941 319.403 320.838 319.407C320.833 319.408 320.829 319.408 320.824 319.408Z" fill="#007EFF"/>
<path d="M320.496 322.962C319.709 322.962 319.252 322.916 319.23 322.913C319.024 322.889 318.876 322.704 318.899 322.499C318.922 322.293 319.107 322.146 319.314 322.167C319.414 322.179 329.38 323.182 337.506 315.205C337.654 315.059 337.892 315.063 338.037 315.21C338.182 315.358 338.18 315.595 338.032 315.74C331.378 322.272 323.516 322.962 320.496 322.962Z" fill="#007EFF"/>
<path d="M417.082 349.356L423.48 351.614L421.321 357.433L414.406 355.422L417.082 349.356Z" fill="#FB9A83"/>
<path d="M422.529 352.424C422.529 352.424 421.121 350.276 421.622 349.162C422.123 348.048 432.368 341.788 434.054 338.976C435.739 336.164 437.751 337.565 438.686 338.536C439.621 339.506 429.435 362.501 429.435 362.501C429.435 362.501 422.184 360.581 420.319 359.027C418.455 357.473 422.171 354.974 422.529 352.424Z" fill="#007EFF"/>
<path d="M429.209 349.336C429.202 349.455 429.148 349.571 429.051 349.654C428.86 349.815 428.576 349.791 428.416 349.601C428.362 349.537 427.096 348.028 426.924 346.555C426.694 344.596 428.1 343.648 428.16 343.609C428.368 343.472 428.648 343.53 428.785 343.738C428.922 343.946 428.864 344.226 428.655 344.363C428.618 344.389 427.658 345.056 427.821 346.45C427.961 347.65 429.094 349.005 429.105 349.018C429.182 349.11 429.216 349.225 429.209 349.336Z" fill="white"/>
<path d="M427.555 350.163C427.548 350.282 427.494 350.397 427.396 350.48C427.205 350.642 426.921 350.617 426.76 350.428C426.706 350.364 425.44 348.854 425.268 347.382C425.037 345.421 426.443 344.474 426.503 344.435C426.711 344.298 426.991 344.356 427.128 344.564C427.265 344.772 427.207 345.052 426.998 345.189C426.961 345.215 426.001 345.882 426.163 347.276C426.304 348.481 427.436 349.83 427.447 349.843C427.528 349.937 427.562 350.05 427.555 350.163Z" fill="white"/>
<path d="M430.803 347.979C430.796 348.098 430.742 348.213 430.644 348.296C430.453 348.458 430.169 348.433 430.008 348.244C429.954 348.18 428.687 346.67 428.516 345.198C428.285 343.237 429.692 342.29 429.752 342.252C429.96 342.115 430.24 342.173 430.377 342.382C430.514 342.59 430.456 342.87 430.247 343.007C430.209 343.033 429.25 343.7 429.413 345.094C429.554 346.299 430.686 347.648 430.698 347.661C430.775 347.753 430.809 347.867 430.803 347.979Z" fill="white"/>
<path d="M332.117 337.86C332.117 337.86 357.973 330.331 370.914 329.814C383.866 329.302 418.732 348.55 418.732 348.55C419.565 350.573 419.02 352.82 417.663 354.846C417.47 355.138 417.262 355.414 417.04 355.674C416.562 356.284 416.012 356.846 415.402 357.374C415.402 357.374 389.661 354.077 372.465 344.958C372.465 344.958 348.319 350.971 334.421 350.586C334.421 350.586 328.687 345.801 332.117 337.86Z" fill="#021147"/>
<path d="M342.097 262.658C347.476 257.279 347.476 248.558 342.097 243.179C336.718 237.8 327.997 237.8 322.618 243.179C317.239 248.558 317.239 257.279 322.618 262.658C327.997 268.037 336.718 268.037 342.097 262.658Z" fill="#021147"/>
<path d="M327.331 247.89C331.993 247.89 335.771 244.111 335.771 239.45C335.771 234.788 331.993 231.01 327.331 231.01C322.67 231.01 318.891 234.788 318.891 239.45C318.891 244.111 322.67 247.89 327.331 247.89Z" fill="#021147"/>
<path d="M342.239 256.724C342.239 256.724 344.332 254.537 345.534 256.626C346.736 258.714 344.221 264.304 340.957 262.569L342.239 256.724Z" fill="#FF6D6B"/>
<path d="M342.515 262.313C342.482 262.656 342.734 262.96 343.076 262.994C343.419 263.026 343.724 262.775 343.757 262.432C343.79 262.089 343.538 261.785 343.195 261.751C342.852 261.719 342.548 261.97 342.515 262.313Z" fill="white"/>
<path d="M341.876 260.856C342.001 260.868 342.124 260.8 342.171 260.682C342.868 258.949 344.882 258.412 344.903 258.406C345.056 258.366 345.145 258.216 345.102 258.07C345.06 257.924 344.9 257.837 344.747 257.876C344.653 257.901 342.435 258.486 341.632 260.482C341.575 260.623 341.651 260.782 341.8 260.837C341.824 260.846 341.849 260.852 341.876 260.856Z" fill="#ED495C"/>
<path d="M343.923 260.145C343.976 260.15 344.032 260.141 344.082 260.116C344.223 260.047 344.278 259.882 344.204 259.747C344.192 259.725 343.896 259.193 343.205 258.818C343.067 258.743 342.89 258.788 342.812 258.919C342.734 259.05 342.784 259.219 342.923 259.294C343.456 259.584 343.691 259.993 343.693 259.997C343.741 260.082 343.829 260.136 343.923 260.145Z" fill="#ED495C"/>
<path d="M326.694 267.436L326.018 274.523C326.018 274.523 329.069 277.379 331.618 277.845C334.164 278.314 335.34 275.369 335.34 275.369L335.97 268.773L326.694 267.436Z" fill="#FB9A83"/>
<path d="M326.627 268.13L326.357 270.956C327.899 273.035 330.896 274.005 335.492 273.768L335.903 269.466L326.627 268.13Z" fill="#FF6D6B"/>
<path d="M343.105 259.526C342.958 260.202 342.795 260.889 342.605 261.571C341.351 266.102 337.96 270.801 334.2 271.285C326.08 272.33 323.375 265.772 322.544 261.045C322.453 260.52 322.773 259.96 322.719 259.343C322.593 257.883 322.168 256.197 322.19 254.577C322.206 253.454 322.246 252.348 322.295 251.351C322.434 248.538 324.301 246.119 326.932 245.356C330.725 244.252 336.383 243.631 341.344 247.215C343.176 248.538 344.194 250.762 344.017 253.074C343.881 254.84 343.616 257.139 343.105 259.526Z" fill="#FB9A83"/>
<path d="M333.062 262.166C332.914 262.152 332.793 262.033 332.782 261.88C332.77 261.71 332.899 261.561 333.069 261.548L334.146 261.471L333.057 257.441C333.012 257.276 333.11 257.106 333.275 257.061C333.44 257.017 333.611 257.114 333.655 257.279L334.942 262.035L333.114 262.166C333.096 262.167 333.079 262.167 333.062 262.166Z" fill="#FF6D6B"/>
<path d="M340.783 251.47C343.755 253.184 342.846 257.866 342.645 261.421C342.636 261.56 343.414 258.888 343.494 258.833C344.025 256.402 344.295 254.058 344.433 252.258C344.611 249.902 343.532 247.632 341.597 246.275C336.357 242.605 330.396 243.219 326.403 244.333C323.633 245.103 321.672 247.563 321.535 250.43C321.487 251.448 321.449 252.575 321.436 253.719C321.922 254.075 323.168 254.335 323.142 255.169C323.072 257.374 322.904 261.112 323.368 260.995C323.91 260.858 324.546 255.843 324.313 254.24C324.313 254.24 325.134 253.152 328.134 252.313C331.984 251.237 335.76 249.46 335.76 249.46C335.76 249.46 337.251 248.745 337.88 247.871C337.882 247.87 338.52 250.166 340.783 251.47Z" fill="#021147"/>
<path d="M337.706 257.528C337.641 258.208 337.939 258.792 338.372 258.834C338.804 258.876 339.207 258.357 339.272 257.678C339.337 256.997 339.039 256.413 338.607 256.371C338.174 256.33 337.77 256.848 337.706 257.528Z" fill="#021147"/>
<path d="M328.485 256.672C328.421 257.352 328.719 257.936 329.151 257.978C329.583 258.02 329.987 257.501 330.052 256.822C330.117 256.141 329.818 255.557 329.386 255.515C328.953 255.473 328.549 255.991 328.485 256.672Z" fill="#021147"/>
<path d="M340.304 254.135C339.686 253.952 338.432 253.627 337.072 253.546C336.714 253.525 336.403 253.766 336.425 254.054L336.426 254.062C336.443 254.292 336.672 254.467 336.96 254.473C337.891 254.492 340.306 254.738 341.398 255.18C341.445 255.02 341.353 254.837 341.209 254.67C340.989 254.419 340.664 254.242 340.304 254.135Z" fill="#021147"/>
<path d="M327.703 253.081C328.343 253.01 329.634 252.91 330.988 253.07C331.344 253.111 331.608 253.404 331.535 253.684L331.533 253.691C331.475 253.916 331.22 254.047 330.936 254.003C330.016 253.858 327.596 253.675 326.441 253.919C326.423 253.753 326.547 253.589 326.718 253.45C326.978 253.24 327.329 253.122 327.703 253.081Z" fill="#021147"/>
<path d="M336.313 264.331C335.981 265.392 335.031 267.31 332.467 267.065C329.899 266.82 329.352 264.931 329.225 263.654L336.313 264.331Z" fill="white"/>
<path d="M332.327 268.929C333.067 269 333.758 268.663 333.787 268.649C333.937 268.575 334 268.392 333.925 268.242C333.851 268.092 333.669 268.03 333.518 268.103C333.512 268.106 332.949 268.377 332.385 268.323C331.775 268.264 331.259 267.889 331.254 267.886C331.118 267.787 330.929 267.815 330.829 267.95C330.73 268.085 330.757 268.275 330.892 268.375C330.917 268.394 331.544 268.855 332.327 268.929Z" fill="#FF6D6B"/>
<path d="M323.096 254.877C323.096 254.877 321.177 252.035 319.714 253.813C318.252 255.59 319.528 261.373 322.795 260.303L323.096 254.877Z" fill="#FB9A83"/>
<path d="M320.809 260.241C320.777 260.584 321.029 260.888 321.371 260.922C321.714 260.954 322.019 260.703 322.052 260.36C322.084 260.017 321.833 259.713 321.49 259.679C321.147 259.647 320.842 259.898 320.809 260.241Z" fill="white"/>
<path d="M322.28 258.504C322.164 258.493 322.065 258.406 322.044 258.286C321.723 256.508 319.996 255.634 319.978 255.626C319.846 255.561 319.793 255.402 319.858 255.27C319.923 255.138 320.082 255.084 320.214 255.148C320.295 255.188 322.199 256.144 322.568 258.192C322.594 258.337 322.498 258.475 322.353 258.501C322.328 258.505 322.303 258.506 322.28 258.504Z" fill="#FF6D6B"/>
<path d="M320.549 257.459C320.499 257.454 320.452 257.435 320.41 257.403C320.294 257.312 320.275 257.144 320.365 257.029C320.381 257.009 320.745 256.556 321.436 256.322C321.575 256.274 321.727 256.349 321.774 256.489C321.821 256.628 321.747 256.779 321.607 256.827C321.071 257.007 320.786 257.355 320.783 257.359C320.725 257.432 320.636 257.467 320.549 257.459Z" fill="#FF6D6B"/>
<path d="M332.723 256.119C332.742 255.935 332.718 255.755 332.66 255.589C332.506 255.135 332.103 254.786 331.595 254.726L327.107 254.196C326.754 254.155 326.419 254.26 326.16 254.464C326.018 254.576 325.902 254.717 325.818 254.88C325.747 255.015 325.698 255.163 325.68 255.321L325.612 255.896C325.497 256.868 325.769 257.841 326.357 258.569C326.945 259.292 327.663 259.717 328.493 259.832L328.612 259.846C329.573 259.96 330.52 259.694 331.283 259.095C332.058 258.488 332.547 257.616 332.662 256.637L332.72 256.152C332.722 256.142 332.724 256.129 332.723 256.119ZM332.135 256.575C332.037 257.412 331.618 258.156 330.957 258.675C330.305 259.187 329.496 259.413 328.677 259.317L328.57 259.304C327.878 259.206 327.274 258.847 326.775 258.234C326.275 257.618 326.046 256.787 326.143 255.958L326.211 255.385C326.26 254.972 326.633 254.678 327.046 254.727L331.534 255.256C331.945 255.305 332.241 255.678 332.193 256.091L332.135 256.575Z" fill="white"/>
<path d="M342.23 256.926C342.204 256.746 342.136 256.575 342.04 256.424C341.838 256.116 341.506 255.894 341.113 255.848L336.622 255.318C336.102 255.258 335.616 255.516 335.366 255.943C335.28 256.085 335.223 256.247 335.2 256.419C335.197 256.428 335.196 256.435 335.195 256.443L335.127 257.016C335.013 257.989 335.286 258.963 335.875 259.69C336.461 260.412 337.18 260.837 338.009 260.953L338.129 260.967C339.089 261.081 340.037 260.815 340.799 260.216C341.572 259.609 342.064 258.737 342.179 257.759L342.236 257.273C342.253 257.156 342.251 257.04 342.23 256.926ZM341.652 257.697C341.554 258.534 341.135 259.278 340.473 259.797C339.822 260.309 339.013 260.535 338.194 260.439L338.084 260.426C337.392 260.328 336.789 259.968 336.29 259.355C335.792 258.74 335.56 257.909 335.658 257.08L335.726 256.506C335.774 256.093 336.15 255.799 336.56 255.848L341.051 256.377C341.462 256.426 341.758 256.799 341.709 257.212L341.652 257.697Z" fill="white"/>
<path d="M326.162 254.464C325.736 254.185 324.612 253.571 322.947 253.503L323.085 254.047C324.468 254.141 325.426 254.637 325.82 254.88C325.95 254.96 326.019 255.013 326.022 255.015L326.352 254.598C326.338 254.587 326.274 254.536 326.162 254.464Z" fill="white"/>
<path d="M332.542 256.151L332.428 255.631C332.46 255.624 333.234 255.456 334.051 255.552C334.92 255.654 335.448 255.987 335.47 256.001L335.183 256.45C335.179 256.448 334.728 256.168 333.988 256.081C333.264 255.995 332.549 256.149 332.542 256.151Z" fill="white"/>
<path d="M343.738 256.13C342.727 256.18 341.875 256.475 341.82 256.495L341.997 256.997C342.011 256.993 342.886 256.69 343.872 256.66L343.738 256.13Z" fill="white"/>
<path d="M361.193 385.116L358.899 391.913L352.896 391.346L354.932 384.112L361.193 385.116Z" fill="#FB9A83"/>
<path d="M358.475 391.68C358.475 391.68 360.003 389.615 361.222 389.7C362.44 389.784 371.861 397.23 375.081 397.837C378.303 398.445 377.684 400.817 377.098 402.031C376.511 403.244 351.412 401.648 351.412 401.648C351.412 401.648 350.702 394.181 351.515 391.893C352.328 389.606 355.959 392.228 358.475 391.68Z" fill="#007EFF"/>
<path d="M363.684 396.879C363.57 396.913 363.442 396.903 363.331 396.84C363.114 396.717 363.037 396.443 363.16 396.225C363.201 396.152 364.18 394.442 365.501 393.772C367.259 392.877 368.636 393.869 368.693 393.912C368.894 394.059 368.937 394.342 368.789 394.543C368.641 394.743 368.359 394.786 368.158 394.637C368.12 394.611 367.163 393.941 365.91 394.576C364.833 395.123 363.954 396.655 363.946 396.671C363.887 396.775 363.791 396.846 363.684 396.879Z" fill="white"/>
<path d="M362.336 395.613C362.222 395.647 362.095 395.636 361.983 395.573C361.766 395.45 361.69 395.176 361.813 394.958C361.853 394.885 362.832 393.175 364.154 392.505C365.914 391.61 367.288 392.601 367.346 392.644C367.547 392.792 367.589 393.074 367.441 393.275C367.294 393.476 367.011 393.518 366.81 393.369C366.773 393.343 365.814 392.673 364.562 393.308C363.481 393.857 362.607 395.387 362.599 395.402C362.539 395.508 362.443 395.58 362.336 395.613Z" fill="white"/>
<path d="M365.51 397.904C365.396 397.939 365.269 397.929 365.157 397.865C364.94 397.742 364.864 397.467 364.986 397.25C365.027 397.178 366.006 395.467 367.327 394.796C369.086 393.901 370.462 394.893 370.52 394.936C370.719 395.084 370.762 395.366 370.614 395.567C370.467 395.767 370.184 395.811 369.983 395.662C369.946 395.635 368.987 394.967 367.735 395.601C366.654 396.15 365.78 397.679 365.771 397.694C365.712 397.8 365.616 397.872 365.51 397.904Z" fill="white"/>
<path d="M312.767 338.408C312.439 341.186 312.907 344.019 314.217 346.491C316.15 350.134 320.311 353.948 329.274 353.478C348.362 352.475 361.825 353.478 361.825 353.478C361.825 353.478 359.837 359.916 357.696 369.265C356.439 374.759 352.505 388.092 352.505 388.092C355.093 389.615 357.844 389.224 360.607 388.718C360.607 388.718 380.43 354.715 378.7 343.657C376.972 332.598 313.121 335.396 313.121 335.396L312.767 338.408Z" fill="#3B3E7D"/>
<path d="M352.504 329.599C343.515 323.926 329.274 313.115 329.274 313.115C329.274 313.115 320.313 295.769 315.04 277.771C315.04 277.771 309.058 284.67 313.207 300.106C317.249 315.146 323.749 320.545 323.749 320.545C323.749 320.545 340.363 332.446 349.158 335.394C350.542 333.077 351.23 331.98 352.504 329.599Z" fill="#007EFF"/>
<path d="M393.847 336.555L337.51 337.298C336.502 337.311 335.674 336.505 335.661 335.498L335.649 334.612C335.635 333.604 336.442 332.776 337.449 332.763L393.786 332.019C394.794 332.006 395.622 332.813 395.635 333.82L395.647 334.706C395.661 335.714 394.855 336.541 393.847 336.555Z" fill="#0060E6"/>
<path d="M395.675 336.53L346.523 337.178L361.163 310.194L410.224 309.708L395.675 336.53Z" fill="#00A0FF"/>
<path d="M392.623 336.562L392.618 336.571L343.557 337.056L358.105 310.233L361.158 310.202L346.611 337.016L392.623 336.562Z" fill="#0060E6"/>
<path d="M382.162 323.312C382.185 325.039 380.804 326.457 379.077 326.479C377.351 326.501 375.933 325.121 375.91 323.394C375.888 321.668 377.269 320.25 378.995 320.228C380.721 320.205 382.14 321.586 382.162 323.312Z" fill="#007EFF"/>
<path d="M521.911 430.17C544.62 430.17 563.028 426.58 563.028 422.152C563.028 417.724 544.62 414.135 521.911 414.135C499.203 414.135 480.795 417.724 480.795 422.152C480.795 426.58 499.203 430.17 521.911 430.17Z" fill="#D9E4F5"/>
<path d="M494.533 337.419V420.512C494.533 422.339 496.013 423.819 497.84 423.819H545.998C546.919 423.819 547.751 423.442 548.349 422.836C548.942 422.24 549.306 421.421 549.306 420.512V337.419C549.306 335.592 547.826 334.112 545.999 334.112H497.841C497.187 334.112 496.58 334.302 496.068 334.627C495.146 335.214 494.533 336.244 494.533 337.419Z" fill="#007EFF"/>
<path d="M509.54 350.137H541.7C542.957 350.137 543.976 349.118 543.976 347.86C543.976 346.604 542.957 345.584 541.7 345.584H509.54C508.283 345.584 507.264 346.604 507.264 347.86C507.264 349.118 508.283 350.137 509.54 350.137Z" fill="#00A0FF"/>
<path d="M509.54 360.505H541.7C542.957 360.505 543.976 359.487 543.976 358.229C543.976 356.972 542.957 355.953 541.7 355.953H509.54C508.283 355.953 507.264 356.971 507.264 358.229C507.264 359.486 508.283 360.505 509.54 360.505Z" fill="#00A0FF"/>
<path d="M509.54 370.874H541.7C542.957 370.874 543.976 369.854 543.976 368.598C543.976 367.341 542.957 366.321 541.7 366.321H509.54C508.283 366.321 507.264 367.341 507.264 368.598C507.264 369.854 508.283 370.874 509.54 370.874Z" fill="#00A0FF"/>
<path d="M509.54 381.242H541.7C542.957 381.242 543.976 380.222 543.976 378.965C543.976 377.709 542.957 376.689 541.7 376.689H509.54C508.283 376.689 507.264 377.709 507.264 378.965C507.264 380.223 508.283 381.242 509.54 381.242Z" fill="#00A0FF"/>
<path d="M509.54 391.61H541.7C542.957 391.61 543.976 390.591 543.976 389.334C543.976 388.077 542.957 387.058 541.7 387.058H509.54C508.283 387.058 507.264 388.077 507.264 389.334C507.264 390.592 508.283 391.61 509.54 391.61Z" fill="#00A0FF"/>
<path d="M509.54 401.979H541.7C542.957 401.979 543.976 400.96 543.976 399.703C543.976 398.446 542.957 397.427 541.7 397.427H509.54C508.283 397.427 507.264 398.446 507.264 399.703C507.264 400.96 508.283 401.979 509.54 401.979Z" fill="#00A0FF"/>
<path d="M509.54 412.348H541.7C542.957 412.348 543.976 411.328 543.976 410.071C543.976 408.815 542.957 407.795 541.7 407.795H509.54C508.283 407.795 507.264 408.815 507.264 410.071C507.264 411.328 508.283 412.348 509.54 412.348Z" fill="#00A0FF"/>
<path d="M500.76 346.559C500.76 347.098 501.196 347.534 501.735 347.534C502.273 347.534 502.709 347.098 502.709 346.559C502.709 346.02 502.273 345.584 501.735 345.584C501.196 345.584 500.76 346.021 500.76 346.559Z" fill="#021147"/>
<path d="M500.76 349.162C500.76 349.7 501.196 350.137 501.735 350.137C502.273 350.137 502.709 349.7 502.709 349.162C502.709 348.623 502.273 348.187 501.735 348.187C501.196 348.187 500.76 348.624 500.76 349.162Z" fill="#00A0FF"/>
<path d="M500.76 356.928C500.76 357.466 501.196 357.902 501.735 357.902C502.273 357.902 502.709 357.466 502.709 356.928C502.709 356.389 502.273 355.953 501.735 355.953C501.196 355.953 500.76 356.389 500.76 356.928Z" fill="white"/>
<path d="M500.76 359.531C500.76 360.069 501.196 360.505 501.735 360.505C502.273 360.505 502.709 360.069 502.709 359.531C502.709 358.992 502.273 358.556 501.735 358.556C501.196 358.556 500.76 358.992 500.76 359.531Z" fill="#00A0FF"/>
<path d="M500.76 377.665C500.76 378.204 501.196 378.64 501.735 378.64C502.273 378.64 502.709 378.204 502.709 377.665C502.709 377.126 502.273 376.69 501.735 376.69C501.196 376.69 500.76 377.126 500.76 377.665Z" fill="white"/>
<path d="M500.76 380.268C500.76 380.806 501.196 381.243 501.735 381.243C502.273 381.243 502.709 380.806 502.709 380.268C502.709 379.729 502.273 379.293 501.735 379.293C501.196 379.293 500.76 379.729 500.76 380.268Z" fill="#00A0FF"/>
<path d="M500.76 367.296C500.76 367.835 501.196 368.271 501.735 368.271C502.273 368.271 502.709 367.835 502.709 367.296C502.709 366.758 502.273 366.322 501.735 366.322C501.196 366.322 500.76 366.758 500.76 367.296Z" fill="#021147"/>
<path d="M500.76 369.899C500.76 370.438 501.196 370.874 501.735 370.874C502.273 370.874 502.709 370.438 502.709 369.899C502.709 369.36 502.273 368.924 501.735 368.924C501.196 368.924 500.76 369.36 500.76 369.899Z" fill="#00A0FF"/>
<path d="M500.76 388.033C500.76 388.571 501.196 389.007 501.735 389.007C502.273 389.007 502.709 388.571 502.709 388.033C502.709 387.494 502.273 387.058 501.735 387.058C501.196 387.059 500.76 387.495 500.76 388.033Z" fill="#021147"/>
<path d="M500.76 390.636C500.76 391.175 501.196 391.611 501.735 391.611C502.273 391.611 502.709 391.175 502.709 390.636C502.709 390.098 502.273 389.662 501.735 389.662C501.196 389.662 500.76 390.098 500.76 390.636Z" fill="#00A0FF"/>
<path d="M500.76 398.401C500.76 398.94 501.196 399.376 501.735 399.376C502.273 399.376 502.709 398.94 502.709 398.401C502.709 397.863 502.273 397.427 501.735 397.427C501.196 397.427 500.76 397.864 500.76 398.401Z" fill="white"/>
<path d="M500.76 401.004C500.76 401.543 501.196 401.979 501.735 401.979C502.273 401.979 502.709 401.543 502.709 401.004C502.709 400.465 502.273 400.029 501.735 400.029C501.196 400.03 500.76 400.466 500.76 401.004Z" fill="#00A0FF"/>
<path d="M500.76 408.77C500.76 409.309 501.196 409.745 501.735 409.745C502.273 409.745 502.709 409.309 502.709 408.77C502.709 408.231 502.273 407.795 501.735 407.795C501.196 407.795 500.76 408.231 500.76 408.77Z" fill="#021147"/>
<path d="M500.76 411.373C500.76 411.911 501.196 412.347 501.735 412.347C502.273 412.347 502.709 411.911 502.709 411.373C502.709 410.834 502.273 410.398 501.735 410.398C501.196 410.398 500.76 410.835 500.76 411.373Z" fill="#00A0FF"/>
<path d="M504.979 334.112H538.858C538.858 332.042 537.179 330.363 535.109 330.363H508.729C506.657 330.363 504.979 332.042 504.979 334.112Z" fill="#0060E6"/>
<path d="M501.99 251.324V253.576H520.851V330.363H523.103V251.324H501.99Z" fill="#00A0FF"/>
<path d="M524.827 252.45C524.827 254.061 523.521 255.366 521.91 255.366C520.3 255.366 518.994 254.061 518.994 252.45C518.994 250.839 520.3 249.534 521.91 249.534C523.521 249.534 524.827 250.839 524.827 252.45Z" fill="#0060E6"/>
</svg>
