<svg width="61" height="60" viewBox="0 0 61 60" fill="none" xmlns="http://www.w3.org/2000/svg">
<rect x="0.26004" width="60" height="60" rx="5" fill="url(#paint0_linear_175_14)"/>
<g clip-path="url(#clip0_175_14)">
<path d="M29.2588 7.5C30.9088 10.1681 28.7338 13.6987 26.9957 15.6712C25.31 17.5837 23.2607 19.1831 21.3988 20.9213C19.4 22.7888 17.4782 24.7538 15.8357 26.9456C12.5488 31.3313 10.535 36.8456 12.0144 42.3187C13.4919 47.7862 18.2282 51.2663 23.5775 52.4981C20.8775 51.3319 18.3538 48.3675 18.3463 45.3356C18.3407 42.0262 20.4369 39.2194 23.0432 37.3744C22.73 38.5594 22.5594 39.6431 23.3338 40.7006C23.6931 41.1845 24.1838 41.5551 24.7474 41.7684C25.3111 41.9818 25.9241 42.029 26.5138 41.9044C29.3019 41.2931 29.4313 38.2294 27.7775 36.4406C26.1425 34.6725 24.5619 32.6737 25.1825 30.1087C25.4957 28.8244 26.285 27.6188 27.2844 26.7581C26.5157 28.7794 28.7 30.7706 30.14 31.7644C32.6375 33.4856 35.3769 34.7869 37.6719 36.8044C40.0869 38.9269 41.8719 41.7937 41.51 45.12C41.12 48.7256 38.255 51.2325 35.0413 52.5C41.8325 51 48.8507 45.7312 48.9913 38.1994C49.1657 32.5144 45.4232 27.48 39.32 24.3544C39.6763 25.2544 39.4588 25.6613 39.2113 26.0869C38.18 27.8569 35.3075 28.2469 33.8957 26.4319C31.6363 23.5294 33.9425 20.4019 34.265 17.3288C34.6682 13.4756 32.2532 9.73687 29.2588 7.5Z" fill="white"/>
</g>
<defs>
<linearGradient id="paint0_linear_175_14" x1="0.26004" y1="33.366" x2="60.26" y2="33.3836" gradientUnits="userSpaceOnUse">
<stop stop-color="#015FE5"/>
<stop offset="0.475565" stop-color="#0148AE"/>
<stop offset="1" stop-color="#01357F"/>
</linearGradient>
<clipPath id="clip0_175_14">
<rect width="45" height="45" fill="white" transform="translate(7.76004 7.5)"/>
</clipPath>
</defs>
</svg>
