<svg width="60" height="60" viewBox="0 0 60 60" fill="none" xmlns="http://www.w3.org/2000/svg">
<rect width="60" height="60" rx="5" fill="url(#paint0_linear_17_202)"/>
<path d="M18.1386 21.5983V24.5799C18.1386 25.094 18.3427 25.5626 18.6723 25.9053L18.6996 25.9311C19.0443 26.2769 19.5221 26.4938 20.0467 26.4938C20.5699 26.4938 21.0476 26.2784 21.3924 25.9311C21.7386 25.5838 21.9533 25.1061 21.9533 24.5814V21.5998H18.1386L18.1386 21.5983ZM35.9753 34.8651C35.7697 34.621 35.8015 34.254 36.0449 34.0477C36.2883 33.8415 36.6542 33.8733 36.8599 34.1175L38.5396 36.1178C38.7453 36.3619 38.7135 36.7289 38.4701 36.9352C38.2267 37.1415 37.8608 37.1096 37.6551 36.8655L35.9753 34.8651ZM33.3551 34.8651C33.1495 34.621 33.1812 34.254 33.4247 34.0477C33.6681 33.8414 34.034 33.8733 34.2396 34.1175L38.4234 39.0978C38.629 39.3419 38.5973 39.7089 38.3539 39.9152C38.1104 40.1215 37.7445 40.0896 37.5389 39.8454L33.3551 34.8651ZM24.1894 39.4921C24.4162 39.2662 24.7821 39.2677 25.0089 39.4952C25.2342 39.7227 25.2327 40.0896 25.0059 40.3172L24.575 40.7479C24.3482 40.9738 23.9823 40.9723 23.7555 40.7448C23.5302 40.5173 23.5317 40.1504 23.7585 39.9229L24.1894 39.4921ZM16.4694 46.8353V31.6377C16.4694 31.3162 16.7295 31.0554 17.05 31.0554H26.3396C26.6601 31.0554 26.9202 31.3162 26.9202 31.6377V46.8353H39.2458C39.5664 46.8353 39.8264 47.0961 39.8264 47.4176C39.8264 47.7391 39.5664 48 39.2458 48H14.017C13.6964 48 13.4364 47.7391 13.4364 47.4176V27.1808C13.2428 27.0579 13.0644 26.9139 12.9026 26.7531C12.3447 26.1965 12 25.4261 12 24.5783V21.2465C12 21.151 12.0227 21.0615 12.0635 20.9811L15.7346 12.3549C15.8283 12.135 16.0415 12.0015 16.2683 12.0015L43.7302 12C43.9842 12 44.2004 12.1638 44.279 12.3913L47.9516 21.019C47.9834 21.0934 47.9985 21.1707 47.9985 21.2465L48 24.5784C48 25.4216 47.6538 26.192 47.0989 26.7501L47.0959 26.7531C46.9356 26.9139 46.7557 27.058 46.5636 27.1808V47.4176C46.5636 47.7392 46.3036 48 45.983 48H43.7756C43.455 48 43.195 47.7392 43.195 47.4176C43.195 47.0961 43.455 46.8353 43.7756 46.8353H45.4024V27.6207C45.2482 27.6449 45.0925 27.6571 44.9322 27.6571C44.0886 27.6571 43.322 27.3098 42.7656 26.7532C42.6461 26.6365 42.5403 26.5106 42.4435 26.3756C42.3467 26.5091 42.2394 26.6349 42.123 26.7532C41.5681 27.3098 40.8 27.6571 39.9548 27.6571C39.1111 27.6571 38.3445 27.3098 37.7881 26.7532C37.6687 26.6365 37.5628 26.5106 37.4661 26.3756C37.3693 26.5091 37.262 26.6349 37.1455 26.7532C36.5906 27.3098 35.8225 27.6571 34.9773 27.6571C34.1337 27.6571 33.3671 27.3098 32.8107 26.7532C32.6912 26.6365 32.5854 26.5106 32.4886 26.3756C32.3919 26.5091 32.2845 26.6349 32.1681 26.7532C31.6132 27.3098 30.8451 27.6571 29.9999 27.6571C29.1562 27.6571 28.3896 27.3098 27.8332 26.7532C27.7138 26.6365 27.6079 26.5106 27.5112 26.3756C27.4144 26.5106 27.3071 26.6365 27.1906 26.7532C26.6342 27.3113 25.8677 27.6571 25.0225 27.6571C24.1788 27.6571 23.4122 27.3098 22.8558 26.7532C22.7363 26.6365 22.6305 26.5106 22.5337 26.3756C22.437 26.5106 22.3296 26.6365 22.2132 26.7532C21.6568 27.3113 20.8902 27.6571 20.045 27.6571C19.2013 27.6571 18.4317 27.3113 17.8768 26.7532L17.8436 26.7168C17.7392 26.6092 17.644 26.4939 17.5563 26.3726C17.4595 26.5075 17.3522 26.6334 17.2342 26.7502C16.6809 27.3083 15.9128 27.6556 15.0676 27.6556C14.9073 27.6556 14.7501 27.6434 14.5958 27.6192V46.8338H16.4676L16.4694 46.8353ZM25.759 46.8353V32.2201H17.6306V46.8353H25.759ZM29.4104 31.0554H42.9456C43.2662 31.0554 43.5262 31.3162 43.5262 31.6377V41.8018C43.5262 42.1233 43.2662 42.3841 42.9456 42.3841H29.4104C29.0898 42.3841 28.8298 42.1233 28.8298 41.8018V31.6377C28.8298 31.3162 29.0898 31.0554 29.4104 31.0554ZM42.365 32.2201H29.991V41.2194H42.365V32.2201ZM41.5531 46.8353C41.8736 46.8353 42.1337 47.0961 42.1337 47.4176C42.1337 47.7391 41.8736 48 41.5531 48H41.4639C41.1434 48 40.8833 47.7391 40.8833 47.4176C40.8833 47.0961 41.1434 46.8353 41.4639 46.8353H41.5531ZM23.1129 21.5968V24.5783C23.1129 25.1046 23.3276 25.5822 23.6739 25.9281C24.0186 26.2753 24.4964 26.4907 25.0211 26.4907C25.5442 26.4907 26.022 26.2753 26.3667 25.9281C26.713 25.5808 26.9277 25.103 26.9277 24.5783V21.5968H23.1114H23.1129ZM28.0902 21.5968V24.5783C28.0902 25.1046 28.3049 25.5822 28.6511 25.9281C28.9959 26.2753 29.4737 26.4907 29.9983 26.4907C30.523 26.4907 30.9992 26.2753 31.344 25.9281C31.6902 25.5808 31.9049 25.1015 31.9049 24.5783V21.5968H28.0902ZM33.0659 21.5968V24.5783C33.0659 25.1046 33.2806 25.5822 33.6269 25.9281C33.9716 26.2753 34.4494 26.4907 34.974 26.4907C35.4987 26.4907 35.975 26.2753 36.3197 25.9281C36.666 25.5808 36.8806 25.1015 36.8806 24.5783V21.5968H33.0644H33.0659ZM38.0432 21.5968V24.5783C38.0432 25.1046 38.2579 25.5822 38.6041 25.9281C38.9489 26.2753 39.4266 26.4907 39.9513 26.4907C40.476 26.4907 40.9522 26.2753 41.297 25.9281C41.6432 25.5808 41.8579 25.1015 41.8579 24.5783V21.5968H38.0417H38.0432ZM43.0205 21.5968V24.5783C43.0205 25.1046 43.2352 25.5822 43.5814 25.9281C43.9261 26.2753 44.4039 26.4907 44.9286 26.4907C45.4532 26.4907 45.931 26.2753 46.2742 25.9311C46.6205 25.5838 46.8352 25.1046 46.8352 24.5783V21.5968H43.019H43.0205ZM46.439 20.4321L43.347 13.1662H16.65L13.558 20.4321H46.4403H46.439ZM13.1603 21.5968V24.5783C13.1603 25.1046 13.375 25.5822 13.7213 25.9281C14.066 26.2753 14.5438 26.4907 15.0685 26.4907C15.5916 26.4907 16.0694 26.2753 16.4141 25.9281C16.7604 25.5823 16.9751 25.1046 16.9751 24.5783V21.5968H13.1588H13.1603Z" fill="white"/>
<defs>
<linearGradient id="paint0_linear_17_202" x1="-1.10363e-10" y1="33.366" x2="60" y2="33.3836" gradientUnits="userSpaceOnUse">
<stop stop-color="#015FE5"/>
<stop offset="0.475565" stop-color="#0148AE"/>
<stop offset="1" stop-color="#01357F"/>
</linearGradient>
</defs>
</svg>
