<svg width="60" height="60" viewBox="0 0 60 60" fill="none" xmlns="http://www.w3.org/2000/svg">
<rect width="60" height="60" rx="5" fill="url(#paint0_linear_19_241)"/>
<path d="M21.4487 14.5921C21.6925 14.5921 21.8894 14.3952 21.8894 14.1515C21.8894 13.9077 21.6925 13.7108 21.4487 13.7108H21.4316C21.1878 13.7108 21.0003 13.9077 21.0003 14.1515C21.0003 14.3952 21.2066 14.5921 21.4487 14.5921Z" fill="white"/>
<path d="M23.7126 14.592C23.9564 14.592 24.1533 14.3952 24.1533 14.1514C24.1533 13.9076 23.9564 13.7108 23.7126 13.7108L23.6954 13.7092C23.4517 13.7092 23.2627 13.9061 23.2627 14.1498C23.2642 14.3951 23.4705 14.592 23.7126 14.592Z" fill="white"/>
<path d="M25.9766 14.592C26.2203 14.592 26.4172 14.3952 26.4172 14.1514C26.4172 13.9076 26.2203 13.7108 25.9766 13.7108L25.9594 13.7092C25.7156 13.7092 25.5266 13.9061 25.5266 14.1498C25.5281 14.3951 25.7344 14.592 25.9766 14.592Z" fill="white"/>
<path d="M29.458 27.8215C29.4705 27.7606 29.4783 27.6965 29.4783 27.6325C29.4783 27.1075 29.0517 26.6809 28.5268 26.6809C28.4627 26.6809 28.3986 26.6888 28.3377 26.6997C27.3831 25.2279 27.5753 23.2623 28.8392 21.9983C29.1595 21.678 29.5345 21.4233 29.9361 21.239C30.1064 21.403 30.3376 21.5046 30.5923 21.5046C31.1173 21.5046 31.5438 21.0796 31.5438 20.5546C31.5438 20.0312 31.1173 19.6046 30.5923 19.6046C30.1204 19.6046 29.7314 19.9515 29.6564 20.4031C29.1268 20.6312 28.6315 20.9593 28.2143 21.3765C27.1252 22.4655 26.6862 23.9748 26.919 25.4059L25.5003 23.9841C25.5269 23.8966 25.5456 23.8059 25.5456 23.7091C25.5456 23.1857 25.1191 22.7591 24.5941 22.7591C24.0691 22.7591 23.6441 23.1857 23.6441 23.7091C23.6441 24.2341 24.0707 24.6606 24.5941 24.6606C24.6957 24.6606 24.7894 24.6403 24.88 24.6122L27.6205 27.3589C27.594 27.4464 27.5752 27.537 27.5752 27.6324C27.5752 28.1651 27.9924 28.5823 28.5252 28.5823C28.6205 28.5823 28.7127 28.5636 28.7986 28.537L31.5532 31.2822C31.5266 31.3713 31.5063 31.4635 31.5063 31.5619C31.5063 32.0869 31.9297 32.5134 32.4485 32.5134C32.9719 32.5134 33.3984 32.0869 33.3984 31.5619C33.3984 31.0369 32.9719 30.6119 32.4485 30.6119C32.3532 30.6119 32.261 30.6307 32.1751 30.6572L30.7579 29.2432C31.0017 29.2823 31.2501 29.3026 31.497 29.3026C32.6922 29.3026 33.8812 28.8448 34.7812 27.9448C35.1734 27.5589 35.4858 27.1011 35.7218 26.5871C36.1811 26.5215 36.5374 26.1278 36.5374 25.6512C36.5374 25.1262 36.1109 24.6997 35.5859 24.6997C35.0609 24.6997 34.6359 25.1262 34.6359 25.6512C34.6359 25.8981 34.7328 26.1231 34.889 26.2918C34.7015 26.6793 34.4609 27.023 34.1609 27.3184C32.8969 28.5839 30.9299 28.7746 29.458 27.8215ZM30.5923 20.4858C30.6345 20.4858 30.6626 20.5124 30.6626 20.5546C30.6626 20.5889 30.6345 20.6249 30.5923 20.6249C30.5642 20.6249 30.5376 20.5968 30.5298 20.5686C30.5282 20.5624 30.5282 20.5577 30.5251 20.5499C30.5282 20.5108 30.5595 20.4858 30.5923 20.4858ZM28.5267 27.7011C28.4845 27.7011 28.458 27.6746 28.458 27.6324C28.458 27.6183 28.4658 27.6027 28.4752 27.5902C28.4767 27.5886 28.4783 27.5855 28.4799 27.5839C28.4924 27.5714 28.508 27.5621 28.5267 27.5621C28.5595 27.5621 28.5955 27.598 28.5955 27.6308C28.5955 27.6511 28.5861 27.6667 28.5736 27.6792C28.572 27.6808 28.5689 27.6808 28.5674 27.6839C28.5564 27.6933 28.5424 27.7011 28.5267 27.7011ZM24.5941 23.6405C24.6363 23.6405 24.6628 23.6671 24.6628 23.7092C24.6628 23.7249 24.655 23.7389 24.6457 23.7514C24.6441 23.753 24.6425 23.7561 24.641 23.7577C24.6285 23.7702 24.6128 23.7795 24.5925 23.7795C24.5597 23.7795 24.5238 23.7436 24.5238 23.7108C24.5253 23.667 24.5613 23.6405 24.5941 23.6405ZM32.4502 31.6322C32.4189 31.6322 32.3892 31.5978 32.3892 31.5634C32.3892 31.529 32.4189 31.4931 32.4502 31.4931C32.4908 31.4931 32.5189 31.529 32.5189 31.5634C32.5189 31.5962 32.4908 31.6322 32.4502 31.6322ZM35.5876 25.584C35.6298 25.584 35.6563 25.6106 35.6563 25.6543C35.6563 25.6871 35.6282 25.7231 35.5876 25.7231C35.5548 25.7231 35.5188 25.6871 35.5188 25.6543C35.5173 25.6121 35.5532 25.584 35.5876 25.584Z" fill="white"/>
<path d="M43.701 42.8581H46.8727C47.254 42.8581 47.5649 42.5487 47.5649 42.1659V27.6745C47.5649 27.2933 47.2555 26.9823 46.8727 26.9823H45.9228L45.9212 22.2917C45.9212 21.4058 45.1994 20.684 44.3135 20.684H40.598V18.4778L43.9135 15.1655C44.3447 14.7202 44.2697 13.9593 43.7432 13.4328L42.7589 12.4484C42.2527 11.9422 41.462 11.8578 41.0199 12.2844L40.3668 12.9375C40.0558 12.3766 39.459 12 38.7731 12H19.5911C18.5864 12 17.7677 12.8187 17.7677 13.8234V20.6839H14.0429C13.1554 20.6839 12.4351 21.4042 12.4351 22.2916L12.4367 40.3425C12.4367 41.2284 13.157 41.9502 14.0444 41.9502H26.4971V44.0251H23.7581C22.6629 44.0251 21.7707 44.9173 21.7707 46.0126V47.5594C21.7707 47.8031 21.9676 48 22.2113 48H46.9351H46.9414C47.1851 48 47.382 47.8031 47.382 47.5594C47.382 47.4203 47.3179 47.2969 47.2164 47.2156L42.2918 41.9503H43.0089V42.1659C43.0089 42.5471 43.3197 42.8581 43.701 42.8581ZM35.4421 34.624C35.3187 34.4928 35.1265 34.449 34.9578 34.5146C34.789 34.5818 34.6781 34.7443 34.6781 34.9255V36.9473H15.3585V23.6043H17.7693V33.8959C17.7693 34.1396 17.9662 34.3365 18.2099 34.3365H40.159C40.4028 34.3365 40.5997 34.1396 40.5997 33.8959L40.5981 23.6043H43.0089V36.9473H37.6139L35.4421 34.624ZM34.6797 41.9501V44.0297C34.6562 44.0281 34.6344 44.0235 34.6109 44.0235H31.8642V41.9485L34.6797 41.9501ZM46.6824 41.9751H43.8903V41.1189H44.3309C44.5731 41.1189 44.7715 40.922 44.7715 40.6783C44.7715 40.4345 44.5747 40.2377 44.3309 40.2377H43.8903V39.4768H44.3309C44.5731 39.4768 44.7715 39.2799 44.7715 39.0362C44.7715 38.7924 44.5747 38.5955 44.3309 38.5955H43.8903V37.8268H45.4809C45.7246 37.8268 45.9215 37.6299 45.9215 37.3862C45.9215 37.1424 45.7246 36.9456 45.4809 36.9456H43.8903V36.1847H44.3309C44.5731 36.1847 44.7715 35.9878 44.7715 35.744C44.7715 35.5003 44.5747 35.3034 44.3309 35.3034H43.8903V34.5347H45.4809C45.7246 34.5347 45.9215 34.3378 45.9215 34.0941C45.9215 33.8503 45.7246 33.6535 45.4809 33.6535H43.8903V32.8926H44.3309C44.5731 32.8926 44.7715 32.6957 44.7715 32.4519C44.7715 32.2082 44.5747 32.0113 44.3309 32.0113H43.8903V31.2426H45.4809C45.7246 31.2426 45.9215 31.0457 45.9215 30.802C45.9215 30.5582 45.7246 30.3613 45.4809 30.3613H43.8903V29.6005H44.3309C44.5731 29.6005 44.7715 29.4036 44.7715 29.1598C44.7715 28.9161 44.5747 28.7192 44.3309 28.7192H43.8903V27.863H46.6824V41.9751ZM44.3153 21.5652C44.7153 21.5652 45.0403 21.8901 45.0403 22.2901V26.9835H43.8919V23.1634C43.8919 22.9196 43.695 22.7227 43.4512 22.7227H40.5998V21.565L44.3153 21.5652ZM39.7171 33.4555H18.6491V16.303H37.0032L30.2551 23.0511C30.1894 23.1167 30.1473 23.2011 30.1316 23.2933L29.7004 25.99C29.677 26.1291 29.7238 26.2713 29.8254 26.3713C29.9082 26.4541 30.0207 26.4994 30.1363 26.4994C30.1598 26.4994 30.1832 26.4978 30.2082 26.4931L32.905 26.051C32.9956 26.0369 33.08 25.9932 33.1456 25.9275L39.7205 19.3574L39.7171 33.4555ZM39.4655 15.0858L41.103 16.7295L32.6189 25.2056L30.6659 25.5243L30.9784 23.5728L38.3373 16.2139C38.3716 16.1889 38.4013 16.1577 38.4279 16.1233L39.4655 15.0858ZM41.6404 12.9125C41.667 12.8859 41.7123 12.8797 41.7451 12.8797C41.8404 12.8797 41.9935 12.9297 42.1357 13.0718L43.1216 14.0577C43.32 14.2561 43.3482 14.4843 43.2857 14.5483L41.7264 16.1061L40.0889 14.4639L40.4139 14.139C40.4498 14.114 40.4811 14.0811 40.5076 14.0452L41.6404 12.9125ZM19.5913 12.8797H38.7749C39.2156 12.8797 39.5937 13.1953 39.6937 13.6109L37.8844 15.4202L18.6492 15.4217V13.8233C18.6492 13.303 19.0726 12.8797 19.5913 12.8797ZM13.318 40.3425V22.2917C13.318 21.8995 13.6492 21.5667 14.043 21.5667H17.7678V22.7245H14.9164C14.6726 22.7245 14.4757 22.9213 14.4757 23.1651V37.3893C14.4757 37.633 14.6726 37.8299 14.9164 37.8299H34.678V41.0704H14.0428C13.6506 41.0689 13.318 40.7363 13.318 40.3425ZM27.3766 41.9503H30.9796V44.0252H27.3766V41.9503ZM22.6504 46.0109C22.6504 45.4016 23.1457 44.9047 23.7566 44.9047H34.611C34.636 44.9047 34.6563 44.9094 34.6797 44.9109V47.1187H22.6506L22.6504 46.0109ZM36.1579 47.1186H35.5626L35.561 36.0411L40.9328 41.7861C40.9468 41.8048 40.9625 41.8204 40.9781 41.8345L45.9187 47.1187L36.1583 47.1171L36.1579 47.1186ZM41.4684 41.0689L38.4389 37.8284H43.0107V41.0689H41.4684Z" fill="white"/>
<path d="M37.7841 40.5521C37.6606 40.4209 37.4684 40.3772 37.2997 40.4428C37.131 40.5084 37.0216 40.6709 37.0216 40.8521V45.2159C37.0216 45.4597 37.2185 45.6566 37.4622 45.6566H41.5401C41.7151 45.6566 41.8744 45.5519 41.9447 45.3909C42.015 45.23 41.9822 45.0425 41.8619 44.9144L37.7841 40.5521ZM37.9028 44.7756V41.9694L40.5261 44.7756H37.9028Z" fill="white"/>
<defs>
<linearGradient id="paint0_linear_19_241" x1="-1.10363e-10" y1="33.366" x2="60" y2="33.3836" gradientUnits="userSpaceOnUse">
<stop stop-color="#015FE5"/>
<stop offset="0.475565" stop-color="#0148AE"/>
<stop offset="1" stop-color="#01357F"/>
</linearGradient>
</defs>
</svg>
