<svg width="61" height="60" viewBox="0 0 61 60" fill="none" xmlns="http://www.w3.org/2000/svg">
<rect x="0.26004" width="60" height="60" rx="5" fill="url(#paint0_linear_175_13)"/>
<path d="M48.4475 19.7438C48.4663 19.7813 48.4663 19.8375 48.4663 19.8938V27.9375C48.4663 28.125 48.3538 28.35 48.185 28.4438L41.4163 32.3438V40.05C41.4163 40.2563 41.3225 40.4437 41.135 40.5562L27.035 48.675C26.9975 48.6937 26.96 48.75 26.9225 48.75H26.51C26.51 48.75 26.51 48.6937 26.435 48.675L12.335 40.5562C12.2492 40.5025 12.1785 40.4278 12.1293 40.3393C12.0801 40.2508 12.0541 40.1513 12.0538 40.05V15.9375C12.0538 15.8437 12.0538 15.7875 12.0725 15.75C12.0725 15.7312 12.0913 15.7125 12.0913 15.6937C12.0913 15.6562 12.11 15.6375 12.1288 15.6C12.1288 15.5812 12.1475 15.5625 12.1663 15.5437L12.2225 15.4875L12.2788 15.4312C12.2975 15.4125 12.3163 15.3937 12.335 15.3937L19.385 11.325C19.5725 11.25 19.7975 11.25 19.9475 11.325L27.035 15.3937C27.0538 15.4125 27.0725 15.4125 27.0913 15.4312L27.1475 15.4875L27.2038 15.5437C27.2225 15.5625 27.2413 15.5812 27.2413 15.6C27.26 15.6375 27.2788 15.6562 27.2788 15.6937C27.2788 15.7125 27.2975 15.7312 27.2975 15.75C27.3163 15.8062 27.3163 15.8437 27.3163 15.9375V30.9375L33.2038 27.6V19.8938C33.2038 19.8375 33.2038 19.7813 33.2225 19.7438L33.2413 19.6875C33.2413 19.6875 33.26 19.6312 33.2788 19.5937C33.2788 19.575 33.2975 19.5563 33.3163 19.5375L33.3725 19.4812L33.4288 19.425C33.4475 19.4063 33.4663 19.3875 33.485 19.3875L40.5725 15.3187C40.7225 15.2062 40.9475 15.2062 41.135 15.3187L48.185 19.3875C48.2038 19.3875 48.2225 19.4063 48.2413 19.425L48.2975 19.4812L48.3538 19.5375C48.3725 19.5563 48.3725 19.575 48.3913 19.5937C48.41 19.6312 48.41 19.6875 48.4288 19.6875C48.4475 19.6875 48.4475 19.6875 48.4475 19.7438ZM47.3038 27.6V20.9063L41.4163 24.2813V30.9375L47.3038 27.6ZM40.2538 39.7125V33L27.3163 40.3875V47.1563L40.2538 39.7125ZM13.2163 16.875V39.7125L26.1538 47.1563V40.3875L19.4038 36.5625H19.385C19.3663 36.5625 19.3475 36.5625 19.3288 36.5063C19.31 36.5063 19.2913 36.4875 19.2725 36.4688L19.2163 36.4125C19.1975 36.3938 19.1975 36.375 19.1788 36.3563C19.16 36.3188 19.16 36.3 19.1413 36.2813C19.1413 36.2438 19.1225 36.225 19.1225 36.2063C19.1038 36.1875 19.1038 36.15 19.1038 36.1313V20.2875L13.2163 16.875ZM19.685 12.525L13.8163 15.9375L19.685 19.275L25.5725 15.9375L19.685 12.525ZM26.1538 31.65V16.875L20.2663 20.2875V35.0437L26.1538 31.65ZM40.835 16.5L34.9475 19.8938L40.835 23.2688L46.7038 19.8938L40.835 16.5ZM40.2538 24.2813L34.3663 20.9063V27.6L40.2538 30.9375V24.2813ZM26.735 39.375L39.635 31.9875L33.785 28.6125L20.885 36.0562L26.735 39.375Z" fill="white"/>
<defs>
<linearGradient id="paint0_linear_175_13" x1="0.26004" y1="33.366" x2="60.26" y2="33.3836" gradientUnits="userSpaceOnUse">
<stop stop-color="#015FE5"/>
<stop offset="0.475565" stop-color="#0148AE"/>
<stop offset="1" stop-color="#01357F"/>
</linearGradient>
</defs>
</svg>
