<svg width="60" height="60" viewBox="0 0 60 60" fill="none" xmlns="http://www.w3.org/2000/svg">
<g clip-path="url(#clip0_1_2)">
<rect width="60" height="60" rx="5" fill="white"/>
<rect width="60" height="60" rx="5" fill="url(#paint0_linear_1_2)"/>
<path d="M53.6789 30C53.6789 33.0847 51.1921 36.0089 46.8716 38.1917C42.5796 40.3602 36.6153 41.7159 30 41.7159C23.3847 41.7159 17.4204 40.3602 13.1284 38.1917C8.80796 36.0089 6.32111 33.0847 6.32111 30C6.32111 26.9153 8.80796 23.9911 13.1284 21.8083C17.4204 19.6399 23.3847 18.2841 30 18.2841C36.6153 18.2841 42.5796 19.6399 46.8716 21.8083C51.1921 23.9911 53.6789 26.9153 53.6789 30Z" stroke="white"/>
<path d="M14.6543 37.4113H17.0994C17.1522 37.4118 17.2034 37.3932 17.2435 37.3588C17.2836 37.3244 17.3099 37.2767 17.3174 37.2244L17.8625 34.3899H19.7625C20.5579 34.4098 21.3514 34.3047 22.1142 34.0785C22.7322 33.8741 23.2964 33.5334 23.765 33.0817C24.1859 32.7033 24.5389 32.2556 24.8085 31.7579C25.0752 31.2711 25.2643 30.7456 25.3692 30.2005C25.5346 29.6291 25.563 29.0267 25.4521 28.4422C25.3412 27.8577 25.094 27.3076 24.7306 26.8366C24.3096 26.4088 23.8001 26.0783 23.2378 25.8685C22.6754 25.6586 22.074 25.5744 21.4757 25.6218H16.8035C16.7474 25.6243 16.6939 25.6457 16.6515 25.6824C16.6091 25.7192 16.5803 25.7691 16.5699 25.8242L14.4207 37.131C14.3969 37.1963 14.3969 37.268 14.4207 37.3334C14.4504 37.3643 14.4872 37.3876 14.5279 37.4012C14.5686 37.4147 14.6119 37.4182 14.6543 37.4113ZM19.0928 27.8177H20.6502C20.9465 27.7779 21.2478 27.7973 21.5365 27.8749C21.8253 27.9524 22.0957 28.0865 22.3322 28.2694C22.597 28.5497 22.6437 29.0792 22.5035 29.8268C22.4255 30.4955 22.1106 31.1143 21.6158 31.571C20.999 31.9616 20.2723 32.1419 19.5445 32.085H18.2986L19.0928 27.8177ZM34.3553 26.3382C33.5122 25.7183 32.4682 25.4351 31.4274 25.5439H29.5741L30.0881 22.8029C30.1033 22.7713 30.1111 22.7367 30.1111 22.7017C30.1111 22.6666 30.1033 22.632 30.0881 22.6004C30.0328 22.5802 29.9721 22.5802 29.9168 22.6004H27.4716C27.4188 22.5999 27.3676 22.6185 27.3275 22.6529C27.2874 22.6873 27.2612 22.735 27.2536 22.7873L25.1044 34.1096C25.0894 34.1385 25.0815 34.1705 25.0815 34.203C25.0815 34.2356 25.0894 34.2676 25.1044 34.2965C25.1228 34.3252 25.1481 34.3489 25.1781 34.3652C25.208 34.3815 25.2416 34.3901 25.2757 34.3899H27.6741C27.7293 34.3901 27.7826 34.3693 27.823 34.3317C27.8635 34.2941 27.8882 34.2426 27.8921 34.1875L29.0913 27.8489H30.82C31.5209 27.8489 31.7701 28.0046 31.8479 28.098C31.9113 28.2511 31.944 28.4152 31.944 28.5808C31.944 28.7465 31.9113 28.9106 31.8479 29.0636L30.8979 34.1096C30.8829 34.1385 30.8751 34.1705 30.8751 34.203C30.8751 34.2356 30.8829 34.2676 30.8979 34.2965C30.9173 34.3243 30.9428 34.3472 30.9725 34.3634C31.0023 34.3797 31.0354 34.3887 31.0692 34.3899H33.4988C33.5548 34.3874 33.6084 34.3661 33.6508 34.3293C33.6932 34.2926 33.7219 34.2426 33.7324 34.1875L34.7291 28.8923C34.8899 28.4701 34.94 28.0137 34.8746 27.5666C34.8092 27.1195 34.6304 26.6966 34.3553 26.3382ZM41.3948 25.5439H36.5201C36.4915 25.5418 36.4627 25.5454 36.4354 25.5544C36.4082 25.5634 36.3829 25.5778 36.3612 25.5966C36.3395 25.6154 36.3217 25.6383 36.3089 25.664C36.2961 25.6897 36.2885 25.7177 36.2865 25.7464L34.0127 37.131C33.9985 37.1628 33.9912 37.1973 33.9912 37.2322C33.9912 37.2671 33.9985 37.3015 34.0127 37.3334C34.0336 37.3584 34.0599 37.3783 34.0895 37.3918C34.1192 37.4053 34.1515 37.4119 34.184 37.4113H36.7226C36.778 37.4158 36.8331 37.399 36.8765 37.3642C36.9199 37.3295 36.9484 37.2795 36.9562 37.2244L37.5324 34.3899H39.5103C40.3312 34.408 41.1501 34.303 41.9399 34.0785C42.6199 33.8893 43.2482 33.5485 43.7776 33.0817C44.2123 32.7044 44.5808 32.257 44.8678 31.7579C45.1394 31.2718 45.3338 30.7464 45.444 30.2005C45.6138 29.6286 45.6429 29.0241 45.5291 28.4384C45.4152 27.8528 45.1616 27.3032 44.7899 26.8366C44.3496 26.3905 43.8186 26.0443 43.2328 25.8213C42.6471 25.5983 42.0202 25.5037 41.3948 25.5439ZM42.3604 29.8579C42.2672 30.5323 41.9357 31.151 41.4259 31.6022C40.7868 31.9945 40.0399 32.1744 39.2923 32.1161H38.0464L38.8874 27.8177H40.4448C41.0673 27.7414 41.6958 27.9027 42.2046 28.2694C42.4538 28.5497 42.4538 29.0792 42.3604 29.8579Z" fill="white"/>
</g>
<defs>
<linearGradient id="paint0_linear_1_2" x1="0" y1="30" x2="60" y2="30" gradientUnits="userSpaceOnUse">
<stop stop-color="#015FE5"/>
<stop offset="0.5" stop-color="#014EBD"/>
<stop offset="1" stop-color="#01357F"/>
</linearGradient>
<clipPath id="clip0_1_2">
<rect width="60" height="60" rx="5" fill="white"/>
</clipPath>
</defs>
</svg>
