<svg width="61" height="60" viewBox="0 0 61 60" fill="none" xmlns="http://www.w3.org/2000/svg">
<rect x="0.26004" width="60" height="60" rx="5" fill="url(#paint0_linear_175_12)"/>
<path d="M30.26 29.7531C32.3419 29.7531 34.0295 28.0655 34.0295 25.9837C34.0295 23.9018 32.3419 22.2142 30.26 22.2142C28.1782 22.2142 26.4906 23.9018 26.4906 25.9837C26.4906 28.0655 28.1782 29.7531 30.26 29.7531Z" fill="white"/>
<path d="M44.5774 19.7673C43.85 19.5028 43.0895 19.2383 42.2959 19.0068C42.4943 18.2132 42.6596 17.4197 42.7919 16.6592C43.4863 12.2945 42.7258 9.21941 40.6096 8.02905C39.9813 7.66533 39.2869 7.5 38.4934 7.5C36.1788 7.5 33.2359 9.21941 30.26 12.0961C27.2841 9.21941 24.3413 7.5 22.0267 7.5C21.2331 7.5 20.5387 7.66533 19.9105 8.02905C17.7943 9.25248 17.0338 12.3276 17.7282 16.6592C17.8604 17.4197 18.0258 18.2132 18.2242 19.0068C17.4306 19.2383 16.6701 19.4697 15.9426 19.7673C11.8094 21.3545 9.56097 23.5368 9.56097 25.9837C9.56097 28.4305 11.8425 30.6128 15.9426 32.2C16.6701 32.4645 17.4306 32.729 18.2242 32.9605C18.0258 33.7541 17.8604 34.5476 17.7282 35.3082C17.0338 39.6728 17.7943 42.7479 19.9105 43.9383C20.5387 44.302 21.2331 44.4673 22.0267 44.4673C24.3744 44.4673 27.3172 42.7479 30.26 39.8712C33.2359 42.7479 36.1788 44.4673 38.4934 44.4673C39.2869 44.4673 39.9813 44.302 40.6096 43.9383C42.7258 42.7148 43.4863 39.6397 42.7919 35.3082C42.6596 34.5476 42.4943 33.7541 42.2959 32.9605C43.0895 32.729 43.85 32.4976 44.5774 32.2C48.7106 30.6128 50.9591 28.4305 50.9591 25.9837C50.9591 23.5368 48.7106 21.3545 44.5774 19.7673ZM39.6837 9.68233C41.0394 10.4759 41.5023 12.9228 40.9402 16.3946C40.841 17.089 40.6757 17.8165 40.4773 18.577C38.7579 18.1802 36.9393 17.9157 35.0215 17.7503C33.8972 16.1632 32.7399 14.7414 31.5827 13.4518C34.0295 11.038 36.5094 9.38474 38.5264 9.38474C38.9563 9.38474 39.3531 9.48393 39.6837 9.68233ZM35.9804 29.2902C35.3852 30.3483 34.6908 31.4064 33.9634 32.4645C32.7399 32.5637 31.5165 32.5968 30.26 32.5968C28.9705 32.5968 27.747 32.5637 26.5567 32.4645C25.8292 31.4064 25.1679 30.3483 24.5727 29.2902C23.9445 28.1991 23.3493 27.0748 22.8203 25.9837C23.3493 24.8925 23.9445 23.7683 24.5727 22.6771C25.1679 21.619 25.8623 20.5609 26.5897 19.5028C27.8132 19.4036 29.0366 19.3705 30.2931 19.3705C31.5827 19.3705 32.8061 19.4036 33.9964 19.5028C34.7239 20.5609 35.3852 21.619 35.9804 22.6771C36.6086 23.7683 37.2038 24.8925 37.7328 25.9837C37.1707 27.0748 36.6086 28.166 35.9804 29.2902ZM38.7248 28.1991C39.2208 29.3563 39.6176 30.4806 39.9813 31.6048C38.8571 31.8693 37.6667 32.0677 36.4102 32.2331C36.807 31.6048 37.2369 30.9435 37.6006 30.2491C37.9974 29.5547 38.3611 28.8604 38.7248 28.1991ZM30.26 37.1598C29.4665 36.3001 28.7059 35.3743 27.9785 34.4154C28.739 34.4484 29.4995 34.4815 30.26 34.4815C31.0205 34.4815 31.781 34.4484 32.5416 34.4154C31.8141 35.3743 31.0536 36.3001 30.26 37.1598ZM24.1098 32.2C22.8533 32.0347 21.663 31.8363 20.5387 31.5717C20.9025 30.4806 21.2993 29.3233 21.7952 28.166C22.159 28.8273 22.5227 29.5217 22.9195 30.183C23.3163 30.9104 23.713 31.5387 24.1098 32.2ZM21.7952 23.7683C21.2993 22.611 20.9025 21.4867 20.5387 20.3625C21.663 20.098 22.8533 19.8996 24.1098 19.7343C23.713 20.3625 23.2832 21.0238 22.9195 21.7182C22.5227 22.4126 22.159 23.107 21.7952 23.7683ZM30.26 14.8075C31.0536 15.6672 31.8141 16.593 32.5416 17.5519C31.781 17.5189 31.0205 17.4858 30.26 17.4858C29.4995 17.4858 28.739 17.5189 27.9785 17.5519C28.7059 16.593 29.4665 15.6672 30.26 14.8075ZM37.6006 21.7513L36.4102 19.7673C37.6667 19.9327 38.8571 20.1311 39.9813 20.3956C39.6176 21.4867 39.2208 22.644 38.7248 23.8013C38.3611 23.107 37.9974 22.4126 37.6006 21.7513ZM19.5798 16.3946C19.0177 12.9228 19.4806 10.4759 20.8363 9.68233C21.167 9.48393 21.5638 9.38474 21.9936 9.38474C23.9776 9.38474 26.4575 11.005 28.9374 13.4518C27.7801 14.7083 26.6228 16.1632 25.4986 17.7503C23.5808 17.9157 21.7622 18.2132 20.0428 18.577C19.8444 17.8165 19.7121 17.089 19.5798 16.3946ZM11.4126 25.9837C11.4126 24.4296 13.2974 22.7763 16.6039 21.5529C17.2653 21.2883 17.9927 21.0569 18.7201 20.8585C19.2492 22.5118 19.9105 24.2643 20.7041 26.0167C19.9105 27.7692 19.2161 29.4886 18.7201 31.1419C14.1571 29.8193 11.4126 27.8353 11.4126 25.9837ZM20.8363 42.285C19.4806 41.4914 19.0177 39.0446 19.5798 35.5727C19.679 34.8783 19.8444 34.1509 20.0428 33.3904C21.7622 33.7871 23.5808 34.0517 25.4986 34.217C26.6228 35.8041 27.7801 37.226 28.9374 38.5155C26.4906 40.9293 24.0106 42.5826 21.9936 42.5826C21.5638 42.5826 21.167 42.4834 20.8363 42.285ZM40.9402 35.5727C41.5023 39.0446 41.0394 41.4914 39.6837 42.285C39.3531 42.4834 38.9563 42.5826 38.5264 42.5826C36.5425 42.5826 34.0626 40.9624 31.5827 38.5155C32.7399 37.259 33.8972 35.8041 35.0215 34.217C36.9393 34.0517 38.7579 33.7541 40.4773 33.3904C40.6757 34.1509 40.8079 34.8783 40.9402 35.5727ZM43.9161 30.4144C43.2548 30.679 42.5274 30.9104 41.7999 31.1088C41.2709 29.4555 40.6096 27.7031 39.816 25.9506C40.6096 24.1981 41.3039 22.4787 41.7999 20.8254C46.363 22.1481 49.1074 24.132 49.1074 25.9837C49.1074 27.5377 47.1896 29.191 43.9161 30.4144Z" fill="white"/>
<path d="M14.5553 52.4361V48.5885H15.9268C16.2249 48.5885 16.4722 48.6398 16.6689 48.7425C16.8668 48.8453 17.0145 48.9874 17.1122 49.169C17.2099 49.3494 17.2588 49.5579 17.2588 49.7946C17.2588 50.0301 17.2093 50.2374 17.1104 50.4165C17.0127 50.5943 16.8649 50.7327 16.667 50.8317C16.4703 50.9306 16.223 50.9801 15.9249 50.9801H14.886V50.4804H15.8723C16.0602 50.4804 16.213 50.4534 16.3307 50.3996C16.4497 50.3457 16.5367 50.2674 16.5918 50.1647C16.6469 50.062 16.6745 49.9387 16.6745 49.7946C16.6745 49.6493 16.6463 49.5235 16.59 49.417C16.5348 49.3106 16.4478 49.2291 16.3288 49.1728C16.2111 49.1152 16.0564 49.0864 15.8648 49.0864H15.1358V52.4361H14.5553ZM16.4547 50.7002L17.4053 52.4361H16.744L15.8122 50.7002H16.4547Z" fill="white"/>
<path d="M19.1276 52.4944C18.8433 52.4944 18.5985 52.4336 18.3931 52.3121C18.1889 52.1894 18.0311 52.0172 17.9196 51.7955C17.8094 51.5725 17.7543 51.3114 17.7543 51.012C17.7543 50.7165 17.8094 50.4559 17.9196 50.2305C18.0311 50.0051 18.1864 49.8291 18.3855 49.7026C18.5859 49.5761 18.8202 49.5128 19.0882 49.5128C19.251 49.5128 19.4088 49.5398 19.5616 49.5936C19.7144 49.6475 19.8516 49.732 19.9731 49.8472C20.0946 49.9625 20.1904 50.1121 20.2605 50.2963C20.3307 50.4791 20.3657 50.7014 20.3657 50.9632V51.1624H18.0718V50.7415H19.8153C19.8153 50.5937 19.7852 50.4628 19.7251 50.3489C19.665 50.2336 19.5804 50.1428 19.4715 50.0764C19.3637 50.0101 19.2372 49.9769 19.0919 49.9769C18.9341 49.9769 18.7964 50.0157 18.6786 50.0934C18.5621 50.1698 18.472 50.27 18.4081 50.394C18.3455 50.5167 18.3142 50.6501 18.3142 50.7941V51.1229C18.3142 51.3158 18.348 51.4799 18.4156 51.6151C18.4845 51.7504 18.5803 51.8537 18.7031 51.9251C18.8258 51.9952 18.9692 52.0303 19.1333 52.0303C19.2397 52.0303 19.3368 52.0153 19.4245 51.9852C19.5122 51.9539 19.5879 51.9076 19.6518 51.8462C19.7157 51.7848 19.7645 51.7091 19.7984 51.6189L20.33 51.7147C20.2874 51.8713 20.211 52.0084 20.1008 52.1261C19.9919 52.2426 19.8547 52.3334 19.6894 52.3986C19.5253 52.4624 19.3381 52.4944 19.1276 52.4944Z" fill="white"/>
<path d="M21.8288 52.5C21.6459 52.5 21.4806 52.4662 21.3328 52.3986C21.185 52.3297 21.0679 52.2301 20.9815 52.0998C20.8963 51.9696 20.8537 51.8099 20.8537 51.6208C20.8537 51.4579 20.885 51.3239 20.9477 51.2187C21.0103 51.1135 21.0948 51.0302 21.2013 50.9688C21.3078 50.9075 21.4267 50.8611 21.5582 50.8298C21.6898 50.7985 21.8238 50.7747 21.9603 50.7584C22.1331 50.7384 22.2734 50.7221 22.3811 50.7096C22.4888 50.6958 22.5671 50.6739 22.616 50.6438C22.6648 50.6138 22.6892 50.5649 22.6892 50.4973V50.4841C22.6892 50.3201 22.6429 50.1929 22.5502 50.1027C22.4588 50.0126 22.3223 49.9675 22.1407 49.9675C21.9515 49.9675 21.8025 50.0094 21.6935 50.0934C21.5858 50.176 21.5113 50.2681 21.4699 50.3695L20.942 50.2493C21.0046 50.0739 21.0961 49.9324 21.2163 49.8247C21.3378 49.7157 21.4775 49.6368 21.6353 49.588C21.7931 49.5379 21.959 49.5128 22.1331 49.5128C22.2484 49.5128 22.3705 49.5266 22.4995 49.5542C22.6297 49.5805 22.7512 49.6293 22.864 49.7007C22.9779 49.7721 23.0712 49.8742 23.1439 50.0069C23.2165 50.1384 23.2529 50.3094 23.2529 50.5198V52.4361H22.7043V52.0416H22.6817C22.6454 52.1142 22.5909 52.1856 22.5183 52.2558C22.4456 52.3259 22.3523 52.3841 22.2383 52.4305C22.1244 52.4768 21.9878 52.5 21.8288 52.5ZM21.9509 52.0491C22.1062 52.0491 22.239 52.0184 22.3492 51.957C22.4607 51.8957 22.5452 51.8155 22.6028 51.7166C22.6617 51.6164 22.6911 51.5093 22.6911 51.3953V51.0233C22.6711 51.0434 22.6323 51.0622 22.5746 51.0797C22.5183 51.096 22.4538 51.1104 22.3811 51.1229C22.3085 51.1342 22.2377 51.1448 22.1688 51.1548C22.0999 51.1636 22.0423 51.1711 21.996 51.1774C21.887 51.1912 21.7875 51.2143 21.6973 51.2469C21.6083 51.2795 21.537 51.3264 21.4831 51.3878C21.4305 51.4479 21.4042 51.5281 21.4042 51.6283C21.4042 51.7673 21.4555 51.8725 21.5582 51.9439C21.6609 52.014 21.7918 52.0491 21.9509 52.0491Z" fill="white"/>
<path d="M25.2166 52.4944C24.9373 52.4944 24.6968 52.4311 24.4952 52.3046C24.2948 52.1769 24.1407 52.0009 24.033 51.7767C23.9253 51.5525 23.8714 51.2957 23.8714 51.0064C23.8714 50.7133 23.9265 50.4547 24.0368 50.2305C24.147 50.0051 24.3023 49.8291 24.5027 49.7026C24.7031 49.5761 24.9392 49.5128 25.211 49.5128C25.4301 49.5128 25.6255 49.5535 25.7971 49.6349C25.9687 49.7151 26.1071 49.8278 26.2123 49.9731C26.3188 50.1184 26.382 50.2881 26.4021 50.4822H25.8554C25.8253 50.347 25.7564 50.2305 25.6487 50.1328C25.5422 50.0351 25.3995 49.9863 25.2204 49.9863C25.0638 49.9863 24.9266 50.0276 24.8089 50.1103C24.6924 50.1917 24.6016 50.3082 24.5365 50.4597C24.4714 50.61 24.4388 50.7879 24.4388 50.9933C24.4388 51.2037 24.4707 51.3853 24.5346 51.5381C24.5985 51.6909 24.6887 51.8093 24.8052 51.8932C24.9229 51.9771 25.0613 52.019 25.2204 52.019C25.3268 52.019 25.4233 51.9996 25.5097 51.9608C25.5974 51.9207 25.6706 51.8637 25.7295 51.7898C25.7896 51.7159 25.8316 51.627 25.8554 51.5231H26.4021C26.382 51.7097 26.3213 51.8763 26.2198 52.0228C26.1184 52.1693 25.9825 52.2846 25.8122 52.3685C25.6431 52.4524 25.4445 52.4944 25.2166 52.4944Z" fill="white"/>
<path d="M28.3498 49.5504V50.0013H26.7736V49.5504H28.3498ZM27.1963 48.859H27.758V51.5888C27.758 51.6978 27.7743 51.7798 27.8069 51.8349C27.8395 51.8888 27.8814 51.9257 27.9328 51.9458C27.9854 51.9646 28.0424 51.974 28.1037 51.974C28.1488 51.974 28.1883 51.9708 28.2221 51.9646C28.2559 51.9583 28.2822 51.9533 28.301 51.9495L28.4024 52.4136C28.3699 52.4261 28.3235 52.4386 28.2634 52.4512C28.2033 52.4649 28.1282 52.4724 28.038 52.4737C27.8902 52.4762 27.7524 52.4499 27.6247 52.3948C27.4969 52.3397 27.3936 52.2545 27.3147 52.1393C27.2358 52.0241 27.1963 51.8794 27.1963 51.7053V48.859Z" fill="white"/>
<path d="M33.522 48.5885V52.4361H32.9884L31.0327 49.6143H30.997V52.4361H30.4164V48.5885H30.9538L32.9114 51.4141H32.9471V48.5885H33.522Z" fill="white"/>
<path d="M35.1635 52.5C34.9806 52.5 34.8153 52.4662 34.6675 52.3986C34.5197 52.3297 34.4026 52.2301 34.3162 52.0998C34.231 51.9696 34.1885 51.8099 34.1885 51.6208C34.1885 51.4579 34.2198 51.3239 34.2824 51.2187C34.345 51.1135 34.4296 51.0302 34.536 50.9688C34.6425 50.9075 34.7615 50.8611 34.893 50.8298C35.0245 50.7985 35.1585 50.7747 35.295 50.7584C35.4679 50.7384 35.6081 50.7221 35.7159 50.7096C35.8236 50.6958 35.9019 50.6739 35.9507 50.6438C35.9995 50.6138 36.024 50.5649 36.024 50.4973V50.4841C36.024 50.3201 35.9776 50.1929 35.8849 50.1027C35.7935 50.0126 35.657 49.9675 35.4754 49.9675C35.2863 49.9675 35.1372 50.0094 35.0282 50.0934C34.9205 50.176 34.846 50.2681 34.8047 50.3695L34.2768 50.2493C34.3394 50.0739 34.4308 49.9324 34.551 49.8247C34.6725 49.7157 34.8122 49.6368 34.97 49.588C35.1278 49.5379 35.2938 49.5128 35.4679 49.5128C35.5831 49.5128 35.7052 49.5266 35.8342 49.5542C35.9645 49.5805 36.086 49.6293 36.1987 49.7007C36.3127 49.7721 36.406 49.8742 36.4786 50.0069C36.5513 50.1384 36.5876 50.3094 36.5876 50.5198V52.4361H36.039V52.0416H36.0165C35.9801 52.1142 35.9257 52.1856 35.853 52.2558C35.7804 52.3259 35.687 52.3841 35.5731 52.4305C35.4591 52.4768 35.3226 52.5 35.1635 52.5ZM35.2856 52.0491C35.4409 52.0491 35.5737 52.0184 35.6839 51.957C35.7954 51.8957 35.8799 51.8155 35.9375 51.7166C35.9964 51.6164 36.0258 51.5093 36.0258 51.3953V51.0233C36.0058 51.0434 35.967 51.0622 35.9094 51.0797C35.853 51.096 35.7885 51.1104 35.7159 51.1229C35.6432 51.1342 35.5724 51.1448 35.5036 51.1548C35.4347 51.1636 35.3771 51.1711 35.3307 51.1774C35.2218 51.1912 35.1222 51.2143 35.032 51.2469C34.9431 51.2795 34.8717 51.3264 34.8178 51.3878C34.7652 51.4479 34.7389 51.5281 34.7389 51.6283C34.7389 51.7673 34.7903 51.8725 34.893 51.9439C34.9957 52.014 35.1266 52.0491 35.2856 52.0491Z" fill="white"/>
<path d="M38.6828 49.5504V50.0013H37.1066V49.5504H38.6828ZM37.5293 48.859H38.091V51.5888C38.091 51.6978 38.1073 51.7798 38.1399 51.8349C38.1725 51.8888 38.2144 51.9257 38.2658 51.9458C38.3184 51.9646 38.3754 51.974 38.4367 51.974C38.4818 51.974 38.5213 51.9708 38.5551 51.9646C38.5889 51.9583 38.6152 51.9533 38.634 51.9495L38.7354 52.4136C38.7029 52.4261 38.6565 52.4386 38.5964 52.4512C38.5363 52.4649 38.4611 52.4724 38.371 52.4737C38.2232 52.4762 38.0854 52.4499 37.9576 52.3948C37.8299 52.3397 37.7266 52.2545 37.6477 52.1393C37.5688 52.0241 37.5293 51.8794 37.5293 51.7053V48.859Z" fill="white"/>
<path d="M39.3042 52.4361V49.5504H39.866V52.4361H39.3042ZM39.5879 49.1051C39.4902 49.1051 39.4063 49.0726 39.3362 49.0074C39.2673 48.9411 39.2328 48.8622 39.2328 48.7707C39.2328 48.678 39.2673 48.5991 39.3362 48.534C39.4063 48.4676 39.4902 48.4344 39.5879 48.4344C39.6856 48.4344 39.7689 48.4676 39.8378 48.534C39.9079 48.5991 39.943 48.678 39.943 48.7707C39.943 48.8622 39.9079 48.9411 39.8378 49.0074C39.7689 49.0726 39.6856 49.1051 39.5879 49.1051Z" fill="white"/>
<path d="M43.0903 49.5504L42.0439 52.4361H41.4427L40.3944 49.5504H40.9974L41.7282 51.7711H41.7583L42.4873 49.5504H43.0903Z" fill="white"/>
<path d="M44.7638 52.4944C44.4795 52.4944 44.2346 52.4336 44.0292 52.3121C43.8251 52.1894 43.6673 52.0172 43.5558 51.7955C43.4456 51.5725 43.3905 51.3114 43.3905 51.012C43.3905 50.7165 43.4456 50.4559 43.5558 50.2305C43.6673 50.0051 43.8226 49.8291 44.0217 49.7026C44.2221 49.5761 44.4563 49.5128 44.7244 49.5128C44.8872 49.5128 45.045 49.5398 45.1978 49.5936C45.3506 49.6475 45.4877 49.732 45.6092 49.8472C45.7307 49.9625 45.8265 50.1121 45.8967 50.2963C45.9668 50.4791 46.0019 50.7014 46.0019 50.9632V51.1624H43.708V50.7415H45.4514C45.4514 50.5937 45.4214 50.4628 45.3612 50.3489C45.3011 50.2336 45.2166 50.1428 45.1076 50.0764C44.9999 50.0101 44.8734 49.9769 44.7281 49.9769C44.5703 49.9769 44.4325 50.0157 44.3148 50.0934C44.1983 50.1698 44.1081 50.27 44.0442 50.394C43.9816 50.5167 43.9503 50.6501 43.9503 50.7941V51.1229C43.9503 51.3158 43.9841 51.4799 44.0518 51.6151C44.1207 51.7504 44.2165 51.8537 44.3392 51.9251C44.462 51.9952 44.6054 52.0303 44.7694 52.0303C44.8759 52.0303 44.973 52.0153 45.0606 51.9852C45.1483 51.9539 45.2241 51.9076 45.288 51.8462C45.3518 51.7848 45.4007 51.7091 45.4345 51.6189L45.9662 51.7147C45.9236 51.8713 45.8472 52.0084 45.737 52.1261C45.628 52.2426 45.4909 52.3334 45.3255 52.3986C45.1615 52.4624 44.9742 52.4944 44.7638 52.4944Z" fill="white"/>
<defs>
<linearGradient id="paint0_linear_175_12" x1="0.26004" y1="33.366" x2="60.26" y2="33.3836" gradientUnits="userSpaceOnUse">
<stop stop-color="#015FE5"/>
<stop offset="0.475565" stop-color="#0148AE"/>
<stop offset="1" stop-color="#01357F"/>
</linearGradient>
</defs>
</svg>
