<svg width="60" height="60" viewBox="0 0 60 60" fill="none" xmlns="http://www.w3.org/2000/svg">
<rect width="60" height="60" rx="5" fill="url(#paint0_linear_19_242)"/>
<path d="M11.4349 23.5796C11.5311 23.5796 11.5792 23.6276 11.6754 23.6757C11.0982 23.9162 10.521 24.5415 10.2325 25.8882L9.17435 26.1767C9.51102 25.2148 10.1844 23.5796 11.4349 23.5796ZM11.9639 24.0605C12.0601 24.3491 12.1563 24.6858 12.1563 25.2148C12.1563 25.2629 12.1563 25.2629 12.1563 25.311L10.7615 25.6958C11.0501 24.6858 11.5311 24.2529 11.9639 24.0605ZM13.2144 24.9262L12.5892 25.1186C12.5892 25.0705 12.5892 25.0224 12.5892 24.9743C12.5892 24.5415 12.5411 24.2048 12.4449 23.9162C12.7816 24.0124 13.0701 24.4453 13.2144 24.9262ZM16.3407 25.6958C16.3407 25.6477 16.2926 25.5996 16.2445 25.5996C16.1483 25.5996 15.1383 25.5034 15.1383 25.5034C15.1383 25.5034 14.4168 24.782 14.3206 24.7339C14.2244 24.6377 14.0802 24.6858 14.0321 24.6858C14.0321 24.6858 13.8878 24.7339 13.6473 24.8301C13.4068 24.1567 12.9739 23.5315 12.2525 23.5315H12.2044C12.012 23.2429 11.7234 23.1467 11.483 23.1467C9.7515 23.0986 8.93387 25.2629 8.64529 26.3691C8.26052 26.4653 7.87575 26.6096 7.44289 26.7539C7.05812 26.8501 7.05812 26.8982 7.01002 27.2349C6.96192 27.4753 6 35.0745 6 35.0745L13.6473 36.5174L17.7836 35.6036C17.7836 35.6036 16.3407 25.792 16.3407 25.6958Z" fill="#8DB849"/>
<path d="M16.1964 25.5996C16.1483 25.5996 15.1383 25.5034 15.1383 25.5034C15.1383 25.5034 14.4168 24.782 14.3207 24.7339C14.2726 24.6858 14.2726 24.6858 14.2245 24.6858L13.6473 36.5174L17.7836 35.6036C17.7836 35.6036 16.3407 25.792 16.3407 25.6958C16.3407 25.6477 16.2445 25.5996 16.1964 25.5996Z" fill="#5A863E"/>
<path d="M12.2525 27.9082L11.7235 29.4473C11.7235 29.4473 11.2906 29.2068 10.7134 29.2068C9.8958 29.2068 9.84771 29.6878 9.84771 29.8321C9.84771 30.5054 11.6754 30.794 11.6754 32.4293C11.6754 33.7278 10.8577 34.5455 9.75152 34.5455C8.45292 34.5455 7.77957 33.7278 7.77957 33.7278L8.11624 32.5735C8.11624 32.5735 8.78959 33.1507 9.36675 33.1507C9.75152 33.1507 9.8958 32.8621 9.8958 32.6216C9.8958 31.7078 8.40482 31.6597 8.40482 30.1687C8.40482 28.9182 9.31865 27.7158 11.0982 27.7158C11.9158 27.6677 12.2525 27.9082 12.2525 27.9082Z" fill="#FFFFFE"/>
<path d="M22.6413 30.7459C22.2084 30.5054 22.016 30.313 22.016 30.0725C22.016 29.7359 22.3046 29.5435 22.7856 29.5435C23.3146 29.5435 23.7956 29.784 23.7956 29.784L24.1804 28.6297C24.1804 28.6297 23.8437 28.3411 22.8337 28.3411C21.3908 28.3411 20.4289 29.1587 20.4289 30.313C20.4289 30.9864 20.9098 31.4673 21.487 31.804C21.9679 32.0926 22.1603 32.285 22.1603 32.5735C22.1603 32.8621 21.9199 33.1507 21.4389 33.1507C20.7655 33.1507 20.0922 32.814 20.0922 32.814L19.7074 33.9683C19.7074 33.9683 20.2846 34.3531 21.2946 34.3531C22.7375 34.3531 23.7956 33.6317 23.7956 32.3331C23.7956 31.6116 23.2665 31.0826 22.6413 30.7459ZM28.4609 28.293C27.7395 28.293 27.1623 28.6297 26.7295 29.1587L27.3547 25.8882H25.7195L24.1323 34.2088H25.7675L26.2966 31.3711C26.489 30.313 27.0661 29.6397 27.5952 29.6397C27.98 29.6397 28.1243 29.8802 28.1243 30.2649C28.1243 30.5054 28.1243 30.7459 28.0762 30.9864L27.4509 34.2569H29.0862L29.7114 30.8902C29.7595 30.5535 29.8076 30.1206 29.8076 29.8321C29.8076 28.8701 29.3267 28.293 28.4609 28.293ZM32.6453 33.0545C32.0682 33.0545 31.8758 32.5735 31.8758 31.9964C31.8758 31.0826 32.3567 29.5435 33.2225 29.5435C33.7996 29.5435 33.992 30.0244 33.992 30.5054C33.992 31.5635 33.511 33.0545 32.6453 33.0545ZM33.4629 28.293C31.491 28.293 30.1924 30.0725 30.1924 32.0445C30.1924 33.295 30.9619 34.305 32.4529 34.305C34.3768 34.305 35.6754 32.5735 35.6754 30.5535C35.6754 29.3992 35.002 28.293 33.4629 28.293ZM38.2726 33.1026C37.8397 33.1026 37.5992 32.8621 37.5992 32.8621L37.8878 31.323C38.0802 30.313 38.6092 29.6397 39.1864 29.6397C39.6673 29.6397 39.8597 30.1206 39.8597 30.5535C39.8116 31.6116 39.1864 33.1026 38.2726 33.1026ZM39.8597 28.293C38.7535 28.293 38.1283 29.2549 38.1283 29.2549L38.2245 28.3892H36.7816C36.7335 28.9663 36.5892 29.8802 36.4449 30.5535L35.2906 36.5174H36.9259L37.3587 34.1126H37.4068C37.4068 34.1126 37.7435 34.305 38.3688 34.305C40.2926 34.305 41.5431 32.3331 41.5431 30.3611C41.5431 29.303 41.0621 28.293 39.8597 28.293ZM43.8517 25.9844C43.3227 25.9844 42.9379 26.4172 42.9379 26.9463C42.9379 27.4272 43.2265 27.7639 43.7074 27.7639C44.2365 27.7639 44.6694 27.4272 44.6694 26.802C44.6694 26.321 44.3327 25.9844 43.8517 25.9844ZM41.5912 34.2088H43.2265L44.3327 28.4373H42.6974L41.5912 34.2088ZM48.469 28.4373H47.3146L47.3627 28.1487C47.4589 27.5715 47.7956 27.0906 48.3247 27.0906C48.6132 27.0906 48.8537 27.1868 48.8537 27.1868L49.1904 25.8882C49.1904 25.8882 48.9018 25.7439 48.3247 25.7439C47.7475 25.7439 47.1704 25.8882 46.7375 26.2729C46.1603 26.7539 45.9199 27.4272 45.7756 28.1006L45.7275 28.3892H44.9579L44.7174 29.6397H45.487L44.6213 34.2088H46.2565L47.1223 29.6397H48.2285L48.469 28.4373ZM52.3647 28.4373C52.3647 28.4373 51.3547 30.9864 50.8738 32.3812C50.8257 31.9483 50.489 28.4373 50.489 28.4373H48.7575L49.7195 33.7278C49.7195 33.824 49.7195 33.9202 49.6714 34.0164C49.479 34.4012 49.1423 34.7379 48.8056 34.9783C48.517 35.2188 48.1323 35.3631 47.8918 35.4593L48.3247 36.8541C48.6613 36.806 49.3347 36.5174 49.9118 35.9884C50.6333 35.315 51.3547 34.2088 52.0281 32.7659L54 28.4854L52.3647 28.4373Z" fill="#FFFFFE"/>
<defs>
<linearGradient id="paint0_linear_19_242" x1="-2.57531e-07" y1="30" x2="60" y2="30" gradientUnits="userSpaceOnUse">
<stop stop-color="#015FE5"/>
<stop offset="0.51542" stop-color="#0149B0"/>
<stop offset="1" stop-color="#01357F"/>
</linearGradient>
</defs>
</svg>
