<svg width="60" height="60" viewBox="0 0 60 60" fill="none" xmlns="http://www.w3.org/2000/svg">
<rect width="60" height="60" rx="5" fill="url(#paint0_linear_19_240)"/>
<path d="M13.7027 39.9315H25.0487V43.3245H21.1089C20.1697 43.3262 19.41 44.0434 19.4064 44.9263V47.4638C19.4064 47.6055 19.4644 47.7421 19.5714 47.8429C19.6766 47.9436 19.8216 48 19.9721 48H40.0281C40.1786 48 40.3237 47.9436 40.4288 47.8429C40.5358 47.7421 40.5938 47.6055 40.5938 47.4638V44.9263C40.5902 44.0434 39.8305 43.3262 38.8913 43.3245H34.9516V39.9315H46.2975C47.2367 39.9298 47.9982 39.2126 48 38.328V18.0416C48 17.0136 47.1153 16.1803 46.022 16.1803H44.2724V13.6069C44.2724 12.7206 43.5109 12.0017 42.5699 12H17.4301C16.4891 12.0017 15.7276 12.7206 15.7276 13.6069V16.1803H13.978C12.8847 16.1803 12 17.0136 12 18.0416V38.328C12.0018 39.2125 12.7635 39.9298 13.7027 39.9315ZM38.8917 44.39C39.0422 44.39 39.1872 44.4463 39.296 44.5471C39.403 44.6478 39.4628 44.7844 39.4628 44.9262V46.9292L20.5383 46.9309V44.9262C20.5383 44.7844 20.5982 44.6478 20.7052 44.5471C20.8139 44.4463 20.959 44.39 21.1095 44.39L38.8917 44.39ZM26.1858 43.3244V39.9314H33.8154V43.3244H26.1858ZM44.273 17.2492H46.0226C46.4885 17.2526 46.8638 17.6078 46.8638 18.0467V34.2125H44.273V17.2492ZM16.8649 13.6069C16.8631 13.4651 16.9229 13.3285 17.0281 13.2278C17.1351 13.127 17.2783 13.069 17.4306 13.069H42.5704C42.7227 13.069 42.8659 13.127 42.9729 13.2278C43.0781 13.3285 43.1379 13.4651 43.1361 13.6069V14.8176H16.8647L16.8649 13.6069ZM16.8649 15.8831H43.1363V34.2129H16.8649V15.8831ZM13.1373 18.0364V18.0382C13.1427 17.6027 13.5162 17.2526 13.9785 17.2492H15.7281V34.2129H13.1373V18.0364ZM13.1373 35.2768L46.8637 35.2785V38.3249C46.8637 38.6187 46.6117 38.8577 46.298 38.8577H13.7027C13.389 38.8577 13.137 38.6187 13.137 38.3249L13.1373 35.2768ZM19.7894 24.348L30.0005 24.3497C30.3124 24.3497 30.5662 24.1107 30.5662 23.8169V17.8232C30.5662 17.6831 30.5064 17.5465 30.4012 17.4475C30.2942 17.3467 30.151 17.2904 30.0005 17.2904H19.7894C19.4776 17.2904 19.2237 17.5294 19.2237 17.8232V23.817C19.2237 24.1107 19.4775 24.3498 19.7894 24.3498L19.7894 24.348ZM20.3605 18.356H29.435V23.284H20.3605V18.356ZM40.2119 25.7517H19.7896C19.4778 25.7517 19.2239 25.9908 19.2239 26.2845V32.2766C19.2239 32.572 19.4777 32.8094 19.7896 32.8094H40.2119C40.3624 32.8094 40.5056 32.753 40.6126 32.654C40.7177 32.5532 40.7775 32.4183 40.7775 32.2766V26.2845C40.7775 26.1428 40.7177 26.0079 40.6126 25.9072C40.5056 25.8081 40.3624 25.7517 40.2119 25.7517ZM39.6407 31.7438H20.3607V26.8123H39.6407V31.7438ZM40.2119 17.2907H32.8492C32.5355 17.2907 32.2835 17.5297 32.2835 17.8235V23.8172C32.2835 24.111 32.5355 24.35 32.8492 24.35H40.2119C40.5237 24.35 40.7776 24.111 40.7776 23.8172V17.8235C40.7776 17.6834 40.7177 17.5468 40.6126 17.4478C40.5056 17.347 40.3624 17.2907 40.2119 17.2907ZM39.6407 23.2844H33.4185V18.3564H39.6407V23.2844ZM26.6791 19.2954L27.4243 20.1015L24.683 22.3453C24.5796 22.4307 24.4473 22.4768 24.3095 22.4785C24.1916 22.4768 24.0756 22.4409 23.9759 22.3777L22.4094 21.3207L23.0675 20.4379L24.2769 21.249L26.6791 19.2954Z" fill="#FFFFFE"/>
<defs>
<linearGradient id="paint0_linear_19_240" x1="-1.10363e-10" y1="33.366" x2="60" y2="33.3836" gradientUnits="userSpaceOnUse">
<stop stop-color="#015FE5"/>
<stop offset="0.475565" stop-color="#0148AE"/>
<stop offset="1" stop-color="#01357F"/>
</linearGradient>
</defs>
</svg>
