<svg width="61" height="60" viewBox="0 0 61 60" fill="none" xmlns="http://www.w3.org/2000/svg">
<rect x="0.026062" width="60" height="60" rx="5" fill="url(#paint0_linear_11_95)"/>
<path d="M14.5846 29.9996C14.5846 36.1117 18.1365 41.3938 23.287 43.8969L15.9214 23.7154C15.0385 25.6926 14.5829 27.8341 14.5846 29.9996ZM40.4495 29.2203C40.4495 27.3121 39.7641 25.9905 39.1762 24.9617C38.3934 23.6898 37.6597 22.6126 37.6597 21.3407C37.6597 19.9212 38.7363 18.5999 40.2526 18.5999C40.3212 18.5999 40.386 18.6084 40.4527 18.6122C37.7056 16.0953 34.0456 14.5586 30.0255 14.5586C24.6313 14.5586 19.8852 17.3264 17.1244 21.5187C17.4865 21.5295 17.828 21.5373 18.118 21.5373C19.7331 21.5373 22.2331 21.3411 22.2331 21.3411C23.0655 21.2921 23.1637 22.5147 22.3321 22.6132C22.3321 22.6132 21.4957 22.7116 20.5649 22.7604L26.1877 39.4862L29.5669 29.3514L27.1612 22.7599C26.3298 22.7111 25.5421 22.6126 25.5421 22.6126C24.7099 22.5639 24.8075 21.2916 25.6396 21.3407C25.6396 21.3407 28.1895 21.5366 29.7067 21.5366C31.3217 21.5366 33.8219 21.3407 33.8219 21.3407C34.6549 21.2916 34.7527 22.5142 33.9209 22.6126C33.9209 22.6126 33.0826 22.7111 32.1537 22.7599L37.7338 39.359L39.2739 34.2122C39.9415 32.0763 40.4495 30.5423 40.4495 29.2203Z" fill="white"/>
<path d="M30.2966 31.3503L25.6638 44.813C27.0802 45.2302 28.5491 45.4421 30.0257 45.4421C31.7721 45.4427 33.5059 45.1467 35.1532 44.5667C35.1103 44.4992 35.0736 44.428 35.0434 44.354L30.2966 31.3503ZM43.5745 22.5912C43.6447 23.1175 43.6795 23.6479 43.6785 24.1789C43.6785 25.7458 43.3858 27.5074 42.5044 29.7099L37.7878 43.347C42.3784 40.67 45.4661 35.6966 45.4661 29.9999C45.4663 27.3151 44.7807 24.7905 43.5745 22.5912Z" fill="white"/>
<path d="M30.0257 12C20.1009 12 12.0261 20.0745 12.0261 29.9996C12.0261 39.9258 20.1009 48 30.0257 48C39.95 48 48.0261 39.9258 48.0261 29.9996C48.0257 20.0745 39.95 12 30.0257 12ZM30.0257 47.175C20.5559 47.175 12.8514 39.47 12.8514 29.9996C12.8514 20.5296 20.5557 12.8253 30.0257 12.8253C39.495 12.8253 47.199 20.5296 47.199 29.9996C47.199 39.47 39.495 47.175 30.0257 47.175Z" fill="white"/>
<defs>
<linearGradient id="paint0_linear_11_95" x1="0.636976" y1="30" x2="60.0261" y2="30" gradientUnits="userSpaceOnUse">
<stop stop-color="#015FE5"/>
<stop offset="0.499035" stop-color="#014AB2"/>
<stop offset="1" stop-color="#01357F"/>
</linearGradient>
</defs>
</svg>
