<svg width="76" height="76" viewBox="0 0 76 76" fill="none" xmlns="http://www.w3.org/2000/svg">
<g opacity="0.1">
<path d="M32.0058 5.99291L5.99419 31.9991C2.68369 35.3089 2.68369 40.6751 5.9942 43.9849L32.0058 69.9911C35.3163 73.3009 40.6837 73.3009 43.9942 69.9911L70.0058 43.985C73.3163 40.6751 73.3163 35.3089 70.0058 31.9991L43.9942 5.99291C40.6837 2.6831 35.3163 2.6831 32.0058 5.99291Z" fill="#1C9DD9"/>
</g>
<path fill-rule="evenodd" clip-rule="evenodd" d="M37.2992 21.0462C37.2369 21.0717 37.1349 21.1492 37.0726 21.2186C36.9616 21.3419 36.9588 21.4449 36.931 26.2551L36.9027 31.1656L35.6378 33.3472C34.9422 34.5471 34.3639 35.538 34.3527 35.5492C34.3415 35.5604 34.1331 35.5033 33.8896 35.4224C31.627 34.6698 28.9515 34.8453 26.8756 35.8823C25.7994 36.4199 25.1613 36.9012 23.973 38.0718C22.9826 39.0473 22.9001 39.1782 23.0697 39.504C23.1776 39.711 24.6531 41.16 25.176 41.5725C26.3258 42.4794 27.668 43.101 29.0849 43.3829C29.4277 43.4511 29.7174 43.5151 29.7289 43.5251C29.7403 43.535 29.0074 44.8286 28.1002 46.3995C26.31 49.4994 26.3099 49.4997 26.5874 49.8224L26.7241 49.9814L39.1213 49.9963C48.3809 50.0073 51.5586 49.9946 51.6769 49.9458C51.8515 49.8738 52 49.6359 52 49.4282C52 49.3546 50.9268 47.4342 49.615 45.1607C48.3032 42.8871 46.9457 40.5335 46.5983 39.9303C46.2509 39.3272 45.9059 38.7725 45.8316 38.6977C45.6357 38.5005 45.3007 38.5096 45.0977 38.7174C45.014 38.8031 43.6483 41.124 42.0626 43.8748L39.1797 48.8763H33.5754H27.971L28.0826 48.6921C28.144 48.5908 28.8254 47.4113 29.5968 46.0709C30.3682 44.7306 31.0085 43.6232 31.0196 43.6101C31.0307 43.597 31.3029 43.5675 31.6246 43.5446C33.4545 43.4139 35.1321 42.7791 36.6194 41.6546C37.204 41.2127 38.7675 39.6848 38.8575 39.4676C38.9783 39.1756 38.8839 39.0231 38.0736 38.2018C37.1766 37.2928 36.706 36.8927 35.9963 36.4356C35.7158 36.255 35.4654 36.0889 35.4397 36.0664C35.4018 36.0331 37.3556 32.5634 37.4873 32.4301C37.5085 32.4087 38.3014 33.7174 39.2494 35.3384C40.1973 36.9594 41.0357 38.335 41.1124 38.3953C41.323 38.561 41.6086 38.538 41.8073 38.3393C42.1363 38.0102 42.1716 38.0877 40.017 34.4081L38.0612 31.0678L38.0768 30.1875L38.0923 29.3071L40.8682 27.9861C45.0793 25.9821 44.9727 26.0361 45.0644 25.8588C45.1814 25.6323 45.1642 25.4442 45.0096 25.2617C44.9122 25.1467 43.9129 24.6454 41.4703 23.4863L38.0668 21.871L38.0654 21.6557C38.0623 21.1709 37.6995 20.8823 37.2992 21.0462ZM40.6292 24.3388C42.0065 24.9948 43.1521 25.5501 43.1747 25.5727C43.2105 25.6085 38.3536 27.9614 38.143 28.0102C38.0764 28.0256 38.064 27.6465 38.064 25.5873C38.064 24.2447 38.0777 23.1462 38.0944 23.1462C38.1112 23.1462 39.2518 23.6829 40.6292 24.3388ZM30.6241 30.7998C30.4139 30.9652 30.3602 31.231 30.3599 32.1078C30.3595 33.0248 30.3864 33.1889 30.5662 33.3688C30.7978 33.6005 31.1126 33.5989 31.3466 33.3648L31.4926 33.2187V32.117V31.0152L31.327 30.8495C31.1252 30.6477 30.8428 30.6277 30.6241 30.7998ZM27.1639 32.2751C27.0594 32.3992 27.0172 32.515 27.0172 32.6766C27.0172 32.8901 27.057 32.9444 27.6828 33.5845C28.049 33.959 28.4173 34.3012 28.5014 34.3449C29.0253 34.6171 29.5325 34.1097 29.2604 33.5856C29.2167 33.5014 28.8747 33.1329 28.5003 32.7667C27.8357 32.1163 27.8139 32.1007 27.5652 32.1007C27.3503 32.1007 27.2876 32.128 27.1639 32.2751ZM33.3239 32.856C32.5919 33.5884 32.5689 33.6187 32.5689 33.8522C32.5689 34.3106 33.0465 34.5795 33.4202 34.3314C33.6306 34.1917 34.5408 33.2938 34.7278 33.0415C34.937 32.7592 34.9426 32.5101 34.7449 32.2751C34.6205 32.1271 34.559 32.1007 34.3386 32.1007C34.0809 32.1007 34.0732 32.1065 33.3239 32.856ZM31.5246 36.1285C31.7095 36.1618 32.0697 36.2894 32.325 36.412C33.4496 36.9519 34.1249 38.0278 34.1192 39.27C34.1126 40.6816 33.2591 41.8434 31.8923 42.3016C31.4269 42.4577 30.584 42.4717 30.0958 42.3315C28.9704 42.0083 28.0811 41.0476 27.8388 39.8934C27.7342 39.3946 27.7342 39.1454 27.8388 38.6466C28.197 36.9397 29.8312 35.8233 31.5246 36.1285ZM27.1676 37.2111C26.5097 38.3409 26.4833 39.9563 27.1027 41.1828C27.2089 41.3932 27.2753 41.5653 27.2501 41.5653C27.1805 41.5653 26.2343 40.9624 25.9003 40.7052C25.7377 40.58 25.3218 40.2083 24.9758 39.879L24.347 39.2804L24.7615 38.8579C25.4933 38.1121 26.2596 37.5124 27.0738 37.0481C27.1829 36.9859 27.2807 36.9419 27.2913 36.9504C27.3018 36.9589 27.2462 37.0762 27.1676 37.2111ZM34.908 37.0961C35.515 37.4048 36.394 38.0974 37.1473 38.8606L37.562 39.2806L36.9491 39.8628C36.612 40.183 36.1879 40.5596 36.0067 40.6997C35.6385 40.9842 34.7312 41.5653 34.6551 41.5653C34.628 41.5653 34.6813 41.4187 34.7735 41.2395C35.3078 40.2 35.4007 39.0026 35.0325 37.9005C34.951 37.6563 34.8211 37.348 34.7438 37.2156C34.6667 37.0831 34.6184 36.9747 34.6365 36.9747C34.6547 36.9747 34.7768 37.0293 34.908 37.0961ZM30.7561 37.5802C30.2601 37.6652 29.8265 37.9275 29.5763 38.294C28.9911 39.151 29.2791 40.2917 30.2053 40.7853C30.5511 40.9696 31.3577 40.9696 31.7035 40.7853C32.2918 40.4718 32.6241 39.922 32.625 39.2608C32.6255 38.9126 32.5993 38.804 32.4406 38.4974C32.1609 37.9569 31.7325 37.6704 31.0677 37.5792C30.9742 37.5664 30.834 37.5668 30.7561 37.5802ZM31.3496 38.8874C31.5664 39.1043 31.5518 39.4651 31.3183 39.6617C31.2068 39.7556 31.0757 39.8084 30.9544 39.8084C30.8331 39.8084 30.702 39.7556 30.5905 39.6617C30.4459 39.54 30.4162 39.4737 30.4162 39.2727C30.4162 38.7549 30.9831 38.5208 31.3496 38.8874ZM42.4544 39.5198C42.2429 39.6105 42.1171 39.8064 42.1171 40.0454C42.1171 40.231 42.1513 40.304 42.3008 40.4376C42.4018 40.528 42.5466 40.6019 42.6226 40.6019C42.9525 40.6019 43.2192 40.3375 43.2192 40.0105C43.2192 39.6963 42.748 39.394 42.4544 39.5198ZM47.9785 44.5873C49.3238 46.9195 50.4135 48.8388 50.4 48.8523C50.3865 48.8659 48.1545 48.8704 45.4402 48.8625L40.5049 48.848L42.9801 44.557C44.3415 42.1969 45.4727 40.2841 45.4939 40.3064C45.5151 40.3286 46.6332 42.2551 47.9785 44.5873Z" fill="#1C9DD9"/>
</svg>
