<svg width="77" height="77" viewBox="0 0 77 77" fill="none" xmlns="http://www.w3.org/2000/svg">
<rect x="0.259888" y="38.2599" width="53.7401" height="53.7401" rx="5" transform="rotate(-45 0.259888 38.2599)" fill="url(#paint0_linear_19_256)"/>
<path d="M27.442 28.0545C26.2083 28.7674 25.7792 30.3417 26.4854 31.5805C26.8226 32.1782 27.3853 32.6139 28.048 32.7909C28.2701 32.8527 28.5021 32.8844 28.7325 32.8844C29.6524 32.8794 30.4989 32.3852 30.958 31.5871C31.4154 30.7891 31.4171 29.8091 30.9597 29.0111C30.2468 27.7823 28.6792 27.355 27.442 28.0545ZM30.362 30.7474C30.2468 31.1832 29.9613 31.5538 29.5706 31.7758C28.7559 32.2416 27.7191 31.9595 27.2533 31.1464C26.7875 30.3333 27.0697 29.2949 27.8827 28.8291C28.6974 28.3667 29.7309 28.6488 30.1984 29.4619C30.4238 29.8509 30.4839 30.315 30.362 30.7474ZM55.1774 38.464H48.3523C47.616 38.464 47.0167 39.0617 47.0167 39.7997V41.6111H39.7424C39.0045 41.6111 38.4068 42.2088 38.4068 42.9467V44.7631H34.3015C34.5569 44.4225 34.6554 43.9885 34.5736 43.5694L33.8073 39.5943C33.6721 38.8814 33.1412 38.3104 32.4416 38.1201L30.7404 37.6743L29.9841 37.469V36.4138H30.096C30.323 36.4623 30.5418 36.5207 30.7822 36.5791C31.0977 36.6542 31.4183 36.7344 31.7438 36.8012L31.7421 36.8028C32.273 36.9247 32.8307 36.8462 33.3098 36.5841C33.8441 36.2853 34.37 35.9881 34.8942 35.6943C35.2565 35.4572 35.5069 35.0849 35.5887 34.6609C35.6722 34.1166 35.4401 33.5707 34.9894 33.2534C34.5369 32.9362 33.9459 32.9012 33.4601 33.165C33.0461 33.387 32.6237 33.6107 32.1912 33.8912C32.1445 33.9179 32.0894 33.9262 32.036 33.9129C31.0176 33.6191 29.9741 33.4204 28.919 33.3219C27.6685 33.1666 26.4014 33.397 25.2861 33.983C24.1709 34.569 23.261 35.4806 22.6783 36.5975C22.4546 37.0115 22.4413 37.5074 22.6383 37.9331C22.1892 38.2169 21.8703 38.6643 21.7468 39.1802H20.897C20.4045 39.1802 20.0071 39.5792 20.0071 40.0701V44.5676C20.0071 44.803 20.1006 45.03 20.2676 45.197C20.4345 45.364 20.6616 45.4574 20.897 45.4574H25.0908L24.5349 46.3072C24.2494 46.753 24.231 47.3173 24.4831 47.7797C24.7369 48.2438 25.2211 48.5327 25.7503 48.5343H25.8488H25.8471C26.2895 48.5026 26.6935 48.2722 26.9423 47.9066L28.4115 45.7696C28.6786 45.3856 28.8806 44.9616 29.0125 44.5141L29.3564 43.3471C29.6402 42.3955 29.8255 41.4172 29.9073 40.4272L30.8289 40.6759L31.6353 44.1969C31.6837 44.4023 31.7755 44.5959 31.9024 44.7629H31.1361C30.3998 44.7629 29.8004 45.3605 29.8004 46.0985V48.3556C29.8004 48.4742 29.8472 48.5877 29.9307 48.6712C30.0141 48.7547 30.1277 48.8014 30.2462 48.8014H56.0686C56.1854 48.8014 56.2989 48.7547 56.3824 48.6712C56.4659 48.5877 56.5126 48.4742 56.5126 48.3556V39.7992C56.5126 39.0613 55.9153 38.464 55.1774 38.464ZM23.7156 38.4991C24.163 38.5008 24.5653 38.7662 24.744 39.1752H22.6788C22.8574 38.7629 23.2648 38.4958 23.7156 38.4991ZM25.7457 40.0668L23.7156 41.7413L21.6904 40.0668H25.7457ZM26.7825 38.3572C26.7474 38.6427 26.7107 38.9232 26.6806 39.1903V39.1886C26.6339 39.1853 26.5855 39.1853 26.5387 39.1886H25.6739C25.5838 38.798 25.3801 38.444 25.0863 38.1702C25.123 38.1285 25.158 38.0851 25.1898 38.04C25.4719 37.5174 25.8743 37.0684 26.3601 36.7278C26.5621 36.5942 26.7775 36.4823 27.0012 36.3889C26.9661 36.9231 26.8726 37.6393 26.7825 38.3572ZM20.8972 40.5643L23.1494 42.4258C23.48 42.698 23.9558 42.698 24.2846 42.4258L26.5368 40.5643V44.5628H20.8973L20.8972 40.5643ZM31.1363 39.8381C30.7841 39.7496 30.4368 39.6511 30.0812 39.5526L29.6137 39.419V39.4207C29.4885 39.3873 29.3566 39.4107 29.2497 39.4825C29.1412 39.5543 29.0694 39.6695 29.0527 39.7997V40.0267C28.9926 41.0652 28.8123 42.0919 28.5152 43.0886L28.1596 44.2723L28.1579 44.274C28.0527 44.6329 27.8908 44.9718 27.6771 45.2791L26.2079 47.416C26.1127 47.5563 25.9591 47.6448 25.7905 47.6564C25.6553 47.6648 25.5234 47.6264 25.4165 47.5462C25.1795 47.3693 25.121 47.0404 25.283 46.7933L26.1728 45.4577H26.5518C26.7872 45.4577 27.0142 45.3642 27.1812 45.1973C27.3482 45.0303 27.4417 44.8032 27.4417 44.5678V40.8415C27.4417 40.3389 27.5619 39.3857 27.6771 38.4691C27.8023 37.4807 27.9175 36.5508 27.9225 35.9848V35.7878C27.9192 35.6609 27.8641 35.5407 27.7672 35.4589C27.6704 35.3771 27.5452 35.3387 27.42 35.3554C26.8741 35.4456 26.3532 35.6526 25.8974 35.9665C25.298 36.3805 24.8005 36.9281 24.4449 37.5642C24.4132 37.6176 24.3731 37.666 24.3247 37.7061C24.1344 37.6443 23.934 37.6109 23.7337 37.6093C23.6619 37.6109 23.5901 37.6193 23.52 37.631L23.4883 37.5993C23.3831 37.4139 23.3831 37.1886 23.4883 37.0033C23.8138 36.3889 24.2546 35.8446 24.7889 35.4005C25.9074 34.4556 27.3699 34.0232 28.8224 34.2068C29.8308 34.3003 30.8275 34.4873 31.8008 34.7678C32.1013 34.8579 32.4252 34.8145 32.6907 34.6476C33.0997 34.4021 33.5104 34.1667 33.9111 33.948V33.9497C34.0947 33.8629 34.3118 33.8829 34.477 34.0048C34.6407 34.125 34.7258 34.3254 34.6991 34.5274C34.654 34.6827 34.5589 34.8179 34.427 34.9114C33.9061 35.2136 33.3802 35.5124 32.8559 35.8012C32.5654 35.9615 32.2248 36.0066 31.9026 35.9298C31.5904 35.863 31.2799 35.7879 30.9727 35.7077L30.2465 35.5474C30.0862 35.5124 29.9209 35.4857 29.7523 35.459L29.5653 35.4272C29.4351 35.4072 29.3032 35.4439 29.2047 35.5291C29.1062 35.6142 29.0495 35.7378 29.0495 35.868V37.7863C29.0528 37.8848 29.0879 37.9799 29.1463 38.0584C29.2047 38.1385 29.2899 38.197 29.3867 38.2187L30.4602 38.5125L32.1648 38.9583C32.5521 39.0501 32.8476 39.364 32.9177 39.7546L33.7057 43.7615C33.7375 43.9318 33.6957 44.1087 33.5905 44.2473C33.487 44.3909 33.3218 44.4794 33.1448 44.4877C32.8443 44.5094 32.5738 44.3091 32.5087 44.0152L31.6889 40.4542C31.6706 40.1453 31.4419 39.8899 31.1363 39.8398L31.1363 39.8381ZM30.6922 46.0986C30.6922 45.8532 30.8909 45.6528 31.1363 45.6528H38.4072V47.91H30.6923L30.6922 46.0986ZM39.2987 45.2087L39.297 42.9465C39.297 42.7011 39.4974 42.5008 39.7428 42.5008H47.017V47.9099H39.2974L39.2987 45.2087ZM55.623 47.91H47.9081V39.7993C47.9081 39.5522 48.1068 39.3536 48.3522 39.3536H55.1773C55.2958 39.3536 55.4094 39.4003 55.4928 39.4838C55.5763 39.5672 55.6231 39.6808 55.6231 39.7993L55.623 47.91ZM51.1268 33.1431V32.2532L46.3088 36.3802C46.1736 36.4904 45.9849 36.5121 45.828 36.4337L43.1568 34.9912L37.0664 38.7042C36.9979 38.7459 36.9178 38.7693 36.836 38.771C36.634 38.7727 36.457 38.6391 36.4019 38.4454C36.3485 38.2518 36.4303 38.0447 36.604 37.9429L42.9264 34.0963C43.0633 34.0162 43.2336 34.0162 43.3705 34.0963L45.9666 35.5121L50.4192 31.6705L49.6445 31.6689C49.3975 31.6689 49.1988 31.4702 49.1988 31.2248C49.1988 30.9777 49.3974 30.779 49.6445 30.779H51.5712C51.6897 30.779 51.8032 30.8257 51.8867 30.9092C51.9702 30.9927 52.0169 31.1062 52.0169 31.2247V33.153V33.1514C52.0169 33.3984 51.8182 33.5971 51.5711 33.5971C51.3257 33.5971 51.127 33.3985 51.127 33.1514L51.1268 33.1431Z" fill="white"/>
<defs>
<linearGradient id="paint0_linear_19_256" x1="3.12168" y1="41.1217" x2="52.5839" y2="93.4161" gradientUnits="userSpaceOnUse">
<stop stop-color="#015FE5"/>
<stop offset="0.545" stop-color="#0148AD"/>
<stop offset="1" stop-color="#01357F"/>
</linearGradient>
</defs>
</svg>
