<svg width="76" height="76" viewBox="0 0 76 76" fill="none" xmlns="http://www.w3.org/2000/svg">
<g opacity="0.1">
<path d="M32.0058 5.99294L5.99419 31.9991C2.68369 35.3089 2.68369 40.6752 5.9942 43.985L32.0058 69.9911C35.3163 73.3009 40.6837 73.301 43.9942 69.9911L70.0058 43.985C73.3163 40.6752 73.3163 35.3089 70.0058 31.9991L43.9942 5.99294C40.6837 2.68313 35.3163 2.68313 32.0058 5.99294Z" fill="#E02026"/>
</g>
<path fill-rule="evenodd" clip-rule="evenodd" d="M48.767 18.5804C47.8845 19.4573 47.1323 20.2514 47.0953 20.3451C47.0505 20.4587 47.0904 20.9437 47.2151 21.8012C47.3179 22.5082 47.3863 23.1024 47.3671 23.1217C47.3479 23.1409 47.1754 23.0186 46.9838 22.8499C46.7922 22.6813 46.3282 22.3386 45.9525 22.0886C41.5716 19.1724 35.7303 19.3224 31.522 22.4592C28.9287 24.3922 27.2555 27.056 26.6108 30.2779C26.4675 30.9944 26.441 31.3644 26.4424 32.6287C26.4439 33.9658 26.4659 34.2321 26.6447 35.0746C27.0843 37.1456 27.9328 38.9402 29.2354 40.554C29.7397 41.1789 30.7082 42.1201 31.3303 42.5899C31.5471 42.7536 31.7243 42.9088 31.7243 42.9347C31.724 43.0582 30.7642 44.242 30.2089 44.8037C28.3294 46.7055 25.9082 47.8236 23.0345 48.1169C22.6073 48.1605 22.0573 48.1962 21.8123 48.1962C21.4393 48.1962 21.3369 48.2261 21.1827 48.3804C20.9391 48.624 20.9391 48.9688 21.1827 49.2124C21.34 49.3698 21.437 49.3966 21.8498 49.3966C23.1572 49.3966 24.7937 49.114 26.1891 48.6473C28.6951 47.8093 30.756 46.3138 32.2958 44.2163L32.7666 43.5749L33.5018 43.9317C33.9063 44.1279 34.5662 44.3967 34.9684 44.5289C35.3707 44.6612 35.6991 44.8061 35.6983 44.851C35.6955 45.0117 34.9402 46.3546 34.5177 46.9502C33.9548 47.7437 32.749 48.9404 31.9258 49.5224C29.9546 50.9164 27.2041 51.7973 24.8234 51.7973C24.4389 51.7973 24.3381 51.8263 24.183 51.9815C23.9393 52.2251 23.9393 52.5699 24.183 52.8135C24.3981 53.0288 24.7534 53.0489 26.0348 52.9189C28.3467 52.684 30.4623 51.931 32.3676 50.6647C33.5182 49.9 34.9459 48.4652 35.721 47.2948C36.866 45.5655 37.4904 43.8268 37.7202 41.7283C37.8403 40.6313 37.825 40.2162 37.6568 40.0081C37.523 39.8425 37.4502 39.8285 36.5393 39.7935L35.5649 39.756L37.2498 37.8616C38.1766 36.8197 38.9641 35.9673 39 35.9673C39.0359 35.9673 39.8234 36.8198 40.7502 37.8616L42.4351 39.756L41.4607 39.7935C40.5338 39.8292 40.4789 39.8401 40.3336 40.0186C40.1932 40.1909 40.1846 40.2732 40.2278 41.0314C40.4172 44.3496 41.6487 47.0522 44.0122 49.3362C46.1 51.3538 48.8783 52.6053 51.9652 52.9189C53.2466 53.0489 53.6019 53.0288 53.817 52.8135C54.0607 52.5699 54.0607 52.2251 53.817 51.9815C53.6608 51.8252 53.5616 51.7972 53.1607 51.7967C52.9011 51.7963 52.3848 51.7622 52.0135 51.7207C47.8028 51.2508 44.328 48.9395 42.5723 45.4409C42.4227 45.1428 42.3003 44.8698 42.3003 44.8341C42.3003 44.7986 42.6296 44.6615 43.0321 44.5297C43.4346 44.3978 44.0926 44.1275 44.4944 43.929L45.225 43.568L45.6911 44.2128C46.5952 45.4637 48.023 46.7571 49.3878 47.5617C51.2934 48.685 53.9158 49.3966 56.1502 49.3966C56.563 49.3966 56.66 49.3698 56.8173 49.2124C57.0609 48.9688 57.0609 48.624 56.8173 48.3804C56.6612 48.2242 56.5614 48.1959 56.161 48.1949C55.9013 48.1941 55.3682 48.1603 54.9763 48.1197C51.519 47.7614 48.6968 46.2038 46.707 43.5558C46.4698 43.2402 46.2758 42.9628 46.2757 42.9394C46.2757 42.9159 46.5424 42.6864 46.8686 42.4295C49.1359 40.6432 50.7253 38.0378 51.3557 35.0746C51.5371 34.2222 51.5567 33.9778 51.5554 32.5912C51.554 31.2161 51.5327 30.953 51.3542 30.1077C50.931 28.1031 50.0737 26.2576 48.8685 24.757C48.6392 24.4714 48.4619 24.2273 48.4747 24.2145C48.4874 24.2018 49.0842 24.2754 49.8007 24.3782C50.5172 24.4809 51.1573 24.5479 51.223 24.5271C51.2887 24.5062 52.0757 23.753 52.9719 22.8532C54.4137 21.4055 54.6012 21.1896 54.6012 20.9773C54.6012 20.7105 54.4004 20.463 54.1343 20.402C54.0405 20.3804 53.4423 20.2947 52.805 20.2116C52.1677 20.1286 51.6243 20.0249 51.5974 19.9813C51.5705 19.9377 51.4715 19.356 51.3773 18.6886C51.1873 17.341 51.1406 17.1898 50.8767 17.0695C50.487 16.8919 50.4128 16.9451 48.767 18.5804ZM50.3198 19.6803L50.4123 20.3113L49.4503 21.2761L48.4882 22.241L48.3862 21.5174L48.284 20.7938L49.2088 19.8666C49.7174 19.3566 50.1547 18.9642 50.1805 18.9944C50.2063 19.0246 50.269 19.3332 50.3198 19.6803ZM41.2238 21.4059C42.146 21.5955 43.3239 21.9973 44.0981 22.3867C44.751 22.7151 45.869 23.4482 46.3131 23.839L46.6131 24.1031L45.7893 24.9336C45.3362 25.3903 44.948 25.764 44.9265 25.764C44.9051 25.764 44.6422 25.5817 44.3422 25.3589C40.8655 22.7755 36.0131 23.0634 32.8489 26.0408C29.8964 28.819 29.1641 33.1312 31.0308 36.7465C31.5971 37.8429 32.5567 38.9958 33.5141 39.7296C33.732 39.8966 33.7548 39.9437 33.6828 40.0782C33.5477 40.3306 33.5867 40.6127 33.7837 40.8097C33.9652 40.9912 33.9865 40.9939 35.2838 40.9939C36.4873 40.9939 36.5997 41.0051 36.5994 41.1252C36.598 41.5374 36.2648 43.3599 36.16 43.5287C36.0767 43.6628 35.0675 43.3414 34.0871 42.8685C32.8492 42.2715 32.0133 41.6698 30.9694 40.6247C29.6157 39.2694 28.83 38.0371 28.2419 36.3471C27.7577 34.9556 27.6449 34.2464 27.6449 32.5912C27.6449 30.9359 27.7577 30.2268 28.2419 28.8353C29.6649 24.7461 33.3045 21.8071 37.6206 21.262C38.4773 21.1538 40.3632 21.2291 41.2238 21.4059ZM52.6334 21.4449C52.6569 21.4684 52.2705 21.8973 51.7747 22.3978L50.8733 23.3079L50.1071 23.2103L49.3409 23.1126L50.2867 22.1645L51.2326 21.2163L51.9116 21.3093C52.285 21.3604 52.6099 21.4214 52.6334 21.4449ZM40.8732 25.0192C41.2227 25.1093 41.7712 25.2937 42.0919 25.4289C42.6439 25.6618 43.8881 26.4278 43.9948 26.6004C44.0426 26.6779 42.4768 28.3148 42.3549 28.3148C42.3216 28.3148 42.1184 28.196 41.9036 28.051C41.0302 27.4613 39.7461 27.1353 38.6133 27.2157C37.2922 27.3096 36.1726 27.8287 35.2056 28.7959C34.5307 29.4709 34.1372 30.1059 33.8377 31.0031C33.6696 31.5069 33.6457 31.7043 33.6457 32.5912C33.6457 33.478 33.6696 33.6755 33.8377 34.1792C33.9433 34.4955 34.1555 34.9793 34.3093 35.2544C34.6144 35.8001 35.3714 36.6486 35.8482 36.979C36.0141 37.094 36.1498 37.2106 36.1498 37.238C36.1498 37.3433 34.6173 39.0045 34.5419 38.9807C34.4057 38.938 33.8226 38.4353 33.358 37.9603C32.4527 37.0346 31.7737 35.7976 31.4169 34.4242C31.1722 33.4822 31.165 31.7298 31.4021 30.7906C32.1268 27.92 34.3166 25.7157 37.1299 25.0252C37.9968 24.8123 38.1478 24.7984 39.2625 24.8288C39.9478 24.8474 40.4265 24.904 40.8732 25.0192ZM47.834 25.3701C48.9229 26.6753 49.7907 28.5153 50.1906 30.3669C50.4287 31.4693 50.4287 33.7131 50.1906 34.8155C49.683 37.1655 48.7225 38.9312 47.0306 40.6241C45.6513 42.0044 44.2263 42.8919 42.5314 43.4262C41.8168 43.6514 41.8288 43.6568 41.6987 43.057C41.6016 42.6095 41.4012 41.3109 41.4006 41.1252C41.4003 41.0051 41.5127 40.9939 42.7162 40.9939C44.0135 40.9939 44.0348 40.9912 44.2163 40.8097C44.4133 40.6127 44.4523 40.3306 44.3172 40.0782C44.2452 39.9435 44.2677 39.8975 44.4859 39.7344C44.973 39.3705 46.0933 38.1748 46.4353 37.6539C47.4346 36.1316 47.8934 34.7219 47.973 32.9288C48.024 31.7801 47.8947 30.8305 47.5456 29.7881C47.2659 28.953 46.7251 27.8961 46.269 27.2934C46.0782 27.0412 45.8961 26.7928 45.8644 26.7415C45.8265 26.6802 46.0867 26.3672 46.6211 25.8309C47.0691 25.3815 47.4583 25.0138 47.4862 25.0138C47.5139 25.0138 47.6705 25.1742 47.834 25.3701ZM45.4684 28.2456C45.9657 28.9758 46.3676 29.8815 46.5975 30.7906C46.835 31.7293 46.828 33.4816 46.5831 34.4242C46.2286 35.7886 45.5551 37.0207 44.6506 37.9596C44.1006 38.5305 43.4198 39.0694 43.3481 38.9907C42.7239 38.3052 41.8502 37.2863 41.8502 37.2439C41.8502 37.2132 41.9859 37.094 42.1518 36.979C42.6286 36.6486 43.3856 35.8001 43.6907 35.2544C43.8445 34.9793 44.0569 34.4955 44.1627 34.1792C44.3319 33.6732 44.3548 33.4822 44.353 32.5912C44.3512 31.7114 44.3259 31.5028 44.1606 31.0031C43.9955 30.5044 43.6303 29.7753 43.3307 29.3469C43.251 29.2329 43.3445 29.1107 44.0627 28.3901C44.5156 27.9357 44.9202 27.5752 44.962 27.5889C45.0038 27.6026 45.2316 27.8981 45.4684 28.2456ZM39.7925 28.4718C40.1862 28.5442 41.0887 28.9146 41.4002 29.1315C41.4919 29.1954 41.2252 29.4987 39.9563 30.7733C38.5728 32.1631 38.4 32.3638 38.4 32.5799C38.4 32.9057 38.6856 33.1914 39.0112 33.1914C39.2273 33.1914 39.428 33.0184 40.8174 31.6346C42.0803 30.3768 42.3949 30.0995 42.456 30.1904C43.717 32.0698 43.3112 34.5937 41.5327 35.9309C41.2866 36.116 41.0465 36.2662 40.999 36.2647C40.9515 36.2632 40.5582 35.8568 40.1251 35.3616C39.346 34.4708 39.1597 34.335 38.8312 34.4183C38.7385 34.4419 38.3081 34.8663 37.8749 35.3616C37.4418 35.8568 37.0485 36.2632 37.001 36.2647C36.9535 36.2662 36.7134 36.116 36.4673 35.9309C33.9928 34.0704 34.3598 30.1884 37.1368 28.8493C38.0456 28.4111 38.8451 28.2974 39.7925 28.4718Z" fill="#E02026"/>
</svg>
