<svg width="77" height="77" viewBox="0 0 77 77" fill="none" xmlns="http://www.w3.org/2000/svg">
<rect x="0.259888" y="38.2599" width="53.7401" height="53.7401" rx="5" transform="rotate(-45 0.259888 38.2599)" fill="url(#paint0_linear_21_290)"/>
<path d="M40.8674 44.9644H39.24V51.0672H40.8674V44.9644Z" fill="white"/>
<path d="M45.7497 46.1849H44.1222V51.0672H45.7497V46.1849Z" fill="white"/>
<path d="M43.3085 47.4055H41.6811V51.0672H43.3085V47.4055Z" fill="white"/>
<path d="M34.034 44.1474C31.9468 44.1474 30.2486 45.8456 30.2486 47.9332C30.2486 50.0203 31.9468 51.7185 34.034 51.7185C36.1211 51.7185 37.8189 50.0203 37.8189 47.9332C37.8193 45.8456 36.1211 44.1474 34.034 44.1474ZM36.6801 47.9328L34.034 47.9332V45.287C35.4929 45.2866 36.6801 46.4734 36.6801 47.9328Z" fill="white"/>
<path d="M56.4502 36.9018C56.4502 36.9018 54.1772 34.0124 50.7954 32.079V27.0634C50.7954 26.9124 50.7356 26.7676 50.6286 26.6606C50.522 26.5536 50.3768 26.4938 50.2258 26.4938H48.7245C48.6261 25.9669 48.4735 25.4469 48.2603 24.9424C48.0349 24.405 47.7497 23.9029 47.4145 23.4428L46.2554 23.9294C45.9364 23.5266 45.5731 23.169 45.1744 22.8594L45.6447 21.7059C44.7089 21.0452 43.6275 20.5961 42.4814 20.4077L42.0083 21.5701C41.5074 21.5115 40.9968 21.5123 40.4862 21.5766L39.9972 20.413C39.4341 20.5114 38.8816 20.6734 38.3466 20.8988C37.8087 21.125 37.3079 21.4081 36.8461 21.7401L37.3348 22.9025C36.9328 23.2227 36.5744 23.5876 36.2651 23.9847L35.0979 23.5079C34.7696 23.9745 34.4901 24.4778 34.2712 25.0181C34.0755 25.4998 33.9347 25.9942 33.8403 26.493H31.6279C31.6336 26.4657 31.6429 26.4392 31.6478 26.412L32.5498 26.2749C32.634 25.5519 32.5229 24.8082 32.2194 24.123L31.3211 24.2618C31.2275 24.0885 31.1193 23.92 30.9924 23.7609C30.8654 23.6011 30.7251 23.4607 30.5761 23.3321L30.9077 22.4855C30.3056 22.0371 29.6046 21.767 28.88 21.6925L28.5492 22.5408C28.1529 22.527 27.755 22.5884 27.371 22.7198L26.8042 22.009C26.4735 22.1514 26.1557 22.3382 25.8603 22.5725C25.5658 22.8097 25.3148 23.0783 25.1048 23.3708L25.6716 24.0795C25.4596 24.4245 25.3139 24.7996 25.2407 25.1894L24.3399 25.3269C24.2549 26.0503 24.3648 26.7928 24.6679 27.4771L25.5686 27.3396C25.5939 27.3876 25.6236 27.4332 25.6508 27.48V29.8662L25.6476 29.8959C25.2224 29.9573 24.8094 30.07 24.4185 30.2262L23.7769 29.3897C23.3432 29.5883 22.929 29.8336 22.5429 30.1314C22.1568 30.4284 21.8118 30.7645 21.5083 31.1302L22.1507 31.9675C21.8984 32.304 21.6832 32.6742 21.5152 33.0701L20.4692 32.933C20.3032 33.3781 20.1856 33.8452 20.1221 34.3289C20.0599 34.8118 20.0529 35.2948 20.101 35.7671L21.1429 35.9046C21.2031 36.3302 21.3154 36.7432 21.4733 37.1337L20.6457 37.7692C21.0432 38.6411 21.6344 39.4219 22.383 40.0407L23.2154 39.4015C23.5519 39.6542 23.9209 39.869 24.3167 40.0374L24.1788 41.0838C24.6272 41.2515 25.093 41.3678 25.5747 41.4305C25.6 41.4337 25.6256 41.435 25.6508 41.4382V55.5425C25.6508 55.857 25.9055 56.1121 26.2204 56.1121H50.2246C50.5391 56.1121 50.7942 55.857 50.7942 55.5425L50.7946 41.7242C54.1772 39.7913 56.4502 36.9018 56.4502 36.9018ZM41.1893 24.9408C42.3419 24.9038 43.3517 25.5421 43.8623 26.4934H38.701C39.1806 25.6003 40.103 24.975 41.1893 24.9408ZM28.0541 24.5767C28.7295 24.3602 29.4545 24.735 29.6697 25.4103C29.7913 25.7911 29.7214 26.1821 29.522 26.4934H27.3641C27.3051 26.4014 27.2542 26.3021 27.2192 26.1927C27.0048 25.5161 27.3791 24.7923 28.0541 24.5767ZM25.2289 37.3127C24.0364 36.6663 23.593 35.1752 24.2407 33.9819C24.5548 33.4025 25.069 33.0022 25.6512 32.8166V37.4901C25.508 37.4442 25.3664 37.3872 25.2289 37.3127ZM49.6554 54.9729H26.7904V27.6329H49.6562V31.4891C48.2351 30.8279 46.663 30.3776 45.0076 30.3776C38.6859 30.3776 33.562 36.9014 33.562 36.9014C33.562 36.9014 38.6863 43.4257 45.0076 43.4257C46.663 43.4257 48.2351 42.9757 49.6558 42.3142L49.6554 54.9729ZM49.6335 36.9018C49.6335 39.4723 47.55 41.5542 44.9795 41.5542C42.409 41.5542 40.3271 39.4727 40.3271 36.9018C40.3271 34.3313 42.409 32.2479 44.9795 32.2479C47.55 32.2483 49.6335 34.3313 49.6335 36.9018Z" fill="white"/>
<path d="M42.3695 36.9014C42.3695 38.3437 43.5376 39.5122 44.9803 39.5122C46.4226 39.5122 47.5919 38.3441 47.5919 36.9014C47.5919 36.6862 47.563 36.4783 47.5138 36.2781C47.2847 36.4616 46.9979 36.5763 46.6813 36.5763C45.9437 36.5763 45.3444 35.9779 45.3444 35.2394C45.3444 34.9119 45.4669 34.6157 45.6626 34.383C45.4445 34.324 45.2167 34.2898 44.9799 34.2898C43.5376 34.2898 42.3695 35.4591 42.3695 36.9014Z" fill="white"/>
<path d="M37.1142 32.0652H30.8207V33.3032H35.5206C36.0015 32.8935 36.5349 32.4737 37.1142 32.0652Z" fill="white"/>
<path d="M30.902 36.1695H32.6889C32.7894 36.043 33.1719 35.5739 33.7903 34.9314H30.902V36.1695Z" fill="white"/>
<path d="M30.9659 37.6592L30.8512 38.8919L33.8854 39.1743C33.3966 38.5739 33.0561 38.0968 32.8784 37.8372L30.9659 37.6592Z" fill="white"/>
<defs>
<linearGradient id="paint0_linear_21_290" x1="3.12168" y1="41.1217" x2="52.5839" y2="93.4161" gradientUnits="userSpaceOnUse">
<stop stop-color="#015FE5"/>
<stop offset="0.545" stop-color="#0148AD"/>
<stop offset="1" stop-color="#01357F"/>
</linearGradient>
</defs>
</svg>
