<svg width="71" height="71" viewBox="0 0 71 71" fill="none" xmlns="http://www.w3.org/2000/svg">
<path d="M33.191 2.22563C34.738 1.33247 36.644 1.33247 38.191 2.22563L63.5019 16.8389C65.0489 17.732 66.0019 19.3827 66.0019 21.169V50.3955C66.0019 52.1818 65.0489 53.8325 63.5019 54.7256L38.191 69.3389C36.644 70.232 34.738 70.232 33.191 69.3389L7.88015 54.7256C6.33314 53.8325 5.38015 52.1818 5.38015 50.3955V21.169C5.38015 19.3827 6.33315 17.732 7.88015 16.8389L33.191 2.22563Z" fill="url(#paint0_linear_152_814)"/>
<path d="M23.4166 21.1436C23.4166 20.5913 23.8643 20.1436 24.4166 20.1436H59.041C59.5933 20.1436 60.041 20.5913 60.041 21.1436V46.7946C60.041 47.3468 59.5933 47.7946 59.041 47.7946H24.4166C23.8643 47.7946 23.4166 47.3468 23.4166 46.7946V21.1436Z" fill="#7485A2"/>
<rect x="25.2383" y="22.1364" width="32.9809" height="20.4695" fill="white"/>
<path d="M23.4166 44.4784H60.041V46.7946C60.041 47.3468 59.5933 47.7946 59.041 47.7946H24.4166C23.8643 47.7946 23.4166 47.3468 23.4166 46.7946V44.4784Z" fill="#E6E5E5"/>
<rect x="35.4069" y="24.7426" width="4.47164" height="4.408" fill="#242D3C"/>
<rect width="1.42196" height="0.687603" transform="matrix(1 0 0 -1 36.9317 26.3519)" fill="white"/>
<rect width="2.43157" height="0.461226" transform="matrix(1 0 0 -1 36.4268 27.2193)" fill="white"/>
<rect width="2.43157" height="0.553472" transform="matrix(1 0 0 -1 36.4268 28.2289)" fill="white"/>
<rect x="35.4069" y="35.5502" width="4.47164" height="4.408" fill="#C8C7C6"/>
<rect width="2.4692" height="0.538501" transform="matrix(1 0 0 -1 36.3392 37.0976)" fill="#242D3C"/>
<rect width="2.43157" height="0.461226" transform="matrix(1 0 0 -1 36.3392 38.0269)" fill="#242D3C"/>
<rect width="1.19954" height="0.518973" transform="matrix(1 0 0 -1 36.4268 39.002)" fill="#242D3C"/>
<rect x="46.2358" y="35.5502" width="4.47164" height="4.408" fill="#16C6CC"/>
<rect width="1.20053" height="0.538501" transform="matrix(1 0 0 -1 47.1682 37.0976)" fill="#FAFAFA"/>
<rect width="2.43157" height="0.461226" transform="matrix(1 0 0 -1 47.1682 38.0269)" fill="#FAFAFA"/>
<rect width="2.34398" height="0.518973" transform="matrix(1 0 0 -1 47.2558 39.002)" fill="#FAFAFA"/>
<rect x="51.6035" y="35.5502" width="4.47164" height="4.408" fill="#16C6CC"/>
<rect width="1.20053" height="0.538501" transform="matrix(1 0 0 -1 52.5359 37.0976)" fill="#FAFAFA"/>
<rect width="2.43157" height="0.461226" transform="matrix(1 0 0 -1 52.5359 38.0269)" fill="#FAFAFA"/>
<rect width="2.34398" height="0.518973" transform="matrix(1 0 0 -1 52.6235 39.002)" fill="#FAFAFA"/>
<rect x="35.4069" y="30.1582" width="9.87596" height="4.47846" fill="#F05324"/>
<rect width="3.92294" height="0.502185" transform="matrix(1 0 0 -1 36.4269 31.5968)" fill="white"/>
<rect width="7.79914" height="0.468599" transform="matrix(1 0 0 -1 36.4269 32.6017)" fill="white"/>
<rect width="7.79916" height="0.468098" transform="matrix(1 0 0 -1 36.4269 33.6057)" fill="white"/>
<rect x="46.2358" y="24.7426" width="4.93188" height="0.533617" fill="#242D3C"/>
<rect x="46.2358" y="25.7125" width="9.81483" height="0.533617" fill="#242D3C"/>
<rect x="46.2358" y="26.7218" width="9.81483" height="0.533617" fill="#242D3C"/>
<rect x="46.2603" y="27.6918" width="9.81483" height="0.533617" fill="#242D3C"/>
<rect x="46.2358" y="28.6169" width="9.81483" height="0.533617" fill="#242D3C"/>
<rect x="46.2603" y="30.1582" width="9.79036" height="4.47846" fill="#CCCBCA"/>
<rect x="49.1553" y="31.1148" width="3.94838" height="0.575111" fill="#242D3C"/>
<rect x="47.1754" y="32.0266" width="7.90834" height="0.575111" fill="#242D3C"/>
<rect x="47.1754" y="33.0306" width="7.90834" height="0.575111" fill="#242D3C"/>
<rect x="13.9183" y="24.7426" width="19.3857" height="28.982" fill="#16C6CC"/>
<rect x="13.9183" y="24.7426" width="19.3857" height="2.30613" fill="#7485A1"/>
<rect x="16.6362" y="29.0713" width="3.34868" height="0.658762" fill="#242D3C"/>
<rect x="20.9373" y="29.0713" width="5.06189" height="0.658762" fill="#242D3C"/>
<rect x="18.8085" y="30.687" width="9.69702" height="0.658762" fill="white"/>
<rect x="18.8085" y="35.3589" width="9.69702" height="0.658762" fill="white"/>
<rect x="18.8085" y="39.9582" width="9.69702" height="0.658762" fill="white"/>
<rect x="18.8085" y="44.8105" width="9.69702" height="0.658762" fill="white"/>
<rect x="18.8085" y="49.2929" width="9.69702" height="0.658762" fill="white"/>
<rect x="20.9373" y="32.1788" width="6.52696" height="0.658762" fill="white"/>
<rect x="20.9373" y="36.8506" width="6.52696" height="0.658762" fill="white"/>
<rect x="20.9373" y="41.45" width="6.52696" height="0.658762" fill="white"/>
<rect x="20.9373" y="46.3022" width="6.52696" height="0.658762" fill="white"/>
<rect x="20.9373" y="50.7846" width="6.52696" height="0.658762" fill="white"/>
<rect x="16.6362" y="33.7208" width="3.34868" height="0.658762" fill="#242D3C"/>
<rect x="16.6362" y="38.3931" width="3.34868" height="0.658762" fill="#242D3C"/>
<rect x="16.6362" y="43.0859" width="3.34868" height="0.658762" fill="#242D3C"/>
<rect x="16.6362" y="47.794" width="3.34868" height="0.658762" fill="#242D3C"/>
<rect x="20.9373" y="33.7208" width="5.06189" height="0.658762" fill="#242D3C"/>
<rect x="20.9373" y="38.3931" width="5.06189" height="0.658762" fill="#242D3C"/>
<rect x="20.9373" y="43.0859" width="5.06189" height="0.658762" fill="#242D3C"/>
<rect x="20.9373" y="47.794" width="5.06189" height="0.658762" fill="#242D3C"/>
<rect x="28.5056" y="32.1788" width="1.98435" height="0.658762" fill="white"/>
<rect x="28.5056" y="36.8506" width="1.98435" height="0.658762" fill="white"/>
<rect x="28.5056" y="41.45" width="1.98435" height="0.658762" fill="white"/>
<rect x="28.5056" y="46.3022" width="1.98435" height="0.658762" fill="white"/>
<rect x="28.5056" y="50.7846" width="1.98435" height="0.658762" fill="white"/>
<path d="M37.6428 47.794H46.9873V52.8858H36.7283L37.6428 47.794Z" fill="#D9D8D7"/>
<path d="M34.0534 53.7246C34.0534 53.2613 34.4289 52.8858 34.8922 52.8858H48.7611C49.2243 52.8858 49.5999 53.2613 49.5999 53.7246V53.7246H34.0534V53.7246Z" fill="#D9D9D9"/>
<defs>
<linearGradient id="paint0_linear_152_814" x1="35.691" y1="0.782257" x2="35.691" y2="70.7823" gradientUnits="userSpaceOnUse">
<stop stop-color="#ACBFDF"/>
<stop offset="1" stop-color="#242D3C"/>
</linearGradient>
</defs>
</svg>
