<svg width="71" height="71" viewBox="0 0 71 71" fill="none" xmlns="http://www.w3.org/2000/svg">
<path d="M32.9526 2.06641C34.4996 1.17324 36.4056 1.17324 37.9526 2.06641L63.2635 16.6797C64.8105 17.5728 65.7635 19.2235 65.7635 21.0098V50.2363C65.7635 52.0226 64.8105 53.6732 63.2635 54.5664L37.9526 69.1797C36.4056 70.0728 34.4996 70.0728 32.9526 69.1797L7.6417 54.5664C6.09469 53.6732 5.1417 52.0226 5.1417 50.2363V21.0098C5.1417 19.2235 6.0947 17.5728 7.6417 16.6797L32.9526 2.06641Z" fill="#998D1F" fill-opacity="0.52"/>
<g filter="url(#filter0_d_161_183)">
<rect x="18.1895" y="18.2514" width="34.5262" height="24.9493" rx="2" fill="#BAD9F0"/>
<path d="M28.9323 27.4418C28.9323 26.6503 29.8081 26.1725 30.4736 26.601L34.4837 29.1828V36.0621L29.4921 33.6153C29.1494 33.4473 28.9323 33.099 28.9323 32.7174V27.4418Z" fill="#FFF278"/>
<path d="M34.4837 29.1801L38.6262 26.5237C39.3029 26.0897 40.1891 26.5912 40.1656 27.3947L40.0086 32.7529C39.9977 33.1234 39.7828 33.4575 39.4501 33.621L34.4837 36.0621V29.1801Z" fill="#70B2E2"/>
<path d="M29.3501 26.3415L34.0384 23.976C34.3193 23.8343 34.6505 23.833 34.9324 23.9726L39.9918 26.4766L34.4845 29.1834L29.3501 26.3415Z" fill="#E57373"/>
<path d="M35.4137 38.8123C35.4546 39.2475 35.1346 39.6368 34.6976 39.6422C32.9853 39.6635 31.2925 39.2327 29.7929 38.3867C28.0628 37.4108 26.6726 35.9291 25.8089 34.1403C24.9452 32.3516 24.6492 30.3415 24.9606 28.3798C25.2721 26.418 26.1761 24.5984 27.5514 23.1652C28.9267 21.732 30.7075 20.7537 32.6547 20.3616C34.602 19.9695 36.6226 20.1824 38.4454 20.9716C40.2682 21.7609 41.806 23.0888 42.8524 24.7771C43.7595 26.2406 44.2597 27.9142 44.3091 29.6259C44.3217 30.0628 43.9459 30.3985 43.5094 30.3756V30.3756C43.0729 30.3527 42.7416 29.9796 42.7222 29.5429C42.6602 28.1544 42.2439 26.7999 41.507 25.611C40.6307 24.1971 39.3429 23.0851 37.8164 22.4242C36.29 21.7632 34.5979 21.585 32.9672 21.9133C31.3365 22.2417 29.8452 23.0609 28.6935 24.2611C27.5418 25.4614 26.7847 26.9851 26.5239 28.628C26.2631 30.2708 26.5109 31.9541 27.2343 33.4521C27.9576 34.95 29.1218 36.1908 30.5706 37.0081C31.7888 37.6953 33.1593 38.0554 34.5493 38.0601C34.9864 38.0615 35.3728 38.3771 35.4137 38.8123V38.8123Z" fill="#E4F2FC"/>
<path d="M42.0638 28.813C42.5148 28.5123 43.5264 28.7663 43.925 29.0168C45.8659 28.1148 45.7313 29.3523 45.2245 29.8552L43.8235 31.1366L42.4738 30.1115C42.1492 29.804 41.6127 29.1137 42.0638 28.813Z" fill="#E0EEF7"/>
<path d="M34.0915 43.2007H40.7987L42.9821 52.9947H31.9087L34.0915 43.2007Z" fill="#778F9B"/>
<path d="M25.31 50.7409C25.31 48.5318 27.1009 46.7409 29.31 46.7409H45.5807C47.7898 46.7409 49.5807 48.5318 49.5807 50.7409V51.9947C49.5807 52.547 49.133 52.9947 48.5807 52.9947H26.31C25.7577 52.9947 25.31 52.547 25.31 51.9947V50.7409Z" fill="#EDEFF0"/>
</g>
<defs>
<filter id="filter0_d_161_183" x="14.1895" y="18.2514" width="42.5262" height="42.7433" filterUnits="userSpaceOnUse" color-interpolation-filters="sRGB">
<feFlood flood-opacity="0" result="BackgroundImageFix"/>
<feColorMatrix in="SourceAlpha" type="matrix" values="0 0 0 0 0 0 0 0 0 0 0 0 0 0 0 0 0 0 127 0" result="hardAlpha"/>
<feOffset dy="4"/>
<feGaussianBlur stdDeviation="2"/>
<feComposite in2="hardAlpha" operator="out"/>
<feColorMatrix type="matrix" values="0 0 0 0 0 0 0 0 0 0 0 0 0 0 0 0 0 0 0.25 0"/>
<feBlend mode="normal" in2="BackgroundImageFix" result="effect1_dropShadow_161_183"/>
<feBlend mode="normal" in="SourceGraphic" in2="effect1_dropShadow_161_183" result="shape"/>
</filter>
</defs>
</svg>
