<svg width="71" height="71" viewBox="0 0 71 71" fill="none" xmlns="http://www.w3.org/2000/svg">
<path d="M33.191 2.22563C34.738 1.33247 36.644 1.33247 38.191 2.22563L63.5019 16.8389C65.0489 17.732 66.0019 19.3827 66.0019 21.169V50.3955C66.0019 52.1818 65.0489 53.8325 63.5019 54.7256L38.191 69.3389C36.644 70.232 34.738 70.232 33.191 69.3389L7.88015 54.7256C6.33314 53.8325 5.38015 52.1818 5.38015 50.3955V21.169C5.38015 19.3827 6.33315 17.732 7.88015 16.8389L33.191 2.22563Z" fill="url(#paint0_linear_152_727)"/>
<rect x="18.428" y="18.4106" width="34.5262" height="24.9493" rx="2" fill="#BAD9F0"/>
<path d="M29.1707 27.601C29.1707 26.8095 30.0466 26.3318 30.712 26.7602L34.7221 29.342V36.2213L29.7306 33.7745C29.3879 33.6066 29.1707 33.2582 29.1707 32.8766V27.601Z" fill="#FFF278"/>
<path d="M34.7221 29.3393L38.8646 26.6829C39.5414 26.2489 40.4276 26.7504 40.404 27.5539L40.247 32.9121C40.2361 33.2826 40.0212 33.6167 39.6885 33.7802L34.7221 36.2213V29.3393Z" fill="#70B2E2"/>
<path d="M29.5886 26.5007L34.2769 24.1352C34.5577 23.9935 34.8889 23.9922 35.1709 24.1318L40.2302 26.6358L34.723 29.3426L29.5886 26.5007Z" fill="#E57373"/>
<path d="M35.6521 38.9715C35.693 39.4067 35.3731 39.796 34.936 39.8015C33.2237 39.8227 31.5309 39.3919 30.0313 38.546C28.3013 37.57 26.9111 36.0883 26.0474 34.2996C25.1836 32.5109 24.8876 30.5008 25.1991 28.539C25.5106 26.5772 26.4146 24.7577 27.7899 23.3244C29.1652 21.8912 30.9459 20.9129 32.8932 20.5208C34.8404 20.1287 36.861 20.3416 38.6838 21.1309C40.5066 21.9201 42.0444 23.248 43.0909 24.9363C43.9979 26.3998 44.4982 28.0734 44.5476 29.7851C44.5601 30.222 44.1843 30.5577 43.7478 30.5348V30.5348C43.3114 30.5119 42.9801 30.1388 42.9606 29.7022C42.8987 28.3136 42.4824 26.9591 41.7455 25.7702C40.8692 24.3564 39.5814 23.2443 38.0549 22.5834C36.5284 21.9225 34.8363 21.7442 33.2056 22.0725C31.5749 22.4009 30.0837 23.2202 28.932 24.4204C27.7803 25.6206 27.0232 27.1444 26.7624 28.7872C26.5015 30.43 26.7494 32.1134 27.4727 33.6113C28.1961 35.1092 29.3602 36.35 30.809 37.1673C32.0273 37.8546 33.3978 38.2146 34.7877 38.2193C35.2248 38.2208 35.6112 38.5363 35.6521 38.9715V38.9715Z" fill="#E4F2FC"/>
<path d="M42.3022 28.9723C42.7533 28.6716 43.7648 28.9255 44.1635 29.1761C46.1043 28.274 45.9698 29.5115 45.463 30.0144L44.062 31.2958L42.7123 30.2707C42.3877 29.9632 41.8512 29.273 42.3022 28.9723Z" fill="#E0EEF7"/>
<path d="M34.3299 43.3599H41.0371L43.2205 53.1539H32.1471L34.3299 43.3599Z" fill="#778F9B"/>
<path d="M25.5485 50.9002C25.5485 48.691 27.3393 46.9002 29.5485 46.9002H45.8192C48.0283 46.9002 49.8192 48.691 49.8192 50.9002V52.154C49.8192 52.7062 49.3715 53.154 48.8192 53.154H26.5485C25.9962 53.154 25.5485 52.7062 25.5485 52.154V50.9002Z" fill="#EDEFF0"/>
<defs>
<linearGradient id="paint0_linear_152_727" x1="35.691" y1="0.782257" x2="35.691" y2="70.7823" gradientUnits="userSpaceOnUse">
<stop stop-color="#BAD9F0"/>
<stop offset="1" stop-color="#343B40"/>
</linearGradient>
</defs>
</svg>
