<svg width="71" height="71" viewBox="0 0 71 71" fill="none" xmlns="http://www.w3.org/2000/svg">
<path d="M33.191 2.22563C34.738 1.33247 36.644 1.33247 38.191 2.22563L63.5019 16.8389C65.0489 17.732 66.0019 19.3827 66.0019 21.169V50.3955C66.0019 52.1818 65.0489 53.8325 63.5019 54.7256L38.191 69.3389C36.644 70.232 34.738 70.232 33.191 69.3389L7.88015 54.7256C6.33314 53.8325 5.38015 52.1818 5.38015 50.3955V21.169C5.38015 19.3827 6.33315 17.732 7.88015 16.8389L33.191 2.22563Z" fill="url(#paint0_linear_152_889)"/>
<rect x="16.8739" y="27.6949" width="37.7924" height="26.5535" fill="#EECE7B"/>
<path d="M14.4616 53.6773C14.4616 53.125 14.9093 52.6773 15.4616 52.6773H55.8435C56.3958 52.6773 56.8435 53.125 56.8435 53.6773V54.2484H14.4616V53.6773Z" fill="#60BCAC"/>
<rect x="19.2066" y="33.8149" width="12.6724" height="18.8625" fill="#91D8F0"/>
<path d="M19.1555 33.8553L19.9908 33.8553L19.9368 51.8938L19.1555 52.6867V33.8553Z" fill="#E5766D"/>
<path d="M19.1555 34.6907L19.1555 33.8553H31.724L30.8404 34.6907H19.1555Z" fill="#E5766D"/>
<rect x="23.9855" y="35.4543" width="1.03558" height="4.35617" transform="rotate(45 23.9855 35.4543)" fill="#A7E0F3"/>
<rect x="30.0907" y="40.1659" width="1.03558" height="14.413" transform="rotate(45 30.0907 40.1659)" fill="#A7E0F3"/>
<rect x="30.8712" y="41.5324" width="1.03558" height="14.66" transform="rotate(45 30.8712 41.5324)" fill="#A7E0F3"/>
<rect x="30.5688" y="45.5478" width="1.03558" height="9.04559" transform="rotate(45 30.5688 45.5478)" fill="#A7E0F3"/>
<rect x="30.9907" y="47.329" width="1.03558" height="6.54351" transform="rotate(45 30.9907 47.329)" fill="#A7E0F3"/>
<rect x="30.9422" y="43.2764" width="1.03558" height="12.2339" transform="rotate(45 30.9422 43.2764)" fill="#A7E0F3"/>
<rect x="26.2922" y="35.4299" width="1.03558" height="8.89287" transform="rotate(45 26.2922 35.4299)" fill="#A7E0F3"/>
<rect x="27.7642" y="35.4235" width="1.03558" height="9.93758" transform="rotate(45 27.7642 35.4235)" fill="#A7E0F3"/>
<rect x="29.8088" y="35.4869" width="1.03558" height="9.93758" transform="rotate(45 29.8088 35.4869)" fill="#A7E0F3"/>
<rect x="30.1921" y="37.8213" width="1.03558" height="14.5506" transform="rotate(45 30.1921 37.8213)" fill="#91D8F0"/>
<path d="M20.7373 42.4834H30.1393C30.5729 42.4834 30.9244 42.8349 30.9244 43.2685V43.2685C30.9244 43.7021 30.5729 44.0536 30.1393 44.0536H20.7373V42.4834Z" fill="#E2574C"/>
<rect x="20.7373" y="44.0536" width="9.39763" height="0.794601" fill="#6FB3CA"/>
<rect x="20.7373" y="35.4299" width="9.39763" height="0.794601" fill="#6FB3CA"/>
<path d="M19.9033 34.6907L20.7386 34.6907V52.6866H19.9033V34.6907Z" fill="#CB4E44"/>
<path d="M30.8418 34.6874L31.7162 33.864V52.6867H30.9244L30.8418 34.6874Z" fill="#CB4E44"/>
<path d="M30.0284 34.6907H30.9144V52.6593H30.1226L30.0284 34.6907Z" fill="#CB4E44"/>
<circle cx="29.9205" cy="43.2685" r="1.00384" fill="white"/>
<path d="M31.7241 51.8938L31.7241 52.6867H19.1556L19.9329 51.8938H31.7241Z" fill="#CB4E44"/>
<rect x="19.9282" y="51.1054" width="10.9862" height="0.794601" fill="#E2574C"/>
<rect x="34.0752" y="33.864" width="18.0516" height="12.7284" fill="#8FD4EB"/>
<rect x="39.1763" y="34.7385" width="1.03558" height="7.17512" transform="rotate(45 39.1763 34.7385)" fill="#91D8F0"/>
<rect x="42.8426" y="33.7972" width="1.03558" height="11.0692" transform="rotate(45 42.8426 33.7972)" fill="#A4DCEE"/>
<rect x="45.367" y="33.9301" width="1.41015" height="15.377" transform="rotate(45 45.367 33.9301)" fill="#A4DCEE"/>
<rect x="47.4969" y="34.205" width="1.36328" height="16.7362" transform="rotate(45 47.4969 34.205)" fill="#A4DCEE"/>
<rect x="49.5767" y="34.5638" width="1.03558" height="15.6891" transform="rotate(45 49.5767 34.5638)" fill="#91D8F0"/>
<rect x="50.1428" y="36.5371" width="1.03558" height="14.4733" transform="rotate(45 50.1428 36.5371)" fill="#91D8F0"/>
<rect x="50.5431" y="38.6105" width="1.03558" height="8.85553" transform="rotate(45 50.5431 38.6105)" fill="#91D8F0"/>
<rect x="50.5418" y="42.1426" width="1.03558" height="5.0051" transform="rotate(45 50.5418 42.1426)" fill="#91D8F0"/>
<rect x="20.7373" y="51.1054" width="15.6755" height="0.794601" transform="rotate(-90 20.7373 51.1054)" fill="#6FB3CA"/>
<rect x="33.3768" y="46.4151" width="19.5381" height="1.55275" fill="#E0746B"/>
<rect x="34.8439" y="34.6993" width="0.792286" height="11.7158" fill="#E2574C"/>
<rect x="34.0611" y="34.6993" width="0.792286" height="11.6907" fill="#E5766D"/>
<rect x="35.6364" y="45.6278" width="16.4431" height="0.78731" fill="#CB4E44"/>
<rect x="35.6364" y="34.6993" width="14.9068" height="0.742094" fill="#C15047"/>
<rect x="51.2754" y="33.864" width="0.88619" height="12.5511" fill="#CB4E44"/>
<rect x="50.4319" y="33.864" width="0.88619" height="12.5511" fill="#E2574C"/>
<path d="M34.0611 34.6993L34.0611 33.864H52.1616L51.2167 34.6993H34.0611Z" fill="#E5766D"/>
<path d="M20.7731 19.7376L24.6068 19.7379L19.9185 27.7021H13.6451L20.7731 19.7376Z" fill="#E0746B"/>
<path d="M46.6921 19.7314H50.6283L57.737 27.6793H51.574L46.6921 19.7314Z" fill="#E0746B"/>
<path d="M24.6031 19.7379H28.6169L26.236 27.7229H19.9098L24.6031 19.7379Z" fill="#E6E8E9"/>
<path d="M28.5776 19.7379L33.5178 19.7379L32.5318 27.6982L26.2421 27.7233L28.5776 19.7379Z" fill="#E0746B"/>
<path d="M38.6566 19.7259H42.7031L45.0915 27.6959H38.8097L38.6566 19.7259Z" fill="#E0746B"/>
<path d="M33.4662 19.7377H38.5875L38.7561 27.6958H32.4645L33.4662 19.7377Z" fill="#E6E8E9"/>
<path d="M42.73 19.7259H46.6914L51.5803 27.6919H45.0719L42.73 19.7259Z" fill="#E6E8E9"/>
<path d="M13.6451 27.702H19.9033V29.8998C19.9033 31.628 18.5023 33.0289 16.7742 33.0289V33.0289C15.046 33.0289 13.6451 31.628 13.6451 29.8998V27.702Z" fill="#E2574C"/>
<path d="M19.8992 27.7458H26.1574V29.9436C26.1574 31.6718 24.7565 33.0727 23.0283 33.0727V33.0727C21.3002 33.0727 19.8992 31.6718 19.8992 29.9436V27.7458Z" fill="#E6E8E9"/>
<path d="M26.1508 27.6793H32.409V29.8771C32.409 31.6052 31.008 33.0062 29.2799 33.0062V33.0062C27.5517 33.0062 26.1508 31.6052 26.1508 29.8771V27.6793Z" fill="#E2574C"/>
<path d="M32.4812 27.7458H38.7394V29.9436C38.7394 31.6718 37.3385 33.0727 35.6103 33.0727V33.0727C33.8821 33.0727 32.4812 31.6718 32.4812 29.9436V27.7458Z" fill="#E6E8E9"/>
<path d="M38.7394 27.6793H44.9977V29.8771C44.9977 31.6052 43.5967 33.0062 41.8685 33.0062V33.0062C40.1404 33.0062 38.7394 31.6052 38.7394 29.8771V27.6793Z" fill="#E2574C"/>
<path d="M45.0916 27.6959H51.4894V29.8238C51.4894 31.5905 50.0572 33.0227 48.2905 33.0227V33.0227C46.5238 33.0227 45.0916 31.5905 45.0916 29.8238V27.6959Z" fill="#E6E8E9"/>
<path d="M51.5803 27.6793H57.6719V29.9604C57.6719 31.6425 56.3083 33.0062 54.6261 33.0062V33.0062C52.944 33.0062 51.5803 31.6425 51.5803 29.9604V27.6793Z" fill="#E2574C"/>
<path d="M24.6856 12.3766H46.5431C48.4761 12.3766 50.0431 13.9436 50.0431 15.8766V19.2259H21.1856V15.8766C21.1856 13.9436 22.7526 12.3766 24.6856 12.3766Z" fill="#EAC35D" stroke="#F7DDA4"/>
<defs>
<linearGradient id="paint0_linear_152_889" x1="35.691" y1="0.782257" x2="35.691" y2="70.7823" gradientUnits="userSpaceOnUse">
<stop stop-color="#E2574C"/>
<stop offset="1" stop-color="#B7B7B7"/>
</linearGradient>
</defs>
</svg>
