<svg width="71" height="71" viewBox="0 0 71 71" fill="none" xmlns="http://www.w3.org/2000/svg">
<path d="M32.9526 1.62415C34.4996 0.730981 36.4056 0.730983 37.9526 1.62415L63.2635 16.2374C64.8105 17.1306 65.7635 18.7812 65.7635 20.5675V49.794C65.7635 51.5804 64.8105 53.231 63.2635 54.1241L37.9526 68.7374C36.4056 69.6306 34.4996 69.6306 32.9526 68.7374L7.6417 54.1241C6.09469 53.231 5.1417 51.5803 5.1417 49.794V20.5675C5.1417 18.7812 6.0947 17.1306 7.6417 16.2374L32.9526 1.62415Z" fill="#8ED9D4" fill-opacity="0.59"/>
<g filter="url(#filter0_d_161_109)">
<rect x="16.6355" y="27.0934" width="37.7924" height="26.5535" fill="#EECE7B"/>
<path d="M14.2232 53.0758C14.2232 52.5235 14.6709 52.0758 15.2232 52.0758H55.605C56.1573 52.0758 56.605 52.5235 56.605 53.0758V53.6469H14.2232V53.0758Z" fill="#60BCAC"/>
<rect x="18.9681" y="33.2134" width="12.6724" height="18.8625" fill="#91D8F0"/>
<path d="M18.9171 33.2538L19.7525 33.2538L19.6984 51.2923L18.9171 52.0852V33.2538Z" fill="#E5766D"/>
<path d="M18.9172 34.0892L18.9171 33.2538H31.4856L30.602 34.0892H18.9172Z" fill="#E5766D"/>
<rect x="23.7471" y="34.8528" width="1.03558" height="4.35617" transform="rotate(45 23.7471 34.8528)" fill="#A7E0F3"/>
<rect x="29.8523" y="39.5643" width="1.03558" height="14.413" transform="rotate(45 29.8523 39.5643)" fill="#A7E0F3"/>
<rect x="30.6328" y="40.9309" width="1.03558" height="14.66" transform="rotate(45 30.6328 40.9309)" fill="#A7E0F3"/>
<rect x="30.3305" y="44.9463" width="1.03558" height="9.04559" transform="rotate(45 30.3305 44.9463)" fill="#A7E0F3"/>
<rect x="30.7523" y="46.7275" width="1.03558" height="6.54351" transform="rotate(45 30.7523 46.7275)" fill="#A7E0F3"/>
<rect x="30.7038" y="42.6749" width="1.03558" height="12.2339" transform="rotate(45 30.7038 42.6749)" fill="#A7E0F3"/>
<rect x="26.0538" y="34.8284" width="1.03558" height="8.89287" transform="rotate(45 26.0538 34.8284)" fill="#A7E0F3"/>
<rect x="27.5258" y="34.822" width="1.03558" height="9.93758" transform="rotate(45 27.5258 34.822)" fill="#A7E0F3"/>
<rect x="29.5705" y="34.8854" width="1.03558" height="9.93758" transform="rotate(45 29.5705 34.8854)" fill="#A7E0F3"/>
<rect x="29.9537" y="37.2198" width="1.03558" height="14.5506" transform="rotate(45 29.9537 37.2198)" fill="#91D8F0"/>
<path d="M20.4989 41.8819H29.9009C30.3345 41.8819 30.686 42.2334 30.686 42.667V42.667C30.686 43.1006 30.3345 43.4521 29.9009 43.4521H20.4989V41.8819Z" fill="#E2574C"/>
<rect x="20.4989" y="43.4521" width="9.39763" height="0.794601" fill="#6FB3CA"/>
<rect x="20.4989" y="34.8284" width="9.39763" height="0.794601" fill="#6FB3CA"/>
<path d="M19.6649 34.0892L20.5002 34.0892V52.0851H19.6649V34.0892Z" fill="#CB4E44"/>
<path d="M30.6033 34.0859L31.4778 33.2625V52.0852H30.686L30.6033 34.0859Z" fill="#CB4E44"/>
<path d="M29.79 34.0892H30.676V52.0578H29.8842L29.79 34.0892Z" fill="#CB4E44"/>
<circle cx="29.6821" cy="42.667" r="1.00384" fill="white"/>
<path d="M31.4856 51.2923L31.4856 52.0852H18.9171L19.6945 51.2923H31.4856Z" fill="#CB4E44"/>
<rect x="19.6898" y="50.504" width="10.9862" height="0.794601" fill="#E2574C"/>
<rect x="33.8367" y="33.2625" width="18.0516" height="12.7284" fill="#8FD4EB"/>
<rect x="38.9379" y="34.137" width="1.03558" height="7.17512" transform="rotate(45 38.9379 34.137)" fill="#91D8F0"/>
<rect x="42.6042" y="33.1957" width="1.03558" height="11.0692" transform="rotate(45 42.6042 33.1957)" fill="#A4DCEE"/>
<rect x="45.1286" y="33.3286" width="1.41015" height="15.377" transform="rotate(45 45.1286 33.3286)" fill="#A4DCEE"/>
<rect x="47.2585" y="33.6036" width="1.36328" height="16.7362" transform="rotate(45 47.2585 33.6036)" fill="#A4DCEE"/>
<rect x="49.3383" y="33.9623" width="1.03558" height="15.6891" transform="rotate(45 49.3383 33.9623)" fill="#91D8F0"/>
<rect x="49.9043" y="35.9356" width="1.03558" height="14.4733" transform="rotate(45 49.9043 35.9356)" fill="#91D8F0"/>
<rect x="50.3047" y="38.009" width="1.03558" height="8.85553" transform="rotate(45 50.3047 38.009)" fill="#91D8F0"/>
<rect x="50.3034" y="41.5411" width="1.03558" height="5.0051" transform="rotate(45 50.3034 41.5411)" fill="#91D8F0"/>
<rect x="20.4989" y="50.504" width="15.6755" height="0.794601" transform="rotate(-90 20.4989 50.504)" fill="#6FB3CA"/>
<rect x="33.1384" y="45.8136" width="19.5381" height="1.55275" fill="#E0746B"/>
<rect x="34.6056" y="34.0978" width="0.792286" height="11.7158" fill="#E2574C"/>
<rect x="33.8227" y="34.0978" width="0.792286" height="11.6907" fill="#E5766D"/>
<rect x="35.3979" y="45.0263" width="16.4431" height="0.78731" fill="#CB4E44"/>
<rect x="35.3979" y="34.0978" width="14.9068" height="0.742094" fill="#C15047"/>
<rect x="51.037" y="33.2625" width="0.88619" height="12.5511" fill="#CB4E44"/>
<rect x="50.1935" y="33.2625" width="0.88619" height="12.5511" fill="#E2574C"/>
<path d="M33.8227 34.0978L33.8227 33.2625H51.9232L50.9782 34.0978H33.8227Z" fill="#E5766D"/>
<path d="M20.5346 19.1362L24.3683 19.1364L19.6801 27.1006H13.4066L20.5346 19.1362Z" fill="#E0746B"/>
<path d="M46.4537 19.1299H50.3899L57.4986 27.0778H51.3356L46.4537 19.1299Z" fill="#E0746B"/>
<path d="M24.3647 19.1364H28.3784L25.9975 27.1214H19.6713L24.3647 19.1364Z" fill="#E6E8E9"/>
<path d="M28.3392 19.1364L33.2794 19.1365L32.2934 27.0967L26.0037 27.1218L28.3392 19.1364Z" fill="#E0746B"/>
<path d="M38.4182 19.1244H42.4648L44.8531 27.0943H38.5713L38.4182 19.1244Z" fill="#E0746B"/>
<path d="M33.2278 19.1362H38.3491L38.5177 27.0943H32.2261L33.2278 19.1362Z" fill="#E6E8E9"/>
<path d="M42.4916 19.1244H46.453L51.3419 27.0904H44.8335L42.4916 19.1244Z" fill="#E6E8E9"/>
<path d="M13.4066 27.1006H19.6649V29.2983C19.6649 31.0265 18.2639 32.4274 16.5358 32.4274V32.4274C14.8076 32.4274 13.4066 31.0265 13.4066 29.2983V27.1006Z" fill="#E2574C"/>
<path d="M19.6608 27.1444H25.919V29.3421C25.919 31.0703 24.5181 32.4712 22.7899 32.4712V32.4712C21.0618 32.4712 19.6608 31.0703 19.6608 29.3421V27.1444Z" fill="#E6E8E9"/>
<path d="M25.9124 27.0778H32.1706V29.2756C32.1706 31.0037 30.7697 32.4047 29.0415 32.4047V32.4047C27.3134 32.4047 25.9124 31.0037 25.9124 29.2756V27.0778Z" fill="#E2574C"/>
<path d="M32.2428 27.1444H38.501V29.3421C38.501 31.0703 37.1001 32.4712 35.3719 32.4712V32.4712C33.6438 32.4712 32.2428 31.0703 32.2428 29.3421V27.1444Z" fill="#E6E8E9"/>
<path d="M38.501 27.0778H44.7592V29.2756C44.7592 31.0037 43.3583 32.4047 41.6301 32.4047V32.4047C39.902 32.4047 38.501 31.0037 38.501 29.2756V27.0778Z" fill="#E2574C"/>
<path d="M44.8531 27.0944H51.251V29.2223C51.251 30.989 49.8188 32.4212 48.052 32.4212V32.4212C46.2853 32.4212 44.8531 30.989 44.8531 29.2223V27.0944Z" fill="#E6E8E9"/>
<path d="M51.3419 27.0778H57.4335V29.3589C57.4335 31.041 56.0698 32.4047 54.3877 32.4047V32.4047C52.7055 32.4047 51.3419 31.041 51.3419 29.3589V27.0778Z" fill="#E2574C"/>
<path d="M24.4472 11.7751H46.3047C48.2377 11.7751 49.8047 13.3421 49.8047 15.2751V18.6244H20.9472V15.2751C20.9472 13.3421 22.5142 11.7751 24.4472 11.7751Z" fill="#EAC35D" stroke="#F7DDA4"/>
</g>
<defs>
<filter id="filter0_d_161_109" x="9.40665" y="11.2751" width="52.0919" height="50.3718" filterUnits="userSpaceOnUse" color-interpolation-filters="sRGB">
<feFlood flood-opacity="0" result="BackgroundImageFix"/>
<feColorMatrix in="SourceAlpha" type="matrix" values="0 0 0 0 0 0 0 0 0 0 0 0 0 0 0 0 0 0 127 0" result="hardAlpha"/>
<feOffset dy="4"/>
<feGaussianBlur stdDeviation="2"/>
<feComposite in2="hardAlpha" operator="out"/>
<feColorMatrix type="matrix" values="0 0 0 0 0 0 0 0 0 0 0 0 0 0 0 0 0 0 0.4 0"/>
<feBlend mode="normal" in2="BackgroundImageFix" result="effect1_dropShadow_161_109"/>
<feBlend mode="normal" in="SourceGraphic" in2="effect1_dropShadow_161_109" result="shape"/>
</filter>
</defs>
</svg>
