<svg width="71" height="76" viewBox="0 0 71 76" fill="none" xmlns="http://www.w3.org/2000/svg">
<path d="M32.9526 2.13271C34.4996 1.23954 36.4056 1.23954 37.9526 2.13271L63.2635 16.746C64.8105 17.6391 65.7635 19.2898 65.7635 21.0761V50.3026C65.7635 52.0889 64.8105 53.7395 63.2635 54.6327L37.9526 69.246C36.4056 70.1391 34.4996 70.1391 32.9526 69.246L7.6417 54.6327C6.09469 53.7395 5.1417 52.0889 5.1417 50.3026V21.0761C5.1417 19.2898 6.0947 17.6391 7.6417 16.746L32.9526 2.13271Z" fill="#C29197"/>
<g filter="url(#filter0_d_161_198)">
<rect x="27.7585" y="6.17841" width="23.517" height="44.0196" rx="1.5" fill="#1C3B5C" stroke="#1C3B5C"/>
<ellipse cx="36.7602" cy="9.0379" rx="0.7" ry="0.685495" fill="#8E8E93"/>
<rect x="38.1491" y="8.57768" width="4.82474" height="0.959693" rx="0.479846" fill="#8E8E93"/>
<rect x="28.4248" y="12.0701" width="22.2014" height="32.4308" fill="#FAFAFA"/>
<path d="M40.3572 25.4249C40.3572 24.8726 40.8049 24.4249 41.3572 24.4249H48.5226C49.0748 24.4249 49.5226 24.8726 49.5226 25.4249V32.4003C49.5226 32.9526 49.0748 33.4003 48.5226 33.4003H41.3572C40.8049 33.4003 40.3572 32.9526 40.3572 32.4003V25.4249Z" fill="#FEC32E"/>
<path d="M30.2719 14.8129C30.2719 14.2606 30.7196 13.8129 31.2719 13.8129H38.4372C38.9895 13.8129 39.4372 14.2606 39.4372 14.8129V21.7884C39.4372 22.3406 38.9895 22.7884 38.4372 22.7884H31.2719C30.7196 22.7884 30.2719 22.3406 30.2719 21.7884V14.8129Z" fill="#72CF7B"/>
<rect x="31.8988" y="15.6983" width="5.93846" height="0.987344" fill="white"/>
<rect x="31.8988" y="17.8496" width="5.93846" height="0.987344" fill="white"/>
<rect x="31.8988" y="20.0009" width="3.5816" height="0.987344" fill="white"/>
<ellipse cx="39.4524" cy="47.202" rx="1.75" ry="1.71374" fill="#D9D9D9"/>
<path d="M40.3572 14.8129C40.3572 14.2606 40.8049 13.8129 41.3572 13.8129H48.5226C49.0748 13.8129 49.5226 14.2606 49.5226 14.8129V21.7884C49.5226 22.3406 49.0748 22.7884 48.5226 22.7884H41.3572C40.8049 22.7884 40.3572 22.3406 40.3572 21.7884V14.8129Z" fill="#53B4ED"/>
<path d="M44.9418 19.2579C45.77 19.2579 46.4826 18.5259 46.4826 17.5726C46.4826 16.6311 45.766 15.9334 44.9418 15.9334C44.1175 15.9334 43.4011 16.6464 43.4011 17.5804C43.4011 18.5259 44.1176 19.2579 44.9418 19.2579ZM42.5228 22.7883H47.3609C47.9656 22.7883 48.1813 22.6169 48.1813 22.2813C48.1813 21.2976 46.9372 19.9405 44.9418 19.9405C42.9427 19.9405 41.6985 21.2976 41.6985 22.2813C41.6985 22.6169 41.9143 22.7883 42.5228 22.7883Z" fill="#FAFAFA"/>
<path d="M30.287 25.4249C30.287 24.8726 30.7347 24.4249 31.287 24.4249H38.4524C39.0047 24.4249 39.4524 24.8726 39.4524 25.4249V32.4003C39.4524 32.9526 39.0047 33.4003 38.4524 33.4003H31.287C30.7347 33.4003 30.287 32.9526 30.287 32.4003V25.4249Z" fill="#FF576B"/>
<path d="M32.7694 26.2949V31.5302L36.9698 28.9126L32.7694 26.2949Z" fill="white"/>
<g clip-path="url(#clip0_161_198)">
<path d="M47.532 30.4848C47.5173 30.5346 47.4858 30.5758 47.4443 30.5993C47.4028 30.6228 47.3547 30.6268 47.3106 30.6103C47.2665 30.5938 47.23 30.5582 47.2092 30.5113C47.1883 30.4645 47.1848 30.4102 47.1995 30.3604C47.3248 29.9354 47.3899 29.4772 47.3899 29.0055C47.3899 27.139 46.3497 25.8801 44.9399 25.8801C43.5301 25.8801 42.4899 27.139 42.4899 29.0055C42.4888 29.4657 42.553 29.9232 42.6803 30.3604C42.6949 30.4102 42.6914 30.4645 42.6705 30.5113C42.6497 30.5582 42.6132 30.5938 42.5691 30.6103C42.525 30.6268 42.4769 30.6228 42.4354 30.5993C42.3939 30.5758 42.3624 30.5346 42.3478 30.4848C42.2088 30.0074 42.1386 29.508 42.1399 29.0055C42.1399 26.9269 43.3309 25.4851 44.9399 25.4851C46.5488 25.4851 47.7399 26.9269 47.7399 29.0055C47.7411 29.508 47.6709 30.0074 47.532 30.4848Z" fill="white"/>
<path d="M43.5318 31.3235C43.2544 31.3174 42.9904 31.1878 42.7975 30.9627C42.6046 30.7377 42.4984 30.4357 42.5021 30.1226V30.1139C42.504 29.9589 42.533 29.8058 42.5874 29.6635C42.6419 29.5211 42.7208 29.3924 42.8195 29.2845C42.9182 29.1767 43.0348 29.092 43.1627 29.0352C43.2905 28.9785 43.427 28.9508 43.5644 28.9537C43.6568 28.9558 43.7447 28.9991 43.8089 29.074C43.8732 29.149 43.9086 29.2496 43.9074 29.3539L43.8885 30.934C43.8878 30.986 43.8781 31.0374 43.8598 31.0852C43.8415 31.133 43.815 31.1762 43.7819 31.2124C43.7487 31.2486 43.7096 31.277 43.6667 31.2961C43.6237 31.3152 43.5779 31.3245 43.5318 31.3235ZM46.371 28.9399C46.6484 28.9459 46.9124 29.0756 47.1053 29.3006C47.2983 29.5256 47.4045 29.8277 47.4007 30.1408V30.1495C47.3989 30.304 47.3701 30.4565 47.316 30.5985C47.262 30.7404 47.1836 30.8689 47.0856 30.9767C46.9875 31.0845 46.8715 31.1694 46.7444 31.2266C46.6172 31.2838 46.4813 31.3121 46.3444 31.31H46.3388C46.2463 31.3081 46.1582 31.2648 46.0939 31.1897C46.0295 31.1147 45.9941 31.0139 45.9955 30.9095L46.0144 29.3294C46.015 29.2774 46.0247 29.226 46.043 29.1782C46.0613 29.1304 46.0878 29.0872 46.1209 29.051C46.1541 29.0148 46.1932 28.9864 46.2362 28.9673C46.2791 28.9482 46.3249 28.9389 46.371 28.9399Z" fill="white"/>
</g>
<path d="M33.8068 29.8495C29.2279 29.8848 28.6544 36.1898 28.9401 39.3379V57.0805C35.3405 54.1235 34.6181 42.0307 34.3476 39.3379C34.1313 37.1836 33.897 32.1147 33.8068 29.8495Z" fill="#FEC477"/>
<path d="M16.0491 55.3545L27.6087 59.5321L28.7162 57.6014C31.1721 55.7013 33.1278 48.9186 33.7987 45.7648V45.5351C34.7435 41.4583 34.1924 35.357 33.7987 32.8159L33.5804 30.0202H32.6177C29.7397 30.0202 29.0202 32.7563 29.0202 34.1244L28.7162 39.0392C27.9461 39.8094 26.7064 39.5628 26.1828 39.3432L25.7268 29.5135L27.3485 27.7786V20.3408L21.8253 24.9534C20.4877 25.3587 17.2482 31.5065 15.7957 34.5297C14.1744 36.3538 15.2891 44.2074 16.0491 47.9062V55.3545Z" fill="#FEC477"/>
<path d="M34.2251 46.3366C34.5024 43.623 34.1095 34.2263 33.8784 29.8672L32.6689 48.1392C33.052 49.5813 30.209 54.2121 28.7397 56.3473V57.6349C31.3994 56.3765 33.8784 49.7285 34.2251 46.3366Z" fill="#F7B360"/>
<path d="M30.726 59.8149L14.0266 54.0462L13.1618 56.0573L29.9154 61.9848L30.726 59.8149Z" fill="white"/>
<path d="M12.1529 57.2669L12.6217 55.5982L31.4765 62.0121L29.5098 67.2783L12.1529 57.2669Z" fill="#154E5E"/>
</g>
<defs>
<filter id="filter0_d_161_198" x="8.15291" y="5.67841" width="47.6226" height="69.5998" filterUnits="userSpaceOnUse" color-interpolation-filters="sRGB">
<feFlood flood-opacity="0" result="BackgroundImageFix"/>
<feColorMatrix in="SourceAlpha" type="matrix" values="0 0 0 0 0 0 0 0 0 0 0 0 0 0 0 0 0 0 127 0" result="hardAlpha"/>
<feOffset dy="4"/>
<feGaussianBlur stdDeviation="2"/>
<feComposite in2="hardAlpha" operator="out"/>
<feColorMatrix type="matrix" values="0 0 0 0 0 0 0 0 0 0 0 0 0 0 0 0 0 0 0.4 0"/>
<feBlend mode="normal" in2="BackgroundImageFix" result="effect1_dropShadow_161_198"/>
<feBlend mode="normal" in="SourceGraphic" in2="effect1_dropShadow_161_198" result="shape"/>
</filter>
<clipPath id="clip0_161_198">
<rect width="7" height="6.85495" fill="white" transform="translate(41.4399 25.4851)"/>
</clipPath>
</defs>
</svg>
