<svg width="71" height="71" viewBox="0 0 71 71" fill="none" xmlns="http://www.w3.org/2000/svg">
<path d="M32.733 2.22563C34.28 1.33247 36.186 1.33247 37.733 2.22563L63.0439 16.8389C64.5909 17.732 65.5439 19.3827 65.5439 21.169V50.3955C65.5439 52.1818 64.5909 53.8325 63.0439 54.7256L37.733 69.3389C36.186 70.232 34.28 70.232 32.733 69.3389L7.42208 54.7256C5.87507 53.8325 4.92208 52.1818 4.92208 50.3955V21.169C4.92208 19.3827 5.87508 17.732 7.42208 16.8389L32.733 2.22563Z" fill="url(#paint0_linear_152_1073)"/>
<rect x="27.5389" y="6.27133" width="23.517" height="44.0196" rx="1.5" fill="#1C3B5C" stroke="#1C3B5C"/>
<ellipse cx="36.5406" cy="9.13082" rx="0.7" ry="0.685495" fill="#8E8E93"/>
<rect x="37.9294" y="8.67061" width="4.82474" height="0.959693" rx="0.479846" fill="#8E8E93"/>
<rect x="28.2052" y="12.163" width="22.2014" height="32.4308" fill="#FAFAFA"/>
<path d="M40.1376 25.5178C40.1376 24.9655 40.5853 24.5178 41.1376 24.5178H48.303C48.8553 24.5178 49.303 24.9655 49.303 25.5178V32.4932C49.303 33.0455 48.8553 33.4932 48.303 33.4932H41.1376C40.5853 33.4932 40.1376 33.0455 40.1376 32.4932V25.5178Z" fill="#FEC32E"/>
<path d="M30.0522 14.9059C30.0522 14.3536 30.5 13.9059 31.0522 13.9059H38.2176C38.7699 13.9059 39.2176 14.3536 39.2176 14.9059V21.8813C39.2176 22.4336 38.7699 22.8813 38.2176 22.8813H31.0522C30.5 22.8813 30.0522 22.4336 30.0522 21.8813V14.9059Z" fill="#72CF7B"/>
<rect x="31.6792" y="15.7912" width="5.93846" height="0.987344" fill="white"/>
<rect x="31.6792" y="17.9425" width="5.93846" height="0.987344" fill="white"/>
<rect x="31.6792" y="20.0938" width="3.5816" height="0.987344" fill="white"/>
<ellipse cx="39.2328" cy="47.295" rx="1.75" ry="1.71374" fill="#D9D9D9"/>
<path d="M40.1376 14.9059C40.1376 14.3536 40.5853 13.9059 41.1376 13.9059H48.303C48.8553 13.9059 49.303 14.3536 49.303 14.9059V21.8813C49.303 22.4336 48.8553 22.8813 48.303 22.8813H41.1376C40.5853 22.8813 40.1376 22.4336 40.1376 21.8813V14.9059Z" fill="#53B4ED"/>
<path d="M44.7223 19.3508C45.5504 19.3508 46.263 18.6188 46.263 17.6656C46.263 16.724 45.5465 16.0263 44.7223 16.0263C43.8979 16.0263 43.1815 16.7393 43.1815 17.6734C43.1815 18.6188 43.8981 19.3508 44.7223 19.3508ZM42.3032 22.8813H47.1413C47.7461 22.8813 47.9617 22.7098 47.9617 22.3742C47.9617 21.3906 46.7176 20.0334 44.7223 20.0334C42.7231 20.0334 41.4789 21.3906 41.4789 22.3742C41.4789 22.7098 41.6947 22.8813 42.3032 22.8813Z" fill="#FAFAFA"/>
<path d="M30.0674 25.5178C30.0674 24.9655 30.5152 24.5178 31.0674 24.5178H38.2328C38.7851 24.5178 39.2328 24.9655 39.2328 25.5178V32.4932C39.2328 33.0455 38.7851 33.4932 38.2328 33.4932H31.0674C30.5152 33.4932 30.0674 33.0455 30.0674 32.4932V25.5178Z" fill="#FF576B"/>
<path d="M32.5498 26.3879V31.6231L36.7503 29.0055L32.5498 26.3879Z" fill="white"/>
<g clip-path="url(#clip0_152_1073)">
<path d="M47.3123 30.5778C47.2977 30.6275 47.2662 30.6687 47.2247 30.6922C47.1832 30.7157 47.1351 30.7197 47.091 30.7032C47.0469 30.6867 47.0104 30.6511 46.9896 30.6042C46.9687 30.5574 46.9652 30.5031 46.9798 30.4533C47.1051 30.0283 47.1702 29.5701 47.1702 29.0984C47.1702 27.232 46.13 25.9731 44.7202 25.9731C43.3104 25.9731 42.2702 27.232 42.2702 29.0984C42.2691 29.5586 42.3334 30.0161 42.4606 30.4533C42.4753 30.5031 42.4718 30.5574 42.4509 30.6042C42.4301 30.6511 42.3936 30.6867 42.3495 30.7032C42.3054 30.7197 42.2573 30.7157 42.2158 30.6922C42.1743 30.6687 42.1428 30.6275 42.1281 30.5778C41.9892 30.1004 41.919 29.6009 41.9202 29.0984C41.9202 27.0198 43.1113 25.578 44.7202 25.578C46.3292 25.578 47.5202 27.0198 47.5202 29.0984C47.5214 29.6009 47.4513 30.1004 47.3123 30.5778Z" fill="white"/>
<path d="M43.3122 31.4164C43.0348 31.4104 42.7708 31.2807 42.5779 31.0557C42.3849 30.8307 42.2788 30.5286 42.2825 30.2155V30.2068C42.2844 30.0518 42.3134 29.8987 42.3678 29.7564C42.4223 29.6141 42.5012 29.4853 42.5999 29.3775C42.6986 29.2697 42.8152 29.1849 42.9431 29.1282C43.0709 29.0714 43.2074 29.0437 43.3448 29.0467C43.4372 29.0488 43.5251 29.092 43.5893 29.167C43.6536 29.2419 43.689 29.3425 43.6878 29.4468L43.6689 31.0269C43.6682 31.0789 43.6585 31.1303 43.6402 31.1781C43.6219 31.2259 43.5954 31.2691 43.5623 31.3053C43.5291 31.3415 43.49 31.37 43.4471 31.389C43.4041 31.4081 43.3583 31.4174 43.3122 31.4164ZM46.1514 29.0328C46.4288 29.0389 46.6928 29.1686 46.8857 29.3936C47.0787 29.6186 47.1849 29.9206 47.1811 30.2337V30.2424C47.1793 30.3969 47.1505 30.5494 47.0964 30.6914C47.0424 30.8333 46.964 30.9618 46.866 31.0696C46.7679 31.1774 46.6519 31.2623 46.5248 31.3195C46.3976 31.3767 46.2617 31.405 46.1248 31.403H46.1192C46.0267 31.401 45.9386 31.3577 45.8743 31.2827C45.8099 31.2076 45.7745 31.1068 45.7759 31.0024L45.7948 29.4223C45.7954 29.3703 45.8051 29.3189 45.8234 29.2711C45.8417 29.2233 45.8682 29.1801 45.9013 29.1439C45.9345 29.1077 45.9736 29.0793 46.0166 29.0602C46.0595 29.0412 46.1053 29.0319 46.1514 29.0328Z" fill="white"/>
</g>
<path d="M33.5872 29.9425C29.0082 29.9778 28.4348 36.2827 28.7205 39.4308V57.1735C35.1209 54.2164 34.3984 42.1236 34.128 39.4308C33.9117 37.2766 33.6773 32.2076 33.5872 29.9425Z" fill="#FEC477"/>
<path d="M15.8295 55.4474L27.3891 59.625L28.4967 57.6943C30.9525 55.7942 32.9083 49.0116 33.5792 45.8577V45.6281C34.524 41.5512 33.9728 35.4499 33.5792 32.9089L33.3608 30.1131H32.3981C29.5202 30.1131 28.8007 32.8492 28.8007 34.2173L28.4967 39.1321C27.7265 39.9023 26.4868 39.6557 25.9632 39.4362L25.5072 29.6065L27.1289 27.8715V20.4337L21.6057 25.0463C20.2681 25.4516 17.0287 31.5994 15.5762 34.6226C13.9548 36.4467 15.0695 44.3003 15.8295 47.9992V55.4474Z" fill="#FEC477"/>
<path d="M34.0055 46.4295C34.2828 43.7159 33.8899 34.3193 33.6589 29.9601L32.4493 48.2321C32.8324 49.6742 29.9894 54.3051 28.5201 56.4402V57.7279C31.1798 56.4695 33.6589 49.8215 34.0055 46.4295Z" fill="#F7B360"/>
<path d="M30.5065 59.9078L13.807 54.1391L12.9423 56.1502L29.6958 62.0777L30.5065 59.9078Z" fill="white"/>
<path d="M11.9333 57.3598L12.4021 55.6911L31.257 62.105L29.2902 67.3712L11.9333 57.3598Z" fill="#154E5E"/>
<defs>
<linearGradient id="paint0_linear_152_1073" x1="35.233" y1="0.782257" x2="35.233" y2="70.7823" gradientUnits="userSpaceOnUse">
<stop stop-color="#FF8E9C"/>
<stop offset="1" stop-color="#354453"/>
</linearGradient>
<clipPath id="clip0_152_1073">
<rect width="7" height="6.85495" fill="white" transform="translate(41.2203 25.578)"/>
</clipPath>
</defs>
</svg>
