<svg width="626" height="501" viewBox="0 0 626 501" fill="none" xmlns="http://www.w3.org/2000/svg">
<path opacity="0.1" d="M4.74897 224.748C-14.1077 150.623 40.4075 115.703 70.0222 107.509C94.1969 101.836 165.392 81.7915 256.775 46.9978C348.157 12.2041 429.023 4.76628 458.034 5.39659C650.953 -33.9354 638.744 180.626 608.525 292.823C547.603 530.328 322.048 516.587 216.885 480.028C68.9326 454.311 13.8141 299.126 4.74897 224.748Z" fill="url(#paint0_linear_1629_27762)"/>
<path d="M313.136 382.129C382.361 382.129 438.479 326.011 438.479 256.786C438.479 187.561 382.361 131.443 313.136 131.443C243.911 131.443 187.793 187.561 187.793 256.786C187.793 326.011 243.911 382.129 313.136 382.129Z" fill="#B1CEE6"/>
<path d="M231.977 347.032H185.504V386.22H231.977V347.032Z" fill="url(#paint1_linear_1629_27762)"/>
<path d="M234.81 333.665H181.626C178.499 333.665 175.965 336.199 175.965 339.326V345.597C175.965 348.723 178.499 351.258 181.626 351.258H234.81C237.936 351.258 240.471 348.723 240.471 345.597V339.326C240.471 336.199 237.936 333.665 234.81 333.665Z" fill="white"/>
<path d="M234.81 356.901H181.626C178.499 356.901 175.965 359.435 175.965 362.562V368.833C175.965 371.96 178.499 374.494 181.626 374.494H234.81C237.936 374.494 240.471 371.96 240.471 368.833V362.562C240.471 359.435 237.936 356.901 234.81 356.901Z" fill="white"/>
<path d="M234.81 380.137H181.626C178.499 380.137 175.965 382.672 175.965 385.798V392.07C175.965 395.196 178.499 397.731 181.626 397.731H234.81C237.936 397.731 240.471 395.196 240.471 392.07V385.798C240.471 382.672 237.936 380.137 234.81 380.137Z" fill="white"/>
<path d="M229.303 342.232C229.303 342.74 229.453 343.236 229.735 343.658C230.017 344.08 230.418 344.409 230.887 344.603C231.356 344.797 231.871 344.848 232.369 344.749C232.867 344.65 233.324 344.406 233.683 344.047C234.042 343.688 234.286 343.231 234.385 342.733C234.484 342.235 234.433 341.719 234.239 341.25C234.045 340.782 233.716 340.381 233.294 340.099C232.872 339.817 232.376 339.667 231.869 339.667C231.188 339.667 230.535 339.937 230.054 340.418C229.573 340.899 229.303 341.552 229.303 342.232Z" fill="url(#paint2_linear_1629_27762)"/>
<path d="M229.303 365.469C229.303 365.976 229.453 366.472 229.735 366.894C230.017 367.316 230.418 367.645 230.887 367.839C231.356 368.033 231.871 368.084 232.369 367.985C232.867 367.886 233.324 367.642 233.683 367.283C234.042 366.924 234.286 366.467 234.385 365.969C234.484 365.472 234.433 364.956 234.239 364.487C234.045 364.018 233.716 363.617 233.294 363.335C232.872 363.053 232.376 362.903 231.869 362.903C231.532 362.903 231.198 362.969 230.887 363.098C230.575 363.227 230.293 363.416 230.054 363.654C229.816 363.893 229.627 364.175 229.498 364.487C229.369 364.798 229.303 365.132 229.303 365.469Z" fill="url(#paint3_linear_1629_27762)"/>
<path d="M229.303 388.696C229.303 389.204 229.453 389.7 229.735 390.122C230.017 390.544 230.418 390.873 230.887 391.067C231.356 391.261 231.871 391.312 232.369 391.213C232.867 391.114 233.324 390.869 233.683 390.511C234.042 390.152 234.286 389.695 234.385 389.197C234.484 388.699 234.433 388.183 234.239 387.714C234.045 387.245 233.716 386.845 233.294 386.563C232.872 386.281 232.376 386.13 231.869 386.13C231.188 386.13 230.535 386.401 230.054 386.882C229.573 387.363 229.303 388.016 229.303 388.696Z" fill="url(#paint4_linear_1629_27762)"/>
<path d="M267.208 143.017C268.345 138.53 268.345 133.831 267.208 129.344H262.453C261.794 126.821 260.779 124.404 259.438 122.167L262.578 119.027C260.217 115.047 256.891 111.727 252.907 109.373L249.731 112.549C247.489 111.23 245.073 110.233 242.554 109.589L242.32 109.544V105.354C237.835 104.206 233.133 104.206 228.647 105.354V109.66C226.041 110.344 223.55 111.408 221.255 112.818L218.375 109.939C214.394 112.304 211.069 115.629 208.703 119.61L211.763 122.669C210.425 125.008 209.443 127.533 208.847 130.161H204.684C203.548 134.65 203.548 139.353 204.684 143.842H209.215C209.94 146.377 211.024 148.794 212.436 151.02L209.305 154.178C211.677 158.153 215 161.477 218.976 163.849L222.376 160.449C224.626 161.703 227.042 162.631 229.554 163.203V167.868C234.039 169.017 238.741 169.017 243.226 167.868V162.889C245.664 162.207 247.995 161.19 250.152 159.866L253.535 163.248C257.516 160.882 260.84 157.557 263.206 153.577L259.689 150.06C260.962 147.855 261.922 145.485 262.542 143.017H267.208ZM235.753 154.33C232.189 154.332 228.705 153.277 225.741 151.298C222.777 149.319 220.467 146.506 219.102 143.213C217.737 139.921 217.38 136.298 218.075 132.803C218.77 129.307 220.485 126.097 223.005 123.577C225.525 121.057 228.736 119.341 232.232 118.646C235.727 117.951 239.35 118.308 242.642 119.673C245.934 121.038 248.748 123.348 250.727 126.312C252.706 129.276 253.761 132.76 253.759 136.324C253.76 138.689 253.295 141.031 252.391 143.216C251.486 145.401 250.16 147.387 248.488 149.059C246.816 150.731 244.83 152.058 242.645 152.962C240.46 153.866 238.118 154.331 235.753 154.33Z" fill="white"/>
<path d="M254.283 154.83C264.492 144.62 264.492 128.067 254.283 117.858C244.073 107.648 227.52 107.648 217.31 117.858C207.101 128.067 207.101 144.62 217.31 154.83C227.52 165.04 244.073 165.04 254.283 154.83Z" stroke="url(#paint5_linear_1629_27762)" stroke-width="4" stroke-miterlimit="10"/>
<path d="M197.078 183.695C197.748 181.027 197.748 178.234 197.078 175.566H194.252C193.86 174.073 193.256 172.644 192.458 171.323L194.342 169.448C192.94 167.077 190.962 165.099 188.591 163.697L186.689 165.599C185.371 164.8 183.945 164.196 182.454 163.805H182.32V161.319C179.653 160.638 176.858 160.638 174.191 161.319V163.876C172.637 164.283 171.15 164.915 169.777 165.751L168.037 164.056C166.861 164.756 165.776 165.6 164.807 166.568C163.836 167.537 162.992 168.625 162.295 169.807L164.089 171.601C163.294 173.003 162.711 174.514 162.358 176.087H159.962C159.281 178.753 159.281 181.548 159.962 184.215H162.654C163.079 185.718 163.723 187.151 164.565 188.468L162.654 190.325C164.056 192.693 166.03 194.67 168.396 196.076L170.423 194.057C171.756 194.791 173.184 195.338 174.667 195.681V198.462C177.334 199.144 180.129 199.144 182.795 198.462V195.492C184.24 195.082 185.622 194.479 186.904 193.698L188.923 195.717C190.101 195.019 191.186 194.175 192.153 193.205C193.124 192.234 193.971 191.146 194.674 189.966L192.574 187.875C193.325 186.565 193.892 185.159 194.261 183.695H197.078ZM178.381 190.423C176.264 190.423 174.195 189.796 172.435 188.62C170.675 187.443 169.303 185.772 168.493 183.816C167.683 181.86 167.471 179.708 167.884 177.632C168.297 175.556 169.316 173.649 170.813 172.152C172.31 170.655 174.217 169.636 176.293 169.223C178.369 168.81 180.521 169.022 182.477 169.832C184.433 170.642 186.104 172.014 187.281 173.774C188.457 175.534 189.084 177.603 189.084 179.72C189.084 182.559 187.957 185.281 185.949 187.288C183.942 189.296 181.22 190.423 178.381 190.423Z" fill="white"/>
<path d="M186.683 188.079C191.206 183.556 191.206 176.222 186.683 171.699C182.16 167.176 174.826 167.176 170.303 171.699C165.78 176.222 165.78 183.556 170.303 188.079C174.826 192.602 182.16 192.602 186.683 188.079Z" stroke="url(#paint6_linear_1629_27762)" stroke-width="4" stroke-miterlimit="10"/>
<path d="M487.857 238.592H429.873V276.748H487.857V238.592Z" fill="white"/>
<path d="M441.052 262.353V260.706L454.316 253.95V256.586L444.141 261.488L444.224 261.323V261.735L444.141 261.571L454.316 266.473V269.109L441.052 262.353ZM466.924 247.689L460.127 272.94H457.902L464.699 247.689H466.924ZM454.316 297.353L441.052 304.109V301.473L451.226 296.571L451.144 296.735V296.323L451.226 296.488L441.052 291.586V288.95L454.316 295.706V297.353Z" fill="url(#paint7_linear_1629_27762)"/>
<path d="M344.149 116.38H297.254V148.167H344.149V116.38Z" fill="white"/>
<path d="M327.183 131.524C327.269 131.575 327.339 131.647 327.389 131.733C327.438 131.82 327.464 131.918 327.464 132.017C327.464 132.117 327.438 132.215 327.389 132.301C327.339 132.388 327.269 132.46 327.183 132.511L321.621 135.723L316.067 138.934C315.98 138.982 315.883 139.007 315.784 139.006C315.684 139.005 315.587 138.979 315.501 138.929C315.415 138.879 315.344 138.808 315.294 138.723C315.244 138.637 315.216 138.54 315.215 138.441V125.603C315.214 125.502 315.239 125.404 315.289 125.317C315.338 125.229 315.41 125.157 315.497 125.107C315.584 125.057 315.682 125.03 315.782 125.031C315.883 125.031 315.981 125.058 316.067 125.109L321.621 128.321L327.183 131.524Z" fill="url(#paint8_linear_1629_27762)"/>
<path d="M172.521 236.744C172.523 237.473 172.308 238.187 171.904 238.795C171.5 239.402 170.925 239.876 170.251 240.157C169.578 240.437 168.836 240.512 168.12 240.37C167.404 240.229 166.746 239.879 166.23 239.363C165.713 238.848 165.361 238.191 165.218 237.475C165.075 236.76 165.147 236.018 165.426 235.344C165.705 234.669 166.178 234.093 166.784 233.687C167.391 233.282 168.104 233.065 168.834 233.065C169.81 233.065 170.747 233.453 171.438 234.142C172.129 234.832 172.519 235.767 172.521 236.744Z" stroke="url(#paint9_linear_1629_27762)" stroke-width="2" stroke-miterlimit="10"/>
<path d="M264.839 395.73C264.839 396.458 264.623 397.169 264.219 397.774C263.815 398.379 263.241 398.85 262.568 399.129C261.896 399.407 261.157 399.48 260.443 399.338C259.73 399.196 259.074 398.846 258.56 398.331C258.045 397.817 257.695 397.161 257.553 396.448C257.411 395.734 257.484 394.995 257.762 394.322C258.041 393.65 258.512 393.076 259.117 392.672C259.722 392.267 260.433 392.052 261.161 392.052C262.136 392.052 263.072 392.439 263.762 393.129C264.452 393.819 264.839 394.755 264.839 395.73Z" stroke="url(#paint10_linear_1629_27762)" stroke-width="2" stroke-miterlimit="10"/>
<path d="M450.867 333.584H381.965V383.978H450.867V333.584Z" fill="white"/>
<path d="M409.883 354.505L419.465 365.083L429.046 375.66H409.883H390.729L400.31 365.083L409.883 354.505Z" fill="url(#paint11_linear_1629_27762)"/>
<path d="M426.858 358.417L434.663 367.039L442.469 375.661H426.858H411.238L419.053 367.039L426.858 358.417Z" fill="url(#paint12_linear_1629_27762)"/>
<path d="M430.717 348.225C430.717 349.017 430.951 349.79 431.391 350.448C431.831 351.107 432.456 351.619 433.187 351.922C433.918 352.225 434.723 352.304 435.499 352.15C436.275 351.996 436.988 351.614 437.548 351.055C438.107 350.495 438.488 349.782 438.643 349.006C438.797 348.23 438.718 347.425 438.415 346.694C438.112 345.963 437.599 345.338 436.941 344.898C436.283 344.459 435.51 344.224 434.718 344.224C433.657 344.224 432.639 344.646 431.889 345.396C431.138 346.146 430.717 347.164 430.717 348.225Z" fill="#BFDBF2"/>
<path d="M326.349 361.072L329.866 364.957L333.392 368.851H326.349H319.307L322.824 364.957L326.349 361.072Z" fill="url(#paint13_linear_1629_27762)"/>
<path d="M344.571 368.923H308.424C303.623 368.923 299.73 372.815 299.73 377.616V393.227C299.73 398.028 303.623 401.921 308.424 401.921H344.571C349.372 401.921 353.264 398.028 353.264 393.227V377.616C353.264 372.815 349.372 368.923 344.571 368.923Z" fill="white"/>
<path d="M317.907 385C317.909 385.519 317.757 386.026 317.47 386.458C317.183 386.89 316.775 387.227 316.296 387.427C315.818 387.627 315.291 387.68 314.782 387.58C314.273 387.48 313.806 387.231 313.438 386.865C313.071 386.499 312.821 386.032 312.719 385.524C312.617 385.015 312.669 384.488 312.867 384.009C313.065 383.53 313.4 383.12 313.831 382.832C314.262 382.544 314.769 382.39 315.288 382.39C315.981 382.39 316.646 382.664 317.137 383.154C317.628 383.643 317.905 384.307 317.907 385Z" fill="url(#paint14_linear_1629_27762)"/>
<path d="M329.148 385C329.149 385.519 328.997 386.027 328.71 386.459C328.423 386.891 328.014 387.229 327.535 387.428C327.056 387.627 326.528 387.68 326.019 387.579C325.51 387.478 325.042 387.229 324.676 386.862C324.309 386.495 324.059 386.027 323.958 385.518C323.857 385.009 323.91 384.482 324.109 384.003C324.309 383.524 324.646 383.115 325.078 382.827C325.51 382.54 326.018 382.388 326.537 382.39C327.229 382.39 327.893 382.665 328.383 383.154C328.873 383.644 329.148 384.308 329.148 385Z" fill="url(#paint15_linear_1629_27762)"/>
<path d="M340.4 385C340.401 385.519 340.249 386.026 339.962 386.458C339.676 386.89 339.267 387.227 338.789 387.427C338.31 387.627 337.783 387.68 337.274 387.58C336.766 387.48 336.298 387.231 335.931 386.865C335.563 386.499 335.313 386.032 335.211 385.524C335.109 385.015 335.161 384.488 335.359 384.009C335.557 383.53 335.892 383.12 336.323 382.832C336.754 382.544 337.261 382.39 337.78 382.39C338.473 382.39 339.138 382.664 339.629 383.154C340.12 383.643 340.397 384.307 340.4 385Z" fill="url(#paint16_linear_1629_27762)"/>
<path d="M443.527 183.452V193.671" stroke="url(#paint17_linear_1629_27762)" stroke-width="2" stroke-miterlimit="10"/>
<path d="M448.633 188.557H438.414" stroke="url(#paint18_linear_1629_27762)" stroke-width="2" stroke-miterlimit="10"/>
<path d="M174.8 278.614L152.55 300.864L149.419 303.995C148.846 304.568 148.167 305.022 147.419 305.332C146.67 305.642 145.869 305.801 145.059 305.801C144.249 305.801 143.447 305.642 142.699 305.332C141.951 305.022 141.271 304.568 140.699 303.995C140.126 303.423 139.672 302.743 139.362 301.995C139.052 301.247 138.893 300.445 138.893 299.635C138.893 298.825 139.052 298.023 139.362 297.275C139.672 296.527 140.126 295.847 140.699 295.275L166.079 269.894L174.8 278.614Z" fill="#EDF7FF"/>
<path d="M186.034 279.297C184.267 281.061 182.07 282.332 179.661 282.985C177.251 283.637 174.713 283.648 172.298 283.016C169.883 282.383 167.675 281.131 165.894 279.381C164.113 277.632 162.821 275.447 162.145 273.044C161.47 270.641 161.435 268.103 162.044 265.682C162.652 263.261 163.884 261.041 165.616 259.244C167.348 257.446 169.52 256.132 171.917 255.434C174.314 254.735 176.851 254.676 179.278 255.262L168.422 266.117L178.982 276.677L189.838 265.821C190.412 268.205 190.364 270.697 189.698 273.056C189.031 275.416 187.77 277.565 186.034 279.297Z" fill="white"/>
<path d="M158.27 277.711L143.838 292.143L152.561 300.866L166.993 286.434L158.27 277.711Z" fill="url(#paint19_linear_1629_27762)"/>
<path d="M353.164 313.165H269.127V339.245H353.164V313.165Z" fill="#EDF7FF"/>
<path d="M263.817 334.014H358.477C360.252 334.014 361.954 334.719 363.209 335.974C364.465 337.23 365.17 338.932 365.17 340.707V344.197H257.115V340.698C257.116 339.819 257.291 338.949 257.628 338.137C257.966 337.326 258.46 336.589 259.082 335.968C259.704 335.347 260.443 334.855 261.255 334.52C262.068 334.185 262.938 334.013 263.817 334.014Z" fill="white"/>
<path d="M414.576 307.135V193.922C414.576 186.554 408.603 180.581 401.235 180.581H221.049C213.681 180.581 207.708 186.554 207.708 193.922V307.135C207.708 314.503 213.681 320.476 221.049 320.476H401.235C408.603 320.476 414.576 314.503 414.576 307.135Z" fill="white"/>
<path d="M401.245 189.544H221.059C218.646 189.544 216.689 191.5 216.689 193.913V307.126C216.689 309.539 218.646 311.495 221.059 311.495H401.245C403.658 311.495 405.614 309.539 405.614 307.126V193.913C405.614 191.5 403.658 189.544 401.245 189.544Z" fill="#B8DFFF"/>
<path d="M405.614 193.913V210.304H216.689V193.913C216.689 192.754 217.15 191.643 217.969 190.824C218.789 190.004 219.9 189.544 221.059 189.544H401.245C402.404 189.544 403.515 190.004 404.335 190.824C405.154 191.643 405.614 192.754 405.614 193.913Z" fill="url(#paint20_linear_1629_27762)"/>
<path d="M392.613 199.215C392.613 199.79 392.784 200.352 393.103 200.83C393.423 201.308 393.877 201.681 394.408 201.901C394.939 202.121 395.523 202.179 396.087 202.066C396.651 201.954 397.169 201.677 397.576 201.271C397.982 200.864 398.259 200.346 398.371 199.783C398.483 199.219 398.426 198.634 398.206 198.103C397.986 197.572 397.613 197.118 397.135 196.798C396.657 196.479 396.095 196.309 395.52 196.309C394.749 196.309 394.01 196.615 393.465 197.16C392.92 197.705 392.613 198.444 392.613 199.215Z" fill="white"/>
<path d="M380.742 199.215C380.742 199.791 380.913 200.353 381.233 200.831C381.553 201.31 382.007 201.682 382.539 201.902C383.07 202.122 383.655 202.179 384.219 202.066C384.784 201.953 385.301 201.675 385.708 201.268C386.114 200.86 386.39 200.341 386.501 199.777C386.612 199.213 386.553 198.628 386.332 198.097C386.111 197.566 385.737 197.112 385.257 196.794C384.778 196.476 384.215 196.307 383.64 196.309C383.259 196.309 382.881 196.384 382.529 196.53C382.177 196.676 381.857 196.891 381.588 197.161C381.319 197.431 381.105 197.751 380.96 198.104C380.815 198.456 380.741 198.834 380.742 199.215Z" fill="white"/>
<path d="M368.299 199.215C368.299 199.79 368.469 200.352 368.789 200.83C369.108 201.308 369.562 201.681 370.093 201.901C370.624 202.121 371.209 202.179 371.773 202.066C372.337 201.954 372.855 201.677 373.261 201.271C373.668 200.864 373.944 200.346 374.057 199.783C374.169 199.219 374.111 198.634 373.891 198.103C373.671 197.572 373.299 197.118 372.821 196.798C372.343 196.479 371.781 196.309 371.206 196.309C370.435 196.309 369.695 196.615 369.15 197.16C368.605 197.705 368.299 198.444 368.299 199.215Z" fill="white"/>
<path d="M241.198 260.745V234.563H244.368V257.932H256.539V260.745H241.198ZM264.174 260.745H260.85L270.464 234.563H273.737L283.35 260.745H280.026L272.202 238.705H271.998L264.174 260.745ZM265.401 250.517H278.799V253.33H265.401V250.517ZM287.428 260.745V234.563H296.275C298.32 234.563 299.999 234.912 301.312 235.611C302.624 236.301 303.596 237.252 304.227 238.462C304.857 239.672 305.173 241.049 305.173 242.591C305.173 244.134 304.857 245.502 304.227 246.695C303.596 247.888 302.629 248.826 301.325 249.507C300.021 250.181 298.354 250.517 296.326 250.517H289.167V247.654H296.224C297.621 247.654 298.746 247.449 299.599 247.04C300.46 246.631 301.082 246.051 301.465 245.301C301.857 244.543 302.053 243.64 302.053 242.591C302.053 241.543 301.857 240.627 301.465 239.843C301.073 239.059 300.447 238.453 299.586 238.027C298.725 237.593 297.587 237.375 296.173 237.375H290.599V260.745H287.428ZM299.752 248.983L306.195 260.745H302.513L296.173 248.983H299.752ZM311.529 260.745H308.206L317.819 234.563H321.092L330.706 260.745H327.382L319.558 238.705H319.353L311.529 260.745ZM312.757 250.517H326.154V253.33H312.757V250.517ZM242.272 278.563L250.044 300.603H250.351L258.124 278.563H261.448L251.834 304.745H248.561L238.948 278.563H242.272ZM265.526 304.745V278.563H281.327V281.375H268.696V290.222H280.509V293.034H268.696V301.932H281.532V304.745H265.526ZM287.042 304.745V278.563H290.212V301.932H302.382V304.745H287.042Z" fill="url(#paint21_linear_1629_27762)"/>
<path d="M389.106 277.072H231.824C231.511 277.072 231.2 277.01 230.911 276.89C230.621 276.77 230.358 276.594 230.136 276.373C229.915 276.151 229.739 275.888 229.619 275.599C229.499 275.309 229.437 274.999 229.438 274.685C229.437 274.372 229.499 274.062 229.619 273.772C229.739 273.482 229.915 273.219 230.136 272.998C230.358 272.776 230.621 272.6 230.911 272.48C231.2 272.361 231.511 272.299 231.824 272.299H389.106C389.419 272.299 389.73 272.361 390.019 272.48C390.309 272.6 390.572 272.776 390.793 272.998C391.015 273.219 391.191 273.482 391.311 273.772C391.431 274.062 391.492 274.372 391.492 274.685C391.492 274.999 391.431 275.309 391.311 275.599C391.191 275.888 391.015 276.151 390.793 276.373C390.572 276.594 390.309 276.77 390.019 276.89C389.73 277.01 389.419 277.072 389.106 277.072Z" fill="white"/>
<path d="M389.106 289.013H231.824C231.193 289.013 230.587 288.762 230.14 288.317C229.692 287.871 229.44 287.266 229.438 286.635C229.438 286.002 229.689 285.395 230.136 284.948C230.584 284.5 231.191 284.249 231.824 284.249H389.106C389.419 284.249 389.73 284.31 390.019 284.43C390.309 284.55 390.572 284.726 390.793 284.948C391.015 285.169 391.191 285.432 391.311 285.722C391.431 286.011 391.492 286.322 391.492 286.635C391.49 287.266 391.237 287.871 390.79 288.317C390.343 288.762 389.737 289.013 389.106 289.013Z" fill="white"/>
<path d="M265.692 300.963H231.824C231.191 300.963 230.584 300.712 230.136 300.264C229.689 299.817 229.438 299.21 229.438 298.577C229.438 297.944 229.689 297.337 230.136 296.889C230.584 296.442 231.191 296.19 231.824 296.19H265.692C266.325 296.19 266.932 296.442 267.379 296.889C267.827 297.337 268.078 297.944 268.078 298.577C268.078 299.21 267.827 299.817 267.379 300.264C266.932 300.712 266.325 300.963 265.692 300.963Z" fill="white"/>
<path d="M327.022 300.963H293.154C292.522 300.961 291.916 300.709 291.469 300.262C291.022 299.815 290.77 299.209 290.768 298.577C290.77 297.945 291.022 297.339 291.469 296.892C291.916 296.445 292.522 296.193 293.154 296.19H327.022C327.655 296.19 328.262 296.442 328.709 296.889C329.157 297.337 329.408 297.944 329.408 298.577C329.408 298.89 329.347 299.201 329.227 299.49C329.107 299.78 328.931 300.043 328.709 300.264C328.488 300.486 328.225 300.662 327.935 300.782C327.646 300.902 327.335 300.963 327.022 300.963Z" fill="white"/>
<path d="M388.351 300.963H354.492C354.179 300.963 353.868 300.902 353.579 300.782C353.289 300.662 353.026 300.486 352.804 300.264C352.583 300.043 352.407 299.78 352.287 299.49C352.167 299.201 352.105 298.89 352.105 298.577C352.105 298.263 352.167 297.953 352.287 297.664C352.407 297.374 352.583 297.111 352.804 296.889C353.026 296.668 353.289 296.492 353.579 296.372C353.868 296.252 354.179 296.19 354.492 296.19H388.351C388.664 296.19 388.975 296.252 389.264 296.372C389.554 296.492 389.817 296.668 390.038 296.889C390.26 297.111 390.436 297.374 390.556 297.664C390.676 297.953 390.737 298.263 390.737 298.577C390.737 298.89 390.676 299.201 390.556 299.49C390.436 299.78 390.26 300.043 390.038 300.264C389.817 300.486 389.554 300.662 389.264 300.782C388.975 300.902 388.664 300.963 388.351 300.963Z" fill="white"/>
<path d="M441.393 146.462C441.393 144.039 440.431 141.715 438.719 140.001C437.006 138.287 434.683 137.322 432.26 137.32C431.955 137.32 431.668 137.32 431.363 137.32C431.633 135.922 431.771 134.501 431.776 133.076C431.784 127.517 429.731 122.152 426.015 118.018C422.298 113.884 417.18 111.274 411.651 110.693C406.123 110.111 400.574 111.6 396.079 114.871C391.584 118.142 388.46 122.963 387.312 128.402C385.413 127.722 383.388 127.462 381.378 127.639C379.368 127.816 377.42 128.425 375.668 129.427C373.916 130.428 372.402 131.796 371.229 133.438C370.056 135.08 369.252 136.957 368.874 138.939C368.495 140.921 368.549 142.961 369.034 144.92C369.519 146.879 370.422 148.709 371.681 150.286C372.94 151.863 374.526 153.148 376.329 154.054C378.132 154.959 380.11 155.464 382.127 155.532H432.368C434.761 155.504 437.047 154.538 438.735 152.842C440.422 151.146 441.377 148.855 441.393 146.462Z" fill="white"/>
<path d="M398.607 131.426C398.646 131.34 398.71 131.267 398.789 131.216C398.869 131.165 398.961 131.138 399.056 131.138C399.15 131.138 399.243 131.165 399.322 131.216C399.402 131.267 399.465 131.34 399.504 131.426L402.267 136.208L405.031 140.99C405.073 141.065 405.095 141.15 405.094 141.236C405.093 141.322 405.07 141.407 405.027 141.481C404.983 141.556 404.921 141.617 404.846 141.66C404.771 141.703 404.686 141.726 404.6 141.726H393.529C393.442 141.727 393.357 141.705 393.282 141.662C393.207 141.619 393.144 141.557 393.101 141.482C393.058 141.407 393.036 141.322 393.037 141.235C393.038 141.149 393.062 141.064 393.107 140.99L395.871 136.208L398.607 131.426Z" fill="url(#paint22_linear_1629_27762)"/>
<path d="M401.315 140.029H397.09V162.485H401.315V140.029Z" fill="url(#paint23_linear_1629_27762)"/>
<path d="M417.778 131.184H413.553V153.64H417.778V131.184Z" fill="url(#paint24_linear_1629_27762)"/>
<path d="M415.089 162.235C415.132 162.309 415.195 162.371 415.269 162.414C415.344 162.457 415.429 162.479 415.515 162.479C415.601 162.479 415.686 162.457 415.761 162.414C415.836 162.371 415.898 162.309 415.941 162.235L418.705 157.453L421.459 152.671C421.501 152.596 421.523 152.512 421.522 152.427C421.522 152.341 421.5 152.257 421.457 152.183C421.415 152.109 421.354 152.047 421.28 152.004C421.206 151.96 421.123 151.936 421.037 151.935H409.993C409.908 151.936 409.824 151.96 409.75 152.004C409.677 152.047 409.616 152.109 409.573 152.183C409.531 152.257 409.508 152.341 409.508 152.427C409.508 152.512 409.529 152.596 409.571 152.671L412.326 157.453L415.089 162.235Z" fill="url(#paint25_linear_1629_27762)"/>
<defs>
<linearGradient id="paint0_linear_1629_27762" x1="313.373" y1="0.645996" x2="313.373" y2="500.646" gradientUnits="userSpaceOnUse">
<stop stop-color="#0160E7"/>
<stop offset="1" stop-color="#013681"/>
</linearGradient>
<linearGradient id="paint1_linear_1629_27762" x1="208.74" y1="347.032" x2="208.74" y2="386.22" gradientUnits="userSpaceOnUse">
<stop stop-color="#0160E7"/>
<stop offset="1" stop-color="#013681"/>
</linearGradient>
<linearGradient id="paint2_linear_1629_27762" x1="231.869" y1="339.667" x2="231.869" y2="344.798" gradientUnits="userSpaceOnUse">
<stop stop-color="#0160E7"/>
<stop offset="1" stop-color="#013681"/>
</linearGradient>
<linearGradient id="paint3_linear_1629_27762" x1="231.869" y1="362.903" x2="231.869" y2="368.035" gradientUnits="userSpaceOnUse">
<stop stop-color="#0160E7"/>
<stop offset="1" stop-color="#013681"/>
</linearGradient>
<linearGradient id="paint4_linear_1629_27762" x1="231.869" y1="386.13" x2="231.869" y2="391.262" gradientUnits="userSpaceOnUse">
<stop stop-color="#0160E7"/>
<stop offset="1" stop-color="#013681"/>
</linearGradient>
<linearGradient id="paint5_linear_1629_27762" x1="217.31" y1="117.858" x2="254.283" y2="154.83" gradientUnits="userSpaceOnUse">
<stop stop-color="#0160E7"/>
<stop offset="1" stop-color="#013681"/>
</linearGradient>
<linearGradient id="paint6_linear_1629_27762" x1="170.303" y1="171.699" x2="186.683" y2="188.079" gradientUnits="userSpaceOnUse">
<stop stop-color="#0160E7"/>
<stop offset="1" stop-color="#013681"/>
</linearGradient>
<linearGradient id="paint7_linear_1629_27762" x1="460.107" y1="241.768" x2="460.107" y2="273.169" gradientUnits="userSpaceOnUse">
<stop stop-color="#0160E7"/>
<stop offset="1" stop-color="#013681"/>
</linearGradient>
<linearGradient id="paint8_linear_1629_27762" x1="321.339" y1="125.031" x2="321.339" y2="139.006" gradientUnits="userSpaceOnUse">
<stop stop-color="#0160E7"/>
<stop offset="1" stop-color="#013681"/>
</linearGradient>
<linearGradient id="paint9_linear_1629_27762" x1="168.834" y1="233.065" x2="168.834" y2="240.44" gradientUnits="userSpaceOnUse">
<stop stop-color="#0160E7"/>
<stop offset="1" stop-color="#013681"/>
</linearGradient>
<linearGradient id="paint10_linear_1629_27762" x1="261.161" y1="392.052" x2="261.161" y2="399.409" gradientUnits="userSpaceOnUse">
<stop stop-color="#0160E7"/>
<stop offset="1" stop-color="#013681"/>
</linearGradient>
<linearGradient id="paint11_linear_1629_27762" x1="409.887" y1="354.505" x2="409.887" y2="375.66" gradientUnits="userSpaceOnUse">
<stop stop-color="#0160E7"/>
<stop offset="1" stop-color="#013681"/>
</linearGradient>
<linearGradient id="paint12_linear_1629_27762" x1="426.853" y1="358.417" x2="426.853" y2="375.661" gradientUnits="userSpaceOnUse">
<stop stop-color="#0160E7"/>
<stop offset="1" stop-color="#013681"/>
</linearGradient>
<linearGradient id="paint13_linear_1629_27762" x1="326.349" y1="361.072" x2="326.349" y2="368.851" gradientUnits="userSpaceOnUse">
<stop stop-color="#0160E7"/>
<stop offset="1" stop-color="#013681"/>
</linearGradient>
<linearGradient id="paint14_linear_1629_27762" x1="315.288" y1="382.39" x2="315.288" y2="387.629" gradientUnits="userSpaceOnUse">
<stop stop-color="#0160E7"/>
<stop offset="1" stop-color="#013681"/>
</linearGradient>
<linearGradient id="paint15_linear_1629_27762" x1="326.528" y1="382.39" x2="326.528" y2="387.629" gradientUnits="userSpaceOnUse">
<stop stop-color="#0160E7"/>
<stop offset="1" stop-color="#013681"/>
</linearGradient>
<linearGradient id="paint16_linear_1629_27762" x1="337.78" y1="382.39" x2="337.78" y2="387.629" gradientUnits="userSpaceOnUse">
<stop stop-color="#0160E7"/>
<stop offset="1" stop-color="#013681"/>
</linearGradient>
<linearGradient id="paint17_linear_1629_27762" x1="444.027" y1="183.452" x2="444.027" y2="193.671" gradientUnits="userSpaceOnUse">
<stop stop-color="#0160E7"/>
<stop offset="1" stop-color="#013681"/>
</linearGradient>
<linearGradient id="paint18_linear_1629_27762" x1="443.523" y1="188.557" x2="443.523" y2="189.557" gradientUnits="userSpaceOnUse">
<stop stop-color="#0160E7"/>
<stop offset="1" stop-color="#013681"/>
</linearGradient>
<linearGradient id="paint19_linear_1629_27762" x1="151.054" y1="284.927" x2="159.777" y2="293.65" gradientUnits="userSpaceOnUse">
<stop stop-color="#0160E7"/>
<stop offset="1" stop-color="#013681"/>
</linearGradient>
<linearGradient id="paint20_linear_1629_27762" x1="311.152" y1="189.544" x2="311.152" y2="210.304" gradientUnits="userSpaceOnUse">
<stop stop-color="#0160E7"/>
<stop offset="1" stop-color="#013681"/>
</linearGradient>
<linearGradient id="paint21_linear_1629_27762" x1="311.152" y1="225.745" x2="311.152" y2="266.472" gradientUnits="userSpaceOnUse">
<stop stop-color="#0160E7"/>
<stop offset="1" stop-color="#013681"/>
</linearGradient>
<linearGradient id="paint22_linear_1629_27762" x1="399.066" y1="131.138" x2="399.066" y2="141.726" gradientUnits="userSpaceOnUse">
<stop stop-color="#0160E7"/>
<stop offset="1" stop-color="#013681"/>
</linearGradient>
<linearGradient id="paint23_linear_1629_27762" x1="399.203" y1="140.029" x2="399.203" y2="162.485" gradientUnits="userSpaceOnUse">
<stop stop-color="#0160E7"/>
<stop offset="1" stop-color="#013681"/>
</linearGradient>
<linearGradient id="paint24_linear_1629_27762" x1="415.666" y1="131.184" x2="415.666" y2="153.64" gradientUnits="userSpaceOnUse">
<stop stop-color="#0160E7"/>
<stop offset="1" stop-color="#013681"/>
</linearGradient>
<linearGradient id="paint25_linear_1629_27762" x1="415.515" y1="151.935" x2="415.515" y2="162.479" gradientUnits="userSpaceOnUse">
<stop stop-color="#0160E7"/>
<stop offset="1" stop-color="#013681"/>
</linearGradient>
</defs>
</svg>
