<svg width="100" height="100" viewBox="0 0 100 100" fill="none" xmlns="http://www.w3.org/2000/svg">
<g filter="url(#filter0_d_1656_149)">
<path d="M94.1109 78.5798C94.3559 78.0488 94.2709 77.4248 93.8929 76.9788L65.4989 43.5158V28.9498C65.4989 28.1208 64.8269 27.4498 63.9989 27.4498H51.4989V6.44873C51.4989 5.61973 50.8269 4.94873 49.9989 4.94873C49.1709 4.94873 48.4989 5.61973 48.4989 6.44873V27.4488H35.9989C35.1709 27.4488 34.4989 28.1198 34.4989 28.9488V43.5148L6.10589 76.9788C5.72789 77.4248 5.64289 78.0488 5.88789 78.5798C6.12989 79.1018 6.65089 79.4358 7.22389 79.4458H92.7749C93.3489 79.4358 93.8689 79.1018 94.1109 78.5798Z" fill="#ECECEC"/>
</g>
<defs>
<filter id="filter0_d_1656_149" x="1.74951" y="4.94873" width="96.4995" height="82.4971" filterUnits="userSpaceOnUse" color-interpolation-filters="sRGB">
<feFlood flood-opacity="0" result="BackgroundImageFix"/>
<feColorMatrix in="SourceAlpha" type="matrix" values="0 0 0 0 0 0 0 0 0 0 0 0 0 0 0 0 0 0 127 0" result="hardAlpha"/>
<feOffset dy="4"/>
<feGaussianBlur stdDeviation="2"/>
<feComposite in2="hardAlpha" operator="out"/>
<feColorMatrix type="matrix" values="0 0 0 0 0 0 0 0 0 0 0 0 0 0 0 0 0 0 0.1 0"/>
<feBlend mode="normal" in2="BackgroundImageFix" result="effect1_dropShadow_1656_149"/>
<feBlend mode="normal" in="SourceGraphic" in2="effect1_dropShadow_1656_149" result="shape"/>
</filter>
</defs>
</svg>
