<svg width="100" height="100" viewBox="0 0 100 100" fill="none" xmlns="http://www.w3.org/2000/svg">
<g filter="url(#filter0_d_1657_167)">
<path d="M94.1111 78.5798C94.3561 78.0488 94.2711 77.4248 93.8931 76.9788L65.4991 43.5158V28.9498C65.4991 28.1208 64.8271 27.4498 63.9991 27.4498H51.4991V6.44873C51.4991 5.61973 50.8271 4.94873 49.9991 4.94873C49.1711 4.94873 48.4991 5.61973 48.4991 6.44873V27.4488H35.9991C35.1711 27.4488 34.4991 28.1198 34.4991 28.9488V43.5148L6.10613 76.9788C5.72813 77.4248 5.64313 78.0488 5.88813 78.5798C6.13013 79.1018 6.65113 79.4358 7.22413 79.4458H92.7751C93.3491 79.4358 93.8691 79.1018 94.1111 78.5798Z" fill="#F5F5F5"/>
</g>
<defs>
<filter id="filter0_d_1657_167" x="1.74976" y="4.94873" width="96.4998" height="82.4971" filterUnits="userSpaceOnUse" color-interpolation-filters="sRGB">
<feFlood flood-opacity="0" result="BackgroundImageFix"/>
<feColorMatrix in="SourceAlpha" type="matrix" values="0 0 0 0 0 0 0 0 0 0 0 0 0 0 0 0 0 0 127 0" result="hardAlpha"/>
<feOffset dy="4"/>
<feGaussianBlur stdDeviation="2"/>
<feComposite in2="hardAlpha" operator="out"/>
<feColorMatrix type="matrix" values="0 0 0 0 0 0 0 0 0 0 0 0 0 0 0 0 0 0 0.1 0"/>
<feBlend mode="normal" in2="BackgroundImageFix" result="effect1_dropShadow_1657_167"/>
<feBlend mode="normal" in="SourceGraphic" in2="effect1_dropShadow_1657_167" result="shape"/>
</filter>
</defs>
</svg>
