<svg width="531" height="425" viewBox="0 0 531 425" fill="none" xmlns="http://www.w3.org/2000/svg">
<path opacity="0.1" d="M4.10515 190.564C-11.8854 127.705 34.3436 98.0935 59.4569 91.1449C79.957 86.3342 140.33 69.3368 217.823 39.8317C295.315 10.3266 363.89 4.01939 388.491 4.5539C552.086 -28.7997 541.733 153.148 516.107 248.291C464.446 449.696 273.175 438.043 183.997 407.042C58.5329 385.233 11.7924 253.637 4.10515 190.564Z" fill="url(#paint0_linear_1629_27761)"/>
<path d="M265.483 396.789C362.497 396.789 441.142 318.143 441.142 221.13C441.142 124.116 362.497 45.4707 265.483 45.4707C168.469 45.4707 89.8242 124.116 89.8242 221.13C89.8242 318.143 168.469 396.789 265.483 396.789Z" fill="#B1CEE6"/>
<path d="M151.746 347.603H86.6172V402.522H151.746V347.603Z" fill="url(#paint1_linear_1629_27761)"/>
<path d="M155.717 328.869H81.1836C76.802 328.869 73.25 332.421 73.25 336.803V345.591C73.25 349.973 76.802 353.525 81.1836 353.525H155.717C160.099 353.525 163.651 349.973 163.651 345.591V336.803C163.651 332.421 160.099 328.869 155.717 328.869Z" fill="white"/>
<path d="M155.717 361.433H81.1836C76.802 361.433 73.25 364.985 73.25 369.367V378.155C73.25 382.537 76.802 386.089 81.1836 386.089H155.717C160.099 386.089 163.651 382.537 163.651 378.155V369.367C163.651 364.985 160.099 361.433 155.717 361.433Z" fill="white"/>
<path d="M155.717 393.998H81.1836C76.802 393.998 73.25 397.55 73.25 401.931V410.72C73.25 415.101 76.802 418.653 81.1836 418.653H155.717C160.099 418.653 163.651 415.101 163.651 410.72V401.931C163.651 397.55 160.099 393.998 155.717 393.998Z" fill="white"/>
<path d="M147.998 340.876C147.998 341.587 148.209 342.283 148.604 342.874C148.999 343.465 149.561 343.926 150.218 344.198C150.875 344.471 151.598 344.542 152.295 344.403C152.993 344.264 153.634 343.922 154.137 343.419C154.64 342.916 154.982 342.275 155.121 341.578C155.26 340.88 155.188 340.157 154.916 339.5C154.644 338.843 154.183 338.281 153.592 337.886C153 337.491 152.305 337.28 151.594 337.28C150.64 337.28 149.726 337.659 149.051 338.333C148.377 339.008 147.998 339.922 147.998 340.876Z" fill="url(#paint2_linear_1629_27761)"/>
<path d="M147.998 373.441C147.998 374.152 148.209 374.848 148.604 375.439C148.999 376.03 149.561 376.491 150.218 376.763C150.875 377.035 151.598 377.107 152.295 376.968C152.993 376.829 153.634 376.487 154.137 375.984C154.64 375.481 154.982 374.84 155.121 374.143C155.26 373.445 155.188 372.722 154.916 372.065C154.644 371.408 154.183 370.846 153.592 370.451C153 370.056 152.305 369.845 151.594 369.845C151.122 369.845 150.654 369.938 150.218 370.119C149.782 370.3 149.385 370.565 149.051 370.898C148.717 371.232 148.452 371.629 148.272 372.065C148.091 372.501 147.998 372.969 147.998 373.441Z" fill="url(#paint3_linear_1629_27761)"/>
<path d="M147.998 405.992C147.998 406.704 148.209 407.399 148.604 407.99C148.999 408.581 149.561 409.042 150.218 409.315C150.875 409.587 151.598 409.658 152.295 409.519C152.993 409.38 153.634 409.038 154.137 408.535C154.64 408.032 154.982 407.391 155.121 406.694C155.26 405.996 155.188 405.273 154.916 404.616C154.644 403.959 154.183 403.398 153.592 403.003C153 402.607 152.305 402.396 151.594 402.396C150.64 402.396 149.726 402.775 149.051 403.45C148.377 404.124 147.998 405.039 147.998 405.992Z" fill="url(#paint4_linear_1629_27761)"/>
<path d="M201.117 61.6907C202.711 55.403 202.711 48.8169 201.117 42.5293H194.453C193.53 38.9929 192.107 35.6061 190.229 32.4708L194.629 28.0702C191.32 22.4933 186.658 17.8405 181.076 14.5415L176.625 18.9924C173.484 17.1433 170.097 15.7465 166.566 14.8433L166.239 14.7804V8.90875C159.953 7.2993 153.364 7.2993 147.078 8.90875V14.9439C143.426 15.9015 139.935 17.3928 136.718 19.3696L132.682 15.3336C127.103 18.6491 122.443 23.3087 119.128 28.8874L123.415 33.1749C121.541 36.4529 120.164 39.9909 119.329 43.6734H113.495C111.903 49.9656 111.903 56.5553 113.495 62.8474H119.844C120.86 66.3989 122.38 69.7862 124.358 72.9059L119.97 77.3316C123.295 82.9031 127.953 87.5607 133.524 90.8854L138.289 86.1202C141.442 87.8783 144.829 89.178 148.348 89.9802V96.5182C154.633 98.1277 161.223 98.1277 167.509 96.5182V89.5401C170.925 88.5842 174.192 87.1582 177.216 85.303L181.956 90.043C187.534 86.7276 192.194 82.0679 195.509 76.4892L190.581 71.5606C192.364 68.4715 193.709 65.1498 194.579 61.6907H201.117ZM157.036 77.5454C152.041 77.5479 147.158 76.0689 143.005 73.2958C138.851 70.5226 135.613 66.5797 133.701 61.9659C131.788 57.3521 131.287 52.2748 132.261 47.3762C133.235 42.4777 135.639 37.978 139.171 34.4464C142.703 30.9148 147.202 28.51 152.101 27.5363C156.999 26.5625 162.077 27.0635 166.69 28.976C171.304 30.8884 175.247 34.1263 178.02 38.28C180.794 42.4338 182.272 47.3167 182.27 52.3111C182.272 55.6254 181.62 58.9075 180.352 61.9698C179.085 65.0321 177.226 67.8146 174.883 70.1581C172.539 72.5017 169.757 74.3603 166.694 75.6279C163.632 76.8954 160.35 77.547 157.036 77.5454Z" fill="white"/>
<path d="M183.004 78.2454C197.312 63.9373 197.312 40.7394 183.004 26.4314C168.696 12.1233 145.498 12.1233 131.19 26.4314C116.882 40.7394 116.882 63.9373 131.19 78.2454C145.498 92.5534 168.696 92.5534 183.004 78.2454Z" stroke="url(#paint5_linear_1629_27761)" stroke-width="4" stroke-miterlimit="10"/>
<path d="M102.835 118.697C103.774 114.958 103.774 111.045 102.835 107.306H98.8744C98.3248 105.213 97.478 103.211 96.3598 101.359L99.0002 98.7308C97.0356 95.4082 94.2633 92.636 90.9408 90.6714L88.2753 93.3369C86.4284 92.2177 84.4296 91.3708 82.3408 90.8223H82.1522V87.3395C78.4152 86.3842 74.498 86.3842 70.761 87.3395V90.9229C68.5821 91.4932 66.4982 92.3784 64.575 93.5507L62.1358 91.1743C60.4872 92.1561 58.9669 93.3387 57.6095 94.6948C56.2485 96.0526 55.0655 97.5777 54.089 99.2337L56.6036 101.748C55.4891 103.713 54.6714 105.831 54.177 108.035H50.82C49.8647 111.772 49.8647 115.689 50.82 119.426H54.5919C55.1881 121.533 56.0904 123.541 57.27 125.386L54.5919 127.988C56.5565 131.307 59.3235 134.078 62.6387 136.048L65.4803 133.219C67.3481 134.248 69.3495 135.014 71.4273 135.495V139.392C75.1643 140.348 79.0816 140.348 82.8186 139.392V135.231C84.8427 134.656 86.7797 133.81 88.5771 132.716L91.406 135.545C93.0573 134.567 94.5782 133.384 95.9323 132.024C97.2935 130.664 98.4802 129.139 99.4654 127.486L96.5233 124.556C97.575 122.72 98.3703 120.749 98.887 118.697H102.835ZM76.6326 128.127C73.6659 128.127 70.7659 127.247 68.2992 125.599C65.8325 123.951 63.91 121.608 62.7747 118.867C61.6394 116.126 61.3423 113.11 61.9211 110.201C62.4999 107.291 63.9285 104.618 66.0262 102.521C68.124 100.423 70.7967 98.9943 73.7063 98.4155C76.616 97.8367 79.6319 98.1338 82.3728 99.2691C85.1136 100.404 87.4562 102.327 89.1044 104.794C90.7526 107.26 91.6323 110.16 91.6323 113.127C91.6323 117.105 90.052 120.92 87.239 123.733C84.426 126.546 80.6108 128.127 76.6326 128.127Z" fill="white"/>
<path d="M88.2729 124.842C94.6118 118.503 94.6118 108.226 88.2729 101.887C81.9339 95.5476 71.6565 95.5476 65.3175 101.887C58.9786 108.226 58.9786 118.503 65.3175 124.842C71.6565 131.181 81.9339 131.181 88.2729 124.842Z" stroke="url(#paint6_linear_1629_27761)" stroke-width="4" stroke-miterlimit="10"/>
<path d="M510.342 195.632H429.082V249.105H510.342V195.632Z" fill="white"/>
<path d="M443.577 220.668V219.021L456.841 212.265V214.901L446.667 219.803L446.749 219.638V220.05L446.667 219.886L456.841 224.788V227.424L443.577 220.668ZM469.449 206.003L462.652 231.255H460.428L467.225 206.003H469.449ZM486.294 220.668L473.03 227.424V224.788L483.205 219.886L483.123 220.05V219.638L483.205 219.803L473.03 214.901V212.265L486.294 219.021V220.668Z" fill="url(#paint7_linear_1629_27761)"/>
<path d="M308.946 24.3613H243.227V68.9079H308.946V24.3613Z" fill="white"/>
<path d="M285.171 45.584C285.291 45.6553 285.39 45.7565 285.459 45.8777C285.528 45.999 285.564 46.136 285.564 46.2755C285.564 46.415 285.528 46.552 285.459 46.6732C285.39 46.7945 285.291 46.8957 285.171 46.967L277.376 51.4682L269.593 55.9694C269.471 56.0367 269.334 56.0714 269.195 56.0701C269.056 56.0688 268.92 56.0315 268.8 55.9618C268.68 55.8922 268.579 55.7926 268.509 55.6727C268.439 55.5528 268.401 55.4168 268.398 55.2778V37.2857C268.397 37.1453 268.433 37.0069 268.502 36.8849C268.571 36.7628 268.672 36.6613 268.794 36.591C268.915 36.5206 269.053 36.4838 269.194 36.4844C269.334 36.4849 269.472 36.5228 269.593 36.5942L277.376 41.0954L285.171 45.584Z" fill="url(#paint8_linear_1629_27761)"/>
<path d="M68.421 193.042C68.4235 194.065 68.1226 195.065 67.5563 195.917C66.99 196.768 66.1838 197.432 65.2397 197.825C64.2957 198.218 63.2563 198.323 62.2531 198.125C61.2498 197.927 60.3279 197.435 59.6039 196.713C58.88 195.991 58.3866 195.07 58.1862 194.068C57.9857 193.065 58.0873 192.025 58.4781 191.08C58.8688 190.135 59.5312 189.327 60.3812 188.759C61.2313 188.191 62.2309 187.887 63.2535 187.887C64.6218 187.887 65.9343 188.43 66.903 189.396C67.8718 190.363 68.4177 191.674 68.421 193.042Z" stroke="url(#paint9_linear_1629_27761)" stroke-width="2" stroke-miterlimit="10"/>
<path d="M197.8 415.85C197.8 416.869 197.498 417.866 196.931 418.714C196.365 419.561 195.56 420.222 194.618 420.612C193.676 421.003 192.639 421.105 191.64 420.906C190.64 420.707 189.721 420.216 189 419.495C188.279 418.774 187.788 417.855 187.589 416.855C187.39 415.856 187.492 414.819 187.883 413.877C188.273 412.935 188.934 412.13 189.781 411.564C190.629 410.997 191.626 410.695 192.645 410.695C194.012 410.695 195.324 411.238 196.29 412.205C197.257 413.171 197.8 414.483 197.8 415.85Z" stroke="url(#paint10_linear_1629_27761)" stroke-width="2" stroke-miterlimit="10"/>
<path d="M458.507 328.756H361.945V399.379H458.507V328.756Z" fill="white"/>
<path d="M401.068 358.076L414.496 372.9L427.924 387.724H401.068H374.225L387.653 372.9L401.068 358.076Z" fill="url(#paint11_linear_1629_27761)"/>
<path d="M424.859 363.559L435.797 375.641L446.736 387.724H424.859H402.969L413.92 375.641L424.859 363.559Z" fill="url(#paint12_linear_1629_27761)"/>
<path d="M430.264 349.275C430.264 350.384 430.593 351.468 431.209 352.39C431.825 353.313 432.701 354.031 433.725 354.456C434.75 354.88 435.878 354.991 436.965 354.775C438.053 354.559 439.052 354.025 439.836 353.24C440.621 352.456 441.155 351.457 441.371 350.369C441.587 349.281 441.476 348.154 441.052 347.129C440.628 346.104 439.909 345.229 438.987 344.613C438.065 343.996 436.98 343.667 435.871 343.667C434.384 343.667 432.958 344.258 431.906 345.31C430.854 346.362 430.264 347.788 430.264 349.275Z" fill="#BFDBF2"/>
<path d="M284.001 367.279L288.929 372.723L293.871 378.18H284.001H274.131L279.06 372.723L284.001 367.279Z" fill="url(#paint13_linear_1629_27761)"/>
<path d="M309.538 378.281H258.881C252.152 378.281 246.697 383.736 246.697 390.465V412.342C246.697 419.07 252.152 424.525 258.881 424.525H309.538C316.266 424.525 321.721 419.07 321.721 412.342V390.465C321.721 383.736 316.266 378.281 309.538 378.281Z" fill="white"/>
<path d="M272.171 400.813C272.173 401.54 271.96 402.251 271.558 402.856C271.156 403.462 270.584 403.934 269.913 404.214C269.243 404.494 268.504 404.568 267.791 404.428C267.078 404.288 266.423 403.939 265.908 403.426C265.393 402.913 265.042 402.259 264.9 401.547C264.757 400.834 264.829 400.095 265.106 399.424C265.384 398.752 265.854 398.178 266.458 397.774C267.062 397.37 267.773 397.154 268.499 397.154C269.471 397.154 270.403 397.539 271.091 398.225C271.779 398.911 272.167 399.842 272.171 400.813Z" fill="url(#paint14_linear_1629_27761)"/>
<path d="M287.927 400.813C287.929 401.54 287.716 402.252 287.313 402.857C286.911 403.463 286.337 403.936 285.666 404.215C284.995 404.495 284.256 404.568 283.542 404.427C282.829 404.286 282.174 403.936 281.659 403.422C281.145 402.907 280.795 402.252 280.654 401.539C280.513 400.825 280.586 400.086 280.866 399.415C281.145 398.744 281.618 398.17 282.223 397.768C282.829 397.365 283.541 397.152 284.268 397.154C285.238 397.154 286.169 397.54 286.855 398.226C287.541 398.912 287.927 399.843 287.927 400.813Z" fill="url(#paint15_linear_1629_27761)"/>
<path d="M303.692 400.813C303.695 401.54 303.482 402.251 303.08 402.856C302.678 403.462 302.105 403.934 301.435 404.214C300.764 404.494 300.025 404.568 299.312 404.428C298.599 404.288 297.944 403.939 297.429 403.426C296.915 402.913 296.564 402.259 296.421 401.547C296.278 400.834 296.35 400.095 296.628 399.424C296.905 398.752 297.376 398.178 297.98 397.774C298.584 397.37 299.294 397.154 300.021 397.154C300.992 397.154 301.924 397.539 302.613 398.225C303.301 398.911 303.689 399.842 303.692 400.813Z" fill="url(#paint16_linear_1629_27761)"/>
<path d="M448.217 118.357V132.678" stroke="url(#paint17_linear_1629_27761)" stroke-width="2" stroke-miterlimit="10"/>
<path d="M455.372 125.511H441.051" stroke="url(#paint18_linear_1629_27761)" stroke-width="2" stroke-miterlimit="10"/>
<path d="M71.6164 251.721L40.4351 282.902L36.0471 287.29C35.2446 288.092 34.292 288.729 33.2435 289.163C32.1951 289.597 31.0713 289.821 29.9365 289.821C28.8017 289.821 27.678 289.597 26.6295 289.163C25.5811 288.729 24.6284 288.092 23.826 287.29C23.0235 286.487 22.387 285.535 21.9527 284.486C21.5184 283.438 21.2949 282.314 21.2949 281.179C21.2949 280.045 21.5184 278.921 21.9527 277.872C22.387 276.824 23.0235 275.871 23.826 275.069L59.3953 239.5L71.6164 251.721Z" fill="#EDF7FF"/>
<path d="M87.3589 252.676C84.8836 255.148 81.8046 256.93 78.4277 257.844C75.0509 258.759 71.4935 258.774 68.1091 257.888C64.7246 257.002 61.6308 255.246 59.1348 252.795C56.6388 250.343 54.8276 247.282 53.8809 243.914C52.9343 240.546 52.8852 236.989 53.7385 233.596C54.5918 230.203 56.3178 227.093 58.7451 224.573C61.1725 222.054 64.2167 220.213 67.5754 219.234C70.9341 218.255 74.4905 218.172 77.8913 218.993L62.6779 234.206L77.4764 249.005L92.6899 233.791C93.4948 237.132 93.4273 240.624 92.4937 243.931C91.5602 247.238 89.7919 250.249 87.3589 252.676Z" fill="white"/>
<path d="M48.4506 250.454L28.2246 270.68L40.4491 282.904L60.6751 262.678L48.4506 250.454Z" fill="url(#paint19_linear_1629_27761)"/>
<path d="M321.581 300.14H203.809V336.69H321.581V300.14Z" fill="#EDF7FF"/>
<path d="M196.367 329.359H329.026C331.513 329.359 333.899 330.347 335.658 332.106C337.417 333.865 338.405 336.251 338.405 338.738V343.629H186.975V338.726C186.976 337.494 187.221 336.275 187.693 335.137C188.166 334 188.859 332.967 189.731 332.097C190.603 331.227 191.638 330.538 192.776 330.068C193.915 329.598 195.135 329.357 196.367 329.359Z" fill="white"/>
<path d="M407.645 291.69V133.03C407.645 122.705 399.274 114.334 388.948 114.334L136.43 114.334C126.104 114.334 117.734 122.705 117.734 133.03V291.69C117.734 302.016 126.104 310.386 136.43 310.386H388.948C399.274 310.386 407.645 302.016 407.645 291.69Z" fill="white"/>
<path d="M388.962 126.895H136.443C133.062 126.895 130.32 129.636 130.32 133.018V291.678C130.32 295.059 133.062 297.801 136.443 297.801H388.962C392.343 297.801 395.085 295.059 395.085 291.678V133.018C395.085 129.636 392.343 126.895 388.962 126.895Z" fill="#B8DFFF"/>
<path d="M395.085 133.018V155.989H130.32V133.018C130.32 131.394 130.965 129.836 132.114 128.688C133.262 127.54 134.819 126.895 136.443 126.895H388.962C390.586 126.895 392.143 127.54 393.291 128.688C394.44 129.836 395.085 131.394 395.085 133.018Z" fill="url(#paint20_linear_1629_27761)"/>
<path d="M376.867 140.448C376.867 141.254 377.106 142.042 377.554 142.711C378.001 143.381 378.638 143.903 379.382 144.212C380.126 144.52 380.945 144.601 381.736 144.444C382.526 144.286 383.252 143.898 383.821 143.329C384.391 142.759 384.779 142.033 384.936 141.243C385.093 140.453 385.013 139.634 384.704 138.889C384.396 138.145 383.874 137.509 383.204 137.061C382.534 136.613 381.747 136.375 380.941 136.375C379.86 136.375 378.824 136.804 378.06 137.568C377.296 138.332 376.867 139.368 376.867 140.448Z" fill="white"/>
<path d="M360.232 140.448C360.232 141.254 360.472 142.043 360.92 142.713C361.368 143.383 362.005 143.905 362.75 144.213C363.495 144.521 364.315 144.601 365.106 144.443C365.896 144.284 366.622 143.895 367.191 143.324C367.76 142.753 368.147 142.026 368.303 141.235C368.459 140.444 368.376 139.625 368.066 138.881C367.756 138.136 367.232 137.501 366.56 137.055C365.889 136.609 365.1 136.372 364.294 136.375C363.759 136.375 363.23 136.48 362.737 136.685C362.243 136.89 361.795 137.19 361.417 137.568C361.04 137.947 360.741 138.396 360.538 138.89C360.335 139.384 360.231 139.914 360.232 140.448Z" fill="white"/>
<path d="M342.791 140.448C342.791 141.254 343.03 142.042 343.478 142.711C343.925 143.381 344.561 143.903 345.306 144.212C346.05 144.52 346.869 144.601 347.659 144.444C348.45 144.286 349.176 143.898 349.745 143.329C350.315 142.759 350.703 142.033 350.86 141.243C351.017 140.453 350.937 139.634 350.628 138.889C350.32 138.145 349.798 137.509 349.128 137.061C348.458 136.613 347.67 136.375 346.865 136.375C345.784 136.375 344.748 136.804 343.984 137.568C343.22 138.332 342.791 139.368 342.791 140.448Z" fill="white"/>
<path d="M163.397 212.626V186.445H166.567V209.814H178.738V212.626H163.397ZM186.373 212.626H183.049L192.663 186.445H195.936L205.549 212.626H202.225L194.402 190.587H194.197L186.373 212.626ZM187.6 202.399H200.998V205.212H187.6V202.399ZM209.627 212.626V186.445H218.474C220.52 186.445 222.199 186.794 223.511 187.493C224.824 188.183 225.795 189.134 226.426 190.344C227.056 191.554 227.372 192.93 227.372 194.473C227.372 196.016 227.056 197.384 226.426 198.577C225.795 199.77 224.828 200.707 223.524 201.389C222.22 202.063 220.554 202.399 218.525 202.399H211.366V199.536H218.423C219.821 199.536 220.946 199.331 221.798 198.922C222.659 198.513 223.281 197.933 223.664 197.183C224.056 196.425 224.252 195.521 224.252 194.473C224.252 193.425 224.056 192.509 223.664 191.724C223.272 190.94 222.646 190.335 221.785 189.909C220.924 189.474 219.787 189.257 218.372 189.257H212.798V212.626H209.627ZM221.951 200.865L228.395 212.626H224.713L218.372 200.865H221.951ZM233.729 212.626H230.405L240.018 186.445H243.291L252.905 212.626H249.581L241.757 190.587H241.553L233.729 212.626ZM234.956 202.399H248.354V205.212H234.956V202.399ZM255.596 186.445L263.369 208.484H263.675L271.448 186.445H274.772L265.158 212.626H261.886L252.272 186.445H255.596ZM278.85 212.626V186.445H294.651V189.257H282.021V198.104H293.833V200.916H282.021V209.814H294.856V212.626H278.85ZM300.366 212.626V186.445H303.536V209.814H315.707V212.626H300.366Z" fill="url(#paint21_linear_1629_27761)"/>
<path d="M371.953 249.558H151.534C151.095 249.558 150.66 249.472 150.254 249.304C149.848 249.136 149.48 248.89 149.169 248.579C148.858 248.268 148.612 247.9 148.444 247.494C148.276 247.088 148.189 246.653 148.189 246.214C148.189 245.775 148.276 245.34 148.444 244.934C148.612 244.528 148.858 244.16 149.169 243.849C149.48 243.539 149.848 243.292 150.254 243.124C150.66 242.956 151.095 242.87 151.534 242.87H371.953C372.392 242.87 372.827 242.956 373.233 243.124C373.639 243.292 374.007 243.539 374.318 243.849C374.629 244.16 374.875 244.528 375.043 244.934C375.211 245.34 375.298 245.775 375.298 246.214C375.298 246.653 375.211 247.088 375.043 247.494C374.875 247.9 374.629 248.268 374.318 248.579C374.007 248.89 373.639 249.136 373.233 249.304C372.827 249.472 372.392 249.558 371.953 249.558Z" fill="white"/>
<path d="M371.953 266.293H151.534C150.649 266.293 149.8 265.942 149.173 265.317C148.547 264.693 148.193 263.845 148.189 262.961C148.189 262.074 148.542 261.223 149.169 260.596C149.796 259.969 150.647 259.616 151.534 259.616H371.953C372.392 259.616 372.827 259.703 373.233 259.871C373.639 260.039 374.007 260.285 374.318 260.596C374.629 260.906 374.875 261.275 375.043 261.681C375.211 262.087 375.298 262.521 375.298 262.961C375.294 263.845 374.94 264.693 374.314 265.317C373.687 265.942 372.838 266.293 371.953 266.293Z" fill="white"/>
<path d="M198.997 283.04H151.534C150.647 283.04 149.796 282.688 149.169 282.061C148.542 281.434 148.189 280.583 148.189 279.696C148.189 278.809 148.542 277.958 149.169 277.331C149.796 276.704 150.647 276.352 151.534 276.352H198.997C199.884 276.352 200.735 276.704 201.362 277.331C201.989 277.958 202.342 278.809 202.342 279.696C202.342 280.583 201.989 281.434 201.362 282.061C200.735 282.688 199.884 283.04 198.997 283.04Z" fill="white"/>
<path d="M284.945 283.04H237.481C236.595 283.037 235.746 282.684 235.12 282.057C234.493 281.431 234.14 280.582 234.137 279.696C234.14 278.81 234.493 277.961 235.12 277.335C235.746 276.708 236.595 276.355 237.481 276.352H284.945C285.832 276.352 286.682 276.704 287.31 277.331C287.937 277.958 288.289 278.809 288.289 279.696C288.289 280.135 288.203 280.57 288.035 280.976C287.866 281.382 287.62 281.75 287.31 282.061C286.999 282.371 286.63 282.618 286.225 282.786C285.819 282.954 285.384 283.04 284.945 283.04Z" fill="white"/>
<path d="M370.893 283.04H323.442C323.003 283.04 322.568 282.954 322.162 282.786C321.756 282.618 321.388 282.371 321.077 282.061C320.767 281.75 320.52 281.382 320.352 280.976C320.184 280.57 320.098 280.135 320.098 279.696C320.098 279.257 320.184 278.822 320.352 278.416C320.52 278.01 320.767 277.642 321.077 277.331C321.388 277.021 321.756 276.774 322.162 276.606C322.568 276.438 323.003 276.352 323.442 276.352H370.893C371.332 276.352 371.767 276.438 372.173 276.606C372.579 276.774 372.947 277.021 373.258 277.331C373.568 277.642 373.815 278.01 373.983 278.416C374.151 278.822 374.237 279.257 374.237 279.696C374.237 280.135 374.151 280.57 373.983 280.976C373.815 281.382 373.568 281.75 373.258 282.061C372.947 282.371 372.579 282.618 372.173 282.786C371.767 282.954 371.332 283.04 370.893 283.04Z" fill="white"/>
<path d="M445.228 66.5189C445.228 63.1232 443.88 59.8663 441.48 57.4639C439.08 55.0616 435.824 53.7103 432.428 53.7069C432.001 53.7069 431.598 53.7069 431.171 53.7069C431.549 51.747 431.743 49.756 431.749 47.7599C431.761 39.9688 428.884 32.45 423.675 26.6563C418.466 20.8625 411.295 17.205 403.547 16.3905C395.798 15.5759 388.023 17.6621 381.723 22.246C375.423 26.83 371.046 33.5862 369.437 41.2093C366.775 40.2565 363.937 39.8915 361.12 40.1393C358.303 40.3871 355.573 41.2419 353.118 42.6448C350.663 44.0478 348.541 45.9658 346.897 48.2669C345.253 50.568 344.127 53.1977 343.596 55.9752C343.065 58.7528 343.142 61.6124 343.821 64.3574C344.501 67.1025 345.766 69.668 347.531 71.8776C349.296 74.0872 351.518 75.8885 354.045 77.1577C356.572 78.427 359.344 79.134 362.17 79.2304H432.579C435.932 79.1909 439.136 77.837 441.502 75.4599C443.867 73.0828 445.205 69.8723 445.228 66.5189Z" fill="white"/>
<path d="M385.265 45.4459C385.32 45.3255 385.408 45.2235 385.52 45.152C385.631 45.0805 385.761 45.0425 385.893 45.0425C386.026 45.0425 386.155 45.0805 386.267 45.152C386.378 45.2235 386.467 45.3255 386.522 45.4459L390.395 52.1474L394.267 58.8489C394.326 58.9542 394.357 59.0732 394.356 59.194C394.355 59.3149 394.322 59.4334 394.261 59.5377C394.2 59.642 394.113 59.7285 394.008 59.7885C393.903 59.8485 393.784 59.88 393.664 59.8798H378.148C378.027 59.8817 377.907 59.851 377.802 59.791C377.697 59.731 377.609 59.6439 377.549 59.5386C377.489 59.4334 377.458 59.3139 377.459 59.1926C377.461 59.0713 377.495 58.9526 377.557 58.8489L381.43 52.1474L385.265 45.4459Z" fill="url(#paint22_linear_1629_27761)"/>
<path d="M389.063 57.5029H383.141V88.9734H389.063V57.5029Z" fill="url(#paint23_linear_1629_27761)"/>
<path d="M412.133 45.1064H406.211V76.5769H412.133V45.1064Z" fill="url(#paint24_linear_1629_27761)"/>
<path d="M408.365 88.6224C408.425 88.7268 408.513 88.8133 408.617 88.8735C408.722 88.9337 408.841 88.9653 408.962 88.9653C409.083 88.9653 409.201 88.9337 409.306 88.8735C409.411 88.8133 409.498 88.7268 409.559 88.6224L413.431 81.9209L417.291 75.2195C417.35 75.1151 417.381 74.9972 417.381 74.8774C417.38 74.7576 417.349 74.64 417.289 74.536C417.229 74.4321 417.144 74.3454 417.041 74.2845C416.938 74.2235 416.82 74.1905 416.701 74.1885H401.223C401.103 74.1905 400.986 74.2235 400.883 74.2845C400.78 74.3454 400.694 74.4321 400.635 74.536C400.575 74.64 400.543 74.7576 400.543 74.8774C400.543 74.9972 400.573 75.1151 400.632 75.2195L404.492 81.9209L408.365 88.6224Z" fill="url(#paint25_linear_1629_27761)"/>
<defs>
<linearGradient id="paint0_linear_1629_27761" x1="265.818" y1="0.525391" x2="265.818" y2="424.525" gradientUnits="userSpaceOnUse">
<stop stop-color="#0160E7"/>
<stop offset="1" stop-color="#013681"/>
</linearGradient>
<linearGradient id="paint1_linear_1629_27761" x1="119.182" y1="347.603" x2="119.182" y2="402.522" gradientUnits="userSpaceOnUse">
<stop stop-color="#0160E7"/>
<stop offset="1" stop-color="#013681"/>
</linearGradient>
<linearGradient id="paint2_linear_1629_27761" x1="151.594" y1="337.28" x2="151.594" y2="344.472" gradientUnits="userSpaceOnUse">
<stop stop-color="#0160E7"/>
<stop offset="1" stop-color="#013681"/>
</linearGradient>
<linearGradient id="paint3_linear_1629_27761" x1="151.594" y1="369.845" x2="151.594" y2="377.037" gradientUnits="userSpaceOnUse">
<stop stop-color="#0160E7"/>
<stop offset="1" stop-color="#013681"/>
</linearGradient>
<linearGradient id="paint4_linear_1629_27761" x1="151.594" y1="402.396" x2="151.594" y2="409.588" gradientUnits="userSpaceOnUse">
<stop stop-color="#0160E7"/>
<stop offset="1" stop-color="#013681"/>
</linearGradient>
<linearGradient id="paint5_linear_1629_27761" x1="131.19" y1="26.4314" x2="183.004" y2="78.2454" gradientUnits="userSpaceOnUse">
<stop stop-color="#0160E7"/>
<stop offset="1" stop-color="#013681"/>
</linearGradient>
<linearGradient id="paint6_linear_1629_27761" x1="65.3175" y1="101.887" x2="88.2729" y2="124.842" gradientUnits="userSpaceOnUse">
<stop stop-color="#0160E7"/>
<stop offset="1" stop-color="#013681"/>
</linearGradient>
<linearGradient id="paint7_linear_1629_27761" x1="471.456" y1="200.083" x2="471.456" y2="244.089" gradientUnits="userSpaceOnUse">
<stop stop-color="#0160E7"/>
<stop offset="1" stop-color="#013681"/>
</linearGradient>
<linearGradient id="paint8_linear_1629_27761" x1="276.981" y1="36.4844" x2="276.981" y2="56.0701" gradientUnits="userSpaceOnUse">
<stop stop-color="#0160E7"/>
<stop offset="1" stop-color="#013681"/>
</linearGradient>
<linearGradient id="paint9_linear_1629_27761" x1="63.2535" y1="187.887" x2="63.2535" y2="198.222" gradientUnits="userSpaceOnUse">
<stop stop-color="#0160E7"/>
<stop offset="1" stop-color="#013681"/>
</linearGradient>
<linearGradient id="paint10_linear_1629_27761" x1="192.645" y1="410.695" x2="192.645" y2="421.005" gradientUnits="userSpaceOnUse">
<stop stop-color="#0160E7"/>
<stop offset="1" stop-color="#013681"/>
</linearGradient>
<linearGradient id="paint11_linear_1629_27761" x1="401.074" y1="358.076" x2="401.074" y2="387.724" gradientUnits="userSpaceOnUse">
<stop stop-color="#0160E7"/>
<stop offset="1" stop-color="#013681"/>
</linearGradient>
<linearGradient id="paint12_linear_1629_27761" x1="424.852" y1="363.559" x2="424.852" y2="387.724" gradientUnits="userSpaceOnUse">
<stop stop-color="#0160E7"/>
<stop offset="1" stop-color="#013681"/>
</linearGradient>
<linearGradient id="paint13_linear_1629_27761" x1="284.001" y1="367.279" x2="284.001" y2="378.18" gradientUnits="userSpaceOnUse">
<stop stop-color="#0160E7"/>
<stop offset="1" stop-color="#013681"/>
</linearGradient>
<linearGradient id="paint14_linear_1629_27761" x1="268.499" y1="397.154" x2="268.499" y2="404.497" gradientUnits="userSpaceOnUse">
<stop stop-color="#0160E7"/>
<stop offset="1" stop-color="#013681"/>
</linearGradient>
<linearGradient id="paint15_linear_1629_27761" x1="284.255" y1="397.154" x2="284.255" y2="404.497" gradientUnits="userSpaceOnUse">
<stop stop-color="#0160E7"/>
<stop offset="1" stop-color="#013681"/>
</linearGradient>
<linearGradient id="paint16_linear_1629_27761" x1="300.021" y1="397.154" x2="300.021" y2="404.497" gradientUnits="userSpaceOnUse">
<stop stop-color="#0160E7"/>
<stop offset="1" stop-color="#013681"/>
</linearGradient>
<linearGradient id="paint17_linear_1629_27761" x1="448.717" y1="118.357" x2="448.717" y2="132.678" gradientUnits="userSpaceOnUse">
<stop stop-color="#0160E7"/>
<stop offset="1" stop-color="#013681"/>
</linearGradient>
<linearGradient id="paint18_linear_1629_27761" x1="448.211" y1="125.511" x2="448.211" y2="126.511" gradientUnits="userSpaceOnUse">
<stop stop-color="#0160E7"/>
<stop offset="1" stop-color="#013681"/>
</linearGradient>
<linearGradient id="paint19_linear_1629_27761" x1="38.3376" y1="260.567" x2="50.5621" y2="272.791" gradientUnits="userSpaceOnUse">
<stop stop-color="#0160E7"/>
<stop offset="1" stop-color="#013681"/>
</linearGradient>
<linearGradient id="paint20_linear_1629_27761" x1="262.703" y1="126.895" x2="262.703" y2="155.989" gradientUnits="userSpaceOnUse">
<stop stop-color="#0160E7"/>
<stop offset="1" stop-color="#013681"/>
</linearGradient>
<linearGradient id="paint21_linear_1629_27761" x1="262.706" y1="177.626" x2="262.706" y2="234.704" gradientUnits="userSpaceOnUse">
<stop stop-color="#0160E7"/>
<stop offset="1" stop-color="#013681"/>
</linearGradient>
<linearGradient id="paint22_linear_1629_27761" x1="385.908" y1="45.0425" x2="385.908" y2="59.8799" gradientUnits="userSpaceOnUse">
<stop stop-color="#0160E7"/>
<stop offset="1" stop-color="#013681"/>
</linearGradient>
<linearGradient id="paint23_linear_1629_27761" x1="386.102" y1="57.5029" x2="386.102" y2="88.9734" gradientUnits="userSpaceOnUse">
<stop stop-color="#0160E7"/>
<stop offset="1" stop-color="#013681"/>
</linearGradient>
<linearGradient id="paint24_linear_1629_27761" x1="409.172" y1="45.1064" x2="409.172" y2="76.5769" gradientUnits="userSpaceOnUse">
<stop stop-color="#0160E7"/>
<stop offset="1" stop-color="#013681"/>
</linearGradient>
<linearGradient id="paint25_linear_1629_27761" x1="408.962" y1="74.1885" x2="408.962" y2="88.9653" gradientUnits="userSpaceOnUse">
<stop stop-color="#0160E7"/>
<stop offset="1" stop-color="#013681"/>
</linearGradient>
</defs>
</svg>
