<svg width="626" height="501" viewBox="0 0 626 501" fill="none" xmlns="http://www.w3.org/2000/svg">
<path opacity="0.1" d="M4.69233 224.307C-14.1644 150.182 40.3509 115.262 69.9656 107.068C94.1403 101.395 165.335 81.3506 256.718 46.5569C348.1 11.7631 428.967 4.32536 457.977 4.95568C650.896 -34.3763 638.687 180.185 608.468 292.382C547.547 529.887 321.991 516.146 216.829 479.587C68.876 453.87 13.7575 298.685 4.69233 224.307Z" fill="url(#paint0_linear_1629_28234)"/>
<g clip-path="url(#clip0_1629_28234)">
<path d="M213.533 152.36H131.707V207.162H213.533V152.36Z" fill="url(#paint1_linear_1629_28234)"/>
<path d="M213.532 207.108C213.532 207.108 213.532 206.786 213.532 206.087C213.532 205.442 213.532 204.475 213.532 203.186C213.532 200.661 213.532 196.954 213.478 192.172C213.478 182.662 213.424 168.962 213.424 152.307L213.532 152.414C190.967 152.414 162.545 152.414 131.706 152.468L131.867 152.307C131.867 171.809 131.867 190.399 131.867 207.108L131.76 207C155.829 207.054 176.299 207.054 190.698 207.054C197.897 207.054 203.646 207.108 207.514 207.108C209.449 207.108 210.953 207.108 211.974 207.108C212.457 207.108 212.887 207.108 213.156 207.108C213.371 207.108 213.532 207.108 213.532 207.108C213.532 207.108 213.424 207.108 213.156 207.108C212.887 207.108 212.511 207.108 212.027 207.108C211.007 207.108 209.502 207.108 207.568 207.108C203.646 207.108 197.951 207.108 190.752 207.162C176.299 207.162 155.829 207.215 131.706 207.215L131.545 207.269V207.108C131.545 190.399 131.545 171.863 131.545 152.307V152.146H131.706C162.545 152.146 190.967 152.146 213.532 152.199H213.639V152.307C213.639 169.016 213.586 182.716 213.586 192.279C213.586 197.007 213.586 200.768 213.532 203.293C213.532 204.529 213.532 205.496 213.532 206.141C213.532 206.786 213.532 207.108 213.532 207.108Z" fill="white"/>
<path d="M131.707 157.25C131.707 157.142 150.028 157.088 172.593 157.088C195.158 157.088 213.479 157.142 213.479 157.25C213.479 157.357 195.158 157.411 172.593 157.411C149.974 157.357 131.707 157.303 131.707 157.25Z" fill="white"/>
<g opacity="0.3">
<path d="M134.93 154.778C134.93 155.154 134.661 155.423 134.285 155.423C133.909 155.423 133.641 155.154 133.641 154.778C133.641 154.402 133.909 154.133 134.285 154.133C134.661 154.133 134.93 154.402 134.93 154.778Z" fill="white"/>
</g>
<g opacity="0.3">
<path d="M137.187 154.778C137.187 155.154 136.918 155.423 136.542 155.423C136.166 155.423 135.844 155.1 135.844 154.778C135.844 154.402 136.166 154.08 136.488 154.08C136.811 154.08 137.187 154.402 137.187 154.778Z" fill="white"/>
</g>
<g opacity="0.3">
<path d="M139.389 154.778C139.389 155.154 139.12 155.423 138.744 155.423C138.368 155.423 138.1 155.154 138.1 154.778C138.1 154.402 138.368 154.133 138.744 154.133C139.067 154.08 139.389 154.402 139.389 154.778Z" fill="white"/>
</g>
<path d="M160.557 162.944H138.744V184.757H160.557V162.944Z" fill="white"/>
<path d="M202.302 169.123C202.302 169.231 193.813 169.284 183.283 169.284C172.806 169.284 164.264 169.231 164.264 169.123C164.264 169.016 172.752 168.962 183.283 168.962C193.76 168.962 202.302 169.016 202.302 169.123Z" fill="white"/>
<path d="M202.302 173.152C202.302 173.26 193.813 173.314 183.283 173.314C172.806 173.314 164.264 173.26 164.264 173.152C164.264 173.045 172.752 172.991 183.283 172.991C193.76 173.045 202.302 173.099 202.302 173.152Z" fill="white"/>
<path d="M202.302 177.236C202.302 177.343 193.813 177.397 183.283 177.397C172.806 177.397 164.264 177.343 164.264 177.236C164.264 177.128 172.752 177.075 183.283 177.075C193.76 177.075 202.302 177.128 202.302 177.236Z" fill="white"/>
<path d="M186.721 181.265C186.721 181.265 186.399 181.319 185.862 181.319C185.217 181.319 184.411 181.373 183.444 181.373C181.402 181.373 178.609 181.426 175.493 181.426C172.376 181.426 169.583 181.426 167.541 181.373C166.574 181.373 165.768 181.319 165.123 181.319C164.532 181.319 164.264 181.265 164.264 181.265C164.264 181.265 164.586 181.211 165.123 181.211C165.768 181.211 166.574 181.158 167.541 181.158C169.583 181.158 172.376 181.104 175.493 181.104C178.609 181.104 181.402 181.104 183.444 181.158C184.411 181.158 185.217 181.211 185.862 181.211C186.453 181.265 186.721 181.265 186.721 181.265Z" fill="white"/>
<path d="M150.35 192.118H140.088V202.38H150.35V192.118Z" fill="white"/>
<path d="M168.94 192.118H158.678V202.38H168.94V192.118Z" fill="white"/>
<path d="M187.582 192.118H177.32V202.38H187.582V192.118Z" fill="white"/>
<path d="M206.172 192.118H195.91V202.38H206.172V192.118Z" fill="white"/>
<path d="M296.056 125.712H225.566V154.348H296.056V125.712Z" fill="url(#paint2_linear_1629_28234)"/>
<path d="M296.056 154.348C296.056 154.348 296.056 154.187 296.056 153.811C296.056 153.489 296.056 152.951 296.056 152.307C296.056 151.017 296.056 149.083 296.056 146.612C296.056 141.669 296.056 134.523 296.002 125.658L296.056 125.712C278.111 125.712 253.182 125.712 225.566 125.766L225.674 125.658C225.674 135.705 225.674 145.376 225.674 154.295L225.566 154.187C245.983 154.187 263.605 154.241 276.123 154.241C282.356 154.241 287.352 154.241 290.791 154.295C292.51 154.295 293.799 154.295 294.713 154.295C295.142 154.295 295.519 154.295 295.733 154.295C295.948 154.348 296.056 154.348 296.056 154.348C296.056 154.348 295.948 154.348 295.733 154.348C295.519 154.348 295.142 154.348 294.713 154.348C293.799 154.348 292.51 154.348 290.791 154.348C287.352 154.348 282.409 154.348 276.177 154.402C263.659 154.402 246.036 154.456 225.566 154.456H225.459V154.348C225.459 145.43 225.459 135.759 225.459 125.712V125.604H225.566C253.182 125.604 278.111 125.604 296.056 125.658H296.11V125.712C296.11 134.577 296.056 141.722 296.056 146.719C296.056 149.19 296.056 151.071 296.056 152.414C296.056 153.059 296.056 153.542 296.056 153.865C296.056 154.187 296.056 154.348 296.056 154.348Z" fill="white"/>
<path d="M225.674 129.58C225.674 129.526 241.416 129.473 260.865 129.473C280.314 129.473 296.056 129.526 296.056 129.58C296.056 129.634 280.314 129.688 260.865 129.688C241.416 129.688 225.674 129.634 225.674 129.58Z" fill="white"/>
<g opacity="0.3">
<path d="M228.629 127.861C228.629 128.13 228.414 128.398 228.092 128.398C227.823 128.398 227.555 128.183 227.555 127.861C227.555 127.592 227.77 127.324 228.092 127.324C228.361 127.324 228.629 127.592 228.629 127.861Z" fill="white"/>
</g>
<g opacity="0.3">
<path d="M230.348 127.861C230.348 128.13 230.133 128.398 229.811 128.398C229.542 128.398 229.273 128.183 229.273 127.861C229.273 127.592 229.488 127.324 229.811 127.324C230.133 127.324 230.348 127.592 230.348 127.861Z" fill="white"/>
</g>
<g opacity="0.3">
<path d="M231.584 128.398C231.881 128.398 232.121 128.158 232.121 127.861C232.121 127.564 231.881 127.324 231.584 127.324C231.287 127.324 231.047 127.564 231.047 127.861C231.047 128.158 231.287 128.398 231.584 128.398Z" fill="white"/>
</g>
<path d="M248.615 134.254H231.584V151.286H248.615V134.254Z" fill="white"/>
<path d="M291.22 138.768C291.22 138.821 282.463 138.875 271.664 138.875C260.865 138.875 252.107 138.821 252.107 138.768C252.107 138.714 260.865 138.66 271.664 138.66C282.409 138.66 291.22 138.714 291.22 138.768Z" fill="white"/>
<path d="M291.22 142.26C291.22 142.314 282.463 142.367 271.664 142.367C260.865 142.367 252.107 142.314 252.107 142.26C252.107 142.206 260.865 142.152 271.664 142.152C282.409 142.152 291.22 142.206 291.22 142.26Z" fill="white"/>
<path d="M277.252 145.752C277.252 145.752 277.144 145.752 276.983 145.752C276.768 145.752 276.553 145.752 276.231 145.752C275.586 145.752 274.673 145.752 273.544 145.806C271.234 145.806 268.118 145.806 264.626 145.859C261.134 145.859 258.017 145.859 255.707 145.806C254.579 145.806 253.666 145.806 253.021 145.752C253.666 145.752 254.579 145.752 255.707 145.698C258.017 145.698 261.134 145.698 264.626 145.645C268.064 145.645 271.234 145.645 273.544 145.698C274.673 145.698 275.586 145.698 276.231 145.752C276.553 145.752 276.768 145.752 276.983 145.752C277.144 145.698 277.252 145.698 277.252 145.752Z" fill="white"/>
<path d="M486.249 163.912C486.249 163.912 486.356 163.751 486.625 163.482C486.947 163.16 487.323 162.783 487.807 162.3C488.774 161.333 490.171 159.99 491.675 158.539L491.729 158.485V158.7C490.171 157.25 488.827 155.96 487.807 154.993C487.323 154.563 486.947 154.187 486.625 153.865C486.356 153.596 486.195 153.435 486.249 153.435C486.249 153.435 486.41 153.543 486.732 153.811C487.054 154.08 487.484 154.456 487.968 154.886C488.989 155.799 490.386 157.088 491.944 158.539L492.051 158.647L491.944 158.754L491.89 158.808C490.386 160.258 488.989 161.602 487.968 162.515C487.484 162.945 487.054 163.321 486.732 163.643C486.41 163.804 486.249 163.912 486.249 163.912Z" fill="url(#paint3_linear_1629_28234)"/>
<path d="M474.322 153.435C474.322 153.435 474.215 153.596 473.946 153.865C473.624 154.187 473.247 154.563 472.764 155.047C471.797 156.014 470.4 157.357 468.896 158.808L468.842 158.861V158.647C470.4 160.097 471.743 161.387 472.764 162.354C473.247 162.783 473.624 163.16 473.946 163.482C474.215 163.751 474.376 163.912 474.322 163.912C474.322 163.912 474.161 163.804 473.838 163.536C473.516 163.267 473.086 162.891 472.603 162.461C471.582 161.548 470.185 160.258 468.627 158.808L468.52 158.7L468.627 158.593L468.681 158.539C470.185 157.088 471.582 155.745 472.603 154.832C473.086 154.402 473.516 154.026 473.838 153.704C474.161 153.543 474.322 153.435 474.322 153.435Z" fill="url(#paint4_linear_1629_28234)"/>
<path d="M477.384 166.383C477.331 166.383 478.566 162.837 480.178 158.539C481.79 154.241 483.133 150.749 483.241 150.802C483.294 150.802 482.059 154.348 480.447 158.646C478.835 162.945 477.492 166.437 477.384 166.383Z" fill="url(#paint5_linear_1629_28234)"/>
<path d="M499.788 173.905C499.788 173.905 499.788 173.69 499.788 173.314C499.788 172.938 499.788 172.347 499.788 171.648C499.788 170.144 499.788 167.995 499.734 165.255C499.734 159.721 499.68 151.877 499.68 142.367L499.788 142.475C488.72 142.475 475.396 142.475 461.105 142.475L461.266 142.313C461.266 153.704 461.266 164.503 461.266 173.851L461.158 173.744C472.656 173.744 482.327 173.797 489.096 173.797C492.481 173.797 495.167 173.797 496.994 173.851C497.907 173.851 498.606 173.851 499.089 173.851C499.304 173.851 499.519 173.851 499.627 173.851C499.68 173.905 499.788 173.905 499.788 173.905C499.788 173.905 499.734 173.905 499.627 173.905C499.519 173.905 499.304 173.905 499.089 173.905C498.606 173.905 497.907 173.905 496.994 173.905C495.167 173.905 492.481 173.905 489.096 173.958C482.273 173.958 472.602 174.012 461.051 174.012H460.943V173.905C460.943 164.556 460.943 153.757 460.943 142.367V142.26H461.105C475.396 142.26 488.72 142.26 499.788 142.26H499.895V142.367C499.895 151.877 499.841 159.775 499.841 165.309C499.841 168.049 499.841 170.198 499.788 171.702C499.788 172.4 499.788 172.991 499.788 173.368C499.788 173.744 499.788 173.905 499.788 173.905Z" fill="url(#paint6_linear_1629_28234)"/>
<path d="M500.056 147.042C500.056 147.095 491.299 147.203 480.554 147.203C469.754 147.203 461.051 147.149 461.051 147.042C461.051 146.988 469.808 146.88 480.554 146.88C491.353 146.934 500.056 146.988 500.056 147.042Z" fill="url(#paint7_linear_1629_28234)"/>
<path d="M464.221 144.731C464.221 145 464.006 145.268 463.684 145.268C463.415 145.268 463.146 145.053 463.146 144.731C463.146 144.462 463.361 144.194 463.684 144.194C464.006 144.248 464.221 144.462 464.221 144.731Z" fill="url(#paint8_linear_1629_28234)"/>
<path d="M466.102 144.731C466.102 145 465.887 145.268 465.565 145.268C465.296 145.268 465.027 145.053 465.027 144.731C465.027 144.462 465.242 144.194 465.565 144.194C465.887 144.248 466.102 144.462 466.102 144.731Z" fill="url(#paint9_linear_1629_28234)"/>
<path d="M468.035 144.731C468.035 145 467.821 145.268 467.498 145.268C467.23 145.268 466.961 145.053 466.961 144.731C466.961 144.462 467.176 144.194 467.498 144.194C467.767 144.248 468.035 144.462 468.035 144.731Z" fill="url(#paint10_linear_1629_28234)"/>
<path d="M490.869 312.627C493.126 311.499 495.759 311.338 498.23 311.714C499.573 311.929 500.97 312.359 501.883 313.326C502.797 314.346 502.958 316.066 501.937 316.979C501.292 317.516 500.433 317.57 499.627 317.57C497.693 317.57 495.544 317.194 493.986 318.376C493.126 319.021 492.535 320.149 491.46 320.471C490.44 320.794 489.258 320.203 488.72 319.236C488.183 318.322 488.129 317.14 488.398 316.066C488.344 316.066 488.613 313.755 490.869 312.627Z" fill="url(#paint11_linear_1629_28234)"/>
<path d="M485.711 302.741C487.054 304.675 489.741 304.031 490.977 302.849C492.212 301.667 492.75 299.948 493.179 298.282C494.254 294.521 495.382 290.545 494.576 286.731C494.361 285.602 493.932 284.421 493.126 283.615C492.32 282.755 491.084 282.271 489.956 282.54C488.613 282.916 487.807 284.206 487.162 285.441C485.389 289.095 484.476 293.178 484.422 297.261C484.422 299.142 484.637 301.13 485.711 302.741Z" fill="url(#paint12_linear_1629_28234)"/>
<path d="M481.95 305.535C483.454 303.762 483.723 301.183 483.078 298.98C482.434 296.778 480.929 294.897 479.21 293.339C477.168 291.566 474.804 290.116 472.279 289.256C471.258 288.88 470.238 288.611 469.163 288.719C468.089 288.826 467.014 289.363 466.531 290.277C465.778 291.674 466.477 293.339 467.283 294.736C468.626 297.154 470.13 299.464 471.849 301.667C473.193 303.44 474.804 305.159 476.846 305.965C478.941 306.771 481.09 306.663 482.219 305.213" fill="url(#paint13_linear_1629_28234)"/>
<path d="M485.656 332.183C485.656 332.183 485.71 331.861 485.764 331.27C485.817 330.625 485.925 329.819 485.979 328.852C486.086 327.832 486.247 326.596 486.516 325.306C486.785 323.963 487.214 322.566 487.805 321.116C488.396 319.665 489.095 318.376 489.954 317.301C490.76 316.227 491.727 315.474 492.641 315.045C493.554 314.615 494.36 314.4 494.897 314.346C495.488 314.292 495.757 314.239 495.757 314.239C495.757 314.239 495.435 314.185 494.844 314.239C494.253 314.292 493.447 314.4 492.48 314.883C491.512 315.313 490.492 316.065 489.632 317.14C488.772 318.214 488.02 319.558 487.429 321.008C486.838 322.459 486.408 323.91 486.14 325.253C485.871 326.596 485.764 327.832 485.656 328.852C485.603 329.873 485.549 330.733 485.549 331.27C485.603 331.861 485.603 332.183 485.656 332.183Z" fill="white"/>
<path d="M485.818 330.303C485.818 330.303 485.818 330.142 485.818 329.873C485.818 329.551 485.818 329.175 485.818 328.691C485.818 327.671 485.818 326.166 485.872 324.34C485.98 320.686 486.302 316.764 486.893 311.23C487.484 306.019 488.236 299.948 489.042 296.026C489.203 295.112 489.418 294.306 489.579 293.608C489.74 292.909 489.848 292.265 490.009 291.781C490.117 291.298 490.224 290.922 490.278 290.653C490.331 290.384 490.385 290.277 490.331 290.223C490.331 290.223 490.278 290.331 490.17 290.599C490.063 290.922 489.955 291.244 489.848 291.728C489.687 292.211 489.526 292.802 489.364 293.554C489.203 294.253 488.988 295.059 488.773 295.972C487.968 299.572 487.108 304.514 486.517 310.102C485.926 315.636 485.657 320.74 485.604 324.393C485.604 326.22 485.604 327.724 485.657 328.745C485.711 329.229 485.711 329.605 485.711 329.927C485.765 330.196 485.765 330.303 485.818 330.303Z" fill="white"/>
<path d="M485.818 320.579C485.818 320.579 485.818 320.149 485.818 319.343C485.764 318.537 485.657 317.409 485.442 316.012C485.227 314.615 484.851 312.95 484.367 311.177C484.152 310.371 483.615 308.383 482.325 305.428C480.66 301.452 478.35 298.175 476.362 296.133C475.878 295.596 475.395 295.22 474.965 294.844C474.75 294.682 474.535 294.468 474.374 294.36C474.159 294.253 473.998 294.091 473.837 293.984C473.192 293.554 472.816 293.286 472.816 293.339C472.762 293.393 474.266 294.306 476.201 296.348C478.135 298.39 480.338 301.613 482.003 305.589C482.916 307.738 483.561 309.672 484.045 311.284C484.582 313.057 484.904 314.723 485.173 316.066C485.442 317.463 485.549 318.591 485.657 319.343C485.764 320.149 485.818 320.579 485.818 320.579Z" fill="white"/>
<path d="M476.416 337.771L477.383 351.149H494.576L495.543 337.771H476.416Z" fill="url(#paint14_linear_1629_28234)"/>
<path d="M497.638 332.506H474.75V337.771H497.638V332.506Z" fill="url(#paint15_linear_1629_28234)"/>
<path d="M474.75 350.666V352.116H475.825H497.208V350.666H474.75Z" fill="url(#paint16_linear_1629_28234)"/>
<path d="M476.847 354.695L475.826 352.116H496.403L495.168 354.695H476.847Z" fill="white"/>
<path d="M495.221 342.123C495.221 342.123 495.221 342.177 495.167 342.231C495.114 342.338 495.006 342.445 494.899 342.553C494.63 342.875 494.308 343.305 493.878 343.842L493.824 343.896L493.771 343.842C493.126 342.983 492.32 341.801 491.299 340.458H491.46C490.708 341.478 489.902 342.66 489.043 343.896L488.989 344.004L488.881 343.896C487.968 342.822 487.001 341.693 485.98 340.458H486.141C486.088 340.511 486.034 340.565 485.98 340.673C485.067 341.801 484.207 342.875 483.401 343.896L483.294 344.004L483.24 343.896C482.381 342.66 481.575 341.532 480.822 340.458H480.984C479.802 341.801 478.781 342.983 477.975 343.842L477.921 343.896L477.868 343.842C477.491 343.198 477.169 342.66 476.954 342.284C476.847 342.123 476.793 341.962 476.739 341.854C476.686 341.747 476.686 341.693 476.686 341.693C476.686 341.693 476.739 341.747 476.793 341.801C476.847 341.908 476.954 342.016 477.062 342.177C477.277 342.553 477.653 343.09 478.029 343.735H477.921C478.673 342.822 479.694 341.693 480.876 340.296L480.93 340.189L480.984 340.296C481.736 341.317 482.542 342.499 483.455 343.735H483.294C484.1 342.714 484.959 341.64 485.873 340.511C485.927 340.458 485.98 340.35 486.034 340.296L486.141 340.189L486.249 340.296C487.27 341.478 488.237 342.66 489.096 343.735H488.935C489.795 342.499 490.654 341.371 491.407 340.296L491.46 340.189L491.514 340.296C492.481 341.693 493.287 342.875 493.932 343.735H493.824C494.254 343.198 494.63 342.768 494.845 342.499C494.953 342.392 495.06 342.284 495.114 342.177C495.221 342.177 495.221 342.123 495.221 342.123Z" fill="#F5F5F5"/>
<path d="M495.812 337.664C495.812 337.717 491.514 337.771 486.195 337.771C480.876 337.771 476.578 337.717 476.578 337.664C476.578 337.61 480.876 337.556 486.195 337.556C491.46 337.556 495.812 337.61 495.812 337.664Z" fill="#F5F5F5"/>
<path d="M496.672 352.277C496.672 352.331 491.998 352.385 486.195 352.385C480.393 352.385 475.719 352.331 475.719 352.277C475.719 352.224 480.393 352.17 486.195 352.17C491.998 352.17 496.672 352.224 496.672 352.277Z" fill="#F5F5F5"/>
<path d="M447.671 352.17H181.026C176.728 352.17 173.182 348.678 173.182 344.326V169.66C173.182 167.35 175.062 165.47 177.372 165.47H451.862C453.85 165.47 455.462 167.082 455.462 169.069V344.272C455.462 348.678 451.969 352.17 447.671 352.17Z" fill="url(#paint17_linear_1629_28234)"/>
<path d="M459.868 354.695H168.777C164.693 354.695 161.416 351.418 161.416 347.335V338.362H467.228V347.335C467.228 351.364 463.951 354.695 459.868 354.695Z" fill="url(#paint18_linear_1629_28234)"/>
<path d="M447.134 172.938H180.811V330.572H447.134V172.938Z" fill="#E0E0E0"/>
<path d="M286.545 338.362L290.306 344.38H343.71L347.256 338.362H286.545Z" fill="white"/>
<path d="M439.881 182.071H188.709V330.572H439.881V182.071Z" fill="url(#paint19_linear_1629_28234)"/>
<path d="M207.943 326.166C207.836 326.166 207.729 294.521 207.729 255.516C207.729 216.51 207.836 184.865 207.943 184.865C208.051 184.865 208.158 216.51 208.158 255.516C208.212 294.575 208.105 326.166 207.943 326.166Z" fill="#E0E0E0"/>
<path d="M202.893 197.706C202.893 197.813 201.066 197.921 198.81 197.921C196.553 197.921 194.727 197.813 194.727 197.706C194.727 197.598 196.553 197.491 198.81 197.491C201.066 197.491 202.893 197.598 202.893 197.706Z" fill="#E0E0E0"/>
<path d="M203.215 189.7C203.215 189.808 201.389 189.915 199.132 189.915C196.876 189.915 195.049 189.808 195.049 189.7C195.049 189.593 196.876 189.485 199.132 189.485C201.389 189.485 203.215 189.593 203.215 189.7Z" fill="#E0E0E0"/>
<path d="M202.893 206.356C202.893 206.463 201.066 206.57 198.81 206.57C196.553 206.57 194.727 206.463 194.727 206.356C194.727 206.248 196.553 206.141 198.81 206.141C201.066 206.141 202.893 206.248 202.893 206.356Z" fill="#E0E0E0"/>
<path d="M202.893 215.006C202.893 215.113 201.066 215.221 198.81 215.221C196.553 215.221 194.727 215.113 194.727 215.006C194.727 214.898 196.553 214.791 198.81 214.791C201.066 214.791 202.893 214.898 202.893 215.006Z" fill="#E0E0E0"/>
<path d="M202.893 223.656C202.893 223.763 201.066 223.871 198.81 223.871C196.553 223.871 194.727 223.763 194.727 223.656C194.727 223.548 196.553 223.441 198.81 223.441C201.066 223.387 202.893 223.494 202.893 223.656Z" fill="#E0E0E0"/>
<path d="M202.893 232.306C202.893 232.413 201.066 232.52 198.81 232.52C196.553 232.52 194.727 232.413 194.727 232.306C194.727 232.198 196.553 232.091 198.81 232.091C201.066 232.037 202.893 232.144 202.893 232.306Z" fill="#E0E0E0"/>
<path d="M202.893 240.902C202.893 241.009 201.066 241.117 198.81 241.117C196.553 241.117 194.727 241.009 194.727 240.902C194.727 240.794 196.553 240.687 198.81 240.687C201.066 240.687 202.893 240.794 202.893 240.902Z" fill="#E0E0E0"/>
<path d="M202.893 249.552C202.893 249.659 201.066 249.767 198.81 249.767C196.553 249.767 194.727 249.659 194.727 249.552C194.727 249.444 196.553 249.337 198.81 249.337C201.066 249.337 202.893 249.444 202.893 249.552Z" fill="#E0E0E0"/>
<path d="M202.893 258.202C202.893 258.309 201.066 258.417 198.81 258.417C196.553 258.417 194.727 258.309 194.727 258.202C194.727 258.094 196.553 257.987 198.81 257.987C201.066 257.987 202.893 258.094 202.893 258.202Z" fill="#E0E0E0"/>
<path d="M202.893 266.852C202.893 266.96 201.066 267.067 198.81 267.067C196.553 267.067 194.727 266.96 194.727 266.852C194.727 266.745 196.553 266.637 198.81 266.637C201.066 266.637 202.893 266.745 202.893 266.852Z" fill="#E0E0E0"/>
<path d="M202.893 275.502C202.893 275.609 201.066 275.717 198.81 275.717C196.553 275.717 194.727 275.609 194.727 275.502C194.727 275.394 196.553 275.287 198.81 275.287C201.066 275.233 202.893 275.341 202.893 275.502Z" fill="#E0E0E0"/>
<path d="M202.893 284.152C202.893 284.259 201.066 284.367 198.81 284.367C196.553 284.367 194.727 284.259 194.727 284.152C194.727 284.044 196.553 283.937 198.81 283.937C201.066 283.883 202.893 283.991 202.893 284.152Z" fill="#E0E0E0"/>
<path d="M202.893 292.748C202.893 292.856 201.066 292.963 198.81 292.963C196.553 292.963 194.727 292.856 194.727 292.748C194.727 292.641 196.553 292.533 198.81 292.533C201.066 292.533 202.893 292.641 202.893 292.748Z" fill="#E0E0E0"/>
<path d="M202.893 301.398C202.893 301.505 201.066 301.613 198.81 301.613C196.553 301.613 194.727 301.505 194.727 301.398C194.727 301.291 196.553 301.183 198.81 301.183C201.066 301.183 202.893 301.291 202.893 301.398Z" fill="#E0E0E0"/>
<path d="M202.893 310.048C202.893 310.156 201.066 310.263 198.81 310.263C196.553 310.263 194.727 310.156 194.727 310.048C194.727 309.941 196.553 309.833 198.81 309.833C201.066 309.833 202.893 309.941 202.893 310.048Z" fill="#E0E0E0"/>
<path d="M202.893 318.698C202.893 318.806 201.066 318.913 198.81 318.913C196.553 318.913 194.727 318.806 194.727 318.698C194.727 318.591 196.553 318.483 198.81 318.483C201.066 318.429 202.893 318.537 202.893 318.698Z" fill="#E0E0E0"/>
<path d="M235.612 197.222C235.612 197.33 230.884 197.437 225.028 197.437C219.171 197.437 214.443 197.33 214.443 197.222C214.443 197.115 219.171 197.007 225.028 197.007C230.884 196.953 235.612 197.061 235.612 197.222Z" fill="white"/>
<path d="M235.612 318.698C235.612 318.806 230.884 318.913 225.028 318.913C219.171 318.913 214.443 318.806 214.443 318.698C214.443 318.591 219.171 318.483 225.028 318.483C230.884 318.429 235.612 318.537 235.612 318.698Z" fill="white"/>
<path d="M265.109 215.006C265.109 215.113 256.244 215.221 245.284 215.221C234.324 215.221 225.459 215.113 225.459 215.006C225.459 214.898 234.324 214.791 245.284 214.791C256.244 214.791 265.109 214.898 265.109 215.006Z" fill="white"/>
<path d="M310.937 215.006C310.937 215.113 302.072 215.221 291.112 215.221C280.152 215.221 271.287 215.113 271.287 215.006C271.287 214.898 280.152 214.791 291.112 214.791C302.019 214.791 310.937 214.898 310.937 215.006Z" fill="#E0E0E0"/>
<path d="M293.421 223.656C293.421 223.763 280.366 223.871 264.248 223.871C248.13 223.871 235.074 223.763 235.074 223.656C235.074 223.548 248.13 223.441 264.248 223.441C280.312 223.387 293.421 223.494 293.421 223.656Z" fill="#E0E0E0"/>
<path d="M293.421 232.306C293.421 232.413 280.366 232.52 264.248 232.52C248.13 232.52 235.074 232.413 235.074 232.306C235.074 232.198 248.13 232.091 264.248 232.091C280.312 232.037 293.421 232.144 293.421 232.306Z" fill="#E0E0E0"/>
<path d="M333.609 258.202C333.609 258.309 320.553 258.417 304.435 258.417C288.317 258.417 275.262 258.309 275.262 258.202C275.262 258.094 288.317 257.987 304.435 257.987C320.5 257.987 333.609 258.094 333.609 258.202Z" fill="#E0E0E0"/>
<path d="M316.255 240.902C316.255 241.009 303.2 241.117 287.082 241.117C270.964 241.117 257.908 241.009 257.908 240.902C257.908 240.794 270.964 240.687 287.082 240.687C303.2 240.687 316.255 240.794 316.255 240.902Z" fill="#E0E0E0"/>
<path d="M387.605 240.902C387.605 241.009 374.549 241.117 358.431 241.117C342.313 241.117 329.258 241.009 329.258 240.902C329.258 240.794 342.313 240.687 358.431 240.687C374.549 240.687 387.605 240.794 387.605 240.902Z" fill="#E0E0E0"/>
<path d="M362.783 223.656C362.783 223.763 349.727 223.871 333.609 223.871C317.491 223.871 304.436 223.763 304.436 223.656C304.436 223.548 317.491 223.441 333.609 223.441C349.727 223.387 362.783 223.494 362.783 223.656Z" fill="#FAFAFA"/>
<path d="M403.132 258.202C403.132 258.309 390.077 258.417 373.959 258.417C357.841 258.417 344.785 258.309 344.785 258.202C344.785 258.094 357.841 257.987 373.959 257.987C390.077 257.987 403.132 258.094 403.132 258.202Z" fill="#FAFAFA"/>
<path d="M395.073 232.306C395.073 232.413 374.765 232.52 349.728 232.52C324.691 232.52 304.383 232.413 304.383 232.306C304.383 232.198 324.691 232.091 349.728 232.091C374.765 232.037 395.073 232.144 395.073 232.306Z" fill="#455A64"/>
<path d="M235.612 206.356C235.612 206.463 230.884 206.57 225.028 206.57C219.171 206.57 214.443 206.463 214.443 206.356C214.443 206.248 219.171 206.141 225.028 206.141C230.884 206.141 235.612 206.248 235.612 206.356Z" fill="#FAFAFA"/>
<path d="M235.612 310.048C235.612 310.156 230.884 310.263 225.028 310.263C219.171 310.263 214.443 310.156 214.443 310.048C214.443 309.941 219.171 309.833 225.028 309.833C230.884 309.833 235.612 309.941 235.612 310.048Z" fill="#FAFAFA"/>
<path d="M246.088 240.902C246.088 241.009 241.36 241.117 235.504 241.117C229.648 241.117 224.92 241.009 224.92 240.902C224.92 240.794 229.648 240.687 235.504 240.687C241.36 240.687 246.088 240.794 246.088 240.902Z" fill="#FAFAFA"/>
<path d="M415.811 240.902C415.811 241.009 411.083 241.117 405.227 241.117C399.371 241.117 394.643 241.009 394.643 240.902C394.643 240.794 399.371 240.687 405.227 240.687C411.083 240.687 415.811 240.794 415.811 240.902Z" fill="white"/>
<path d="M265.109 275.448C265.109 275.556 256.244 275.663 245.284 275.663C234.324 275.663 225.459 275.556 225.459 275.448C225.459 275.341 234.324 275.233 245.284 275.233C256.244 275.179 265.109 275.287 265.109 275.448Z" fill="white"/>
<path d="M310.937 275.448C310.937 275.556 302.072 275.663 291.112 275.663C280.152 275.663 271.287 275.556 271.287 275.448C271.287 275.341 280.152 275.233 291.112 275.233C302.019 275.179 310.937 275.287 310.937 275.448Z" fill="#E0E0E0"/>
<path d="M293.421 284.098C293.421 284.205 280.366 284.313 264.248 284.313C248.13 284.313 235.074 284.205 235.074 284.098C235.074 283.991 248.13 283.883 264.248 283.883C280.312 283.829 293.421 283.937 293.421 284.098Z" fill="#E0E0E0"/>
<path d="M293.421 292.694C293.421 292.802 280.366 292.909 264.248 292.909C248.13 292.909 235.074 292.802 235.074 292.694C235.074 292.587 248.13 292.479 264.248 292.479C280.312 292.479 293.421 292.587 293.421 292.694Z" fill="#E0E0E0"/>
<path d="M316.255 301.344C316.255 301.452 303.2 301.559 287.082 301.559C270.964 301.559 257.908 301.452 257.908 301.344C257.908 301.237 270.964 301.129 287.082 301.129C303.2 301.129 316.255 301.237 316.255 301.344Z" fill="#E0E0E0"/>
<path d="M387.605 301.344C387.605 301.452 374.549 301.559 358.431 301.559C342.313 301.559 329.258 301.452 329.258 301.344C329.258 301.237 342.313 301.129 358.431 301.129C374.549 301.129 387.605 301.237 387.605 301.344Z" fill="#E0E0E0"/>
<path d="M362.783 284.098C362.783 284.205 349.727 284.313 333.609 284.313C317.491 284.313 304.436 284.205 304.436 284.098C304.436 283.991 317.491 283.883 333.609 283.883C349.727 283.829 362.783 283.937 362.783 284.098Z" fill="#FAFAFA"/>
<path d="M395.073 292.694C395.073 292.802 374.765 292.909 349.728 292.909C324.691 292.909 304.383 292.802 304.383 292.694C304.383 292.587 324.691 292.479 349.728 292.479C374.765 292.479 395.073 292.587 395.073 292.694Z" fill="#455A64"/>
<path d="M246.088 301.344C246.088 301.452 241.36 301.559 235.504 301.559C229.648 301.559 224.92 301.452 224.92 301.344C224.92 301.237 229.648 301.129 235.504 301.129C241.36 301.129 246.088 301.237 246.088 301.344Z" fill="#FAFAFA"/>
<path d="M415.811 301.344C415.811 301.452 411.083 301.559 405.227 301.559C399.371 301.559 394.643 301.452 394.643 301.344C394.643 301.237 399.371 301.129 405.227 301.129C411.083 301.129 415.811 301.237 415.811 301.344Z" fill="white"/>
<path d="M421.453 343.789C421.453 343.842 367.404 343.95 300.676 343.95C233.947 343.95 179.898 343.896 179.898 343.789C179.898 343.735 233.947 343.627 300.676 343.627C367.404 343.681 421.453 343.735 421.453 343.789Z" fill="#263238"/>
<path d="M170.873 296.456C163.459 288.88 151.854 285.71 141.592 288.45C150.51 294.414 160.504 297.584 171.195 297.691" fill="url(#paint20_linear_1629_28234)"/>
<path d="M160.988 261.318C162.224 252.722 158.839 242.997 152.392 236.711C152.177 245.254 155.777 254.871 160.988 261.318Z" fill="url(#paint21_linear_1629_28234)"/>
<path d="M166.146 277.597C161.525 268.786 154.004 261.587 145.031 257.396C147.718 267.335 156.206 275.448 166.253 277.705" fill="url(#paint22_linear_1629_28234)"/>
<path d="M167.22 280.714C162.009 280.875 156.744 280.66 151.693 279.37C146.643 278.027 141.861 275.502 138.477 271.473C148.631 271.473 158.732 274.589 167.113 280.23" fill="url(#paint23_linear_1629_28234)"/>
<path d="M164.588 270.398C167.22 260.512 171.572 253.635 179.363 248.102C179.954 252.937 178.772 257.934 176.085 261.963C173.399 265.993 169.208 269.055 164.588 270.398Z" fill="url(#paint24_linear_1629_28234)"/>
<path d="M184.198 287.483C184.359 281.734 180.598 276.093 175.279 273.89C175.763 278.994 179.739 284.904 184.198 287.483Z" fill="url(#paint25_linear_1629_28234)"/>
<path d="M186.723 279.102C187.314 270.828 193.17 263.199 201.014 260.458C199.241 268.786 194.459 275.663 186.723 279.102Z" fill="url(#paint26_linear_1629_28234)"/>
<path d="M182.963 293.93C184.79 291.298 187.798 289.686 190.914 288.88C194.031 288.074 197.254 288.021 200.478 287.913C196.18 292.695 189.679 295.381 183.232 295.112" fill="url(#paint27_linear_1629_28234)"/>
<path d="M179.256 315.045C185.058 313.272 191.452 313.702 196.932 316.334C202.412 318.913 206.818 323.587 209.128 329.229C198.221 327.133 187.53 322.298 179.256 315.045Z" fill="url(#paint28_linear_1629_28234)"/>
<path d="M167.328 307.738C169.154 313.057 168.778 319.504 164.803 324.071C163.137 318.591 164.104 312.413 167.328 307.738Z" fill="url(#paint29_linear_1629_28234)"/>
<path d="M160.289 304.783C159.805 311.606 155.4 318.054 149.221 321.062C148.899 321.224 148.577 321.331 148.254 321.224C147.771 321.009 147.717 320.364 147.771 319.827C148.577 312.95 153.627 306.341 160.289 304.783Z" fill="url(#paint30_linear_1629_28234)"/>
<path d="M155.723 304.085C152.66 307.362 148.255 309.35 143.742 309.35C139.282 309.35 134.769 307.469 131.707 304.192C139.336 303.332 148.147 302.795 155.723 304.085Z" fill="url(#paint31_linear_1629_28234)"/>
<path d="M154.541 243.105C154.541 243.105 154.541 243.159 154.595 243.32C154.648 243.481 154.702 243.696 154.81 243.965C155.025 244.556 155.347 245.361 155.723 246.436C156.153 247.511 156.583 248.8 157.174 250.358C157.442 251.11 157.765 251.916 158.033 252.83C158.356 253.689 158.678 254.602 159 255.57C160.343 259.438 161.848 264.058 163.46 269.216C165.071 274.374 166.737 280.123 168.349 286.14C169.961 292.157 171.411 297.96 172.647 303.225C173.829 308.49 174.85 313.272 175.602 317.301C175.817 318.322 175.978 319.289 176.139 320.149C176.3 321.062 176.461 321.922 176.569 322.728C176.838 324.34 177.106 325.737 177.267 326.865C177.429 327.993 177.59 328.853 177.643 329.444C177.697 329.712 177.751 329.981 177.751 330.142C177.751 330.303 177.805 330.357 177.805 330.357C177.805 330.357 177.805 330.303 177.805 330.142C177.805 329.981 177.751 329.766 177.697 329.444C177.59 328.853 177.482 327.939 177.375 326.811C177.214 325.683 176.999 324.286 176.73 322.674C176.623 321.868 176.461 321.009 176.3 320.095C176.139 319.182 175.978 318.215 175.763 317.248C175.065 313.218 174.044 308.437 172.862 303.171C171.626 297.906 170.229 292.104 168.617 286.086C166.952 280.069 165.286 274.374 163.675 269.162C162.063 264.005 160.505 259.384 159.162 255.516C158.839 254.549 158.517 253.635 158.194 252.776C157.872 251.916 157.55 251.11 157.281 250.358C156.744 248.854 156.207 247.511 155.777 246.436C155.347 245.361 155.025 244.556 154.81 243.965C154.702 243.696 154.595 243.481 154.541 243.32C154.595 243.159 154.541 243.105 154.541 243.105Z" fill="white"/>
<path d="M196.448 264.918C196.448 264.918 196.394 264.972 196.34 265.025C196.233 265.133 196.126 265.24 195.964 265.402C195.642 265.724 195.159 266.261 194.621 266.906C193.493 268.249 191.827 270.237 190.108 272.87C188.389 275.502 186.616 278.887 185.434 282.916C184.198 286.892 183.392 291.459 182.64 296.241C181.082 305.75 179.202 314.293 177.805 320.418C177.106 323.48 176.569 325.951 176.139 327.724C175.978 328.584 175.817 329.229 175.709 329.712C175.656 329.927 175.656 330.088 175.602 330.25C175.602 330.357 175.548 330.411 175.602 330.411C175.602 330.411 175.602 330.357 175.656 330.25C175.709 330.142 175.709 329.927 175.817 329.712C175.924 329.229 176.086 328.584 176.3 327.724C176.73 326.005 177.321 323.534 178.02 320.471C179.47 314.347 181.404 305.804 182.963 296.294C183.715 291.566 184.521 287 185.756 283.024C186.938 279.048 188.658 275.663 190.377 273.031C192.042 270.344 193.654 268.356 194.782 267.013C195.32 266.315 195.803 265.831 196.072 265.455C196.233 265.294 196.34 265.133 196.394 265.079C196.448 264.972 196.448 264.918 196.448 264.918Z" fill="white"/>
<path d="M153.412 303.762C153.412 303.762 153.52 303.816 153.681 303.816C153.896 303.816 154.164 303.87 154.487 303.924C154.648 303.924 154.863 303.977 155.078 303.977C155.293 304.031 155.507 304.031 155.776 304.085C156.26 304.138 156.797 304.246 157.388 304.353C157.71 304.407 158.033 304.461 158.355 304.568C158.677 304.676 159 304.729 159.376 304.837C160.074 304.998 160.826 305.267 161.579 305.482C163.137 306.019 164.748 306.717 166.414 307.631C168.079 308.544 169.53 309.619 170.766 310.639C171.357 311.177 171.948 311.714 172.431 312.251C172.969 312.735 173.345 313.272 173.721 313.756C174.151 314.239 174.419 314.723 174.688 315.099C174.957 315.475 175.171 315.851 175.333 316.173C175.494 316.442 175.601 316.657 175.762 316.872C175.87 317.033 175.924 317.087 175.924 317.087C175.924 317.087 175.87 316.979 175.816 316.818C175.709 316.603 175.601 316.388 175.44 316.119C175.279 315.797 175.064 315.421 174.795 315.045C174.527 314.615 174.258 314.132 173.828 313.648C173.452 313.165 173.022 312.627 172.539 312.09C172.055 311.553 171.464 311.015 170.873 310.478C169.638 309.404 168.187 308.329 166.521 307.416C164.856 306.502 163.19 305.804 161.632 305.267C160.826 305.052 160.128 304.783 159.376 304.622C159 304.515 158.677 304.461 158.355 304.353C158.033 304.3 157.71 304.246 157.388 304.192C156.797 304.085 156.206 304.031 155.722 303.977C155.507 303.924 155.239 303.924 155.024 303.924C154.809 303.924 154.648 303.924 154.433 303.87C154.111 303.87 153.842 303.87 153.627 303.816C153.52 303.709 153.412 303.709 153.412 303.762Z" fill="white"/>
<path d="M151.264 265.079C151.264 265.079 151.425 265.294 151.801 265.616C152.231 265.992 152.768 266.422 153.359 266.96C154.702 268.088 156.529 269.646 158.624 271.365C160.666 273.084 162.546 274.589 163.943 275.717C164.588 276.254 165.125 276.684 165.555 277.006C165.931 277.329 166.146 277.49 166.2 277.436C166.2 277.436 166.039 277.221 165.662 276.899C165.233 276.523 164.695 276.093 164.104 275.556C162.761 274.428 160.934 272.869 158.839 271.15C156.798 269.431 154.917 267.927 153.52 266.798C152.875 266.261 152.338 265.831 151.908 265.509C151.479 265.24 151.264 265.079 151.264 265.079Z" fill="white"/>
<path d="M149.383 275.18C149.383 275.233 153.359 276.523 158.355 277.973C163.298 279.424 167.381 280.552 167.381 280.499C167.381 280.445 163.405 279.155 158.409 277.705C153.466 276.2 149.383 275.126 149.383 275.18Z" fill="white"/>
<path d="M164.158 271.15C164.158 271.15 164.319 270.935 164.588 270.559C164.857 270.129 165.233 269.592 165.663 268.947C166.576 267.604 167.812 265.724 169.316 263.79C170.82 261.802 172.271 260.082 173.345 258.9C173.829 258.309 174.259 257.826 174.635 257.45C174.957 257.128 175.118 256.913 175.065 256.913C175.065 256.913 174.85 257.074 174.527 257.396C174.205 257.719 173.722 258.202 173.184 258.793C172.056 259.975 170.605 261.694 169.101 263.682C167.597 265.67 166.361 267.55 165.501 268.894C165.072 269.592 164.749 270.129 164.534 270.559C164.266 270.935 164.158 271.15 164.158 271.15Z" fill="white"/>
<path d="M178.073 276.738C178.02 276.738 178.396 277.329 178.987 278.296C179.578 279.263 180.384 280.552 181.243 282.003C182.103 283.507 182.801 284.851 183.285 285.818C183.768 286.838 184.091 287.429 184.145 287.429C184.198 287.429 183.93 286.785 183.5 285.764C183.07 284.743 182.372 283.346 181.512 281.896C180.652 280.391 179.846 279.102 179.202 278.188C178.557 277.275 178.127 276.738 178.073 276.738Z" fill="white"/>
<path d="M182.855 294.199C182.855 294.252 183.661 293.876 184.897 293.285C186.133 292.748 187.906 291.996 189.894 291.298C191.882 290.599 193.708 290.116 194.998 289.739C196.341 289.417 197.147 289.202 197.147 289.148C197.147 289.148 196.932 289.148 196.556 289.202C196.18 289.256 195.642 289.363 194.944 289.525C193.601 289.793 191.774 290.277 189.786 290.975C187.798 291.674 186.079 292.426 184.843 293.07C184.252 293.393 183.715 293.661 183.393 293.823C183.017 294.091 182.855 294.199 182.855 294.199Z" fill="white"/>
<path d="M179.094 315.099C179.094 315.099 179.201 315.152 179.362 315.206C179.577 315.26 179.792 315.314 180.061 315.367C180.759 315.528 181.619 315.743 182.747 315.958C185.004 316.496 188.12 317.14 191.451 318.268C194.782 319.397 197.629 320.847 199.564 322.083C200.531 322.728 201.283 323.265 201.82 323.641C202.357 324.017 202.626 324.232 202.626 324.232C202.626 324.232 202.572 324.178 202.465 324.017C202.357 323.91 202.142 323.749 201.928 323.534C201.444 323.104 200.692 322.513 199.725 321.868C197.791 320.579 194.943 319.074 191.612 317.946C188.281 316.818 185.111 316.173 182.855 315.743C181.78 315.528 180.867 315.367 180.168 315.206C179.47 315.152 179.094 315.045 179.094 315.099Z" fill="white"/>
<path d="M165.556 320.257C165.609 320.257 166.093 317.463 166.63 313.971C167.114 310.478 167.49 307.685 167.382 307.631C167.329 307.631 166.845 310.425 166.308 313.917C165.824 317.409 165.448 320.203 165.556 320.257Z" fill="white"/>
<path d="M151.424 315.099C151.478 315.099 151.907 314.561 152.713 313.594C153.465 312.627 154.54 311.338 155.722 309.941C156.904 308.544 158.032 307.255 158.838 306.341C159.644 305.428 160.128 304.837 160.128 304.837C160.128 304.837 159.966 304.944 159.698 305.159C159.429 305.374 159.107 305.75 158.677 306.18C157.817 307.04 156.689 308.329 155.507 309.726C154.325 311.177 153.251 312.466 152.552 313.487C152.176 313.97 151.907 314.4 151.692 314.669C151.531 314.938 151.424 315.099 151.424 315.099Z" fill="white"/>
<path d="M188.765 328.208V335.139H187.045L180.813 354.695H167.113L161.095 335.354L158.785 335.139V328.208H188.765Z" fill="url(#paint32_linear_1629_28234)"/>
<g opacity="0.3">
<path d="M188.765 328.208V335.139H187.045L180.813 354.695H167.113L161.095 335.354L158.785 335.139V328.208H188.765Z" fill="black"/>
</g>
<path d="M159.914 335.354C159.914 335.407 165.985 335.515 173.453 335.515C180.921 335.515 186.992 335.461 186.992 335.354C186.992 335.246 180.921 335.192 173.453 335.192C165.985 335.192 159.914 335.3 159.914 335.354Z" fill="white"/>
<path d="M150.027 290.546C150.027 290.546 150.35 290.653 150.887 290.76C151.532 290.922 152.338 291.083 153.305 291.351C155.346 291.835 158.14 292.641 161.149 293.662C164.157 294.682 166.844 295.757 168.778 296.563C169.691 296.993 170.443 297.315 171.034 297.584C171.572 297.799 171.894 297.96 171.894 297.906C171.894 297.906 171.625 297.745 171.088 297.476C170.551 297.208 169.799 296.832 168.832 296.402C166.951 295.542 164.265 294.414 161.202 293.393C158.14 292.372 155.346 291.62 153.305 291.19C152.284 290.975 151.424 290.814 150.887 290.707C150.35 290.546 150.027 290.492 150.027 290.546Z" fill="white"/>
<path d="M164.48 346.207C164.48 346.26 168.725 346.368 173.99 346.368C179.255 346.368 183.5 346.314 183.5 346.207C183.5 346.099 179.255 346.045 173.99 346.045C168.725 346.045 164.48 346.153 164.48 346.207Z" fill="#FAFAFA"/>
<path d="M163.943 344.595C163.943 344.649 168.456 344.756 174.044 344.756C179.632 344.756 184.145 344.702 184.145 344.595C184.145 344.487 179.632 344.434 174.044 344.434C168.456 344.434 163.943 344.541 163.943 344.595Z" fill="#FAFAFA"/>
<path d="M499.895 354.802C499.895 354.856 418.016 354.963 317.01 354.963C215.95 354.963 134.07 354.91 134.07 354.802C134.07 354.749 215.95 354.641 317.01 354.641C418.016 354.695 499.895 354.749 499.895 354.802Z" fill="#263238"/>
<path d="M449.714 150.48H305.727V239.666H426.934L434.456 256.912L441.118 239.666H449.714V150.48Z" fill="url(#paint33_linear_1629_28234)"/>
<path d="M449.714 150.48C449.714 151.34 449.768 184.865 449.822 239.666V239.774H449.714C447.081 239.774 444.126 239.774 441.118 239.774L441.225 239.72C439.13 245.146 436.873 250.949 434.563 256.966L434.456 257.235L434.348 256.966C431.984 251.54 429.459 245.684 426.826 239.72L426.934 239.774C394.376 239.774 356.928 239.774 317.332 239.774C313.463 239.774 309.595 239.774 305.727 239.774H305.619V239.613C305.619 207.86 305.619 177.666 305.619 150.426V150.319H305.727C390.722 150.426 448.586 150.48 449.714 150.48C448.586 150.48 390.722 150.534 305.727 150.587L305.834 150.48C305.834 177.719 305.834 207.86 305.834 239.666L305.673 239.505C309.487 239.505 313.356 239.505 317.278 239.505C356.874 239.505 394.322 239.505 426.88 239.505H426.988L427.041 239.559C429.674 245.576 432.199 251.432 434.563 256.805H434.348C436.658 250.788 438.915 244.932 441.01 239.559L441.064 239.505H441.118C444.126 239.505 447.081 239.505 449.714 239.505L449.607 239.613C449.66 184.811 449.714 151.34 449.714 150.48Z" fill="white"/>
<path d="M449.661 159.184C449.661 159.291 417.479 159.399 377.829 159.399C338.125 159.399 305.996 159.291 305.996 159.184C305.996 159.076 338.178 158.969 377.829 158.969C417.479 158.969 449.661 159.076 449.661 159.184Z" fill="white"/>
<path d="M313.411 155.262C313.411 155.906 312.874 156.444 312.229 156.444C311.584 156.444 311.047 155.906 311.047 155.262C311.047 154.617 311.584 154.08 312.229 154.08C312.874 154.08 313.411 154.563 313.411 155.262Z" fill="white"/>
<path d="M317.655 155.262C317.655 155.906 317.118 156.444 316.473 156.444C315.828 156.444 315.291 155.906 315.291 155.262C315.291 154.617 315.828 154.08 316.473 154.08C317.118 154.08 317.655 154.563 317.655 155.262Z" fill="white"/>
<path d="M321.954 155.262C321.954 155.906 321.417 156.444 320.772 156.444C320.127 156.444 319.59 155.906 319.59 155.262C319.59 154.617 320.127 154.08 320.772 154.08C321.417 154.08 321.954 154.563 321.954 155.262Z" fill="white"/>
<path d="M321.47 175.141L318.032 176.484L321.47 177.827V178.633L317.172 176.914V176.108L321.47 174.389V175.141Z" fill="white"/>
<path d="M325.016 171.702H325.875L322.705 180.782H321.846L325.016 171.702Z" fill="white"/>
<path d="M330.443 176.054V176.86L326.145 178.579V177.773L329.583 176.43L326.145 175.087V174.281L330.443 176.054Z" fill="white"/>
<path d="M331.518 179.224C331.518 178.848 331.84 178.579 332.162 178.579C332.485 178.579 332.807 178.848 332.807 179.224C332.807 179.6 332.538 179.869 332.162 179.869C331.84 179.869 331.518 179.6 331.518 179.224Z" fill="white"/>
<path d="M333.719 179.224C333.719 178.848 334.041 178.579 334.363 178.579C334.686 178.579 335.008 178.848 335.008 179.224C335.008 179.6 334.74 179.869 334.363 179.869C334.041 179.869 333.719 179.6 333.719 179.224Z" fill="white"/>
<path d="M335.922 179.224C335.922 178.848 336.244 178.579 336.567 178.579C336.889 178.579 337.211 178.848 337.211 179.224C337.211 179.6 336.943 179.869 336.567 179.869C336.191 179.869 335.922 179.6 335.922 179.224Z" fill="white"/>
<path d="M412.375 187.874C412.375 187.981 391.1 188.089 364.827 188.089C338.555 188.089 317.279 187.981 317.279 187.874C317.279 187.766 338.555 187.659 364.827 187.659C391.1 187.659 412.375 187.766 412.375 187.874Z" fill="white"/>
<path d="M427.901 188.142C427.901 188.25 425.859 188.357 423.334 188.357C420.809 188.357 418.768 188.25 418.768 188.142C418.768 188.035 420.809 187.927 423.334 187.927C425.859 187.927 427.901 188.035 427.901 188.142Z" fill="white"/>
<path d="M441.226 188.142C441.226 188.25 438.969 188.357 436.229 188.357C433.489 188.357 431.232 188.25 431.232 188.142C431.232 188.035 433.489 187.927 436.229 187.927C439.023 187.927 441.226 188.035 441.226 188.142Z" fill="white"/>
<path d="M377.828 195.879C377.828 195.986 364.289 196.094 347.634 196.094C330.925 196.094 317.439 195.986 317.439 195.879C317.439 195.772 330.979 195.664 347.634 195.664C364.289 195.664 377.828 195.772 377.828 195.879Z" fill="white"/>
<path d="M377.399 225.751C377.399 225.858 363.859 225.966 347.204 225.966C330.495 225.966 317.01 225.858 317.01 225.751C317.01 225.644 330.549 225.536 347.204 225.536C363.859 225.536 377.399 225.644 377.399 225.751Z" fill="white"/>
<path d="M399.804 195.879C399.804 195.986 396.096 196.094 391.583 196.094C387.017 196.094 383.363 195.986 383.363 195.879C383.363 195.772 387.017 195.664 391.583 195.664C396.096 195.664 399.804 195.772 399.804 195.879Z" fill="white"/>
<path d="M399.589 225.751C399.589 225.858 395.882 225.966 391.369 225.966C386.802 225.966 383.148 225.858 383.148 225.751C383.148 225.644 386.802 225.536 391.369 225.536C395.935 225.536 399.589 225.644 399.589 225.751Z" fill="white"/>
<path d="M321.363 199.962C321.363 200.069 320.449 200.177 319.321 200.177C318.193 200.177 317.279 200.069 317.279 199.962C317.279 199.855 318.193 199.747 319.321 199.747C320.449 199.747 321.363 199.855 321.363 199.962Z" fill="white"/>
<path d="M335.438 200.016C335.438 200.123 333.45 200.231 331.033 200.231C328.561 200.231 326.627 200.123 326.627 200.016C326.627 199.908 328.615 199.801 331.033 199.801C333.45 199.855 335.438 199.908 335.438 200.016Z" fill="white"/>
<path d="M344.41 200.016C344.41 200.123 342.691 200.231 340.596 200.231C338.501 200.231 336.781 200.123 336.781 200.016C336.781 199.908 338.501 199.801 340.596 199.801C342.691 199.855 344.41 199.908 344.41 200.016Z" fill="white"/>
<path d="M355.801 200.016C355.801 200.123 354.082 200.231 351.933 200.231C349.784 200.231 348.064 200.123 348.064 200.016C348.064 199.908 349.784 199.801 351.933 199.801C354.082 199.855 355.801 199.908 355.801 200.016Z" fill="white"/>
<path d="M365.793 200.016C365.793 200.123 364.235 200.231 362.301 200.231C360.367 200.231 358.809 200.123 358.809 200.016C358.809 199.908 360.367 199.801 362.301 199.801C364.181 199.855 365.793 199.908 365.793 200.016Z" fill="white"/>
<path d="M398.782 200.016C398.782 200.123 391.852 200.231 383.309 200.231C374.767 200.231 367.836 200.123 367.836 200.016C367.836 199.908 374.767 199.801 383.309 199.801C391.905 199.855 398.782 199.908 398.782 200.016Z" fill="white"/>
<path d="M320.825 205.12C320.825 205.227 320.019 205.335 319.052 205.335C318.085 205.335 317.279 205.227 317.279 205.12C317.279 205.012 318.085 204.905 319.052 204.905C320.019 204.959 320.825 205.012 320.825 205.12Z" fill="white"/>
<path d="M320.933 210.493C320.933 210.6 320.127 210.708 319.106 210.708C318.085 210.708 317.279 210.6 317.279 210.493C317.279 210.385 318.085 210.278 319.106 210.278C320.127 210.278 320.933 210.385 320.933 210.493Z" fill="white"/>
<path d="M320.933 216.51C320.933 216.617 320.127 216.725 319.106 216.725C318.085 216.725 317.279 216.617 317.279 216.51C317.279 216.402 318.085 216.295 319.106 216.295C320.127 216.349 320.933 216.402 320.933 216.51Z" fill="white"/>
<path d="M354.242 216.241C354.242 216.349 348.118 216.456 340.596 216.456C333.074 216.456 326.949 216.349 326.949 216.241C326.949 216.134 333.074 216.026 340.596 216.026C348.171 216.026 354.242 216.134 354.242 216.241Z" fill="white"/>
<path d="M351.879 210.493C351.879 210.6 346.076 210.708 338.877 210.708C331.677 210.708 325.875 210.6 325.875 210.493C325.875 210.385 331.677 210.278 338.877 210.278C346.022 210.278 351.879 210.385 351.879 210.493Z" fill="white"/>
<path d="M414.686 204.851C414.686 204.959 394.861 205.066 370.415 205.066C345.97 205.066 326.145 204.959 326.145 204.851C326.145 204.744 345.97 204.636 370.415 204.636C394.861 204.69 414.686 204.744 414.686 204.851Z" fill="white"/>
<path d="M458.581 186.96V262.715L446.814 272.547H458.581H459.709H508.385V186.96H458.581Z" fill="url(#paint34_linear_1629_28234)"/>
<path d="M458.58 186.96C458.58 186.96 458.848 186.96 459.439 186.96C460.03 186.96 460.89 186.96 462.018 186.96C464.275 186.96 467.66 186.96 471.958 186.96C480.608 186.96 493.072 186.907 508.438 186.907H508.546V187.014C508.546 209.902 508.546 239.774 508.599 272.601V272.762H508.438C505.698 272.762 502.743 272.762 499.788 272.762C481.037 272.762 463.093 272.762 446.814 272.762H446.438L446.706 272.547C450.789 269.162 454.711 265.885 458.472 262.715L458.419 262.823C458.419 240.15 458.472 221.184 458.472 207.914C458.472 201.305 458.472 196.04 458.526 192.494C458.526 190.721 458.526 189.378 458.526 188.411C458.526 187.981 458.526 187.605 458.526 187.39C458.58 187.068 458.58 186.96 458.58 186.96C458.58 186.96 458.58 187.068 458.58 187.337C458.58 187.551 458.58 187.928 458.58 188.411C458.58 189.324 458.58 190.721 458.58 192.494C458.58 196.094 458.58 201.305 458.633 207.968C458.633 221.238 458.687 240.15 458.687 262.823V262.876L458.633 262.93C454.873 266.1 450.951 269.377 446.867 272.762L446.76 272.547C463.039 272.547 480.984 272.547 499.734 272.547C502.689 272.547 505.644 272.547 508.384 272.547L508.223 272.708C508.223 239.827 508.223 209.955 508.277 187.122L508.384 187.229C493.072 187.229 480.608 187.175 471.958 187.175C467.66 187.175 464.275 187.175 462.018 187.175C460.89 187.175 460.03 187.175 459.439 187.175C458.902 186.96 458.58 186.96 458.58 186.96Z" fill="#F9F8F7"/>
<path d="M463.092 190.721C463.092 191.259 462.663 191.742 462.072 191.742C461.534 191.742 461.051 191.312 461.051 190.721C461.051 190.184 461.481 189.701 462.072 189.701C462.663 189.701 463.092 190.13 463.092 190.721Z" fill="#F9F8F7"/>
<path d="M466.747 190.721C466.747 191.259 466.317 191.742 465.726 191.742C465.189 191.742 464.705 191.312 464.705 190.721C464.705 190.184 465.135 189.701 465.726 189.701C466.317 189.701 466.747 190.13 466.747 190.721Z" fill="#F9F8F7"/>
<path d="M470.399 190.721C470.399 191.259 469.969 191.742 469.378 191.742C468.841 191.742 468.357 191.312 468.357 190.721C468.357 190.184 468.787 189.701 469.378 189.701C469.969 189.701 470.399 190.13 470.399 190.721Z" fill="#F9F8F7"/>
<path d="M494.684 214.039C494.684 214.147 488.344 214.2 480.554 214.2C472.764 214.2 466.424 214.147 466.424 214.039C466.424 213.932 472.764 213.878 480.554 213.878C488.398 213.878 494.684 213.985 494.684 214.039Z" fill="#F9F8F7"/>
<path d="M500.594 220.916C500.594 221.024 492.911 221.077 483.402 221.077C473.892 221.077 466.209 221.024 466.209 220.916C466.209 220.809 473.892 220.755 483.402 220.755C492.911 220.755 500.594 220.809 500.594 220.916Z" fill="#F9F8F7"/>
<path d="M501.989 246.49C501.989 246.597 493.769 246.651 483.668 246.651C473.568 246.651 465.348 246.597 465.348 246.49C465.348 246.382 473.568 246.329 483.668 246.329C493.769 246.329 501.989 246.382 501.989 246.49Z" fill="#F9F8F7"/>
<path d="M469.11 224.408C469.11 224.516 468.304 224.569 467.391 224.569C466.424 224.569 465.672 224.516 465.672 224.408C465.672 224.301 466.478 224.247 467.391 224.247C468.358 224.247 469.11 224.301 469.11 224.408Z" fill="#F9F8F7"/>
<path d="M481.144 224.462C481.144 224.569 479.425 224.623 477.383 224.623C475.288 224.623 473.568 224.569 473.568 224.462C473.568 224.355 475.288 224.301 477.383 224.301C479.478 224.301 481.144 224.408 481.144 224.462Z" fill="#F9F8F7"/>
<path d="M488.828 224.462C488.828 224.569 487.377 224.623 485.604 224.623C483.831 224.623 482.381 224.569 482.381 224.462C482.381 224.355 483.831 224.301 485.604 224.301C487.377 224.301 488.828 224.408 488.828 224.462Z" fill="#F9F8F7"/>
<path d="M468.626 228.868C468.626 228.975 467.927 229.029 467.122 229.029C466.316 229.029 465.617 228.975 465.617 228.868C465.617 228.76 466.316 228.707 467.122 228.707C467.981 228.707 468.626 228.76 468.626 228.868Z" fill="#F9F8F7"/>
<path d="M468.788 233.434C468.788 233.542 468.09 233.595 467.23 233.595C466.37 233.595 465.672 233.542 465.672 233.434C465.672 233.327 466.37 233.273 467.23 233.273C468.09 233.273 468.788 233.327 468.788 233.434Z" fill="#F9F8F7"/>
<path d="M468.788 238.592C468.788 238.699 468.09 238.753 467.23 238.753C466.37 238.753 465.672 238.699 465.672 238.592C465.672 238.484 466.37 238.431 467.23 238.431C468.09 238.431 468.788 238.484 468.788 238.592Z" fill="#F9F8F7"/>
<path d="M497.263 238.323C497.263 238.431 492.051 238.484 485.604 238.484C479.157 238.484 473.945 238.431 473.945 238.323C473.945 238.216 479.157 238.162 485.604 238.162C492.051 238.162 497.263 238.27 497.263 238.323Z" fill="#F9F8F7"/>
<path d="M495.221 233.434C495.221 233.542 490.225 233.595 484.1 233.595C477.975 233.595 472.979 233.542 472.979 233.434C472.979 233.327 477.975 233.273 484.1 233.273C490.225 233.273 495.221 233.327 495.221 233.434Z" fill="#F9F8F7"/>
<path d="M471.044 253.313C471.044 253.42 470.345 253.474 469.486 253.474C468.626 253.474 467.928 253.42 467.928 253.313C467.928 253.206 468.626 253.152 469.486 253.152C470.345 253.152 471.044 253.206 471.044 253.313Z" fill="#F9F8F7"/>
<path d="M471.044 258.471C471.044 258.578 470.345 258.632 469.486 258.632C468.626 258.632 467.928 258.578 467.928 258.471C467.928 258.363 468.626 258.31 469.486 258.31C470.345 258.31 471.044 258.417 471.044 258.471Z" fill="#F9F8F7"/>
<path d="M499.573 258.256C499.573 258.363 494.362 258.417 487.915 258.417C481.467 258.417 476.256 258.363 476.256 258.256C476.256 258.148 481.467 258.095 487.915 258.095C494.308 258.095 499.573 258.148 499.573 258.256Z" fill="#F9F8F7"/>
<path d="M497.477 253.313C497.477 253.42 492.481 253.474 486.356 253.474C480.231 253.474 475.234 253.42 475.234 253.313C475.234 253.206 480.231 253.152 486.356 253.152C492.534 253.152 497.477 253.206 497.477 253.313Z" fill="#F9F8F7"/>
<path d="M503.495 228.599C503.495 228.706 496.726 228.76 488.344 228.76C479.963 228.76 473.193 228.706 473.193 228.599C473.193 228.491 479.963 228.438 488.344 228.438C496.726 228.438 503.495 228.545 503.495 228.599Z" fill="#F9F8F7"/>
<path d="M507.954 194.644C507.954 194.751 496.994 194.805 483.508 194.805C470.023 194.805 459.062 194.751 459.062 194.644C459.062 194.536 470.023 194.482 483.508 194.482C496.994 194.482 507.954 194.59 507.954 194.644Z" fill="#F9F8F7"/>
<path d="M476.792 209.902C476.792 210.009 474.482 210.063 471.634 210.063C468.787 210.063 466.477 210.009 466.477 209.902C466.477 209.794 468.787 209.741 471.634 209.741C474.482 209.741 476.792 209.848 476.792 209.902Z" fill="#F9F8F7"/>
<path d="M470.937 200.554C470.937 200.661 469.862 200.715 468.519 200.715C467.176 200.715 466.102 200.661 466.102 200.554C466.102 200.446 467.176 200.393 468.519 200.393C469.862 200.393 470.937 200.5 470.937 200.554Z" fill="#F9F8F7"/>
<path d="M427.794 310.908L438.593 300.216L419.305 267.174C417.317 264.864 414.738 263.091 411.89 262.016L405.121 259.437L388.251 256.321L376.27 261.049C373.261 262.231 371.381 265.347 371.757 268.571L374.873 295.004L376.7 329.39L420.272 321.814L415.866 309.081L416.027 289.256L427.794 310.908Z" fill="#0160E7"/>
<path d="M416.35 308.275C416.457 308.275 416.457 301.398 416.404 292.909C416.35 284.42 416.189 277.543 416.081 277.543C415.974 277.543 415.974 284.42 416.027 292.909C416.081 301.398 416.242 308.275 416.35 308.275Z" fill="#263238"/>
<path d="M414.739 313.325L388.413 302.741C386.264 301.882 384.813 299.894 384.652 297.637L382.718 272.386C382.718 272.386 382.933 261.64 376.217 261.103L372.402 262.607C367.459 265.24 366.224 272.386 366.922 277.973C367.889 285.871 368.265 296.992 369.34 303.816C370.199 309.403 373.584 313.809 378.903 315.743L411.354 322.781L414.739 313.325Z" fill="#0160E7"/>
<path d="M383.094 276.2C383.094 276.2 383.147 276.415 383.201 276.791C383.255 277.221 383.309 277.758 383.362 278.457C383.524 279.961 383.685 282.003 383.9 284.582C384.115 287.16 384.383 290.277 384.706 293.661C384.759 294.521 384.867 295.381 384.92 296.294C384.974 297.207 385.028 298.121 385.243 298.98C385.458 299.894 385.888 300.7 386.532 301.344C387.231 301.989 388.09 302.473 388.95 302.849C396.203 305.965 402.919 308.597 407.754 310.424C410.172 311.337 412.106 312.036 413.503 312.573C414.148 312.842 414.685 313.003 415.061 313.164C415.437 313.325 415.598 313.379 415.598 313.379C415.598 313.379 415.383 313.325 415.061 313.218C414.685 313.11 414.148 312.896 413.449 312.681C412.052 312.197 410.065 311.552 407.647 310.639C402.758 308.866 396.042 306.341 388.789 303.171C387.875 302.741 387.016 302.258 386.264 301.613C385.511 300.914 385.082 300.001 384.867 299.088C384.652 298.174 384.598 297.207 384.544 296.348C384.491 295.434 384.383 294.575 384.329 293.715C384.061 290.277 383.846 287.214 383.631 284.635C383.47 282.056 383.309 279.961 383.201 278.51C383.147 277.812 383.147 277.275 383.094 276.845C383.094 276.361 383.094 276.2 383.094 276.2Z" fill="#263238"/>
<path d="M367.997 289.9C367.997 289.9 368.051 290.008 368.051 290.223C368.051 290.491 368.105 290.814 368.158 291.19C368.212 292.103 368.319 293.285 368.481 294.79C368.642 296.294 368.803 298.121 369.072 300.108C369.34 302.096 369.663 304.299 370.254 306.502C370.522 307.63 370.952 308.651 371.543 309.564C372.134 310.478 372.832 311.284 373.531 311.982C374.928 313.433 376.432 314.453 377.722 315.152C380.408 316.549 382.396 316.549 382.342 316.656C382.342 316.656 382.235 316.656 382.02 316.656C381.805 316.656 381.482 316.603 381.053 316.549C380.193 316.388 379.011 316.065 377.614 315.367C376.217 314.668 374.713 313.648 373.262 312.197C372.564 311.499 371.865 310.639 371.221 309.726C370.576 308.812 370.146 307.684 369.878 306.556C369.287 304.299 368.964 302.096 368.696 300.108C368.427 298.121 368.266 296.294 368.158 294.79C368.051 293.285 367.997 292.049 367.943 291.19C367.943 290.814 367.943 290.491 367.943 290.223C367.997 290.008 367.997 289.9 367.997 289.9Z" fill="#263238"/>
<path d="M379.278 307.577C379.225 307.577 379.332 306.986 379.762 306.18C380.138 305.374 380.89 304.299 381.965 303.332C383.039 302.419 384.221 301.828 385.081 301.613C385.94 301.344 386.531 301.344 386.531 301.344C386.531 301.398 385.994 301.505 385.135 301.828C384.275 302.15 383.2 302.741 382.126 303.601C381.105 304.514 380.353 305.481 379.923 306.287C379.547 307.093 379.332 307.577 379.278 307.577Z" fill="#263238"/>
<g opacity="0.3">
<path d="M407.163 310.316C404.369 308.705 401.575 307.523 398.621 306.179C395.666 304.836 392.818 303.117 390.884 300.538C387.23 295.649 387.66 288.557 383.953 283.722C384.222 286.999 384.437 290.223 384.705 293.5C384.92 296.455 384.49 299.41 386.371 301.451C387.983 303.171 391.152 304.46 393.355 305.212C397.868 306.609 402.704 308.812 407.163 310.316Z" fill="black"/>
</g>
<path opacity="0.3" d="M416.082 279.424L418.392 293.5L416.243 289.524L416.082 279.424Z" fill="black"/>
<path d="M382.289 270.774C382.289 270.774 382.074 270.827 381.698 270.827C381.268 270.827 380.677 270.827 380.032 270.881C378.635 270.935 376.701 270.988 374.552 271.15C372.403 271.311 370.469 271.526 369.126 271.687C368.481 271.741 367.944 271.848 367.46 271.902C367.084 271.956 366.869 271.956 366.869 271.956C366.869 271.956 367.084 271.902 367.46 271.794C367.836 271.741 368.427 271.633 369.126 271.526C370.523 271.311 372.457 271.096 374.606 270.935C376.755 270.774 378.689 270.72 380.086 270.774C380.784 270.774 381.375 270.774 381.751 270.827C382.074 270.72 382.289 270.774 382.289 270.774Z" fill="#455A64"/>
<path d="M383.04 284.205C383.04 284.259 379.601 284.635 375.303 284.958C371.059 285.334 367.566 285.549 367.566 285.441C367.566 285.387 371.005 285.011 375.303 284.689C379.601 284.367 383.04 284.152 383.04 284.205Z" fill="#455A64"/>
<path d="M384.33 298.335C384.33 298.335 384.169 298.443 383.792 298.658C383.416 298.819 382.879 299.088 382.234 299.356C380.891 299.947 379.011 300.592 376.862 301.076C374.713 301.559 372.725 301.774 371.274 301.828C370.576 301.881 369.985 301.881 369.555 301.828C369.125 301.828 368.91 301.774 368.91 301.774C368.91 301.774 369.125 301.72 369.555 301.72C369.931 301.72 370.522 301.667 371.274 301.613C372.725 301.505 374.659 301.29 376.808 300.807C378.957 300.323 380.837 299.679 382.181 299.195C382.879 298.926 383.416 298.712 383.739 298.55C384.115 298.389 384.33 298.335 384.33 298.335Z" fill="#455A64"/>
<path d="M393.678 305.589C393.732 305.643 392.281 306.287 391.045 307.684C389.81 309.081 389.326 310.532 389.219 310.478C389.165 310.478 389.272 310.102 389.487 309.511C389.756 308.92 390.186 308.168 390.831 307.469C391.475 306.771 392.174 306.234 392.711 305.965C393.302 305.696 393.678 305.589 393.678 305.589Z" fill="#455A64"/>
<path d="M403.241 314.937C403.187 314.937 403.456 313.594 404.262 312.143C405.068 310.693 405.981 309.726 406.035 309.779C406.088 309.833 405.283 310.854 404.477 312.305C403.725 313.702 403.295 314.937 403.241 314.937Z" fill="#455A64"/>
<path d="M388.198 262.876C388.198 262.93 386.533 263.306 384.491 263.682C382.396 264.058 380.73 264.273 380.73 264.219C380.73 264.165 382.396 263.789 384.438 263.413C386.533 263.037 388.198 262.768 388.198 262.876Z" fill="#455A64"/>
<path d="M413.45 264.004C413.45 264.058 411.14 263.843 408.293 263.521C405.445 263.198 403.135 262.822 403.135 262.768C403.135 262.715 405.445 262.93 408.293 263.252C411.14 263.574 413.45 263.95 413.45 264.004Z" fill="#455A64"/>
<path d="M415.599 275.717C415.599 275.717 415.492 275.717 415.277 275.717C415.008 275.717 414.74 275.717 414.31 275.717C413.45 275.717 412.268 275.717 410.818 275.717C407.863 275.717 403.833 275.717 399.374 275.878C394.915 275.985 390.831 276.2 387.93 276.307C386.48 276.361 385.298 276.469 384.438 276.469C384.062 276.469 383.739 276.522 383.471 276.522C383.256 276.522 383.148 276.522 383.148 276.522C383.148 276.522 383.256 276.469 383.471 276.469C383.739 276.469 384.008 276.415 384.438 276.361C385.244 276.308 386.426 276.2 387.93 276.093C390.885 275.878 394.915 275.663 399.374 275.555C403.833 275.448 407.916 275.448 410.818 275.502C412.268 275.502 413.45 275.555 414.31 275.609C414.686 275.609 415.008 275.663 415.277 275.663C415.492 275.716 415.599 275.717 415.599 275.717Z" fill="#455A64"/>
<path d="M415.867 290.599C415.867 290.653 408.937 291.19 400.448 291.781C391.905 292.318 385.028 292.748 384.975 292.641C384.975 292.587 391.852 292.05 400.394 291.459C408.937 290.921 415.867 290.492 415.867 290.599Z" fill="#455A64"/>
<path d="M415.168 303.654C415.168 303.654 414.953 303.762 414.577 303.923C414.201 304.084 413.663 304.245 412.965 304.46C411.568 304.89 409.634 305.481 407.485 306.018C405.336 306.556 403.348 306.932 401.897 307.147C401.199 307.254 400.608 307.361 400.178 307.361C399.748 307.415 399.533 307.415 399.533 307.415C399.533 307.415 399.748 307.361 400.124 307.254C400.554 307.147 401.145 307.039 401.79 306.932C403.187 306.663 405.175 306.233 407.324 305.75C409.473 305.212 411.407 304.675 412.804 304.299C413.448 304.084 413.986 303.977 414.469 303.815C414.953 303.708 415.168 303.654 415.168 303.654Z" fill="#455A64"/>
<path d="M426.183 279.961C426.183 280.015 423.98 280.659 421.186 281.412C418.392 282.11 416.136 282.647 416.082 282.594C416.082 282.54 418.285 281.895 421.079 281.143C423.926 280.391 426.183 279.854 426.183 279.961Z" fill="#455A64"/>
<path d="M420.916 269.914C420.916 269.968 419.949 270.236 418.714 270.451C417.478 270.666 416.457 270.774 416.457 270.72C416.457 270.666 417.424 270.398 418.66 270.183C419.896 269.968 420.916 269.86 420.916 269.914Z" fill="#455A64"/>
<path d="M383.201 273.03C383.148 273.03 383.04 272.117 382.557 270.774C382.073 269.43 381.106 267.658 379.494 266.153C377.882 264.703 376.002 263.897 374.605 263.574C373.208 263.252 372.295 263.252 372.295 263.198C372.295 263.198 372.51 263.144 372.94 263.198C373.369 263.198 373.96 263.252 374.659 263.413C376.056 263.682 378.044 264.488 379.709 265.992C381.375 267.496 382.342 269.323 382.772 270.72C382.987 271.418 383.094 272.009 383.148 272.385C383.201 272.815 383.201 273.03 383.201 273.03Z" fill="#263238"/>
<path d="M414.577 265.885C414.631 265.885 415.061 268.088 415.491 270.774C415.921 273.514 416.243 275.717 416.136 275.717C416.082 275.717 415.652 273.514 415.222 270.828C414.792 268.088 414.47 265.885 414.577 265.885Z" fill="#263238"/>
<path d="M443.912 345.078C443.912 345.078 464.166 350.666 464.972 350.988C466.208 351.418 465.993 355.877 464.113 355.823C463.199 355.77 448.586 356.361 446.705 356.253C444.879 356.146 439.291 353.943 439.291 353.943L443.912 345.078Z" fill="#0160E7"/>
<path d="M452.346 352.761C452.454 352.761 452.561 351.687 453.259 350.612C453.904 349.484 454.764 348.839 454.71 348.732C454.656 348.678 453.689 349.215 452.991 350.451C452.239 351.633 452.292 352.761 452.346 352.761Z" fill="white"/>
<path d="M450.251 351.794C450.358 351.794 450.573 350.88 451.11 349.806C451.648 348.731 452.292 348.033 452.239 347.925C452.185 347.872 451.379 348.516 450.842 349.645C450.197 350.773 450.143 351.794 450.251 351.794Z" fill="white"/>
<path d="M448.263 351.31C448.371 351.31 448.263 350.289 448.747 349.161C449.177 348.033 449.929 347.334 449.875 347.281C449.821 347.227 448.908 347.818 448.478 349.054C447.941 350.236 448.156 351.31 448.263 351.31Z" fill="white"/>
<path d="M448.64 348.678C448.693 348.678 448.854 348.14 448.854 347.173C448.854 346.69 448.801 346.153 448.64 345.508C448.586 345.186 448.478 344.863 448.317 344.595C448.263 344.433 448.156 344.272 447.995 344.111C447.78 343.95 447.458 343.95 447.296 344.165C447.135 344.326 447.028 344.541 447.028 344.756C447.028 344.917 446.974 345.132 447.028 345.293C447.028 345.615 447.082 345.991 447.135 346.26C447.296 346.905 447.511 347.388 447.78 347.818C448.263 348.624 448.64 349.054 448.693 349.054C448.747 349 448.425 348.57 447.995 347.711C447.78 347.281 447.565 346.797 447.458 346.206C447.404 345.938 447.35 345.615 447.35 345.293C447.35 344.971 447.35 344.595 447.511 344.433C447.619 344.38 447.672 344.326 447.78 344.433C447.887 344.487 447.941 344.648 447.995 344.809C448.102 345.132 448.21 345.4 448.317 345.723C448.478 346.314 448.532 346.851 448.586 347.281C448.64 348.087 448.586 348.678 448.64 348.678Z" fill="white"/>
<path d="M448.586 348.463C448.586 348.409 448.102 348.248 447.296 348.248C446.867 348.248 446.383 348.302 445.846 348.409C445.577 348.463 445.309 348.57 445.04 348.732C444.771 348.893 444.449 349.269 444.556 349.645C444.664 350.021 444.986 350.29 445.309 350.343C445.631 350.451 445.953 350.397 446.222 350.343C446.759 350.236 447.189 349.967 447.511 349.699C448.156 349.215 448.478 348.785 448.478 348.785C448.425 348.732 448.049 349.054 447.404 349.537C447.082 349.752 446.652 349.967 446.168 350.075C445.9 350.128 445.631 350.128 445.416 350.075C445.201 350.021 444.986 349.806 444.932 349.591C444.879 349.376 444.986 349.161 445.255 349C445.47 348.839 445.738 348.785 446.007 348.732C446.491 348.57 446.974 348.517 447.35 348.517C448.102 348.463 448.586 348.517 448.586 348.463Z" fill="white"/>
<path d="M455.463 352.976C455.571 352.976 455.463 352.116 455.839 351.149C456.216 350.182 456.914 349.645 456.807 349.591C456.753 349.484 455.947 349.967 455.517 351.042C455.087 352.116 455.41 353.03 455.463 352.976Z" fill="white"/>
<path d="M441.332 353.943C441.332 353.943 441.601 354.104 442.138 354.319C442.675 354.534 443.427 354.803 444.394 355.018C446.329 355.501 449.069 355.77 452.131 355.77C455.14 355.716 457.88 355.609 459.868 355.501C460.781 355.447 461.587 355.394 462.232 355.394C462.769 355.34 463.091 355.34 463.091 355.286C463.091 355.286 462.769 355.233 462.232 355.233C461.587 355.233 460.835 355.233 459.868 355.233C457.826 355.286 455.14 355.34 452.131 355.394C449.122 355.447 446.382 355.179 444.448 354.749C442.514 354.373 441.386 353.889 441.332 353.943Z" fill="white"/>
<path d="M440.742 354.373C440.796 354.426 441.333 354.104 442.247 353.674C443.16 353.298 444.557 352.814 446.061 353.029C447.565 353.244 448.694 354.265 449.392 355.017C450.091 355.769 450.52 356.253 450.574 356.199C450.628 356.199 450.252 355.662 449.607 354.856C449.285 354.48 448.855 353.996 448.264 353.62C447.727 353.191 446.974 352.868 446.169 352.707C444.557 352.438 443.106 352.976 442.193 353.459C441.226 353.943 440.742 354.373 440.742 354.373Z" fill="white"/>
<path d="M419.951 340.35C419.951 340.35 400.771 352.868 400.126 353.406C399.105 354.212 400.287 357.919 402.06 357.274C402.92 356.952 418.984 352.492 420.703 351.848C422.423 351.149 427.097 347.388 427.097 347.388L419.951 340.35Z" fill="#0160E7"/>
<path d="M414.257 350.289C414.364 350.289 413.988 349.161 412.968 348.248C411.947 347.334 410.818 347.066 410.818 347.173C410.765 347.281 411.786 347.657 412.753 348.516C413.72 349.322 414.203 350.343 414.257 350.289Z" fill="white"/>
<path d="M415.975 348.732C416.082 348.678 415.706 347.711 414.793 346.851C413.933 345.938 412.966 345.562 412.913 345.669C412.859 345.777 413.718 346.26 414.524 347.12C415.438 347.926 415.921 348.785 415.975 348.732Z" fill="white"/>
<path d="M417.695 347.603C417.803 347.603 417.695 346.529 416.836 345.508C416.03 344.487 414.955 344.165 414.955 344.272C414.902 344.38 415.815 344.809 416.567 345.723C417.373 346.636 417.642 347.657 417.695 347.603Z" fill="white"/>
<path d="M416.566 345.239C416.619 345.239 416.351 344.702 416.136 343.789C416.028 343.359 415.921 342.822 415.921 342.177C415.921 341.854 415.921 341.532 415.921 341.21C415.921 341.049 415.975 340.887 416.028 340.78C416.082 340.672 416.19 340.672 416.297 340.726C416.512 340.834 416.619 341.21 416.727 341.478C416.834 341.801 416.888 342.069 416.888 342.392C416.942 342.983 416.888 343.52 416.834 344.003C416.727 344.917 416.512 345.454 416.566 345.508C416.619 345.508 416.888 344.971 417.049 344.057C417.157 343.574 417.21 343.036 417.157 342.392C417.157 342.069 417.049 341.747 416.996 341.425C416.942 341.263 416.888 341.102 416.834 340.941C416.781 340.78 416.619 340.565 416.405 340.458C416.19 340.35 415.867 340.404 415.706 340.619C415.599 340.834 415.545 340.995 415.545 341.21C415.545 341.532 415.545 341.908 415.545 342.177C415.599 342.822 415.706 343.359 415.867 343.789C416.19 344.756 416.566 345.239 416.566 345.239Z" fill="white"/>
<path d="M416.567 345.024C416.567 345.078 417.051 344.863 417.803 344.648C418.179 344.541 418.662 344.487 419.2 344.487C419.468 344.487 419.737 344.487 420.005 344.541C420.274 344.594 420.435 344.756 420.489 344.97C420.489 345.185 420.382 345.454 420.167 345.561C419.952 345.723 419.683 345.776 419.468 345.776C418.985 345.83 418.501 345.723 418.125 345.615C417.373 345.4 416.889 345.185 416.889 345.239C416.889 345.293 417.319 345.561 418.071 345.83C418.447 345.991 418.931 346.099 419.522 346.045C419.791 346.045 420.113 345.938 420.382 345.776C420.65 345.615 420.865 345.239 420.865 344.863C420.865 344.433 420.435 344.165 420.167 344.111C419.844 344.057 419.576 344.057 419.307 344.057C418.77 344.111 418.286 344.218 417.91 344.326C416.943 344.702 416.513 344.97 416.567 345.024Z" fill="white"/>
<path d="M404.478 356.576C404.478 356.629 404.801 356.361 404.962 355.823C405.123 355.286 405.016 354.48 404.586 353.728C404.371 353.352 404.156 353.03 403.941 352.761C403.726 352.492 403.511 352.224 403.296 352.063C403.082 351.901 402.867 351.794 402.705 351.794C402.544 351.794 402.437 351.848 402.491 351.848C402.491 351.901 402.813 351.901 403.189 352.224C403.35 352.385 403.565 352.654 403.726 352.922C403.941 353.191 404.156 353.513 404.317 353.836C404.693 354.534 404.801 355.232 404.747 355.716C404.64 356.253 404.478 356.522 404.478 356.576Z" fill="white"/>
<path d="M411.355 351.418C411.462 351.418 411.409 350.451 410.656 349.591C409.904 348.732 408.991 348.517 408.991 348.624C408.937 348.732 409.743 349.054 410.441 349.806C411.086 350.612 411.301 351.418 411.355 351.418Z" fill="white"/>
<path d="M425.11 348.033C425.11 348.033 424.787 348.248 424.25 348.624C423.713 349 422.907 349.538 421.886 350.075C420.865 350.612 419.576 351.203 418.125 351.74C416.675 352.278 415.063 352.815 413.343 353.298C409.905 354.265 406.789 355.179 404.532 355.877C403.458 356.2 402.544 356.468 401.846 356.683C401.201 356.898 400.879 357.006 400.879 357.006C400.879 357.006 401.255 356.952 401.9 356.791C402.598 356.629 403.512 356.361 404.586 356.092C406.843 355.447 409.959 354.588 413.451 353.621C415.17 353.137 416.782 352.6 418.286 352.063C419.737 351.525 421.026 350.881 422.047 350.29C423.068 349.699 423.874 349.161 424.357 348.732C424.895 348.302 425.11 348.033 425.11 348.033Z" fill="white"/>
<path d="M425.807 348.301C425.807 348.248 425.216 348.033 424.196 347.872C423.175 347.71 421.671 347.603 420.166 348.355C419.414 348.731 418.877 349.269 418.447 349.86C418.017 350.397 417.748 350.988 417.534 351.471C417.104 352.438 416.943 353.029 416.996 353.083C417.05 353.083 417.319 352.492 417.748 351.579C418.178 350.665 418.93 349.376 420.327 348.678C421.724 347.979 423.175 348.033 424.196 348.14C425.216 348.194 425.807 348.355 425.807 348.301Z" fill="white"/>
<path d="M459.761 308.973C459.761 308.973 465.51 311.015 465.51 317.462C465.564 329.819 440.581 343.412 440.581 343.412L407.324 321.384L405.229 320.525C405.282 320.578 450.144 303.708 459.761 308.973Z" fill="#263238"/>
<path d="M424.193 332.506C424.193 332.506 424.516 332.291 425.053 331.915C425.59 331.538 426.396 330.947 427.309 330.195C429.19 328.745 431.823 326.649 434.616 324.232C437.41 321.814 439.882 319.611 441.601 317.946C442.46 317.14 443.159 316.441 443.642 315.958C444.126 315.474 444.395 315.206 444.341 315.206C444.341 315.206 444.018 315.42 443.535 315.85C442.998 316.334 442.299 316.979 441.44 317.784C439.667 319.396 437.195 321.599 434.401 324.017C431.608 326.381 429.082 328.53 427.202 330.034C426.289 330.786 425.537 331.377 424.999 331.861C424.462 332.237 424.193 332.506 424.193 332.506Z" fill="#455A64"/>
<path d="M450.413 313.594C450.413 313.486 448.962 313.379 447.189 313.862C445.47 314.346 444.288 315.313 444.342 315.367C444.395 315.474 445.631 314.668 447.297 314.185C448.962 313.701 450.413 313.701 450.413 313.594Z" fill="#455A64"/>
<path d="M447.512 311.66C447.458 311.606 446.437 312.036 445.524 313.164C444.664 314.239 444.395 315.367 444.503 315.421C444.61 315.474 444.986 314.4 445.792 313.379C446.652 312.304 447.565 311.767 447.512 311.66Z" fill="#455A64"/>
<path d="M461.587 350.719C461.587 350.665 461.211 350.612 460.727 350.988C460.297 351.364 459.868 352.062 459.76 352.922C459.653 353.782 459.814 354.534 460.083 355.071C460.297 355.555 460.566 355.823 460.62 355.769C460.674 355.716 460.459 355.447 460.297 354.964C460.136 354.48 459.975 353.728 460.083 352.976C460.19 352.223 460.512 351.525 460.888 351.203C461.265 350.827 461.641 350.773 461.587 350.719Z" fill="#263238"/>
<path d="M457.398 291.458L447.942 316.925C447.405 318.375 446.008 319.343 444.45 319.343L392.389 318.644V314.668L411.73 315.367L419.95 289.954C420.219 289.094 421.025 288.503 421.938 288.503L455.518 288.611C456.968 288.611 457.935 290.115 457.398 291.458Z" fill="#E0E0E0"/>
<path d="M457.398 291.458V291.404C457.398 291.351 457.452 291.297 457.452 291.19C457.505 290.975 457.559 290.652 457.452 290.222C457.344 289.793 457.076 289.309 456.538 288.987C456.27 288.826 455.947 288.718 455.571 288.664C455.195 288.664 454.819 288.664 454.389 288.664C451.112 288.664 446.33 288.664 440.367 288.664C437.358 288.664 434.081 288.664 430.535 288.664C428.762 288.664 426.935 288.664 425.001 288.664C424.034 288.664 423.067 288.664 422.1 288.664C421.616 288.664 421.132 288.718 420.703 288.987C420.273 289.255 420.004 289.631 419.843 290.115C417.372 297.798 414.632 306.34 411.677 315.528V315.581H411.623C405.444 315.367 398.997 315.098 392.281 314.883L392.389 314.776C392.389 314.99 392.389 315.259 392.389 315.474C392.389 316.602 392.389 317.677 392.389 318.698L392.281 318.59C403.94 318.751 415.008 318.912 425.001 319.02C429.997 319.074 434.779 319.127 439.238 319.235C440.367 319.235 441.441 319.289 442.516 319.289C443.053 319.289 443.59 319.289 444.127 319.289C444.665 319.289 445.148 319.235 445.632 319.074C446.599 318.698 447.351 317.945 447.727 317.086C448.05 316.172 448.426 315.259 448.748 314.346C451.381 307.254 453.53 301.559 454.98 297.583C455.732 295.595 456.27 294.091 456.7 293.07C457.183 291.995 457.398 291.458 457.398 291.458C457.398 291.458 457.183 291.995 456.807 293.07C456.431 294.091 455.84 295.649 455.141 297.637C453.691 301.612 451.542 307.307 448.963 314.399C448.641 315.259 448.318 316.172 447.942 317.139C447.566 318.053 446.76 318.859 445.793 319.235C445.309 319.396 444.772 319.503 444.235 319.45C443.698 319.45 443.16 319.45 442.623 319.45C441.549 319.45 440.474 319.396 439.346 319.396C434.887 319.342 430.105 319.289 425.108 319.235C415.061 319.127 403.994 318.966 392.389 318.805H392.281V318.698C392.281 317.677 392.281 316.548 392.281 315.474C392.281 315.205 392.281 314.99 392.281 314.776V314.668H392.389C399.051 314.937 405.552 315.152 411.73 315.367L411.623 315.42C414.578 306.287 417.318 297.744 419.843 290.061C420.004 289.578 420.327 289.148 420.756 288.879C421.186 288.611 421.723 288.503 422.207 288.557C423.174 288.557 424.141 288.557 425.108 288.557C426.989 288.557 428.869 288.557 430.642 288.557C434.188 288.557 437.465 288.557 440.474 288.611C446.438 288.664 451.219 288.664 454.497 288.664C454.927 288.664 455.303 288.664 455.679 288.664C456.055 288.664 456.377 288.826 456.646 288.987C457.183 289.309 457.452 289.846 457.559 290.222C457.667 290.652 457.613 290.975 457.559 291.19C457.452 291.351 457.398 291.458 457.398 291.458Z" fill="#263238"/>
<path d="M434.295 301.076C434.994 300.592 436.23 300.807 436.821 301.344C437.412 301.881 437.627 302.848 437.304 303.601C436.982 304.353 436.23 304.89 435.424 304.944C434.564 304.998 433.651 304.46 433.436 303.601C433.167 302.795 433.436 301.505 434.295 301.076Z" fill="white"/>
<path d="M446.221 344.809C446.221 344.809 399.317 314.776 397.222 313.594C395.449 312.573 390.721 309.672 386.101 310.961C381.426 312.251 377.29 316.388 375.194 322.512C374.012 326.005 373.421 331.915 373.153 336.374C372.83 341.693 374.496 347.012 377.988 351.041C379.546 352.868 381.534 354.48 383.844 355.178C384.328 355.339 384.865 355.447 385.349 355.554C394.213 357.489 403.347 353.513 408.344 345.884L409.418 344.218C409.418 344.218 440.15 355.501 440.633 355.339L446.221 344.809Z" fill="#263238"/>
<path d="M399.641 315.259C399.641 315.259 399.587 315.259 399.533 315.206C399.426 315.152 399.318 315.098 399.211 314.991C398.942 314.776 398.512 314.507 397.921 314.131C396.793 313.433 395.181 312.412 392.925 311.606C391.797 311.23 390.561 310.907 389.164 310.8C387.767 310.746 386.316 310.961 384.866 311.498C383.415 312.036 382.018 312.895 380.729 314.024C380.084 314.561 379.439 315.206 378.902 315.85C378.311 316.495 377.828 317.247 377.398 317.999C376.484 319.557 375.84 321.223 375.356 322.835C374.926 324.447 374.55 326.112 374.228 327.616C373.583 330.679 373.207 333.473 373.153 335.837C373.1 338.201 373.368 340.135 373.583 341.424C373.691 342.069 373.798 342.606 373.852 342.929C373.906 343.09 373.906 343.197 373.906 343.305C373.906 343.412 373.906 343.412 373.906 343.466C373.906 343.466 373.906 343.412 373.852 343.358C373.798 343.251 373.798 343.143 373.744 342.982C373.637 342.66 373.529 342.123 373.422 341.478C373.153 340.189 372.885 338.254 372.885 335.89C372.885 333.526 373.261 330.679 373.906 327.616C374.228 326.058 374.604 324.5 375.034 322.835C375.517 321.169 376.162 319.504 377.075 317.946C377.505 317.14 378.043 316.388 378.634 315.743C379.225 315.098 379.869 314.453 380.514 313.916C381.803 312.788 383.254 311.928 384.758 311.391C386.263 310.854 387.767 310.639 389.164 310.693C390.561 310.8 391.85 311.122 392.979 311.552C395.235 312.412 396.847 313.433 397.975 314.185C398.512 314.561 398.942 314.883 399.211 315.098C399.318 315.206 399.426 315.259 399.533 315.367C399.641 315.206 399.641 315.259 399.641 315.259Z" fill="#455A64"/>
<path d="M388.09 336.32C388.09 336.32 388.197 336.374 388.358 336.428C388.52 336.482 388.788 336.589 389.111 336.75C389.809 337.019 390.83 337.395 392.066 337.878C394.698 338.846 398.459 340.296 403.133 342.069C407.861 343.842 413.449 345.884 419.789 348.194C426.128 350.504 433.113 353.029 440.581 355.555L440.742 355.608L440.796 355.501C441.978 353.244 443.213 350.88 444.449 348.516C445.094 347.281 445.739 346.099 446.33 344.917L446.383 344.755L446.276 344.648C432.146 335.676 419.574 327.67 410.44 321.922C405.873 319.074 402.22 316.764 399.695 315.152C398.459 314.346 397.438 313.755 396.794 313.325C397.492 313.755 398.459 314.4 399.695 315.206C402.22 316.818 405.873 319.182 410.386 322.083C419.466 327.885 432.092 335.944 446.168 344.917L446.115 344.702C445.524 345.83 444.879 347.066 444.234 348.301C442.998 350.719 441.763 353.083 440.581 355.286L440.796 355.178C433.328 352.653 426.29 350.128 420.003 347.872C413.664 345.561 408.022 343.52 403.348 341.801C398.674 340.081 394.859 338.684 392.227 337.717C390.937 337.234 389.917 336.858 389.218 336.643C388.896 336.535 388.627 336.428 388.412 336.374C388.197 336.374 388.09 336.32 388.09 336.32Z" fill="#455A64"/>
<path d="M390.508 236.604C389.702 234.992 388.842 233.38 388.412 231.607C387.982 229.834 387.929 227.954 388.681 226.288C389.111 225.321 389.809 224.461 390.131 223.494C390.615 222.097 390.4 220.486 391.26 219.304C392.603 217.477 395.45 217.907 397.492 216.94C399.104 216.188 400.232 214.576 401.898 214.038C403.348 213.555 404.96 214.038 406.411 214.629C407.808 215.22 409.204 216.026 410.763 216.188C411.837 216.349 412.965 216.188 414.04 216.188C415.168 216.188 416.296 216.456 417.102 217.262C417.854 218.068 418.016 219.465 417.21 220.217C419.144 219.895 420.971 221.829 420.917 223.763C420.917 225.697 419.413 227.416 417.64 228.276C415.867 229.082 413.825 229.136 411.891 228.975C406.357 228.545 400.823 226.449 397.062 222.366" fill="#0160E7"/>
<path d="M391.744 229.727L387.983 257.02C387.338 261.64 390.723 265.885 395.397 266.315C399.749 266.691 403.671 263.574 404.262 259.223C404.531 257.181 404.8 255.462 404.8 255.247C404.8 255.247 411.838 255.569 413.288 248.746C413.987 245.469 414.9 238.538 415.599 232.306C416.405 225.59 411.891 219.411 405.229 218.068L404.585 217.961C397.385 216.94 392.55 222.527 391.744 229.727Z" fill="#FFBE9D"/>
<path d="M404.799 255.193C404.799 255.193 400.394 254.656 396.418 250.895C396.418 250.895 397.546 256.214 404.477 256.966L404.799 255.193Z" fill="#EB996E"/>
<path d="M412.537 238.108C412.429 238.645 411.946 238.968 411.408 238.914C410.871 238.86 410.495 238.377 410.602 237.84C410.71 237.302 411.193 236.98 411.731 237.034C412.268 237.141 412.644 237.625 412.537 238.108Z" fill="#263238"/>
<path d="M413.45 235.368C413.289 235.475 412.697 234.777 411.623 234.562C410.602 234.347 409.689 234.723 409.635 234.562C409.581 234.508 409.743 234.293 410.119 234.132C410.495 233.971 411.086 233.81 411.784 233.971C412.429 234.079 412.966 234.455 413.181 234.777C413.45 235.099 413.557 235.314 413.45 235.368Z" fill="#263238"/>
<path d="M402.757 236.443C402.65 236.98 402.166 237.302 401.629 237.249C401.092 237.195 400.716 236.711 400.823 236.174C400.931 235.637 401.414 235.314 401.951 235.368C402.435 235.422 402.811 235.905 402.757 236.443Z" fill="#263238"/>
<path d="M403.081 233.541C402.919 233.649 402.328 232.95 401.254 232.735C400.233 232.52 399.32 232.897 399.266 232.735C399.212 232.682 399.373 232.467 399.749 232.306C400.126 232.144 400.717 231.983 401.415 232.144C402.06 232.306 402.543 232.628 402.812 232.95C403.134 233.219 403.188 233.488 403.081 233.541Z" fill="#263238"/>
<path d="M405.338 242.084C405.338 242.03 406.036 242.03 407.111 242.137C407.38 242.137 407.648 242.137 407.756 241.976C407.863 241.815 407.809 241.493 407.756 241.17C407.648 240.472 407.487 239.72 407.38 238.967C406.842 235.851 406.52 233.272 406.681 233.272C406.788 233.272 407.326 235.744 407.863 238.914C407.97 239.666 408.078 240.418 408.185 241.117C408.239 241.439 408.347 241.815 408.132 242.191C408.024 242.352 407.809 242.46 407.594 242.513C407.433 242.513 407.272 242.513 407.111 242.46C406.036 242.245 405.338 242.137 405.338 242.084Z" fill="#263238"/>
<path d="M402.113 242.191C402.275 242.191 402.06 243.373 402.866 244.34C403.672 245.361 404.907 245.469 404.907 245.63C404.907 245.684 404.585 245.791 404.101 245.684C403.618 245.576 402.919 245.308 402.382 244.663C401.899 244.072 401.737 243.32 401.791 242.836C401.845 242.406 402.06 242.138 402.113 242.191Z" fill="#263238"/>
<path d="M404.209 229.458C404.048 229.727 403.027 229.404 401.791 229.297C400.555 229.189 399.481 229.35 399.373 229.028C399.32 228.867 399.534 228.652 400.018 228.437C400.448 228.222 401.146 228.115 401.898 228.168C402.651 228.222 403.295 228.491 403.725 228.759C404.101 229.082 404.262 229.35 404.209 229.458Z" fill="#0160E7"/>
<path d="M413.665 232.252C413.45 232.467 412.752 232.037 411.892 231.876C411.033 231.661 410.281 231.714 410.119 231.446C410.066 231.285 410.227 231.07 410.603 230.908C410.979 230.747 411.516 230.694 412.107 230.801C412.698 230.962 413.182 231.285 413.451 231.553C413.719 231.876 413.773 232.144 413.665 232.252Z" fill="#0160E7"/>
<path d="M391.26 234.885C391.153 234.831 386.855 232.574 386.049 237.249C385.243 241.923 390.132 241.762 390.186 241.654C390.239 241.493 391.26 234.885 391.26 234.885Z" fill="#FFBE9D"/>
<path d="M389.058 239.613C389.058 239.613 388.951 239.666 388.843 239.72C388.682 239.774 388.467 239.774 388.252 239.613C387.769 239.344 387.5 238.484 387.607 237.625C387.661 237.195 387.822 236.819 388.037 236.496C388.252 236.174 388.521 235.959 388.736 235.959C389.004 235.959 389.165 236.12 389.165 236.281C389.219 236.443 389.165 236.496 389.165 236.55C389.165 236.55 389.273 236.496 389.273 236.281C389.273 236.174 389.219 236.067 389.112 235.959C389.004 235.852 388.843 235.798 388.682 235.744C388.306 235.69 387.93 236.013 387.715 236.335C387.446 236.658 387.285 237.141 387.231 237.625C387.124 238.592 387.446 239.559 388.091 239.827C388.413 239.989 388.682 239.935 388.843 239.827C389.004 239.72 389.058 239.613 389.058 239.613Z" fill="#EB996E"/>
<path d="M416.941 225.966C416.135 227.685 411.998 228.384 408.935 227.47C406.142 226.611 405.121 224.838 403.348 223.28C402.22 222.313 402.22 222.313 400.393 222.098C398.889 221.936 397.707 223.441 396.578 224.408C397.223 228.169 395.558 231.822 393.946 235.261C393.785 235.637 393.57 236.067 393.194 236.228C392.549 236.55 391.797 236.067 391.421 235.422C390.83 234.455 390.722 233.273 390.776 232.144C390.83 229.566 391.259 226.933 392.334 224.569C393.408 222.205 395.074 220.056 397.223 218.659C399.963 216.94 403.402 216.403 406.572 217.101C409.741 217.799 412.589 219.572 414.792 222.044C415.759 223.226 416.618 224.515 416.941 225.966Z" fill="#0160E7"/>
<path d="M407.377 237.356C407.431 237.356 407.377 236.926 407.592 236.281C407.753 235.583 408.237 234.616 409.257 233.864C410.224 233.111 411.836 232.682 413.394 233.273C414.146 233.541 414.899 234.078 415.436 234.777C415.973 235.475 416.296 236.389 416.296 237.356C416.296 238.323 415.973 239.236 415.436 239.935C414.899 240.633 414.2 241.17 413.394 241.439C411.836 242.03 410.224 241.6 409.257 240.848C408.237 240.096 407.753 239.129 407.592 238.43C407.431 237.732 407.431 237.356 407.377 237.356C407.377 237.356 407.377 237.463 407.377 237.624C407.377 237.839 407.377 238.108 407.484 238.484C407.646 239.183 408.075 240.257 409.15 241.063C410.171 241.869 411.89 242.406 413.609 241.761C414.469 241.493 415.221 240.902 415.812 240.15C416.403 239.397 416.725 238.377 416.725 237.356C416.725 236.335 416.403 235.314 415.812 234.562C415.221 233.756 414.469 233.219 413.609 232.95C411.89 232.359 410.171 232.843 409.15 233.649C408.075 234.455 407.646 235.529 407.484 236.228C407.431 236.604 407.377 236.872 407.377 237.087C407.377 237.248 407.377 237.356 407.377 237.356Z" fill="#263238"/>
<path d="M396.255 235.368C396.309 235.368 396.255 234.938 396.47 234.293C396.631 233.595 397.115 232.628 398.136 231.876C399.103 231.124 400.714 230.694 402.273 231.285C403.025 231.553 403.777 232.091 404.314 232.789C404.851 233.488 405.174 234.401 405.174 235.368C405.174 236.335 404.851 237.248 404.314 237.947C403.777 238.645 403.078 239.183 402.273 239.451C400.714 240.042 399.103 239.612 398.136 238.86C397.115 238.108 396.631 237.141 396.47 236.443C396.255 235.798 396.255 235.368 396.255 235.368C396.255 235.368 396.255 235.475 396.255 235.637C396.255 235.852 396.255 236.12 396.363 236.496C396.524 237.195 396.954 238.269 398.028 239.075C399.049 239.881 400.768 240.418 402.487 239.774C403.347 239.505 404.099 238.914 404.69 238.162C405.281 237.41 405.604 236.389 405.604 235.368C405.604 234.347 405.281 233.326 404.69 232.574C404.099 231.768 403.347 231.231 402.487 230.962C400.768 230.371 399.049 230.855 398.028 231.661C396.954 232.467 396.524 233.541 396.363 234.24C396.309 234.616 396.255 234.884 396.255 235.099C396.201 235.314 396.201 235.368 396.255 235.368Z" fill="#263238"/>
<path d="M405.443 235.529C405.497 235.637 406.088 235.368 406.786 235.583C407.485 235.798 407.807 236.335 407.915 236.282C407.968 236.282 407.915 236.067 407.753 235.852C407.592 235.637 407.27 235.314 406.84 235.207C406.41 235.1 405.98 235.153 405.765 235.261C405.497 235.368 405.389 235.529 405.443 235.529Z" fill="#263238"/>
<path d="M389.916 234.186C389.916 234.294 391.42 234.347 393.247 234.347C395.074 234.347 396.578 234.24 396.578 234.132C396.578 234.025 395.074 233.971 393.247 233.971C391.42 233.971 389.916 234.079 389.916 234.186Z" fill="#263238"/>
<path d="M419.145 221.506C419.145 221.506 419.145 221.668 419.091 221.936C418.983 222.205 418.769 222.581 418.392 222.957C418.016 223.279 417.372 223.548 416.727 223.655C416.028 223.763 415.276 223.655 414.47 223.548C412.912 223.333 411.515 223.011 410.495 222.742C410.011 222.635 409.581 222.473 409.313 222.42C409.205 222.366 409.098 222.366 408.99 222.312C408.937 222.312 408.883 222.259 408.883 222.259C408.883 222.259 408.937 222.259 408.99 222.259C409.098 222.259 409.205 222.312 409.313 222.366C409.635 222.473 410.065 222.527 410.495 222.688C411.515 222.957 412.912 223.226 414.47 223.441C415.276 223.548 416.028 223.655 416.673 223.548C417.372 223.494 417.909 223.226 418.339 222.903C418.715 222.581 418.983 222.205 419.037 221.936C419.145 221.668 419.145 221.506 419.145 221.506Z" fill="white"/>
<path d="M420.164 222.581C420.164 222.581 420.11 223.118 419.788 223.87C419.466 224.623 418.714 225.59 417.639 226.288C416.511 226.933 415.329 227.094 414.523 227.04C413.663 226.987 413.18 226.772 413.18 226.772C413.18 226.772 413.287 226.772 413.556 226.825C413.771 226.879 414.093 226.933 414.523 226.933C415.329 226.987 416.511 226.772 417.585 226.127C418.66 225.482 419.358 224.515 419.734 223.763C419.896 223.387 420.057 223.065 420.11 222.85C420.164 222.689 420.164 222.581 420.164 222.581Z" fill="white"/>
</g>
<defs>
<linearGradient id="paint0_linear_1629_28234" x1="313.316" y1="0.205078" x2="313.316" y2="500.205" gradientUnits="userSpaceOnUse">
<stop stop-color="#0160E7"/>
<stop offset="1" stop-color="#013681"/>
</linearGradient>
<linearGradient id="paint1_linear_1629_28234" x1="172.62" y1="152.36" x2="172.62" y2="207.162" gradientUnits="userSpaceOnUse">
<stop stop-color="#0160E7"/>
<stop offset="1" stop-color="#013681"/>
</linearGradient>
<linearGradient id="paint2_linear_1629_28234" x1="260.811" y1="125.712" x2="260.811" y2="154.348" gradientUnits="userSpaceOnUse">
<stop stop-color="#0160E7"/>
<stop offset="1" stop-color="#013681"/>
</linearGradient>
<linearGradient id="paint3_linear_1629_28234" x1="489.145" y1="153.435" x2="489.145" y2="163.912" gradientUnits="userSpaceOnUse">
<stop stop-color="#0160E7"/>
<stop offset="1" stop-color="#013681"/>
</linearGradient>
<linearGradient id="paint4_linear_1629_28234" x1="471.426" y1="153.435" x2="471.426" y2="163.912" gradientUnits="userSpaceOnUse">
<stop stop-color="#0160E7"/>
<stop offset="1" stop-color="#013681"/>
</linearGradient>
<linearGradient id="paint5_linear_1629_28234" x1="480.313" y1="150.802" x2="480.313" y2="166.384" gradientUnits="userSpaceOnUse">
<stop stop-color="#0160E7"/>
<stop offset="1" stop-color="#013681"/>
</linearGradient>
<linearGradient id="paint6_linear_1629_28234" x1="480.419" y1="142.26" x2="480.419" y2="174.012" gradientUnits="userSpaceOnUse">
<stop stop-color="#0160E7"/>
<stop offset="1" stop-color="#013681"/>
</linearGradient>
<linearGradient id="paint7_linear_1629_28234" x1="480.554" y1="146.88" x2="480.554" y2="147.203" gradientUnits="userSpaceOnUse">
<stop stop-color="#0160E7"/>
<stop offset="1" stop-color="#013681"/>
</linearGradient>
<linearGradient id="paint8_linear_1629_28234" x1="463.684" y1="144.194" x2="463.684" y2="145.268" gradientUnits="userSpaceOnUse">
<stop stop-color="#0160E7"/>
<stop offset="1" stop-color="#013681"/>
</linearGradient>
<linearGradient id="paint9_linear_1629_28234" x1="465.565" y1="144.194" x2="465.565" y2="145.268" gradientUnits="userSpaceOnUse">
<stop stop-color="#0160E7"/>
<stop offset="1" stop-color="#013681"/>
</linearGradient>
<linearGradient id="paint10_linear_1629_28234" x1="467.498" y1="144.194" x2="467.498" y2="145.268" gradientUnits="userSpaceOnUse">
<stop stop-color="#0160E7"/>
<stop offset="1" stop-color="#013681"/>
</linearGradient>
<linearGradient id="paint11_linear_1629_28234" x1="495.439" y1="311.532" x2="495.439" y2="320.56" gradientUnits="userSpaceOnUse">
<stop stop-color="#0160E7"/>
<stop offset="1" stop-color="#013681"/>
</linearGradient>
<linearGradient id="paint12_linear_1629_28234" x1="489.636" y1="282.466" x2="489.636" y2="303.972" gradientUnits="userSpaceOnUse">
<stop stop-color="#0160E7"/>
<stop offset="1" stop-color="#013681"/>
</linearGradient>
<linearGradient id="paint13_linear_1629_28234" x1="474.808" y1="288.695" x2="474.808" y2="306.466" gradientUnits="userSpaceOnUse">
<stop stop-color="#0160E7"/>
<stop offset="1" stop-color="#013681"/>
</linearGradient>
<linearGradient id="paint14_linear_1629_28234" x1="485.979" y1="337.771" x2="485.979" y2="351.149" gradientUnits="userSpaceOnUse">
<stop stop-color="#0160E7"/>
<stop offset="1" stop-color="#013681"/>
</linearGradient>
<linearGradient id="paint15_linear_1629_28234" x1="474.75" y1="335.138" x2="497.638" y2="335.138" gradientUnits="userSpaceOnUse">
<stop stop-color="#0160E7"/>
<stop offset="1" stop-color="#013681"/>
</linearGradient>
<linearGradient id="paint16_linear_1629_28234" x1="485.979" y1="350.666" x2="485.979" y2="352.116" gradientUnits="userSpaceOnUse">
<stop stop-color="#0160E7"/>
<stop offset="1" stop-color="#013681"/>
</linearGradient>
<linearGradient id="paint17_linear_1629_28234" x1="314.322" y1="165.47" x2="314.322" y2="352.17" gradientUnits="userSpaceOnUse">
<stop stop-color="#0160E7"/>
<stop offset="1" stop-color="#013681"/>
</linearGradient>
<linearGradient id="paint18_linear_1629_28234" x1="161.416" y1="346.529" x2="467.228" y2="346.529" gradientUnits="userSpaceOnUse">
<stop stop-color="#0160E7"/>
<stop offset="1" stop-color="#013681"/>
</linearGradient>
<linearGradient id="paint19_linear_1629_28234" x1="314.295" y1="182.071" x2="314.295" y2="330.572" gradientUnits="userSpaceOnUse">
<stop stop-color="#1D8FFB"/>
<stop offset="1" stop-color="#115595"/>
</linearGradient>
<linearGradient id="paint20_linear_1629_28234" x1="156.393" y1="287.478" x2="156.393" y2="297.691" gradientUnits="userSpaceOnUse">
<stop stop-color="#0160E7"/>
<stop offset="1" stop-color="#013681"/>
</linearGradient>
<linearGradient id="paint21_linear_1629_28234" x1="156.811" y1="236.711" x2="156.811" y2="261.318" gradientUnits="userSpaceOnUse">
<stop stop-color="#0160E7"/>
<stop offset="1" stop-color="#013681"/>
</linearGradient>
<linearGradient id="paint22_linear_1629_28234" x1="155.642" y1="257.396" x2="155.642" y2="277.705" gradientUnits="userSpaceOnUse">
<stop stop-color="#0160E7"/>
<stop offset="1" stop-color="#013681"/>
</linearGradient>
<linearGradient id="paint23_linear_1629_28234" x1="152.848" y1="271.473" x2="152.848" y2="280.76" gradientUnits="userSpaceOnUse">
<stop stop-color="#0160E7"/>
<stop offset="1" stop-color="#013681"/>
</linearGradient>
<linearGradient id="paint24_linear_1629_28234" x1="172.05" y1="248.102" x2="172.05" y2="270.398" gradientUnits="userSpaceOnUse">
<stop stop-color="#0160E7"/>
<stop offset="1" stop-color="#013681"/>
</linearGradient>
<linearGradient id="paint25_linear_1629_28234" x1="179.741" y1="273.89" x2="179.741" y2="287.483" gradientUnits="userSpaceOnUse">
<stop stop-color="#0160E7"/>
<stop offset="1" stop-color="#013681"/>
</linearGradient>
<linearGradient id="paint26_linear_1629_28234" x1="193.868" y1="260.458" x2="193.868" y2="279.102" gradientUnits="userSpaceOnUse">
<stop stop-color="#0160E7"/>
<stop offset="1" stop-color="#013681"/>
</linearGradient>
<linearGradient id="paint27_linear_1629_28234" x1="191.72" y1="287.913" x2="191.72" y2="295.131" gradientUnits="userSpaceOnUse">
<stop stop-color="#0160E7"/>
<stop offset="1" stop-color="#013681"/>
</linearGradient>
<linearGradient id="paint28_linear_1629_28234" x1="194.192" y1="313.975" x2="194.192" y2="329.229" gradientUnits="userSpaceOnUse">
<stop stop-color="#0160E7"/>
<stop offset="1" stop-color="#013681"/>
</linearGradient>
<linearGradient id="paint29_linear_1629_28234" x1="166.19" y1="307.738" x2="166.19" y2="324.071" gradientUnits="userSpaceOnUse">
<stop stop-color="#0160E7"/>
<stop offset="1" stop-color="#013681"/>
</linearGradient>
<linearGradient id="paint30_linear_1629_28234" x1="154.021" y1="304.783" x2="154.021" y2="321.267" gradientUnits="userSpaceOnUse">
<stop stop-color="#0160E7"/>
<stop offset="1" stop-color="#013681"/>
</linearGradient>
<linearGradient id="paint31_linear_1629_28234" x1="143.715" y1="303.315" x2="143.715" y2="309.35" gradientUnits="userSpaceOnUse">
<stop stop-color="#0160E7"/>
<stop offset="1" stop-color="#013681"/>
</linearGradient>
<linearGradient id="paint32_linear_1629_28234" x1="173.775" y1="328.208" x2="173.775" y2="354.695" gradientUnits="userSpaceOnUse">
<stop stop-color="#0160E7"/>
<stop offset="1" stop-color="#013681"/>
</linearGradient>
<linearGradient id="paint33_linear_1629_28234" x1="377.72" y1="150.48" x2="377.72" y2="256.912" gradientUnits="userSpaceOnUse">
<stop stop-color="#0160E7"/>
<stop offset="1" stop-color="#013681"/>
</linearGradient>
<linearGradient id="paint34_linear_1629_28234" x1="477.6" y1="186.96" x2="477.6" y2="272.547" gradientUnits="userSpaceOnUse">
<stop stop-color="#0160E7"/>
<stop offset="1" stop-color="#013681"/>
</linearGradient>
<clipPath id="clip0_1629_28234">
<rect width="377" height="231.723" fill="white" transform="translate(131.545 125.604)"/>
</clipPath>
</defs>
</svg>
