<svg width="251" height="251" viewBox="0 0 251 251" fill="none" xmlns="http://www.w3.org/2000/svg">
<rect x="0.743713" y="0.407715" width="250" height="250" fill="white"/>
<path d="M53.9337 210.206C50.6812 210.206 49.7356 208.312 49.7356 205.475C49.7356 204.529 49.8543 203.462 50.0006 202.338C50.7131 197.432 52.4525 194.624 56.6506 194.624C59.49 194.624 60.8743 195.894 60.8743 198.2V199.325H63.6912C63.7225 199.325 63.7225 198.29 63.7225 198.054C63.7225 194.684 61.6818 191.488 56.655 191.488C49.8243 191.488 47.0156 195.198 45.9806 202.473C45.8325 203.449 45.7437 204.36 45.7437 205.333C45.7437 209.62 47.4306 213.52 53.4618 213.52C58.0443 213.52 60.7662 211.286 62.3618 208.536L59.6706 206.723C57.9268 209.474 56.0331 210.206 53.9337 210.206ZM72.415 196.663C66.9437 196.663 64.58 199.471 63.7818 205.058C63.6881 205.705 63.638 206.357 63.6318 207.011C63.6318 210.617 65.3175 213.487 69.9881 213.487C75.4593 213.487 77.855 210.559 78.6531 205.058C78.7418 204.35 78.8012 203.699 78.8012 203.049C78.8025 199.383 77.0587 196.663 72.415 196.663ZM74.6918 205.06C74.1 209.112 72.83 210.354 70.4331 210.354C68.5125 210.354 67.5668 209.555 67.5668 207.16C67.5668 206.568 67.6268 205.86 67.7443 205.06C68.3362 201.04 69.5187 199.798 71.9431 199.798C73.895 199.798 74.8693 200.596 74.8693 203.02C74.8693 203.612 74.8093 204.292 74.6918 205.06ZM92.5543 191.782L91.6387 197.21C91.58 197.682 91.61 197.525 91.7887 197.968C90.9312 197.318 89.3925 196.888 88.3575 196.888C83.4487 196.888 80.7 199.11 79.8137 205.32C79.7102 205.975 79.6607 206.638 79.6656 207.302C79.6656 211.827 82.3262 213.514 85.9031 213.514C87.4131 213.514 88.8906 213.545 90.0425 212.571L90.3368 214.41H93.1762L96.4875 191.782H92.5543ZM89.7456 209.495C88.4162 210.292 87.1162 210.472 86.3181 210.472C84.1593 210.472 83.5681 209.347 83.5681 207.545C83.5681 206.864 83.6568 206.068 83.7762 205.208C84.455 200.507 85.9637 199.678 87.9156 199.678C89.1856 199.678 90.1606 199.886 91.0793 200.39L89.7456 209.495ZM105.122 196.663C99.71 196.663 97.1693 199.234 96.3106 205.058C96.2206 205.769 96.1612 206.45 96.1612 207.1C96.1612 211.092 98.2025 213.487 102.695 213.487C106.184 213.487 108.789 212.037 110.177 209.376L107.191 208.163C106.334 209.463 105.181 210.351 103.141 210.351C100.953 210.351 100.066 209.762 100.066 207.81C100.066 207.425 100.096 206.866 100.155 206.866H110.827C110.977 205.357 111.152 204.291 111.152 203.407C111.152 200.452 110.03 196.663 105.122 196.663V196.663ZM107.162 203.85H100.657C101.309 202.342 102.401 200.007 104.649 200.007C106.392 200.007 107.251 201.026 107.251 202.77C107.249 203.066 107.222 203.85 107.162 203.85ZM122.531 196.307L122.886 193.29H114.546L114.193 196.307H116.381L114.017 211.393H111.826L111.474 214.41H119.811L120.167 211.393H117.978L120.342 196.307H122.531ZM139.475 200.833L140.541 197.816H137.672L135.604 198.243C134.451 197.505 132.883 196.952 131.406 196.952C127.176 196.952 123.571 198.994 123.571 203.637C123.571 204.94 124.043 205.991 124.604 206.702C123.719 207.173 122.949 207.964 122.949 209.03C122.949 209.503 123.126 209.987 123.482 210.429C121.706 211.495 120.616 213.262 120.616 215.33C120.616 219.324 124.784 220.176 127.977 220.176C131.997 220.176 136.789 219.257 136.789 214.142C136.789 212.398 135.695 211.035 132.531 210.444L126.825 209.378C126.175 209.258 126.027 209.052 126.027 208.756C126.027 208.312 126.296 208.077 126.737 208.077L127.122 208.136C127.891 208.313 128.778 208.403 129.694 208.403C133.805 208.403 137.471 206.628 137.471 202.015C137.471 201.364 137.353 200.923 137.057 200.213C137.559 200.45 138.211 200.835 138.475 200.835H139.475V200.833ZM131.346 213.072C132.468 213.28 132.852 213.693 132.852 214.433C132.852 216.828 130.279 217.124 128.417 217.124C125.579 217.124 124.515 216.445 124.515 214.935C124.515 213.604 124.898 212.985 125.787 212.037L131.346 213.072ZM130.131 205.327C128.416 205.327 127.47 204.707 127.47 203.227C127.47 201.04 128.742 199.768 130.959 199.768C132.734 199.768 133.592 200.507 133.592 201.954C133.592 204.143 132.349 205.327 130.131 205.327ZM149.979 196.663C148.323 196.663 146.846 197.476 145.012 198.923L144.746 197.816H141.492L139.216 214.41H143.149L144.864 201.826C146.018 201.117 147.436 200.087 148.649 200.087C150.126 200.087 150.66 200.8 150.66 202.159C150.66 202.485 150.629 203.449 150.569 203.803L149.122 214.41H153.056L154.502 203.717C154.562 203.217 154.621 202.393 154.621 201.921C154.623 199.108 153.291 196.663 149.979 196.663ZM162.092 210.253L162.122 209.847L163.836 197.816H157.301L156.889 200.833H159.755C159.518 200.833 159.371 201.097 159.342 201.335L158.159 209.348C158.1 209.733 158.071 210.536 158.071 210.859C158.071 212.928 159.194 214.41 161.499 214.41H163.51L163.954 211.393H162.683C162.238 211.393 162.092 210.607 162.092 210.253ZM164.634 191.782H160.79C160.553 191.782 160.553 190.911 160.524 191.207L159.991 195.458C159.96 195.725 159.96 196.308 160.197 196.308H164.042C164.279 196.308 164.279 195.274 164.308 195.005L164.842 191.724C164.872 191.428 164.872 191.782 164.634 191.782ZM172.653 210.353C171.679 210.353 171.205 209.939 171.205 209.053L171.235 208.993L172.477 200.833H176.971L178.33 197.816H172.89L173.806 191.177L169.668 192.5L168.927 197.816H166.533L166.12 200.833H168.899C168.633 202.342 168.366 201.363 168.337 201.66L167.272 208.815C167.214 209.141 167.214 209.377 167.214 209.672C167.214 212.481 169.283 213.532 171.769 213.532C174.074 213.532 175.937 212.859 177.387 211.645L175.553 209.388C174.634 209.949 174.014 210.353 172.653 210.353ZM187.082 196.663C181.672 196.663 179.129 199.234 178.271 205.058C178.182 205.769 178.123 206.45 178.123 207.1C178.123 211.092 180.163 213.487 184.657 213.487C188.146 213.487 190.751 212.037 192.138 209.376L189.152 208.163C188.296 209.463 187.142 210.351 185.101 210.351C182.914 210.351 182.026 209.762 182.026 207.81C182.026 207.425 182.057 206.866 182.117 206.866H192.79C192.937 205.357 193.115 204.291 193.115 203.407C193.115 200.452 191.992 196.663 187.082 196.663V196.663ZM189.124 203.85H182.619C183.269 202.342 184.361 200.007 186.611 200.007C188.354 200.007 189.213 201.026 189.213 202.77C189.211 203.066 189.182 203.85 189.124 203.85ZM203.997 196.663C202.577 196.663 201.247 197.477 199.916 198.745L199.679 197.816H196.428L194.151 214.41H198.113L199.857 201.56C200.892 200.94 202.075 200.411 203.199 200.411C203.909 200.411 204.588 200.298 205.238 200.386L205.744 196.958C205.149 196.84 204.558 196.663 203.997 196.663V196.663ZM103.581 179.896C94.6312 176.027 86.2562 166.195 86.2362 156.134C86.2118 145.165 93.1631 135.853 101.809 129.733C100.769 133.66 100.202 137.252 102.777 140.764C105.171 144.03 109.364 145.617 113.322 144.755C122.572 142.73 122.997 132.562 117.513 126.637C112.091 120.77 106.846 114.143 108.91 105.635C109.943 101.37 112.562 97.3753 115.879 94.5196C113.329 101.221 120.576 107.83 125.35 111.122C133.632 116.833 142.719 121.149 150.334 127.844C158.344 134.88 164.259 144.394 163.064 155.428C161.77 167.388 152.266 175.707 141.606 179.906C164.132 174.934 187.408 157.451 187.885 132.468C188.28 111.915 174.181 96.0978 156.715 87.0422L155.802 86.544C156.282 87.7071 156.439 88.6965 156.421 89.5821C156.577 88.929 156.683 88.2578 156.713 87.5653C156.709 88.388 156.601 89.2069 156.393 90.0028L156.421 89.5821C156.161 90.6733 155.724 91.7145 155.127 92.664L155.384 92.3884C151.899 98.1678 142.466 99.4228 137.806 93.4384C130.315 83.8121 137.963 73.4334 139.033 63.2396C140.372 50.464 132.361 38.0615 122.427 30.6396C127.898 39.4903 120.69 51.1996 114.923 57.7459C109.331 64.0915 102.531 69.3896 96.3575 75.1553C89.7262 81.3478 83.3512 87.8709 77.9006 95.139C66.9993 109.687 60.3256 127.983 65.23 146.132C70.1312 164.268 85.8412 175.813 103.582 179.895L103.581 179.896Z" fill="#EE4323"/>
</svg>
