<svg width="251" height="251" viewBox="0 0 251 251" fill="none" xmlns="http://www.w3.org/2000/svg">
<rect x="0.459961" y="0.77124" width="250" height="250" fill="white"/>
<path d="M59.499 173.288C68.2421 173.288 75.3379 166.192 75.3379 157.449V141.61H59.499C50.7559 141.61 43.6601 148.706 43.6601 157.449C43.6601 166.192 50.7559 173.288 59.499 173.288Z" fill="#0ACF83"/>
<path d="M43.6601 125.771C43.6601 117.028 50.7559 109.932 59.499 109.932H75.3379V141.61H59.499C50.7559 141.61 43.6601 134.514 43.6601 125.771Z" fill="#A259FF"/>
<path d="M43.6601 94.0934C43.6601 85.3503 50.7559 78.2545 59.499 78.2545H75.3379V109.932H59.499C50.7559 109.932 43.6601 102.837 43.6601 94.0934Z" fill="#F24E1E"/>
<path d="M75.3379 78.2545H91.1768C99.9199 78.2545 107.016 85.3503 107.016 94.0934C107.016 102.837 99.9199 109.932 91.1768 109.932H75.3379V78.2545Z" fill="#FF7262"/>
<path d="M107.016 125.771C107.016 134.514 99.9199 141.61 91.1768 141.61C82.4337 141.61 75.3379 134.514 75.3379 125.771C75.3379 117.028 82.4337 109.932 91.1768 109.932C99.9199 109.932 107.016 117.028 107.016 125.771Z" fill="#1ABCFE"/>
<path d="M115.613 137.65V113.46H130.614V116.602H119.263V123.972H129.539V127.103H119.263V137.65H115.613Z" fill="black"/>
<path d="M134.819 137.65V119.508H138.35V137.65H134.819ZM136.602 116.708C135.988 116.708 135.46 116.504 135.02 116.094C134.586 115.677 134.37 115.181 134.37 114.606C134.37 114.023 134.586 113.527 135.02 113.118C135.46 112.7 135.988 112.492 136.602 112.492C137.216 112.492 137.74 112.7 138.173 113.118C138.614 113.527 138.835 114.023 138.835 114.606C138.835 115.181 138.614 115.677 138.173 116.094C137.74 116.504 137.216 116.708 136.602 116.708Z" fill="black"/>
<path d="M150.708 144.832C149.267 144.832 148.027 144.643 146.988 144.265C145.956 143.887 145.114 143.387 144.46 142.765C143.806 142.143 143.318 141.462 142.995 140.721L146.031 139.469C146.244 139.816 146.527 140.182 146.881 140.568C147.244 140.962 147.732 141.296 148.346 141.572C148.968 141.848 149.767 141.985 150.744 141.985C152.082 141.985 153.189 141.659 154.063 141.005C154.937 140.359 155.374 139.328 155.374 137.91V134.343H155.15C154.937 134.729 154.63 135.158 154.228 135.631C153.835 136.103 153.291 136.513 152.598 136.859C151.905 137.206 151.004 137.379 149.893 137.379C148.46 137.379 147.169 137.044 146.019 136.375C144.877 135.698 143.972 134.701 143.302 133.386C142.641 132.063 142.31 130.437 142.31 128.508C142.31 126.579 142.637 124.925 143.291 123.547C143.952 122.169 144.858 121.114 146.007 120.382C147.157 119.642 148.46 119.271 149.917 119.271C151.043 119.271 151.953 119.46 152.646 119.838C153.338 120.208 153.878 120.642 154.264 121.138C154.657 121.634 154.961 122.071 155.173 122.449H155.433V119.508H158.894V138.052C158.894 139.611 158.532 140.891 157.807 141.891C157.083 142.891 156.102 143.631 154.866 144.111C153.638 144.592 152.252 144.832 150.708 144.832ZM150.673 134.449C151.689 134.449 152.547 134.213 153.248 133.741C153.957 133.26 154.492 132.575 154.854 131.686C155.224 130.788 155.409 129.713 155.409 128.461C155.409 127.24 155.228 126.166 154.866 125.236C154.504 124.307 153.972 123.583 153.272 123.063C152.571 122.535 151.705 122.272 150.673 122.272C149.61 122.272 148.724 122.547 148.015 123.098C147.307 123.642 146.771 124.382 146.409 125.319C146.055 126.256 145.877 127.303 145.877 128.461C145.877 129.65 146.059 130.693 146.421 131.591C146.783 132.489 147.318 133.19 148.027 133.694C148.744 134.197 149.626 134.449 150.673 134.449Z" fill="black"/>
<path d="M163.63 137.65V119.508H167.02V122.461H167.245C167.623 121.461 168.241 120.681 169.099 120.122C169.957 119.555 170.985 119.271 172.182 119.271C173.395 119.271 174.411 119.555 175.229 120.122C176.056 120.689 176.667 121.468 177.06 122.461H177.249C177.682 121.492 178.371 120.72 179.316 120.146C180.261 119.563 181.387 119.271 182.694 119.271C184.34 119.271 185.683 119.787 186.722 120.819C187.77 121.85 188.293 123.406 188.293 125.484V137.65H184.761V125.815C184.761 124.587 184.427 123.697 183.757 123.146C183.088 122.594 182.289 122.319 181.36 122.319C180.21 122.319 179.316 122.673 178.678 123.382C178.041 124.083 177.722 124.984 177.722 126.087V137.65H174.202V125.591C174.202 124.606 173.895 123.815 173.281 123.217C172.666 122.618 171.867 122.319 170.883 122.319C170.213 122.319 169.595 122.496 169.028 122.85C168.469 123.197 168.016 123.681 167.67 124.303C167.331 124.925 167.162 125.646 167.162 126.465V137.65H163.63Z" fill="black"/>
<path d="M198.307 138.052C197.157 138.052 196.117 137.839 195.188 137.414C194.259 136.981 193.523 136.355 192.979 135.536C192.444 134.717 192.176 133.713 192.176 132.524C192.176 131.5 192.373 130.658 192.767 129.996C193.161 129.335 193.692 128.811 194.361 128.425C195.031 128.04 195.779 127.748 196.606 127.551C197.432 127.355 198.275 127.205 199.133 127.103C200.22 126.977 201.102 126.874 201.779 126.795C202.456 126.709 202.949 126.571 203.256 126.382C203.563 126.193 203.716 125.886 203.716 125.461V125.378C203.716 124.347 203.425 123.547 202.842 122.98C202.267 122.413 201.409 122.13 200.267 122.13C199.078 122.13 198.141 122.394 197.456 122.921C196.779 123.441 196.31 124.02 196.051 124.658L192.731 123.902C193.125 122.799 193.7 121.909 194.456 121.232C195.22 120.547 196.098 120.051 197.09 119.744C198.082 119.429 199.125 119.271 200.22 119.271C200.944 119.271 201.712 119.358 202.523 119.531C203.342 119.697 204.106 120.004 204.815 120.453C205.531 120.901 206.118 121.543 206.575 122.378C207.031 123.205 207.26 124.28 207.26 125.603V137.65H203.811V135.17H203.669C203.441 135.627 203.098 136.076 202.641 136.516C202.185 136.957 201.598 137.324 200.881 137.615C200.165 137.906 199.307 138.052 198.307 138.052ZM199.074 135.217C200.051 135.217 200.885 135.024 201.578 134.638C202.279 134.253 202.811 133.749 203.173 133.127C203.543 132.497 203.728 131.823 203.728 131.107V128.768C203.602 128.894 203.358 129.012 202.996 129.122C202.641 129.225 202.236 129.315 201.779 129.394C201.322 129.465 200.878 129.532 200.444 129.595C200.011 129.65 199.649 129.697 199.358 129.737C198.673 129.823 198.047 129.969 197.48 130.174C196.921 130.378 196.472 130.674 196.133 131.06C195.802 131.437 195.637 131.941 195.637 132.571C195.637 133.445 195.96 134.107 196.606 134.556C197.251 134.997 198.074 135.217 199.074 135.217Z" fill="black"/>
</svg>
