<svg width="251" height="251" viewBox="0 0 251 251" fill="none" xmlns="http://www.w3.org/2000/svg">
<rect x="0.743713" y="0.77124" width="250" height="250" fill="white"/>
<path d="M220.614 125.771C220.614 178.167 178.139 220.641 125.744 220.641C73.3484 220.641 30.8736 178.167 30.8736 125.771C30.8736 73.3759 73.3484 30.9011 125.744 30.9011C178.139 30.9011 220.614 73.3759 220.614 125.771Z" fill="#E44D26"/>
<path d="M176.026 82.1298L166.864 184.763L125.682 196.18L84.614 184.779L75.4619 82.1298H176.026Z" fill="white"/>
<path d="M107.972 116.098H125.781V103.509H94.2129L97.6085 141.58H125.781V128.99H109.122L107.972 116.098ZM110.809 147.875H98.171L99.9347 167.642L125.723 174.801L125.781 174.785V161.687L125.726 161.701L111.705 157.915L110.809 147.875Z" fill="#E44D26"/>
<path d="M125.738 141.58H141.241L139.779 157.907L125.738 161.697V174.795L151.547 167.642L154.695 132.371L155.002 128.99H125.738V141.58ZM125.738 116.098H156.148L157.275 103.509H125.738V116.098Z" fill="#E44D26"/>
<path d="M84.7296 55.3627H91.1275V61.6837H96.9801V55.3627H103.378V74.5041H96.9805V68.0945H91.1279V74.5041H84.73L84.7296 55.3627ZM111.791 61.7105H106.16V55.3627H123.825V61.7105H118.19V74.5041H111.792L111.791 61.7105ZM126.629 55.3627H133.3L137.403 62.0885L141.503 55.3627H148.177V74.5041H141.805V65.0166L137.403 71.8224H137.293L132.889 65.0166V74.5041H126.629V55.3627ZM151.361 55.3627H157.761V68.1773H166.758V74.5041H151.36L151.361 55.3627Z" fill="white"/>
</svg>
