<svg width="251" height="251" viewBox="0 0 251 251" fill="none" xmlns="http://www.w3.org/2000/svg">
<rect x="0.670151" y="0.260864" width="250" height="250" fill="white"/>
<path d="M218.17 32.7609H33.1702V217.761H218.17V32.7609Z" fill="#F0DB4F"/>
<path d="M133.847 177.045C133.847 195.049 123.275 203.267 107.872 203.267C93.9561 203.267 85.9037 196.082 81.7737 187.369L95.9376 178.821C98.6632 183.652 101.141 187.74 107.129 187.74C112.827 187.74 116.462 185.51 116.462 176.797V117.704H133.847V177.045Z" fill="#323330"/>
<path d="M174.976 203.267C158.83 203.267 148.383 195.585 143.303 185.51L157.467 177.333C161.184 183.404 166.056 187.905 174.605 187.905C181.79 187.905 186.414 184.312 186.414 179.316C186.414 173.369 181.707 171.264 173.738 167.754L169.402 165.896C156.848 160.568 148.548 153.837 148.548 139.674C148.548 126.624 158.499 116.714 173.984 116.714C185.052 116.714 192.98 120.554 198.679 130.63L185.134 139.302C182.161 133.974 178.94 131.869 173.943 131.869C168.864 131.869 165.643 135.091 165.643 139.302C165.643 144.505 168.864 146.612 176.338 149.873L180.674 151.731C195.458 158.05 203.758 164.533 203.758 179.069C203.758 194.677 191.452 203.267 174.976 203.267Z" fill="#323330"/>
</svg>
