<svg width="251" height="251" viewBox="0 0 251 251" fill="none" xmlns="http://www.w3.org/2000/svg">
<rect x="0.670151" y="0.407715" width="250" height="250" fill="white"/>
<path d="M100.581 109.8V135.293H109.805V139.684H95.6702V109.8H100.581ZM127.125 122.475V119.787H131.792V139.695H127.147V136.997C126.505 137.992 125.621 138.766 124.47 139.319C123.32 139.905 122.148 140.182 120.986 140.182C119.471 140.182 118.089 139.905 116.839 139.352C115.617 138.823 114.518 138.047 113.609 137.074C112.709 136.108 111.996 134.983 111.508 133.756C111.005 132.474 110.754 131.107 110.767 129.73C110.767 128.337 111.021 126.998 111.519 125.749C112.001 124.505 112.714 123.364 113.621 122.386C114.521 121.408 115.612 120.625 116.828 120.086C118.089 119.533 119.482 119.256 120.975 119.256C122.137 119.256 123.298 119.544 124.448 120.108C125.598 120.683 126.483 121.457 127.103 122.453L127.125 122.475ZM126.704 132.174C126.996 131.396 127.146 130.572 127.147 129.741C127.147 128.878 126.992 128.082 126.704 127.308C126.44 126.563 126.034 125.876 125.51 125.284C124.987 124.715 124.355 124.256 123.652 123.935C122.896 123.588 122.073 123.41 121.241 123.415C120.356 123.415 119.56 123.603 118.852 123.946C118.159 124.268 117.535 124.722 117.016 125.284C116.493 125.873 116.094 126.561 115.844 127.308C115.569 128.09 115.431 128.913 115.434 129.741C115.434 130.593 115.567 131.4 115.844 132.174C116.109 132.949 116.507 133.612 117.016 134.165C117.53 134.743 118.154 135.213 118.852 135.548C119.56 135.879 120.356 136.056 121.241 136.056C122.126 136.056 122.933 135.891 123.652 135.548C124.357 135.22 124.989 134.754 125.51 134.176C126.031 133.594 126.436 132.919 126.704 132.185V132.174ZM135.464 139.695V119.787H148.095V124.366H140.109V139.684H135.464V139.695ZM164.961 122.475V119.787H169.606V139.695H164.961V136.997C164.342 137.992 163.446 138.766 162.307 139.319C161.145 139.905 159.984 140.182 158.812 140.182C157.296 140.182 155.914 139.905 154.664 139.352C153.443 138.823 152.343 138.047 151.435 137.074C150.534 136.108 149.821 134.983 149.333 133.756C148.834 132.473 148.587 131.106 148.603 129.73C148.603 128.337 148.847 126.998 149.344 125.749C149.826 124.505 150.539 123.364 151.446 122.386C152.346 121.408 153.438 120.625 154.653 120.086C155.914 119.533 157.307 119.256 158.801 119.256C159.962 119.256 161.123 119.544 162.273 120.108C163.424 120.683 164.32 121.457 164.928 122.453L164.961 122.475ZM164.541 132.174C164.825 131.395 164.967 130.571 164.961 129.741C164.961 128.878 164.817 128.082 164.541 127.308C164.279 126.564 163.877 125.877 163.357 125.284C162.828 124.712 162.188 124.253 161.477 123.935C160.758 123.603 159.951 123.415 159.077 123.415C158.192 123.415 157.396 123.603 156.677 123.946C155.984 124.268 155.36 124.722 154.841 125.284C154.318 125.873 153.92 126.561 153.669 127.308C153.398 128.09 153.264 128.913 153.271 129.741C153.271 130.593 153.403 131.4 153.669 132.174C153.945 132.949 154.332 133.612 154.841 134.165C155.355 134.743 155.98 135.213 156.677 135.548C157.396 135.879 158.192 136.056 159.077 136.056C159.962 136.056 160.758 135.891 161.488 135.548C162.201 135.223 162.841 134.756 163.368 134.176C163.885 133.593 164.286 132.918 164.552 132.185L164.541 132.174ZM188.275 119.787H192.998L185.367 139.695H179.505L171.873 119.787H176.574L182.436 135.028L188.275 119.798V119.787ZM203.14 119.278C209.477 119.278 213.802 124.897 212.983 131.467H197.533C197.533 133.17 199.28 136.488 203.394 136.488C206.934 136.488 209.312 133.391 209.312 133.391L212.453 135.824C209.632 138.81 207.332 140.193 203.715 140.193C197.278 140.193 192.921 136.101 192.921 129.719C192.921 123.935 197.433 119.256 203.129 119.256L203.14 119.278ZM197.555 128.016H208.725C208.681 127.629 208.062 122.972 203.107 122.972C198.13 122.972 197.599 127.64 197.555 128.016ZM216.025 109.8H220.67V139.684H216.025V109.8Z" fill="#FF2D20"/>
<path d="M90.5297 108.528C90.5519 108.61 90.5633 108.695 90.5635 108.78V122.014C90.5635 122.184 90.5186 122.351 90.4335 122.498C90.3484 122.645 90.2259 122.767 90.0786 122.851L78.9706 129.247V141.923C78.9706 142.268 78.7872 142.586 78.4881 142.76L55.301 156.108C55.248 156.138 55.1901 156.157 55.1322 156.178C55.1105 156.185 55.0899 156.198 55.067 156.204C54.9049 156.247 54.7346 156.247 54.5725 156.204C54.5459 156.197 54.5218 156.183 54.4965 156.173C54.4434 156.154 54.3879 156.137 54.3373 156.108L31.1551 142.76C31.0078 142.675 30.8854 142.553 30.8003 142.406C30.7152 142.259 30.6703 142.093 30.6702 141.923V102.219C30.6702 102.132 30.6822 102.048 30.7039 101.966C30.7112 101.938 30.7281 101.913 30.7377 101.885C30.7558 101.834 30.7727 101.782 30.7992 101.735C30.8173 101.704 30.8439 101.679 30.8656 101.65C30.8933 101.611 30.9186 101.571 30.9512 101.538C30.979 101.51 31.0151 101.489 31.0465 101.465C31.0815 101.436 31.1128 101.405 31.1527 101.382L42.7456 94.708C42.8923 94.6236 43.0587 94.5791 43.2281 94.5791C43.3974 94.5791 43.5638 94.6236 43.7105 94.708L55.3022 101.382H55.3047C55.3433 101.406 55.3758 101.436 55.4108 101.464C55.4422 101.488 55.4771 101.51 55.5049 101.536C55.5387 101.571 55.5628 101.611 55.5917 101.65C55.6122 101.679 55.64 101.704 55.6569 101.735C55.6846 101.784 55.7003 101.834 55.7196 101.885C55.7292 101.913 55.7461 101.938 55.7534 101.967C55.7756 102.049 55.7869 102.134 55.7871 102.219V127.018L65.4465 121.456V108.778C65.4465 108.694 65.4586 108.608 65.4803 108.528C65.4887 108.499 65.5044 108.473 65.514 108.446C65.5333 108.395 65.5502 108.343 65.5768 108.296C65.5949 108.265 65.6214 108.239 65.6419 108.21C65.6708 108.172 65.695 108.132 65.7287 108.098C65.7565 108.07 65.7915 108.05 65.8228 108.026C65.859 107.997 65.8904 107.966 65.929 107.943L77.5231 101.269C77.6698 101.184 77.8362 101.14 78.0056 101.14C78.1749 101.14 78.3413 101.184 78.4881 101.269L90.0798 107.943C90.1208 107.967 90.1521 107.997 90.1883 108.025C90.2185 108.049 90.2535 108.07 90.2812 108.097C90.315 108.132 90.3391 108.172 90.3681 108.21C90.3898 108.239 90.4163 108.265 90.4332 108.296C90.4609 108.343 90.4766 108.395 90.4959 108.446C90.5068 108.473 90.5225 108.499 90.5297 108.528ZM88.6311 121.456V110.45L78.9706 116.012V127.018L88.6323 121.456H88.6311ZM77.0394 141.364V130.352L55.7859 142.484V153.6L77.0394 141.364ZM32.6025 103.89V141.364L53.8536 153.599V142.485L42.7516 136.202L42.748 136.199L42.7432 136.197C42.7058 136.175 42.6744 136.144 42.6394 136.117C42.6093 136.093 42.5743 136.074 42.5477 136.047L42.5453 136.044C42.514 136.014 42.4923 135.976 42.4657 135.942C42.4416 135.91 42.4126 135.882 42.3933 135.848L42.3921 135.845C42.3704 135.809 42.3572 135.765 42.3415 135.724C42.3258 135.688 42.3053 135.654 42.2956 135.616C42.2836 135.57 42.2812 135.52 42.2763 135.473C42.2715 135.437 42.2619 135.401 42.2619 135.365V109.452L32.6025 103.89ZM43.2293 96.6597L33.5711 102.219L43.2268 107.779L52.8838 102.218L43.2268 96.6597H43.2293ZM53.8548 128.13V103.89L44.1942 109.452V133.692L53.8548 128.13ZM78.0056 103.22L68.3486 108.78L78.0056 114.339L87.6613 108.778L78.0056 103.22ZM77.0394 116.012L67.3788 110.45V121.456L77.0394 127.018V116.012ZM54.8186 140.813L76.0636 128.686L66.4139 123.13L45.1773 135.356L54.8186 140.813Z" fill="#FF2D20"/>
</svg>
