<svg width="251" height="251" viewBox="0 0 251 251" fill="none" xmlns="http://www.w3.org/2000/svg">
<rect x="0.670166" y="0.77124" width="250" height="250" fill="white"/>
<path d="M125.67 220.641C178.065 220.641 220.54 178.167 220.54 125.771C220.54 73.3759 178.065 30.9011 125.67 30.9011C73.2748 30.9011 30.8 73.3759 30.8 125.771C30.8 178.167 73.2748 220.641 125.67 220.641Z" fill="#36447F"/>
<path d="M83.3581 111.92C87.7221 111.92 90.5682 112.679 92.0861 114.387C93.6041 115.905 93.7938 118.751 93.0348 122.546C92.2759 126.53 90.758 129.566 88.4811 131.274C86.2042 132.981 82.7889 133.93 78.2351 133.93H71.2147L75.389 111.92H83.3581ZM55.4663 156.13H66.8507L69.5071 142.089H79.3735C83.7376 142.089 87.1529 141.709 89.999 140.761C92.8451 139.812 95.3117 138.294 97.5886 136.207C99.486 134.499 101.004 132.412 102.332 130.325C103.471 128.238 104.419 125.771 104.799 123.305C105.937 117.043 105.178 112.3 102.142 108.695C99.1065 105.279 94.363 103.572 87.7221 103.572H65.7123L55.4663 156.13Z" fill="#C9D5F7"/>
<path d="M116.373 89.7207H127.757L125.101 103.761H135.157C141.418 103.761 145.972 104.9 148.249 107.177C150.716 109.454 151.475 113.059 150.336 117.992L145.593 142.468H134.019L138.572 119.32C139.142 116.664 138.952 114.956 138.003 114.007C137.054 113.059 135.157 112.49 132.311 112.49H123.203L117.321 142.468H105.937L116.373 89.7207Z" fill="#C9D5F7"/>
<path d="M175.762 111.92C180.126 111.92 182.972 112.679 184.49 114.387C186.008 115.905 186.197 118.751 185.438 122.546C184.679 126.53 183.161 129.566 180.885 131.274C178.608 132.981 175.192 133.93 170.639 133.93H163.618L167.792 111.92H175.762ZM147.87 156.13H159.254L161.911 142.089H171.777C176.141 142.089 179.556 141.709 182.402 140.761C185.249 139.812 187.715 138.294 189.992 136.207C191.889 134.499 193.407 132.412 194.736 130.325C195.874 128.238 196.823 125.771 197.202 123.305C198.341 117.043 197.582 112.3 194.546 108.695C191.51 105.279 186.766 103.572 180.126 103.572H158.116L147.87 156.13Z" fill="#C9D5F7"/>
</svg>
