<svg width="251" height="251" viewBox="0 0 251 251" fill="none" xmlns="http://www.w3.org/2000/svg">
<rect x="0.743713" y="0.260864" width="250" height="250" fill="white"/>
<path d="M125.744 117.579C133.771 117.579 140.278 111.071 140.278 103.044C140.278 95.017 133.771 88.5097 125.744 88.5097C117.717 88.5097 111.209 95.017 111.209 103.044C111.209 111.071 117.717 117.579 125.744 117.579Z" fill="#61DAFB"/>
<path d="M125.744 136.369C108.274 136.79 90.8485 134.435 74.1173 129.392C66.3886 126.942 59.1801 123.083 52.8563 118.009C50.4423 116.276 48.4321 114.042 46.9639 111.458C45.4956 108.875 44.6042 106.005 44.3507 103.044C44.3507 93.434 54.9085 84.0156 72.5941 77.853C89.7733 72.3969 107.721 69.7505 125.744 70.0161C143.526 69.7702 161.234 72.3688 178.196 77.7135C185.638 80.0892 192.601 83.7619 198.765 88.562C201.134 90.2171 203.112 92.3717 204.558 94.8739C206.005 97.3761 206.885 100.165 207.137 103.044C207.137 113.032 195.335 123.154 176.324 129.445C159.917 134.324 142.859 136.66 125.744 136.369ZM125.744 76.9693C108.501 76.744 91.3321 79.2598 74.8789 84.4226C58.6003 90.1027 51.304 97.8699 51.304 103.027C51.304 108.422 59.1468 116.904 76.3672 122.794C92.3728 127.596 109.038 129.831 125.744 129.416C142.118 129.708 158.44 127.493 174.143 122.846C192.021 116.922 200.16 108.428 200.16 103.044C199.866 101.197 199.192 99.4309 198.182 97.8569C197.171 96.283 195.845 94.9354 194.288 93.8991C188.775 89.639 182.554 86.3839 175.911 84.2831C159.684 79.1925 142.749 76.7235 125.744 76.9693Z" fill="#61DAFB"/>
<path d="M92.7214 175.536C90.0093 175.598 87.3292 174.94 84.9542 173.629C76.6289 168.827 73.7452 154.979 77.2393 136.578C81.0962 118.97 87.771 102.1 97.0062 86.6202C105.675 71.0935 116.77 57.0524 129.871 45.0284C135.647 39.7676 142.308 35.5693 149.545 32.6276C152.165 31.404 155.02 30.7699 157.911 30.7699C160.802 30.7699 163.658 31.404 166.277 32.6276C174.934 37.6158 177.8 52.8945 173.76 72.5044C169.789 89.1585 163.287 105.105 154.481 119.788C146.118 135.132 135.372 149.051 122.645 161.025C116.661 166.495 109.717 170.809 102.163 173.751C99.1396 174.877 95.947 175.48 92.7214 175.536ZM103.029 90.0736C94.2207 104.897 87.8233 121.026 84.0763 137.857C80.8613 154.804 83.9484 164.996 88.4367 167.589C93.0877 170.281 104.378 167.728 118.087 155.752C130.239 144.282 140.495 130.958 148.476 116.276C156.911 102.239 163.148 86.9931 166.969 71.0684C170.771 52.6096 167.487 41.3076 162.824 38.6216C161.076 37.9531 159.209 37.6539 157.34 37.7429C155.471 37.832 153.64 38.3073 151.964 39.139C145.521 41.7986 139.597 45.5733 134.464 50.2899C121.948 61.8082 111.35 75.2501 103.07 90.1085L103.029 90.0736Z" fill="#61DAFB"/>
<path d="M158.749 175.612C150.871 175.612 140.865 170.845 130.447 161.886C117.118 149.751 105.835 135.543 97.0352 119.811C87.914 104.545 81.2919 87.9192 77.4195 70.5625C75.7441 62.9257 75.4331 55.0526 76.5009 47.3074C76.752 44.4352 77.6284 41.6526 79.0686 39.1549C80.5087 36.6572 82.4779 34.5047 84.8379 32.8485C93.483 27.8428 108.151 32.988 123.122 46.2784C135.567 58.0349 146.135 71.6306 154.458 86.5912C163.574 101.5 170.266 117.762 174.283 134.77C176.034 142.687 176.304 150.859 175.079 158.874C174.789 161.83 173.863 164.688 172.364 167.252C170.864 169.816 168.828 172.026 166.394 173.728C164.056 175.02 161.419 175.67 158.749 175.612ZM103.053 116.311C111.495 131.345 122.272 144.943 134.982 156.595C148.057 167.845 158.429 170.263 162.888 167.641C167.539 164.938 170.969 153.903 167.434 136.049C163.563 119.81 157.144 104.287 148.417 90.0562C140.475 75.7375 130.387 62.7189 118.506 51.4526C104.413 38.9414 92.983 36.1449 88.3262 38.8425C86.8755 40.0228 85.685 41.4906 84.8295 43.1535C83.974 44.8165 83.4721 46.6386 83.3554 48.505C82.4318 55.4124 82.7329 62.4284 84.2449 69.2312C87.9708 85.8293 94.3218 101.726 103.058 116.323L103.053 116.311Z" fill="#61DAFB"/>
<path d="M79.9288 219.471V202.558H85.9573C87.2676 202.558 88.3549 202.784 89.2193 203.235C90.0891 203.687 90.7388 204.312 91.1682 205.11C91.5976 205.903 91.8123 206.819 91.8123 207.86C91.8123 208.895 91.5949 209.806 91.1599 210.593C90.7305 211.375 90.0809 211.984 89.211 212.419C88.3466 212.853 87.2593 213.071 85.949 213.071H81.3822V210.874H85.7178C86.5436 210.874 87.2153 210.756 87.7328 210.519C88.2558 210.282 88.6384 209.938 88.8807 209.487C89.1229 209.035 89.244 208.493 89.244 207.86C89.244 207.221 89.1202 206.668 88.8724 206.2C88.6302 205.732 88.2475 205.374 87.7245 205.127C87.207 204.873 86.5271 204.747 85.6847 204.747H82.4806V219.471H79.9288ZM88.2778 211.84L92.4565 219.471H89.5496L85.4535 211.84H88.2778Z" fill="#61DAFB"/>
<path d="M100.027 219.727C98.7775 219.727 97.7011 219.46 96.7982 218.926C95.9009 218.386 95.2072 217.629 94.7172 216.655C94.2327 215.675 93.9905 214.527 93.9905 213.211C93.9905 211.912 94.2327 210.767 94.7172 209.776C95.2072 208.785 95.8898 208.011 96.7652 207.455C97.6461 206.899 98.6756 206.621 99.8538 206.621C100.569 206.621 101.263 206.74 101.935 206.976C102.607 207.213 103.209 207.585 103.743 208.091C104.277 208.598 104.699 209.256 105.007 210.065C105.315 210.869 105.469 211.846 105.469 212.997V213.872H95.3861V212.022H103.05C103.05 211.372 102.918 210.797 102.653 210.296C102.389 209.79 102.017 209.391 101.538 209.099C101.065 208.807 100.509 208.661 99.8703 208.661C99.1766 208.661 98.571 208.832 98.0535 209.173C97.5415 209.509 97.1451 209.949 96.8643 210.494C96.589 211.034 96.4514 211.62 96.4514 212.253V213.699C96.4514 214.546 96.6 215.268 96.8973 215.862C97.2001 216.457 97.6213 216.911 98.1609 217.225C98.7004 217.533 99.3308 217.687 100.052 217.687C100.52 217.687 100.947 217.621 101.332 217.489C101.717 217.351 102.05 217.148 102.331 216.878C102.612 216.608 102.827 216.275 102.975 215.879L105.312 216.3C105.125 216.988 104.789 217.591 104.305 218.108C103.826 218.62 103.223 219.02 102.496 219.306C101.775 219.587 100.952 219.727 100.027 219.727Z" fill="#61DAFB"/>
<path d="M111.9 219.752C111.097 219.752 110.37 219.603 109.72 219.306C109.071 219.003 108.556 218.565 108.176 217.993C107.802 217.42 107.614 216.718 107.614 215.887C107.614 215.171 107.752 214.582 108.027 214.12C108.303 213.657 108.674 213.291 109.142 213.021C109.61 212.752 110.133 212.548 110.711 212.41C111.289 212.273 111.878 212.168 112.479 212.096C113.238 212.008 113.855 211.937 114.328 211.882C114.802 211.821 115.146 211.725 115.361 211.593C115.575 211.461 115.683 211.246 115.683 210.949V210.891C115.683 210.17 115.479 209.611 115.072 209.214C114.67 208.818 114.07 208.62 113.271 208.62C112.44 208.62 111.785 208.804 111.306 209.173C110.832 209.536 110.505 209.941 110.323 210.387L108.003 209.858C108.278 209.088 108.68 208.466 109.208 207.992C109.742 207.513 110.356 207.166 111.05 206.952C111.744 206.731 112.473 206.621 113.238 206.621C113.745 206.621 114.282 206.682 114.849 206.803C115.421 206.919 115.955 207.133 116.451 207.447C116.952 207.761 117.362 208.21 117.681 208.793C118.001 209.371 118.16 210.123 118.16 211.048V219.471H115.749V217.737H115.65C115.49 218.056 115.251 218.37 114.931 218.678C114.612 218.987 114.202 219.243 113.701 219.446C113.2 219.65 112.6 219.752 111.9 219.752ZM112.437 217.77C113.12 217.77 113.704 217.635 114.188 217.365C114.678 217.095 115.05 216.743 115.303 216.308C115.562 215.868 115.691 215.397 115.691 214.896V213.261C115.603 213.349 115.432 213.432 115.179 213.509C114.931 213.58 114.648 213.644 114.328 213.699C114.009 213.748 113.698 213.795 113.395 213.839C113.092 213.877 112.839 213.911 112.635 213.938C112.156 213.999 111.719 214.1 111.322 214.244C110.932 214.387 110.618 214.593 110.381 214.863C110.15 215.127 110.034 215.48 110.034 215.92C110.034 216.531 110.26 216.994 110.711 217.307C111.163 217.616 111.738 217.77 112.437 217.77Z" fill="#61DAFB"/>
<path d="M126.792 219.727C125.564 219.727 124.507 219.449 123.621 218.893C122.74 218.331 122.063 217.558 121.589 216.572C121.116 215.587 120.879 214.458 120.879 213.187C120.879 211.898 121.121 210.761 121.606 209.776C122.09 208.785 122.773 208.011 123.654 207.455C124.535 206.899 125.573 206.621 126.767 206.621C127.731 206.621 128.59 206.8 129.344 207.158C130.098 207.51 130.706 208.006 131.169 208.645C131.637 209.283 131.915 210.029 132.003 210.883H129.6C129.468 210.288 129.165 209.776 128.691 209.346C128.224 208.917 127.596 208.702 126.809 208.702C126.12 208.702 125.518 208.884 125 209.247C124.488 209.605 124.089 210.117 123.803 210.783C123.516 211.444 123.373 212.226 123.373 213.129C123.373 214.054 123.514 214.852 123.794 215.524C124.075 216.195 124.472 216.716 124.984 217.084C125.501 217.453 126.109 217.638 126.809 217.638C127.277 217.638 127.701 217.552 128.08 217.382C128.466 217.206 128.788 216.955 129.047 216.63C129.311 216.305 129.495 215.915 129.6 215.458H132.003C131.915 216.278 131.648 217.01 131.202 217.654C130.756 218.298 130.159 218.805 129.41 219.174C128.667 219.543 127.794 219.727 126.792 219.727Z" fill="#61DAFB"/>
<path d="M140.565 206.786V208.768H133.636V206.786H140.565ZM135.494 203.747H137.963V215.747C137.963 216.226 138.035 216.586 138.178 216.828C138.321 217.065 138.506 217.228 138.731 217.316C138.963 217.398 139.213 217.44 139.483 217.44C139.681 217.44 139.855 217.426 140.003 217.398C140.152 217.371 140.267 217.349 140.35 217.332L140.796 219.372C140.653 219.427 140.449 219.482 140.185 219.537C139.921 219.598 139.59 219.631 139.194 219.636C138.544 219.647 137.939 219.532 137.377 219.289C136.816 219.047 136.361 218.673 136.014 218.166C135.668 217.66 135.494 217.024 135.494 216.259V203.747Z" fill="#61DAFB"/>
<path d="M156.222 202.558H158.766V214.549C158.766 215.634 158.551 216.561 158.122 217.332C157.698 218.103 157.1 218.692 156.33 219.099C155.559 219.501 154.656 219.702 153.621 219.702C152.669 219.702 151.812 219.529 151.053 219.182C150.298 218.835 149.701 218.331 149.261 217.671C148.826 217.005 148.608 216.195 148.608 215.243H151.144C151.144 215.711 151.251 216.115 151.466 216.457C151.686 216.798 151.986 217.065 152.366 217.258C152.751 217.445 153.192 217.539 153.687 217.539C154.227 217.539 154.684 217.426 155.058 217.2C155.438 216.969 155.727 216.63 155.925 216.184C156.123 215.738 156.222 215.193 156.222 214.549V202.558Z" fill="#61DAFB"/>
<path d="M171.787 209.883L169.549 210.28C169.455 209.993 169.307 209.721 169.103 209.462C168.905 209.203 168.635 208.991 168.294 208.826C167.952 208.661 167.526 208.578 167.014 208.578C166.315 208.578 165.731 208.735 165.263 209.049C164.795 209.357 164.561 209.757 164.561 210.247C164.561 210.671 164.718 211.012 165.032 211.271C165.346 211.529 165.852 211.741 166.551 211.907L168.566 212.369C169.733 212.639 170.603 213.054 171.176 213.616C171.748 214.178 172.035 214.907 172.035 215.804C172.035 216.564 171.815 217.241 171.374 217.836C170.939 218.425 170.331 218.887 169.549 219.223C168.773 219.559 167.873 219.727 166.849 219.727C165.428 219.727 164.269 219.424 163.372 218.819C162.474 218.208 161.924 217.34 161.72 216.217L164.107 215.854C164.256 216.476 164.561 216.947 165.024 217.266C165.486 217.58 166.089 217.737 166.832 217.737C167.641 217.737 168.288 217.569 168.773 217.233C169.257 216.892 169.499 216.476 169.499 215.986C169.499 215.59 169.351 215.257 169.054 214.987C168.762 214.717 168.313 214.513 167.707 214.376L165.56 213.905C164.377 213.635 163.501 213.206 162.934 212.617C162.373 212.028 162.092 211.282 162.092 210.379C162.092 209.63 162.301 208.975 162.719 208.413C163.138 207.852 163.716 207.414 164.454 207.1C165.191 206.781 166.037 206.621 166.989 206.621C168.36 206.621 169.439 206.919 170.226 207.513C171.013 208.102 171.534 208.892 171.787 209.883Z" fill="#61DAFB"/>
</svg>
