<svg width="251" height="251" viewBox="0 0 251 251" fill="none" xmlns="http://www.w3.org/2000/svg">
<rect x="0.743713" y="0.0158691" width="250" height="250" fill="white"/>
<path d="M218.244 125.016C218.244 176.102 176.83 217.516 125.744 217.516C74.6574 217.516 33.2437 176.102 33.2437 125.016C33.2437 73.9295 74.6574 32.5159 125.744 32.5159C176.83 32.5159 218.244 73.9295 218.244 125.016Z" fill="#20232A"/>
<path d="M125.744 124.342C131.429 124.342 136.038 119.733 136.038 114.047C136.038 108.362 131.429 103.753 125.744 103.753C120.058 103.753 115.45 108.362 115.45 114.047C115.45 119.733 120.058 124.342 125.744 124.342Z" fill="#61DAFB"/>
<path d="M164.844 97.0711C162.857 96.3487 160.78 95.6263 158.613 94.9942C159.155 92.827 159.606 90.6598 159.967 88.5829C161.864 76.6633 159.787 68.2654 154.008 65.0146C152.292 64.0213 150.396 63.5698 148.228 63.5698C141.907 63.5698 133.871 68.2654 125.744 76.1215C117.617 68.2654 109.58 63.5698 103.259 63.5698C101.092 63.5698 99.1955 64.0213 97.4798 65.0146C91.7006 68.3557 89.6237 76.7536 91.52 88.5829C91.8812 90.6598 92.3327 92.827 92.8745 94.9942C90.7073 95.6263 88.6304 96.2584 86.6438 97.0711C75.3563 101.405 69.2159 107.365 69.2159 114.047C69.2159 120.73 75.4466 126.689 86.6438 131.024C88.6304 131.746 90.7073 132.469 92.8745 133.101C92.3327 135.268 91.8812 137.435 91.52 139.512C89.6237 151.432 91.7006 159.83 97.4798 163.08C99.1955 164.074 101.092 164.525 103.259 164.525C109.67 164.525 117.707 159.83 125.744 151.973C133.871 159.83 141.907 164.525 148.228 164.525C150.396 164.525 152.292 164.074 154.008 163.08C159.787 159.739 161.864 151.341 159.967 139.512C159.606 137.435 159.155 135.268 158.613 133.101C160.78 132.469 162.857 131.837 164.844 131.024C176.131 126.689 182.271 120.73 182.271 114.047C182.271 107.365 176.131 101.405 164.844 97.0711ZM151.479 69.5296C155.182 71.6968 156.446 78.379 154.911 87.8605C154.64 89.7568 154.188 91.7434 153.646 93.8203C148.951 92.7367 143.984 92.0143 138.747 91.5628C135.677 87.2284 132.516 83.3455 129.356 79.8238C136.038 73.2319 142.81 68.7169 148.319 68.7169C149.493 68.7169 150.576 68.9878 151.479 69.5296ZM141.366 123.077C139.74 125.967 137.844 128.857 135.857 131.746C132.516 132.017 129.175 132.107 125.744 132.107C122.222 132.107 118.881 132.017 115.63 131.746C113.644 128.857 111.838 125.967 110.212 123.077C108.496 120.098 106.871 117.027 105.426 114.047C106.871 111.068 108.496 107.997 110.212 105.017C111.838 102.128 113.734 99.2383 115.72 96.3487C119.062 96.0778 122.403 95.9875 125.834 95.9875C129.356 95.9875 132.697 96.0778 135.948 96.3487C137.934 99.2383 139.74 102.128 141.366 105.017C143.081 107.997 144.707 111.068 146.152 114.047C144.616 117.027 143.081 120.007 141.366 123.077ZM148.861 120.098C150.215 123.258 151.299 126.328 152.292 129.398C149.222 130.121 145.971 130.663 142.54 131.114C143.623 129.398 144.797 127.592 145.79 125.696C146.874 123.8 147.867 121.904 148.861 120.098ZM125.744 144.569C123.577 142.221 121.5 139.693 119.513 137.074C121.59 137.164 123.667 137.255 125.744 137.255C127.821 137.255 129.898 137.164 131.974 137.074C129.988 139.693 127.911 142.221 125.744 144.569ZM108.948 131.024C105.517 130.572 102.266 130.031 99.1955 129.308C100.189 126.328 101.272 123.168 102.627 120.007C103.62 121.813 104.614 123.71 105.697 125.516C106.781 127.502 107.864 129.218 108.948 131.024ZM102.627 107.997C101.272 104.837 100.189 101.767 99.1955 98.6964C102.266 97.9741 105.517 97.4323 108.948 96.9808C107.864 98.6964 106.69 100.502 105.697 102.399C104.614 104.295 103.62 106.191 102.627 107.997ZM125.744 83.5261C127.911 85.8739 129.988 88.4023 131.974 91.021C129.898 90.9307 127.821 90.8404 125.744 90.8404C123.667 90.8404 121.59 90.9307 119.513 91.021C121.5 88.4023 123.577 85.8739 125.744 83.5261ZM145.79 102.489L142.54 97.0711C145.971 97.5226 149.222 98.0643 152.292 98.7868C151.299 101.767 150.215 104.927 148.861 108.088C147.867 106.191 146.874 104.295 145.79 102.489ZM96.5768 87.8605C95.0417 78.379 96.3059 71.6968 100.008 69.5296C100.911 68.9878 101.995 68.7169 103.169 68.7169C108.587 68.7169 115.359 73.1416 122.132 79.8238C118.971 83.2552 115.811 87.2284 112.741 91.5628C107.503 92.0143 102.537 92.827 97.841 93.8203C97.2992 91.7434 96.938 89.7568 96.5768 87.8605ZM74.2727 114.047C74.2727 109.803 79.4198 105.288 88.4498 101.947C90.2558 101.225 92.2424 100.593 94.229 100.051C95.6738 104.566 97.4798 109.352 99.647 114.138C97.4798 118.924 95.5835 123.619 94.229 128.134C81.7676 124.522 74.2727 119.104 74.2727 114.047ZM100.008 158.565C96.3059 156.398 95.0417 149.716 96.5768 140.234C96.8477 138.338 97.2992 136.352 97.841 134.275C102.537 135.358 107.503 136.081 112.741 136.532C115.811 140.867 118.971 144.749 122.132 148.271C115.45 154.863 108.677 159.378 103.169 159.378C101.995 159.378 100.911 159.107 100.008 158.565ZM154.911 140.234C156.446 149.716 155.182 156.398 151.479 158.565C150.576 159.107 149.493 159.378 148.319 159.378C142.901 159.378 136.128 154.953 129.356 148.271C132.516 144.84 135.677 140.867 138.747 136.532C143.984 136.081 148.951 135.268 153.646 134.275C154.188 136.352 154.549 138.338 154.911 140.234ZM163.038 126.148C161.232 126.87 159.245 127.502 157.258 128.044C155.814 123.529 154.008 118.743 151.84 113.957C154.008 109.171 155.904 104.476 157.258 99.9606C169.72 103.573 177.215 108.991 177.215 114.047C177.215 118.292 171.977 122.807 163.038 126.148Z" fill="#61DAFB"/>
<path d="M82.8551 186.287V175.78H86.6005C87.4146 175.78 88.0901 175.92 88.6271 176.201C89.1675 176.481 89.5712 176.869 89.838 177.365C90.1048 177.858 90.2382 178.427 90.2382 179.074C90.2382 179.717 90.103 180.283 89.8328 180.772C89.566 181.258 89.1624 181.636 88.622 181.906C88.085 182.176 87.4094 182.311 86.5954 182.311H83.7581V180.946H86.4517C86.9648 180.946 87.3821 180.873 87.7036 180.726C88.0285 180.579 88.2663 180.365 88.4168 180.084C88.5673 179.804 88.6425 179.467 88.6425 179.074C88.6425 178.677 88.5656 178.333 88.4116 178.042C88.2611 177.752 88.0234 177.529 87.6985 177.375C87.3769 177.218 86.9545 177.139 86.4312 177.139H84.4405V186.287H82.8551ZM88.0422 181.547L90.6383 186.287H88.8323L86.2875 181.547H88.0422Z" fill="#61DAFB"/>
<path d="M95.3419 186.446C94.5655 186.446 93.8968 186.281 93.3358 185.949C92.7783 185.614 92.3473 185.143 92.0429 184.538C91.7419 183.929 91.5914 183.216 91.5914 182.398C91.5914 181.591 91.7419 180.88 92.0429 180.264C92.3473 179.648 92.7714 179.168 93.3153 178.822C93.8625 178.477 94.5022 178.304 95.2341 178.304C95.6788 178.304 96.1098 178.378 96.5271 178.525C96.9444 178.672 97.3189 178.903 97.6507 179.217C97.9825 179.532 98.2442 179.941 98.4357 180.444C98.6272 180.943 98.723 181.55 98.723 182.265V182.809H92.4585V181.66H97.2197C97.2197 181.256 97.1376 180.898 96.9735 180.587C96.8093 180.273 96.5784 180.025 96.2808 179.843C95.9867 179.662 95.6412 179.571 95.2444 179.571C94.8134 179.571 94.4372 179.677 94.1157 179.889C93.7976 180.098 93.5513 180.372 93.3768 180.71C93.2058 181.046 93.1203 181.41 93.1203 181.803V182.701C93.1203 183.228 93.2127 183.676 93.3974 184.045C93.5855 184.415 93.8472 184.697 94.1824 184.892C94.5176 185.083 94.9092 185.179 95.3573 185.179C95.648 185.179 95.9131 185.138 96.1525 185.056C96.392 184.971 96.5989 184.844 96.7734 184.676C96.9478 184.509 97.0812 184.302 97.1735 184.056L98.6255 184.317C98.5092 184.745 98.3006 185.119 97.9996 185.441C97.702 185.759 97.3275 186.007 96.876 186.185C96.4279 186.359 95.9165 186.446 95.3419 186.446Z" fill="#61DAFB"/>
<path d="M102.719 186.462C102.219 186.462 101.768 186.37 101.364 186.185C100.96 185.997 100.641 185.725 100.405 185.369C100.172 185.013 100.056 184.577 100.056 184.061C100.056 183.616 100.141 183.25 100.312 182.963C100.483 182.675 100.714 182.448 101.005 182.28C101.296 182.113 101.621 181.986 101.98 181.901C102.339 181.815 102.705 181.75 103.078 181.706C103.55 181.651 103.933 181.607 104.227 181.572C104.521 181.535 104.735 181.475 104.868 181.393C105.002 181.311 105.068 181.177 105.068 180.993V180.957C105.068 180.509 104.942 180.161 104.689 179.915C104.439 179.669 104.066 179.546 103.57 179.546C103.054 179.546 102.647 179.66 102.349 179.889C102.055 180.115 101.851 180.367 101.739 180.644L100.297 180.315C100.468 179.836 100.718 179.45 101.046 179.156C101.378 178.858 101.759 178.643 102.19 178.509C102.621 178.372 103.074 178.304 103.55 178.304C103.864 178.304 104.198 178.342 104.55 178.417C104.906 178.489 105.238 178.622 105.546 178.817C105.857 179.012 106.112 179.291 106.31 179.653C106.508 180.013 106.608 180.479 106.608 181.054V186.287H105.109V185.21H105.048C104.949 185.408 104.8 185.603 104.601 185.795C104.403 185.986 104.148 186.145 103.837 186.272C103.526 186.399 103.153 186.462 102.719 186.462ZM103.052 185.23C103.476 185.23 103.839 185.147 104.14 184.979C104.444 184.811 104.675 184.593 104.832 184.322C104.993 184.049 105.074 183.756 105.074 183.445V182.429C105.019 182.484 104.913 182.535 104.755 182.583C104.601 182.628 104.425 182.667 104.227 182.701C104.029 182.732 103.835 182.761 103.647 182.788C103.459 182.812 103.302 182.833 103.175 182.85C102.878 182.887 102.606 182.951 102.359 183.04C102.117 183.129 101.922 183.257 101.774 183.424C101.631 183.589 101.559 183.808 101.559 184.081C101.559 184.461 101.699 184.748 101.98 184.943C102.26 185.135 102.618 185.23 103.052 185.23Z" fill="#61DAFB"/>
<path d="M111.97 186.446C111.208 186.446 110.551 186.274 110 185.928C109.453 185.579 109.032 185.099 108.738 184.487C108.444 183.874 108.297 183.173 108.297 182.383C108.297 181.583 108.447 180.876 108.748 180.264C109.049 179.648 109.474 179.168 110.021 178.822C110.568 178.477 111.213 178.304 111.955 178.304C112.554 178.304 113.087 178.415 113.556 178.638C114.024 178.856 114.402 179.164 114.69 179.561C114.98 179.958 115.153 180.421 115.208 180.952H113.715C113.633 180.582 113.445 180.264 113.15 179.997C112.86 179.73 112.47 179.597 111.981 179.597C111.553 179.597 111.179 179.71 110.857 179.936C110.539 180.158 110.291 180.476 110.113 180.89C109.935 181.3 109.846 181.786 109.846 182.347C109.846 182.922 109.934 183.418 110.108 183.835C110.282 184.252 110.529 184.575 110.847 184.805C111.168 185.034 111.546 185.148 111.981 185.148C112.271 185.148 112.535 185.095 112.771 184.989C113.01 184.88 113.21 184.724 113.371 184.522C113.535 184.321 113.65 184.078 113.715 183.794H115.208C115.153 184.304 114.987 184.758 114.71 185.159C114.433 185.559 114.062 185.874 113.597 186.103C113.135 186.332 112.593 186.446 111.97 186.446Z" fill="#61DAFB"/>
<path d="M120.527 178.407V179.638H116.222V178.407H120.527ZM117.377 176.519H118.911V183.973C118.911 184.271 118.955 184.495 119.044 184.646C119.133 184.793 119.248 184.894 119.388 184.948C119.532 185 119.687 185.025 119.855 185.025C119.978 185.025 120.086 185.017 120.178 185C120.271 184.983 120.342 184.969 120.394 184.959L120.671 186.226C120.582 186.26 120.455 186.294 120.291 186.328C120.127 186.366 119.922 186.387 119.675 186.39C119.272 186.397 118.896 186.325 118.547 186.175C118.198 186.024 117.916 185.791 117.7 185.477C117.485 185.162 117.377 184.767 117.377 184.292V176.519Z" fill="#61DAFB"/>
<path d="M134.652 175.78V186.287H133.195L127.854 178.581H127.756V186.287H126.171V175.78H127.638L132.984 183.496H133.082V175.78H134.652Z" fill="#61DAFB"/>
<path d="M139.135 186.462C138.635 186.462 138.184 186.37 137.78 186.185C137.377 185.997 137.057 185.725 136.821 185.369C136.588 185.013 136.472 184.577 136.472 184.061C136.472 183.616 136.558 183.25 136.729 182.963C136.9 182.675 137.13 182.448 137.421 182.28C137.712 182.113 138.037 181.986 138.396 181.901C138.755 181.815 139.121 181.75 139.494 181.706C139.966 181.651 140.349 181.607 140.643 181.572C140.937 181.535 141.151 181.475 141.285 181.393C141.418 181.311 141.485 181.177 141.485 180.993V180.957C141.485 180.509 141.358 180.161 141.105 179.915C140.855 179.669 140.482 179.546 139.987 179.546C139.47 179.546 139.063 179.66 138.765 179.889C138.471 180.115 138.268 180.367 138.155 180.644L136.713 180.315C136.884 179.836 137.134 179.45 137.462 179.156C137.794 178.858 138.175 178.643 138.606 178.509C139.037 178.372 139.491 178.304 139.966 178.304C140.281 178.304 140.614 178.342 140.966 178.417C141.322 178.489 141.654 178.622 141.962 178.817C142.273 179.012 142.528 179.291 142.726 179.653C142.925 180.013 143.024 180.479 143.024 181.054V186.287H141.526V185.21H141.464C141.365 185.408 141.216 185.603 141.018 185.795C140.819 185.986 140.565 186.145 140.253 186.272C139.942 186.399 139.569 186.462 139.135 186.462ZM139.468 185.23C139.892 185.23 140.255 185.147 140.556 184.979C140.86 184.811 141.091 184.593 141.249 184.322C141.409 184.049 141.49 183.756 141.49 183.445V182.429C141.435 182.484 141.329 182.535 141.172 182.583C141.018 182.628 140.842 182.667 140.643 182.701C140.445 182.732 140.252 182.761 140.063 182.788C139.875 182.812 139.718 182.833 139.591 182.85C139.294 182.887 139.022 182.951 138.776 183.04C138.533 183.129 138.338 183.257 138.191 183.424C138.047 183.589 137.975 183.808 137.975 184.081C137.975 184.461 138.116 184.748 138.396 184.943C138.676 185.135 139.034 185.23 139.468 185.23Z" fill="#61DAFB"/>
<path d="M148.746 178.407V179.638H144.441V178.407H148.746ZM145.596 176.519H147.13V183.973C147.13 184.271 147.174 184.495 147.263 184.646C147.352 184.793 147.467 184.894 147.607 184.948C147.751 185 147.906 185.025 148.074 185.025C148.197 185.025 148.305 185.017 148.397 185C148.489 184.983 148.561 184.969 148.612 184.959L148.89 186.226C148.801 186.26 148.674 186.294 148.51 186.328C148.346 186.366 148.14 186.387 147.894 186.39C147.491 186.397 147.114 186.325 146.765 186.175C146.417 186.024 146.134 185.791 145.919 185.477C145.703 185.162 145.596 184.767 145.596 184.292V176.519Z" fill="#61DAFB"/>
<path d="M150.443 186.287V178.407H151.977V186.287H150.443ZM151.218 177.191C150.951 177.191 150.722 177.102 150.53 176.924C150.342 176.743 150.248 176.527 150.248 176.277C150.248 176.024 150.342 175.809 150.53 175.631C150.722 175.45 150.951 175.359 151.218 175.359C151.484 175.359 151.712 175.45 151.9 175.631C152.091 175.809 152.187 176.024 152.187 176.277C152.187 176.527 152.091 176.743 151.9 176.924C151.712 177.102 151.484 177.191 151.218 177.191Z" fill="#61DAFB"/>
<path d="M160.782 178.407L157.925 186.287H156.283L153.42 178.407H155.067L157.063 184.471H157.145L159.135 178.407H160.782Z" fill="#61DAFB"/>
<path d="M165.353 186.446C164.576 186.446 163.907 186.281 163.346 185.949C162.789 185.614 162.358 185.143 162.054 184.538C161.753 183.929 161.602 183.216 161.602 182.398C161.602 181.591 161.753 180.88 162.054 180.264C162.358 179.648 162.782 179.168 163.326 178.822C163.873 178.477 164.513 178.304 165.245 178.304C165.689 178.304 166.12 178.378 166.538 178.525C166.955 178.672 167.33 178.903 167.661 179.217C167.993 179.532 168.255 179.941 168.446 180.444C168.638 180.943 168.734 181.55 168.734 182.265V182.809H162.469V181.66H167.23C167.23 181.256 167.148 180.898 166.984 180.587C166.82 180.273 166.589 180.025 166.291 179.843C165.997 179.662 165.652 179.571 165.255 179.571C164.824 179.571 164.448 179.677 164.126 179.889C163.808 180.098 163.562 180.372 163.388 180.71C163.217 181.046 163.131 181.41 163.131 181.803V182.701C163.131 183.228 163.223 183.676 163.408 184.045C163.596 184.415 163.858 184.697 164.193 184.892C164.528 185.083 164.92 185.179 165.368 185.179C165.659 185.179 165.924 185.138 166.163 185.056C166.403 184.971 166.61 184.844 166.784 184.676C166.958 184.509 167.092 184.302 167.184 184.056L168.636 184.317C168.52 184.745 168.311 185.119 168.01 185.441C167.713 185.759 167.338 186.007 166.887 186.185C166.439 186.359 165.927 186.446 165.353 186.446Z" fill="#61DAFB"/>
</svg>
