<svg width="251" height="251" viewBox="0 0 251 251" fill="none" xmlns="http://www.w3.org/2000/svg">
<rect x="0.670166" y="0.0158691" width="250" height="250" fill="white"/>
<rect width="210" height="59.434" transform="translate(20.6702 95.299)" fill="url(#paint0_linear_284_3)"/>
<path d="M74.5643 109.621C74.5472 109.515 74.4942 109.417 74.4139 109.344C74.3336 109.271 74.2306 109.226 74.1214 109.217C73.9378 109.202 70.3404 109.148 70.3404 109.148C70.3404 109.148 67.3325 106.276 67.0353 105.985C66.738 105.692 66.1578 105.78 65.9321 105.846C65.9296 105.848 65.368 106.018 64.4215 106.307C64.2343 105.704 63.9919 105.119 63.6973 104.56C62.6278 102.551 61.0582 101.489 59.1635 101.486H59.1559C59.0246 101.486 58.8949 101.498 58.7627 101.509C58.7072 101.443 58.6502 101.379 58.5917 101.315C57.7665 100.446 56.7072 100.024 55.439 100.061C52.9919 100.13 50.5541 101.868 48.5777 104.953C47.1866 107.125 46.1289 109.853 45.8283 111.966L41.0108 113.433C39.5919 113.871 39.5472 113.913 39.362 115.228C39.2239 116.222 35.512 144.432 35.512 144.432L66.6184 149.721L80.1002 146.427C80.1002 146.427 74.5988 109.872 74.5643 109.621ZM62.8628 106.781L60.4494 107.515C60.4308 106.297 60.2843 104.602 59.7066 103.138C61.5634 103.484 62.4771 105.549 62.8628 106.781ZM58.8216 108.011L53.6285 109.592C54.1304 107.703 55.0819 105.821 56.2516 104.589C56.6861 104.13 57.2941 103.619 58.0149 103.327C58.6919 104.716 58.8385 106.681 58.8216 108.011ZM55.487 101.662C56.0621 101.65 56.5455 101.774 56.9589 102.041C56.2971 102.379 55.6579 102.864 55.0584 103.496C53.5039 105.135 52.3123 107.68 51.8374 110.135C50.3553 110.587 48.9061 111.029 47.5714 111.433C48.4135 107.569 51.7094 101.77 55.487 101.662Z" fill="white"/>
<path d="M74.1962 109.22C74.0126 109.204 70.4161 109.15 70.4161 109.15C70.4161 109.15 67.4082 106.279 67.111 105.988C66.9958 105.883 66.8495 105.816 66.6933 105.799L66.6941 149.721L80.175 146.429C80.175 146.429 74.6745 109.876 74.6392 109.625C74.622 109.518 74.5691 109.42 74.4888 109.347C74.4086 109.273 74.3055 109.228 74.1962 109.219V109.22Z" fill="white"/>
<path d="M59.1467 112.607L57.5804 118.364C57.5804 118.364 55.8339 117.584 53.7641 117.711C50.7276 117.901 50.6956 119.782 50.7267 120.255C50.8918 122.83 57.7833 123.392 58.1707 129.424C58.4747 134.169 55.6099 137.415 51.4821 137.672C46.5264 137.978 43.7989 135.106 43.7989 135.106L44.849 130.717C44.849 130.717 47.5942 132.753 49.792 132.616C51.2278 132.527 51.7414 131.379 51.6892 130.568C51.4736 127.209 45.8612 127.407 45.5067 121.888C45.2077 117.243 48.3108 112.536 55.1586 112.113C57.7968 111.945 59.1467 112.607 59.1467 112.607Z" fill="#7EA13C"/>
<path d="M97.8529 122.823C96.3034 121.995 95.506 121.299 95.506 120.34C95.506 119.122 96.6125 118.339 98.3413 118.339C100.353 118.339 102.149 119.166 102.149 119.166L103.566 114.899C103.566 114.899 102.263 113.897 98.4289 113.897C93.0926 113.897 89.3942 116.901 89.3942 121.123C89.3942 123.518 91.1204 125.346 93.4252 126.652C95.2854 127.695 95.9498 128.436 95.9498 129.524C95.9498 130.655 95.0193 131.57 93.293 131.57C90.7196 131.57 88.2894 130.264 88.2894 130.264L86.7837 134.53C86.7837 134.53 89.0287 136.01 92.8063 136.01C98.2975 136.01 102.239 133.354 102.239 128.566C102.238 126 100.246 124.172 97.8529 122.823ZM119.731 113.855C117.03 113.855 114.903 115.117 113.265 117.032L113.177 116.988L115.524 104.931H109.412L103.478 135.619H109.59L111.628 125.129C112.424 121.166 114.506 118.73 116.454 118.73C117.827 118.73 118.359 119.644 118.359 120.95C118.359 121.778 118.271 122.78 118.094 123.606L115.792 135.62H121.904L124.294 123.214C124.56 121.907 124.738 120.342 124.738 119.296C124.735 115.9 122.92 113.854 119.732 113.854L119.731 113.855ZM138.551 113.855C131.199 113.855 126.33 120.384 126.33 127.653C126.33 132.311 129.252 136.053 134.744 136.053C141.962 136.053 146.833 129.699 146.833 122.256C146.833 117.947 144.264 113.854 138.551 113.854V113.855ZM135.54 131.441C133.459 131.441 132.573 129.7 132.573 127.523C132.573 124.085 134.389 118.47 137.71 118.47C139.88 118.47 140.588 120.299 140.588 122.083C140.588 125.782 138.774 131.441 135.54 131.441ZM162.466 113.855C158.34 113.855 155.999 117.424 155.999 117.424H155.912L156.266 114.204H150.864C150.598 116.381 150.11 119.687 149.624 122.169L145.372 144.15H151.484L153.166 135.27H153.3C153.3 135.27 154.554 136.053 156.887 136.053C164.061 136.053 168.754 128.828 168.754 121.515C168.754 117.468 166.938 113.855 162.466 113.855ZM156.62 131.527C155.034 131.527 154.095 130.657 154.095 130.657L155.114 125.042C155.823 121.299 157.815 118.817 159.941 118.817C161.801 118.817 162.376 120.514 162.376 122.126C162.376 125.999 160.03 131.527 156.62 131.527ZM177.478 105.236C175.531 105.236 173.98 106.759 173.98 108.718C173.98 110.503 175.131 111.722 176.859 111.722H176.947C178.852 111.722 180.49 110.459 180.534 108.24C180.534 106.499 179.338 105.236 177.478 105.236ZM168.932 135.619H175.042L179.206 114.334H173.05L168.932 135.619ZM194.75 114.291H190.499L190.719 113.289C191.074 111.243 192.314 109.415 194.351 109.415C195.012 109.417 195.67 109.52 196.299 109.72L197.495 105.019C197.495 105.019 196.432 104.497 194.173 104.497C192.003 104.497 189.834 105.106 188.195 106.499C186.113 108.24 185.139 110.764 184.652 113.289L184.476 114.291H181.641L180.755 118.818H183.59L180.357 135.621H186.469L189.702 118.818H193.909L194.75 114.291ZM209.452 114.335C209.452 114.335 205.632 123.796 203.916 128.96H203.827C203.711 127.296 202.321 114.334 202.321 114.334H195.9L199.577 133.877C199.666 134.313 199.622 134.575 199.444 134.879C198.734 136.228 197.539 137.535 196.122 138.493C194.971 139.32 193.687 139.842 192.669 140.189L194.351 145.283C195.591 145.022 198.159 144.02 200.329 142.019C203.12 139.45 205.687 135.489 208.344 130.091L215.828 114.333H209.452V114.335Z" fill="white"/>
<defs>
<linearGradient id="paint0_linear_284_3" x1="0" y1="29.717" x2="210" y2="29.717" gradientUnits="userSpaceOnUse">
<stop offset="0.155" stop-color="#4E7800"/>
<stop offset="1" stop-color="#95BF47"/>
</linearGradient>
</defs>
</svg>
