<svg width="251" height="251" viewBox="0 0 251 251" fill="none" xmlns="http://www.w3.org/2000/svg">
<rect x="0.908691" y="0.799561" width="250" height="250" fill="white"/>
<path d="M96.9883 79.5652C94.1998 77.6897 88.3618 72.3312 100.125 67.33C110.819 62.7838 120.8 62.4514 134.546 63.0432C146.518 63.5586 160.629 65.3568 158.395 75.8166C158.394 75.8199 158.394 75.8231 158.393 75.8263L158.335 76.0822C159.207 86.4418 113.114 90.4109 96.9883 79.5652Z" fill="#BFC040"/>
<path d="M100.838 83.0954C98.5534 82.1778 93.7844 79.5931 103.541 77.4808C112.411 75.5607 120.653 75.5806 131.994 76.0944C141.872 76.5419 153.503 77.6211 151.561 82.4288L151.559 82.4332L151.509 82.5508C152.132 87.3661 114.048 88.4019 100.838 83.0954Z" fill="#6ABF15"/>
<path d="M179.724 74.3967C179.724 85.0179 155.63 93.6281 125.909 93.6281C96.1873 93.6281 72.0933 85.0179 72.0933 74.3967C72.0933 63.7755 96.1873 55.1653 125.909 55.1653C155.63 55.1653 179.724 63.7755 179.724 74.3967ZM93.2883 74.3967C93.2883 80.8348 107.893 86.0539 125.909 86.0539C143.924 86.0539 158.529 80.8348 158.529 74.3967C158.529 67.9586 143.924 62.7395 125.909 62.7395C107.893 62.7395 93.2883 67.9586 93.2883 74.3967Z" fill="#FEFEFE"/>
<path d="M179.259 178.456C141.311 208.914 92.6891 193.853 73.1213 181.163V78.3232C81.0882 89.7968 106.33 92.1436 120.294 92.1436C153.424 92.1436 172.795 84.4076 179.259 77.2801V178.456Z" fill="#156BC2"/>
<path d="M124.951 196.352L123.852 91.9577C150.263 91.9577 172.021 83.3135 179.724 77.2801V178.512C163.813 193.556 136.522 197.044 124.951 196.352Z" fill="#1596C1"/>
<path d="M110.927 132.27C110.85 131.499 110.522 130.9 109.942 130.473C109.363 130.046 108.576 129.833 107.582 129.833C106.907 129.833 106.337 129.928 105.872 130.12C105.407 130.304 105.05 130.562 104.802 130.894C104.56 131.225 104.439 131.601 104.439 132.021C104.426 132.371 104.499 132.677 104.658 132.938C104.824 133.2 105.05 133.426 105.337 133.617C105.623 133.802 105.955 133.964 106.33 134.104C106.706 134.238 107.108 134.353 107.534 134.448L109.293 134.869C110.146 135.06 110.93 135.314 111.643 135.633C112.357 135.951 112.975 136.343 113.497 136.808C114.019 137.273 114.424 137.821 114.71 138.452C115.003 139.082 115.153 139.805 115.16 140.621C115.153 141.818 114.847 142.857 114.242 143.736C113.643 144.609 112.777 145.287 111.643 145.771C110.516 146.249 109.156 146.488 107.563 146.488C105.983 146.488 104.607 146.246 103.435 145.762C102.269 145.277 101.359 144.561 100.702 143.612C100.053 142.656 99.7119 141.474 99.68 140.067H103.684C103.728 140.723 103.916 141.271 104.247 141.71C104.585 142.143 105.034 142.471 105.595 142.694C106.162 142.911 106.802 143.019 107.515 143.019C108.216 143.019 108.824 142.917 109.34 142.713C109.863 142.51 110.267 142.226 110.554 141.863C110.841 141.5 110.984 141.083 110.984 140.611C110.984 140.172 110.853 139.802 110.592 139.503C110.337 139.203 109.961 138.949 109.465 138.738C108.974 138.528 108.372 138.337 107.659 138.165L105.528 137.63C103.878 137.229 102.575 136.601 101.62 135.748C100.664 134.894 100.19 133.744 100.196 132.298C100.19 131.113 100.505 130.078 101.142 129.193C101.785 128.307 102.668 127.616 103.789 127.119C104.91 126.622 106.184 126.374 107.611 126.374C109.063 126.374 110.331 126.622 111.414 127.119C112.503 127.616 113.35 128.307 113.956 129.193C114.561 130.078 114.873 131.104 114.892 132.27H110.927Z" fill="white"/>
<path d="M125.329 139.407H128.845L130.613 141.681L132.352 143.707L135.629 147.816H131.769L129.514 145.045L128.358 143.401L125.329 139.407ZM135.926 136.426C135.926 138.56 135.521 140.376 134.712 141.873C133.909 143.37 132.814 144.513 131.425 145.303C130.043 146.086 128.488 146.478 126.762 146.478C125.023 146.478 123.462 146.083 122.08 145.293C120.698 144.503 119.605 143.36 118.803 141.863C118 140.366 117.599 138.554 117.599 136.426C117.599 134.292 118 132.477 118.803 130.98C119.605 129.483 120.698 128.342 122.08 127.559C123.462 126.769 125.023 126.374 126.762 126.374C128.488 126.374 130.043 126.769 131.425 127.559C132.814 128.342 133.909 129.483 134.712 130.98C135.521 132.477 135.926 134.292 135.926 136.426ZM131.731 136.426C131.731 135.044 131.524 133.878 131.11 132.929C130.702 131.98 130.126 131.26 129.38 130.769C128.635 130.279 127.762 130.034 126.762 130.034C125.762 130.034 124.889 130.279 124.144 130.769C123.399 131.26 122.819 131.98 122.405 132.929C121.997 133.878 121.793 135.044 121.793 136.426C121.793 137.808 121.997 138.974 122.405 139.923C122.819 140.872 123.399 141.592 124.144 142.083C124.889 142.573 125.762 142.819 126.762 142.819C127.762 142.819 128.635 142.573 129.38 142.083C130.126 141.592 130.702 140.872 131.11 139.923C131.524 138.974 131.731 137.808 131.731 136.426Z" fill="white"/>
<path d="M138.99 146.211V126.641H143.128V142.799H151.517V146.211H138.99Z" fill="white"/>
</svg>
