<svg width="251" height="251" viewBox="0 0 251 251" fill="none" xmlns="http://www.w3.org/2000/svg">
<rect x="0.56427" y="0.260864" width="250" height="250" fill="white"/>
<path fill-rule="evenodd" clip-rule="evenodd" d="M116.154 164.594H106.416V165.621C109.461 165.621 109.951 166.269 109.951 170.105V177.021C109.951 180.857 109.461 181.559 106.416 181.559C104.077 181.236 102.499 179.992 100.323 177.615L97.8205 174.914C101.193 174.319 102.989 172.212 102.989 169.834C102.989 166.864 100.432 164.594 95.6442 164.594H86.0702V165.621C89.1161 165.621 89.6054 166.269 89.6054 170.105V177.021C89.6054 180.857 89.1161 181.559 86.0702 181.559V182.585H96.8958V181.559C93.8491 181.559 93.3599 180.857 93.3599 177.021V175.076H94.2841L100.323 182.585H116.154C123.933 182.585 127.306 178.479 127.306 173.563C127.306 168.647 123.933 164.594 116.154 164.594ZM93.3599 173.401V166.216H95.5904C98.0378 166.216 99.1263 167.89 99.1263 169.834C99.1263 171.726 98.0378 173.401 95.5904 173.401H93.3599ZM116.317 180.91H115.936C113.978 180.91 113.706 180.424 113.706 177.939V166.216C113.706 166.216 116.099 166.216 116.317 166.216C121.974 166.216 123.008 170.321 123.008 173.509C123.008 176.804 121.974 180.91 116.317 180.91ZM66.8681 159.191H56.6402V160.272C60.1224 160.272 60.6116 161.19 59.523 164.377L55.7698 175.4L50.3845 159.191H49.3502L43.8556 175.4L40.2112 164.377C39.0685 161.028 39.9389 160.272 43.1487 160.272V159.191H31.0715V160.272C34.2271 160.272 35.0975 161.082 36.4033 165.026L42.4413 183.504H43.1487L48.8063 166.592L54.3555 183.504H55.062L61.2643 165.026C62.6248 161.082 63.4406 160.272 66.8677 160.272L66.8681 159.191ZM74.2654 163.891C68.2816 163.891 63.3851 168.268 63.3851 173.563C63.3851 178.912 68.2816 183.288 74.2654 183.288C80.2495 183.288 85.146 178.912 85.146 173.563C85.1456 168.268 80.2495 163.891 74.2654 163.891ZM74.2654 181.559C69.2605 181.559 67.5196 177.129 67.5196 173.563C67.5196 170.051 69.2605 165.567 74.2654 165.567C79.3249 165.567 81.0653 170.05 81.0653 173.563C81.0653 177.129 79.3249 181.559 74.2654 181.559Z" fill="#494442"/>
<path fill-rule="evenodd" clip-rule="evenodd" d="M139.545 159.191H128.284V160.272C131.93 160.272 132.582 161.136 132.582 166.54V175.183C132.582 180.586 131.93 181.505 128.284 181.505V182.585H140.742V181.505C137.097 181.505 136.444 180.586 136.444 175.183V172.537H139.545C145.149 172.537 148.249 169.62 148.249 165.892C148.25 162.055 145.149 159.191 139.545 159.191ZM139.545 170.536H136.444V161.136H139.545C142.592 161.136 144.006 163.298 144.006 165.891C144.006 168.43 142.592 170.536 139.545 170.536ZM185.351 178.48C184.861 180.263 184.262 180.91 180.4 180.91H179.638C176.809 180.91 176.32 180.263 176.32 176.426V173.941C180.563 173.941 180.89 174.319 180.89 177.129H181.924V169.079H180.89C180.89 171.888 180.563 172.266 176.32 172.266V166.216H179.311C183.174 166.216 183.772 166.864 184.262 168.647L184.534 169.672H185.404L185.024 164.594H169.029V165.621C172.076 165.621 172.565 166.269 172.565 170.106V177.021C172.565 180.531 172.149 181.414 169.748 181.541C167.465 181.193 165.898 179.957 163.753 177.616L161.25 174.915C164.623 174.319 166.42 172.213 166.42 169.835C166.42 166.864 163.863 164.594 159.075 164.594H149.5V165.621C152.547 165.621 153.036 166.269 153.036 170.106V177.021C153.036 180.857 152.547 181.56 149.5 181.56V182.585H160.325V181.56C157.279 181.56 156.79 180.857 156.79 177.021V175.076H157.715L163.752 182.585H186.111L186.438 177.507H185.621L185.351 178.48ZM156.791 173.401V166.216H159.022C161.469 166.216 162.558 167.89 162.558 169.834C162.558 171.726 161.469 173.401 159.022 173.401H156.791ZM199.658 172.644L196.666 171.185C194.054 169.996 192.911 169.241 192.911 167.836C192.911 166.485 194.326 165.62 195.85 165.62C198.733 165.62 200.147 167.727 200.528 170.267H201.67V163.891H200.637C200.473 164.539 200.201 165.134 199.929 165.351C199.004 164.594 197.482 163.946 195.687 163.946C192.312 163.946 189.865 166.161 189.865 168.755C189.865 171.132 191.497 172.914 193.673 173.941L196.774 175.4C199.004 176.426 200.256 177.507 200.256 178.912C200.256 180.533 198.841 181.504 197.101 181.504C193.891 181.504 191.388 179.398 190.953 175.832H189.865V183.287H190.899C191.008 182.531 191.497 181.721 191.77 181.451C192.585 182.153 194.489 183.287 196.666 183.287C200.31 183.287 203.303 180.91 203.303 177.506C203.303 175.886 202.269 173.886 199.658 172.644ZM216.412 172.644L213.421 171.185C210.809 169.996 209.666 169.241 209.666 167.836C209.666 166.485 211.081 165.62 212.604 165.62C215.487 165.62 216.902 167.727 217.282 170.267H218.425V163.891H217.391C217.228 164.539 216.956 165.134 216.685 165.351C215.759 164.594 214.236 163.946 212.441 163.946C209.068 163.946 206.619 166.161 206.619 168.755C206.619 171.132 208.251 172.914 210.428 173.941L213.529 175.4C215.759 176.426 217.011 177.507 217.011 178.912C217.011 180.533 215.596 181.504 213.855 181.504C210.645 181.504 208.144 179.398 207.708 175.832H206.62V183.287H207.655C207.763 182.531 208.252 181.721 208.524 181.451C209.34 182.153 211.245 183.287 213.421 183.287C217.065 183.287 220.057 180.91 220.057 177.506C220.057 175.886 219.024 173.886 216.412 172.644Z" fill="#494442"/>
<path fill-rule="evenodd" clip-rule="evenodd" d="M90.2306 107.707C90.2306 121.524 98.3155 133.464 110.04 139.123L93.274 93.5012C91.3245 97.8423 90.2306 102.647 90.2306 107.707ZM149.105 105.946C149.105 101.632 147.544 98.6444 146.206 96.319C144.425 93.4437 142.754 91.0082 142.754 88.1333C142.754 84.925 145.205 81.9371 148.656 81.9371C148.813 81.9371 148.96 81.9571 149.112 81.9653C142.859 76.2754 134.528 72.8012 125.378 72.8012C113.099 72.8012 102.297 79.0585 96.0114 88.5343C96.8371 88.5596 97.6143 88.5767 98.274 88.5767C101.95 88.5767 107.641 88.1328 107.641 88.1328C109.535 88.0223 109.759 90.7862 107.866 91.0082C107.866 91.0082 105.961 91.2309 103.844 91.3411L116.643 129.152L124.335 106.241L118.858 91.3415C116.966 91.2309 115.172 91.0086 115.172 91.0086C113.279 90.8984 113.501 88.0227 115.395 88.1333C115.395 88.1333 121.199 88.5771 124.652 88.5771C128.328 88.5771 134.019 88.1333 134.019 88.1333C135.915 88.0227 136.138 90.7866 134.245 91.0086C134.245 91.0086 132.337 91.2313 130.222 91.3415L142.924 128.865L146.429 117.231C147.948 112.401 149.105 108.934 149.105 105.946ZM125.995 110.761L115.449 141.194C118.598 142.114 121.928 142.616 125.378 142.616C129.47 142.616 133.396 141.913 137.049 140.637C136.955 140.488 136.869 140.33 136.799 140.157L125.995 110.761ZM156.218 90.9608C156.37 92.0729 156.455 93.2654 156.455 94.5505C156.455 98.0916 155.788 102.073 153.783 107.053L143.046 137.88C153.496 131.828 160.524 120.584 160.524 107.707C160.524 101.639 158.964 95.9319 156.218 90.9608ZM125.378 67.0179C102.787 67.0179 84.407 85.2714 84.407 107.707C84.407 130.146 102.787 148.398 125.378 148.398C147.968 148.398 166.35 130.146 166.35 107.707C166.35 85.2718 147.968 67.0179 125.378 67.0179ZM125.378 146.533C103.823 146.533 86.2855 129.116 86.2855 107.707C86.2855 86.2999 103.823 68.8836 125.378 68.8836C146.932 68.8836 164.468 86.2999 164.468 107.707C164.468 129.116 146.932 146.533 125.378 146.533Z" fill="#1D82AA"/>
</svg>
