<svg width="28" height="28" viewBox="0 0 28 28" fill="none" xmlns="http://www.w3.org/2000/svg">
<path d="M28 14C28 21.732 21.732 28 14 28C6.26801 28 0 21.732 0 14C0 6.26801 6.26801 0 14 0C21.732 0 28 6.26801 28 14Z" fill="white"/>
<path d="M17.7738 14.9508L18.224 12.0159H15.408V10.1114C15.408 9.30832 15.8014 8.52573 17.0627 8.52573H18.343V6.02708C18.343 6.02708 17.181 5.82878 16.0701 5.82878C13.751 5.82878 12.2352 7.23436 12.2352 9.77902V12.0159H9.65719V14.9508H12.2352V22.0458C12.76 22.128 13.2904 22.1693 13.8216 22.1691C14.3528 22.1693 14.8832 22.128 15.408 22.0458V14.9508H17.7738Z" fill="#0160E7"/>
</svg>
