<svg width="28" height="28" viewBox="0 0 28 28" fill="none" xmlns="http://www.w3.org/2000/svg">
<path d="M28 14C28 21.732 21.732 28 14 28C6.26801 28 0 21.732 0 14C0 6.26801 6.26801 0 14 0C21.732 0 28 6.26801 28 14Z" fill="white"/>
<path d="M14 9.65681C15.4062 9.65681 15.5805 9.65681 16.1405 9.6817C16.6507 9.70659 16.9369 9.7937 17.1236 9.86837C17.3725 9.96793 17.5467 10.0799 17.7333 10.2666C17.92 10.4533 18.032 10.6275 18.1316 10.8764C18.2062 11.063 18.2933 11.3368 18.3182 11.8595C18.3431 12.4195 18.3431 12.5813 18.3431 13.9999C18.3431 15.4186 18.3431 15.5804 18.3182 16.1404C18.2933 16.6506 18.2062 16.9368 18.1316 17.1235C18.032 17.3724 17.92 17.5466 17.7333 17.7333C17.5467 17.9199 17.3725 18.0319 17.1236 18.1315C16.9369 18.2061 16.6631 18.2933 16.1405 18.3181C15.5805 18.343 15.4187 18.343 14 18.343C12.5938 18.343 12.4196 18.343 11.8596 18.3181C11.3493 18.2933 11.0631 18.2061 10.8765 18.1315C10.6276 18.0319 10.4533 17.9199 10.2667 17.7333C10.08 17.5466 9.96801 17.3724 9.86845 17.1235C9.79379 16.9368 9.70668 16.663 9.68179 16.1404C9.6569 15.5804 9.6569 15.4186 9.6569 13.9999C9.6569 12.5813 9.6569 12.4195 9.68179 11.8595C9.70668 11.3493 9.79379 11.063 9.86845 10.8764C9.96801 10.6275 10.08 10.4533 10.2667 10.2666C10.4533 10.0799 10.6276 9.96793 10.8765 9.86837C11.0631 9.7937 11.3369 9.70659 11.8596 9.6817C12.4196 9.66926 12.5813 9.65681 14 9.65681ZM14 8.71103C12.5689 8.71103 12.3822 8.71103 11.8222 8.74837C11.2622 8.77326 10.8765 8.86037 10.5405 8.99726C10.192 9.13415 9.89334 9.30837 9.60712 9.60703C9.30845 9.9057 9.13423 10.1919 8.99734 10.5404C8.86045 10.8764 8.77334 11.2621 8.74845 11.8221C8.72356 12.3821 8.71112 12.5688 8.71112 13.9999C8.71112 15.431 8.71112 15.6177 8.74845 16.1777C8.77334 16.7377 8.86045 17.1235 8.99734 17.4595C9.13423 17.8079 9.30845 18.1066 9.60712 18.3928C9.90579 18.6915 10.192 18.8657 10.5405 19.0026C10.8765 19.1395 11.2622 19.2266 11.8222 19.2515C12.3822 19.2764 12.5689 19.2888 14 19.2888C15.4311 19.2888 15.6178 19.2888 16.1778 19.2515C16.7378 19.2266 17.1236 19.1395 17.4596 19.0026C17.808 18.8657 18.1067 18.6915 18.3929 18.3928C18.6916 18.0941 18.8658 17.8079 19.0027 17.4595C19.1396 17.1235 19.2267 16.7377 19.2516 16.1777C19.2765 15.6177 19.2889 15.431 19.2889 13.9999C19.2889 12.5688 19.2889 12.3821 19.2516 11.8221C19.2267 11.2621 19.1396 10.8764 19.0027 10.5404C18.8658 10.1919 18.6916 9.89326 18.3929 9.60703C18.0942 9.30837 17.808 9.13415 17.4596 8.99726C17.1236 8.86037 16.7378 8.77326 16.1778 8.74837C15.6053 8.71103 15.4311 8.71103 14 8.71103Z" fill="#0160E7"/>
<path d="M14 11.287C12.4942 11.287 11.2871 12.5066 11.2871 13.9999C11.2871 15.4932 12.4942 16.7128 14 16.7128C15.5058 16.7128 16.7129 15.4932 16.7129 13.9999C16.7129 12.5066 15.4934 11.287 14 11.287ZM14 15.767C13.0293 15.767 12.2329 14.983 12.2329 13.9999C12.2329 13.0168 13.0169 12.2328 14 12.2328C14.9831 12.2328 15.7671 13.0168 15.7671 13.9999C15.7671 14.983 14.9707 15.767 14 15.767Z" fill="#0160E7"/>
<path d="M16.8125 11.8096C17.163 11.8096 17.4471 11.5254 17.4471 11.1749C17.4471 10.8244 17.163 10.5403 16.8125 10.5403C16.4619 10.5403 16.1778 10.8244 16.1778 11.1749C16.1778 11.5254 16.4619 11.8096 16.8125 11.8096Z" fill="#0160E7"/>
</svg>
