<svg width="28" height="28" viewBox="0 0 28 28" fill="none" xmlns="http://www.w3.org/2000/svg">
<circle cx="14" cy="14" r="14" fill="white"/>
<path d="M9.26316 10.4615C9.96078 10.4615 10.5263 9.9105 10.5263 9.23077C10.5263 8.55103 9.96078 8 9.26316 8C8.56554 8 8 8.55103 8 9.23077C8 9.9105 8.56554 10.4615 9.26316 10.4615Z" fill="#0160E7"/>
<path d="M8 12.3076H10.5263V19.9999H8V12.3076ZM13.0526 15.2307V19.9999H15.2632V15.6922C15.2632 14.923 15.7368 14.3076 16.5263 14.3076C17.3158 14.3076 17.7895 15.0768 17.7895 15.6922V19.9999H20V15.2307C20 14.3076 18.8947 12.3076 16.5263 12.3076C14.1579 12.3076 13.0526 14.3076 13.0526 15.2307Z" fill="#0160E7"/>
</svg>
