<svg width="28" height="28" viewBox="0 0 28 28" fill="none" xmlns="http://www.w3.org/2000/svg">
<path d="M28 14C28 21.732 21.732 28 14 28C6.26801 28 0 21.732 0 14C0 6.26801 6.26801 0 14 0C21.732 0 28 6.26801 28 14Z" fill="white"/>
<path d="M12.3076 18.8409C16.4142 18.8409 18.6542 15.4436 18.6542 12.4942C18.6542 12.3947 18.6542 12.3076 18.6418 12.208C19.0773 11.8969 19.4507 11.4987 19.7493 11.0507C19.3511 11.2249 18.9156 11.3493 18.4676 11.3991C18.928 11.1253 19.2764 10.6898 19.4507 10.1671C19.0151 10.4284 18.5422 10.6027 18.032 10.7147C17.6213 10.2791 17.0489 10.0053 16.4018 10.0053C15.1698 10.0053 14.1742 11.0009 14.1742 12.2329C14.1742 12.4071 14.1991 12.5813 14.2364 12.7431C12.3822 12.656 10.7396 11.76 9.64444 10.416C9.45778 10.7396 9.34578 11.1253 9.34578 11.536C9.34578 12.3076 9.744 12.992 10.3413 13.3902C9.98044 13.3778 9.632 13.2782 9.33333 13.1164C9.33333 13.1289 9.33333 13.1289 9.33333 13.1413C9.33333 14.224 10.1049 15.12 11.1253 15.3316C10.9387 15.3813 10.7396 15.4062 10.5404 15.4062C10.3911 15.4062 10.2542 15.3938 10.1173 15.3689C10.4036 16.2524 11.2249 16.8996 12.1956 16.912C11.4364 17.5093 10.4658 17.8702 9.42044 17.8702C9.24622 17.8702 9.05955 17.8578 8.88533 17.8453C9.86844 18.4676 11.0382 18.8409 12.3076 18.8409Z" fill="#0160E7"/>
</svg>
