<svg width="28" height="29" viewBox="0 0 28 29" fill="none" xmlns="http://www.w3.org/2000/svg">
<path d="M28 14.2402C28 21.9722 21.732 28.2402 14 28.2402C6.26801 28.2402 0 21.9722 0 14.2402C0 6.50825 6.26801 0.240234 14 0.240234C21.732 0.240234 28 6.50825 28 14.2402Z" fill="white"/>
<path d="M7.32083 14.2402C7.32083 16.8895 8.84236 19.1718 11.0639 20.2427L7.91292 11.535C7.54688 12.3804 7.32083 13.2826 7.32083 14.2402ZM18.5087 13.9019C18.5087 13.0852 18.1985 12.4922 17.9448 12.0702C17.6065 11.5063 17.2968 11.0557 17.2968 10.4923C17.2968 9.87253 17.7761 9.30864 18.4246 9.30864H18.5092C17.325 8.20954 15.7471 7.56107 14 7.56107C12.8946 7.57085 11.8084 7.85071 10.836 8.37625C9.8635 8.9018 9.03425 9.65711 8.42042 10.5764H8.84333C9.54819 10.5764 10.6186 10.4918 10.6186 10.4918C10.9851 10.4636 11.0133 10.9988 10.675 11.0557C10.675 11.0557 10.3085 11.1121 9.91424 11.1121L12.338 18.326L13.8031 13.9578L12.7604 11.1116L12.0556 11.0562C11.689 11.028 11.7454 10.4923 12.0837 10.4923C12.0837 10.4923 13.1824 10.5769 13.8308 10.5769C14.5357 10.5769 15.6061 10.4923 15.6061 10.4923C15.9726 10.4641 16.0008 10.9993 15.6625 11.0562C15.6625 11.0562 15.296 11.1126 14.9017 11.1126L17.325 18.2993L18.0056 16.0729C18.2875 15.1429 18.5126 14.495 18.5126 13.9029L18.5087 13.9019ZM14.1128 14.8318L12.1119 20.6375C12.7035 20.8066 13.3515 20.9194 14 20.9194C14.789 20.9194 15.5215 20.7736 16.2264 20.5529C16.1982 20.5247 16.1982 20.4965 16.17 20.4683L14.1128 14.8318ZM19.8615 11.0562L19.9179 11.7368C19.9179 12.4173 19.8051 13.1742 19.4109 14.1323L17.3819 20.022C19.3545 18.8666 20.7069 16.7247 20.7069 14.2451C20.6787 13.0896 20.3685 12.0187 19.861 11.0611L19.8615 11.0562ZM14 6.46246C9.71639 6.46246 6.22222 9.95662 6.22222 14.2402C6.22222 18.5238 9.71639 22.018 14 22.018C18.2836 22.018 21.7778 18.5238 21.7778 14.2402C21.7778 9.95662 18.2836 6.46246 14 6.46246ZM14 21.6797C9.91375 21.6797 6.58875 18.3547 6.58875 14.2402C6.59184 12.2756 7.37365 10.3923 8.76286 9.0031C10.1521 7.61389 12.0354 6.83207 14 6.82898C15.9646 6.83207 17.8479 7.61389 19.2371 9.0031C20.6263 10.3923 21.4082 12.2756 21.4112 14.2402C21.4112 18.3547 18.0863 21.6797 14 21.6797Z" fill="#0160E7"/>
</svg>
