<svg width="28" height="28" viewBox="0 0 28 28" fill="none" xmlns="http://www.w3.org/2000/svg">
<path d="M28 14C28 21.732 21.732 28 14 28C6.26801 28 0 21.732 0 14C0 6.26801 6.26801 0 14 0C21.732 0 28 6.26801 28 14Z" fill="white"/>
<path d="M19.3629 11.2997C19.2385 10.8144 18.8527 10.441 18.3674 10.3042C17.4963 10.0802 13.9994 10.0802 13.9994 10.0802C13.9994 10.0802 10.5025 10.0802 9.61895 10.3166C9.13361 10.441 8.76028 10.8268 8.62339 11.3122C8.38695 12.1833 8.38695 14.0126 8.38695 14.0126C8.38695 14.0126 8.38695 15.8295 8.62339 16.713C8.74784 17.1984 9.13361 17.5717 9.61895 17.7086C10.4901 17.945 13.9994 17.945 13.9994 17.945C13.9994 17.945 17.4963 17.945 18.3798 17.7086C18.8652 17.5842 19.2385 17.1984 19.3754 16.713C19.6118 15.8419 19.6118 14.0126 19.6118 14.0126C19.6118 14.0126 19.5994 12.1833 19.3629 11.2997ZM12.8794 15.6802V12.3202L15.7914 14.0002L12.8794 15.6802Z" fill="#0160E7"/>
</svg>
